<svg width="281" height="231" xmlns="http://www.w3.org/2000/svg" xmlns:xlink="http://www.w3.org/1999/xlink"><defs><path d="M121.574 0c-13.652 1.3-27.548 1.022-40.957 3.901C64.563 7.35 26.05 19.62 24.179 42.275c-.411 4.982-3.62 24.401 3.816 31.169C40.762 85.062 67.88 84.734 79.86 87.76c11.821 2.988 22.768 9.233 34.779 11.329 33.1 5.774 50.94-33.641 45.336-60.97-3.91-19.065-19.137-25.815-34.78-33.753L121.576 0z" id="a"/><path d="M-5.86 155.699c9.218-1.067 31.795-6.158 37.49 3.98 12.746 22.688 11.24 66.43-22.362 70.954-6.18.832-24.347.185-30.157-6.085-10.585-11.421 1.632-54.725 10.149-63.222 2.708-2.702 6.37-4.24 9.555-6.359" id="c"/></defs><g transform="translate(25)" fill="none" fill-rule="evenodd"><path d="M41.173 143.428c12.035-11.85 21.724-21.047 29.07-27.59.307.495.616 1.173.926 2.038.494 1.05.833 1.759 1.018 2.129.865.37 1.574.587 2.13.648.801.31 1.512.31 2.129 0 4.444-3.95 7.128-8.578 8.054-13.887.124-.37.217-.74.278-1.11-4.381-3.458-13.269.832-26.663 12.868-6.544 5.925-13.117 12.59-19.72 19.997 1.296 1.357 2.222 2.994 2.778 4.907zM134.03 114.45c16.48 3.889 30.274 6.727 41.384 8.518 2.655-1.358 3.981-3.365 3.981-6.018.063-1.543-.526-4.074-1.759-7.592-2.777-1.666-6.542-3.147-11.295-4.444-7.714-2.097-11.604-3.147-11.665-3.147-2.159-.617-4.721-1.543-7.684-2.778l-7.5-3.333c-6.048-2.653-11.294-3.795-15.738-3.425 2.963 3.95 5.185 7.406 6.666 10.369 2.037 4.073 3.24 8.023 3.61 11.85zM115.792 86.676l-2.592-.74c-.246.925-.124 1.944.37 3.055 0 .06.526.957 1.574 2.684 1.111 2.037.74 3.704-1.11 5a8.316 8.316 0 01-1.02-.74c.31.864.649 1.697 1.02 2.499.925-.432 1.943-.648 3.054-.648.926.616 2.1 1.574 3.519 2.87 1.542 1.481 2.621 2.468 3.24 2.962l.092.093a1.154 1.154 0 01-.092-.463 45.633 45.633 0 01-.556-1.574l-.648-1.759a2.775 2.775 0 00-.185-.555c0-.062-.03-.186-.092-.37v-.093a430.759 430.759 0 00-2.5-6.296 2.895 2.895 0 01-.37-.926 62.802 62.802 0 00-1.76-2.592c-.37-.616-.74-1.172-1.11-1.666a3.13 3.13 0 00-.834-.74z" fill="#BBDCD0"/><path d="M114.033 98.434a30.24 30.24 0 01-1.018-2.5c-1.852-1.296-5.153-3.18-9.906-5.647-4.751-2.407-7.838-4.783-9.258-7.129-1.852 0-3.765 1.111-5.74 3.333-1.728 2.037-2.561 3.764-2.5 5.184a6.64 6.64 0 011.713.232l5.416 1.713c.309.185.587.338.833.463.37.124.74.338 1.111.648.063 0 .154.031.278.092.431.31.864.617 1.296.926.061.061.154.124.278.185.063.061.185.185.37.37.124.062.278.154.463.278 4.259 4.013 7.562 6.82 9.906 8.425 1.359-2.222 2.716-3.857 4.073-4.907.863-.74 1.76-1.296 2.685-1.666z" fill="#EFF7F5"/><path d="M131.624 38.997c-1.111-2.838-2.685-5.216-4.722-7.129v-.185a71.672 71.672 0 00-6.388-2.5c-2.218-.712-4.301-1.205-6.25-1.48-1.71-.24-3.315-.317-4.813-.232-.656.05-1.287.128-1.898.231.457.334 1.181.782 2.175 1.343 1.095.61 2.531 1.35 4.305 2.222a303.553 303.553 0 008.055 3.934.895.895 0 01.555.37c2.593 1.173 4.939 2.099 7.036 2.778.619.246 1.265.463 1.945.648zM97.554 27.24c-.37.06-.74.185-1.111.37-.802.309-1.635.68-2.5 1.11.123.125.278.217.463.278.185.37.402.741.648 1.111.619 1.172 1.513 2.624 2.685 4.352 1.62 2.525 2.824 4.5 3.61 5.925.804 1.392 1.204 2.255 1.204 2.592 0 1.728-.833 4.198-2.5 7.407-.864 1.666-2.097 3.949-3.703 6.85-1.11 2.408-4.197 4.968-9.258 7.685-.124 0-.587.185-1.388.555v.093h-.185c.06.431.214 1.357.462 2.777.186 1.296.434 2.624.741 3.981.31 1.235.556 2.254.74 3.055 2.284.37 4.198.247 5.74-.37.864-.926 1.915-1.728 3.148-2.407.556-3.148 2.345-7.962 5.37-14.443 2.655-5.37 4.259-9.165 4.814-11.387.061-.31.122-.556.185-.74.308-1.112.526-1.945.649-2.5 1.48 1.172 3.55 2.407 6.202 3.703.124.06.247.124.37.185 2.408 1.976 5 3.61 7.777 4.907a19.492 19.492 0 016.666 5.832c1.789 2.902 2.19 5.925 1.204 9.073.06-.06.122-.092.185-.092 3.396-2.222 5.555-5.37 6.48-9.444a7.898 7.898 0 00-1.203-2.129 16.695 16.695 0 00-2.87-3.055c-2.47-2.16-8.054-5.586-16.757-10.277-.546-.309-2.153-1.62-4.814-3.934-.443-.38-.906-.78-1.389-1.204-1-.877-2.113-1.864-3.333-2.962a505.077 505.077 0 01-3.796-3.38c-1.05-.986-2.007-1.79-2.87-2.407a39.298 39.298 0 00-1.666-1.11z" fill="#15283C"/><path d="M103.201 25.573a32.17 32.17 0 015.509-.556 26.483 26.483 0 00-.232-.555c-2.714-7.345-8.887-10.03-18.516-8.054-4.258 1.235-7.806 3.703-10.646 7.406-2.098 2.407-4.26 6.05-6.481 10.924-5.801 12.345-14.072 20.614-24.812 24.812-3.27 1.42-6.42 2.253-9.443 2.5l5.092 1.851c5.864 1.296 10.925 1.698 15.183 1.204 4.26-.432 7.838-1.05 10.74-1.852 2.901-.802 5.523-2.222 7.869-4.258 1.172-.987 2.902-3.117 5.185-6.389.027-.03.059-.06.092-.092a38.971 38.971 0 01-.185-1.481 44.495 44.495 0 01-.093-5 33.78 33.78 0 011.297-6.11c.185.124.34.278.462.463 1.384 1.363 2.728 2.505 4.028 3.425 2.455 1.732 4.755 2.657 6.897 2.778l.463-.278c-1.256-1.176-2.89-3.088-4.907-5.74a169.438 169.438 0 01-3.425-4.722 14.95 14.95 0 01-.834-1.296c.367-.409.752-.81 1.158-1.203-.299-2.176.148-4.213 1.342-6.11 1.418-2.098 3.396-3.426 5.925-3.982 2.468-.555 4.783-.153 6.944 1.204.505.343.968.713 1.388 1.111z" fill="#15283C"/><path d="M82.741 52.514a52.4 52.4 0 001.111 5.74c.248 1.11.802 3.55 1.667 7.314h.185v-.093c.801-.37 1.264-.555 1.388-.555 5.06-2.717 8.147-5.277 9.258-7.685 1.606-2.901 2.839-5.184 3.704-6.85 1.666-3.21 2.5-5.68 2.5-7.407 0-.337-.4-1.2-1.204-2.592-.787-1.426-1.99-3.4-3.61-5.925-1.173-1.728-2.067-3.18-2.686-4.352-.246-.37-.463-.74-.648-1.11a1.14 1.14 0 01-.463-.278c-2.394 1.274-4.508 2.816-6.341 4.629-.406.392-.791.794-1.158 1.203.247.432.524.865.834 1.296a169.438 169.438 0 003.425 4.722c2.016 2.652 3.651 4.564 4.907 5.74l-.463.278c-2.142-.12-4.442-1.046-6.897-2.778-1.3-.92-2.644-2.062-4.028-3.425a1.645 1.645 0 00-.462-.463 33.78 33.78 0 00-1.297 6.11 44.495 44.495 0 00.093 5c.052.488.113.983.185 1.48z" fill="#1A4D79"/><path d="M38.58 62.05c3.024-.247 6.174-1.08 9.443-2.5 10.74-4.198 19.01-12.467 24.812-24.812 2.222-4.875 4.383-8.517 6.48-10.924 2.841-3.703 6.389-6.171 10.647-7.406 9.629-1.976 15.802.709 18.516 8.054.078.181.156.367.232.555a32.17 32.17 0 00-5.509.556c-1.91.381-3.794.935-5.647 1.666.494.31 1.05.68 1.666 1.111.863.617 1.82 1.42 2.87 2.407 1.361 1.223 2.626 2.35 3.796 3.38a361.249 361.249 0 003.333 2.962c.483.424.946.824 1.389 1.204 2.66 2.314 4.268 3.625 4.814 3.934 8.703 4.69 14.287 8.116 16.757 10.277a16.695 16.695 0 012.87 3.055 7.898 7.898 0 011.204 2.13c.185-1.236.277-2.469.277-3.704.248-4.938-.957-9.382-3.61-13.331a15.408 15.408 0 00-1.296-1.667 18.124 18.124 0 01-1.945-.648c-2.097-.68-4.443-1.605-7.036-2.777a.895.895 0 00-.555-.37 303.552 303.552 0 01-8.055-3.935c-1.774-.872-3.21-1.611-4.305-2.222-.994-.561-1.718-1.01-2.175-1.343a20.772 20.772 0 011.898-.231c1.498-.085 3.103-.008 4.814.231 1.948.276 4.03.769 6.249 1.482a71.672 71.672 0 016.388 2.5 16.781 16.781 0 00-4.166-3.056c-2.622-1.6-5.538-2.664-8.749-3.194a19.974 19.974 0 00-.972-3.564c-1.852-5.06-5.37-8.95-10.554-11.665-5.618-2.902-11.417-3.365-17.405-1.39-6.974 2.162-13.27 7.5-18.887 16.017-1.357 2.161-3.272 5.801-5.74 10.925-2.653 4.875-4.258 7.9-4.814 9.073-.617 1.172-2.468 3.179-5.555 6.017-3.21 2.778-5.708 3.95-7.499 3.518-1.79-.555-2.9-1.018-3.333-1.388-.555-.31-.987-.802-1.296-1.481-.431-.741-.803-1.82-1.11-3.24-.371-1.482-.4-2.44-.093-2.87.801-1.236 2.407-1.143 4.814.277.678.555 1.172 1.05 1.481 1.481.804-1.912.122-3.55-2.037-4.907-1.975-1.357-4.103-1.48-6.388-.37-1.11.802-1.974 1.635-2.592 2.5-1.05 1.542-1.481 3.703-1.296 6.48.185 4.26 2.407 7.746 6.666 10.462.37.246.77.494 1.203.74z" fill="#1A4D79"/><path d="M224.111 91.768h.926c2.9.431 4.722.772 5.462 1.018 1.236.37 2.593.926 4.074 1.667.987-.74 1.635-1.235 1.944-1.481 2.53-2.161 3.918-3.92 4.166-5.278.123-1.42-.185-2.56-.925-3.425-.804-.865-2.376-1.605-4.722-2.222.926 1.481 1.883 2.716 2.87 3.703 1.174 2.161-1.14 1.944-6.944-.648-.37.987-.987 2.19-1.851 3.61-.987 1.421-2.006 2.315-3.055 2.686-1.172.246-1.822.37-1.945.37z" fill="#FB9773"/><path d="M175.414 122.968c2.716 1.42 5.34 2.129 7.87 2.129 3.025 0 5.432-1.08 7.22-3.24 4.815-3.518 10.555-8.394 17.22-14.628a65.11 65.11 0 013.334-2.963c3.332-3.147 6.11-5.708 8.332-7.684-2.716 1.543-5.925 3.642-9.629 6.296-14.936 10.739-23.052 16.109-24.348 16.109-1.606 0-3.766-2.778-6.48-8.333a9.328 9.328 0 01-.556-1.11c-.308 0-.556-.062-.74-.186 1.232 3.518 1.821 6.05 1.758 7.592 0 2.653-1.326 4.66-3.98 6.018zM40.802 143.983c-.555-2.222-1.603-4.258-3.148-6.11a7.623 7.623 0 00-1.759-1.296c-2.901-1.667-5.617-1.513-8.147.463-.185.06-.309.154-.37.278a21.558 21.558 0 002.13 1.666c3.332 2.468 4.999 4.412 4.999 5.833 0 .68-2.685 6.171-8.055 16.479-4.629 8.702-7.25 15.059-7.87 19.071.866-1.851 1.45-3.271 1.76-4.258 5.925-10.37 12.746-21.077 20.46-32.126z" fill="#E3926C"/><path d="M93.203 75.01c.618 2.47.833 5.185.648 8.148 1.42 2.346 4.507 4.722 9.258 7.129 4.753 2.468 8.054 4.351 9.906 5.647.37.31.71.556 1.018.74 1.852-1.295 2.222-2.962 1.111-4.999-1.048-1.727-1.574-2.623-1.574-2.684-.494-1.111-.616-2.13-.37-3.056-4.322-1.48-7.684-3.055-10.091-4.721-1.544-1.111-2.807-2.283-3.796-3.518a17.063 17.063 0 01-2.685-4.259 3.313 3.313 0 00-.278-.833c-1.233.68-2.284 1.481-3.147 2.407z" fill="#C07553"/><path d="M219.39 96.582c2.716-2.592 4.38-4.134 5-4.629.184 0 .092-.061-.279-.185.123 0 .773-.124 1.945-.37 1.05-.37 2.068-1.265 3.055-2.685.864-1.42 1.481-2.624 1.851-3.61 5.803 2.591 8.118 2.808 6.944.647-.987-.987-1.944-2.222-2.87-3.703 2.346.617 3.918 1.357 4.722 2.222.74.865 1.048 2.005.925 3.425-.248 1.358-1.636 3.117-4.166 5.278-.309.246-.957.74-1.944 1.48.556.247 1.111.525 1.666.834 1.915.68 3.733-.124 5.463-2.407 1.048-1.296 1.759-2.13 2.13-2.5.925-.864 1.912-1.327 2.962-1.388-.186-1.482-.741-2.685-1.667-3.611-.926-1.05-2.098-1.635-3.518-1.76.74-.8 1.883-1.171 3.426-1.11.618 0 2.007.185 4.166.555 1.727.31 2.994.37 3.796.186 1.296-.124 2.221-.773 2.777-1.945-5.986-2.097-12.004-3.055-18.053-2.87-6.544.247-12.375 1.79-17.498 4.63-3.764 3.764-9.073 7.623-15.924 11.572-3.888 2.16-9.628 5.43-17.22 9.814-.987.74-2.407 1.975-4.258 3.703-1.42 1.11-2.9 1.574-4.444 1.388.124.31.309.68.555 1.111 2.715 5.555 4.875 8.333 6.48 8.333 1.297 0 9.413-5.37 24.35-16.11 3.703-2.653 6.912-4.752 9.628-6.295zM113.2 85.935l2.592.741c3.952-1.727 7.253-4.814 9.906-9.258.308-.555.617-1.08.926-1.574a52.536 52.536 0 001.944-4.351l.648-2.13c.123-.555.278-1.079.463-1.573 0-.247.03-.463.093-.648-.063 0-.124.031-.185.092.987-3.148.585-6.171-1.204-9.073a19.492 19.492 0 00-6.666-5.832 36.638 36.638 0 01-7.776-4.907l-.37-.185c-2.654-1.296-4.722-2.531-6.203-3.703a54.21 54.21 0 01-.649 2.5 6.015 6.015 0 00-.185.74c-.555 2.222-2.159 6.018-4.814 11.387-3.025 6.48-4.814 11.295-5.37 14.443.123.246.217.524.278.833a17.063 17.063 0 002.685 4.259c.989 1.235 2.252 2.407 3.796 3.518 2.407 1.666 5.77 3.24 10.091 4.721z" fill="#EFA37F"/><path d="M133.938 185.478c-4.01-5.245-5.4-16.067-4.166-24.46.124-1.235.4-2.685.833-4.351-2.592-.802-4.69-1.204-6.295-1.204-13.641 0-23.873 7.408-28.811 22.407-.68 1.912-.382 4.595-1 7.867h.185c5.492 1.235 9.628 2.19 12.406 2.87 5.492 1.79 10.554 2.283 15.183 1.481 5.74-.925 9.628.205 11.665-4.61zM85.611 91.675c-1.79.432-3.518.741-5.184.926 2.284.926 4.599 2.531 6.943 4.814 6.914 8.764 10.462 14.937 10.647 18.516.124 2.532-.432 7.375-1.667 14.536 0 1.912 1.174 3.764 3.519 5.554 2.592 2.037 5.554 3.056 8.887 3.056 2.53 0 5.124-1.111 7.777-3.333 2.716-2.346 4.907-3.642 6.573-3.889 1.604-.185 3.363.278 5.277 1.389 1.789.987 3.64 1.635 5.555 1.944 1.789.31 3.672-.185 5.648-1.481a8.891 8.891 0 01-.556 1.666c1.05-2.097 1.326-4.597.833-7.499-.616-3.208-2.56-7.684-5.832-13.424-.37-3.827-1.574-7.777-3.611-11.85-1.481-2.963-3.703-6.42-6.666-10.37-.989-.06-2.285.062-3.888.371a430.755 430.755 0 012.5 6.296c.063.124.124.277.185.463.677 1.296 1.11 2.56 1.296 3.795v.093c.007.202.039.355.092.463l-.092-.093v.648c0 1.667-.493 3.087-1.481 4.259-1.173 1.42-2.87 2.13-5.092 2.13-3.333 0-10.37-3.92-21.109-11.758a1411.252 1411.252 0 00-9.906-7.129c.324 0 .68.046 1.065.139a6.64 6.64 0 00-1.713-.232zM97.554 27.24a32.907 32.907 0 015.647-1.667c-.42-.398-.883-.768-1.388-1.111-2.161-1.357-4.476-1.759-6.944-1.204-2.53.556-4.507 1.884-5.925 3.981-1.194 1.898-1.64 3.935-1.342 6.11 1.833-1.812 3.947-3.354 6.341-4.628a28.958 28.958 0 012.5-1.111c.37-.185.74-.31 1.111-.37z" fill="#FB9773"/><path d="M123.847 103.618c-.619-.494-1.698-1.481-3.24-2.962-1.419-1.296-2.593-2.254-3.519-2.87-1.11 0-2.129.216-3.055.648-.925.37-1.822.926-2.685 1.666-1.357 1.05-2.714 2.685-4.073 4.907-2.344-1.605-5.647-4.412-9.906-8.425a4.253 4.253 0 00-.463-.278c-.185-.185-.307-.309-.37-.37a1.056 1.056 0 01-.278-.185c-.432-.31-.865-.617-1.296-.926-.124-.061-.215-.092-.278-.092-.37-.31-.74-.524-1.111-.648a13.205 13.205 0 01-.833-.463l-5.416-1.713a4.584 4.584 0 00-1.065-.139c2.344 1.666 5.648 4.042 9.906 7.129 10.74 7.838 17.776 11.757 21.109 11.757 2.222 0 3.92-.709 5.092-2.129.988-1.172 1.48-2.592 1.48-4.259v-.648" fill="#7AACA0"/><path d="M119.496 91.675c-.804-1.666-1.76-3.086-2.87-4.258.37.494.74 1.05 1.11 1.666a62.802 62.802 0 011.76 2.592zM78.76 92.601c-4.259-1.481-8.486-.68-12.683 2.407-2.283 1.606-5.494 4.876-9.629 9.814-3.272 4.568-7.93 10.03-13.98 16.387-8.702 9.319-13.609 14.596-14.72 15.83 2.53-1.975 5.246-2.129 8.147-.462.68.37 1.265.802 1.76 1.296.309.246.555.463.74.648 6.603-7.406 13.176-14.072 19.72-19.997 13.394-12.036 22.282-16.326 26.663-12.869.061-.802.092-1.574.092-2.314-.124-3.95-1.822-7.253-5.091-9.907-.125-.06-.186-.124-.186-.185-.06-.06-.122-.092-.185-.092a1.103 1.103 0 00-.185-.278c-.124-.061-.215-.093-.278-.093-.063-.06-.124-.124-.185-.185z" fill="#F1F9FA"/><path d="M84.5 106.766c-.926 5.309-3.61 9.938-8.054 13.887-.617.31-1.328.31-2.13 0-.555-.061-1.264-.278-2.129-.648 5.123 11.049 9.69 21.664 13.702 31.848l1.666 4.444c2.283 4.443 3.055 8.98 2.315 13.609-.74 4.938-3.085 16.826-7.036 19.665.248.185.524.339.833.463 3.085 1.296 28.73-.745 32.866.427.618-3.272-25.65-1.172-20.09-12.5 4.938-14.999 14.226-22.498 27.867-22.498 1.605 0 3.703.402 6.295 1.204.31-1.79.772-3.889 1.389-6.296 1.235-4.753 1.974-8.147 2.222-10.183v-.093h.185c.063-.061.124-.093.185-.093.185-.246.433-.431.74-.555 1.667-1.172 2.902-2.531 3.704-4.074a8.891 8.891 0 00.556-1.666c-1.976 1.296-3.86 1.79-5.648 1.481-1.914-.309-3.766-.957-5.555-1.944-1.914-1.11-3.673-1.574-5.277-1.389-1.666.247-3.857 1.543-6.573 3.889-2.653 2.222-5.247 3.333-7.777 3.333-3.333 0-6.295-1.019-8.887-3.056-2.345-1.79-3.519-3.642-3.519-5.554 1.235-7.16 1.791-12.004 1.667-14.536-.185-3.579-3.733-9.752-10.647-18.516-2.344-2.283-4.659-3.888-6.943-4.814H78.76c.061.061.122.124.185.185.063 0 .154.032.278.093.061.061.122.154.185.278.063 0 .124.031.185.092 0 .061.061.124.186.185 3.27 2.654 4.967 5.957 5.091 9.907 0 .74-.031 1.512-.092 2.314-.061.37-.154.74-.278 1.111z" fill="#F27C4D"/><path d="M122.366 98.897v.092c.063.185.092.31.092.37.063.125.124.31.185.556l.648 1.76c.186.555.37 1.079.556 1.573v-.093c-.185-1.235-.619-2.5-1.296-3.795a3.375 3.375 0 00-.185-.463" fill="#912564"/><path d="M41.173 143.428c-.556-1.913-1.482-3.55-2.778-4.907a8.954 8.954 0 00-.74-.648c1.544 1.852 2.592 3.888 3.147 6.11.122-.185.248-.37.37-.555" fill="#FADBD0"/><path d="M29.496 136.615c-5.069 4.942-9.304 12.225-12.706 21.851-.127.514-1.444 4.684-3.947 12.513-1.605 5.07-3.113 9.145-4.524 12.225-1.091 3.466-2.92 8.696-5.486 15.69-.9 2.888-1.571 5.647-2.022 8.278a12.224 12.224 0 00-.385 2.214l-.192 5.776c.897-.385 1.54-1.059 1.925-2.022.065-.192.256-1.187.577-2.984v2.022c-.065.706-.096 1.54-.096 2.503-.129 1.796-.065 3.305.193 4.524 1.603-.514 2.598-2.022 2.984-4.524.514-3.53.835-5.487.962-5.872.064.962 0 3.08-.192 6.353-.13 2.632.032 4.75.48 6.353 1.926-1.219 2.985-3.947 3.177-8.182.127-2.824.193-4.491.193-5.005.256-1.733.706-3.144 1.347-4.236.513.578.77 1.604.77 3.08 0 .064-.096 1.477-.288 4.236-.32 3.529.385 5.327 2.117 5.39.32-.577.61-1.444.867-2.599l-.193-.096v-11.55c.578-.642 1.06-1.574 1.444-2.792.385-1.155.74-1.958 1.059-2.407l.963-.289c.577 0 .866.449.866 1.348v.866c.577 1.155.674 3.048.289 5.68-.258 1.476-.322 2.566-.193 3.272.256 1.026.93 1.766 2.022 2.214 1.99-3.402 2.856-7.22 2.598-11.454-.258-4.043-1.476-7.734-3.657-11.07-1.219-1.477-1.444-3.306-.674-5.487.127-.385.321-.737.577-1.059.643-4.171 3.37-10.78 8.182-19.829 5.583-10.717 8.375-16.427 8.375-17.134 0-1.476-1.733-3.498-5.198-6.064a22.415 22.415 0 01-2.214-1.733z" fill="#EEA37F"/><mask id="b" fill="#fff"><use xlink:href="#a"/></mask><path d="M83 145.428c-12.035-11.85-21.724-21.047-29.07-27.59-.307.495-.616 1.173-.926 2.038-.494 1.05-.833 1.759-1.018 2.129-.865.37-1.574.587-2.13.648-.801.31-1.512.31-2.129 0-4.444-3.95-7.128-8.578-8.054-13.887a7.168 7.168 0 01-.278-1.11c4.381-3.458 13.269.832 26.663 12.868 6.544 5.925 13.117 12.59 19.72 19.997-1.296 1.357-2.222 2.994-2.778 4.907z" fill="#BBDCD0" mask="url(#b)" transform="matrix(-1 0 0 1 125.173 0)"/><path d="M170.123 116.45c-16.48 3.889-30.274 6.727-41.383 8.518-2.655-1.358-3.981-3.365-3.981-6.018-.063-1.543.526-4.074 1.759-7.592 2.777-1.666 6.542-3.147 11.295-4.444 7.713-2.097 11.604-3.147 11.665-3.147 2.159-.617 4.721-1.543 7.684-2.778l7.499-3.333c6.05-2.653 11.295-3.795 15.739-3.425-2.963 3.95-5.185 7.406-6.666 10.369-2.037 4.073-3.24 8.023-3.61 11.85z" fill="#BBDCD0" mask="url(#b)" transform="matrix(-1 0 0 1 305.154 0)"/><path d="M122.162 88.676l2.592-.74c.247.925.124 1.944-.37 3.055 0 .06-.526.957-1.574 2.684-1.11 2.037-.74 3.704 1.111 5a8.316 8.316 0 001.018-.74 30.24 30.24 0 01-1.018 2.499c-.926-.432-1.944-.648-3.055-.648-.926.616-2.1 1.574-3.518 2.87-1.543 1.481-2.622 2.468-3.24 2.962l-.093.093c.054-.108.085-.261.093-.463.185-.494.37-1.018.555-1.574l.648-1.759c.061-.246.122-.431.185-.555 0-.062.03-.186.093-.37v-.093c.74-1.913 1.574-4.013 2.5-6.296.185-.309.309-.616.37-.926a62.802 62.802 0 011.759-2.592c.37-.616.74-1.172 1.11-1.666a3.13 3.13 0 01.834-.74z" fill="#BBDCD0" mask="url(#b)" transform="matrix(-1 0 0 1 238.954 0)"/><path d="M86.608 100.434c.37-.802.71-1.635 1.018-2.5 1.852-1.296 5.153-3.18 9.906-5.647 4.752-2.407 7.838-4.783 9.259-7.129 1.851 0 3.764 1.111 5.74 3.333 1.727 2.037 2.56 3.764 2.5 5.184a6.64 6.64 0 00-1.714.232l-5.416 1.713c-.309.185-.586.338-.833.463-.37.124-.74.338-1.11.648-.064 0-.154.031-.278.092-.432.31-.865.617-1.297.926a1.056 1.056 0 01-.277.185c-.063.061-.185.185-.37.37a4.253 4.253 0 00-.464.278c-4.258 4.013-7.562 6.82-9.906 8.425-1.359-2.222-2.716-3.857-4.073-4.907-.863-.74-1.76-1.296-2.685-1.666z" fill="#EFF7F5" mask="url(#b)" transform="matrix(-1 0 0 1 201.641 0)"/><path d="M108.553 40.997c1.11-2.838 2.685-5.216 4.721-7.129v-.185a71.672 71.672 0 016.388-2.5c2.219-.712 4.302-1.205 6.25-1.48 1.71-.24 3.316-.317 4.814-.232.655.05 1.287.128 1.898.231-.458.334-1.182.782-2.176 1.343-1.094.61-2.531 1.35-4.305 2.222a303.553 303.553 0 01-8.055 3.934.895.895 0 00-.555.37c-2.592 1.173-4.938 2.099-7.036 2.778-.619.246-1.265.463-1.944.648z" fill="#15283C" mask="url(#b)" transform="matrix(-1 0 0 1 241.176 0)"/><path d="M125.217 29.24c.37.06.74.185 1.111.37.802.309 1.635.68 2.5 1.11a1.14 1.14 0 01-.463.278c-.185.37-.402.741-.648 1.111-.619 1.172-1.513 2.624-2.685 4.352-1.62 2.525-2.824 4.5-3.61 5.925-.804 1.392-1.204 2.255-1.204 2.592 0 1.728.833 4.198 2.5 7.407.864 1.666 2.097 3.949 3.703 6.85 1.11 2.408 4.197 4.968 9.258 7.685.124 0 .587.185 1.388.555v.093h.186a111.93 111.93 0 01-.463 2.777 50.165 50.165 0 01-.74 3.981c-.31 1.235-.556 2.254-.742 3.055-2.283.37-4.197.247-5.74-.37-.862-.926-1.914-1.728-3.147-2.407-.556-3.148-2.344-7.962-5.37-14.443-2.655-5.37-4.259-9.165-4.814-11.387a6.015 6.015 0 00-.185-.74 54.208 54.208 0 01-.648-2.5c-1.482 1.172-3.55 2.407-6.203 3.703-.124.06-.247.124-.37.185-2.408 1.976-5 3.61-7.777 4.907a19.492 19.492 0 00-6.666 5.832c-1.789 2.902-2.19 5.925-1.204 9.073-.06-.06-.122-.092-.185-.092-3.396-2.222-5.555-5.37-6.48-9.444a7.898 7.898 0 011.203-2.129 16.695 16.695 0 012.87-3.055c2.47-2.16 8.055-5.586 16.757-10.277.546-.309 2.154-1.62 4.814-3.934.443-.38.906-.78 1.389-1.204 1-.877 2.113-1.864 3.333-2.962 1.17-1.03 2.435-2.157 3.796-3.38 1.05-.986 2.007-1.79 2.87-2.407a39.298 39.298 0 011.666-1.11z" fill="#15283C" mask="url(#b)" transform="matrix(-1 0 0 1 223.771 0)"/><path d="M45.089 27.573a32.17 32.17 0 00-5.509-.556c.076-.188.154-.374.232-.555 2.714-7.345 8.887-10.03 18.516-8.054 4.258 1.235 7.806 3.703 10.647 7.406 2.097 2.407 4.258 6.05 6.48 10.924 5.801 12.345 14.072 20.614 24.812 24.812 3.27 1.42 6.42 2.253 9.443 2.5l-5.092 1.851c-5.864 1.296-10.924 1.698-15.183 1.204-4.259-.432-7.838-1.05-10.74-1.852-2.901-.802-5.523-2.222-7.869-4.258-1.172-.987-2.901-3.117-5.184-6.389a2.18 2.18 0 00-.093-.092c.072-.498.133-.993.185-1.481.124-1.606.154-3.272.093-5a33.78 33.78 0 00-1.296-6.11c-.185.124-.341.278-.463.463-1.383 1.363-2.728 2.505-4.027 3.425-2.456 1.732-4.755 2.657-6.898 2.778l-.463-.278c1.256-1.176 2.89-3.088 4.907-5.74a169.438 169.438 0 003.426-4.722c.309-.431.587-.864.833-1.296-.367-.409-.752-.81-1.157-1.203.298-2.176-.149-4.213-1.343-6.11-1.418-2.098-3.396-3.426-5.925-3.982-2.468-.555-4.783-.153-6.944 1.204-.505.343-.968.713-1.388 1.111z" fill="#15283C" mask="url(#b)" transform="matrix(-1 0 0 1 149.29 0)"/><path d="M103.245 54.514a52.4 52.4 0 01-1.111 5.74c-.248 1.11-.802 3.55-1.667 7.314h-.185v-.093c-.801-.37-1.264-.555-1.388-.555-5.06-2.717-8.147-5.277-9.258-7.685-1.606-2.901-2.839-5.184-3.704-6.85-1.666-3.21-2.5-5.68-2.5-7.407 0-.337.4-1.2 1.204-2.592.787-1.426 1.99-3.4 3.61-5.925 1.173-1.728 2.067-3.18 2.686-4.352.246-.37.463-.74.648-1.11a1.14 1.14 0 00.463-.278c2.394 1.274 4.508 2.816 6.341 4.629.406.392.791.794 1.158 1.203a14.95 14.95 0 01-.834 1.296 169.438 169.438 0 01-3.425 4.722c-2.016 2.652-3.651 4.564-4.907 5.74l.463.278c2.142-.12 4.442-1.046 6.897-2.778 1.3-.92 2.644-2.062 4.028-3.425.122-.185.277-.339.462-.463a33.78 33.78 0 011.297 6.11 44.495 44.495 0 01-.093 5 38.97 38.97 0 01-.185 1.48z" fill="#1A4D79" mask="url(#b)" transform="matrix(-1 0 0 1 186.986 0)"/><path d="M129.651 64.05c-3.024-.247-6.173-1.08-9.443-2.5-10.74-4.198-19.01-12.467-24.812-24.812-2.222-4.875-4.382-8.517-6.48-10.924-2.84-3.703-6.388-6.171-10.647-7.406-9.628-1.976-15.802.709-18.516 8.054-.078.181-.156.367-.232.555a32.17 32.17 0 015.509.556c1.91.381 3.794.935 5.647 1.666-.494.31-1.05.68-1.666 1.111-.863.617-1.82 1.42-2.87 2.407a505.091 505.091 0 01-3.796 3.38 361.249 361.249 0 01-3.333 2.962c-.483.424-.946.824-1.388 1.204-2.661 2.314-4.268 3.625-4.815 3.934-8.702 4.69-14.287 8.116-16.757 10.277a16.695 16.695 0 00-2.87 3.055 7.898 7.898 0 00-1.203 2.13 24.931 24.931 0 01-.278-3.704c-.248-4.938.957-9.382 3.61-13.331.37-.556.804-1.111 1.297-1.667.68-.185 1.326-.402 1.944-.648 2.098-.68 4.444-1.605 7.036-2.777a.895.895 0 01.556-.37 303.552 303.552 0 008.054-3.935c1.774-.872 3.21-1.611 4.305-2.222.994-.561 1.718-1.01 2.176-1.343a20.772 20.772 0 00-1.898-.231c-1.498-.085-3.104-.008-4.814.231-1.948.276-4.031.769-6.25 1.482a71.672 71.672 0 00-6.388 2.5 16.781 16.781 0 014.166-3.056c2.622-1.6 5.539-2.664 8.75-3.194.2-1.166.523-2.355.971-3.564 1.852-5.06 5.37-8.95 10.555-11.665 5.617-2.902 11.417-3.365 17.405-1.39 6.973 2.162 13.27 7.5 18.886 16.017 1.357 2.161 3.272 5.801 5.74 10.925 2.653 4.875 4.259 7.9 4.814 9.073.617 1.172 2.468 3.179 5.555 6.017 3.21 2.778 5.709 3.95 7.5 3.518 1.79-.555 2.899-1.018 3.332-1.388.556-.31.987-.802 1.296-1.481.432-.741.804-1.82 1.111-3.24.37-1.482.4-2.44.093-2.87-.802-1.236-2.407-1.143-4.814.277-.678.555-1.173 1.05-1.482 1.481-.803-1.912-.122-3.55 2.037-4.907 1.976-1.357 4.103-1.48 6.388-.37 1.111.802 1.974 1.635 2.592 2.5 1.05 1.542 1.482 3.703 1.296 6.48-.185 4.26-2.407 7.746-6.665 10.462-.37.246-.77.494-1.204.74z" fill="#1A4D79" mask="url(#b)" transform="matrix(-1 0 0 1 169.231 0)"/><path d="M241.71 93.768h-.926c-2.9.431-4.722.772-5.463 1.018-1.235.37-2.592.926-4.073 1.667-.987-.74-1.635-1.235-1.944-1.481-2.53-2.161-3.918-3.92-4.166-5.278-.123-1.42.185-2.56.925-3.425.804-.865 2.376-1.605 4.722-2.222-.926 1.481-1.883 2.716-2.87 3.703-1.174 2.161 1.14 1.944 6.943-.648.37.987.987 2.19 1.852 3.61.987 1.421 2.005 2.315 3.055 2.686 1.172.246 1.822.37 1.944.37z" fill="#FB9773" mask="url(#b)" transform="matrix(-1 0 0 1 466.82 0)"/><path d="M220.39 124.968c-2.716 1.42-5.34 2.129-7.87 2.129-3.025 0-5.432-1.08-7.22-3.24-4.815-3.518-10.555-8.394-17.22-14.628a65.11 65.11 0 00-3.334-2.963c-3.333-3.147-6.11-5.708-8.332-7.684 2.716 1.543 5.925 3.642 9.629 6.296 14.936 10.739 23.052 16.109 24.348 16.109 1.605 0 3.766-2.778 6.48-8.333.247-.431.432-.801.556-1.11.308 0 .556-.062.74-.186-1.232 3.518-1.821 6.05-1.758 7.592 0 2.653 1.326 4.66 3.98 6.018z" fill="#E3926C" mask="url(#b)" transform="matrix(-1 0 0 1 396.804 0)"/><path d="M19.583 145.983c.555-2.222 1.603-4.258 3.148-6.11a7.623 7.623 0 011.759-1.296c2.901-1.667 5.617-1.513 8.147.463.185.06.309.154.37.278a21.558 21.558 0 01-2.13 1.666c-3.332 2.468-4.999 4.412-4.999 5.833 0 .68 2.685 6.171 8.055 16.479 4.629 8.702 7.25 15.059 7.87 19.071-.866-1.851-1.45-3.271-1.76-4.258-5.925-10.37-12.746-21.077-20.46-32.126z" fill="#E3926C" mask="url(#b)" transform="matrix(-1 0 0 1 61.385 0)"/><path d="M116.77 77.01c-.62 2.47-.834 5.185-.649 8.148-1.42 2.346-4.507 4.722-9.258 7.129-4.753 2.468-8.054 4.351-9.906 5.647-.37.31-.711.556-1.018.74-1.852-1.295-2.222-2.962-1.111-4.999 1.048-1.727 1.573-2.623 1.573-2.684.495-1.111.617-2.13.37-3.056 4.322-1.48 7.685-3.055 10.092-4.721 1.544-1.111 2.807-2.283 3.796-3.518a17.063 17.063 0 002.685-4.259c.06-.31.155-.587.277-.833 1.234.68 2.285 1.481 3.148 2.407z" fill="#C07553" mask="url(#b)" transform="matrix(-1 0 0 1 210.972 0)"/><path d="M215.76 98.582c-2.715-2.592-4.38-4.134-4.999-4.629-.185 0-.092-.061.278-.185-.122 0-.772-.124-1.944-.37-1.05-.37-2.068-1.265-3.055-2.685-.865-1.42-1.481-2.624-1.852-3.61-5.803 2.591-8.117 2.808-6.943.647.987-.987 1.944-2.222 2.87-3.703-2.346.617-3.918 1.357-4.722 2.222-.74.865-1.048 2.005-.926 3.425.248 1.358 1.637 3.117 4.166 5.278.31.246.958.74 1.945 1.48-.556.247-1.111.525-1.667.834-1.914.68-3.733-.124-5.462-2.407-1.048-1.296-1.76-2.13-2.13-2.5-.925-.864-1.912-1.327-2.962-1.388.185-1.482.74-2.685 1.666-3.611.926-1.05 2.098-1.635 3.519-1.76-.741-.8-1.884-1.171-3.426-1.11-.618 0-2.007.185-4.166.555-1.728.31-2.994.37-3.796.186-1.296-.124-2.222-.773-2.777-1.945 5.986-2.097 12.004-3.055 18.053-2.87 6.543.247 12.374 1.79 17.498 4.63 3.764 3.764 9.072 7.623 15.923 11.572 3.889 2.16 9.629 5.43 17.22 9.814.987.74 2.407 1.975 4.26 3.703 1.42 1.11 2.899 1.574 4.443 1.388-.124.31-.31.68-.556 1.111-2.714 5.555-4.875 8.333-6.48 8.333-1.296 0-9.412-5.37-24.349-16.11-3.703-2.653-6.912-4.752-9.628-6.295z" fill="#EFA37F" mask="url(#b)" transform="matrix(-1 0 0 1 436.15 0)"/><path d="M114.263 87.935l-2.592.741c-3.951-1.727-7.253-4.814-9.906-9.258a34.108 34.108 0 00-.926-1.574 52.536 52.536 0 01-1.944-4.351l-.648-2.13a11.566 11.566 0 00-.463-1.573c0-.247-.03-.463-.093-.648.063 0 .124.031.186.092-.987-3.148-.586-6.171 1.203-9.073a19.492 19.492 0 016.666-5.832 36.638 36.638 0 007.777-4.907l.37-.185c2.653-1.296 4.722-2.531 6.203-3.703.122.555.34 1.388.648 2.5.063.184.124.43.185.74.556 2.222 2.16 6.018 4.814 11.387 3.026 6.48 4.814 11.295 5.37 14.443a3.313 3.313 0 00-.278.833 17.063 17.063 0 01-2.685 4.259c-.988 1.235-2.251 2.407-3.795 3.518-2.408 1.666-5.77 3.24-10.092 4.721z" fill="#EFA37F" mask="url(#b)" transform="matrix(-1 0 0 1 228.463 0)"/><path d="M95.499 187.478c4.01-5.245 5.4-16.067 4.166-24.46-.124-1.235-.4-2.685-.833-4.351 2.592-.802 4.69-1.204 6.295-1.204 13.641 0 22.929 7.5 27.867 22.497.68 1.913 1.326 4.505 1.944 7.777h-.185c-5.492 1.235-9.628 2.19-12.406 2.87-5.492 1.79-10.554 2.283-15.183 1.481-5.74-.925-9.628.205-11.665-4.61z" fill="#FB9773" mask="url(#b)" transform="matrix(-1 0 0 1 230.437 0)"/><path d="M135.915 93.675c1.79.432 3.518.741 5.185.926-2.285.926-4.6 2.531-6.944 4.814-6.914 8.764-10.461 14.937-10.646 18.516-.125 2.532.431 7.375 1.666 14.536 0 1.912-1.174 3.764-3.518 5.554-2.592 2.037-5.555 3.056-8.888 3.056-2.53 0-5.123-1.111-7.777-3.333-2.716-2.346-4.906-3.642-6.573-3.889-1.603-.185-3.362.278-5.277 1.389-1.788.987-3.64 1.635-5.555 1.944-1.788.31-3.671-.185-5.647-1.481.124.555.31 1.11.555 1.666-1.05-2.097-1.325-4.597-.833-7.499.617-3.208 2.561-7.684 5.833-13.424.37-3.827 1.574-7.777 3.61-11.85 1.482-2.963 3.704-6.42 6.666-10.37.989-.06 2.285.062 3.889.371a430.751 430.751 0 00-2.5 6.296 3.374 3.374 0 00-.185.463c-.678 1.296-1.111 2.56-1.296 3.795v.093a1.154 1.154 0 01-.093.463l.093-.093v.648c0 1.667.492 3.087 1.48 4.259 1.173 1.42 2.87 2.13 5.093 2.13 3.333 0 10.369-3.92 21.108-11.758 4.259-3.087 7.562-5.463 9.906-7.129-.324 0-.68.046-1.064.139a6.64 6.64 0 011.712-.232z" fill="#FB9773" mask="url(#b)" transform="matrix(-1 0 0 1 222.526 0)"/><path d="M94.16 29.24a32.907 32.907 0 00-5.648-1.667c.42-.398.883-.768 1.389-1.111 2.16-1.357 4.475-1.759 6.943-1.204 2.53.556 4.507 1.884 5.925 3.981 1.195 1.898 1.641 3.935 1.343 6.11-1.833-1.812-3.948-3.354-6.342-4.628a28.958 28.958 0 00-2.5-1.111c-.37-.185-.74-.31-1.11-.37z" fill="#FB9773" mask="url(#b)" transform="matrix(-1 0 0 1 192.713 0)"/><path d="M87.26 105.618c.618-.494 1.697-1.481 3.24-2.962 1.418-1.296 2.592-2.254 3.518-2.87 1.11 0 2.129.216 3.055.648.926.37 1.822.926 2.685 1.666 1.357 1.05 2.714 2.685 4.073 4.907 2.344-1.605 5.647-4.412 9.906-8.425.185-.124.339-.216.463-.278.185-.185.307-.309.37-.37.124-.061.217-.124.278-.185.432-.31.865-.617 1.296-.926.124-.061.215-.092.278-.092.37-.31.74-.524 1.111-.648.246-.125.524-.278.833-.463l5.416-1.713c.385-.093.74-.139 1.065-.139a1411.265 1411.265 0 00-9.906 7.129c-10.74 7.838-17.776 11.757-21.109 11.757-2.222 0-3.92-.709-5.092-2.129-.988-1.172-1.48-2.592-1.48-4.259v-.648" fill="#7AACA0" mask="url(#b)" transform="matrix(-1 0 0 1 212.106 0)"/><path d="M117.626 93.675c.803-1.666 1.759-3.086 2.87-4.258-.37.494-.741 1.05-1.111 1.666a62.802 62.802 0 00-1.76 2.592z" fill="#F1F9FA" mask="url(#b)" transform="matrix(-1 0 0 1 238.121 0)"/><path d="M34.859 94.601c4.258-1.481 8.486-.68 12.683 2.407 2.283 1.606 5.494 4.876 9.629 9.814 3.271 4.568 7.93 10.03 13.98 16.387 8.702 9.319 13.609 14.596 14.72 15.83-2.53-1.975-5.246-2.129-8.148-.462-.68.37-1.264.802-1.759 1.296-.309.246-.555.463-.74.648-6.603-7.406-13.176-14.072-19.72-19.997-13.394-12.036-22.282-16.326-26.663-12.869a30.512 30.512 0 01-.093-2.314c.124-3.95 1.822-7.253 5.092-9.907.124-.06.185-.124.185-.185.062-.06.123-.092.186-.092.063-.124.124-.217.185-.278.124-.061.215-.093.277-.093.063-.06.125-.124.186-.185z" fill="#F1F9FA" mask="url(#b)" transform="matrix(-1 0 0 1 114.619 0)"/><path d="M128.272 108.766c.926 5.309 3.61 9.938 8.055 13.887.616.31 1.327.31 2.13 0 .555-.061 1.264-.278 2.129-.648-5.124 11.049-9.69 21.664-13.702 31.848l-1.667 4.444c-2.283 4.443-3.055 8.98-2.314 13.609.74 4.938 3.084 16.826 7.036 19.665a3.66 3.66 0 01-.833.463c-3.085 1.296-6.696-5.469-10.832-4.297-.619-3.272-1.265-5.864-1.945-7.777-4.938-14.998-14.225-22.497-27.866-22.497-1.606 0-3.703.402-6.296 1.204-.309-1.79-.772-3.889-1.388-6.296-1.235-4.753-1.974-8.147-2.222-10.183v-.093h-.186c-.062-.061-.124-.093-.185-.093a1.701 1.701 0 00-.74-.555c-1.667-1.172-2.902-2.531-3.704-4.074a8.891 8.891 0 01-.555-1.666c1.976 1.296 3.859 1.79 5.647 1.481 1.915-.309 3.767-.957 5.555-1.944 1.915-1.11 3.674-1.574 5.277-1.389 1.667.247 3.857 1.543 6.573 3.889 2.654 2.222 5.248 3.333 7.777 3.333 3.333 0 6.296-1.019 8.888-3.056 2.344-1.79 3.518-3.642 3.518-5.554-1.235-7.16-1.79-12.004-1.666-14.536.185-3.579 3.732-9.752 10.646-18.516 2.344-2.283 4.659-3.888 6.944-4.814h1.666c-.06.061-.122.124-.185.185-.063 0-.154.032-.278.093a1.103 1.103 0 00-.185.278c-.063 0-.124.031-.185.092 0 .061-.061.124-.185.185-3.27 2.654-4.968 5.957-5.092 9.907 0 .74.031 1.512.093 2.314.06.37.153.74.277 1.111z" fill="#F27C4D" mask="url(#b)" transform="matrix(-1 0 0 1 213.772 0)"/><path d="M124.847 100.897v.092c-.063.185-.093.31-.093.37-.063.125-.124.31-.185.556l-.648 1.76c-.185.555-.37 1.079-.555 1.573v-.093c.185-1.235.618-2.5 1.296-3.795.06-.186.122-.34.185-.463" fill="#912564" mask="url(#b)" transform="matrix(-1 0 0 1 248.212 0)"/><path d="M38.654 145.428c.556-1.913 1.482-3.55 2.778-4.907.185-.185.431-.402.74-.648-1.544 1.852-2.592 3.888-3.147 6.11-.122-.185-.248-.37-.37-.555" fill="#FADBD0" mask="url(#b)" transform="matrix(-1 0 0 1 80.827 0)"/><path d="M8.645 138.615c5.07 4.942 9.305 12.225 12.706 21.851.127.514 1.444 4.684 3.947 12.513 1.606 5.07 3.113 9.145 4.524 12.225 1.092 3.466 2.92 8.696 5.487 15.69.899 2.888 1.57 5.647 2.021 8.278.193.707.322 1.444.385 2.214l.193 5.776c-.897-.385-1.54-1.059-1.925-2.022-.066-.192-.256-1.187-.578-2.984v2.022c.065.706.096 1.54.096 2.503.13 1.796.066 3.305-.192 4.524-1.604-.514-2.6-2.022-2.984-4.524-.514-3.53-.836-5.487-.963-5.872-.063.962 0 3.08.193 6.353.129 2.632-.033 4.75-.482 6.353-1.925-1.219-2.984-3.947-3.176-8.182-.127-2.824-.193-4.491-.193-5.005-.256-1.733-.706-3.144-1.347-4.236-.512.578-.77 1.604-.77 3.08 0 .064.096 1.477.289 4.236.32 3.529-.386 5.327-2.118 5.39-.32-.577-.61-1.444-.866-2.599l.192-.096v-11.55c-.577-.642-1.059-1.574-1.444-2.792-.385-1.155-.74-1.958-1.059-2.407l-.962-.289c-.578 0-.867.449-.867 1.348v.866c-.577 1.155-.673 3.048-.288 5.68.258 1.476.321 2.566.192 3.272-.256 1.026-.93 1.766-2.021 2.214-1.99-3.402-2.857-7.22-2.6-11.454.259-4.043 1.477-7.734 3.659-11.07 1.218-1.477 1.443-3.306.673-5.487a3.402 3.402 0 00-.577-1.059c-.643-4.171-3.37-10.78-8.182-19.829-5.583-10.717-8.374-16.427-8.374-17.134 0-1.476 1.732-3.498 5.197-6.064a22.415 22.415 0 002.214-1.733z" fill="#EEA37F" mask="url(#b)" transform="matrix(-1 0 0 1 39.141 0)"/><mask id="d" fill="#fff"><use xlink:href="#c"/></mask><path d="M82 143.428c-12.035-11.85-21.724-21.047-29.07-27.59-.307.495-.616 1.173-.926 2.038-.494 1.05-.833 1.759-1.018 2.129-.865.37-1.574.587-2.13.648-.801.31-1.512.31-2.129 0-4.444-3.95-7.128-8.578-8.054-13.887a7.168 7.168 0 01-.278-1.11c4.381-3.458 13.269.832 26.663 12.868 6.544 5.925 13.117 12.59 19.72 19.997-1.296 1.357-2.222 2.994-2.778 4.907z" fill="#BBDCD0" mask="url(#d)" transform="matrix(-1 0 0 1 123.173 0)"/><path d="M169.123 114.45c-16.48 3.889-30.274 6.727-41.383 8.518-2.655-1.358-3.981-3.365-3.981-6.018-.063-1.543.526-4.074 1.759-7.592 2.777-1.666 6.542-3.147 11.295-4.444 7.713-2.097 11.604-3.147 11.665-3.147 2.159-.617 4.721-1.543 7.684-2.778l7.499-3.333c6.05-2.653 11.295-3.795 15.739-3.425-2.963 3.95-5.185 7.406-6.666 10.369-2.037 4.073-3.24 8.023-3.61 11.85z" fill="#BBDCD0" mask="url(#d)" transform="matrix(-1 0 0 1 303.154 0)"/><path d="M121.162 86.676l2.592-.74c.247.925.124 1.944-.37 3.055 0 .06-.526.957-1.574 2.684-1.11 2.037-.74 3.704 1.111 5a8.316 8.316 0 001.018-.74 30.24 30.24 0 01-1.018 2.499c-.926-.432-1.944-.648-3.055-.648-.926.616-2.1 1.574-3.518 2.87-1.543 1.481-2.622 2.468-3.24 2.962l-.093.093c.054-.108.085-.261.093-.463.185-.494.37-1.018.555-1.574l.648-1.759c.061-.246.122-.431.185-.555 0-.062.03-.186.093-.37v-.093c.74-1.913 1.574-4.013 2.5-6.296.185-.309.309-.616.37-.926a62.802 62.802 0 011.759-2.592c.37-.616.74-1.172 1.11-1.666a3.13 3.13 0 01.834-.74z" fill="#BBDCD0" mask="url(#d)" transform="matrix(-1 0 0 1 236.954 0)"/><path d="M85.608 98.434c.37-.802.71-1.635 1.018-2.5 1.852-1.296 5.153-3.18 9.906-5.647 4.752-2.407 7.838-4.783 9.259-7.129 1.851 0 3.764 1.111 5.74 3.333 1.727 2.037 2.56 3.764 2.5 5.184a6.64 6.64 0 00-1.714.232l-5.416 1.713c-.309.185-.586.338-.833.463-.37.124-.74.338-1.11.648-.064 0-.154.031-.278.092-.432.31-.865.617-1.297.926a1.056 1.056 0 01-.277.185c-.063.061-.185.185-.37.37a4.253 4.253 0 00-.464.278c-4.258 4.013-7.562 6.82-9.906 8.425-1.359-2.222-2.716-3.857-4.073-4.907-.863-.74-1.76-1.296-2.685-1.666z" fill="#EFF7F5" mask="url(#d)" transform="matrix(-1 0 0 1 199.641 0)"/><path d="M107.553 38.997c1.11-2.838 2.685-5.216 4.721-7.129v-.185a71.672 71.672 0 016.388-2.5c2.219-.712 4.302-1.205 6.25-1.48 1.71-.24 3.316-.317 4.814-.232.655.05 1.287.128 1.898.231-.458.334-1.182.782-2.176 1.343-1.094.61-2.531 1.35-4.305 2.222a303.553 303.553 0 01-8.055 3.934.895.895 0 00-.555.37c-2.592 1.173-4.938 2.099-7.036 2.778-.619.246-1.265.463-1.944.648z" fill="#15283C" mask="url(#d)" transform="matrix(-1 0 0 1 239.176 0)"/><path d="M124.217 27.24c.37.06.74.185 1.111.37.802.309 1.635.68 2.5 1.11a1.14 1.14 0 01-.463.278c-.185.37-.402.741-.648 1.111-.619 1.172-1.513 2.624-2.685 4.352-1.62 2.525-2.824 4.5-3.61 5.925-.804 1.392-1.204 2.255-1.204 2.592 0 1.728.833 4.198 2.5 7.407.864 1.666 2.097 3.949 3.703 6.85 1.11 2.408 4.197 4.968 9.258 7.685.124 0 .587.185 1.388.555v.093h.186a111.93 111.93 0 01-.463 2.777 50.165 50.165 0 01-.74 3.981c-.31 1.235-.556 2.254-.742 3.055-2.283.37-4.197.247-5.74-.37-.862-.926-1.914-1.728-3.147-2.407-.556-3.148-2.344-7.962-5.37-14.443-2.655-5.37-4.259-9.165-4.814-11.387a6.015 6.015 0 00-.185-.74 54.208 54.208 0 01-.648-2.5c-1.482 1.172-3.55 2.407-6.203 3.703-.124.06-.247.124-.37.185-2.408 1.976-5 3.61-7.777 4.907a19.492 19.492 0 00-6.666 5.832c-1.789 2.902-2.19 5.925-1.204 9.073-.06-.06-.122-.092-.185-.092-3.396-2.222-5.555-5.37-6.48-9.444a7.898 7.898 0 011.203-2.129 16.695 16.695 0 012.87-3.055c2.47-2.16 8.055-5.586 16.757-10.277.546-.309 2.154-1.62 4.814-3.934.443-.38.906-.78 1.389-1.204 1-.877 2.113-1.864 3.333-2.962 1.17-1.03 2.435-2.157 3.796-3.38 1.05-.986 2.007-1.79 2.87-2.407a39.298 39.298 0 011.666-1.11z" fill="#15283C" mask="url(#d)" transform="matrix(-1 0 0 1 221.771 0)"/><path d="M44.089 25.573a32.17 32.17 0 00-5.509-.556c.076-.188.154-.374.232-.555 2.714-7.345 8.887-10.03 18.516-8.054 4.258 1.235 7.806 3.703 10.647 7.406 2.097 2.407 4.258 6.05 6.48 10.924 5.801 12.345 14.072 20.614 24.812 24.812 3.27 1.42 6.42 2.253 9.443 2.5l-5.092 1.851c-5.864 1.296-10.924 1.698-15.183 1.204-4.259-.432-7.838-1.05-10.74-1.852-2.901-.802-5.523-2.222-7.869-4.258-1.172-.987-2.901-3.117-5.184-6.389a2.18 2.18 0 00-.093-.092c.072-.498.133-.993.185-1.481.124-1.606.154-3.272.093-5a33.78 33.78 0 00-1.296-6.11c-.185.124-.341.278-.463.463-1.383 1.363-2.728 2.505-4.027 3.425-2.456 1.732-4.755 2.657-6.898 2.778l-.463-.278c1.256-1.176 2.89-3.088 4.907-5.74a169.438 169.438 0 003.426-4.722c.309-.431.587-.864.833-1.296-.367-.409-.752-.81-1.157-1.203.298-2.176-.149-4.213-1.343-6.11-1.418-2.098-3.396-3.426-5.925-3.982-2.468-.555-4.783-.153-6.944 1.204-.505.343-.968.713-1.388 1.111z" fill="#15283C" mask="url(#d)" transform="matrix(-1 0 0 1 147.29 0)"/><path d="M102.245 52.514a52.4 52.4 0 01-1.111 5.74c-.248 1.11-.802 3.55-1.667 7.314h-.185v-.093c-.801-.37-1.264-.555-1.388-.555-5.06-2.717-8.147-5.277-9.258-7.685-1.606-2.901-2.839-5.184-3.704-6.85-1.666-3.21-2.5-5.68-2.5-7.407 0-.337.4-1.2 1.204-2.592.787-1.426 1.99-3.4 3.61-5.925 1.173-1.728 2.067-3.18 2.686-4.352.246-.37.463-.74.648-1.11a1.14 1.14 0 00.463-.278c2.394 1.274 4.508 2.816 6.341 4.629.406.392.791.794 1.158 1.203a14.95 14.95 0 01-.834 1.296 169.438 169.438 0 01-3.425 4.722c-2.016 2.652-3.651 4.564-4.907 5.74l.463.278c2.142-.12 4.442-1.046 6.897-2.778 1.3-.92 2.644-2.062 4.028-3.425.122-.185.277-.339.462-.463a33.78 33.78 0 011.297 6.11 44.495 44.495 0 01-.093 5 38.97 38.97 0 01-.185 1.48z" fill="#1A4D79" mask="url(#d)" transform="matrix(-1 0 0 1 184.986 0)"/><path d="M128.651 62.05c-3.024-.247-6.173-1.08-9.443-2.5-10.74-4.198-19.01-12.467-24.812-24.812-2.222-4.875-4.382-8.517-6.48-10.924-2.84-3.703-6.388-6.171-10.647-7.406-9.628-1.976-15.802.709-18.516 8.054-.078.181-.156.367-.232.555a32.17 32.17 0 015.509.556c1.91.381 3.794.935 5.647 1.666-.494.31-1.05.68-1.666 1.111-.863.617-1.82 1.42-2.87 2.407a505.091 505.091 0 01-3.796 3.38 361.249 361.249 0 01-3.333 2.962c-.483.424-.946.824-1.388 1.204-2.661 2.314-4.268 3.625-4.815 3.934-8.702 4.69-14.287 8.116-16.757 10.277a16.695 16.695 0 00-2.87 3.055 7.898 7.898 0 00-1.203 2.13 24.931 24.931 0 01-.278-3.704c-.248-4.938.957-9.382 3.61-13.331.37-.556.804-1.111 1.297-1.667.68-.185 1.326-.402 1.944-.648 2.098-.68 4.444-1.605 7.036-2.777a.895.895 0 01.556-.37 303.552 303.552 0 008.054-3.935c1.774-.872 3.21-1.611 4.305-2.222.994-.561 1.718-1.01 2.176-1.343a20.772 20.772 0 00-1.898-.231c-1.498-.085-3.104-.008-4.814.231-1.948.276-4.031.769-6.25 1.482a71.672 71.672 0 00-6.388 2.5 16.781 16.781 0 014.166-3.056c2.622-1.6 5.539-2.664 8.75-3.194.2-1.166.523-2.355.971-3.564 1.852-5.06 5.37-8.95 10.555-11.665 5.617-2.902 11.417-3.365 17.405-1.39 6.973 2.162 13.27 7.5 18.886 16.017 1.357 2.161 3.272 5.801 5.74 10.925 2.653 4.875 4.259 7.9 4.814 9.073.617 1.172 2.468 3.179 5.555 6.017 3.21 2.778 5.709 3.95 7.5 3.518 1.79-.555 2.899-1.018 3.332-1.388.556-.31.987-.802 1.296-1.481.432-.741.804-1.82 1.111-3.24.37-1.482.4-2.44.093-2.87-.802-1.236-2.407-1.143-4.814.277-.678.555-1.173 1.05-1.482 1.481-.803-1.912-.122-3.55 2.037-4.907 1.976-1.357 4.103-1.48 6.388-.37 1.111.802 1.974 1.635 2.592 2.5 1.05 1.542 1.482 3.703 1.296 6.48-.185 4.26-2.407 7.746-6.665 10.462-.37.246-.77.494-1.204.74z" fill="#1A4D79" mask="url(#d)" transform="matrix(-1 0 0 1 167.231 0)"/><path d="M240.71 91.768h-.926c-2.9.431-4.722.772-5.463 1.018-1.235.37-2.592.926-4.073 1.667-.987-.74-1.635-1.235-1.944-1.481-2.53-2.161-3.918-3.92-4.166-5.278-.123-1.42.185-2.56.925-3.425.804-.865 2.376-1.605 4.722-2.222-.926 1.481-1.883 2.716-2.87 3.703-1.174 2.161 1.14 1.944 6.943-.648.37.987.987 2.19 1.852 3.61.987 1.421 2.005 2.315 3.055 2.686 1.172.246 1.822.37 1.944.37z" fill="#FB9773" mask="url(#d)" transform="matrix(-1 0 0 1 464.82 0)"/><path d="M219.39 122.968c-2.716 1.42-5.34 2.129-7.87 2.129-3.025 0-5.432-1.08-7.22-3.24-4.815-3.518-10.555-8.394-17.22-14.628a65.11 65.11 0 00-3.334-2.963c-3.333-3.147-6.11-5.708-8.332-7.684 2.716 1.543 5.925 3.642 9.629 6.296 14.936 10.739 23.052 16.109 24.348 16.109 1.605 0 3.766-2.778 6.48-8.333.247-.431.432-.801.556-1.11.308 0 .556-.062.74-.186-1.232 3.518-1.821 6.05-1.758 7.592 0 2.653 1.326 4.66 3.98 6.018z" fill="#E3926C" mask="url(#d)" transform="matrix(-1 0 0 1 394.804 0)"/><path d="M18.583 143.983c.555-2.222 1.603-4.258 3.148-6.11a7.623 7.623 0 011.759-1.296c2.901-1.667 5.617-1.513 8.147.463.185.06.309.154.37.278a21.558 21.558 0 01-2.13 1.666c-3.332 2.468-4.999 4.412-4.999 5.833 0 .68 2.685 6.171 8.055 16.479 4.629 8.702 7.25 15.059 7.87 19.071-.866-1.851-1.45-3.271-1.76-4.258-5.925-10.37-12.746-21.077-20.46-32.126z" fill="#E3926C" mask="url(#d)" transform="matrix(-1 0 0 1 59.385 0)"/><path d="M115.77 75.01c-.62 2.47-.834 5.185-.649 8.148-1.42 2.346-4.507 4.722-9.258 7.129-4.753 2.468-8.054 4.351-9.906 5.647-.37.31-.711.556-1.018.74-1.852-1.295-2.222-2.962-1.111-4.999 1.048-1.727 1.573-2.623 1.573-2.684.495-1.111.617-2.13.37-3.056 4.322-1.48 7.685-3.055 10.092-4.721 1.544-1.111 2.807-2.283 3.796-3.518a17.063 17.063 0 002.685-4.259c.06-.31.155-.587.277-.833 1.234.68 2.285 1.481 3.148 2.407z" fill="#C07553" mask="url(#d)" transform="matrix(-1 0 0 1 208.972 0)"/><path d="M214.76 96.582c-2.715-2.592-4.38-4.134-4.999-4.629-.185 0-.092-.061.278-.185-.122 0-.772-.124-1.944-.37-1.05-.37-2.068-1.265-3.055-2.685-.865-1.42-1.481-2.624-1.852-3.61-5.803 2.591-8.117 2.808-6.943.647.987-.987 1.944-2.222 2.87-3.703-2.346.617-3.918 1.357-4.722 2.222-.74.865-1.048 2.005-.926 3.425.248 1.358 1.637 3.117 4.166 5.278.31.246.958.74 1.945 1.48-.556.247-1.111.525-1.667.834-1.914.68-3.733-.124-5.462-2.407-1.048-1.296-1.76-2.13-2.13-2.5-.925-.864-1.912-1.327-2.962-1.388.185-1.482.74-2.685 1.666-3.611.926-1.05 2.098-1.635 3.519-1.76-.741-.8-1.884-1.171-3.426-1.11-.618 0-2.007.185-4.166.555-1.728.31-2.994.37-3.796.186-1.296-.124-2.222-.773-2.777-1.945 5.986-2.097 12.004-3.055 18.053-2.87 6.543.247 12.374 1.79 17.498 4.63 3.764 3.764 9.072 7.623 15.923 11.572 3.889 2.16 9.629 5.43 17.22 9.814.987.74 2.407 1.975 4.26 3.703 1.42 1.11 2.899 1.574 4.443 1.388-.124.31-.31.68-.556 1.111-2.714 5.555-4.875 8.333-6.48 8.333-1.296 0-9.412-5.37-24.349-16.11-3.703-2.653-6.912-4.752-9.628-6.295z" fill="#EFA37F" mask="url(#d)" transform="matrix(-1 0 0 1 434.15 0)"/><path d="M113.263 85.935l-2.592.741c-3.951-1.727-7.253-4.814-9.906-9.258a34.108 34.108 0 00-.926-1.574 52.536 52.536 0 01-1.944-4.351l-.648-2.13a11.566 11.566 0 00-.463-1.573c0-.247-.03-.463-.093-.648.063 0 .124.031.186.092-.987-3.148-.586-6.171 1.203-9.073a19.492 19.492 0 016.666-5.832 36.638 36.638 0 007.777-4.907l.37-.185c2.653-1.296 4.722-2.531 6.203-3.703.122.555.34 1.388.648 2.5.063.184.124.43.185.74.556 2.222 2.16 6.018 4.814 11.387 3.026 6.48 4.814 11.295 5.37 14.443a3.313 3.313 0 00-.278.833 17.063 17.063 0 01-2.685 4.259c-.988 1.235-2.251 2.407-3.795 3.518-2.408 1.666-5.77 3.24-10.092 4.721z" fill="#EFA37F" mask="url(#d)" transform="matrix(-1 0 0 1 226.463 0)"/><path d="M94.499 185.478c4.01-5.245 5.4-16.067 4.166-24.46-.124-1.235-.4-2.685-.833-4.351 2.592-.802 4.69-1.204 6.295-1.204 13.641 0 22.929 7.5 27.867 22.497.68 1.913 1.326 4.505 1.944 7.777h-.185c-5.492 1.235-9.628 2.19-12.406 2.87-5.492 1.79-10.554 2.283-15.183 1.481-5.74-.925-9.628.205-11.665-4.61z" fill="#FB9773" mask="url(#d)" transform="matrix(-1 0 0 1 228.437 0)"/><path d="M134.915 91.675c1.79.432 3.518.741 5.185.926-2.285.926-4.6 2.531-6.944 4.814-6.914 8.764-10.461 14.937-10.646 18.516-.125 2.532.431 7.375 1.666 14.536 0 1.912-1.174 3.764-3.518 5.554-2.592 2.037-5.555 3.056-8.888 3.056-2.53 0-5.123-1.111-7.777-3.333-2.716-2.346-4.906-3.642-6.573-3.889-1.603-.185-3.362.278-5.277 1.389-1.788.987-3.64 1.635-5.555 1.944-1.788.31-3.671-.185-5.647-1.481.124.555.31 1.11.555 1.666-1.05-2.097-1.325-4.597-.833-7.499.617-3.208 2.561-7.684 5.833-13.424.37-3.827 1.574-7.777 3.61-11.85 1.482-2.963 3.704-6.42 6.666-10.37.989-.06 2.285.062 3.889.371a430.755 430.755 0 00-2.5 6.296 3.374 3.374 0 00-.185.463c-.678 1.296-1.111 2.56-1.296 3.795v.093a1.154 1.154 0 01-.093.463l.093-.093v.648c0 1.667.492 3.087 1.48 4.259 1.173 1.42 2.87 2.13 5.093 2.13 3.333 0 10.369-3.92 21.108-11.758 4.259-3.087 7.562-5.463 9.906-7.129-.324 0-.68.046-1.064.139a6.64 6.64 0 011.712-.232z" fill="#FB9773" mask="url(#d)" transform="matrix(-1 0 0 1 220.526 0)"/><path d="M93.16 27.24a32.907 32.907 0 00-5.648-1.667c.42-.398.883-.768 1.389-1.111 2.16-1.357 4.475-1.759 6.943-1.204 2.53.556 4.507 1.884 5.925 3.981 1.195 1.898 1.641 3.935 1.343 6.11-1.833-1.812-3.948-3.354-6.342-4.628a28.958 28.958 0 00-2.5-1.111c-.37-.185-.74-.31-1.11-.37z" fill="#FB9773" mask="url(#d)" transform="matrix(-1 0 0 1 190.713 0)"/><path d="M86.26 103.618c.618-.494 1.697-1.481 3.24-2.962 1.418-1.296 2.592-2.254 3.518-2.87 1.11 0 2.129.216 3.055.648.926.37 1.822.926 2.685 1.666 1.357 1.05 2.714 2.685 4.073 4.907 2.344-1.605 5.647-4.412 9.906-8.425.185-.124.339-.216.463-.278.185-.185.307-.309.37-.37.124-.061.217-.124.278-.185.432-.31.865-.617 1.296-.926.124-.061.215-.092.278-.092.37-.31.74-.524 1.111-.648.246-.125.524-.278.833-.463l5.416-1.713c.385-.093.74-.139 1.065-.139a1411.276 1411.276 0 00-9.906 7.129c-10.74 7.838-17.776 11.757-21.109 11.757-2.222 0-3.92-.709-5.092-2.129-.988-1.172-1.48-2.592-1.48-4.259v-.648" fill="#7AACA0" mask="url(#d)" transform="matrix(-1 0 0 1 210.106 0)"/><path d="M116.626 91.675c.803-1.666 1.759-3.086 2.87-4.258-.37.494-.741 1.05-1.111 1.666a62.802 62.802 0 00-1.76 2.592z" fill="#F1F9FA" mask="url(#d)" transform="matrix(-1 0 0 1 236.121 0)"/><path d="M33.859 92.601c4.258-1.481 8.486-.68 12.683 2.407 2.283 1.606 5.494 4.876 9.629 9.814 3.271 4.568 7.93 10.03 13.98 16.387 8.702 9.319 13.609 14.596 14.72 15.83-2.53-1.975-5.246-2.129-8.148-.462-.68.37-1.264.802-1.759 1.296-.309.246-.555.463-.74.648-6.603-7.406-13.176-14.072-19.72-19.997-13.394-12.036-22.282-16.326-26.663-12.869a30.512 30.512 0 01-.093-2.314c.124-3.95 1.822-7.253 5.092-9.907.124-.06.185-.124.185-.185.062-.06.123-.092.186-.092.063-.124.124-.217.185-.278.124-.061.215-.093.277-.093.063-.06.125-.124.186-.185z" fill="#F1F9FA" mask="url(#d)" transform="matrix(-1 0 0 1 112.619 0)"/><path d="M127.272 106.766c.926 5.309 3.61 9.938 8.055 13.887.616.31 1.327.31 2.13 0 .555-.061 1.264-.278 2.129-.648-5.124 11.049-9.69 21.664-13.702 31.848l-1.667 4.444c-2.283 4.443-3.055 8.98-2.314 13.609.74 4.938 3.084 16.826 7.036 19.665a3.66 3.66 0 01-.833.463c-3.085 1.296-6.696-5.469-10.832-4.297-.619-3.272-1.265-5.864-1.945-7.777-4.938-14.998-14.225-22.497-27.866-22.497-1.606 0-3.703.402-6.296 1.204-.309-1.79-.772-3.889-1.388-6.296-1.235-4.753-1.974-8.147-2.222-10.183v-.093h-.186c-.062-.061-.124-.093-.185-.093a1.701 1.701 0 00-.74-.555c-1.667-1.172-2.902-2.531-3.704-4.074a8.891 8.891 0 01-.555-1.666c1.976 1.296 3.859 1.79 5.647 1.481 1.915-.309 3.767-.957 5.555-1.944 1.915-1.11 3.674-1.574 5.277-1.389 1.667.247 3.857 1.543 6.573 3.889 2.654 2.222 5.248 3.333 7.777 3.333 3.333 0 6.296-1.019 8.888-3.056 2.344-1.79 3.518-3.642 3.518-5.554-1.235-7.16-1.79-12.004-1.666-14.536.185-3.579 3.732-9.752 10.646-18.516 2.344-2.283 4.659-3.888 6.944-4.814h1.666c-.06.061-.122.124-.185.185-.063 0-.154.032-.278.093a1.103 1.103 0 00-.185.278c-.063 0-.124.031-.185.092 0 .061-.061.124-.185.185-3.27 2.654-4.968 5.957-5.092 9.907 0 .74.031 1.512.093 2.314.06.37.153.74.277 1.111z" fill="#F27C4D" mask="url(#d)" transform="matrix(-1 0 0 1 211.772 0)"/><path d="M123.847 98.897v.092c-.063.185-.093.31-.093.37-.063.125-.124.31-.185.556l-.648 1.76c-.185.555-.37 1.079-.555 1.573v-.093c.185-1.235.618-2.5 1.296-3.795.06-.186.122-.34.185-.463" fill="#912564" mask="url(#d)" transform="matrix(-1 0 0 1 246.212 0)"/><path d="M37.654 143.428c.556-1.913 1.482-3.55 2.778-4.907.185-.185.431-.402.74-.648-1.544 1.852-2.592 3.888-3.147 6.11-.122-.185-.248-.37-.37-.555" fill="#FADBD0" mask="url(#d)" transform="matrix(-1 0 0 1 78.827 0)"/><path d="M7.645 136.615c5.07 4.942 9.305 12.225 12.706 21.851.127.514 1.444 4.684 3.947 12.513 1.606 5.07 3.113 9.145 4.524 12.225 1.092 3.466 2.92 8.696 5.487 15.69.899 2.888 1.57 5.647 2.021 8.278.193.707.322 1.444.385 2.214l.193 5.776c-.897-.385-1.54-1.059-1.925-2.022-.066-.192-.256-1.187-.578-2.984v2.022c.065.706.096 1.54.096 2.503.13 1.796.066 3.305-.192 4.524-1.604-.514-2.6-2.022-2.984-4.524-.514-3.53-.836-5.487-.963-5.872-.063.962 0 3.08.193 6.353.129 2.632-.033 4.75-.482 6.353-1.925-1.219-2.984-3.947-3.176-8.182-.127-2.824-.193-4.491-.193-5.005-.256-1.733-.706-3.144-1.347-4.236-.512.578-.77 1.604-.77 3.08 0 .064.096 1.477.289 4.236.32 3.529-.386 5.327-2.118 5.39-.32-.577-.61-1.444-.866-2.599l.192-.096v-11.55c-.577-.642-1.059-1.574-1.444-2.792-.385-1.155-.74-1.958-1.059-2.407l-.962-.289c-.578 0-.867.449-.867 1.348v.866c-.577 1.155-.673 3.048-.288 5.68.258 1.476.321 2.566.192 3.272-.256 1.026-.93 1.766-2.021 2.214-1.99-3.402-2.857-7.22-2.6-11.454.259-4.043 1.477-7.734 3.659-11.07 1.218-1.477 1.443-3.306.673-5.487a3.402 3.402 0 00-.577-1.059c-.643-4.171-3.37-10.78-8.182-19.829C3.025 150.83.234 145.12.234 144.412c0-1.476 1.732-3.498 5.197-6.064a22.415 22.415 0 002.214-1.733z" fill="#EEA37F" mask="url(#d)" transform="matrix(-1 0 0 1 37.141 0)"/></g></svg>