<?xml version="1.0" encoding="UTF-8"?>
<svg
      xmlns="http://www.w3.org/2000/svg"
      width="227"
      height="220"
      viewBox="0 0 227 220"
    >
      <g fill="none" fillRule="evenodd" stroke="none" strokeWidth="1">
        <g fillRule="nonzero" transform="translate(-979 -12749)">
          <g transform="translate(979 12749)">
            <g>
              <circle
                cx="111.238"
                cy="108.535"
                r="108.085"
                fill="#CDE7F9"
              ></circle>
              <path
                fill="#DAE1EA"
                d="M154.886 201.376s-18.519-22.873-25.364-83.734l1.05-.117h60.649c2.904 61.46 21.031 83.851 21.031 83.851v.383h-57.366v-.383z"
              ></path>
              <path
                fill="#E95A6B"
                d="M191.22 117.543h-60.649l-1.049.117a399.282 399.282 0 01-1.513-17.05h62.824c0 5.921.14 11.564.388 16.933z"
              ></path>
              <path
                fill="#DAE1EA"
                d="M10.831 201.759h-.176v-.383s24.473-30.241 27.553-113.705l.518.022h88.09l.517-.022c.168 4.458.394 8.765.676 12.92.396 5.987.9 11.67 1.513 17.05 6.845 60.862 25.364 83.735 25.364 83.735v.383H10.831z"
              ></path>
              <path
                fill="#F0F3F7"
                d="M170.063 67.319c7.561 6.305 1.68 16.384 1.68 16.384 14.704 2.94 10.502 16.875 10.502 16.875h-54.236a430.948 430.948 0 01-.676-12.921 511.106 511.106 0 01-.31-17.41h-6.328s4.832-14.286-9.03-20.168c0 0 9.242-.418 9.66-9.664 0 0 5.882 10.502 26.891 9.664 21.01-.837 23.527-17.644 23.527-17.644s13.443 4.201 19.324-2.522c0 0 2.941 13.443 21.01 10.502v26.89c-23.527 3.779-25.22-13.447-25.22-13.447-1.671 13.461-16.794 13.461-16.794 13.461z"
              ></path>
              <path
                fill="#E95A6B"
                d="M127.333 87.67l-.518.023H38.73l-.517-.022c.204-5.564.307-11.367.31-17.411h88.5c0 6.044.103 11.847.31 17.41z"
              ></path>
              <path
                fill="#767C93"
                d="M219.511844 201.758865L219.543369 216.620567 3.41368794 216.620567 3.41368794 201.758865 3.60283688 201.758865 158.020426 201.758865 219.322695 201.758865z"
              ></path>
              <path
                fill="#F0F3F7"
                d="M38.56 42.108s-7.688 1.28-13.489-2.306a12.551 12.551 0 01-5.404-6.935c-4.21-12.601 4.612-18.906 4.612-18.906h187.797v26.467c-18.068 2.941-21.009-10.502-21.009-10.502-5.881 6.724-19.324 2.522-19.324 2.522s-2.522 16.803-23.527 17.645c-21.004.842-26.89-9.665-26.89-9.665-.42 9.246-9.638 9.665-9.638 9.665 13.84 5.882 9.007 20.162 9.007 20.162H45.283c-4.62-10.506 2.522-15.546 2.522-15.546-12.605-.838-9.246-12.6-9.246-12.6z"
              ></path>
              <path
                fill="#F0F3F7"
                d="M10.412 13.961H24.28s-8.823 6.305-4.626 18.915a12.551 12.551 0 005.405 6.935c-8.444 7.36-14.66.626-14.66.626l.014-26.476z"
              ></path>
              <g
                fill="#3F456B"
                opacity="0.2"
                transform="translate(101.33 69.805)"
              >
                <path d="M25.459.45s-2.1 89.91 28.133 131.504H13.961S.243 84.059.243.032L25.46.45z"></path>
              </g>
              <g
                fill="#3F456B"
                opacity="0.2"
                transform="translate(168.883 99.528)"
              >
                <path d="M22.608.45s-4.202 62.275 20.586 101.78H11.259S.333 65.166.333.14l22.275.31z"></path>
              </g>
              <g fill="#FFF" opacity="0.3" transform="translate(43.234 70.255)">
                <path d="M.37 131.504C18.432 89.07 17.171 0 17.171 0h22.365s-.518 98.727-5.558 131.504H.37z"></path>
              </g>
              <g
                fill="#FFF"
                opacity="0.3"
                transform="translate(135.106 100.43)"
              >
                <path d="M2.824.077A502.988 502.988 0 01.257 53.403c3.71 14.727 8.899 29.084 16.248 42.153C19.7 66.166 20.041.081 20.041.081L2.824.077z"></path>
              </g>
              <g fill="#FFF" opacity="0.3" transform="translate(38.28 70.255)">
                <path d="M0.279 0.005H88.92699999999999V7.148H0.279z"></path>
              </g>
              <g fill="#FFF" opacity="0.3" transform="translate(127.9 100.43)">
                <path d="M0.149 0.077H63.59V7.22H0.149z"></path>
              </g>
              <g fill="#FFF" opacity="0.2" transform="translate(3.603 201.759)">
                <path d="M0 0H215.72V7.656H0z"></path>
              </g>
              <g
                fill="#3F456B"
                opacity="0.2"
                transform="translate(10.809 194.553)"
              >
                <path d="M201.267979 7.20567376L0.0225177305 7.20567376 4.22432624 0.0630496454 197.485 0.0630496454z"></path>
              </g>
              <g
                fill="#3F456B"
                opacity="0.2"
                transform="translate(127.9 100.43)"
              >
                <path d="M.302.149s2.702 62.108 26.683 101.18h8.246S8.557 59.448 8.13.15H.302z"></path>
              </g>
              <path
                fill="#F0F3F7"
                d="M3.603.45s-.45 21.167 0 36.029c.108 3.508 12.16 9.908 21.468 3.323 5.8 3.603 13.51 2.306 13.51 2.306s-3.359 11.763 9.247 12.61c0 0-7.143 5.04-2.522 15.546h81.739c0 6.044.104 11.848.31 17.411.169 4.459.394 8.765.676 12.92h54.237s4.201-13.933-10.503-16.874c0 0 5.882-10.084-1.68-16.384 0 0 15.123 0 16.803-13.448 0 0 6.337 23.14 32.908 10.53V.45H3.603z"
              ></path>
              <g
                fill="#3F456B"
                opacity="0.15"
                transform="translate(96.826 22.067)"
              >
                <path d="M122.947 1.801S111.687 9.908 97.182.297c0 0-12.61 6.72-23.945.838 0 0-5.044 17.645-27.729 16.807 0 0-11.763 0-21.428-7.142 0 0-2.94 9.24-15.965 7.98 0 0 1.261 7.985-7.98 9.664 0 0 9.66 7.143 3.779 20.586H30.38s5.044-6.72 1.26-13.024c0 0 37.83 8.403 47.477-14.704 0 0 8.404 1.68 12.61-3.36 0 0 9.606 12.682 31.223 5.927L122.947 1.8z"></path>
              </g>
              <g
                fill="#3F456B"
                opacity="0.3"
                transform="translate(108.986 68.004)"
              >
                <path d="M26.382 136.007a2.252 2.252 0 01-1.977-1.166c-10.7-19.433-17.992-47.675-21.662-83.937A451.39 451.39 0 01.45 2.207 2.252 2.252 0 012.702.005h.045A2.252 2.252 0 014.954 2.3c0 .847-1.446 85.22 23.418 130.369a2.252 2.252 0 01-1.968 3.337h-.022z"></path>
              </g>
              <g
                fill="#3F456B"
                opacity="0.3"
                transform="translate(176.539 98.177)"
              >
                <path d="M19.991 105.554c-.895 0-1.704-.53-2.062-1.35C6.755 78.6 2.639 52.24 1.17 34.676-.42 15.614.617 2.78.662 2.252a2.26 2.26 0 114.504.378c-.041.513-4.031 51.899 16.906 99.799a2.252 2.252 0 01-1.162 2.963 2.279 2.279 0 01-.919.162z"></path>
              </g>
              <g
                fill="#3F456B"
                opacity="0.15"
                transform="translate(154.922 46.387)"
              >
                <path d="M64.851 18.014S37.83 31.074 31.944 7.484c0 0 .14 11.872-15.263 13.512 0 0 5.603 9.61.14 16.334 0 0 15.123 2.522 10.502 16.803H10.939s4.202-13.02-5.463-16.384c0 0 7.143-13.862-5.462-21.847 0 0 24.368 3.783 30.25-15.542 0 0 13.87 18.568 34.587 9.111v8.543z"></path>
              </g>
              <g fill="#FFF" opacity="0.5" transform="translate(18.014 13.961)">
                <ellipse
                  cx="10.885"
                  cy="9.453"
                  rx="10.502"
                  ry="9.034"
                ></ellipse>
              </g>
              <g fill="#FFF" opacity="0.5" transform="translate(49.99 17.564)">
                <path d="M34.902 15.091c0-8.237-7.764-14.91-17.343-14.91S.221 6.853.221 15.09c0 5.67 3.675 10.602 9.092 13.124A8.012 8.012 0 007.9 32.718c0 4.99 4.702 9.034 10.502 9.034 5.801 0 10.503-4.053 10.503-9.034a8.106 8.106 0 00-1.883-5.13c4.747-2.66 7.881-7.263 7.881-12.497z"></path>
              </g>
              <g fill="#FFF" opacity="0.5" transform="translate(96.826)">
                <ellipse
                  cx="10.637"
                  cy="9.453"
                  rx="10.502"
                  ry="9.034"
                ></ellipse>
              </g>
              <g
                fill="#3F456B"
                opacity="0.3"
                transform="translate(48.188 9.007)"
              >
                <path d="M11.71 10.655h-.068c-6.58-.027-10.417-3.828-11.3-7.584a2.253 2.253 0 014.387-1.03c.657 2.81 4.053 4.102 6.93 4.11h.05c2.599 0 5.855-1.008 6.557-3.868a2.253 2.253 0 114.378 1.068c-1.086 4.44-5.368 7.304-10.935 7.304z"></path>
              </g>
              <g
                fill="#3F456B"
                opacity="0.3"
                transform="translate(83.316 42.333)"
              >
                <path d="M11.71 10.655h-.068c-6.58-.027-10.417-3.828-11.3-7.584a2.253 2.253 0 014.387-1.03c.657 2.81 4.053 4.102 6.93 4.11h.05c2.599 0 5.855-1.008 6.557-3.868a2.253 2.253 0 114.378 1.068c-1.086 4.44-5.368 7.304-10.935 7.304z"></path>
              </g>
              <g
                fill="#3F456B"
                opacity="0.3"
                transform="translate(179.691 9.007)"
              >
                <path d="M11.71 10.655h-.068c-6.58-.027-10.417-3.828-11.3-7.584a2.253 2.253 0 014.387-1.03c.657 2.81 4.053 4.102 6.93 4.11h.05c2.599 0 5.855-1.008 6.557-3.868a2.253 2.253 0 014.378 1.068c-1.086 4.44-5.368 7.304-10.935 7.304z"></path>
              </g>
              <g fill="#3F456B" opacity="0.5" transform="translate(0 77.911)">
                <path d="M15.465 15.456a2.252 2.252 0 01-2.103-1.454C10.768 7.129 2.882 7.859 2.554 7.89a2.252 2.252 0 01-.487-4.476c3.049-.338 8.62.328 12.475 4.21C16.118 4.446 19.316 1.32 25.224.447a2.252 2.252 0 01.653 4.454c-8.255 1.211-8.16 7.958-8.156 8.241a2.252 2.252 0 01-1.801 2.252c-.15.036-.302.057-.455.063z"></path>
              </g>
              <g
                fill="#3F456B"
                opacity="0.5"
                transform="translate(199.957 124.748)"
              >
                <path d="M10.444 17.825a2.252 2.252 0 01-2.23-2.563C9.224 7.923 1.716 4.766 1.64 4.734A2.252 2.252 0 013.342.567c2.841 1.158 7.412 4.405 8.948 9.656 2.905-2.04 7.206-3.265 12.813-1.207a2.253 2.253 0 01-1.554 4.229c-7.827-2.878-10.966 3.09-11.097 3.346a2.252 2.252 0 01-2.008 1.234z"></path>
              </g>
            </g>
            <g fill="#3F456B" transform="translate(.9 2.702)">
              <path d="M9.755 200.926a2.252 2.252 0 01-1.752-3.67c.117-.145 6.935-8.819 13.668-28.958 11.317-33.85 13.695-73.467 13.695-100.745a2.252 2.252 0 012.252-2.252h88.504a2.252 2.252 0 012.252 2.252c0 27.274 2.377 66.891 13.695 100.745 6.755 20.216 13.6 28.876 13.668 28.962a2.258 2.258 0 01-3.517 2.833c-.297-.365-7.305-9.16-14.317-29.994-11.304-33.574-13.911-72.651-14.046-100.29H39.865c-.135 27.639-2.742 66.716-14.046 100.29-7.012 20.851-14.02 29.629-14.317 29.994a2.252 2.252 0 01-1.747.833z"></path>
              <path d="M218.643 216.17H2.513a2.252 2.252 0 01-2.252-2.252v-14.82a2.252 2.252 0 114.504 0v12.569h211.621l-.027-12.565a2.252 2.252 0 114.504 0l.031 14.82c0 .599-.235 1.172-.657 1.595-.424.42-.997.655-1.594.653z"></path>
              <path d="M211.347 200.926a2.25 2.25 0 01-1.747-.833c-.23-.284-5.67-7.116-11.093-23.22-8.642-25.67-10.691-55.489-10.808-76.746h-60.397a2.252 2.252 0 110-4.503h62.63a2.252 2.252 0 012.252 2.252c0 20.9 1.802 51.259 10.471 77.2 5.166 15.487 10.399 22.12 10.448 22.188a2.252 2.252 0 01-1.756 3.662zM125.915 87.067H37.83a2.252 2.252 0 110-4.503h88.09a2.252 2.252 0 010 4.503h-.005z"></path>
              <path d="M190.167 117.281h-60.915a2.252 2.252 0 010-4.503h60.915a2.252 2.252 0 010 4.503zM119.794 69.805a2.252 2.252 0 01-2.134-2.968c.17-.513 3.95-12.403-7.778-17.38a2.252 2.252 0 01.78-4.322c.724-.041 7.205-.604 7.516-7.517a2.252 2.252 0 014.215-.995c.212.36 5.66 9.277 24.832 8.512 18.798-.753 21.293-15.128 21.392-15.74a2.252 2.252 0 012.896-1.802 31.673 31.673 0 006.99 1.167c3.206.153 7.543-.244 9.97-3.018a2.252 2.252 0 013.36-.031c.45.509 11.633 12.448 26.12 6.007a2.252 2.252 0 011.83 4.117c-7.26 3.224-14.989 3.013-22.343-.613a33.777 33.777 0 01-7.305-4.909c-5.427 4.121-13.686 3.013-17.65 2.167a24.288 24.288 0 01-3.733 7.151c-3.265 4.32-9.615 9.561-21.346 10.03-14.128.567-21.897-3.797-25.747-7.152-1.05 2.42-2.91 4.4-5.26 5.598 7.606 5.967 7.151 15.402 5.53 20.194a2.252 2.252 0 01-2.135 1.504zM44.382 69.805c-.894 0-1.704-.53-2.062-1.351-2.702-6.201-1.748-10.809-.45-13.574.219-.464.465-.915.738-1.35a10.53 10.53 0 01-5.63-3.991c-1.774-2.517-2.058-5.463-1.95-7.656-6.264.176-15.375-1.919-18.41-11.03-2.423-7.268-.856-12.686.9-15.95a16.726 16.726 0 014.55-5.477 2.252 2.252 0 012.625 3.657c-.32.238-7.39 5.598-3.801 16.37 1.351 4.008 4.4 6.53 9.106 7.499 2.405.47 4.87.549 7.3.234a2.252 2.252 0 012.527 2.842c0 .031-1.122 4.17.851 6.944 1.166 1.648 3.315 2.59 6.377 2.792a2.252 2.252 0 011.148 4.09c-.211.153-5.539 4.206-1.756 12.794a2.252 2.252 0 01-2.063 3.157zM181.344 100.132c-.22 0-.438-.034-.648-.1a2.252 2.252 0 01-1.509-2.796c.032-.113 1.482-5.265-.941-9.273-1.455-2.405-4.094-4.003-7.845-4.755a2.252 2.252 0 01-1.505-3.342c.199-.342 4.81-8.557-1.175-13.51a2.252 2.252 0 011.441-3.982c.532 0 13.155-.198 14.57-11.47a2.252 2.252 0 014.467.563c-.225 1.8 1.995 5.282 4.125 7.286 6.58 6.188 17.564 4.932 25.54.946a2.252 2.252 0 112.017 4.026c-9.372 4.688-22.482 5.98-30.624-1.689a22.707 22.707 0 01-3.26-3.94c-2.928 4.954-8.053 7.332-12.421 8.273 2.54 4.395 1.801 9.52.45 13.137 3.657 1.22 6.377 3.287 8.106 6.165 3.455 5.76 1.464 12.565 1.378 12.853a2.252 2.252 0 01-2.166 1.608z"></path>
              <path d="M167.757 66.923c-2.963 0-9.331-.554-13.988-4.855a2.252 2.252 0 013.053-3.31c4.63 4.274 12.047 3.625 12.12 3.603a2.252 2.252 0 11.45 4.48c-.1.023-.698.082-1.635.082zM37.659 41.658a2.252 2.252 0 01-.374-4.472c.099 0 6.44-1.162 8.412-5.445a2.252 2.252 0 014.09 1.887c-2.986 6.472-11.399 7.94-11.755 7.998a2.132 2.132 0 01-.373.032zM108.243 16.366C92.152 16.366 90.07 4.053 90.07 3.94a2.252 2.252 0 014.45-.698c.067.391 1.724 8.953 14.519 8.61 13.119-.364 14.632-8.556 14.645-8.624a2.252 2.252 0 014.193-.716c.176.306 4.59 7.805 16.326 6.827 8.38-.702 10.169-7.48 10.187-7.548a2.252 2.252 0 114.368 1.095c-.1.405-2.626 9.975-14.182 10.939-9.363.784-15.064-2.945-18.04-5.877-2.1 3.513-6.85 8.106-17.376 8.403l-.918.014zM14.492 42.19C5.548 42.19.87 35.086.806 34.983a2.253 2.253 0 013.788-2.441 12.817 12.817 0 004.679 3.936c4.012 1.963 8.656 1.508 13.803-1.351a2.252 2.252 0 112.189 3.936c-4.098 2.279-7.701 3.125-10.773 3.125zM218.422 201.309H2.702a2.252 2.252 0 110-4.504h215.72a2.252 2.252 0 110 4.504z"></path>
            </g>
          </g>
        </g>
      </g>
    </svg>