<?xml version="1.0" encoding="UTF-8"?>
<svg width="48px" height="48px" viewBox="0 0 48 48" version="1.1" xmlns="http://www.w3.org/2000/svg" xmlns:xlink="http://www.w3.org/1999/xlink">
    <title>E891AB2E-D913-493B-AAC5-761D97EDF33A</title>
    <defs>
        <filter id="filter-1">
            <feColorMatrix in="SourceGraphic" type="matrix" values="0 0 0 0 0.600000 0 0 0 0 0.600000 0 0 0 0 0.600000 0 0 0 1.000000 0"></feColorMatrix>
        </filter>
    </defs>
    <g id="Design" stroke="none" stroke-width="1" fill="none" fill-rule="evenodd">
        <g id="Styleguide" transform="translate(-1399.000000, -4412.000000)">
            <g id="Group-27" transform="translate(1399.000000, 4412.000000)">
                <g filter="url(#filter-1)" id="iconfinder_01_16_3556130">
                    <g transform="translate(15.000000, 12.000000)">
                        <path d="M6.54545455,5.45454545 C8.04927273,5.45454545 9.27272727,4.23109091 9.27272727,2.72727273 C9.27272727,1.22345455 8.04927273,0 6.54545455,0 C5.04163636,0 3.81818182,1.22345455 3.81818182,2.72727273 C3.81818182,4.23109091 5.04163636,5.45454545 6.54545455,5.45454545 Z" id="Path" fill="#000000" fill-rule="nonzero"></path>
                        <polygon id="Path" fill="#000000" fill-rule="nonzero" points="15.5531393 13.3636364 10.2951613 13.3636364 8.98066682 10.6599955 13.4262872 10.6599955 13.4262872 7.95635456 7.66617233 7.95635456 6.71500411 6 4.36363636 7.20906821 8.67044612 16.0672773 13.9284241 16.0672773 16.1940868 20.7272727 18.5454545 19.5182045"></polygon>
                        <path d="M10.4727273,17.4697184 C10.4727273,19.6301968 8.71095273,21.3878874 6.54545455,21.3878874 C4.37995636,21.3878874 2.61818182,19.6301968 2.61818182,17.4697184 C2.61818182,15.849425 3.60890182,14.4558629 5.01774545,13.8603012 L3.99770182,11.4545455 C1.65050182,12.4476707 0,14.7698388 0,17.4697184 C0,21.0705157 2.93629091,24 6.54545455,24 C10.1546182,24 13.0909091,21.0705157 13.0909091,17.4697184 L10.4727273,17.4697184 Z" id="Path" fill="#000000" fill-rule="nonzero"></path>
                    </g>
                </g>
                <circle id="Oval" stroke="#999999" cx="24" cy="24" r="23.5"></circle>
            </g>
        </g>
    </g>
</svg>