<?xml version="1.0" encoding="UTF-8"?>
<svg width="16px" height="16px" viewBox="0 0 16 16" version="1.1" xmlns="http://www.w3.org/2000/svg" xmlns:xlink="http://www.w3.org/1999/xlink">
    <title>2CE088F9-BE8F-479B-8A21-6DF6A18B3407</title>
    <defs>
        <path d="M201.007187,3493 C196.585312,3493 193,3496.58531 193,3501.00672 C193,3505.41447 196.585312,3509 201.007187,3509 C205.414469,3509 209,3505.41447 209,3501.00672 C209,3496.58531 205.414469,3493 201.007187,3493 L201.007187,3493 Z M199.901625,3498.62612 C199.703156,3498.98031 199.235437,3499.108 198.88125,3498.89538 C198.527031,3498.69691 198.399344,3498.24359 198.597844,3497.88913 C199.122187,3496.96806 199.944125,3496.50038 201.00725,3496.50038 C202.381594,3496.50038 203.501125,3497.61987 203.501125,3498.9945 C203.501125,3500.68109 201.744,3501.7015 201.744,3502.25419 L201.744,3502.75022 C201.744,3503.16131 201.417844,3503.50109 201.00725,3503.50109 C200.581781,3503.50109 200.255875,3503.16131 200.255875,3502.75022 L200.255875,3502.25419 C200.255875,3500.80853 201.998844,3500.08597 201.998844,3498.9945 C201.998844,3498.44181 201.559906,3498.00269 201.00725,3498.00269 C200.482594,3498.00266 200.156719,3498.17253 199.901625,3498.62612 L199.901625,3498.62612 Z M201.007188,3503.99712 C201.417812,3503.99712 201.743938,3504.33744 201.743938,3504.7485 C201.743938,3505.15913 201.417781,3505.49937 201.007188,3505.49937 C200.581719,3505.49937 200.255812,3505.15909 200.255812,3504.7485 C200.255844,3504.33744 200.581719,3503.99712 201.007188,3503.99712 L201.007188,3503.99712 Z" id="path-1"></path>
    </defs>
    <g id="Design" stroke="none" stroke-width="1" fill="none" fill-rule="evenodd">
        <g id="Styleguide" transform="translate(-193.000000, -3493.000000)">
            <mask id="mask-2" fill="white">
                <use xlink:href="#path-1"></use>
            </mask>
            <use id="Shape" fill="#3EA8B1" fill-rule="nonzero" xlink:href="#path-1"></use>
        </g>
    </g>
</svg>