<?xml version="1.0" encoding="utf-8"?>
<!-- Generator: Adobe Illustrator 19.0.0, SVG Export Plug-In . SVG Version: 6.00 Build 0)  -->
<svg version="1.1" id="Layer_1" xmlns="http://www.w3.org/2000/svg" xmlns:xlink="http://www.w3.org/1999/xlink" x="0px" y="0px"
	 viewBox="-281 369 48 55" class="st2" style="enable-background:new -281 369 48 55;" xml:space="preserve">
	 <style type="text/css">
		.st2{fill:#fff;}
		.active-bulb{
			fill:transparent; stroke:#fff
		}
		.active-svg .active-bulb{
			fill:#fff; stroke:#fff
		}
	</style>
	 <path class="active-bulb" id="active-bulb" d="M-257.7,380.9c-7.5,0-13.6,6.1-13.6,13.6c0,1.9,0.4,3.7,1.1,5.3c0.1,0.1,1.5,1.9,3.1,4.4
	c1.3,2.2,2.7,4.9,3.1,7.2c0.1,0.4,0.5,0.8,0.9,0.8h10.8c0.4,0,0.8-0.3,0.9-0.8c0.4-2.4,1.8-5.1,3.2-7.3c1.3-2.1,2.6-3.8,2.9-4.2
	c0.1-0.1,0.1-0.1,0.1-0.1h0c0.7-1.6,1.1-3.4,1.1-5.3C-244.1,387-250.2,380.9-257.7,380.9z"/>
<path class="active-bulb" d="M-247.3,398.8c-0.5,0.7-1.7,2.3-2.9,4.2c-1.6,2.6-2.7,4.9-3.2,6.9h-8.5c-0.6-2-1.6-4.3-3.2-6.9c-1.2-2-2.5-3.7-3-4.4
	c-0.5-1.3-0.8-2.7-0.8-4.2c0-6.2,5-11.2,11.2-11.2s11.2,5,11.2,11.2C-246.5,396-246.7,397.4-247.3,398.8z"/>
<path id="Path"  d="M-257.7,377.6c0.6,0,1.1-0.7,1.1-1.5v-5.6c0-0.8-0.5-1.5-1.1-1.5c-0.6,0-1.1,0.7-1.1,1.5v5.6
	C-258.8,377-258.3,377.6-257.7,377.6z"/>
<path id="Path_1_" d="M-266.8,378.9c0.4,0.7,1.2,1,1.7,0.7c0.5-0.3,0.6-1.1,0.2-1.8l-2.8-4.9c-0.4-0.7-1.2-1-1.7-0.7
	c-0.5,0.3-0.6,1.1-0.2,1.8L-266.8,378.9z"/>
<path id="Path_2_" d="M-270.5,385.1c0.3-0.5,0-1.3-0.7-1.7l-4.9-2.8c-0.7-0.4-1.5-0.3-1.8,0.2c-0.3,0.5,0,1.3,0.7,1.7l4.9,2.8
	C-271.6,385.7-270.8,385.6-270.5,385.1z"/>
<path id="Path_3_" d="M-273.9,391.4l-5.6,0c-0.8,0-1.5,0.5-1.5,1.1c0,0.6,0.7,1.1,1.5,1.1l5.6,0c0.8,0,1.5-0.5,1.5-1.1
	C-272.4,391.9-273.1,391.4-273.9,391.4z"/>
<path id="Path_4_" d="M-250,379.8c0.5,0.3,1.3,0,1.7-0.7l2.8-4.9c0.4-0.7,0.3-1.5-0.2-1.8c-0.5-0.3-1.3,0-1.7,0.7l-2.8,4.9
	C-250.6,378.6-250.5,379.5-250,379.8z"/>
<path id="Path_5_" d="M-237,381.2c-0.3-0.5-1.1-0.6-1.8-0.2l-4.9,2.8c-0.7,0.4-1,1.2-0.7,1.7c0.3,0.5,1.1,0.6,1.8,0.2l4.9-2.8
	C-237,382.5-236.7,381.7-237,381.2z"/>
<path id="Path_6_" d="M-235.3,392.1l-5.6,0c-0.8,0-1.5,0.5-1.5,1.1c0,0.6,0.7,1.1,1.5,1.1l5.6,0c0.8,0,1.5-0.5,1.5-1.1
	C-233.8,392.6-234.5,392.1-235.3,392.1z"/>
<path id="Shape_1_" d="M-252.9,413.7h-9c-1.1,0-1.9,0.9-1.9,1.9v2.8c0,1.1,0.9,1.9,1.9,1.9h9c1.1,0,1.9-0.9,1.9-1.9v-2.8
	C-251,414.6-251.8,413.7-252.9,413.7z M-253.3,418.1h-8.3v-2h8.3V418.1z"/>
<path id="Path_7_" d="M-254.4,421.6h-6c-0.4,0-0.8,0.3-0.8,0.8v0.8c0,0.4,0.3,0.8,0.8,0.8h6c0.4,0,0.8-0.3,0.8-0.8v-0.8
	C-253.6,421.9-254,421.6-254.4,421.6z"/>
</svg>
