<svg version="1.1" id="Layer_1" xmlns="http://www.w3.org/2000/svg" x="0" y="0" viewBox="-293 371 24 51" xml:space="preserve" enable-background="new -293 371 24 51">
    <style>
    .st1{fill:transparent; stroke:#fff}
    .active-info{
        fill:transparent; stroke:#fff
    }
    .active-svg .active-info{
        fill:#fff; stroke:#fff
    }
    </style>
    <g id="Design">
        <g id="Styleguide" transform="translate(-340 -3709)">
            <g id="Group-15" transform="translate(306 3709)">
                <g id="iconfinder_tourist_info_sign_2097334" transform="translate(.5)">
                    <g transform="translate(33.5)">
                        <path class="st1" d="M-276.1 383.9c-3.4 0-6.2-2.8-6.2-6.2 0-3.4 2.8-6.2 6.2-6.2 3.4 0 6.2 2.8 6.2 6.2a6.3 6.3 0 01-6.2 6.2z" />
                        <path class="active-info" d="M-281.9 421.9c-4.3 0-7.5-1.2-9.2-3.5-1.8-2.3-2-5.7-.7-10.1l3.7-9.6h-4.7l9.7-12.9h11.1l-9.2 24.5c-.2.5-.4 1.7 0 2.3.2.3.6.4 1.1.4 3.7-.2 6.3-1.3 6.3-1.3l2.1-.9-3.8 10.4-.5.1c-.2-.1-2.8.6-5.9.6z" />
                    </g>
                </g>
            </g>
        </g>
    </g>
</svg>