<?xml version="1.0" encoding="utf-8"?>
<!-- Generator: Adobe Illustrator 19.0.0, SVG Export Plug-In . SVG Version: 6.00 Build 0)  -->
<svg version="1.1" id="Layer_1" xmlns="http://www.w3.org/2000/svg" xmlns:xlink="http://www.w3.org/1999/xlink" x="0px" y="0px"
	 viewBox="-280 374 51 45" style="enable-background:new -280 374 51 45;" xml:space="preserve">
<style type="text/css">
	.st1{fill:transparent; stroke:#fff}
    .active-jobs{
        fill:transparent; stroke:#fff
    }
    .active-svg .active-jobs{
        fill:#fff; stroke:#fff
    }
</style>

<g id="Design">
	<g id="Styleguide" transform="translate(-330.000000, -3944.000000)">
		<g id="Group-7" transform="translate(330.000000, 3944.000000)">
			<g id="iconfinder_suit-case_4634977" class="active-jobs">
				<g>
					<path id="Shape_1_" d="M-230.4,382.2h-14.1v-5c0-1.7-1.4-3.2-3.2-3.2h-14c-1.7,0-3.2,1.4-3.2,3.2v5h-14.1
						c-0.6,0-1.1,0.5-1.1,1.1v12.7c0,2.1,1.2,4,3.2,4.8V417c0,0.6,0.5,1.1,1.1,1.1h42.2c0.6,0,1.1-0.5,1.1-1.1v-16.3
						c1.9-0.8,3.2-2.7,3.2-4.8v-12.7C-229.3,382.6-229.8,382.2-230.4,382.2z M-262.7,377.2c0-0.6,0.5-1.1,1.1-1.1h14
						c0.6,0,1.1,0.5,1.1,1.1v5h-16.1V377.2z M-234.6,415.9h-40.1v-14.8h5.3v1.3c0,0.8,0.3,1.7,0.9,2.3c0.6,0.6,1.4,1,2.2,1h2.1
						c0.9,0,1.7-0.3,2.3-0.9c0.6-0.6,0.9-1.4,0.9-2.3v-1.3h12.7v1.3c0,1.7,1.4,3.2,3.2,3.2h2.1c1.7,0,3.2-1.4,3.2-3.2v-1.3h5.3
						V415.9z M-267.3,400.1v-1.7h4.2v4c0,0.6-0.5,1.1-1.1,1.1h-2.1c-0.6,0-1.1-0.5-1.1-1.1V400.1z M-242,402.4
						c0,0.6-0.5,1.1-1.1,1.1h-2.1c-0.6,0-1.1-0.5-1.1-1.1v-4h4.2V402.4z"/>
				</g>
			</g>
			<path id="active-jobs" class="st1" d="M-231.4,395.9c0,1.7-1.4,3.2-3.2,3.2h-5.3v-1.7c0-0.6-0.5-1.1-1.1-1.1h-6.3
				c-0.6,0-1.1,0.5-1.1,1.1v1.7H-261v-1.7c0-0.6-0.5-1.1-1.1-1.1h-6.3c-0.6,0-1.1,0.5-1.1,1.1v1.7h-5.3c-1.7,0-3.2-1.4-3.2-3.2
				v-11.6h46.5V395.9z"/>
		</g>
	</g>
</g>
</svg>
