<?xml version="1.0" encoding="utf-8"?>
<!-- Generator: Adobe Illustrator 19.0.0, SVG Export Plug-In . SVG Version: 6.00 Build 0)  -->
<svg version="1.1" id="Layer_1" xmlns="http://www.w3.org/2000/svg" xmlns:xlink="http://www.w3.org/1999/xlink" x="0px" y="0px"
	 viewBox="-148 360 90 73" style="enable-background:new -148 360 90 73;" xml:space="preserve">
<style type="text/css">
	.st0{fill:#D7D7D7;}
	.st1{fill:#FFFFFF;}
	.st2{fill:#3B91A2;}
</style>
<title>7E04D9BB-6969-40B9-9BCC-347034532219</title>
<g id="Styleguide" transform="translate(-1564.000000, -71.000000)">
	<g id="Group-6" transform="translate(1564.000000, 71.000000)">
		<g id="Mask" transform="translate(75.000000, 0.000000)">
			<path id="Fill-208" class="st0" d="M-187.9,427.4l5.3-12.5l-12.1-28.5c0-0.1-0.1-0.1-0.1-0.2c-2.6,1.3-5.7,3.7-8.7,5.2l15.6,36.6
				c0,0,0,0,0,0C-187.9,427.8-187.9,427.6-187.9,427.4"/>
			<path id="Fill-210" class="st0" d="M-187.9,427.8C-187.9,427.8-187.9,427.8-187.9,427.8l5.4-12.9l-2.4-5.6l-3.2,18.1v0l0,0l0,0
				c0,0.1,0.1,0.1,0.1,0.2"/>
			<path id="Fill-212" class="st1" d="M-218,428.5h-4.2c-0.6,0-1-0.6-0.7-1.1l15.6-36.6c1.3-3.1,4.3-5.1,7.7-5.1h4.2
				c0.6,0,1,0.6,0.7,1.1l-15.6,36.6C-211.6,426.5-214.6,428.5-218,428.5"/>
			<path id="Fill-214" class="st0" d="M-142.1,427.4l-17.5-41c0-0.1-0.1-0.1-0.1-0.2c-2.6,1.3-5.7,3.7-8.7,5.2l13.6,32
				c1.3,3.1,4.3,5.1,7.7,5.1h4.2C-142.3,428.5-141.9,427.9-142.1,427.4"/>
			<path id="Fill-216" class="st2" d="M-187.1,428.5h4.2c0,0,0.1,0,0.1,0c-2.8,0-4.8-0.4-5.1-0.5
				C-187.7,428.3-187.5,428.5-187.1,428.5"/>
			<path id="Fill-218" class="st1" d="M-160.4,385.7h-4.2c-3.4,0-6.4,2-7.7,5.1l-10.2,24.1l5,11.7c1-0.8,1.8-1.9,2.4-3.2l15.6-36.6
				C-159.4,386.3-159.8,385.7-160.4,385.7"/>
			<path id="Fill-220" class="st1" d="M-187.9,427.4c-0.1,0.2-0.1,0.4,0,0.6c0.3,0.1,2.2,0.4,5.1,0.5c1.9,0,3.8-0.7,5.2-1.9l-5-11.7
				L-187.9,427.4z"/>
			<path id="Fill-222" class="st0" d="M-143.9,360.2l-3.7,12.2c0,0.1,0,0.1,0.2,0.4c0,0,3,4.2,4.5,5.6c0.2,0.2,0.5,0.1,0.7-0.1
				l4.4-7.2c0.8-1.4,0.7-3-0.3-4.3l-5-6.6C-143.5,359.9-143.8,360-143.9,360.2"/>
			<path id="Fill-224" class="st0" d="M-147.5,372.2C-147.5,372.2-147.5,372.2-147.5,372.2c0,0.1-0.1,0.2,0.1,0.4
				c0,0,2.9,4.4,4.3,5.8c0.2,0.2,0.5,0.1,0.7-0.1l4.4-7.2c0.2-0.4,0.4-0.9,0.5-1.3"/>
			<path id="Fill-226" class="st1" d="M-137.1,373.1l3.9,5.1c0.2,0.2,0.1,0.5-0.2,0.6l-6.2,0.4c-1.7,0.2-3.1-0.1-4.1-1.4l-3.9-5.1
				c-0.2-0.2-0.1-0.5,0.2-0.6l6.2-0.4C-139.4,371.5-138.1,371.8-137.1,373.1"/>
			<path id="Fill-228" class="st1" d="M-147.9,372.6c0.1,0,0.1,0,0.3,0.2c0,0,3.3,4,4.2,5.8c0.1,0.2,0,0.6-0.3,0.6l-8.1,2.4
				c-1.5,0.4-3.1-0.1-4.1-1.4l-5-6.6c-0.2-0.2-0.1-0.5,0.2-0.6L-147.9,372.6z"/>
			<path id="Fill-230" class="st1" d="M-148.1,372.6C-148.1,372.6-148.1,372.6-148.1,372.6c0.1,0,0.2,0,0.3,0.2c0,0,3.5,3.9,4.5,5.7
				c0.1,0.2,0,0.6-0.3,0.6l-8.1,2.4c-0.5,0.1-0.9,0.2-1.4,0.1"/>
			<path id="Fill-232" class="st0" d="M-149.9,382.9l3.9,5.1c0.2,0.2,0.5,0.2,0.6,0l2-5.9c0.6-1.6,0.7-3-0.3-4.3l-3.9-5.1
				c-0.2-0.2-0.5-0.2-0.6,0l-2,5.9C-150.9,380.4-150.9,381.7-149.9,382.9"/>
		</g>
	</g>
</g>
</svg>
