<?xml version="1.0" encoding="utf-8"?>
<!-- Generator: Adobe Illustrator 19.0.0, SVG Export Plug-In . SVG Version: 6.00 Build 0)  -->
<svg version="1.1" id="Layer_1" xmlns="http://www.w3.org/2000/svg" xmlns:xlink="http://www.w3.org/1999/xlink" x="0px" y="0px" viewBox="-276 380 58 34" style="enable-background:new -276 380 58 34;" xml:space="preserve">
	<style type="text/css">
		.st1{fill:transparent; stroke:#fff}
		.active-study{
			fill:transparent; stroke:#fff
		}
		.active-svg .active-study{
			fill:#fff; stroke:#fff
		}
	</style>

	<g id="Design">
		<g id="Styleguide" transform="translate(-326.000000, -3830.000000)">
			<g id="_x32_152139---education-student-study" transform="translate(308.000000, 3830.000000)" class="active-study">
				<g transform="translate(18.000000, 0.000000)">
					<path id="Path_1_" d="M-261.2,405.1v-4.3c0-0.4-0.4-0.8-0.8-0.8h-0.8c-0.4,0-0.8,0.4-0.8,0.8v4.3c0,4.2,8.1,6.4,16,6.4
					s16-2.2,16-6.4v-4.3c0-0.4-0.4-0.8-0.8-0.8h-0.8c-0.4,0-0.8,0.4-0.8,0.8v4.3c0,1.6-5.4,3.9-13.6,3.9S-261.2,406.6-261.2,405.1z" />
					<path id="Shape_1_" d="M-218.5,411.3c-0.3-1.4-0.9-3.9-1.2-5c-0.3-1.2-1.3-1.9-2.3-2.1v-11.4l1.6-0.6c1.7-0.6,1.7-1.7,0-2.4
					l-24-9.3c-0.8-0.3-1.9-0.5-3-0.5c-1.1,0-2.2,0.2-3,0.5l-24,9.3c-1.7,0.6-1.7,1.7,0,2.4l24,9.3c0.8,0.3,1.9,0.5,3,0.5
					s2.2-0.2,3-0.5l20.1-7.7v10.5c-1,0.3-1.9,0.9-2.3,2.1c-0.3,1.1-0.9,3.6-1.2,5c-0.1,0.6,0,1.1,0.3,1.6c0.3,0.4,0.9,0.7,1.5,0.7
					h5.7c0.6,0,1.1-0.3,1.5-0.7C-218.5,412.5-218.4,411.9-218.5,411.3z M-225.4,411.2c0.3-1.3,0.8-3.3,1-4.2
					c0.1-0.5,1.1-0.5,1.1-0.5h0c0,0,1,0,1.1,0.5c0.2,0.9,0.7,2.9,1,4.2H-225.4L-225.4,411.2z" />
				</g>
			</g>
		</g>
	</g>
</svg>
