<?xml version="1.0" encoding="UTF-8"?>
<svg width="243px" height="244px" viewBox="0 0 243 244" version="1.1" xmlns="http://www.w3.org/2000/svg" xmlns:xlink="http://www.w3.org/1999/xlink">
    <title>5A93E804-755B-4858-AB70-CD7CB96C353B</title>
    <g id="Style-guide" stroke="none" stroke-width="1" fill="none" fill-rule="evenodd">
        <g id="Styleguide" transform="translate(-731.000000, -13727.000000)" fill-rule="nonzero">
            <g id="5453288_calendar_date_year_icon-(1)" transform="translate(731.000000, 13727.000000)">
                <g id="Colors" transform="translate(2.468720, 27.649668)">
                    <path d="M227.616016,213.791182 L9.8748814,213.791182 C4.44369663,213.791182 0,209.347486 0,203.916301 L0,10.1217534 C0,4.69056867 4.44369663,0.246872035 9.8748814,0.246872035 L227.616016,0.246872035 C233.047201,0.246872035 237.490898,4.69056867 237.490898,10.1217534 L237.490898,203.916301 C237.490898,209.347486 233.047201,213.791182 227.616016,213.791182 Z" id="Path" fill="#F4F5F7"></path>
                    <g id="Group" opacity="0.7" transform="translate(21.230995, 22.712227)" fill="#384169">
                        <g opacity="0.3" transform="translate(166.885496, 120.473553)" id="Oval">
                            <g>
                                <circle cx="14.318578" cy="14.4360891" r="14.318578"></circle>
                            </g>
                        </g>
                        <g opacity="0.3" transform="translate(55.793080, 60.236777)" id="Oval">
                            <g>
                                <circle cx="14.318578" cy="14.4360891" r="14.318578"></circle>
                            </g>
                        </g>
                        <g opacity="0.3" transform="translate(0.000000, 60.236777)" id="Oval">
                            <g>
                                <circle cx="14.318578" cy="14.4360891" r="14.318578"></circle>
                            </g>
                        </g>
                        <g opacity="0.3" id="Oval">
                            <g>
                                <circle cx="14.318578" cy="14.4360891" r="14.318578"></circle>
                            </g>
                        </g>
                        <g opacity="0.3" transform="translate(55.793080, 0.000000)" id="Oval">
                            <g>
                                <circle cx="14.318578" cy="14.4360891" r="14.318578"></circle>
                            </g>
                        </g>
                        <g opacity="0.3" transform="translate(111.092416, 0.000000)" id="Oval">
                            <g>
                                <circle cx="14.318578" cy="14.4360891" r="14.318578"></circle>
                            </g>
                        </g>
                        <g opacity="0.3" transform="translate(166.885496, 0.000000)" id="Oval">
                            <g>
                                <circle cx="14.318578" cy="14.4360891" r="14.318578"></circle>
                            </g>
                        </g>
                        <g opacity="0.3" transform="translate(111.092416, 60.236777)" id="Oval">
                            <g>
                                <circle cx="14.318578" cy="14.4360891" r="14.318578"></circle>
                            </g>
                        </g>
                        <g opacity="0.3" transform="translate(166.885496, 60.236777)" id="Oval">
                            <g>
                                <circle cx="14.318578" cy="14.4360891" r="14.318578"></circle>
                            </g>
                        </g>
                        <g opacity="0.3" transform="translate(0.000000, 120.473553)" id="Oval">
                            <g>
                                <circle cx="14.318578" cy="14.4360891" r="14.318578"></circle>
                            </g>
                        </g>
                        <g opacity="0.3" transform="translate(55.793080, 120.473553)" id="Oval">
                            <g>
                                <circle cx="14.318578" cy="14.4360891" r="14.318578"></circle>
                            </g>
                        </g>
                        <g opacity="0.3" transform="translate(111.092416, 120.473553)" id="Oval">
                            <g>
                                <circle cx="14.318578" cy="14.4360891" r="14.318578"></circle>
                            </g>
                        </g>
                    </g>
                    <path d="M146.606933,37.5240556 C146.54324,37.5240556 146.479547,37.5230681 146.41536,37.5210931 C145.733994,37.5003559 145.198281,36.931069 145.219018,36.2497021 C145.239756,35.5678416 145.809043,35.0217606 146.490409,35.0533603 C147.302618,35.0849599 148.067428,34.8450003 148.640171,34.3966807 C149.146259,33.9997104 149.434112,33.4807854 149.450405,32.9332232 C149.467192,32.3861548 149.211927,31.8499487 148.730526,31.4233539 C148.186914,30.9409659 147.438892,30.6615068 146.624708,30.6368196 C145.80608,30.6126261 145.046702,30.8456733 144.474452,31.2934992 C143.968365,31.6899757 143.681006,32.2093944 143.664218,32.7564628 C143.643481,33.4383234 143.075182,33.9740357 142.392827,33.9528047 C141.711461,33.9320675 141.175748,33.3627806 141.196486,32.6814138 C141.235985,31.3897793 141.85909,30.2067685 142.951746,29.3506163 C143.97824,28.5458134 145.304436,28.1246497 146.700251,28.1690867 C148.090634,28.2115487 149.393625,28.7117114 150.368769,29.576751 C151.407113,30.4975837 151.957144,31.7166378 151.917644,33.0082723 C151.878145,34.2999068 151.25504,35.4834113 150.162384,36.3395636 C149.183783,37.1068419 147.927698,37.5240556 146.606933,37.5240556 Z" id="Path" fill="#384169"></path>
                    <path d="M146.379811,46.1300147 C146.304268,46.1300147 146.228725,46.1290272 146.152195,46.1265585 C144.486302,46.0757029 142.927058,45.4787663 141.761329,44.4448662 C140.532893,43.3551731 139.882139,41.9168966 139.928551,40.3956711 C139.949288,39.7143043 140.52055,39.1859981 141.199942,39.1993292 C141.881309,39.2200665 142.417021,39.7893534 142.396284,40.4707202 C142.372584,41.2473796 142.729067,42.0028081 143.399572,42.5982634 C144.133769,43.2490181 145.138044,43.6257448 146.227244,43.6588257 C148.395768,43.7264686 150.193984,42.4017533 150.245827,40.7096923 C150.269527,39.9330329 149.913537,39.1771107 149.242539,38.5816554 C148.508835,37.9309007 147.50456,37.554174 146.414867,37.5210931 C145.7335,37.5003559 145.197787,36.931069 145.218525,36.2497021 C145.239262,35.5678416 145.808549,35.0217606 146.489916,35.0533603 C148.156302,35.1042159 149.715546,35.7011525 150.880782,36.7355463 C152.109217,37.8252395 152.759972,39.2630222 152.71356,40.7847414 C152.622217,43.7713993 149.802445,46.129521 146.379811,46.1300147 Z" id="Path" fill="#384169"></path>
                    <path d="M35.5757415,106.702537 C34.0476036,106.702537 32.1837197,106.205831 30.0018647,104.751261 C29.4345527,104.373053 29.2814921,103.606762 29.6597,103.03945 C30.037908,102.472138 30.8041988,102.319077 31.3715107,102.697285 C34.2678134,104.628318 36.886632,104.733486 38.5564744,102.986619 C39.776516,101.709797 40.1137432,99.6869278 39.2931406,98.5690912 C37.6850162,96.377855 32.949023,97.0449033 31.2604183,97.4872979 C30.8896165,97.5845655 30.4946213,97.5035915 30.1919561,97.2695568 C29.889291,97.0350284 29.7115432,96.6736077 29.7125307,96.2909561 L29.7268492,90.1932168 C29.7283305,89.5123437 30.2808301,88.9618191 30.9612094,88.9618191 C30.9621969,88.9618191 30.9631844,88.9618191 30.9641719,88.9618191 L40.1675613,88.9830501 C40.8489282,88.9845313 41.400934,89.5385122 41.3989591,90.2203727 C41.3974778,90.9012458 40.8449782,91.4517704 40.1645989,91.4517704 C40.1636114,91.4517704 40.1626239,91.4517704 40.1616364,91.4517704 L32.1926071,91.4335019 L32.1847072,94.7914553 C34.5877596,94.4221348 39.1366237,94.1851376 41.2829292,97.1085962 C42.818967,99.2015774 42.4052095,102.532869 40.3408655,104.692505 C39.7454102,105.31561 38.1288921,106.702537 35.5757415,106.702537 Z" id="Path" fill="#384169"></path>
                    <g id="Group" transform="translate(84.923980, 87.886444)" fill="#384169">
                        <path d="M6.93364798,18.3406172 C6.90155461,18.3406172 6.86946125,18.3406172 6.83687414,18.3401235 C1.5942996,18.2912428 0.493250326,15.2290421 0.492756582,12.6694728 C0.492756582,11.3067392 1.0575998,9.99683619 2.08310623,8.98021715 C3.31006025,7.7641255 5.0751953,7.09608978 6.9361167,7.09312731 C10.8490385,7.12966437 13.2797405,9.30263203 13.2797405,12.763778 C13.2797405,14.3170968 12.7622967,15.651687 11.7832022,16.6214004 C10.6475909,17.7471369 8.97231724,18.3406172 6.93364798,18.3406172 Z M6.86847376,9.56135392 C5.6825005,9.56135392 4.57404507,9.98745505 3.82108536,10.7335023 C3.42905257,11.1220789 2.96147693,11.7733274 2.96147693,12.6684854 C2.96197068,14.5694 3.62506896,15.8417785 6.86008011,15.8714031 C8.23713232,15.8842405 9.38014985,15.5277573 10.0462106,14.8681152 C10.5542732,14.3644962 10.8115139,13.656961 10.8115139,12.763778 C10.8115139,10.1469344 8.69187061,9.57814122 6.91340447,9.56184766 C6.89859215,9.56184766 6.88328608,9.56135392 6.86847376,9.56135392 Z" id="Shape"></path>
                        <path d="M1.72810425,13.824834 C1.04624368,13.824834 0.49374407,13.2723344 0.49374407,12.5904738 L0.49374407,6.52285291 C0.451775824,6.02960259 0.346608337,3.69863683 1.89153353,1.95473277 C2.99850774,0.705560276 4.63131938,0.0720866343 6.74553149,0.0720866343 C9.05378502,0.0720866343 10.7769518,0.675935632 11.866645,1.86684633 C13.1069301,3.22118631 13.0076875,4.7873425 12.9923815,4.96212791 C12.9326384,5.641026 12.3352081,6.1451387 11.654335,6.08292694 C10.9754369,6.02269017 10.4732992,5.42377861 10.533536,4.74438677 C10.5330422,4.73895559 10.5587169,4.07190735 10.0195484,3.5055829 C9.41816814,2.87507172 8.28650673,2.54130073 6.74602523,2.54130073 C5.37736667,2.54130073 4.36963502,2.89087153 3.7509737,3.58013825 C2.78619779,4.65551284 2.95308328,6.30659301 2.95505826,6.32387405 C2.9599957,6.36831102 2.96345191,6.42064789 2.96345191,6.46508486 L2.96345191,12.5904738 C2.96246442,13.2723344 2.40996481,13.824834 1.72810425,13.824834 Z" id="Path"></path>
                    </g>
                    <path d="M35.4083623,46.1201399 C34.7265017,46.1201399 34.1740021,45.5676402 34.1740021,44.8857797 L34.1740021,29.4103593 C34.1740021,28.7284987 34.7265017,28.1759991 35.4083623,28.1759991 C36.0902228,28.1759991 36.6427224,28.7284987 36.6427224,29.4103593 L36.6427224,44.8857797 C36.6427224,45.5676402 36.0902228,46.1201399 35.4083623,46.1201399 Z" id="Path" fill="#384169"></path>
                    <path d="M96.2800937,46.0312659 L86.1218032,46.0312659 C85.616703,46.0312659 85.1629522,45.7236634 84.9753295,45.2546065 C84.7877067,44.7855496 84.9052178,44.2498373 85.2715759,43.9022415 C85.5431351,43.6445071 91.9376146,37.571455 93.545739,36.1326848 C94.7884929,35.0207732 94.8442859,33.71877 94.8442859,33.7064264 C94.8442859,33.6674207 94.8462609,33.6279211 94.8497171,33.5889154 L94.8497171,33.5889154 C94.8497171,33.5894091 94.919335,32.5007034 94.1871126,31.7121941 C93.5837573,31.0634144 92.5617071,30.7340871 91.1505865,30.7340871 C89.8076027,30.7340871 88.8087584,31.0683519 88.180716,31.727994 C87.2979016,32.6542578 87.3532009,34.0046479 87.3536946,34.0184727 C87.3867755,34.6953958 86.8683442,35.2775201 86.1914211,35.3165259 C85.5248666,35.3505942 84.9343487,34.8469752 84.889418,34.1705459 C84.8829993,34.073772 84.7521571,31.7768746 86.363244,30.0566703 C87.4756494,28.8682283 89.0862426,28.2658605 91.1500928,28.2658605 C93.2998545,28.2658605 94.9420473,28.8731657 96.0307529,30.0709889 C97.3989178,31.5759208 97.3376935,33.4170924 97.3110313,33.7804881 C97.2927628,34.2001705 97.1061275,36.2600708 95.1918818,37.9733627 C94.2093311,38.8522271 91.2972285,41.5974442 89.218566,43.5635331 L96.2800937,43.5635331 C96.9619543,43.5635331 97.5144539,44.1160327 97.5144539,44.7978932 C97.5144539,45.4797538 96.9619543,46.0312659 96.2800937,46.0312659 Z" id="Path" fill="#384169"></path>
                    <path d="M203.65906,46.1201399 C202.9772,46.1201399 202.4247,45.5676402 202.4247,44.8857797 L202.4247,41.9292402 L195.921597,41.9292402 C195.463403,41.9292402 195.043226,41.6754557 194.829435,41.2700919 C194.615644,40.8652217 194.644281,40.3749339 194.903497,39.9967259 L202.64096,28.7126989 C202.947081,28.266848 203.507975,28.0713254 204.024431,28.2317922 C204.540887,28.3917653 204.893421,28.8697095 204.893421,29.410853 L204.893421,39.4605198 L206.560794,39.4605198 C207.242655,39.4605198 207.795154,40.0130194 207.795154,40.69488 C207.795154,41.3767406 207.242655,41.9292402 206.560794,41.9292402 L204.893421,41.9292402 L204.893421,44.8857797 C204.893421,45.5676402 204.340921,46.1201399 203.65906,46.1201399 Z M198.264413,39.4605198 L202.4247,39.4605198 L202.4247,33.3933927 L198.264413,39.4605198 Z" id="Shape" fill="#384169"></path>
                    <path d="M84.2890252,166.593693 C83.6071646,166.593693 83.054665,166.041193 83.054665,165.359333 L83.054665,149.883912 C83.054665,149.202052 83.6071646,148.649552 84.2890252,148.649552 C84.9708858,148.649552 85.5233854,149.202052 85.5233854,149.883912 L85.5233854,165.359333 C85.5233854,166.041193 84.9708858,166.593693 84.2890252,166.593693 Z" id="Path" fill="#384169"></path>
                    <path d="M140.575849,166.593693 C139.893989,166.593693 139.341489,166.041193 139.341489,165.359333 L139.341489,149.883912 C139.341489,149.202052 139.893989,148.649552 140.575849,148.649552 C141.25771,148.649552 141.810209,149.202052 141.810209,149.883912 L141.810209,165.359333 C141.810209,166.041193 141.25771,166.593693 140.575849,166.593693 Z" id="Path" fill="#384169"></path>
                    <path d="M151.931963,166.593693 C151.250102,166.593693 150.697603,166.041193 150.697603,165.359333 L150.697603,149.883912 C150.697603,149.202052 151.250102,148.649552 151.931963,148.649552 C152.613823,148.649552 153.166323,149.202052 153.166323,149.883912 L153.166323,165.359333 C153.166323,166.041193 152.613823,166.593693 151.931963,166.593693 Z" id="Path" fill="#384169"></path>
                    <g id="Group" transform="translate(193.547676, 148.616965)" fill="#384169">
                        <path d="M16.5404264,18.1396634 L6.38213585,18.1396634 C5.87901064,18.1396634 5.42575359,17.8340358 5.2376371,17.3679414 C5.04902686,16.9013533 5.162588,16.3671222 5.52499615,16.0175514 C5.79655538,15.755867 12.1910348,9.58554738 13.7991593,8.12357119 C15.053763,6.98252864 15.1036311,5.67509434 15.1051123,5.62028875 C15.1056061,5.59263908 15.1075811,5.54820212 15.1105435,5.52055245 L15.1105435,5.52055245 C15.1105435,5.52055245 15.1831239,4.38740981 14.428683,3.5761883 C13.8243402,2.9264211 12.8092024,2.59660007 11.411413,2.59660007 C10.0827477,2.59660007 9.09032208,2.9308648 8.46277336,3.59001313 C7.55724674,4.54096421 7.61452105,5.9412224 7.61501479,5.95504723 C7.6476019,6.6324641 7.12917063,7.21458835 6.45224751,7.25260665 C5.7743369,7.29852485 5.19468136,6.78108106 5.15123188,6.10514543 C5.14481321,6.00639661 5.01298354,3.66061854 6.64777016,1.91720822 C7.76017555,0.73024748 9.36336255,0.128373458 11.4119067,0.128373458 C13.5463623,0.128373458 15.1816427,0.735184921 16.2713358,1.93251429 C17.6607316,3.45917096 17.5995074,5.34033586 17.5728452,5.70866894 C17.5555642,6.12687017 17.3723851,8.21293886 15.4606081,9.95091799 C14.471145,10.8505197 11.5259616,13.6717733 9.44433657,15.6724243 L16.5404264,15.6724243 C17.2222869,15.6724243 17.7747865,16.2249239 17.7747865,16.9067845 C17.7747865,17.588645 17.2222869,18.1396634 16.5404264,18.1396634 Z" id="Path"></path>
                        <path d="M1.34002141,18.1055951 C0.658160846,18.1055951 0.105661231,17.5530954 0.105661231,16.8712349 L0.105661231,1.39532074 C0.105661231,0.713460181 0.658160846,0.160960567 1.34002141,0.160960567 C2.02188197,0.160960567 2.57438158,0.713460181 2.57438158,1.39532074 L2.57438158,16.8712349 C2.57438158,17.5530954 2.02188197,18.1055951 1.34002141,18.1055951 Z" id="Path"></path>
                    </g>
                    <g id="Group" transform="translate(29.130900, 148.123221)" fill="#384169">
                        <path d="M6.42163538,11.6691474 C0.906514113,11.6691474 0.0829490038,8.11616503 0.0829490038,5.99849671 C0.0829490038,4.53010184 0.6161926,3.22612375 1.62491174,2.22629201 C2.81779741,1.04476245 4.57058886,0.416719995 6.51001557,0.42211625 C10.2358083,0.456713265 12.8383333,2.78916025 12.8383333,6.09329557 C12.8378396,8.17590806 12.0043996,11.6691474 6.42163538,11.6691474 Z M6.432004,2.89037779 C5.17888155,2.89037779 4.06252621,3.28636053 3.36239712,3.98007095 C2.82421608,4.51331455 2.55166935,5.19221264 2.55166935,5.99849671 C2.55166935,7.58193394 3.01134508,9.200427 6.42163538,9.200427 C9.90006235,9.200427 10.3691192,7.62982712 10.3691192,6.09329557 C10.3691192,3.75837986 8.36353081,2.90815257 6.48680959,2.89087153 C6.46903481,2.89037779 6.45027253,2.89037779 6.432004,2.89037779 Z" id="Shape"></path>
                        <path d="M6.60135822,18.690188 C4.14004403,18.690188 2.3561467,18.0577019 1.30052188,16.8100106 C0.133804643,15.4314772 0.353520754,13.8781583 0.38215791,13.7053479 C0.495225302,13.0333622 1.13166141,12.5796114 1.80364709,12.6916913 C2.47612651,12.8047587 2.92987731,13.4407011 2.81730366,14.1131805 C2.81779741,14.1146617 2.74867324,14.7219669 3.20834897,15.2413857 C3.77467342,15.8827593 4.94830307,16.2209739 6.60185196,16.2209739 C7.98285413,16.2209739 8.99502947,15.8669594 9.60974084,15.1692991 C10.5577295,14.092937 10.3809691,12.468519 10.3794878,12.4527192 C10.3730692,12.4013698 10.369613,12.3490329 10.369613,12.2971898 L10.369613,6.17180088 C10.369613,5.48994032 10.9221126,4.9374407 11.6039731,4.9374407 C12.2858337,4.9374407 12.8383333,5.48994032 12.8383333,6.17180088 L12.8383333,12.2359655 C12.883264,12.7376095 12.9968252,15.0601816 11.4622686,16.801617 C10.3577631,18.0547394 8.72248274,18.690188 6.60135822,18.690188 Z" id="Path"></path>
                    </g>
                    <path d="M145.672275,106.819061 C145.528596,106.819061 145.382941,106.793386 145.240743,106.740556 C144.602332,106.502571 144.277448,105.791086 144.516421,105.152181 L149.673577,91.342653 L141.457676,91.342653 C140.775816,91.342653 140.223316,90.7901534 140.223316,90.1082928 C140.223316,89.4264323 140.775816,88.8739326 141.457676,88.8739326 L151.452537,88.8739326 C151.856914,88.8739326 152.236109,89.071924 152.466688,89.4042138 C152.697266,89.7369973 152.75059,90.1611234 152.608886,90.5403189 L146.829118,106.016233 C146.64347,106.512446 146.172932,106.819061 145.672275,106.819061 Z" id="Path" fill="#384169"></path>
                    <g id="Group" transform="translate(195.522652, 87.886444)" fill="#384169">
                        <path d="M6.94895404,9.73663306 C6.92871054,9.73663306 6.90896077,9.73663306 6.88871727,9.73663306 C5.46673435,9.72428946 4.12325673,9.24683895 3.10614395,8.39216796 C2.02089448,7.48022266 1.42988283,6.25524363 1.44173269,4.9418844 C1.46493866,2.34232187 3.91588422,0.245390803 6.91636694,0.245390803 C6.93562295,0.245390803 6.95438523,0.245390803 6.9731475,0.245390803 C9.99979865,0.273040471 12.4433381,2.42378964 12.4201321,5.04063321 L12.4201321,5.04063321 C12.4082822,6.3534987 11.7955458,7.56810911 10.6944966,8.46030464 C9.67738378,9.28485724 8.34921223,9.73663306 6.94895404,9.73663306 Z M6.91784817,2.71411115 C5.29540515,2.71411115 3.92180915,3.7386301 3.91094678,4.96459663 C3.9055156,5.52746487 4.18398725,6.07305206 4.69451862,6.50211566 C5.27318667,6.98795983 6.06070846,7.26050655 6.91093575,7.26793062 C7.75573185,7.27038143 8.55362227,7.01758447 9.14068397,6.54210893 C9.6586215,6.12242647 9.94647429,5.58128297 9.95190548,5.01841473 C9.96276785,3.78405455 8.5886781,2.72892348 6.95191651,2.71411115 C6.94056039,2.71411115 6.92871054,2.71411115 6.91784817,2.71411115 Z" id="Shape"></path>
                        <path d="M6.88081736,18.5154026 C6.85711765,18.5154026 6.83391168,18.5149089 6.81021196,18.5149089 C3.1974866,18.4823218 0.279952888,15.9331211 0.307602556,12.8324084 C0.32142739,11.2850145 1.04673743,9.85167543 2.35022177,8.79506312 C3.58458195,7.79523138 5.20603748,7.27630636 6.91093575,7.26741897 C8.617809,7.28272504 10.2274147,7.85398692 11.4435063,8.87653089 C12.7277346,9.95585543 13.42737,11.4025256 13.4135452,12.9499195 L13.4135452,12.9499195 C13.3997203,14.4973134 12.6744103,15.9311462 11.3709259,16.9877585 C10.1538468,17.9737654 8.56152218,18.5154026 6.88081736,18.5154026 Z M6.84082409,9.73613932 C5.72446875,9.73613932 4.68316251,10.0822539 3.90452811,10.7132588 C3.18415551,11.2973581 2.78323532,12.0577239 2.77632291,12.8546269 C2.76101684,14.5935935 4.58046374,16.025945 6.83243044,16.0461885 C7.96557308,16.0535947 9.02662909,15.7099488 9.8166196,15.0695628 C10.5369922,14.4854635 10.9379124,13.7250977 10.9448248,12.927701 L10.9448248,12.927701 C10.952231,12.1307981 10.5651356,11.363026 9.85513164,10.7660895 C9.07699099,10.1123723 8.02383488,9.74650795 6.88921101,9.73613932 C6.87291746,9.73663306 6.85711765,9.73613932 6.84082409,9.73613932 Z" id="Shape"></path>
                    </g>
                    <path d="M94.5781579,166.636155 C91.0528252,166.636155 88.1851597,163.767996 88.1851597,160.24365 L88.1851597,155.085012 C88.1851597,151.560174 91.0528252,148.692508 94.5781579,148.692508 C98.1034905,148.692508 100.971156,151.560667 100.971156,155.085012 L100.971156,160.24365 C100.971156,163.768489 98.1034905,166.636155 94.5781579,166.636155 Z M94.5781579,151.160735 C92.4145714,151.160735 90.65388,152.920932 90.65388,155.084519 L90.65388,160.243157 C90.65388,162.406743 92.4140776,164.166941 94.5781579,164.166941 C96.7422381,164.166941 98.5024358,162.406743 98.5024358,160.243157 L98.5024358,155.085012 C98.5024358,152.921426 96.7422381,151.160735 94.5781579,151.160735 Z" id="Shape" fill="#384169"></path>
                    <g id="Group" opacity="0.2" transform="translate(0.493744, 198.485116)" fill="#384169">
                        <g id="Path">
                            <path d="M1.48123221,0 C1.48123221,0 1.97497628,7.40616105 15.7998102,7.40616105 C29.6246442,7.40616105 221.197343,7.40616105 221.197343,7.40616105 C221.197343,7.40616105 235.022177,8.88739326 235.515921,0 C235.515921,0 239.712746,15.3060662 225.02386,15.3060662 C210.334974,15.3060662 11.8498577,15.3060662 11.8498577,15.3060662 C11.8498577,15.3060662 -3.94995256,15.7998102 1.48123221,0 Z"></path>
                        </g>
                    </g>
                    <g id="Group" opacity="0.7" fill="#FFFFFF">
                        <g id="Path">
                            <path d="M234.687419,15.3060662 C234.687419,15.3060662 234.193675,7.89990512 220.368841,7.89990512 C206.544007,7.89990512 14.9713077,7.89990512 14.9713077,7.89990512 C14.9713077,7.89990512 1.14647373,6.41867291 0.652729661,15.3060662 C0.652729661,15.3060662 -3.54409494,-4.33680869e-19 11.1447912,-4.33680869e-19 C25.8336772,-4.33680869e-19 224.318793,-4.33680869e-19 224.318793,-4.33680869e-19 C224.318793,-4.33680869e-19 240.118604,-0.49374407 234.687419,15.3060662 Z"></path>
                        </g>
                    </g>
                </g>
                <g id="Lines">
                    <path d="M230.084737,243.909571 L12.3436018,243.909571 C5.53733975,243.909571 0,238.372231 0,231.565969 L0,37.7714214 C0,30.9651594 5.53733975,25.4278196 12.3436018,25.4278196 L230.084737,25.4278196 C236.890999,25.4278196 242.428338,30.9651594 242.428338,37.7714214 L242.428338,231.565969 C242.428338,238.372231 236.890999,243.909571 230.084737,243.909571 Z M12.3436018,30.3652603 C8.25984455,30.3652603 4.9374407,33.6876642 4.9374407,37.7714214 L4.9374407,231.565969 C4.9374407,235.649726 8.25984455,238.97213 12.3436018,238.97213 L230.084737,238.97213 C234.168494,238.97213 237.490898,235.649726 237.490898,231.565969 L237.490898,37.7714214 C237.490898,33.6876642 234.168494,30.3652603 230.084737,30.3652603 L12.3436018,30.3652603 Z" id="Shape" fill="#384169"></path>
                    <g id="Group" opacity="0.3" transform="translate(16.293554, 145.654501)" fill="#384169">
                        <g id="Path">
                            <path d="M2.57536907,5.46426563 C1.21411667,5.46426563 0.10911744,4.36222886 0.106644583,2.99998897 C0.104179999,1.63626785 1.20720425,0.529293643 2.57092537,0.526824923 L40.2984035,0.459181985 C40.2998848,0.459181985 40.301366,0.459181985 40.3028472,0.459181985 C41.6640996,0.459181985 42.7690988,1.56121875 42.7715717,2.92345864 C42.7740363,4.28717976 41.671012,5.39415397 40.3072909,5.39662269 L2.57981277,5.46426563 C2.57833153,5.46426563 2.5768503,5.46426563 2.57536907,5.46426563 Z"></path>
                        </g>
                        <g transform="translate(0.000000, 12.343602)" id="Path">
                            <path d="M2.59660007,5.01446478 C1.23534766,5.01446478 0.130348435,3.91242801 0.127875578,2.55018812 C0.125410994,1.186467 1.22843525,0.0794927953 2.59215637,0.077024075 L40.3196345,0.00938113733 C40.3211157,0.00938113733 40.322597,0.00938113733 40.3240782,0.00938113733 C41.6853306,0.00938113733 42.7903298,1.1114179 42.7928027,2.47365779 C42.7952673,3.83737891 41.692243,4.94435312 40.3285219,4.94682184 L2.60104376,5.01446478 C2.59956253,5.01446478 2.5980813,5.01446478 2.59660007,5.01446478 Z"></path>
                        </g>
                        <g transform="translate(55.793080, 0.000000)" id="Path">
                            <path d="M2.57536907,5.46426563 C1.21411667,5.46426563 0.10911744,4.36222886 0.106644583,2.99998897 C0.104179999,1.63626785 1.20720425,0.529293643 2.57092537,0.526824923 L40.2984035,0.459181985 C40.2998848,0.459181985 40.301366,0.459181985 40.3028472,0.459181985 C41.6640996,0.459181985 42.7690988,1.56121875 42.7715717,2.92345864 C42.7740363,4.28717976 41.671012,5.39415397 40.3072909,5.39662269 L2.57981277,5.46426563 C2.57833153,5.46426563 2.5768503,5.46426563 2.57536907,5.46426563 Z"></path>
                        </g>
                        <g transform="translate(55.793080, 12.343602)" id="Path">
                            <path d="M2.59660007,5.01446478 C1.23534766,5.01446478 0.130348435,3.91242801 0.127875578,2.55018812 C0.125410994,1.186467 1.22843525,0.0794927953 2.59215637,0.077024075 L40.3196345,0.00938113733 C40.3211157,0.00938113733 40.322597,0.00938113733 40.3240782,0.00938113733 C41.6853306,0.00938113733 42.7903298,1.1114179 42.7928027,2.47365779 C42.7952673,3.83737891 41.692243,4.94435312 40.3285219,4.94682184 L2.60104376,5.01446478 C2.59956253,5.01446478 2.5980813,5.01446478 2.59660007,5.01446478 Z"></path>
                        </g>
                        <g transform="translate(111.586160, 0.000000)" id="Path">
                            <path d="M2.57536907,5.46426563 C1.21411667,5.46426563 0.10911744,4.36222886 0.106644583,2.99998897 C0.104179999,1.63626785 1.20720425,0.529293643 2.57092537,0.526824923 L40.2984035,0.459181985 C40.2998848,0.459181985 40.301366,0.459181985 40.3028472,0.459181985 C41.6640996,0.459181985 42.7690988,1.56121875 42.7715717,2.92345864 C42.7740363,4.28717976 41.671012,5.39415397 40.3072909,5.39662269 L2.57981277,5.46426563 C2.57833153,5.46426563 2.5768503,5.46426563 2.57536907,5.46426563 Z"></path>
                        </g>
                        <g transform="translate(111.586160, 12.343602)" id="Path">
                            <path d="M2.59660007,5.01446478 C1.23534766,5.01446478 0.130348435,3.91242801 0.127875578,2.55018812 C0.125410994,1.186467 1.22843525,0.0794927953 2.59215637,0.077024075 L40.3196345,0.00938113733 C40.3211157,0.00938113733 40.322597,0.00938113733 40.3240782,0.00938113733 C41.6853306,0.00938113733 42.7903298,1.1114179 42.7928027,2.47365779 C42.7952673,3.83737891 41.692243,4.94435312 40.3285219,4.94682184 L2.60104376,5.01446478 C2.59956253,5.01446478 2.5980813,5.01446478 2.59660007,5.01446478 Z"></path>
                        </g>
                        <g transform="translate(167.379240, 0.000000)" id="Path">
                            <path d="M2.57536907,5.46426563 C1.21411667,5.46426563 0.10911744,4.36222886 0.106644583,2.99998897 C0.104179999,1.63626785 1.20720425,0.529293643 2.57092537,0.526824923 L40.2984035,0.459181985 C40.2998848,0.459181985 40.301366,0.459181985 40.3028472,0.459181985 C41.6640996,0.459181985 42.7690988,1.56121875 42.7715717,2.92345864 C42.7740363,4.28717976 41.671012,5.39415397 40.3072909,5.39662269 L2.57981277,5.46426563 C2.57833153,5.46426563 2.5768503,5.46426563 2.57536907,5.46426563 Z"></path>
                        </g>
                        <g transform="translate(167.379240, 12.343602)" id="Path">
                            <path d="M2.59660007,5.01446478 C1.23534766,5.01446478 0.130348435,3.91242801 0.127875578,2.55018812 C0.125410994,1.186467 1.22843525,0.0794927953 2.59215637,0.077024075 L40.3196345,0.00938113733 C40.3211157,0.00938113733 40.322597,0.00938113733 40.3240782,0.00938113733 C41.6853306,0.00938113733 42.7903298,1.1114179 42.7928027,2.47365779 C42.7952673,3.83737891 41.692243,4.94435312 40.3285219,4.94682184 L2.60104376,5.01446478 C2.59956253,5.01446478 2.5980813,5.01446478 2.59660007,5.01446478 Z"></path>
                        </g>
                    </g>
                    <g id="Group" opacity="0.3" transform="translate(16.293554, 205.891277)" fill="#384169">
                        <g id="Path">
                            <path d="M2.57536907,5.46426563 C1.21411667,5.46426563 0.10911744,4.36222886 0.106644583,2.99998897 C0.104179999,1.63626785 1.20720425,0.529293643 2.57092537,0.526824923 L40.2984035,0.459181985 C40.2998848,0.459181985 40.301366,0.459181985 40.3028472,0.459181985 C41.6640996,0.459181985 42.7690988,1.56121875 42.7715717,2.92345864 C42.7740363,4.28717976 41.671012,5.39415397 40.3072909,5.39662269 L2.57981277,5.46426563 C2.57833153,5.46426563 2.5768503,5.46426563 2.57536907,5.46426563 Z"></path>
                        </g>
                        <g transform="translate(0.000000, 12.343602)" id="Path">
                            <path d="M2.59660007,5.01446478 C1.23534766,5.01446478 0.130348435,3.91242801 0.127875578,2.55018812 C0.125410994,1.186467 1.22843525,0.0794927953 2.59215637,0.077024075 L40.3196345,0.00938113733 C40.3211157,0.00938113733 40.322597,0.00938113733 40.3240782,0.00938113733 C41.6853306,0.00938113733 42.7903298,1.1114179 42.7928027,2.47365779 C42.7952673,3.83737891 41.692243,4.94435312 40.3285219,4.94682184 L2.60104376,5.01446478 C2.59956253,5.01446478 2.5980813,5.01446478 2.59660007,5.01446478 Z"></path>
                        </g>
                        <g transform="translate(55.793080, 0.000000)" id="Path">
                            <path d="M2.57536907,5.46426563 C1.21411667,5.46426563 0.10911744,4.36222886 0.106644583,2.99998897 C0.104179999,1.63626785 1.20720425,0.529293643 2.57092537,0.526824923 L40.2984035,0.459181985 C40.2998848,0.459181985 40.301366,0.459181985 40.3028472,0.459181985 C41.6640996,0.459181985 42.7690988,1.56121875 42.7715717,2.92345864 C42.7740363,4.28717976 41.671012,5.39415397 40.3072909,5.39662269 L2.57981277,5.46426563 C2.57833153,5.46426563 2.5768503,5.46426563 2.57536907,5.46426563 Z"></path>
                        </g>
                        <g transform="translate(55.793080, 12.343602)" id="Path">
                            <path d="M2.59660007,5.01446478 C1.23534766,5.01446478 0.130348435,3.91242801 0.127875578,2.55018812 C0.125410994,1.186467 1.22843525,0.0794927953 2.59215637,0.077024075 L40.3196345,0.00938113733 C40.3211157,0.00938113733 40.322597,0.00938113733 40.3240782,0.00938113733 C41.6853306,0.00938113733 42.7903298,1.1114179 42.7928027,2.47365779 C42.7952673,3.83737891 41.692243,4.94435312 40.3285219,4.94682184 L2.60104376,5.01446478 C2.59956253,5.01446478 2.5980813,5.01446478 2.59660007,5.01446478 Z"></path>
                        </g>
                        <g transform="translate(111.586160, 0.000000)" id="Path">
                            <path d="M2.57536907,5.46426563 C1.21411667,5.46426563 0.10911744,4.36222886 0.106644583,2.99998897 C0.104179999,1.63626785 1.20720425,0.529293643 2.57092537,0.526824923 L40.2984035,0.459181985 C40.2998848,0.459181985 40.301366,0.459181985 40.3028472,0.459181985 C41.6640996,0.459181985 42.7690988,1.56121875 42.7715717,2.92345864 C42.7740363,4.28717976 41.671012,5.39415397 40.3072909,5.39662269 L2.57981277,5.46426563 C2.57833153,5.46426563 2.5768503,5.46426563 2.57536907,5.46426563 Z"></path>
                        </g>
                        <g transform="translate(111.586160, 12.343602)" id="Path">
                            <path d="M2.59660007,5.01446478 C1.23534766,5.01446478 0.130348435,3.91242801 0.127875578,2.55018812 C0.125410994,1.186467 1.22843525,0.0794927953 2.59215637,0.077024075 L40.3196345,0.00938113733 C40.3211157,0.00938113733 40.322597,0.00938113733 40.3240782,0.00938113733 C41.6853306,0.00938113733 42.7903298,1.1114179 42.7928027,2.47365779 C42.7952673,3.83737891 41.692243,4.94435312 40.3285219,4.94682184 L2.60104376,5.01446478 C2.59956253,5.01446478 2.5980813,5.01446478 2.59660007,5.01446478 Z"></path>
                        </g>
                        <g transform="translate(167.379240, 0.000000)" id="Path">
                            <path d="M2.57536907,5.46426563 C1.21411667,5.46426563 0.10911744,4.36222886 0.106644583,2.99998897 C0.104179999,1.63626785 1.20720425,0.529293643 2.57092537,0.526824923 L40.2984035,0.459181985 C40.2998848,0.459181985 40.301366,0.459181985 40.3028472,0.459181985 C41.6640996,0.459181985 42.7690988,1.56121875 42.7715717,2.92345864 C42.7740363,4.28717976 41.671012,5.39415397 40.3072909,5.39662269 L2.57981277,5.46426563 C2.57833153,5.46426563 2.5768503,5.46426563 2.57536907,5.46426563 Z"></path>
                        </g>
                        <g transform="translate(167.379240, 12.343602)" id="Path">
                            <path d="M2.59660007,5.01446478 C1.23534766,5.01446478 0.130348435,3.91242801 0.127875578,2.55018812 C0.125410994,1.186467 1.22843525,0.0794927953 2.59215637,0.077024075 L40.3196345,0.00938113733 C40.3211157,0.00938113733 40.322597,0.00938113733 40.3240782,0.00938113733 C41.6853306,0.00938113733 42.7903298,1.1114179 42.7928027,2.47365779 C42.7952673,3.83737891 41.692243,4.94435312 40.3285219,4.94682184 L2.60104376,5.01446478 C2.59956253,5.01446478 2.5980813,5.01446478 2.59660007,5.01446478 Z"></path>
                        </g>
                    </g>
                    <g id="Group" opacity="0.3" transform="translate(16.293554, 85.911468)" fill="#384169">
                        <g id="Path">
                            <path d="M2.57536907,5.46426563 C1.21411667,5.46426563 0.10911744,4.36222886 0.106644583,2.99998897 C0.104179999,1.63626785 1.20720425,0.529293643 2.57092537,0.526824923 L40.2984035,0.459181985 C40.2998848,0.459181985 40.301366,0.459181985 40.3028472,0.459181985 C41.6640996,0.459181985 42.7690988,1.56121875 42.7715717,2.92345864 C42.7740363,4.28717976 41.671012,5.39415397 40.3072909,5.39662269 L2.57981277,5.46426563 C2.57833153,5.46426563 2.5768503,5.46426563 2.57536907,5.46426563 Z"></path>
                        </g>
                        <g transform="translate(0.000000, 12.343602)" id="Path">
                            <path d="M2.59660007,5.01446478 C1.23534766,5.01446478 0.130348435,3.91242801 0.127875578,2.55018812 C0.125410994,1.186467 1.22843525,0.0794927953 2.59215637,0.077024075 L40.3196345,0.00938113733 C40.3211157,0.00938113733 40.322597,0.00938113733 40.3240782,0.00938113733 C41.6853306,0.00938113733 42.7903298,1.1114179 42.7928027,2.47365779 C42.7952673,3.83737891 41.692243,4.94435312 40.3285219,4.94682184 L2.60104376,5.01446478 C2.59956253,5.01446478 2.5980813,5.01446478 2.59660007,5.01446478 Z"></path>
                        </g>
                        <g transform="translate(55.793080, 0.000000)" id="Path">
                            <path d="M2.57536907,5.46426563 C1.21411667,5.46426563 0.10911744,4.36222886 0.106644583,2.99998897 C0.104179999,1.63626785 1.20720425,0.529293643 2.57092537,0.526824923 L40.2984035,0.459181985 C40.2998848,0.459181985 40.301366,0.459181985 40.3028472,0.459181985 C41.6640996,0.459181985 42.7690988,1.56121875 42.7715717,2.92345864 C42.7740363,4.28717976 41.671012,5.39415397 40.3072909,5.39662269 L2.57981277,5.46426563 C2.57833153,5.46426563 2.5768503,5.46426563 2.57536907,5.46426563 Z"></path>
                        </g>
                        <g transform="translate(55.793080, 12.343602)" id="Path">
                            <path d="M2.59660007,5.01446478 C1.23534766,5.01446478 0.130348435,3.91242801 0.127875578,2.55018812 C0.125410994,1.186467 1.22843525,0.0794927953 2.59215637,0.077024075 L40.3196345,0.00938113733 C40.3211157,0.00938113733 40.322597,0.00938113733 40.3240782,0.00938113733 C41.6853306,0.00938113733 42.7903298,1.1114179 42.7928027,2.47365779 C42.7952673,3.83737891 41.692243,4.94435312 40.3285219,4.94682184 L2.60104376,5.01446478 C2.59956253,5.01446478 2.5980813,5.01446478 2.59660007,5.01446478 Z"></path>
                        </g>
                        <g transform="translate(167.379240, 0.000000)" id="Path">
                            <path d="M2.57536907,5.46426563 C1.21411667,5.46426563 0.10911744,4.36222886 0.106644583,2.99998897 C0.104179999,1.63626785 1.20720425,0.529293643 2.57092537,0.526824923 L40.2984035,0.459181985 C40.2998848,0.459181985 40.301366,0.459181985 40.3028472,0.459181985 C41.6640996,0.459181985 42.7690988,1.56121875 42.7715717,2.92345864 C42.7740363,4.28717976 41.671012,5.39415397 40.3072909,5.39662269 L2.57981277,5.46426563 C2.57833153,5.46426563 2.5768503,5.46426563 2.57536907,5.46426563 Z"></path>
                        </g>
                        <g transform="translate(167.379240, 12.343602)" id="Path">
                            <path d="M2.59660007,5.01446478 C1.23534766,5.01446478 0.130348435,3.91242801 0.127875578,2.55018812 C0.125410994,1.186467 1.22843525,0.0794927953 2.59215637,0.077024075 L40.3196345,0.00938113733 C40.3211157,0.00938113733 40.322597,0.00938113733 40.3240782,0.00938113733 C41.6853306,0.00938113733 42.7903298,1.1114179 42.7928027,2.47365779 C42.7952673,3.83737891 41.692243,4.94435312 40.3285219,4.94682184 L2.60104376,5.01446478 C2.59956253,5.01446478 2.5980813,5.01446478 2.59660007,5.01446478 Z"></path>
                        </g>
                        <g transform="translate(111.586160, 0.000000)" id="Path">
                            <path d="M2.57536907,5.46426563 C1.21411667,5.46426563 0.10911744,4.36222886 0.106644583,2.99998897 C0.104179999,1.63626785 1.20720425,0.529293643 2.57092537,0.526824923 L40.2984035,0.459181985 C40.2998848,0.459181985 40.301366,0.459181985 40.3028472,0.459181985 C41.6640996,0.459181985 42.7690988,1.56121875 42.7715717,2.92345864 C42.7740363,4.28717976 41.671012,5.39415397 40.3072909,5.39662269 L2.57981277,5.46426563 C2.57833153,5.46426563 2.5768503,5.46426563 2.57536907,5.46426563 Z"></path>
                        </g>
                        <g transform="translate(111.586160, 12.343602)" id="Path">
                            <path d="M2.59660007,5.01446478 C1.23534766,5.01446478 0.130348435,3.91242801 0.127875578,2.55018812 C0.125410994,1.186467 1.22843525,0.0794927953 2.59215637,0.077024075 L40.3196345,0.00938113733 C40.3211157,0.00938113733 40.322597,0.00938113733 40.3240782,0.00938113733 C41.6853306,0.00938113733 42.7903298,1.1114179 42.7928027,2.47365779 C42.7952673,3.83737891 41.692243,4.94435312 40.3285219,4.94682184 L2.60104376,5.01446478 C2.59956253,5.01446478 2.5980813,5.01446478 2.59660007,5.01446478 Z"></path>
                        </g>
                    </g>
                    <path d="M28.9264901,41.2468859 C28.0436757,42.7755175 26.0899304,43.29938 24.560805,42.4165656 C23.0326671,41.5342449 22.5088047,39.5800059 23.3911253,38.0508805 C24.273446,36.5227426 26.2281788,35.9988802 27.7563167,36.8812008 C29.285442,37.7640152 29.8088108,39.7182542 28.9264901,41.2468859 Z" id="Path" fill="#384169"></path>
                    <path d="M211.118052,41.2468859 C210.235238,42.7755175 208.281492,43.29938 206.752367,42.4165656 C205.224229,41.5342449 204.700367,39.5800059 205.582687,38.0508805 C206.465008,36.5227426 208.419741,35.9988802 209.947879,36.8812008 C211.477004,37.7640152 212.000373,39.7182542 211.118052,41.2468859 Z" id="Path" fill="#384169"></path>
                    <path d="M34.3137316,30.3657541 C33.2245322,30.3657541 32.227663,29.6399503 31.9314165,28.5384073 C31.5769083,27.2215918 32.3570239,25.8672518 33.6738393,25.5127436 L120.819668,2.05990026 C121.238856,1.94732661 121.680757,1.94683287 122.099946,2.05891277 L208.75203,25.2629091 C210.068846,25.6159361 210.850443,26.9692886 210.497909,28.286104 C210.145376,29.6029195 208.793505,30.3874788 207.474715,30.0324768 L121.462523,6.99980968 L34.9565864,30.2803363 C34.7418078,30.3381044 34.5260416,30.3657541 34.3137316,30.3657541 Z" id="Path" fill="#384169"></path>
                    <g id="Group" transform="translate(109.611184, 0.000000)">
                        <circle id="Oval" fill="#F8CAA5" cx="11.3561136" cy="11.3561136" r="8.88739326"></circle>
                        <g opacity="0.7" transform="translate(4.443697, 5.431185)" fill="#FFFFFF" id="Path">
                            <g>
                                <path d="M2.82125362,7.77103792 C0.785546816,6.92772305 -0.181204074,4.59527606 0.662110798,2.55858177 C1.50493193,0.523368714 3.8383664,-0.443382175 5.8740732,0.399932697 C7.90928626,1.24275382 8.87603715,3.57668204 8.03321602,5.6118951 C7.18990115,7.64858939 4.85646667,8.61435279 2.82125362,7.77103792 Z"></path>
                            </g>
                        </g>
                        <path d="M11.3561136,22.7122272 C5.09445132,22.7122272 0,17.6182697 0,11.3561136 C0,5.09395757 5.09445132,0 11.3561136,0 C17.6177759,0 22.7122272,5.09395757 22.7122272,11.3561136 C22.7122272,17.6182697 17.6177759,22.7122272 11.3561136,22.7122272 Z M11.3561136,4.9374407 C7.81695612,4.9374407 4.9374407,7.81695612 4.9374407,11.3561136 C4.9374407,14.8952711 7.81695612,17.7747865 11.3561136,17.7747865 C14.8952711,17.7747865 17.7747865,14.8952711 17.7747865,11.3561136 C17.7747865,7.81695612 14.8952711,4.9374407 11.3561136,4.9374407 Z" id="Shape" fill="#384169"></path>
                    </g>
                </g>
            </g>
        </g>
    </g>
</svg>