<?xml version="1.0" encoding="UTF-8"?>
<svg width="227px" height="220px" viewBox="0 0 227 220" version="1.1" xmlns="http://www.w3.org/2000/svg" xmlns:xlink="http://www.w3.org/1999/xlink">
    <title>875DC121-5F7F-44EF-9FD5-6D70A1A62783</title>
    <g id="Style-guide" stroke="none" stroke-width="1" fill="none" fill-rule="evenodd">
        <g id="Styleguide" transform="translate(-979.000000, -12749.000000)" fill-rule="nonzero">
            <g id="7004854_pollution_chimney_factory_industry_icon" transform="translate(979.000000, 12749.000000)">
                <g id="Colors">
                    <circle id="Oval" fill="#CDE7F9" cx="111.237589" cy="108.535461" r="108.085106"></circle>
                    <path d="M154.885957,201.376064 C154.885957,201.376064 136.367376,178.502553 129.521986,117.641631 L130.571312,117.524539 L191.220567,117.524539 C194.125355,178.984433 212.252128,201.376064 212.252128,201.376064 L212.252128,201.758865 L154.885957,201.758865 L154.885957,201.376064 Z" id="Path" fill="#DAE1EA"></path>
                    <path d="M191.220567,117.542553 L130.571312,117.542553 L129.521986,117.659645 C128.921513,112.276407 128.417116,106.592931 128.008794,100.60922 L128.202447,100.60922 L190.833262,100.60922 C190.833262,106.531383 190.972872,112.174326 191.220567,117.542553 Z" id="Path" fill="#E95A6B"></path>
                    <path d="M10.8310284,201.758865 L10.6553901,201.758865 L10.6553901,201.376064 C10.6553901,201.376064 35.1276596,171.134752 38.2080851,87.6705319 L38.7259929,87.6930496 L126.815355,87.6930496 L127.333262,87.6705319 C127.501395,92.1290426 127.726572,96.4359338 128.008794,100.591206 C128.405106,106.57792 128.909504,112.261395 129.521986,117.641631 C136.367376,178.502553 154.885957,201.376064 154.885957,201.376064 L154.885957,201.758865 L10.8310284,201.758865 Z" id="Path" fill="#DAE1EA"></path>
                    <path d="M170.062908,67.3190071 C177.624362,73.6239716 171.74273,83.7029078 171.74273,83.7029078 C186.446809,86.6437234 182.245,100.577695 182.245,100.577695 L128.202447,100.577695 L128.008794,100.577695 C127.726572,96.4194208 127.501395,92.1125296 127.333262,87.6570213 C127.135106,82.0936407 127.031525,76.2900709 127.022518,70.2463121 L120.695035,70.2463121 C120.695035,70.2463121 125.52734,55.9610638 111.665426,50.0794326 C111.665426,50.0794326 120.906702,49.6606028 121.325532,40.4148227 C121.325532,40.4148227 127.207163,50.9170922 148.216206,50.0794326 C169.225248,49.241773 171.74273,32.434539 171.74273,32.434539 C171.74273,32.434539 185.185816,36.6363475 191.067447,29.9125532 C191.067447,29.9125532 194.008262,43.3556383 212.076489,40.4148227 L212.076489,67.3054965 C188.549965,71.0839716 186.856631,53.8579078 186.856631,53.8579078 C185.185816,67.3190071 170.062908,67.3190071 170.062908,67.3190071 Z" id="Path" fill="#F0F3F7"></path>
                    <path d="M127.333262,87.6705319 L126.815355,87.6930496 L38.7304965,87.6930496 L38.2125887,87.6705319 C38.4167494,82.1071513 38.520331,76.3035816 38.5233333,70.2598227 L127.022518,70.2598227 C127.022518,76.3035816 127.126099,82.1071513 127.333262,87.6705319 Z" id="Path" fill="#E95A6B"></path>
                    <polygon id="Path" fill="#767C93" points="219.511844 201.758865 219.543369 216.620567 3.41368794 216.620567 3.41368794 201.758865 3.60283688 201.758865 158.020426 201.758865 219.322695 201.758865"></polygon>
                    <path d="M38.5593617,42.108156 C38.5593617,42.108156 30.8718085,43.3871631 25.0712411,39.8023404 C22.4925289,38.2177352 20.5732647,35.7546794 19.6669858,32.8668794 C15.4561702,20.2659574 24.278617,13.9609929 24.278617,13.9609929 L212.076489,13.9609929 L212.076489,40.4283333 C194.008262,43.3691489 191.067447,29.9260638 191.067447,29.9260638 C185.185816,36.6498582 171.74273,32.4480496 171.74273,32.4480496 C171.74273,32.4480496 169.220745,49.2507801 148.216206,50.0929433 C127.211667,50.9351064 121.325532,40.4283333 121.325532,40.4283333 C120.906702,49.6741135 111.687943,50.0929433 111.687943,50.0929433 C125.52734,55.9745745 120.695035,70.2553191 120.695035,70.2553191 L45.283156,70.2553191 C40.6625177,59.7485461 47.8051418,54.709078 47.8051418,54.709078 C35.1997163,53.8714184 38.5593617,42.108156 38.5593617,42.108156 Z" id="Path" fill="#F0F3F7"></path>
                    <path d="M10.4121986,13.9609929 L24.278617,13.9609929 C24.278617,13.9609929 15.4561702,20.2659574 19.6534752,32.8758865 C20.5597541,35.7636865 22.4790183,38.2267423 25.0577305,39.8113475 C16.6135816,47.1701418 10.3986879,40.4373404 10.3986879,40.4373404 L10.4121986,13.9609929 Z" id="Path" fill="#F0F3F7"></path>
                    <g id="Group" opacity="0.2" transform="translate(101.329787, 69.804965)" fill="#3F456B">
                        <path d="M25.4585461,0.45035461 C25.4585461,0.45035461 23.3598936,90.3591489 53.5921986,131.953901 L13.9609929,131.953901 C13.9609929,131.953901 0.243191489,84.0586879 0.243191489,0.0315248227 L25.4585461,0.45035461 Z" id="Path"></path>
                    </g>
                    <g id="Group" opacity="0.2" transform="translate(168.882979, 99.528369)" fill="#3F456B">
                        <path d="M22.6078014,0.45035461 C22.6078014,0.45035461 18.4059929,62.7253901 43.1935106,102.230496 L11.2588652,102.230496 C11.2588652,102.230496 0.333262411,65.1663121 0.333262411,0.139609929 L22.6078014,0.45035461 Z" id="Path"></path>
                    </g>
                    <g id="Group" opacity="0.3" transform="translate(43.234043, 70.255319)" fill="#FFFFFF">
                        <path d="M0.36929078,131.503546 C18.4330142,89.0711348 17.1720213,0 17.1720213,0 L39.5366312,0 C39.5366312,0 39.0187234,98.7267376 33.9792553,131.503546 L0.36929078,131.503546 Z" id="Path"></path>
                    </g>
                    <g id="Group" opacity="0.3" transform="translate(135.106383, 100.429078)" fill="#FFFFFF">
                        <path d="M2.8237234,0.0765602837 C2.91268394,17.8849663 2.05580346,35.6855308 0.256702128,53.4030496 C3.96762411,68.1296454 9.15570922,82.4869504 16.5054965,95.5562411 C19.6985106,66.1660993 20.0407801,0.0810638298 20.0407801,0.0810638298 L2.8237234,0.0765602837 Z" id="Path"></path>
                    </g>
                    <g id="Group" opacity="0.3" transform="translate(38.280142, 70.255319)" fill="#FFFFFF">
                        <rect id="Rectangle" x="0.279219858" y="0.0045035461" width="88.6478014" height="7.14262411"></rect>
                    </g>
                    <g id="Group" opacity="0.3" transform="translate(127.900709, 100.429078)" fill="#FFFFFF">
                        <rect id="Rectangle" x="0.148617021" y="0.0765602837" width="63.4414539" height="7.14262411"></rect>
                    </g>
                    <g id="Group" opacity="0.2" transform="translate(3.602837, 201.758865)" fill="#FFFFFF">
                        <rect id="Rectangle" x="0" y="0" width="215.719858" height="7.65602837"></rect>
                    </g>
                    <g id="Group" opacity="0.2" transform="translate(10.808511, 194.553191)" fill="#3F456B">
                        <polygon id="Path" points="201.267979 7.20567376 0.0225177305 7.20567376 4.22432624 0.0630496454 197.485 0.0630496454"></polygon>
                    </g>
                    <g id="Group" opacity="0.2" transform="translate(127.900709, 100.429078)" fill="#3F456B">
                        <path d="M0.301737589,0.148617021 C0.301737589,0.148617021 3.00386525,62.2570213 26.9852482,101.329787 L35.2312411,101.329787 C35.2312411,101.329787 8.55673759,59.4468085 8.12890071,0.148617021 L0.301737589,0.148617021 Z" id="Path"></path>
                    </g>
                    <path d="M3.60283688,0.45035461 C3.60283688,0.45035461 3.15248227,21.6170213 3.60283688,36.4787234 C3.71092199,39.9869858 15.7624113,46.3865248 25.0712411,39.8023404 C30.8718085,43.4051773 38.5818794,42.108156 38.5818794,42.108156 C38.5818794,42.108156 35.222234,53.8714184 47.8276596,54.7180851 C47.8276596,54.7180851 40.6850355,59.7575532 45.3056738,70.2643262 L127.045035,70.2643262 C127.045035,76.3080851 127.148617,82.1116548 127.35578,87.6750355 C127.523913,92.1335461 127.74909,96.4404374 128.031312,100.595709 L128.224965,100.595709 L182.267518,100.595709 C182.267518,100.595709 186.469326,86.6617376 171.765248,83.720922 C171.765248,83.720922 177.646879,73.6374823 170.085426,67.3370213 C170.085426,67.3370213 185.208333,67.3370213 186.888156,53.8894326 C186.888156,53.8894326 193.224645,77.0286525 219.795567,64.4187234 L219.795567,0.45035461 L3.60283688,0.45035461 Z" id="Path" fill="#F0F3F7"></path>
                    <g id="Group" opacity="0.15" transform="translate(96.826241, 22.067376)" fill="#3F456B">
                        <path d="M122.946809,1.80141844 C122.946809,1.80141844 111.687943,9.90780142 97.1820213,0.297234043 C97.1820213,0.297234043 84.5720922,7.01652482 73.2366667,1.13489362 C73.2366667,1.13489362 68.192695,18.7797872 45.5083333,17.9421277 C45.5083333,17.9421277 33.7450709,17.9421277 24.080461,10.7995035 C24.080461,10.7995035 21.1396454,20.0407801 8.11539007,18.7797872 C8.11539007,18.7797872 9.37638298,26.7645745 0.135106383,28.4443972 C0.135106383,28.4443972 9.79521277,35.5870213 3.91358156,49.0301064 L30.380922,49.0301064 C30.380922,49.0301064 35.4248936,42.3108156 31.6419149,36.0058511 C31.6419149,36.0058511 69.4717021,44.4094681 79.1182979,21.301773 C79.1182979,21.301773 87.5219149,22.9815957 91.728227,17.9421277 C91.728227,17.9421277 101.334291,30.6241135 122.951312,23.8687943 L122.946809,1.80141844 Z" id="Path"></path>
                    </g>
                    <g id="Group" opacity="0.3" transform="translate(108.985816, 68.003546)" fill="#3F456B">
                        <path d="M26.381773,136.007096 C25.559171,136.008596 24.8012098,135.561416 24.4047163,134.840674 C13.7042908,115.407872 6.41304965,87.1661348 2.74265957,50.9035816 C1.10192182,34.7244433 0.336704453,18.4684601 0.45035461,2.20673759 C0.477294187,0.9825061 1.47759984,0.00450347878 2.70212766,0.00450347878 L2.74716312,0.00450347878 C3.34440946,0.0163289764 3.91248213,0.264986645 4.32635108,0.695748209 C4.74022004,1.12650977 4.96596504,1.70407049 4.95390071,2.30131206 C4.95390071,3.14797872 3.50826241,87.5219149 28.3723404,132.669965 C28.7556792,133.366787 28.7430081,134.214143 28.3390051,134.899191 C27.9350022,135.58424 27.1995937,136.005366 26.4042908,136.007096 L26.381773,136.007096 Z" id="Path"></path>
                    </g>
                    <g id="Group" opacity="0.3" transform="translate(176.539007, 98.177305)" fill="#3F456B">
                        <path d="M19.9912411,105.554113 C19.0963073,105.553652 18.2865905,105.02327 17.928617,104.20305 C6.75531915,78.6003901 2.63907801,52.2411348 1.17092199,34.677305 C-0.418829787,15.6137943 0.616985816,2.77868794 0.662021277,2.25177305 C0.766485349,1.00815313 1.85932335,0.0846848633 3.10294326,0.189148936 C4.34656318,0.293613009 5.27003145,1.38645101 5.16556738,2.63007092 C5.12503546,3.14347518 1.13489362,54.5289362 22.0718794,102.428652 C22.5686926,103.56782 22.0486629,104.894098 20.9099645,105.391986 C20.618181,105.508807 20.305386,105.564006 19.9912411,105.554113 L19.9912411,105.554113 Z" id="Path"></path>
                    </g>
                    <g id="Group" opacity="0.15" transform="translate(154.921986, 46.386525)" fill="#3F456B">
                        <path d="M64.8510638,18.0141844 C64.8510638,18.0141844 37.8297872,31.0744681 31.9436525,7.48489362 C31.9436525,7.48489362 32.0832624,19.3562411 16.6811348,20.9955319 C16.6811348,20.9955319 22.2835461,30.6060993 16.8207447,37.3298936 C16.8207447,37.3298936 31.9436525,39.8518794 27.3230142,54.1326241 L10.9391135,54.1326241 C10.9391135,54.1326241 15.140922,41.1128723 5.47631206,37.7487234 C5.47631206,37.7487234 12.6189362,23.8868085 0.0135106383,15.9020213 C0.0135106383,15.9020213 24.3821986,19.685 30.2638298,0.360283688 C30.2638298,0.360283688 44.1347518,18.9284043 64.8510638,9.47095745 L64.8510638,18.0141844 Z" id="Path"></path>
                    </g>
                    <g id="Group" opacity="0.5" transform="translate(18.014184, 13.960993)" fill="#FFFFFF">
                        <ellipse id="Oval" cx="10.8850709" cy="9.45294326" rx="10.5022695" ry="9.03411348"></ellipse>
                    </g>
                    <g id="Group" opacity="0.5" transform="translate(49.989362, 17.563830)" fill="#FFFFFF">
                        <path d="M34.9024823,15.091383 C34.9024823,6.85439716 27.1383688,0.180141844 17.5593262,0.180141844 C7.98028369,0.180141844 0.220673759,6.85439716 0.220673759,15.091383 C0.220673759,20.7613475 3.89556738,25.6927305 9.31333333,28.2147163 C8.40039527,29.5398244 7.90763228,31.1091333 7.89921986,32.7182624 C7.89921986,37.7081915 12.600922,41.7523759 18.4014894,41.7523759 C24.2020567,41.7523759 28.9037589,37.6991844 28.9037589,32.7182624 C28.8887929,30.8420872 28.2234823,29.0291952 27.0212766,27.5887234 C31.7680142,24.9271277 34.9024823,20.3245035 34.9024823,15.091383 Z" id="Path"></path>
                    </g>
                    <g id="Group" opacity="0.5" transform="translate(96.826241, 0.000000)" fill="#FFFFFF">
                        <ellipse id="Oval" cx="10.6373759" cy="9.45294326" rx="10.5022695" ry="9.03411348"></ellipse>
                    </g>
                    <g id="Group" opacity="0.3" transform="translate(48.187943, 9.007092)" fill="#3F456B">
                        <path d="M11.7092199,10.6553901 L11.6416667,10.6553901 C5.06198582,10.6283688 1.22496454,6.82737589 0.342269504,3.07141844 C0.0574805429,1.86013264 0.808554628,0.647324422 2.01984043,0.362535461 C3.23112622,0.0777465004 4.44393444,0.828820585 4.7287234,2.04010638 C5.38624113,4.85031915 8.78191489,6.14283688 11.6596809,6.15184397 L11.7092199,6.15184397 C14.307766,6.15184397 17.5638298,5.14304965 18.266383,2.28329787 C18.5611209,1.07449931 19.779978,0.333506761 20.9887766,0.628244681 C22.1975752,0.922982601 22.9385677,2.14183974 22.6438298,3.3506383 C21.5584752,7.79113475 17.2756028,10.6553901 11.7092199,10.6553901 Z" id="Path"></path>
                    </g>
                    <g id="Group" opacity="0.3" transform="translate(83.315603, 42.333333)" fill="#3F456B">
                        <path d="M11.7092199,10.6553901 L11.6416667,10.6553901 C5.06198582,10.6283688 1.22496454,6.82737589 0.342269504,3.07141844 C0.158043348,2.28785392 0.405838056,1.46552696 0.992311759,0.91420017 C1.57878546,0.36287338 2.41483885,0.166306412 3.18553871,0.398544142 C3.95623857,0.630781872 4.54449725,1.25654186 4.7287234,2.04010638 C5.38624113,4.85031915 8.78191489,6.14283688 11.6596809,6.15184397 L11.7092199,6.15184397 C14.307766,6.15184397 17.5638298,5.14304965 18.266383,2.28329787 C18.5611209,1.07449931 19.779978,0.333506761 20.9887766,0.628244681 C22.1975752,0.922982601 22.9385677,2.14183974 22.6438298,3.3506383 C21.5584752,7.79113475 17.2756028,10.6553901 11.7092199,10.6553901 Z" id="Path"></path>
                    </g>
                    <g id="Group" opacity="0.3" transform="translate(179.691489, 9.007092)" fill="#3F456B">
                        <path d="M11.7092199,10.6553901 L11.6416667,10.6553901 C5.06198582,10.6283688 1.22496454,6.82737589 0.342269504,3.07141844 C0.0574806217,1.86013267 0.808554704,0.647324533 2.01984045,0.362535583 C3.2311262,0.0777466339 4.44393439,0.828820649 4.7287234,2.04010638 C5.38624113,4.85031915 8.78191489,6.14283688 11.6596809,6.15184397 L11.7092199,6.15184397 C14.307766,6.15184397 17.5638298,5.14304965 18.266383,2.28329787 C18.457045,1.50134231 19.0503923,0.880502549 19.8229166,0.654642909 C20.595441,0.428783268 21.4297777,0.632217204 22.01164,1.18831312 C22.5935024,1.74440904 22.8344918,2.56868274 22.6438298,3.3506383 C21.5584752,7.79113475 17.2756028,10.6553901 11.7092199,10.6553901 Z" id="Path"></path>
                    </g>
                    <g id="Group" opacity="0.5" transform="translate(0.000000, 77.911348)" fill="#3F456B">
                        <path d="M15.4651773,15.4561702 C14.530096,15.4550054 13.6930396,14.8760563 13.3620213,14.0015248 C10.7679787,7.12911348 2.8822695,7.85868794 2.55351064,7.89021277 C1.33016773,8.00172932 0.243183323,7.11219337 0.110494581,5.8909655 C-0.0221941608,4.66973763 0.848381227,3.56750907 2.06712766,3.41368794 C5.11602837,3.07592199 10.6869149,3.74244681 14.5419504,7.62450355 C16.1181915,4.445 19.3157092,1.31953901 25.2243617,0.445851064 C26.4341223,0.304459079 27.537031,1.15064173 27.7137157,2.35575369 C27.8904005,3.56086566 27.0768099,4.68803153 25.8773759,4.89985816 C17.6223759,6.11131206 17.7169504,12.8576241 17.7214539,13.1413475 C17.7433765,14.2284152 16.9854016,15.1758839 15.9200355,15.3931206 C15.7707897,15.4286796 15.6184682,15.4497934 15.4651773,15.4561702 L15.4651773,15.4561702 Z" id="Path"></path>
                    </g>
                    <g id="Group" opacity="0.5" transform="translate(199.957447, 124.748227)" fill="#3F456B">
                        <path d="M10.4437234,17.8250355 C10.2161456,17.8240096 9.98998924,17.7890995 9.77269504,17.7214539 C8.72206857,17.3928737 8.0630109,16.3528579 8.21446809,15.2625177 C9.22326241,7.92173759 1.71585106,4.76475177 1.63929078,4.73322695 C0.537906065,4.23268341 0.0288620624,2.95131362 0.486504026,1.83142257 C0.94414599,0.711531524 2.2049042,0.153389022 3.34163121,0.567446809 C6.18336879,1.72485816 10.7544681,4.97191489 12.2901773,10.2230496 C15.1949645,8.18294326 19.4958511,6.95797872 25.102766,9.01609929 C26.270525,9.44514822 26.8693679,10.7396168 26.440319,11.9073758 C26.0112702,13.0751349 24.7168016,13.6739779 23.5490426,13.2449291 C15.7218794,10.3671631 12.5829078,16.3343617 12.452305,16.5910638 C12.0687608,17.3479849 11.2922726,17.8250355 10.4437234,17.8250355 L10.4437234,17.8250355 Z" id="Path"></path>
                    </g>
                </g>
                <g id="Lines" transform="translate(0.900709, 2.702128)" fill="#3F456B">
                    <path d="M9.75468085,200.925709 C8.88574652,200.926931 8.09364906,200.428079 7.71935515,199.64389 C7.34506125,198.859701 7.45537139,197.930129 8.00280142,197.255319 C8.11989362,197.111206 14.9382624,188.437376 21.6710638,168.297518 C32.9884752,134.448865 35.3663475,94.8311702 35.3663475,67.5531915 C35.3663475,66.3095716 36.3745007,65.3014184 37.6181206,65.3014184 L126.121809,65.3014184 C127.365428,65.3014184 128.373582,66.3095716 128.373582,67.5531915 C128.373582,94.8266667 130.751454,134.444362 142.068865,168.297518 C148.824184,188.513936 155.669574,197.174255 155.737128,197.259823 C156.243146,197.888122 156.375533,198.738653 156.084419,199.491028 C155.793304,200.243402 155.122917,200.783318 154.325784,200.907393 C153.528651,201.031468 152.725877,200.720853 152.219858,200.092553 C151.922624,199.727766 144.915106,190.93234 137.903085,170.098936 C126.599184,136.525 123.991631,97.4477305 123.856525,69.8094681 L39.8653901,69.8094681 C39.7302837,97.4477305 37.1227305,136.525 25.8188298,170.098936 C18.8068085,190.950355 11.7992908,199.727766 11.5020567,200.092553 C11.0747871,200.619245 10.4328867,200.925305 9.75468085,200.925709 L9.75468085,200.925709 Z" id="Path"></path>
                    <path d="M218.64266,216.170229 L2.51297872,216.170229 C1.26935881,216.170229 0.261205674,215.16206 0.261205674,213.91844 L0.261205674,199.09727 C0.261205674,197.85365 1.26935881,196.845496 2.51297872,196.845496 C3.75659864,196.845496 4.76475177,197.85365 4.76475177,199.09727 L4.76475177,211.666667 L216.386383,211.666667 L216.359362,199.101773 C216.359362,197.858153 217.367515,196.85 218.611135,196.85 L218.611135,196.85 C219.854755,196.85 220.862908,197.858153 220.862908,199.101773 L220.894436,213.922943 C220.894436,214.520559 220.65896,215.094087 220.236915,215.517199 C219.813067,215.937593 219.23963,216.172476 218.64266,216.170229 L218.64266,216.170229 Z" id="Path"></path>
                    <path d="M211.346915,200.925709 C210.668709,200.925709 210.026809,200.619245 209.599539,200.092553 C209.369858,199.80883 203.929574,192.97695 198.507305,176.87227 C189.865,151.202057 187.815887,121.384078 187.698794,100.12734 L127.301738,100.12734 C126.058118,100.12734 125.049965,99.1191873 125.049965,97.8755674 C125.049965,96.6319475 126.058118,95.6237943 127.301738,95.6237943 L189.932553,95.6237943 C191.176173,95.6237943 192.184326,96.6319475 192.184326,97.8755674 C192.184326,118.776525 193.985745,149.134929 202.655071,175.075355 C207.820638,190.56305 213.053759,197.196773 213.103298,197.264326 C213.64563,197.939922 213.752279,198.866741 213.377572,199.647861 C213.002865,200.428981 212.21326,200.925709 211.346915,200.925709 L211.346915,200.925709 Z" id="Path"></path>
                    <path d="M125.914645,87.0670567 L37.8297872,87.0670567 C36.5861673,87.0670567 35.5780142,86.0589036 35.5780142,84.8152837 C35.5780142,83.5716638 36.5861673,82.5635106 37.8297872,82.5635106 L125.919149,82.5635106 C127.162769,82.5635106 128.170922,83.5716638 128.170922,84.8152837 C128.170922,86.0589036 127.162769,87.0670567 125.919149,87.0670567 L125.914645,87.0670567 Z" id="Path"></path>
                    <path d="M190.166738,117.281348 L129.251773,117.281348 C128.008153,117.281348 127,116.273194 127,115.029574 C127,113.785955 128.008153,112.777801 129.251773,112.777801 L190.166738,112.777801 C191.410358,112.777801 192.418511,113.785955 192.418511,115.029574 C192.418511,116.273194 191.410358,117.281348 190.166738,117.281348 Z" id="Path"></path>
                    <path d="M119.794326,69.8049898 C119.069802,69.8049898 118.389569,69.4562151 117.966508,68.8680361 C117.543448,68.2798571 117.429247,67.5240419 117.659645,66.8371277 C117.83078,66.3237234 121.609255,54.4343617 109.882021,49.4579433 C108.912614,49.0477708 108.356713,48.0207334 108.543395,46.9848082 C108.730078,45.9488831 109.609527,45.1805078 110.661135,45.134539 C111.386206,45.0940071 117.866809,44.5310638 118.177553,37.6181206 C118.223472,36.61315 118.930441,35.7605629 119.909538,35.5293871 C120.888636,35.2982112 121.902293,35.7445397 122.392872,36.6228369 C122.604539,36.9831206 128.05383,45.9001418 147.225426,45.134539 C166.023227,44.3824468 168.518191,30.0071277 168.61727,29.3946454 C168.718498,28.7475705 169.096438,28.1766329 169.652558,27.8306796 C170.208678,27.4847263 170.887865,27.3980424 171.51305,27.593227 C173.79192,28.2422515 176.136423,28.6335056 178.502553,28.7596454 C181.709078,28.912766 186.045993,28.5164539 188.473404,25.7422695 C188.89612,25.2596518 189.504629,24.9802632 190.146168,24.9741441 C190.787707,24.9682236 191.401352,25.2361443 191.83305,25.7107447 C192.283404,26.2196454 203.465709,38.1585461 217.953617,31.7184752 C218.688913,31.3918559 219.542603,31.4823228 220.193112,31.9557978 C220.84362,32.4292729 221.192119,33.213824 221.107332,34.0139184 C221.022544,34.8140128 220.517352,35.508097 219.782057,35.8347163 C212.52234,39.0592553 204.794255,38.8475887 197.439965,35.222234 C194.801378,33.9115307 192.345619,32.2612366 190.135213,30.3133688 C184.70844,34.4341135 176.448936,33.3262411 172.485816,32.4795745 C171.648726,35.0549134 170.386842,37.4721295 168.752376,39.6312057 C165.487305,43.9501064 159.137305,49.192234 147.405567,49.6606028 C133.277943,50.2280496 125.509326,45.8641135 121.658794,42.5089716 C120.609084,44.9294312 118.749188,46.9087562 116.398652,48.1068794 C124.005142,54.074078 123.550284,63.5090071 121.929007,68.3007801 C121.610516,69.2057112 120.753657,69.8094895 119.794326,69.8049898 L119.794326,69.8049898 Z" id="Path"></path>
                    <path d="M44.3824468,69.8049886 C43.487513,69.8049886 42.6777961,69.2741213 42.3198227,68.4539007 C39.617695,62.2525177 40.5724468,57.6453901 41.8694681,54.8802128 C42.0888769,54.4157247 42.3354993,53.9645863 42.6080496,53.5291489 C40.3366595,52.8691631 38.3536496,51.4636057 36.978617,49.5390071 C35.2042199,47.0215248 34.9204965,44.0762057 35.0285816,41.8829787 C28.7641489,42.058617 19.6534752,39.9644681 16.6180851,30.8537943 C14.1951773,23.5850709 15.7624113,18.167305 17.5187943,14.902234 C18.6244516,12.7715478 20.1757781,10.9038122 22.0673759,9.42592199 C23.0771685,8.74248243 24.4474999,8.98696789 25.1586433,9.97744546 C25.8697866,10.967923 25.663346,12.3444998 24.6929433,13.0828014 C24.3731915,13.3214894 17.3026241,18.6807092 20.8919504,29.4531915 C22.2430142,33.4613475 25.2919149,35.9833333 29.9981206,36.9515957 C32.4031432,37.421431 34.8681783,37.5005068 37.2983688,37.1857801 C38.0592384,37.0620188 38.8305405,37.3360767 39.3427349,37.9121812 C39.8549292,38.4882858 40.0368256,39.2863637 39.8248582,40.0275177 C39.8248582,40.0590426 38.7034752,44.1978014 40.6760284,46.9719858 C41.8424468,48.6202837 43.9906383,49.5615248 47.0530496,49.7641844 C48.00608,49.8263109 48.8162512,50.4828786 49.0744756,51.4023603 C49.3327001,52.321842 48.9828001,53.3042006 48.2014539,53.8534043 C47.9897872,54.0065248 42.6620922,58.0597163 46.4450709,66.6479787 C46.6853531,67.1949967 46.69839,67.8150831 46.4813113,68.3717168 C46.2642326,68.9283505 45.8348361,69.3758945 45.2876596,69.6158156 C45.0026259,69.7419606 44.6941432,69.8064197 44.3824468,69.8049886 L44.3824468,69.8049886 Z" id="Path"></path>
                    <path d="M181.344291,100.13186 C181.124365,100.13186 180.90573,100.098252 180.69578,100.032766 C179.508689,99.6748704 178.834266,98.4246712 179.187092,97.2360638 C179.218617,97.1234752 180.668759,91.9714184 178.245851,87.9632624 C176.791206,85.5583688 174.152128,83.9596099 170.400674,83.2075177 C169.687608,83.0649547 169.087279,82.5868161 168.788797,81.923721 C168.490315,81.260626 168.530424,80.4942039 168.896489,79.8658865 C169.094645,79.523617 173.706277,71.3091489 167.721064,66.3552482 C166.993219,65.7482851 166.723314,64.7505616 167.045893,63.8594363 C167.368472,62.968311 168.214485,62.3745397 169.162199,62.3741135 C169.693617,62.3741135 182.317057,62.1759574 183.73117,50.9035816 L183.73117,50.9035816 C183.906176,49.687975 185.022976,48.8368045 186.24148,48.9903458 C187.459984,49.1438871 188.330717,50.2455028 188.198688,51.4665248 L188.198688,51.4665248 C187.973511,53.2679433 190.193759,56.7491844 192.323936,58.7532624 C198.903617,64.9411348 209.887766,63.6846454 217.863546,59.6990071 C218.583661,59.3311379 219.445736,59.3776425 220.122098,59.8208445 C220.79846,60.2640465 221.185243,61.0358853 221.135431,61.8429864 C221.085619,62.6500876 220.606862,63.3685079 219.881135,63.7251773 C210.509255,68.4133688 197.399433,69.7058865 189.257021,62.0363475 C188.025227,60.8498011 186.931434,59.5278831 185.996454,58.0957447 C183.069149,63.0496454 177.944113,65.4275177 173.575674,66.3687589 C176.115674,70.7642199 175.377092,75.8892553 174.026028,79.5056028 C177.682908,80.7260638 180.40305,82.7931915 182.132411,85.6709574 C185.586631,91.4309929 183.596064,98.2358511 183.510496,98.524078 C183.22487,99.4810833 182.343004,100.135607 181.344291,100.13186 L181.344291,100.13186 Z" id="Path"></path>
                    <path d="M167.757092,66.922695 C164.793759,66.922695 158.425745,66.3687589 153.769078,62.0678723 C152.869167,61.2217188 152.81891,59.8085543 153.656441,58.900612 C154.493971,57.9926698 155.906592,57.9289349 156.822482,58.757766 C161.452128,63.0316312 168.869468,62.3831206 168.941525,62.3606028 C170.178927,62.2362409 171.282854,63.138538 171.407216,64.3759397 C171.531578,65.6133415 170.629281,66.7172691 169.391879,66.8416312 C169.292801,66.8641489 168.69383,66.922695 167.757092,66.922695 Z" id="Path"></path>
                    <path d="M37.6586525,41.6578187 C36.4883905,41.6569311 35.5138556,40.7597852 35.416379,39.5935896 C35.3189025,38.427394 36.1309792,37.380914 37.2848582,37.1857801 C37.3839362,37.1857801 43.7249291,36.0238652 45.6974823,31.7409929 C46.218559,30.6117861 47.5563782,30.1187992 48.6855851,30.6398759 C49.8147919,31.1609527 50.3077788,32.4987718 49.7867021,33.6279787 C46.8008511,40.0995745 38.388227,41.5677305 38.0324468,41.6262766 C37.9090182,41.6477565 37.7839352,41.6583057 37.6586525,41.6578187 L37.6586525,41.6578187 Z" id="Path"></path>
                    <path d="M108.24273,16.3658865 C92.1515603,16.3658865 90.070922,4.05319149 90.070922,3.94060284 C89.8781609,2.71190636 90.7179525,1.55958733 91.9466489,1.36682624 C93.1753454,1.17406515 94.3276644,2.01385672 94.5204255,3.24255319 C94.5879787,3.6343617 96.2452837,12.1956028 109.039858,11.8533333 C122.158688,11.4885461 123.671879,3.29659574 123.68539,3.22904255 C123.843417,2.2837234 124.582508,1.54202961 125.527266,1.38068 C126.472024,1.21933039 127.415381,1.67368873 127.878191,2.51297872 C128.05383,2.81921986 132.467305,10.3176241 144.203546,9.34035461 C152.584645,8.63780142 154.372553,1.85996454 154.390567,1.79241135 C154.581388,1.00694559 155.178571,0.384017849 155.955289,0.16023571 C156.732007,-0.0635464294 157.569081,0.1461536 158.148565,0.709685123 C158.728048,1.27321665 158.961026,2.1041128 158.759007,2.88677305 C158.659929,3.2920922 156.13344,12.8621277 144.57734,13.8258865 C135.214468,14.6095035 129.512979,10.8805674 126.536135,7.94875887 C124.437482,11.4615248 119.686241,16.0551418 109.161454,16.3523759 L108.24273,16.3658865 Z" id="Path"></path>
                    <path d="M14.4924113,42.1892199 C5.54836879,42.1892199 0.869184397,35.0871277 0.806134752,34.9835461 C0.132092803,33.9376618 0.433530603,32.543386 1.47941493,31.869344 C2.52529926,31.195302 3.91957501,31.4967398 4.59361702,32.5426241 C5.81296135,34.2129354 7.41837045,35.563395 9.27280142,36.4787234 C13.285461,38.4422695 17.928617,37.9874113 23.0761702,35.1276596 C23.7792866,34.7366818 24.6375772,34.7505116 25.3277321,35.1639394 C26.017887,35.5773672 26.4350553,36.3275834 26.4220938,37.131989 C26.4091322,37.9363946 25.96801,38.6727811 25.2648936,39.0637589 C21.1666667,41.3425532 17.5638298,42.1892199 14.4924113,42.1892199 Z" id="Path"></path>
                    <path d="M218.421986,201.308511 L2.70212766,201.308511 C1.45850774,201.308511 0.45035461,200.300358 0.45035461,199.056738 C0.45035461,197.813118 1.45850774,196.804965 2.70212766,196.804965 L218.421986,196.804965 C219.665606,196.804965 220.673759,197.813118 220.673759,199.056738 C220.673759,200.300358 219.665606,201.308511 218.421986,201.308511 L218.421986,201.308511 Z" id="Path"></path>
                </g>
            </g>
        </g>
    </g>
</svg>