<?xml version="1.0" encoding="UTF-8"?>
<svg width="221px" height="243px" viewBox="0 0 221 243" version="1.1" xmlns="http://www.w3.org/2000/svg" xmlns:xlink="http://www.w3.org/1999/xlink">
    <title>1BB59FF9-D600-40FC-ABC9-EF044246C0AD</title>
    <g id="Style-guide" stroke="none" stroke-width="1" fill="none" fill-rule="evenodd">
        <g id="Styleguide" transform="translate(-83.000000, -13728.000000)" fill-rule="nonzero">
            <g id="7083260_direction_wind_cock_icon" transform="translate(83.000000, 13728.000000)">
                <g id="Colors" transform="translate(1.974976, 2.468720)">
                    <path d="M52.2499725,142.590819 C63.7981525,159.713369 91.8205972,164.136822 91.8205972,164.136822 L112.144091,163.566548 C141.706523,164.136822 167.266172,152.864152 175.118184,123.75547 C182.970196,94.6462946 160.452504,77.7375351 160.452504,77.7375351 C167.381215,77.8446776 170.80533,72.9901859 170.80533,72.9901859 C176.974168,64.194629 168.987858,52.4687011 168.987858,52.4687011 C171.123301,53.0552691 180.390384,54.7275802 181.892847,56.1199385 C183.395804,57.5122968 194.853629,62.2078029 195.28763,60.1158093 C196.058364,56.4053226 191.438895,51.8391774 191.438895,51.8391774 C186.204714,22.8731878 149.251426,27.0122443 149.251426,27.0122443 C129.235535,28.8667471 123.168408,43.8479296 123.168408,43.8479296 C123.168408,43.8479296 120.473553,52.7244605 120.473553,58.7708504 C120.473553,64.8172403 120.473553,76.8004089 120.473553,76.8004089 C120.473553,76.8004089 121.233425,88.2340403 111.031192,88.2340403 C100.829452,88.2340403 95.860905,80.978965 100.842289,66.4663455 C105.82466,51.9542198 117.191143,3.25278593 68.793855,3.25278593 C20.3965675,3.25278593 10.7680644,41.838885 23.5792418,77.1272675 C36.3899255,112.415156 24.1771659,114.398032 18.6418011,116.157242 C18.6418011,116.157242 22.2258893,146.44301 52.2499725,142.590819 Z" id="Path" fill="#BF8D77"></path>
                    <path d="M133.545921,37.926457 C133.545921,37.926457 120.612789,31.9328977 118.995777,20.3753365 C117.379259,8.81728161 134.238644,0.0414745019 149.943655,0.469550611 C165.649161,0.89762672 201.677665,7.31876835 176.504124,34.2875632 C151.329595,61.2558643 133.545921,37.926457 133.545921,37.926457 Z" id="Path" fill="#BF8D77"></path>
                    <g id="Group" opacity="0.15" transform="translate(166.885496, 1.974976)" fill="#3F456B">
                        <g id="Path">
                            <path d="M1.61207439,0.0646804732 C1.61207439,0.0646804732 16.5473388,9.48284861 0.380676678,25.4638629 C0.380676678,25.4638629 8.69483308,28.4603957 12.2359655,31.1715444 C12.2354718,31.1715444 30.0956761,10.6243849 1.61207439,0.0646804732 Z"></path>
                        </g>
                    </g>
                    <g id="Group" opacity="0.15" transform="translate(146.148245, 46.411943)" fill="#3F456B">
                        <g id="Path">
                            <path d="M21.5785908,5.21294989 C21.5785908,5.21294989 16.6130067,4.89201625 17.883904,10.0289296 C19.1538137,15.1653491 18.5771206,21.8007757 12.1105546,22.1222031 C5.64349472,22.442643 1.71724188,18.9113854 1.25559117,14.6301305 C1.25559117,14.6301305 -4.28767351,30.8975164 13.380958,30.8975164 C31.0486021,30.8975164 27.0073069,16.1286438 27.0073069,16.1286438 L27.122843,6.92476058 L47.7929448,13.6673296 C47.7929448,13.6673296 43.7511558,4.99817122 34.282132,1.46691363 C24.8126145,-2.0648377 20.8093376,1.93053931 21.5785908,5.21294989 Z"></path>
                        </g>
                    </g>
                    <g id="Group" opacity="0.15" transform="translate(52.830616, 72.580378)" fill="#3F456B">
                        <g id="Path">
                            <path d="M93.0327389,0.0918363971 C93.0327389,0.0918363971 90.1073053,10.365663 101.500943,12.9341197 C102.5146,13.1627232 105.290923,17.3476979 105.658269,18.071033 C107.712738,22.1118344 109.726226,26.8656023 110.893931,31.1977128 C113.637173,41.3801968 112.099654,54.3360412 106.351485,63.3750139 C100.211284,73.0296854 87.7551086,78.9032649 76.2474155,81.5512143 C59.4428361,85.4177241 40.5753939,84.9387924 24.2655461,79.3056663 C19.5088157,77.662486 15.8679469,75.0160178 12.970163,71.1504955 C11.6454476,69.384373 10.7532521,66.8346786 9.04094767,65.3504839 C6.0118278,62.7237654 2.6183248,65.3697399 0.163429287,67.3985343 C6.94204163,75.4821122 12.4102572,83.4121357 23.2711455,87.3749256 C33.4398046,91.0859061 44.8665237,91.0325817 55.6217507,90.7353478 C65.8708902,90.4514449 76.752022,90.2870282 86.679734,87.6662346 C90.1334738,86.7547831 93.8893849,84.1868202 96.9683729,82.4814282 C99.9782368,80.8145482 102.915027,79.0010262 105.556557,76.8552145 C110.133071,73.1373216 113.381413,68.5218021 115.461063,63.2372593 C119.753181,52.329959 121.721244,39.1632859 118.821979,27.7780414 C117.887322,24.1085355 116.425839,20.5827091 114.674035,17.1852561 C113.751228,15.3964213 112.743496,13.6460986 111.702683,11.9140444 C111.06526,10.8534822 109.57514,7.14250172 108.430642,6.65468258 C108.427679,6.65418883 93.0327389,0.0918363971 93.0327389,0.0918363971 Z"></path>
                        </g>
                    </g>
                    <g id="Group" opacity="0.15" transform="translate(18.762275, 39.993270)" fill="#3F456B">
                        <g id="Path">
                            <path d="M10.4876178,26.3496398 L9.95091799,24.6501727 C6.51890296,13.7325038 7.5982275,4.03240782 7.60958361,3.93563398 C7.83226219,2.05792528 6.37127348,0.367345588 4.34544156,0.158491847 C2.31417846,-0.0538181037 0.489300374,1.30348435 0.263659333,3.18366176 C0.210334974,3.63099389 -1.0072379,14.2785848 2.8558157,26.5658997 L3.39547797,28.2757354 C7.61155859,41.6137377 13.9843133,61.7688644 4.50689587,72.6904832 C3.22316129,74.1702342 1.86635259,75.3621324 0.402895161,76.2953087 C0.137260852,78.8958587 0.477450516,81.2273182 1.64268652,83.511872 C4.87522895,82.0464396 7.76215053,79.8685345 10.2664205,76.9830942 C22.1612088,63.2742901 15.1362182,41.0538319 10.4876178,26.3496398 Z"></path>
                        </g>
                    </g>
                    <g id="Group" opacity="0.2" transform="translate(22.712227, 3.949953)" fill="#FFFFFF">
                        <g id="Path">
                            <path d="M3.76529228,31.4258226 C3.52780138,31.4258226 3.28636053,31.4040978 3.04442594,31.3601546 C1.04229373,30.9933028 -0.259709381,29.1911369 0.136273363,27.3361404 C0.200953837,27.0339691 1.79870965,19.8440679 8.79111317,12.950907 C20.2385694,1.66589249 37.073761,-0.141210804 49.1823406,0.32142739 C51.2215036,0.399932697 52.8049408,1.99571353 52.7205106,3.88527209 C52.6355866,5.77532439 50.9089636,7.24125053 48.874738,7.16521395 C33.5064601,6.57123983 21.8304003,10.0970662 14.175886,17.6424631 C8.7096454,23.0311859 7.39826115,28.6104939 7.38641129,28.6652995 C7.03782798,30.2961361 5.49389027,31.4258226 3.76529228,31.4258226 Z"></path>
                        </g>
                    </g>
                    <g id="Group" opacity="0.15" transform="translate(85.417724, 7.899905)" fill="#3F456B">
                        <g id="Path">
                            <path d="M13.5764807,81.1335068 C12.8936326,81.1335068 12.2014035,80.97699 11.5615111,80.6471689 C8.12110247,78.8766027 4.06005749,74.7414961 4.24718649,65.1001557 C4.35284772,59.6635397 5.74866221,54.4091153 6.557415,52.1615923 C7.64019574,49.1512347 9.84476302,40.3882649 10.6031539,37.2658274 C15.2418794,18.8042429 1.66441126,6.95981641 1.52616292,6.84230532 C-0.162441799,5.40106638 -0.271065495,2.96394565 1.28472207,1.39828321 C2.8390284,-0.166885496 5.46969681,-0.267609286 7.15830153,1.1741234 C7.86633053,1.7779724 24.4265066,16.2268989 18.7074691,38.985538 C18.5988454,39.4308952 15.8807843,50.6077797 14.4449765,54.5977255 C12.7731591,59.246326 10.7315274,71.4062549 15.5993502,73.9124998 C17.6069135,74.9463999 18.3297549,77.2916842 17.214387,79.1516182 C16.4545149,80.4180717 15.0374694,81.1335068 13.5764807,81.1335068 Z"></path>
                        </g>
                    </g>
                    <g id="Group" opacity="0.2" transform="translate(99.736302, 37.524549)" fill="#FFFFFF">
                        <g id="Path">
                            <path d="M33.4496795,0.897132976 C31.9032731,-0.336733456 29.5703324,-0.175279145 28.2382109,1.2570724 C21.8101568,8.17541431 22.043204,34.4524737 22.272795,37.2154655 C22.6243408,41.4498147 22.2367517,48.8164762 15.6911866,50.5727239 C10.7705331,51.8925018 8.38871175,51.2738405 7.62538342,50.9692004 C6.92673556,49.9639374 5.71064392,49.2963955 4.32470431,49.2963955 C2.15618035,49.2963955 0.398451465,50.9252571 0.398451465,52.9343018 C0.398451465,54.4920643 1.45654501,55.8172734 2.94123343,56.3361984 C4.01463303,57.075827 6.33029272,58.2311882 10.3439383,58.2311882 C12.3633515,58.2311882 14.8128159,57.9383979 17.7466431,57.1508761 C26.1970729,54.8836034 30.5321458,47.4260929 29.6414315,36.6901219 C29.0894256,30.0393892 30.4477156,9.37570615 33.8382561,5.72644373 C35.1698839,4.29409218 34.996086,2.1319869 33.4496795,0.897132976 Z"></path>
                        </g>
                    </g>
                    <g id="Group" opacity="0.2" transform="translate(120.473553, 0.987488)" fill="#FFFFFF">
                        <g id="Path">
                            <path d="M5.71261889,24.8274268 C4.48023369,24.8274268 3.27599191,24.2571524 2.57487533,23.2173274 C2.39367125,22.9492244 0.792952977,20.501735 0.315502461,17.2445054 C-0.37722047,12.528262 1.60565572,8.3971054 5.89925415,5.6118951 C14.5195319,0.0197497628 31.934379,-1.65009268 44.7203754,1.88955856 C46.6756019,2.43070206 47.7870198,4.33902289 47.2029206,6.15106363 C46.6183276,7.96310436 44.5594148,8.99354824 42.6051758,8.45191099 C31.891917,5.48648411 17.0238018,6.75590011 10.1375532,11.2228027 C8.11468379,12.5351745 7.32024958,14.1551487 7.63822077,16.3207102 C7.89941138,18.1021388 8.83308142,19.5725087 8.8429563,19.5868273 C9.92425581,21.190508 9.39792463,23.3032389 7.66735167,24.3060331 C7.05856523,24.6590601 6.38114836,24.8274268 5.71261889,24.8274268 Z"></path>
                        </g>
                    </g>
                    <g id="Group" opacity="0.15" transform="translate(83.936492, 116.523601)" fill="#3F456B">
                        <g id="Path">
                            <path d="M25.5556993,27.7790289 C18.7119128,27.7790289 11.1225727,26.1876917 2.8434721,23.0074862 C0.722347575,22.1928085 -0.284396584,19.9388668 0.594961605,17.9732716 C1.47431979,16.0081702 3.90699683,15.074994 6.02713387,15.8896717 C18.7978242,20.7965002 29.2824796,21.3884994 37.1888034,17.6508568 C47.0325789,12.9978126 49.6746034,3.1347811 49.7007719,3.03553854 C50.2340154,0.966257145 52.4756135,-0.310071276 54.7102992,0.183672794 C56.9430099,0.678404352 58.3210496,2.75706689 57.7873122,4.82634829 C57.6465952,5.37193548 54.1893992,18.2650744 40.9664392,24.5153806 C36.3622758,26.6913107 31.2130189,27.7790289 25.5556993,27.7790289 Z"></path>
                        </g>
                    </g>
                    <path d="M116.029856,190.587186 C116.029856,192.403177 114.164491,194.04142 111.799951,194.04142 L97.7193577,194.04142 C95.355311,194.04142 93.3176293,192.403177 93.3176293,190.587186 L93.3176293,167.890265 C93.3176293,166.074274 95.355311,164.416775 97.7193577,164.416775 L111.799951,164.416775 C114.164491,164.416775 116.029856,166.074274 116.029856,167.890265 L116.029856,190.587186 Z" id="Path" fill="#BF8D77"></path>
                    <g id="Group" opacity="0.15" transform="translate(105.661231, 165.404264)" fill="#3F456B">
                        <g id="Rectangle">
                            <rect x="0" y="0" width="10.3686255" height="27.6496679"></rect>
                        </g>
                    </g>
                    <polygon id="Path" fill="#BF8D77" points="216.441107 177.589867 177.715772 158.727856 187.564485 177.900926 177.715772 196.264255"></polygon>
                    <g id="Group" opacity="0.2" transform="translate(179.722842, 159.479335)" fill="#FFFFFF">
                        <g id="Path">
                            <polygon points="28.5650694 21.4941606 3.53323257 9.16685241 0 0 36.5370612 17.7747865"></polygon>
                        </g>
                    </g>
                    <polygon id="Path" fill="#BF8D77" points="0.64779222 199.847356 30.1682564 178.091017 1.16326103 158.603926"></polygon>
                    <g id="Group" opacity="0.15" transform="translate(0.000000, 174.785401)" fill="#3F456B">
                        <g id="Path">
                            <polygon points="0.98748814 25.1809476 0.0385120375 16.3419412 22.9985988 0.00691241698 30.1183883 2.96246442"></polygon>
                        </g>
                    </g>
                    <path d="M182.400909,216.804502 C182.400909,224.724157 175.980755,231.144311 168.061594,231.144311 C160.141939,231.144311 153.721785,224.724157 153.721785,216.804502 C153.721785,208.884848 160.141939,202.464693 168.061594,202.464693 C175.980755,202.464693 182.400909,208.884354 182.400909,216.804502 Z" id="Path" fill="#BF8D77"></path>
                    <g id="Group" opacity="0.15" transform="translate(154.541894, 204.903789)" fill="#3F456B">
                        <g id="Path">
                            <path d="M20.92043,0.307108812 C20.92043,0.307108812 26.7317977,11.3220453 17.9712967,16.612513 C9.21178312,21.9034744 0.364876868,15.7454984 0.364876868,15.7454984 C0.364876868,15.7454984 5.48204041,28.9284651 18.3183987,25.1123172 C31.1547571,21.2961692 27.3386092,2.73583589 20.92043,0.307108812 Z"></path>
                        </g>
                    </g>
                    <ellipse id="Oval" fill="#BF8D77" transform="translate(39.706468, 216.806619) rotate(-88.515926) translate(-39.706468, -216.806619) " cx="39.7064681" cy="216.806619" rx="14.3403174" ry="14.3398236"></ellipse>
                    <g id="Group" opacity="0.15" transform="translate(26.168436, 204.903789)" fill="#3F456B">
                        <g id="Path">
                            <path d="M20.9298111,0.307108812 C20.9298111,0.307108812 26.7416726,11.3220453 17.9811715,16.612513 C9.221658,21.9034744 0.374258005,15.7454984 0.374258005,15.7454984 C0.374258005,15.7454984 5.49142155,28.9284651 18.3282736,25.1123172 C31.1641382,21.2961692 27.3479903,2.73583589 20.9298111,0.307108812 Z"></path>
                        </g>
                    </g>
                    <g id="Group" opacity="0.2" transform="translate(31.105876, 202.928813)" fill="#FFFFFF">
                        <g id="Path">
                            <path d="M11.826158,6.05231481 C11.826158,9.25424511 9.19795828,11.8498577 5.95652846,11.8498577 C2.71559239,11.8498577 0.0873927004,9.25424511 0.0873927004,6.05231481 C0.0873927004,2.84989077 2.71559239,0.253784452 5.95652846,0.253784452 C9.19845203,0.253784452 11.826158,2.84939703 11.826158,6.05231481 Z"></path>
                        </g>
                    </g>
                    <g id="Group" opacity="0.2" transform="translate(160.466823, 202.928813)" fill="#FFFFFF">
                        <g id="Path">
                            <path d="M11.826158,6.05231481 C11.826158,9.25424511 9.19795828,11.8498577 5.95652846,11.8498577 C2.71559239,11.8498577 0.0873927004,9.25424511 0.0873927004,6.05231481 C0.0873927004,2.84989077 2.71559239,0.253784452 5.95652846,0.253784452 C9.19845203,0.253784452 11.826158,2.84939703 11.826158,6.05231481 Z"></path>
                        </g>
                    </g>
                    <path d="M118.912828,216.804502 C118.912828,224.724157 112.492674,231.144311 104.573019,231.144311 C96.653858,231.144311 90.2337038,224.724157 90.2337038,216.804502 C90.2337038,208.884848 96.653858,202.464693 104.573019,202.464693 C112.492674,202.464693 118.912828,208.884354 118.912828,216.804502 Z" id="Path" fill="#BF8D77"></path>
                    <g id="Group" opacity="0.15" transform="translate(91.342653, 204.903789)" fill="#3F456B">
                        <g id="Path">
                            <path d="M20.6315897,0.307108812 C20.6315897,0.307108812 26.4424637,11.3220453 17.6824564,16.612513 C8.92244909,21.9034744 0.0760365868,15.7454984 0.0760365868,15.7454984 C0.0760365868,15.7454984 5.19270639,28.9284651 18.0290647,25.1123172 C30.8664105,21.2961692 27.0497689,2.73583589 20.6315897,0.307108812 Z"></path>
                        </g>
                    </g>
                    <g id="Group" opacity="0.25" transform="translate(89.861421, 204.903789)" fill="#3F456B">
                        <g id="Path">
                            <path d="M18.0167211,11.3985756 C18.0167211,17.5827201 13.9936944,22.5976786 9.0300853,22.5976786 C4.06647616,22.5976786 0.04246199,17.5832138 0.04246199,11.3985756 C0.04246199,5.21443113 4.06647616,0.199966348 9.0300853,0.199966348 C13.9936944,0.199966348 18.0167211,5.21393738 18.0167211,11.3985756 Z"></path>
                        </g>
                    </g>
                    <circle id="Oval" fill="#BF8D77" transform="translate(147.243278, 216.803934) rotate(-45.000000) translate(-147.243278, -216.803934) " cx="147.243278" cy="216.803934" r="14.3396715"></circle>
                    <g id="Group" opacity="0.15" transform="translate(133.804643, 204.903789)" fill="#3F456B">
                        <g id="Path">
                            <path d="M20.8419247,0.307108812 C20.8419247,0.307108812 26.6532924,11.3220453 17.8927914,16.612513 C9.13327781,21.9034744 0.286371561,15.7454984 0.286371561,15.7454984 C0.286371561,15.7454984 5.4035351,28.9284651 18.2398934,25.1123172 C31.0762518,21.2961692 27.2601039,2.73583589 20.8419247,0.307108812 Z"></path>
                        </g>
                    </g>
                    <g id="Group" opacity="0.25" transform="translate(132.323411, 204.903789)" fill="#3F456B">
                        <g id="Path">
                            <path d="M20.8197062,11.3985756 C20.8197062,17.5827201 16.2160365,22.5976786 10.5369922,22.5976786 C4.85794791,22.5976786 0.253290708,17.5832138 0.253290708,11.3985756 C0.253290708,5.21443113 4.85794791,0.199966348 10.5369922,0.199966348 C16.2160365,0.199966348 20.8197062,5.21393738 20.8197062,11.3985756 Z"></path>
                        </g>
                    </g>
                    <circle id="Oval" fill="#BF8D77" transform="translate(63.288986, 216.810848) rotate(-88.028620) translate(-63.288986, -216.810848) " cx="63.2889862" cy="216.810848" r="14.3396923"></circle>
                    <g id="Group" opacity="0.15" transform="translate(49.868151, 204.903789)" fill="#3F456B">
                        <g id="Path">
                            <path d="M20.8216812,0.307108812 C20.8216812,0.307108812 26.6325551,11.3220453 17.8725479,16.612513 C9.11204682,21.9034744 0.26563431,15.7454984 0.26563431,15.7454984 C0.26563431,15.7454984 5.38279785,28.9284651 18.2196499,25.1123172 C31.0555145,21.2961692 27.2398604,2.73583589 20.8216812,0.307108812 Z"></path>
                        </g>
                    </g>
                    <g id="Group" opacity="0.25" transform="translate(49.374407, 204.903789)" fill="#3F456B">
                        <g id="Path">
                            <path d="M13.4510697,11.3985756 C13.4510697,17.5827201 10.5039113,22.5976786 6.86847376,22.5976786 C3.23303617,22.5976786 0.285384073,17.5832138 0.285384073,11.3985756 C0.285384073,5.21443113 3.23303617,0.199966348 6.86847376,0.199966348 C10.5039113,0.199966348 13.4510697,5.21393738 13.4510697,11.3985756 Z"></path>
                        </g>
                    </g>
                </g>
                <g id="Group" fill="#3F456B">
                    <path d="M17.9001975,136.194364 C16.7216304,136.194364 15.6788429,135.347593 15.470483,134.146808 C15.2379295,132.80333 16.1380249,131.52552 17.4815025,131.292967 C35.5401919,128.163617 39.822928,113.740859 39.9967259,113.128616 C40.3670339,111.820195 41.7277926,111.056372 43.0372019,111.419274 C44.3471049,111.785139 45.1153707,113.13701 44.7544438,114.448394 C44.5520087,115.182592 39.5543312,132.479434 18.3248174,136.158321 C18.1821254,136.182021 18.0404208,136.194364 17.9001975,136.194364 Z" id="Path"></path>
                    <path d="M30.0038397,144.627019 C28.9136528,144.627019 27.915796,143.899241 27.620537,142.796216 C27.2680038,141.478907 28.0500944,140.125555 29.3669098,139.773021 C46.6331399,135.151083 49.4474811,123.152608 49.4741433,123.032135 C49.7659461,121.700507 51.083749,120.859661 52.4138955,121.148501 C53.7455233,121.440304 54.5888381,122.756626 54.2975291,124.088253 C54.1637245,124.700496 50.7820714,139.151891 30.6442257,144.543083 C30.429447,144.599863 30.2146684,144.627019 30.0038397,144.627019 Z" id="Path"></path>
                    <path d="M44.6784072,150.952375 C43.631176,150.952375 42.6594877,150.280883 42.3257167,149.229208 C41.9139341,147.929673 42.6333192,146.542253 43.9328536,146.129976 C49.1196351,144.485808 53.373734,140.345764 53.416196,140.303796 C54.3878843,139.348895 55.9500905,139.361239 56.9059791,140.330952 C57.8618676,141.301159 57.8529802,142.860403 56.8847481,143.817773 C56.6788568,144.021195 51.7700532,148.825325 45.4254419,150.836838 C45.1770887,150.915344 44.9252792,150.952375 44.6784072,150.952375 Z" id="Path"></path>
                    <rect id="Rectangle" x="120.967297" y="217.247391" width="13.824834" height="4.9374407"></rect>
                    <rect id="Rectangle" x="79.4927953" y="217.247391" width="13.824834" height="4.9374407"></rect>
                    <path d="M170.03657,236.081752 C165.375626,236.081752 161.042528,234.218362 157.835167,230.833746 L161.418761,227.437281 C163.684553,229.82799 166.744779,231.144311 170.03657,231.144311 C176.582136,231.144311 181.907165,225.819282 181.907165,219.273223 C181.907165,212.727164 176.582136,207.402134 170.03657,207.402134 C166.639611,207.402134 163.399169,208.862135 161.144733,211.406892 L157.448565,208.133863 C160.639139,204.530519 165.227503,202.464693 170.03657,202.464693 C179.30464,202.464693 186.844606,210.004659 186.844606,219.273223 C186.844606,228.541786 179.304147,236.081752 170.03657,236.081752 Z" id="Path"></path>
                    <path d="M41.6719995,236.081752 C32.4039296,236.081752 24.8639639,228.541786 24.8639639,219.273223 C24.8639639,210.004659 32.4039296,202.464693 41.6719995,202.464693 C46.8612497,202.464693 51.6787106,204.806028 54.890022,208.889291 C55.7328432,209.960716 55.5476891,211.512554 54.4757708,212.355868 C53.4043461,213.19869 51.8525085,213.014029 51.0091936,211.941617 C48.7404396,209.056671 45.3370618,207.402628 41.6719995,207.402628 C35.1264344,207.402628 29.8014046,212.727658 29.8014046,219.273717 C29.8014046,225.819775 35.1269281,231.144805 41.6719995,231.144805 C45.4274169,231.144805 48.8821442,229.423613 51.1499107,226.422143 C51.9719946,225.334919 53.520376,225.119153 54.6076004,225.940743 C55.6953186,226.762827 55.9110848,228.311208 55.0890009,229.398926 C51.8801582,233.645619 46.9896232,236.081752 41.6719995,236.081752 Z" id="Path"></path>
                    <path d="M161.131896,82.8704985 C158.133882,82.8704985 155.103281,82.2404811 152.454344,80.9049033 C145.484159,77.3919143 143.10135,69.9674847 146.079121,61.0445419 C146.511147,59.7514261 147.911405,59.055247 149.202546,59.4843106 C150.495661,59.9163367 151.194309,61.3146199 150.762777,62.6077356 C148.535497,69.280193 149.88885,74.0823478 154.676686,76.4962625 C159.931111,79.1447057 168.048757,77.9054081 170.758918,74.0408733 C175.860282,66.7680231 168.989833,56.4260598 168.919721,56.3223736 C168.353397,55.4839961 168.354384,54.3824531 168.925152,53.5470382 C169.495427,52.7106357 170.517477,52.3042843 171.504472,52.5284441 C172.14782,52.6731112 185.163901,55.6321194 195.159256,60.2846697 C193.169468,53.9805455 188.040454,42.9907899 175.317163,34.994111 C174.162296,34.2683072 173.8147,32.744613 174.540504,31.5902394 C175.266308,30.4358657 176.790989,30.0877762 177.944375,30.8135799 C198.811975,43.9284099 201.167134,63.90332 201.257489,64.7476224 C201.357225,65.6842549 200.915818,66.5966939 200.117928,67.0988317 C199.320037,67.6009694 198.306875,67.6044256 197.505034,67.109694 C191.408776,63.3429205 181.647456,60.3138006 175.657847,58.6775328 C175.971868,59.4517235 176.276508,60.2920759 176.54708,61.181309 C178.379364,67.2084428 177.775515,72.6356777 174.801694,76.8759517 C172.109308,80.7143181 166.676642,82.8704985 161.131896,82.8704985 Z" id="Path"></path>
                    <path d="M15.5568882,123.221239 C14.5101507,123.221239 13.5384624,122.550241 13.2046914,121.499553 C12.7919214,120.200019 13.5108127,118.812104 14.8103471,118.399334 L15.379634,118.221586 C18.3322236,117.305691 23.274108,115.772616 25.9126763,110.458942 C29.0889319,104.061994 28.2100675,93.9614715 23.3007702,80.4383152 C19.5048657,69.9832845 17.6854189,59.3302625 18.0379521,49.6306602 C18.4210975,39.0837931 21.2472886,29.9806337 26.43802,22.5744726 C35.2967761,9.93363695 50.6423418,3.25229219 70.815737,3.25229219 C85.948499,3.25229219 96.9224547,7.87571166 103.43247,16.9941772 C108.560002,24.1751909 110.771976,33.9261426 110.008154,45.9749791 C109.323331,56.7795806 106.418634,66.1913301 105.202049,69.7364125 C102.847384,76.5945176 102.769866,81.8538794 104.978383,84.947186 C106.535158,87.1280536 109.2626,88.2335466 113.083192,88.2335466 C115.203329,88.2335466 116.790716,87.6464849 117.935709,86.4387869 C120.33333,83.9088423 120.125464,79.4542833 120.122995,79.4098463 C120.12102,79.3683718 120.119045,79.3170224 120.119045,79.2760417 C120.114601,77.7237103 120.116576,76.1713789 120.118057,74.6185538 C120.119539,73.5081234 120.12102,72.3971993 120.120032,71.2867689 L120.115589,69.4480659 C120.079545,58.636552 120.040046,46.4894604 128.37099,37.4860373 C128.281622,37.405557 128.193242,37.324583 128.10338,37.243609 C126.942094,36.1904529 125.796608,35.0716288 125.610466,34.8746249 C121.320818,30.3247733 117.648843,23.0109424 120.201994,16.1177814 C123.449842,7.35184921 133.44816,2.83804092 141.721829,1.5360378 C152.56988,-0.170835448 161.346181,-0.0834427479 168.551388,1.80611581 C180.048713,4.82042336 191.003906,12.8847453 189.559211,24.1050793 C188.877844,29.3891283 185.846749,32.5678526 182.637907,35.9327185 L182.574707,35.9983864 C181.633137,36.9848871 180.070931,37.0224116 179.084924,36.0813354 C178.09793,35.140753 178.060899,33.578053 179.001975,32.5915523 L179.064681,32.5253906 C182.038995,29.4064093 184.188263,27.1529614 184.662257,23.4740743 C185.875386,14.0514625 174.318813,8.42327384 167.299253,6.58259594 C160.767513,4.86831653 152.651842,4.81351094 142.489601,6.41373547 C131.977296,8.06777811 126.475506,13.3972516 124.831832,17.8330483 C123.063735,22.6075535 125.928931,28.0155323 129.199986,31.4840844 C129.784085,32.0849709 132.05432,34.2238702 132.924297,34.8746249 C133.344474,35.0069483 133.733544,35.2533266 134.043615,35.6093161 C134.938279,36.637785 134.829162,38.1970288 133.800693,39.091693 C133.800693,39.0921868 133.800199,39.0921868 133.800199,39.0921868 L133.800199,39.0921868 C124.978474,46.7605259 125.016492,58.2859937 125.053523,69.4317724 L125.057967,71.2823252 C125.058954,72.3962118 125.057473,73.5105921 125.055992,74.6249725 C125.054511,76.1521229 125.052536,77.6792733 125.056979,79.2049425 C125.092035,80.0235702 125.21004,85.9129494 121.546953,89.8071089 C119.446072,92.0393259 116.599143,93.1709873 113.083686,93.1709873 C107.653982,93.1709873 103.462095,91.319447 100.960294,87.8158391 C96.9501044,82.1990066 98.5142856,74.0117424 100.532218,68.1327317 C101.684616,64.7767533 104.434277,55.8691165 105.081575,45.6624391 C105.771336,34.7758761 103.86499,26.0958553 99.4148748,19.8628302 C93.8844475,12.1169732 84.262363,8.18923915 70.8162308,8.18923915 C52.3230466,8.18923915 38.3757641,14.1432989 30.4817839,25.4070824 C21.4447862,38.3012088 20.4953164,58.2440255 27.9409769,78.7536604 C33.329206,93.5956072 34.1345025,105.001095 30.3341544,112.654622 C26.7554974,119.861804 20.0598341,121.938986 16.842104,122.936842 L16.3049104,123.105209 C16.0565572,123.183714 15.8042539,123.221239 15.5568882,123.221239 Z M130.808604,35.1763025 C130.724174,35.2325894 130.640731,35.2957886 130.559757,35.3668877 C130.560251,35.366394 130.560251,35.366394 130.560251,35.366394 C130.639744,35.2967761 130.723186,35.2335769 130.808604,35.1763025 Z" id="Shape"></path>
                    <path d="M102.104299,168.873803 C99.5259672,168.873803 92.4348149,168.638287 84.0643716,166.366077 C70.2429939,162.613622 59.5662721,155.032676 53.1880862,144.442853 C52.4845009,143.274654 52.8612276,141.757873 54.0294261,141.054287 C55.1971308,140.349714 56.7144064,140.727429 57.4179917,141.895627 C71.2838064,164.917926 102.61878,163.935869 102.934776,163.925006 C102.967363,163.923525 103.000938,163.923031 103.033525,163.923031 L111.271151,163.923031 C127.225997,163.923031 141.945495,160.283644 152.71751,153.675373 C164.542186,146.421779 171.537059,135.690252 172.945217,122.641583 C175.940268,94.882798 159.781012,82.9954157 159.091252,82.5026592 C157.984278,81.7116812 157.722593,80.1726809 158.509128,79.063238 C159.296156,77.9533013 160.829231,77.687667 161.940649,78.4707451 C162.727677,79.0247259 181.174449,92.3982778 177.853527,123.170877 C176.276014,137.797058 168.476339,149.80047 155.299297,157.884048 C143.760498,164.962363 128.124611,168.859978 111.270657,168.859978 L103.076975,168.859978 C102.944157,168.864916 102.61088,168.873803 102.104299,168.873803 Z" id="Path"></path>
                    <path d="M131.67315,40.3645652 C131.018445,40.3645652 130.365716,40.1063371 129.880365,39.593337 C128.944226,38.6043676 128.98422,37.0456176 129.971708,36.1075039 C130.245242,35.8477945 136.757233,29.7362304 145.079783,28.1932802 C146.416348,27.9404832 147.707982,28.8297163 147.956829,30.1707252 C148.205676,31.5112403 147.320393,32.7994186 145.979384,33.0477719 C139.124242,34.3186691 133.425941,39.6367865 133.369161,39.6901108 C132.891216,40.1408992 132.281443,40.3645652 131.67315,40.3645652 Z" id="Path"></path>
                    <path d="M146.338336,22.0688787 C146.246994,22.0688787 146.155157,22.0639413 146.06184,22.0540664 C144.707006,21.9029807 143.73038,20.6824454 143.881466,19.3271179 C144.57962,13.0624931 141.460145,6.38509832 141.428545,6.31844287 C140.845433,5.0875389 141.368802,3.61519408 142.599212,3.0306011 C143.828635,2.44600812 145.299499,2.96690812 145.886067,4.19534336 C146.040115,4.51775824 149.64494,12.1841224 148.788788,19.8736926 C148.648071,21.1357024 147.579115,22.0688787 146.338336,22.0688787 Z" id="Path"></path>
                    <path d="M165.24824,23.1437595 C164.800415,23.1437595 164.347651,23.0218048 163.940312,22.7665391 C162.784457,22.0427103 162.434887,20.5190161 163.158715,19.3636549 C167.112124,13.053112 166.855377,6.40781054 166.851921,6.34164884 C166.789216,4.98237141 167.837928,3.82503531 169.196712,3.75837986 C170.564877,3.7050555 171.712338,4.73303066 171.782943,6.09181434 C171.800224,6.42361035 172.152757,14.3077157 167.342703,21.9849422 C166.87414,22.7329645 166.070324,23.1437595 165.24824,23.1437595 Z" id="Path"></path>
                    <path d="M108.274618,149.370912 C101.715722,149.371406 95.2930993,148.276282 89.3879202,146.099364 C84.8800369,144.436928 78.8627779,141.004419 75.5813548,137.083104 C74.7064403,136.037354 74.8446886,134.480579 75.8899448,133.605664 C76.9356948,132.729762 78.4924698,132.868504 79.3673843,133.914254 C82.0513771,137.121122 87.3285137,140.077168 91.095781,141.466564 C100.82797,145.055589 112.151991,145.403185 122.977823,142.444671 C138.946,138.082442 143.860729,122.98276 143.21738,111.377306 C143.141837,110.016054 144.184131,108.851311 145.545877,108.775769 C146.894292,108.698251 148.071378,109.74252 148.147415,111.104266 C149.128484,128.806966 139.760184,142.978408 124.278839,147.207326 C118.993308,148.652021 113.588786,149.370912 108.274618,149.370912 Z" id="Path"></path>
                    <path d="M113.774927,198.97886 L99.6943339,198.97886 C95.9700224,198.97886 92.8238852,196.266724 92.8238852,193.055906 L92.8238852,170.358985 C92.8238852,167.138293 95.9700224,164.416775 99.6943339,164.416775 L113.774927,164.416775 C117.468627,164.416775 120.473553,167.0825 120.473553,170.358985 L120.473553,193.055906 C120.473553,196.32153 117.468627,198.97886 113.774927,198.97886 Z M99.6943339,169.354216 C98.519223,169.354216 97.7805819,170.118038 97.7613259,170.36096 L97.7613259,193.055906 C97.7820632,193.29241 98.5236667,194.04142 99.6943339,194.04142 L113.774927,194.04142 C114.918932,194.04142 115.536112,193.341784 115.536112,193.055906 L115.536112,170.358985 C115.536112,170.051876 114.870545,169.354216 113.774927,169.354216 L99.6943339,169.354216 Z" id="Shape"></path>
                    <path d="M106.648719,242.428338 C105.284998,242.428338 104.179999,241.323339 104.179999,239.959618 L104.179999,234.034689 C104.179999,232.670968 105.284998,231.565969 106.648719,231.565969 C108.01244,231.565969 109.11744,232.670968 109.11744,234.034689 L109.11744,239.959618 C109.11744,241.323339 108.01244,242.428338 106.648719,242.428338 Z" id="Path"></path>
                    <path d="M106.648719,206.878765 C105.284998,206.878765 104.179999,205.773766 104.179999,204.410045 L104.179999,197.497628 C104.179999,196.133907 105.284998,195.028908 106.648719,195.028908 C108.01244,195.028908 109.11744,196.133907 109.11744,197.497628 L109.11744,204.410045 C109.11744,205.773766 108.01244,206.878765 106.648719,206.878765 Z" id="Path"></path>
                    <path d="M94.7988615,183.17905 L31.1058764,183.17905 C29.742649,183.17905 28.6371561,182.074051 28.6371561,180.71033 C28.6371561,179.346609 29.742649,178.241609 31.1058764,178.241609 L94.7988615,178.241609 C96.1625826,178.241609 97.2675818,179.346609 97.2675818,180.71033 C97.2675818,182.074051 96.1625826,183.17905 94.7988615,183.17905 Z" id="Path"></path>
                    <path d="M187.622747,183.17905 L118.004833,183.17905 C116.641112,183.17905 115.536112,182.074051 115.536112,180.71033 C115.536112,179.346609 116.641112,178.241609 118.004833,178.241609 L187.622747,178.241609 C188.986468,178.241609 190.091467,179.346609 190.091467,180.71033 C190.091467,182.074051 188.986468,183.17905 187.622747,183.17905 Z" id="Path"></path>
                    <path d="M179.692229,201.201696 C179.033575,201.201696 178.385289,200.938531 177.908826,200.440836 C177.169197,199.669115 177.010705,198.508322 177.515806,197.566259 L186.751782,180.345453 L177.495562,162.324782 C177.010212,161.379756 177.183516,160.229332 177.927094,159.469954 C178.670179,158.710575 179.815665,158.511596 180.772541,158.977691 L219.497876,177.839208 C220.348597,178.253459 220.887272,179.117511 220.885794,180.063525 C220.88431,181.009539 220.341191,181.871122 219.489483,182.282411 L180.764148,200.956799 C180.420996,201.12171 180.055131,201.201696 179.692229,201.201696 Z M185.273512,166.66183 L191.735141,179.241935 C192.105943,179.963789 192.098043,180.821422 191.714898,181.536364 L185.452248,193.213411 L212.755307,180.046738 L185.273512,166.66183 Z" id="Shape"></path>
                    <path d="M2.6227685,204.784797 C2.23814187,204.784797 1.85154026,204.694935 1.49604453,204.51225 C0.662604542,204.084668 0.142692036,203.222097 0.154343543,202.284971 L0.670010703,161.041541 C0.681366817,160.135027 1.18844198,159.307512 1.99126984,158.886842 C2.79409769,158.465184 3.7633173,158.518015 4.51528952,159.023115 L33.5202849,178.5107 C34.1868394,178.958526 34.5941783,179.703092 34.6114593,180.506413 C34.6287404,181.309241 34.2544824,182.070595 33.6076776,182.547551 L4.08721341,204.303396 C3.65469361,204.622355 3.14021229,204.784797 2.6227685,204.784797 Z M5.54968335,165.666442 L5.15320686,197.384067 L27.8555592,180.653055 L5.54968335,165.666442 Z" id="Shape"></path>
                    <path d="M106.547995,236.081752 C97.2799254,236.081752 89.7399597,228.541786 89.7399597,219.273223 C89.7399597,210.004659 97.2799254,202.464693 106.547995,202.464693 C115.816065,202.464693 123.356525,210.004659 123.356525,219.273223 C123.356525,228.541786 115.816065,236.081752 106.547995,236.081752 Z M106.547995,207.402134 C100.00243,207.402134 94.6774004,212.727164 94.6774004,219.273223 C94.6774004,225.819282 100.00243,231.144311 106.547995,231.144311 C113.094054,231.144311 118.419084,225.819282 118.419084,219.273223 C118.419084,212.727164 113.094054,207.402134 106.547995,207.402134 Z" id="Shape"></path>
                    <path d="M149.220814,236.081752 C139.952744,236.081752 132.412285,228.541786 132.412285,219.273223 C132.412285,210.004659 139.95225,202.464693 149.220814,202.464693 C158.489378,202.464693 166.029344,210.004659 166.029344,219.273223 C166.029344,228.541786 158.488884,236.081752 149.220814,236.081752 Z M149.220814,207.402134 C142.674755,207.402134 137.349725,212.727164 137.349725,219.273223 C137.349725,225.819282 142.674755,231.144311 149.220814,231.144311 C155.766873,231.144311 161.091903,225.819282 161.091903,219.273223 C161.091903,212.727164 155.766379,207.402134 149.220814,207.402134 Z" id="Shape"></path>
                    <path d="M65.2635849,236.081752 C55.995515,236.081752 48.4555493,228.541786 48.4555493,219.273223 C48.4555493,210.004659 55.995515,202.464693 65.2635849,202.464693 C74.5316549,202.464693 82.0721143,210.004659 82.0721143,219.273223 C82.0721143,228.541786 74.5316549,236.081752 65.2635849,236.081752 Z M65.2635849,207.402134 C58.7180198,207.402134 53.39299,212.727164 53.39299,219.273223 C53.39299,225.819282 58.7185135,231.144311 65.2635849,231.144311 C71.8091501,231.144311 77.1346736,225.819282 77.1346736,219.273223 C77.1346736,212.727164 71.8091501,207.402134 65.2635849,207.402134 Z" id="Shape"></path>
                    <path d="M44.4675785,95.2002754 C43.3028362,95.2002754 42.2664674,94.3722666 42.0437888,93.1862933 C42.0289765,93.1058131 40.5265133,85.1032092 39.2906719,79.4192274 C39.1776045,78.9003024 38.9756632,78.1147556 38.71941,77.120355 C37.4554252,72.212539 35.1027347,63.0777799 34.9684363,53.5603692 C34.7961196,41.3658782 38.362433,32.6201895 45.568134,27.5652377 C56.6151638,19.8178995 72.3581935,18.4823218 82.1901192,24.4595875 C88.0711048,28.0352821 90.821753,33.6363148 89.9359761,40.2297731 C89.7547721,41.5806569 88.5164619,42.5330892 87.1606407,42.3474414 C85.8097569,42.1662373 84.8612746,40.9234835 85.0429724,39.572106 C85.8225943,33.765182 82.5268526,30.4432719 79.6251187,28.6786306 C70.5565214,23.1649905 56.6294824,25.8376272 48.4037062,31.6080141 C34.5917096,41.296754 41.2977415,67.3328663 43.5013213,75.8894511 C43.7704118,76.9347073 43.9832155,77.7607411 44.1160327,78.370515 C45.3671801,84.1246084 46.8824807,92.1958427 46.897293,92.276323 C47.1486088,93.6168382 46.2657944,94.9064977 44.9257729,95.1578134 C44.7717248,95.1864506 44.6181704,95.2002754 44.4675785,95.2002754 Z" id="Path"></path>
                    <path d="M51.5103439,58.59409 C50.4171945,58.59409 49.4193377,57.8638426 49.1270412,56.7578558 C49.0332299,56.4028539 46.8785307,47.9909361 50.8837826,41.6310188 C52.9797262,38.3031837 56.2947239,36.1860092 60.7374331,35.3377568 C68.0828636,33.9350299 72.1705707,36.3138889 74.3050264,38.5564744 C78.0693311,42.510377 78.314722,48.5696042 77.5617622,51.6782169 C77.2408286,53.0034259 75.9087071,53.8156349 74.5810293,53.4961825 C73.2558202,53.1752489 72.44213,51.8401649 72.7630636,50.5154496 C73.16744,48.8461009 73.2024958,44.5594148 70.7288381,41.9608398 C68.8555731,39.9937634 65.8042347,39.3978143 61.6627094,40.1878049 C58.5852027,40.7753603 56.429516,42.1025444 55.0727073,44.2448999 C52.2070168,48.7700643 53.8852528,55.4370905 53.9020401,55.5037459 C54.2427236,56.8215488 53.4537205,58.1694701 52.1369051,58.5136098 C51.9275576,58.5679216 51.7172226,58.59409 51.5103439,58.59409 Z" id="Path"></path>
                    <path d="M150.098197,45.4244545 L148.616965,45.4244545 C147.253244,45.4244545 146.148245,44.3194552 146.148245,42.9557341 C146.148245,41.592013 147.253244,40.4870138 148.616965,40.4870138 L150.098197,40.4870138 C151.461918,40.4870138 152.566918,41.592013 152.566918,42.9557341 C152.566918,44.3194552 151.461918,45.4244545 150.098197,45.4244545 Z" id="Path"></path>
                </g>
            </g>
        </g>
    </g>
</svg>