<?xml version="1.0" encoding="UTF-8"?>
<svg width="222px" height="221px" viewBox="0 0 222 221" version="1.1" xmlns="http://www.w3.org/2000/svg" xmlns:xlink="http://www.w3.org/1999/xlink">
    <title>7D0DFD9B-7036-4D08-89FE-0AE20947163F</title>
    <g id="Style-guide" stroke="none" stroke-width="1" fill="none" fill-rule="evenodd">
        <g id="Styleguide" transform="translate(-670.000000, -12749.000000)" fill-rule="nonzero">
            <g id="7063365_microphone_record_mic_speak_icon" transform="translate(670.000000, 12749.000000)">
                <g id="Colors">
                    <path d="M153.674504,208.739362 L153.674504,218.647163 L67.2064184,218.647163 L67.2064184,208.739362 C67.2064184,206.252122 69.2227247,204.235816 71.7099645,204.235816 L149.170957,204.235816 C151.658197,204.235816 153.674504,206.252122 153.674504,208.739362 L153.674504,208.739362 Z" id="Path" fill="#D9E0ED"></path>
                    <path d="M150.517518,115.466418 L150.517518,123.397163 C150.517518,145.65796 132.471577,163.703901 110.21078,163.703901 C87.9499837,163.703901 69.9040426,145.65796 69.9040426,123.397163 L69.9040426,115.466418 L150.517518,115.466418 Z" id="Path" fill="#767C93"></path>
                    <path d="M150.517518,42.7836879 L150.517518,100.11383 L69.9040426,100.11383 L69.9040426,42.7836879 C69.9040426,42.1396809 69.9040426,41.4956738 69.949078,40.8651773 C70.965979,19.3738916 88.6864425,2.47207946 110.201773,2.47207946 C131.717104,2.47207946 149.437567,19.3738916 150.454468,40.8651773 C150.504007,41.4911702 150.517518,42.1351773 150.517518,42.7836879 Z" id="Path" fill="#D9E0ED"></path>
                    <g id="Group" opacity="0.2" transform="translate(109.886525, 2.251773)" fill="#3F456B">
                        <path d="M0.328758865,0.225177305 C0.328758865,0.225177305 0.211666667,4.30539007 0.211666667,38.6089007 L0.211666667,113.214645 C0.211666667,113.214645 0.571950355,133.003227 0.328758865,161.430962 C0.328758865,161.430962 40.6309929,162.388865 40.6309929,113.214645 L40.6309929,36.929078 C40.6309929,36.929078 38.8746099,0.225177305 0.328758865,0.225177305 Z" id="Path"></path>
                    </g>
                    <path d="M164.190292,107.787872 L164.190292,110.665638 C164.182875,113.312205 162.040566,115.456526 159.394007,115.466418 L61.5184397,115.466418 C58.8806808,115.44422 56.7519902,113.30348 56.744672,110.665638 L56.744672,104.932624 C56.7396518,102.286747 58.8726322,100.133644 61.5184397,100.11383 L159.394007,100.11383 C162.048621,100.121282 164.195265,102.278005 164.190292,104.932624 L164.190292,107.787872 Z" id="Path" fill="#D9E0ED"></path>
                    <g id="Group" opacity="0.2" transform="translate(119.343972, 99.978723)" fill="#3F456B">
                        <rect id="Rectangle" x="0.166631206" y="0.135106383" width="43.9591135" height="15.3525887"></rect>
                    </g>
                    <g id="Group" opacity="0.2" transform="translate(131.053191, 204.010638)" fill="#3F456B">
                        <rect id="Rectangle" x="0.328758865" y="0.225177305" width="22.2925532" height="14.2221986"></rect>
                    </g>
                    <g id="Group" opacity="0.5" transform="translate(82.414894, 204.010638)" fill="#FFFFFF">
                        <rect id="Rectangle" x="0" y="0.225177305" width="23.5265248" height="14.2221986"></rect>
                    </g>
                    <g id="Group" opacity="0.5" transform="translate(75.659574, 99.978723)" fill="#FFFFFF">
                        <rect id="Rectangle" x="0.0225177305" y="0.337765957" width="24.5488298" height="15.1499291"></rect>
                    </g>
                    <g id="Group" opacity="0.2" transform="translate(66.202128, 211.666667)" fill="#3F456B">
                        <rect id="Rectangle" x="0.328758865" y="0.189148936" width="87.143617" height="6.60670213"></rect>
                    </g>
                    <g id="Group" opacity="0.5" transform="translate(83.765957, 2.702128)" fill="#FFFFFF">
                        <path d="M26.4493262,0 C26.4493262,0 0.0630496454,3.87755319 0.0630496454,38.1810638 L0.0630496454,97.4117021 L18.4960638,97.4117021 L18.4960638,38.1585461 C18.4960638,38.1585461 17.5953546,10.1059574 26.4493262,0 Z" id="Path"></path>
                    </g>
                    <g id="Group" opacity="0.5" transform="translate(67.553191, 0.000000)" fill="#3F456B">
                        <path d="M27.3095035,43.1124468 L2.40939716,43.1124468 C1.16577725,43.1124468 0.157624113,42.1042937 0.157624113,40.8606738 C0.157624113,39.6170538 1.16577725,38.6089007 2.40939716,38.6089007 L27.3095035,38.6089007 C28.5531235,38.6089007 29.5612766,39.6170538 29.5612766,40.8606738 C29.5612766,42.1042937 28.5531235,43.1124468 27.3095035,43.1124468 L27.3095035,43.1124468 Z" id="Path"></path>
                        <path d="M27.3095035,57.9020922 L2.40939716,57.9020922 C1.16577725,57.9020922 0.157624113,56.8939391 0.157624113,55.6503191 C0.157624113,54.4066992 1.16577725,53.3985461 2.40939716,53.3985461 L27.3095035,53.3985461 C28.5531235,53.3985461 29.5612766,54.4066992 29.5612766,55.6503191 C29.5612766,56.8939391 28.5531235,57.9020922 27.3095035,57.9020922 L27.3095035,57.9020922 Z" id="Path"></path>
                        <path d="M27.3095035,72.6962411 L2.40939716,72.6962411 C1.16577725,72.6962411 0.157624113,71.688088 0.157624113,70.4444681 C0.157624113,69.2008482 1.16577725,68.192695 2.40939716,68.192695 L27.3095035,68.192695 C28.5531235,68.192695 29.5612766,69.2008482 29.5612766,70.4444681 C29.5612766,71.688088 28.5531235,72.6962411 27.3095035,72.6962411 L27.3095035,72.6962411 Z" id="Path"></path>
                        <path d="M27.3095035,87.4903901 L2.40939716,87.4903901 C1.16577725,87.4903901 0.157624113,86.4822369 0.157624113,85.238617 C0.157624113,83.9949971 1.16577725,82.986844 2.40939716,82.986844 L27.3095035,82.986844 C28.5531235,82.986844 29.5612766,83.9949971 29.5612766,85.238617 C29.5612766,86.4822369 28.5531235,87.4903901 27.3095035,87.4903901 L27.3095035,87.4903901 Z" id="Path"></path>
                        <path d="M58.0146809,22.1934752 C56.7710609,22.1934752 55.7629078,21.185322 55.7629078,19.9417021 L55.7629078,5.67446809 C55.7629078,4.43084817 56.7710609,3.42269504 58.0146809,3.42269504 C59.2583008,3.42269504 60.2664539,4.43084817 60.2664539,5.67446809 L60.2664539,19.9417021 C60.2664539,21.185322 59.2583008,22.1934752 58.0146809,22.1934752 L58.0146809,22.1934752 Z" id="Path"></path>
                        <path d="M42.6620922,22.1934752 C41.4184723,22.1934752 40.4103191,21.185322 40.4103191,19.9417021 L40.4103191,2.47695035 C40.4103191,1.23333044 41.4184723,0.225177305 42.6620922,0.225177305 C43.9057121,0.225177305 44.9138652,1.23333044 44.9138652,2.47695035 L44.9138652,19.9417021 C44.9138652,21.185322 43.9057121,22.1934752 42.6620922,22.1934752 L42.6620922,22.1934752 Z" id="Path"></path>
                        <path d="M27.3095035,22.1934752 C26.0658836,22.1934752 25.0577305,21.185322 25.0577305,19.9417021 L25.0577305,5.67446809 C25.0577305,4.43084817 26.0658836,3.42269504 27.3095035,3.42269504 C28.5531235,3.42269504 29.5612766,4.43084817 29.5612766,5.67446809 L29.5612766,19.9417021 C29.5612766,21.185322 28.5531235,22.1934752 27.3095035,22.1934752 L27.3095035,22.1934752 Z" id="Path"></path>
                        <path d="M82.9192908,43.1124468 L58.0146809,43.1124468 C56.7710609,43.1124468 55.7629078,42.1042937 55.7629078,40.8606738 C55.7629078,39.6170538 56.7710609,38.6089007 58.0146809,38.6089007 L82.9192908,38.6089007 C84.1629107,38.6089007 85.1710638,39.6170538 85.1710638,40.8606738 C85.1710638,42.1042937 84.1629107,43.1124468 82.9192908,43.1124468 Z" id="Path"></path>
                        <path d="M82.9192908,57.9020922 L58.0146809,57.9020922 C56.7710609,57.9020922 55.7629078,56.8939391 55.7629078,55.6503191 C55.7629078,54.4066992 56.7710609,53.3985461 58.0146809,53.3985461 L82.9192908,53.3985461 C84.1629107,53.3985461 85.1710638,54.4066992 85.1710638,55.6503191 C85.1710638,56.8939391 84.1629107,57.9020922 82.9192908,57.9020922 Z" id="Path"></path>
                        <path d="M82.9192908,72.6962411 L58.0146809,72.6962411 C56.7710609,72.6962411 55.7629078,71.688088 55.7629078,70.4444681 C55.7629078,69.2008482 56.7710609,68.192695 58.0146809,68.192695 L82.9192908,68.192695 C84.1629107,68.192695 85.1710638,69.2008482 85.1710638,70.4444681 C85.1710638,71.688088 84.1629107,72.6962411 82.9192908,72.6962411 Z" id="Path"></path>
                        <path d="M82.9192908,87.4903901 L58.0146809,87.4903901 C56.7710609,87.4903901 55.7629078,86.4822369 55.7629078,85.238617 C55.7629078,83.9949971 56.7710609,82.986844 58.0146809,82.986844 L82.9192908,82.986844 C84.1629107,82.986844 85.1710638,83.9949971 85.1710638,85.238617 C85.1710638,86.4822369 84.1629107,87.4903901 82.9192908,87.4903901 L82.9192908,87.4903901 Z" id="Path"></path>
                    </g>
                    <g id="Group" opacity="0.3" transform="translate(68.904255, 115.290780)" fill="#3F456B">
                        <rect id="Rectangle" x="0.409822695" y="0.175638298" width="81.5637234" height="7.03453901"></rect>
                    </g>
                    <g id="Group" opacity="0.2" transform="translate(68.904255, 92.773050)" fill="#3F456B">
                        <rect id="Rectangle" x="0.409822695" y="0.220673759" width="81.5637234" height="7.03453901"></rect>
                    </g>
                    <g id="Group" opacity="0.3" transform="translate(72.507092, 137.358156)" fill="#3F456B">
                        <path d="M0.324255319,1.08985816 C0.324255319,1.08985816 9.56102837,14.2627305 37.951383,14.2627305 C66.3417376,14.2627305 75.1326596,0.337765957 75.1326596,0.337765957 C75.1326596,0.337765957 66.9767376,26.323227 37.7081915,26.323227 C8.43964539,26.323227 0.324255319,1.08985816 0.324255319,1.08985816 Z" id="Path"></path>
                    </g>
                    <g id="Group" opacity="0.5" transform="translate(156.723404, 34.677305)" fill="#3F456B">
                        <path d="M32.7137589,56.2943262 C24.8370567,56.2943262 23.7471986,44.2113121 23.7471986,31.1510284 L23.7471986,28.2912766 C23.7425751,28.2207968 23.7425751,28.1500897 23.7471986,28.0796099 C23.8462766,26.9221986 23.6661348,24.8370567 22.9455674,24.0534397 C22.7354601,23.828523 22.4320361,23.7151558 22.125922,23.7471986 C21.7873122,23.7233548 21.4561261,23.8541733 21.2252128,24.1029787 C20.3740426,25.0036879 20.171383,27.2284397 20.2074113,28.1561702 C20.2659574,28.912766 20.5316667,33.6910284 18.117766,36.3210993 C17.0885225,37.4504595 15.6239138,38.0835379 14.0960993,38.0594681 C12.6490996,38.075628 11.2612191,37.486187 10.2680851,36.4336879 C8.82244681,34.9204965 8.28202128,32.6371986 8.08386525,30.9033333 L2.35535461,30.9033333 C1.11173469,30.9033333 0.10358156,29.8951802 0.10358156,28.6515603 C0.10358156,27.4079404 1.11173469,26.3997872 2.35535461,26.3997872 L10.2365603,26.3997872 C10.8521552,26.3991356 11.4411774,26.6505407 11.8665749,27.0955065 C12.2919724,27.5404723 12.5166511,28.1401982 12.4883333,28.7551418 C12.4342908,30.1062057 12.7270213,32.4885816 13.5241489,33.3217376 C13.6675583,33.4851262 13.8792827,33.5718165 14.0960993,33.555922 C14.3615705,33.5813218 14.623042,33.4774036 14.7986525,33.2767021 C15.6543262,32.3444681 15.8164539,29.696383 15.6993617,28.4894326 C15.6993617,28.4579078 15.6993617,28.4308865 15.6993617,28.4038652 C15.676844,27.9084752 15.5417376,23.5310284 17.9511348,20.9955319 C19.0370183,19.8547101 20.5511592,19.2209596 22.125922,19.248156 C23.7069307,19.2187101 25.2231316,19.8757853 26.282695,21.0495745 C28.4894326,23.4769858 28.3047872,27.5481915 28.237234,28.4083688 L28.237234,31.1735461 C28.237234,48.2329787 30.6646454,51.8132979 32.7002482,51.8132979 C34.7358511,51.8132979 37.1632624,48.2329787 37.1632624,31.1735461 L37.1632624,25.4540426 C37.1632624,12.3937589 38.248617,0.306241135 46.1298227,0.306241135 C54.4028369,0.306241135 55.0918794,12.7315248 55.0918794,25.4540426 L55.0918794,25.5621277 L55.0513475,26.4178014 L61.8066667,26.4178014 C63.0502866,26.4178014 64.0584397,27.4259546 64.0584397,28.6695745 C64.0584397,29.9131944 63.0502866,30.9213475 61.8066667,30.9213475 L52.6914894,30.9213475 C52.0750746,30.9220581 51.4853177,30.6700395 51.0597789,30.2240748 C50.6342402,29.7781102 50.410128,29.177194 50.4397163,28.5614894 L50.5928369,25.4090071 C50.5928369,19.7255319 50.5928369,4.82329787 46.1343262,4.82329787 C44.0987234,4.82329787 41.6713121,8.42613475 41.6713121,25.4675532 L41.6713121,31.1870567 C41.6803191,44.2113121 40.5949645,56.2943262 32.7137589,56.2943262 Z" id="Path"></path>
                    </g>
                    <g id="Group" opacity="0.5" transform="translate(0.000000, 34.677305)" fill="#3F456B">
                        <path d="M32.7137589,56.2943262 C24.8370567,56.2943262 23.7471986,44.2113121 23.7471986,31.1510284 L23.7471986,28.2912766 C23.7425751,28.2207968 23.7425751,28.1500897 23.7471986,28.0796099 C23.8462766,26.9221986 23.6661348,24.8370567 22.9455674,24.0534397 C22.7354601,23.828523 22.4320361,23.7151558 22.125922,23.7471986 C21.7873122,23.7233548 21.4561261,23.8541733 21.2252128,24.1029787 C20.3740426,25.0036879 20.171383,27.2284397 20.2074113,28.1561702 C20.2659574,28.912766 20.5316667,33.6910284 18.117766,36.3210993 C17.0885225,37.4504595 15.6239138,38.0835379 14.0960993,38.0594681 C12.6490996,38.075628 11.2612191,37.486187 10.2680851,36.4336879 C8.82244681,34.9204965 8.28202128,32.6371986 8.08386525,30.9033333 L2.35535461,30.9033333 C1.11173469,30.9033333 0.10358156,29.8951802 0.10358156,28.6515603 C0.10358156,27.4079404 1.11173469,26.3997872 2.35535461,26.3997872 L10.2365603,26.3997872 C10.8521552,26.3991356 11.4411774,26.6505407 11.8665749,27.0955065 C12.2919724,27.5404723 12.5166511,28.1401982 12.4883333,28.7551418 C12.4342908,30.1062057 12.7270213,32.4885816 13.5241489,33.3217376 C13.6675583,33.4851262 13.8792827,33.5718165 14.0960993,33.555922 C14.3615705,33.5813218 14.623042,33.4774036 14.7986525,33.2767021 C15.6543262,32.3444681 15.8164539,29.696383 15.6993617,28.4894326 C15.6993617,28.4579078 15.6993617,28.4308865 15.6993617,28.4038652 C15.676844,27.9084752 15.5417376,23.5310284 17.9511348,20.9955319 C19.0370183,19.8547101 20.5511592,19.2209596 22.125922,19.248156 C23.7069307,19.2187101 25.2231316,19.8757853 26.282695,21.0495745 C28.4894326,23.4769858 28.3047872,27.5481915 28.237234,28.4083688 L28.237234,31.1735461 C28.237234,48.2329787 30.6646454,51.8132979 32.7002482,51.8132979 C34.7358511,51.8132979 37.1632624,48.2329787 37.1632624,31.1735461 L37.1632624,25.4540426 C37.1632624,12.3937589 38.248617,0.306241135 46.1298227,0.306241135 C54.4028369,0.306241135 55.0918794,12.7315248 55.0918794,25.4540426 L55.0918794,25.5621277 L55.0513475,26.4178014 L61.8066667,26.4178014 C63.0502866,26.4178014 64.0584397,27.4259546 64.0584397,28.6695745 C64.0584397,29.9131944 63.0502866,30.9213475 61.8066667,30.9213475 L52.6914894,30.9213475 C52.0750746,30.9220581 51.4853177,30.6700395 51.0597789,30.2240748 C50.6342402,29.7781102 50.410128,29.177194 50.4397163,28.5614894 L50.5928369,25.4090071 C50.5928369,19.7255319 50.5928369,4.82329787 46.1343262,4.82329787 C44.0987234,4.82329787 41.6713121,8.42613475 41.6713121,25.4675532 L41.6713121,31.1870567 C41.6803191,44.2113121 40.5949645,56.2943262 32.7137589,56.2943262 Z" id="Path"></path>
                    </g>
                    <g id="Group" opacity="0.3" transform="translate(56.294326, 107.634752)" fill="#3F456B">
                        <rect id="Rectangle" x="0.427836879" y="0.153120567" width="106.752057" height="7.03453901"></rect>
                    </g>
                    <circle id="Oval" fill="#8CC0F4" cx="110.28734" cy="136.30883" r="9.22776596"></circle>
                    <g id="Group" opacity="0.5" transform="translate(106.283688, 131.953901)" fill="#FFFFFF">
                        <circle id="Oval" cx="4.00365248" cy="4.35492908" r="3.95411348"></circle>
                    </g>
                </g>
                <g id="Lines" transform="translate(45.485816, 0.000000)" fill="#3F456B">
                    <path d="M64.7294681,184.64539 C29.2235106,184.64539 0.328758865,155.759645 0.328758865,120.244681 L0.328758865,107.787872 C0.328758865,106.544252 1.336912,105.536099 2.58053191,105.536099 L11.2588652,105.536099 C12.5024852,105.536099 13.5106383,106.544252 13.5106383,107.787872 C13.5106383,109.031492 12.5024852,110.039645 11.2588652,110.039645 L4.86382979,110.039645 L4.86382979,120.244681 C4.86382979,153.269184 31.7274823,180.141844 64.7609929,180.141844 C97.7945035,180.141844 124.658156,153.273688 124.658156,120.244681 L124.658156,110.039645 L118.704468,110.039645 C117.460848,110.039645 116.452695,109.031492 116.452695,107.787872 C116.452695,106.544252 117.460848,105.536099 118.704468,105.536099 L126.873901,105.536099 C128.117521,105.536099 129.125674,106.544252 129.125674,107.787872 L129.125674,120.244681 C129.125674,155.759645 100.239929,184.64539 64.7294681,184.64539 Z" id="Path"></path>
                    <path d="M114.200922,117.718191 L15.7624113,117.718191 C12.0315516,117.718191 9.0070922,114.693732 9.0070922,110.962872 L9.0070922,104.612872 C9.0070922,100.882013 12.0315516,97.8575532 15.7624113,97.8575532 L114.200922,97.8575532 C117.931782,97.8575532 120.956241,100.882013 120.956241,104.612872 L120.956241,110.962872 C120.956241,114.693732 117.931782,117.718191 114.200922,117.718191 Z M15.7624113,102.361099 C14.5187914,102.361099 13.5106383,103.369252 13.5106383,104.612872 L13.5106383,110.962872 C13.5106383,112.206492 14.5187914,113.214645 15.7624113,113.214645 L114.200922,113.214645 C115.444542,113.214645 116.452695,112.206492 116.452695,110.962872 L116.452695,104.612872 C116.452695,103.369252 115.444542,102.361099 114.200922,102.361099 L15.7624113,102.361099 Z" id="Shape"></path>
                    <path d="M64.7294681,165.933156 C41.2466096,165.905873 22.214705,146.880012 22.1799645,123.397163 L22.1799645,115.466418 C22.1799645,114.222799 23.1881177,113.214645 24.4317376,113.214645 C25.6753575,113.214645 26.6835106,114.222799 26.6835106,115.466418 L26.6835106,123.397163 C26.6835106,144.41434 43.7212986,161.452128 64.7384752,161.452128 C85.7556517,161.452128 102.79344,144.41434 102.79344,123.397163 L102.79344,115.466418 C102.79344,114.222799 103.801593,113.214645 105.045213,113.214645 C106.288833,113.214645 107.296986,114.222799 107.296986,115.466418 L107.296986,123.397163 C107.25975,146.886008 88.2183344,165.913322 64.7294681,165.933156 Z" id="Path"></path>
                    <path d="M24.4317376,102.361099 C23.1881177,102.361099 22.1799645,101.352946 22.1799645,100.109326 L22.1799645,42.7836879 C22.1799645,27.5789964 30.2915706,13.5292819 43.4592197,5.92693605 C56.6268688,-1.67540979 72.8500816,-1.67540979 86.0177307,5.92693605 C99.1853798,13.5292819 107.296986,27.5789964 107.296986,42.7836879 L107.296986,99.7895745 C107.296986,101.033194 106.288833,102.041348 105.045213,102.041348 C103.801593,102.041348 102.79344,101.033194 102.79344,99.7895745 L102.79344,42.7836879 C102.79344,21.7665114 85.7556517,4.7287234 64.7384752,4.7287234 C43.7212986,4.7287234 26.6835106,21.7665114 26.6835106,42.7836879 L26.6835106,100.11383 C26.6810269,101.355691 25.6736009,102.361099 24.4317376,102.361099 Z" id="Path"></path>
                    <path d="M108.188688,220.898936 L21.7206028,220.898936 C20.4769829,220.898936 19.4688298,219.890783 19.4688298,218.647163 L19.4688298,208.739362 C19.4688298,205.008502 22.4932892,201.984043 26.2241489,201.984043 L103.685142,201.984043 C107.416002,201.984043 110.440461,205.008502 110.440461,208.739362 L110.440461,218.647163 C110.440461,219.890783 109.432308,220.898936 108.188688,220.898936 L108.188688,220.898936 Z M23.9723759,216.39539 L105.936915,216.39539 L105.936915,208.739362 C105.936915,207.495742 104.928762,206.487589 103.685142,206.487589 L26.2241489,206.487589 C24.980529,206.487589 23.9723759,207.495742 23.9723759,208.739362 L23.9723759,216.39539 Z" id="Shape"></path>
                    <path d="M64.7294681,206.487589 C63.4858482,206.487589 62.477695,205.479436 62.477695,204.235816 L62.477695,182.393617 C62.477695,181.149997 63.4858482,180.141844 64.7294681,180.141844 C65.973088,180.141844 66.9812411,181.149997 66.9812411,182.393617 L66.9812411,204.235816 C66.9812411,205.479436 65.973088,206.487589 64.7294681,206.487589 L64.7294681,206.487589 Z" id="Path"></path>
                    <path d="M64.8015248,147.78837 C60.1580753,147.79019 55.9708369,144.994446 54.1926033,140.704981 C52.4143697,136.415515 53.3953984,131.477223 56.678169,128.193164 C59.9609396,124.909104 64.8988472,123.926138 69.1890098,125.702688 C73.4791725,127.479239 76.2765603,131.66538 76.2765603,136.30883 C76.2691208,142.643962 71.136654,147.778443 64.8015248,147.78837 L64.8015248,147.78837 Z M64.8015248,129.323828 C61.97959,129.322008 59.434508,131.020499 58.3533377,133.627104 C57.2721674,136.233709 57.8678916,139.234946 59.8626569,141.231 C61.8574222,143.227054 64.8582741,143.824716 67.465577,142.745229 C70.0728798,141.665743 71.7730142,139.121758 71.7730142,136.299823 C71.7631041,132.454418 68.6469353,129.340262 64.8015248,129.332837 L64.8015248,129.323828 Z" id="Shape"></path>
                </g>
            </g>
        </g>
    </g>
</svg>