<?xml version="1.0" encoding="UTF-8"?>
<svg width="222px" height="223px" viewBox="0 0 222 223" version="1.1" xmlns="http://www.w3.org/2000/svg" xmlns:xlink="http://www.w3.org/1999/xlink">
    <title>6552327_analytics_chart_market_stock_icon (1)</title>
    <g id="Style-guide" stroke="none" stroke-width="1" fill="none" fill-rule="evenodd">
        <g id="Styleguide" transform="translate(-77.000000, -13069.000000)" fill-rule="nonzero">
            <g id="6552327_analytics_chart_market_stock_icon-(1)" transform="translate(77.000000, 13069.000000)">
                <g id="Colors" transform="translate(2.251773, 0.000000)">
                    <rect id="Rectangle" fill="#A6DCF7" x="0" y="188.752624" width="14.2807447" height="30.4664894"></rect>
                    <rect id="Rectangle" fill="#A6DCF7" x="22.373617" y="166.856383" width="14.2807447" height="52.367234"></rect>
                    <rect id="Rectangle" fill="#A6DCF7" x="44.747234" y="191.135" width="14.2807447" height="28.088617"></rect>
                    <rect id="Rectangle" fill="#A6DCF7" x="67.1208511" y="159.236383" width="14.2807447" height="59.9827305"></rect>
                    <rect id="Rectangle" fill="#A6DCF7" x="89.4989716" y="145.91039" width="14.2807447" height="73.313227"></rect>
                    <rect id="Rectangle" fill="#A6DCF7" x="134.246206" y="166.379007" width="14.2807447" height="52.8401064"></rect>
                    <rect id="Rectangle" fill="#A6DCF7" x="156.619823" y="131.15227" width="14.2807447" height="88.066844"></rect>
                    <rect id="Rectangle" fill="#A6DCF7" x="201.367057" y="85.4502837" width="14.2807447" height="133.76883"></rect>
                    <rect id="Rectangle" fill="#A6DCF7" x="178.99344" y="108.778652" width="14.2807447" height="110.444965"></rect>
                    <rect id="Rectangle" fill="#A6DCF7" x="111.872589" y="122.104645" width="14.2807447" height="97.1144681"></rect>
                    <g id="Group" opacity="0.5" transform="translate(117.542553, 0.000000)" fill="#3F456B">
                        <path d="M2.25177305,52.2411348 C1.00815313,52.2411348 0,51.2329816 0,49.9893617 L0,49.5390071 C0,48.2953872 1.00815313,47.287234 2.25177305,47.287234 C3.49539297,47.287234 4.5035461,48.2953872 4.5035461,49.5390071 L4.5035461,49.9893617 C4.5035461,51.2329816 3.49539297,52.2411348 2.25177305,52.2411348 L2.25177305,52.2411348 Z M2.25177305,42.7836879 C1.00815313,42.7836879 0,41.7755348 0,40.5319149 L0,40.0815603 C0,38.8379404 1.00815313,37.8297872 2.25177305,37.8297872 C3.49539297,37.8297872 4.5035461,38.8379404 4.5035461,40.0815603 L4.5035461,40.5319149 C4.5035461,41.7755348 3.49539297,42.7836879 2.25177305,42.7836879 Z M2.25177305,33.3262411 C1.00815313,33.3262411 0,32.318088 0,31.0744681 L0,30.6241135 C0,29.3804936 1.00815313,28.3723404 2.25177305,28.3723404 C3.49539297,28.3723404 4.5035461,29.3804936 4.5035461,30.6241135 L4.5035461,31.0744681 C4.5035461,32.318088 3.49539297,33.3262411 2.25177305,33.3262411 Z M2.25177305,23.8687943 C1.00815313,23.8687943 0,22.8606412 0,21.6170213 L0,21.1666667 C0,19.9230468 1.00815313,18.9148936 2.25177305,18.9148936 C3.49539297,18.9148936 4.5035461,19.9230468 4.5035461,21.1666667 L4.5035461,21.6170213 C4.5035461,22.8606412 3.49539297,23.8687943 2.25177305,23.8687943 L2.25177305,23.8687943 Z M2.25177305,14.4113475 C1.00815313,14.4113475 0,13.4031944 0,12.1595745 L0,11.7092199 C0,10.4655999 1.00815313,9.45744681 2.25177305,9.45744681 C3.49539297,9.45744681 4.5035461,10.4655999 4.5035461,11.7092199 L4.5035461,12.1595745 C4.5035461,13.4031944 3.49539297,14.4113475 2.25177305,14.4113475 Z M2.25177305,4.95390071 C1.00815313,4.95390071 0,3.94574757 0,2.70212766 L0,2.25177305 C0,1.00815313 1.00815313,0 2.25177305,0 C3.49539297,0 4.5035461,1.00815313 4.5035461,2.25177305 L4.5035461,2.70212766 C4.5035461,3.299335 4.26630641,3.87208229 3.84401704,4.29437165 C3.42172768,4.71666102 2.84898039,4.95390071 2.25177305,4.95390071 Z" id="Shape"></path>
                    </g>
                    <g id="Group" opacity="0.5" transform="translate(117.542553, 82.414894)" fill="#3F456B">
                        <path d="M2.25177305,137.358156 C1.00815313,137.358156 0,136.350003 0,135.106383 L0,134.656028 C0,133.412408 1.00815313,132.404255 2.25177305,132.404255 C3.49539297,132.404255 4.5035461,133.412408 4.5035461,134.656028 L4.5035461,135.106383 C4.5035461,136.350003 3.49539297,137.358156 2.25177305,137.358156 L2.25177305,137.358156 Z M2.25177305,127.900709 C1.00815313,127.900709 0,126.892556 0,125.648936 L0,125.198582 C0,123.954962 1.00815313,122.946809 2.25177305,122.946809 C3.49539297,122.946809 4.5035461,123.954962 4.5035461,125.198582 L4.5035461,125.648936 C4.5035461,126.892556 3.49539297,127.900709 2.25177305,127.900709 Z M2.25177305,118.443262 C1.00815313,118.443262 0,117.435109 0,116.191489 L0,115.741135 C0,114.497515 1.00815313,113.489362 2.25177305,113.489362 C3.49539297,113.489362 4.5035461,114.497515 4.5035461,115.741135 L4.5035461,116.191489 C4.5035461,117.435109 3.49539297,118.443262 2.25177305,118.443262 Z M2.25177305,108.985816 C1.00815313,108.985816 0,107.977662 0,106.734043 L0,106.283688 C0,105.040068 1.00815313,104.031915 2.25177305,104.031915 C3.49539297,104.031915 4.5035461,105.040068 4.5035461,106.283688 L4.5035461,106.734043 C4.5035461,107.977662 3.49539297,108.985816 2.25177305,108.985816 Z M2.25177305,99.5283688 C1.00815313,99.5283688 0,98.5202157 0,97.2765957 L0,96.8262411 C0,95.5826212 1.00815313,94.5744681 2.25177305,94.5744681 C3.49539297,94.5744681 4.5035461,95.5826212 4.5035461,96.8262411 L4.5035461,97.2765957 C4.5035461,98.5202157 3.49539297,99.5283688 2.25177305,99.5283688 L2.25177305,99.5283688 Z M2.25177305,90.070922 C1.00815313,90.070922 0,89.0627689 0,87.8191489 L0,87.3687943 C0,86.1251744 1.00815313,85.1170213 2.25177305,85.1170213 C3.49539297,85.1170213 4.5035461,86.1251744 4.5035461,87.3687943 L4.5035461,87.8191489 C4.5035461,89.0627689 3.49539297,90.070922 2.25177305,90.070922 L2.25177305,90.070922 Z M2.25177305,80.6134752 C1.00815313,80.6134752 0,79.605322 0,78.3617021 L0,77.9113475 C0,76.6677276 1.00815313,75.6595745 2.25177305,75.6595745 C3.49539297,75.6595745 4.5035461,76.6677276 4.5035461,77.9113475 L4.5035461,78.3617021 C4.5035461,79.605322 3.49539297,80.6134752 2.25177305,80.6134752 Z M2.25177305,71.1560284 C1.00815313,71.1560284 0,70.1478752 0,68.9042553 L0,68.4539007 C0,67.2102808 1.00815313,66.2021277 2.25177305,66.2021277 C3.49539297,66.2021277 4.5035461,67.2102808 4.5035461,68.4539007 L4.5035461,68.9042553 C4.5035461,70.1478752 3.49539297,71.1560284 2.25177305,71.1560284 Z M2.25177305,61.6985816 C1.00815313,61.6985816 0,60.6904284 0,59.4468085 L0,58.9964539 C0,57.752834 1.00815313,56.7446809 2.25177305,56.7446809 C3.49539297,56.7446809 4.5035461,57.752834 4.5035461,58.9964539 L4.5035461,59.4468085 C4.5035461,60.6904284 3.49539297,61.6985816 2.25177305,61.6985816 Z M2.25177305,52.2411348 C1.00815313,52.2411348 0,51.2329816 0,49.9893617 L0,49.5390071 C0,48.2953872 1.00815313,47.287234 2.25177305,47.287234 C3.49539297,47.287234 4.5035461,48.2953872 4.5035461,49.5390071 L4.5035461,49.9893617 C4.5035461,51.2329816 3.49539297,52.2411348 2.25177305,52.2411348 Z M2.25177305,42.7836879 C1.00815313,42.7836879 0,41.7755348 0,40.5319149 L0,40.0815603 C0,38.8379404 1.00815313,37.8297872 2.25177305,37.8297872 C3.49539297,37.8297872 4.5035461,38.8379404 4.5035461,40.0815603 L4.5035461,40.5319149 C4.5035461,41.7755348 3.49539297,42.7836879 2.25177305,42.7836879 Z M2.25177305,33.3262411 C1.00815313,33.3262411 0,32.318088 0,31.0744681 L0,30.6241135 C0,29.3804936 1.00815313,28.3723404 2.25177305,28.3723404 C3.49539297,28.3723404 4.5035461,29.3804936 4.5035461,30.6241135 L4.5035461,31.0744681 C4.5035461,32.318088 3.49539297,33.3262411 2.25177305,33.3262411 Z M2.25177305,23.8687943 C1.00815313,23.8687943 0,22.8606412 0,21.6170213 L0,21.1666667 C0,19.9230468 1.00815313,18.9148936 2.25177305,18.9148936 C3.49539297,18.9148936 4.5035461,19.9230468 4.5035461,21.1666667 L4.5035461,21.6170213 C4.5035461,22.8606412 3.49539297,23.8687943 2.25177305,23.8687943 Z M2.25177305,14.4113475 C1.00815313,14.4113475 0,13.4031944 0,12.1595745 L0,11.7092199 C0,10.4655999 1.00815313,9.45744681 2.25177305,9.45744681 C3.49539297,9.45744681 4.5035461,10.4655999 4.5035461,11.7092199 L4.5035461,12.1595745 C4.5035461,13.4031944 3.49539297,14.4113475 2.25177305,14.4113475 Z M2.25177305,4.95390071 C1.00815313,4.95390071 0,3.94574757 0,2.70212766 L0,2.25177305 C0,1.00815313 1.00815313,0 2.25177305,0 C3.49539297,0 4.5035461,1.00815313 4.5035461,2.25177305 L4.5035461,2.70212766 C4.5035461,3.94574757 3.49539297,4.95390071 2.25177305,4.95390071 L2.25177305,4.95390071 Z" id="Shape"></path>
                    </g>
                    <circle id="Oval" fill="#8BD0F7" cx="120.177128" cy="69.7374113" r="14.4383688"></circle>
                    <g id="Group" opacity="0.2" transform="translate(105.382979, 54.943262)" fill="#FFFFFF">
                        <path d="M0.45035461,17.5638298 C0.45035461,17.5638298 2.25177305,6.75531915 14.5779787,6.30496454 C25.9404255,5.89964539 29.2730496,15.7624113 29.2730496,15.7624113 C29.2730496,15.7624113 28.9172695,0.301737589 15.4336525,0.36929078 C-1.35106383,0.45035461 0.45035461,17.5638298 0.45035461,17.5638298 Z" id="Path"></path>
                    </g>
                    <g id="Group" opacity="0.2" transform="translate(105.833333, 68.003546)" fill="#3F456B">
                        <path d="M28.822695,0 C28.822695,0 26.2781915,9.81322695 14.9292553,10.4437234 C3.58031915,11.0742199 0,0.45035461 0,0.45035461 C0,0.45035461 0.607978723,17.0729433 14.0735816,16.3929078 C29.944078,15.5912766 28.822695,0 28.822695,0 Z" id="Path"></path>
                    </g>
                </g>
                <g id="Lines" transform="translate(0.000000, 0.450355)" fill="#3F456B">
                    <path d="M219.322695,221.020532 L2.25177305,221.020532 C1.00815313,221.020532 7.99990492e-16,220.012379 7.99990492e-16,218.768759 L7.99990492e-16,2.64358156 C7.99990492e-16,1.39996164 1.00815313,0.391808511 2.25177305,0.391808511 C3.49539297,0.391808511 4.5035461,1.39996164 4.5035461,2.64358156 L4.5035461,216.516986 L219.322695,216.516986 C220.566315,216.516986 221.574468,217.525139 221.574468,218.768759 C221.574468,220.012379 220.566315,221.020532 219.322695,221.020532 Z" id="Path"></path>
                    <path d="M150.621099,88.4406416 C150.206496,88.4406416 149.799745,88.3275875 149.445674,88.1118794 L134.06156,78.690461 C133.340431,78.2875385 132.897812,77.5221094 132.908122,76.6961171 C132.918797,75.8701248 133.380717,75.1161861 134.111849,74.7317118 C134.84298,74.3472375 135.725936,74.3939567 136.412411,74.8534397 L149.558262,82.9012766 L169.896277,34.4656383 C170.160845,33.8347851 170.697846,33.3584092 171.355742,33.1709394 C172.013639,32.9834696 172.721082,33.1052368 173.27844,33.5018794 L197.034645,50.3991844 L216.327837,1.86897163 C216.787976,0.712405181 218.098575,0.14783949 219.255142,0.60797884 C220.411708,1.06811819 220.976274,2.37871719 220.516135,3.53528369 L200.160106,54.7315957 C199.904178,55.3743204 199.367014,55.8637315 198.703306,56.058888 C198.039598,56.2540445 197.323019,56.1332839 196.759929,55.731383 L172.958688,38.8025532 L152.69273,87.0625532 C152.34108,87.8978676 151.522911,88.4406416 150.616596,88.4406416 L150.621099,88.4406416 Z" id="Path"></path>
                    <path d="M2.25177305,175.795923 C1.42036776,175.795923 0.65623632,175.339102 0.264204259,174.605927 C-0.127827803,173.872751 -0.0839639036,172.983213 0.378297872,172.292163 L31.0744681,126.355993 C31.4651126,125.771685 32.10619,125.4033 32.8077199,125.360007 C33.5092499,125.316713 34.1907584,125.603478 34.6502837,126.135319 L51.7997872,145.950922 L62.9415603,111.895106 C63.2435182,110.969033 64.1066864,110.342101 65.0807447,110.341383 L82.1536879,110.341383 L110.27383,78.4832979 C110.806396,77.8799371 111.620397,77.6065296 112.409206,77.7660653 C113.198015,77.9256009 113.841793,78.4938426 114.098036,79.256739 C114.354278,80.0196355 114.184056,80.8612846 113.651489,81.4646454 L84.8603191,114.08383 C84.4326268,114.568055 83.8175503,114.84525 83.1714894,114.844929 L66.724539,114.844929 L54.8531915,151.157021 C54.5998061,151.927292 53.951843,152.501842 53.1567842,152.661226 C52.3617254,152.820611 51.5423721,152.540213 51.0116667,151.927128 L33.1866312,131.314397 L4.12524823,174.796135 C3.70697352,175.421428 3.00406589,175.795923 2.25177305,175.795923 L2.25177305,175.795923 Z" id="Path"></path>
                    <path d="M122.046099,71.1560284 C120.802479,71.1560284 119.794326,70.1478752 119.794326,68.9042553 L119.794326,68.4539007 C119.794326,67.2102808 120.802479,66.2021277 122.046099,66.2021277 C123.289719,66.2021277 124.297872,67.2102808 124.297872,68.4539007 L124.297872,68.9042553 C124.297872,70.1478752 123.289719,71.1560284 122.046099,71.1560284 L122.046099,71.1560284 Z" id="Path"></path>
                    <path d="M122.406383,85.9771986 C113.246539,85.9776829 105.784442,78.6214903 105.654004,69.4625748 C105.523567,60.3036593 112.773152,52.7379492 121.929296,52.4775849 C131.085439,52.2172206 138.753239,59.3587397 139.143478,68.5102675 C139.533717,77.6617953 132.501701,85.4301427 123.356631,85.9501773 C123.041383,85.9681915 122.721631,85.9771986 122.406383,85.9771986 Z M122.442411,57.0958605 C122.21273,57.0958605 121.992057,57.0958605 121.753369,57.1184752 C115.196993,57.5212835 110.179286,63.114534 110.487997,69.6760141 C110.796708,76.2374941 116.3174,81.3349237 122.882634,81.1203736 C129.447867,80.9058234 134.623971,75.4588254 134.503625,68.8911896 C134.38328,62.3235538 129.011098,57.0698421 122.442411,57.0958605 Z" id="Shape"></path>
                </g>
            </g>
        </g>
    </g>
</svg>