<?xml version="1.0" encoding="UTF-8"?>
<svg width="221px" height="221px" viewBox="0 0 221 221" version="1.1" xmlns="http://www.w3.org/2000/svg" xmlns:xlink="http://www.w3.org/1999/xlink">
    <title>924116FE-E43E-4B65-87FD-F9713F33A865</title>
    <g id="Style-guide" stroke="none" stroke-width="1" fill="none" fill-rule="evenodd">
        <g id="Styleguide" transform="translate(-1307.000000, -13070.000000)" fill-rule="nonzero">
            <g id="5686480_archive_documents_drawer_office_icon" transform="translate(1307.000000, 13070.000000)">
                <g id="Colors" transform="translate(2.251773, 2.251773)">
                    <rect id="Rectangle" fill="#D89C73" x="8.55673759" y="8.55673759" width="199.056738" height="145.464539"></rect>
                    <g id="Group" opacity="0.15" transform="translate(13.510638, 86.017730)" fill="#3F456B">
                        <rect id="Rectangle" x="0" y="0" width="188.698582" height="43.6843972"></rect>
                    </g>
                    <rect id="Rectangle" fill="#D89C73" x="8.55673759" y="8.55673759" width="199.056738" height="77.4609929"></rect>
                    <path d="M202.20922,129.702128 L202.20922,17.5998582 C202.205406,15.3883099 200.447597,13.5786827 198.237092,13.5106383 L17.482766,13.5106383 C15.2722614,13.5786827 13.5144518,15.3883099 13.5106383,17.5998582 L13.5106383,129.702128 L0,145.464539 L0,4.5035461 C0,2.01630627 2.01630627,0 4.5035461,0 L211.216312,0 C213.703552,0 215.719858,2.01630627 215.719858,4.5035461 L215.719858,145.464539 L202.20922,129.702128 Z" id="Path" fill="#F4B78E"></path>
                    <rect id="Rectangle" fill="#F4B78E" x="0" y="129.702128" width="215.719858" height="86.0177305" rx="4.5035461"></rect>
                    <g id="Group" opacity="0.15" transform="translate(1.351064, 208.063830)" fill="#3F456B">
                        <rect id="Rectangle" x="0" y="0" width="213.468085" height="7.65602837"></rect>
                    </g>
                    <g id="Group" opacity="0.3" transform="translate(1.351064, 129.702128)" fill="#FFFFFF">
                        <rect id="Rectangle" x="0" y="0" width="213.468085" height="7.65602837"></rect>
                    </g>
                    <rect id="Rectangle" fill="#F7F7F7" x="43.6843972" y="33.3262411" width="128.801418" height="96.3758865"></rect>
                    <g id="Group" opacity="0.3" transform="translate(55.393617, 48.638298)" fill="#3F456B">
                        <path d="M103.131206,36.929078 L3.20202128,36.929078 C1.95840136,36.929078 0.950248227,35.9209249 0.950248227,34.677305 C0.950248227,33.433685 1.95840136,32.4255319 3.20202128,32.4255319 L103.131206,32.4255319 C104.374826,32.4255319 105.382979,33.433685 105.382979,34.677305 C105.382979,35.9209249 104.374826,36.929078 103.131206,36.929078 Z" id="Path"></path>
                        <path d="M103.131206,53.141844 L78.4112411,53.141844 C77.1676212,53.141844 76.1594681,52.1336908 76.1594681,50.8900709 C76.1594681,49.646451 77.1676212,48.6382979 78.4112411,48.6382979 L103.131206,48.6382979 C104.374826,48.6382979 105.382979,49.646451 105.382979,50.8900709 C105.382979,52.1336908 104.374826,53.141844 103.131206,53.141844 L103.131206,53.141844 Z" id="Path"></path>
                        <path d="M103.131206,69.3546099 L78.4112411,69.3546099 C77.1676212,69.3546099 76.1594681,68.3464568 76.1594681,67.1028369 C76.1594681,65.859217 77.1676212,64.8510638 78.4112411,64.8510638 L103.131206,64.8510638 C104.374826,64.8510638 105.382979,65.859217 105.382979,67.1028369 C105.382979,68.3464568 104.374826,69.3546099 103.131206,69.3546099 Z" id="Path"></path>
                        <path d="M102.180957,4.5035461 L2.72914894,4.5035461 C1.48552902,4.5035461 0.477375887,3.49539297 0.477375887,2.25177305 C0.477375887,1.00815313 1.48552902,0 2.72914894,0 L102.180957,0 C103.424577,0 104.43273,1.00815313 104.43273,2.25177305 C104.43273,3.49539297 103.424577,4.5035461 102.180957,4.5035461 Z" id="Path"></path>
                        <path d="M102.65383,20.7163121 L2.25177305,20.7163121 C1.00815313,20.7163121 0,19.7081589 0,18.464539 C0,17.2209191 1.00815313,16.212766 2.25177305,16.212766 L102.65383,16.212766 C103.89745,16.212766 104.905603,17.2209191 104.905603,18.464539 C104.905603,19.7081589 103.89745,20.7163121 102.65383,20.7163121 L102.65383,20.7163121 Z" id="Path"></path>
                    </g>
                    <g id="Group" opacity="0.25" transform="translate(13.510638, 86.017730)" fill="#3F456B">
                        <rect id="Rectangle" x="0" y="0" width="11.7092199" height="43.6843972"></rect>
                    </g>
                    <g id="Group" opacity="0.2" transform="translate(172.485816, 86.017730)" fill="#3F456B">
                        <rect id="Rectangle" x="0" y="0" width="11.7092199" height="43.6843972"></rect>
                    </g>
                    <g id="Group" opacity="0.25" transform="translate(13.510638, 13.510638)" fill="#3F456B">
                        <rect id="Rectangle" x="0" y="0" width="11.7092199" height="72.9574468"></rect>
                    </g>
                    <g id="Group" opacity="0.15" transform="translate(63.950355, 171.585106)" fill="#3F456B">
                        <path d="M66.9902482,28.3723404 L20.1173404,28.3723404 C12.6774823,28.3723404 8.23248227,25.2423759 5.81858156,22.612305 C-0.28822695,15.974078 0.319751773,6.39953901 0.414326241,5.3141844 C0.663050224,2.30338058 3.30541959,0.0642724708 6.3162234,0.312996454 C9.32702722,0.561720437 11.5661353,3.2040898 11.3174113,6.21489362 C11.2003191,7.84067376 11.4390071,12.6819858 13.8979433,15.3210638 C15.2760284,16.798227 17.3116312,17.5728369 20.121844,17.5728369 L66.9902482,17.5728369 C69.8094681,17.5728369 71.8495745,16.7892199 73.2276596,15.3210638 C75.6775887,12.6954965 75.9297872,7.9037234 75.7991844,6.2914539 C75.6382881,4.34460978 76.5282428,2.45981449 78.1338112,1.3470522 C79.7393795,0.234289914 81.8166375,0.0626157025 83.5831021,0.896697582 C85.3495666,1.73077946 86.5368698,3.44390055 86.697766,5.39074468 C86.7878369,6.46258865 87.4003191,16.0146099 81.2935106,22.6438298 C78.888617,25.2423759 74.443617,28.3723404 66.9902482,28.3723404 Z" id="Path"></path>
                    </g>
                    <path d="M131.390957,190.049645 L84.5180496,190.049645 C77.0781915,190.049645 72.6331915,186.919681 70.2192908,184.28961 C64.1124823,177.651383 64.720461,168.076844 64.8150355,166.991489 C65.0637595,163.980686 67.7061289,161.741578 70.7169326,161.990302 C73.7277364,162.239026 75.9668445,164.881395 75.7181206,167.892199 C75.6010284,169.517979 75.8397163,174.359291 78.2986525,176.998369 C79.6767376,178.475532 81.7123404,179.250142 84.5225532,179.250142 L131.390957,179.250142 C134.210177,179.250142 136.250284,178.466525 137.628369,176.998369 C140.078298,174.372801 140.330496,169.581028 140.199894,167.968759 C139.95117,164.959199 142.18927,162.317837 145.19883,162.069113 C148.20839,161.820389 150.849751,164.058489 151.098475,167.06805 C151.188546,168.139894 151.801028,177.691915 145.69422,184.321135 C143.289326,186.919681 138.844326,190.049645 131.390957,190.049645 Z" id="Path" fill="#F0F3F7"></path>
                    <g id="Group" opacity="0.15" transform="translate(64.400709, 167.531915)" fill="#3F456B">
                        <path d="M0.315248227,0.0585460993 C0.315248227,0.0585460993 1.66631206,17.5638298 19.6804965,17.5638298 L67.1028369,17.5638298 C67.1028369,17.5638298 84.0406738,17.6358865 86.7563121,0.824148936 C86.7563121,0.824148936 86.3915248,22.5177305 68.6025177,22.5177305 L20.2659574,22.5177305 C20.2659574,22.5177305 0.743085106,23.8687943 0.315248227,0.0585460993 Z" id="Path"></path>
                    </g>
                    <g id="Group" opacity="0.15" transform="translate(25.670213, 93.673759)" fill="#3F456B">
                        <path d="M107.634752,2.75166667 C107.632273,1.32501909 106.476364,0.169110182 105.049716,0.166631206 L2.61205674,0.166631206 C1.18540916,0.169110182 0.0295002528,1.32501909 0.0270212766,2.75166667 L2.40039007,2.55351064 L35.0420922,35.609539 C47.4853901,35.9157801 59.5954255,34.9069858 72.0071986,35.7671631 L105.896383,1.86446809 L107.634752,2.75166667 Z" id="Path"></path>
                    </g>
                    <g id="_编组_" transform="translate(25.670213, 94.124113)" fill="#F5F6F7">
                        <path d="M107.634752,4.52606383 L107.634752,35.1276596 L0,35.1276596 L0,4.52606383 C0,2.038824 2.01630627,0.0225177305 4.5035461,0.0225177305 L103.131206,0.0225177305 C105.618446,0.0225177305 107.634752,2.038824 107.634752,4.52606383 Z" id="Path"></path>
                    </g>
                    <path d="M129.373369,93.6737589 L29.5252482,93.6737589 C29.5252482,93.6737589 26.5348936,93.7458156 26.4538298,95.8985106 L59.8971631,129.751667 C72.5431206,129.981348 85.4457801,129.206738 98.1547872,129.715638 L131.93139,95.8985106 C131.93139,95.8985106 131.953901,93.6737589 129.373369,93.6737589 Z" id="Path" fill="#F5F6F7"></path>
                    <g id="Group" opacity="0.7" transform="translate(28.372340, 93.673759)" fill="#FFFFFF">
                        <path d="M4.5035461,7.65602837 L96.8262411,7.65602837 C96.8262411,7.65602837 106.148582,0 100.293972,0 L1.66631206,0 C1.66631206,0 -3.15248227,0 4.5035461,7.65602837 Z" id="Path"></path>
                    </g>
                    <rect id="Rectangle" fill="#F4B78E" x="172.485816" y="49.5390071" width="14.4113475" height="80.1631206"></rect>
                    <g id="Group" opacity="0.25" transform="translate(186.897163, 49.539007)" fill="#3F456B">
                        <rect id="Rectangle" x="0" y="0" width="7.20567376" height="79.712766"></rect>
                    </g>
                    <g id="Group" opacity="0.25" transform="translate(172.485816, 33.326241)" fill="#3F456B">
                        <rect id="Rectangle" x="0" y="0" width="7.20567376" height="16.212766"></rect>
                    </g>
                </g>
                <g id="Lines" fill="#3F456B">
                    <path d="M213.468085,220.223404 L6.75531915,220.223404 C3.0244594,220.223404 0,217.198945 0,213.468085 L0,136.457447 C0,132.726587 3.0244594,129.702128 6.75531915,129.702128 L213.468085,129.702128 C217.198945,129.702128 220.223404,132.726587 220.223404,136.457447 L220.223404,213.468085 C220.223404,217.198945 217.198945,220.223404 213.468085,220.223404 L213.468085,220.223404 Z M6.75531915,134.205674 C5.51169923,134.205674 4.5035461,135.213827 4.5035461,136.457447 L4.5035461,213.468085 C4.5035461,214.711705 5.51169923,215.719858 6.75531915,215.719858 L213.468085,215.719858 C214.711705,215.719858 215.719858,214.711705 215.719858,213.468085 L215.719858,136.457447 C215.719858,135.213827 214.711705,134.205674 213.468085,134.205674 L6.75531915,134.205674 Z" id="Shape"></path>
                    <path d="M217.971631,149.968085 C216.728011,149.968085 215.719858,148.959932 215.719858,147.716312 L215.719858,6.75531915 C215.719858,5.51169923 214.711705,4.5035461 213.468085,4.5035461 L6.75531915,4.5035461 C5.51169923,4.5035461 4.5035461,5.51169923 4.5035461,6.75531915 L4.5035461,147.716312 C4.5035461,148.959932 3.49539297,149.968085 2.25177305,149.968085 C1.00815313,149.968085 7.99990492e-16,148.959932 7.99990492e-16,147.716312 L7.99990492e-16,6.75531915 C7.99990492e-16,3.0244594 3.0244594,0 6.75531915,0 L213.468085,0 C217.198945,0 220.223404,3.0244594 220.223404,6.75531915 L220.223404,147.716312 C220.223404,148.959932 219.215251,149.968085 217.971631,149.968085 Z" id="Path"></path>
                    <path d="M204.460993,134.205674 C203.217373,134.205674 202.20922,133.197521 202.20922,131.953901 L202.20922,19.8516312 C202.204565,18.8834836 201.454612,18.0824861 200.488865,18.0141844 L19.734539,18.0141844 C18.7687925,18.0824861 18.018839,18.8834836 18.0141844,19.8516312 L18.0141844,131.953901 C18.0141844,133.197521 17.0060313,134.205674 15.7624113,134.205674 C14.5187914,134.205674 13.5106383,133.197521 13.5106383,131.953901 L13.5106383,19.8516312 C13.5243985,16.4007015 16.2844651,13.5887089 19.734539,13.5106383 L200.488865,13.5106383 C203.938939,13.5887089 206.699006,16.4007015 206.712766,19.8516312 L206.712766,131.953901 C206.712766,132.551108 206.475526,133.123855 206.053237,133.546145 C205.630948,133.968434 205.0582,134.205674 204.460993,134.205674 Z" id="Path"></path>
                    <path d="M45.9361702,90.5212766 L15.7624113,90.5212766 C14.5187914,90.5212766 13.5106383,89.5131235 13.5106383,88.2695035 C13.5106383,87.0258836 14.5187914,86.0177305 15.7624113,86.0177305 L45.9361702,86.0177305 C47.1797901,86.0177305 48.1879433,87.0258836 48.1879433,88.2695035 C48.1879433,89.5131235 47.1797901,90.5212766 45.9361702,90.5212766 L45.9361702,90.5212766 Z" id="Path"></path>
                    <rect id="Rectangle" x="189.148936" y="86.0177305" width="15.7624113" height="4.5035461"></rect>
                    <path d="M174.737589,134.205674 C173.493969,134.205674 172.485816,133.197521 172.485816,131.953901 L172.485816,37.8297872 L48.1879433,37.8297872 L48.1879433,95.9255319 C48.1879433,97.1691518 47.1797901,98.177305 45.9361702,98.177305 C44.6925503,98.177305 43.6843972,97.1691518 43.6843972,95.9255319 L43.6843972,35.5780142 C43.6843972,34.3343943 44.6925503,33.3262411 45.9361702,33.3262411 L174.737589,33.3262411 C175.981209,33.3262411 176.989362,34.3343943 176.989362,35.5780142 L176.989362,131.953901 C176.989362,133.197521 175.981209,134.205674 174.737589,134.205674 Z" id="Path"></path>
                    <path d="M189.148936,134.205674 C187.905316,134.205674 186.897163,133.197521 186.897163,131.953901 L186.897163,54.0425532 L174.737589,54.0425532 C173.493969,54.0425532 172.485816,53.0344001 172.485816,51.7907801 C172.485816,50.5471602 173.493969,49.5390071 174.737589,49.5390071 L189.148936,49.5390071 C190.392556,49.5390071 191.400709,50.5471602 191.400709,51.7907801 L191.400709,131.953901 C191.400709,133.197521 190.392556,134.205674 189.148936,134.205674 Z" id="Path"></path>
                    <path d="M133.64273,194.553191 L86.7698227,194.553191 C78.5103191,194.553191 73.5339007,191.026915 70.8137589,188.068085 C64.0584397,180.722801 64.720461,170.225035 64.819539,169.054113 C65.0423803,166.305202 66.714821,163.883987 69.2068689,162.702517 C71.6989169,161.521048 74.6319707,161.758817 76.9011774,163.326259 C79.1703842,164.893701 80.4309973,167.552684 80.208156,170.301596 C80.0955674,171.886844 80.4333333,175.804929 82.1942199,177.696418 C83.1624823,178.736738 84.6576596,179.241135 86.7698227,179.241135 L133.64273,179.241135 C135.763901,179.241135 137.245567,178.736738 138.231844,177.696418 C139.983723,175.813936 140.316986,171.940887 140.204397,170.360142 C139.949094,166.163665 143.097204,162.533787 147.287602,162.192965 C151.478,161.852143 155.171318,164.925579 155.597518,169.108156 C155.692092,170.274574 156.358617,180.736312 149.616809,188.068085 C146.896667,191.026915 141.915745,194.553191 133.64273,194.553191 Z M72.5070922,166.478085 C70.8412183,166.488521 69.4583452,167.767874 69.3185816,169.427908 C69.2375177,170.400674 68.6835816,179.088014 74.1418794,185.019184 C76.2360284,187.311489 80.1631206,190.049645 86.7698227,190.049645 L133.64273,190.049645 C140.280957,190.049645 144.190035,187.315993 146.302199,185.019184 C151.742482,179.101525 151.188546,170.450213 151.107482,169.48195 C151.037364,168.625069 150.62702,167.831954 149.968085,167.279716 C149.323472,166.72901 148.484209,166.46116 147.639752,166.536631 C146.787467,166.605428 145.99768,167.010848 145.444984,167.663266 C144.892288,168.315684 144.622202,169.161368 144.694433,170.013369 C144.865567,172.391241 144.419716,177.669397 141.54195,180.763333 C139.7,182.74039 137.038404,183.744681 133.656241,183.744681 L86.7698227,183.744681 C83.3876596,183.744681 80.7395745,182.74039 78.8976241,180.767837 C75.9973404,177.651383 75.5514894,172.341702 75.7181206,169.959326 C75.8610444,168.190429 74.5496778,166.637707 72.7818085,166.482589 C72.687234,166.482589 72.588156,166.478085 72.5070922,166.478085 Z" id="Shape"></path>
                    <path d="M135.556738,134.205746 C134.313118,134.205746 133.304965,133.197521 133.304965,131.953901 L133.304965,100.676773 C133.304965,99.4331531 132.296811,98.425 131.053191,98.425 L99.7355319,98.1998227 L32.4255319,98.1998227 C31.181912,98.1998227 30.1737589,99.2079758 30.1737589,100.451596 L30.1737589,131.953901 C30.1737589,133.197521 29.1656057,134.205746 27.9219858,134.205746 C26.6783659,134.205746 25.6702128,133.197521 25.6702128,131.953901 L25.6702128,100.451596 C25.6702128,96.720736 28.6946722,93.6962766 32.4255319,93.6962766 L99.7535461,93.6962766 L131.071206,93.9214539 C134.802065,93.9214539 137.826525,96.9459133 137.826525,100.676773 L137.826525,131.953901 C137.826525,132.554242 137.586833,133.129737 137.16064,133.552548 C136.734446,133.975359 136.15706,134.210476 135.556738,134.205746 Z" id="Path"></path>
                    <path d="M99.9787234,133.791348 C99.0709871,133.791348 98.2521087,133.246001 97.9017919,132.408587 C97.5514751,131.571172 97.7382301,130.605299 98.375461,129.95883 L131.701702,96.1462057 C132.25277,95.5199108 133.104931,95.2495963 133.916247,95.4437284 C134.727563,95.6378605 135.365071,96.2646239 135.572964,97.0725234 C135.780858,97.8804228 135.525065,98.7370551 134.908227,99.2986879 L101.581986,133.111312 C101.160398,133.543841 100.58272,133.788868 99.9787234,133.791348 L99.9787234,133.791348 Z" id="Path"></path>
                    <path d="M63.0496454,133.714787 C62.4485212,133.713477 61.8728753,133.471868 61.4508865,133.043759 L27.8679433,99.0780142 C27.0783813,98.1806682 27.1274944,96.8227819 27.9798203,95.9848211 C28.8321462,95.1468602 30.1906711,95.1208328 31.0744681,95.9255319 L64.6439007,129.89578 C65.2811316,130.542249 65.4678866,131.508122 65.1175698,132.345537 C64.767253,133.182952 63.9483746,133.728298 63.0406383,133.728298 L63.0496454,133.714787 Z" id="Path"></path>
                </g>
            </g>
        </g>
    </g>
</svg>