<?xml version="1.0" encoding="UTF-8"?>
<svg width="221px" height="222px" viewBox="0 0 221 222" version="1.1" xmlns="http://www.w3.org/2000/svg" xmlns:xlink="http://www.w3.org/1999/xlink">
    <title>7132575_tablet_ipad_device_electronic_icon (1)</title>
    <g id="Style-guide" stroke="none" stroke-width="1" fill="none" fill-rule="evenodd">
        <g id="Styleguide" transform="translate(-965.000000, -12444.000000)" fill-rule="nonzero">
            <g id="7132575_tablet_ipad_device_electronic_icon-(1)" transform="translate(965.000000, 12444.000000)">
                <g id="Colors" transform="translate(0.000000, 1.801418)">
                    <path d="M218.421986,117.092199 L218.421986,18.3924823 C218.446902,8.51519137 210.465204,0.485119991 200.587943,0.45035461 L63.2297872,0.45035461 C53.3715248,0.45035461 45.035461,8.52070922 45.035461,18.3924823 L45.035461,199.277411 C45.035461,209.149184 53.3715248,217.521277 63.2432979,217.521277 L200.601454,217.521277 C210.473227,217.521277 218.435496,209.149184 218.435496,199.277411 L218.435496,143.212766" id="Path" fill="#A7AEC1"></path>
                    <rect id="Rectangle" fill="#B9DDFC" x="45.035461" y="29.2730496" width="173.836879" height="153.570922"></rect>
                    <g id="Group" opacity="0.3" transform="translate(45.936170, 0.000000)" fill="#FFFFFF">
                        <path d="M170.684397,17.2620922 C170.684397,17.2620922 169.648582,7.65602837 151.481277,7.65602837 L21.1666667,7.65602837 C21.1666667,7.65602837 1.80141844,6.75531915 0.45035461,17.2620922 C0.45035461,17.2620922 -0.752092199,0.45035461 19.0635106,0.45035461 L151.769504,0.45035461 C151.769504,0.45035461 171.675177,-0.148617021 170.684397,17.2620922 Z" id="Path"></path>
                    </g>
                    <g id="Group" opacity="0.2" transform="translate(47.287234, 199.957447)" fill="#3F456B">
                        <path d="M0.0540425532,0.301737589 C0.0540425532,0.301737589 1.06734043,9.90780142 19.2301418,9.90780142 L149.51773,9.90780142 C149.51773,9.90780142 168.882979,10.8085106 170.234043,0.301737589 C170.234043,0.301737589 171.436489,17.1134752 151.620887,17.1134752 L18.9148936,17.1134752 C18.9148936,17.1134752 -0.959255319,17.7124468 0.0540425532,0.301737589 Z" id="Path"></path>
                    </g>
                    <g id="Group" opacity="0.2" transform="translate(46.386525, 29.273050)" fill="#3F456B">
                        <rect id="Rectangle" x="0" y="0" width="171.134752" height="9.0070922"></rect>
                    </g>
                    <path d="M9.68262411,205.136525 L2.25177305,181.042553 L2.25177305,19.8156028 C2.25177305,14.8411232 6.28438559,10.8085106 11.2588652,10.8085106 L14.8617021,10.8085106 C19.8361818,10.8085106 23.8687943,14.8411232 23.8687943,19.8156028 L23.8687943,181.042553 L16.8882979,205.136525 C16.8882979,205.136525 16.212766,208.14039 13.285461,208.14039 C10.358156,208.14039 9.68262411,205.136525 9.68262411,205.136525 Z" id="Path" fill="#A7AEC1"></path>
                    <g id="Group" opacity="0.2" transform="translate(11.258865, 10.358156)" fill="#3F456B">
                        <path d="M0.148617021,0.373794326 C0.148617021,0.373794326 5.40425532,2.10315603 5.40425532,9.0070922 L5.40425532,167.08156 L0.752092199,196.656348 C0.752092199,196.656348 3.30109929,199.957447 5.62943262,194.778369 C7.95776596,189.599291 12.6099291,170.684397 12.6099291,170.684397 L12.6099291,9.45744681 C12.6099291,9.45744681 12.1595745,-1.65280142 0.148617021,0.373794326 Z" id="Path"></path>
                    </g>
                    <g id="Group" opacity="0.3" transform="translate(2.251773, 18.014184)" fill="#FFFFFF">
                        <rect id="Rectangle" x="0" y="0" width="9.0070922" height="105.833333" rx="4.5035461"></rect>
                    </g>
                    <g id="Group" opacity="0.2" transform="translate(44.585106, 29.273050)" fill="#FFFFFF">
                        <polygon id="Path" points="165.041454 0 10.9120922 154.129362 0 152.670213 0 0"></polygon>
                    </g>
                    <g id="Group" opacity="0.5" transform="translate(122.046099, 190.049645)" fill="#3F456B">
                        <path d="M9.90780142,20.0632979 C4.43587379,20.0632979 0,15.6274241 0,10.1554965 C0,4.68356883 4.43587379,0.247695035 9.90780142,0.247695035 C15.379729,0.247695035 19.8156028,4.68356883 19.8156028,10.1554965 C19.8156028,15.6274241 15.379729,20.0632979 9.90780142,20.0632979 Z M9.90780142,4.78276596 C6.92311362,4.78276596 4.5035461,7.20233348 4.5035461,10.1870213 C4.5035461,13.1717091 6.92311362,15.5912766 9.90780142,15.5912766 C12.8924892,15.5912766 15.3120567,13.1717091 15.3120567,10.1870213 C15.3120567,7.20233348 12.8924892,4.78276596 9.90780142,4.78276596 Z" id="Shape"></path>
                    </g>
                    <g id="Group" opacity="0.5" transform="translate(0.000000, 35.127660)" fill="#3F456B">
                        <path d="M23.8687943,4.5035461 L2.25177305,4.5035461 C1.00815313,4.5035461 0,3.49539297 0,2.25177305 C0,1.00815313 1.00815313,6.39992393e-15 2.25177305,6.39992393e-15 L23.8687943,6.39992393e-15 C25.1124142,6.39992393e-15 26.1205674,1.00815313 26.1205674,2.25177305 C26.1205674,3.49539297 25.1124142,4.5035461 23.8687943,4.5035461 L23.8687943,4.5035461 Z" id="Path"></path>
                    </g>
                </g>
                <g id="Lines" fill="#3F456B">
                    <path d="M217.521277,33.3262411 L46.3865248,33.3262411 C45.1429049,33.3262411 44.1347518,32.318088 44.1347518,31.0744681 C44.1347518,29.8308482 45.1429049,28.822695 46.3865248,28.822695 L217.521277,28.822695 C218.764897,28.822695 219.77305,29.8308482 219.77305,31.0744681 C219.77305,32.318088 218.764897,33.3262411 217.521277,33.3262411 L217.521277,33.3262411 Z" id="Path"></path>
                    <path d="M217.521277,186.897163 L46.3865248,186.897163 C45.1429049,186.897163 44.1347518,185.88901 44.1347518,184.64539 C44.1347518,183.40177 45.1429049,182.393617 46.3865248,182.393617 L217.521277,182.393617 C218.764897,182.393617 219.77305,183.40177 219.77305,184.64539 C219.77305,185.88901 218.764897,186.897163 217.521277,186.897163 L217.521277,186.897163 Z" id="Path"></path>
                    <path d="M200.587943,221.574468 L63.2297872,221.574468 C52.1510638,221.574468 42.7836879,212.189078 42.7836879,201.07883 L42.7836879,20.1939007 C42.7908775,14.8063577 44.9850157,9.65257089 48.8634752,5.91315603 C52.6910466,2.12538809 57.8583662,0 63.2432979,0 L200.601454,0 C211.712913,0.0520986626 220.688769,9.08232935 220.673778,20.1939007 L220.673778,201.07883 C220.673778,212.378227 211.666667,221.574468 200.587943,221.574468 Z M63.2297872,4.5035461 C54.5964894,4.5035461 47.287234,11.7092199 47.287234,20.1939007 L47.287234,201.07883 C47.287234,209.748156 54.5964894,217.070922 63.2432979,217.070922 L200.601454,217.070922 C209.050106,217.070922 216.183766,209.748156 216.183766,201.07883 L216.183766,20.1939007 C216.203662,11.5570116 209.224795,4.53582454 200.587943,4.5035461 L63.2297872,4.5035461 Z" id="Shape"></path>
                    <path d="M13.285461,212.193582 C9.61957447,212.193582 7.92173759,209.203227 7.50741135,207.532411 L0.0990780142,183.505993 C0.034398572,183.29123 0.00102911536,183.068261 0,182.843972 L0,21.6170213 C0,15.3989217 5.04076567,10.358156 11.2588652,10.358156 L14.8617021,10.358156 C17.8477388,10.358156 20.7114753,11.5443545 22.8229221,13.6558013 C24.9343689,15.7672481 26.1205674,18.6309846 26.1205674,21.6170213 L26.1205674,182.843972 C26.1201422,183.055834 26.0898195,183.266577 26.0304965,183.469965 L19.0680142,207.509894 C18.662695,209.176206 16.9693617,212.193582 13.285461,212.193582 Z M11.8713475,206.415532 C11.9749291,206.802837 12.3217021,207.690035 13.285461,207.690035 C14.2492199,207.690035 14.6004965,206.789326 14.6995745,206.411028 C14.7064784,206.377464 14.7155036,206.344372 14.7265957,206.31195 L21.6170213,182.52422 L21.6170213,21.6170213 C21.6170213,17.8861615 18.5925619,14.8617021 14.8617021,14.8617021 L11.2588652,14.8617021 C7.5280055,14.8617021 4.5035461,17.8861615 4.5035461,21.6170213 L4.5035461,182.506206 L11.8353191,206.262411 C11.8504922,206.312655 11.8625249,206.363794 11.8713475,206.415532 Z" id="Shape"></path>
                    <path d="M132.85461,21.1666667 L131.503546,21.1666667 C130.259926,21.1666667 129.251773,20.1585135 129.251773,18.9148936 C129.251773,17.6712737 130.259926,16.6631206 131.503546,16.6631206 L132.85461,16.6631206 C134.09823,16.6631206 135.106383,17.6712737 135.106383,18.9148936 C135.106383,20.1585135 134.09823,21.1666667 132.85461,21.1666667 Z" id="Path"></path>
                </g>
            </g>
        </g>
    </g>
</svg>