<?xml version="1.0" encoding="UTF-8"?>
<svg width="222px" height="223px" viewBox="0 0 222 223" version="1.1" xmlns="http://www.w3.org/2000/svg" xmlns:xlink="http://www.w3.org/1999/xlink">
    <title>5876958_mind_philosophy_think_thought_icon</title>
    <g id="Style-guide" stroke="none" stroke-width="1" fill="none" fill-rule="evenodd">
        <g id="Styleguide" transform="translate(-984.000000, -13069.000000)" fill-rule="nonzero">
            <g id="5876958_mind_philosophy_think_thought_icon" transform="translate(984.000000, 13069.000000)">
                <g id="Colors" transform="translate(2.251773, 2.251773)">
                    <ellipse id="Oval" fill="#F5F6F7" cx="175.638298" cy="63.5" rx="11.7092199" ry="9.90780142"></ellipse>
                    <ellipse id="Oval" fill="#F5F6F7" cx="180.592199" cy="30.6241135" rx="36.4787234" ry="30.6241135"></ellipse>
                    <g id="_编组_" transform="translate(0.000000, 1.351064)" fill="#F0F3F7">
                        <path d="M150.733688,70.2823404 C151.737979,86.3554965 136.552021,86.1035314 136.552021,86.1035314 C134.163754,81.2189741 132.872595,75.8714262 132.769043,70.435461 C135.50338,67.2848237 137.198798,63.3671199 137.623865,59.2171277 C137.898582,59.1901064 149.968085,58.1362766 150.733688,70.2823404 Z" id="Path"></path>
                        <path d="M38.5233333,41.9820567 C38.4661277,41.613474 38.3894603,41.2481761 38.2936525,40.887695 C38.3567021,41.2509811 38.4332624,41.6157683 38.5233333,41.9820567 Z M97.8665603,3.70191489 C111.377199,8.68734043 122.140674,19.7885816 122.140674,41.91 L122.140674,42.4864539 C124.899241,42.56547 127.594995,43.32839 129.985851,44.7067021 C135.894504,47.9897872 138.141773,53.5786879 137.641879,59.2216312 C137.216812,63.3716234 135.521394,67.2893273 132.787057,70.4399645 C132.890609,75.8759297 134.181768,81.2234776 136.570035,86.1078014 C139.626331,92.4620437 144.552862,97.7295822 150.688652,101.203688 C150.688652,101.203688 160.79461,107.639255 176.980355,101.203688 C176.980355,101.203688 176.557021,95.9300355 175.656312,91.4264894 C191.869078,88.2740071 204.25383,85.7970567 217.088936,91.876844 L217.156489,129.733652 L217.070922,216.620567 L44.6841844,216.620567 L44.6841844,207.064043 C44.6841844,182.339574 52.7004965,175.088865 54.6325177,173.688262 C53.9250151,172.794802 53.5679105,171.673846 53.628227,170.53578 L52.6239362,155.489433 C48.6321093,155.162907 44.7276973,154.143371 41.0858511,152.47656 C41.0858511,155.489433 38.2801418,160.326241 38.2801418,160.326241 C40.0815603,182.843972 25.6702128,184.64539 25.6702128,184.64539 L30.1737589,216.620567 L0.45035461,216.620567 C0.45035461,216.620567 0.950248227,195.120638 0.45035461,181.573972 C-0.0495390071,168.027305 4.95390071,157.997908 4.95390071,157.997908 C4.95390071,157.997908 15.9920922,135.930532 19.000461,129.404894 C22.0088298,122.879255 28.5479787,120.875177 28.5479787,120.875177 L31.3356738,119.861879 C25.8593617,112.435532 30.4034397,106.234149 30.4034397,106.234149 L24.9181206,107.697801 C12.6099291,110.336879 16.5145035,99.1951064 16.5145035,99.1951064 L22.0133333,82.1807092 C19.7615603,79.9289362 17.5368085,74.9119858 17.5368085,74.9119858 C16.3403802,72.1707515 15.3190272,69.35639 14.4789007,66.4858511 C14.4789007,66.4858511 14.4789007,66.4858511 14.4789007,66.4858511 C14.2762411,65.792305 14.0915957,65.1347872 13.9249645,64.4412411 C6.49861702,34.8934752 28.723617,24.0084043 28.723617,24.0084043 C28.723617,24.0084043 33.2001418,8.90351064 52.7770567,3.2920922 C63.2478014,0.319751773 82.3563475,-2.03109929 97.8665603,3.69741135 L97.8665603,3.70191489 Z" id="Shape"></path>
                    </g>
                    <g id="Group" opacity="0.15" transform="translate(12.159574, 148.617021)" fill="#3F456B">
                        <path d="M3.15248227,36.929078 C3.15248227,36.929078 -1.35106383,34.677305 0.90070922,31.0744681 C2.00632049,29.7576315 3.87721546,29.3834525 5.40425532,30.1737589 C8.10638298,31.5248227 17.1134752,32.8758865 19.3652482,23.8687943 C19.3652482,23.8687943 20.7163121,20.2659574 20.7163121,13.0602837 C20.7163121,13.0602837 24.3191489,7.20567376 24.7695035,3.15248227 C24.7695035,3.15248227 25.6702128,-0.90070922 30.1737589,0.45035461 C34.677305,1.80141844 38.2801418,3.15248227 40.9822695,3.15248227 C40.9822695,3.15248227 45.035461,4.05319149 41.4326241,8.55673759 L28.822695,5.40425532 L26.1205674,13.0602837 C26.1205674,13.0602837 27.9219858,34.2269504 13.5106383,37.3794326 L18.0141844,69.3546099 L9.90780142,69.3546099 L7.20567376,38.2801418 L3.15248227,36.929078 Z" id="Path"></path>
                    </g>
                    <g id="Group" opacity="0.15" transform="translate(44.585106, 210.765957)" fill="#3F456B">
                        <rect id="Rectangle" x="0" y="0.225177305" width="172.485816" height="6.98049645"></rect>
                    </g>
                    <g id="Group" opacity="0.15" transform="translate(92.322695, 190.950355)" fill="#3F456B">
                        <path d="M10.1329787,27.0212766 C10.1329787,27.0212766 9.0070922,9.90780142 13.0602837,0 C13.0602837,0 0.225177305,6.98049645 0.112588652,26.9086879 L10.1329787,27.0212766 Z" id="Path"></path>
                    </g>
                    <g id="Group" opacity="0.15" transform="translate(15.762411, 101.329787)" fill="#3F456B">
                        <path d="M0.207163121,3.64787234 C0.207163121,3.64787234 8.55673759,2.25177305 13.5106383,0.45035461 C13.5106383,0.45035461 17.5638298,-0.90070922 18.0141844,2.70212766 C18.464539,6.30496454 10.7319504,7.43085106 10.7319504,7.43085106 C10.7319504,7.43085106 0.869184397,10.448227 0.207163121,3.64787234 Z" id="Path"></path>
                    </g>
                    <g id="Group" opacity="0.15" transform="translate(12.159574, 39.631206)" fill="#3F456B">
                        <path d="M1.13939716,23.3734043 C1.13939716,23.3734043 -4.5035461,11.7092199 9.45744681,8.55673759 C11.2493518,8.29491612 13.0697971,8.29491612 14.8617021,8.55673759 C17.5638298,9.0070922 25.6702128,9.0070922 25.6702128,6.39992393e-15 C25.6702128,6.39992393e-15 29.2730496,8.10638298 42.3333333,6.75531915 C55.393617,5.40425532 66.6524823,5.40425532 65.751773,17.5638298 C65.751773,17.5638298 62.1489362,9.45744681 45.035461,12.6099291 C27.9219858,15.7624113 27.0212766,5.85460993 27.0212766,5.85460993 C27.0212766,5.85460993 27.9219858,14.8617021 14.4113475,14.4113475 C14.4113475,14.4113475 4.08021277,14.3212766 1.13939716,23.3734043 Z" id="Path"></path>
                    </g>
                    <g id="Group" opacity="0.15" transform="translate(54.943262, 24.319149)" fill="#3F456B">
                        <path d="M2.70212766,0 C2.70212766,0 -1.35106383,9.45744681 10.8085106,9.45744681 C22.9680851,9.45744681 36.4787234,13.9609929 35.5780142,27.0212766 C35.5780142,27.0212766 31.5248227,15.3120567 12.1595745,15.3120567 C-7.20567376,15.3120567 2.70212766,0 2.70212766,0 Z" id="Path"></path>
                    </g>
                    <g id="Group" opacity="0.15" transform="translate(28.822695, 112.138298)" fill="#3F456B">
                        <path d="M0.166631206,4.2693617 C0.166631206,4.2693617 4.05319149,15.3120567 15.7624113,11.7092199 C15.7624113,11.7092199 23.8687943,9.90780142 21.6170213,0 C21.6170213,0 22.9680851,14.4113475 32.8758865,14.4113475 C32.8758865,14.4113475 37.8297872,13.9609929 36.929078,8.10638298 C36.929078,8.10638298 45.9361702,15.3120567 55.393617,9.0070922 C55.393617,9.0070922 59.8971631,4.05319149 55.393617,0 C55.393617,0 66.2021277,1.80141844 67.1028369,10.358156 C67.1028369,10.358156 67.5531915,15.7624113 73.4078014,14.8617021 C79.2624113,13.9609929 79.712766,4.5035461 79.712766,4.5035461 C79.712766,4.5035461 78.8120567,15.7624113 87.3687943,14.8617021 C95.9255319,13.9609929 94.5744681,2.25177305 94.5744681,2.25177305 C95.0075879,7.57310995 94.3956251,12.9277841 92.7730496,18.0141844 C90.070922,26.570922 91.8723404,35.1276596 101.329787,38.7304965 C110.787234,42.3333333 106.734043,60.7978723 85.5673759,51.7907801 C85.5673759,51.7907801 77.4609929,47.287234 77.0106383,54.0425532 C76.5602837,60.7978723 69.3546099,61.248227 69.3546099,61.248227 C69.3546099,61.248227 71.606383,46.3865248 56.2943262,50.8900709 C40.9822695,55.393617 40.9822695,48.6382979 40.0815603,44.5851064 C39.1808511,40.5319149 36.929078,34.2269504 36.929078,34.2269504 C36.929078,34.2269504 33.3262411,29.7234043 24.3191489,30.1737589 L16.212766,29.7234043 C16.212766,29.7234043 17.1134752,20.2659574 10.358156,16.6631206 C3.60283688,13.0602837 0.166631206,4.2693617 0.166631206,4.2693617 Z" id="Path"></path>
                    </g>
                    <g id="Group" opacity="0.15" transform="translate(134.656028, 65.301418)" fill="#3F456B">
                        <path d="M14.3843262,0.405319149 C14.3843262,0.405319149 16.6631206,12.6099291 0,13.9609929 L1.80141844,22.0673759 C1.80141844,22.0673759 23.3643972,20.6307447 14.3843262,0.405319149 Z" id="Path"></path>
                    </g>
                    <g id="Group" opacity="0.15" transform="translate(102.230496, 46.386525)" fill="#3F456B">
                        <path d="M29.1334397,25.8008156 L29.1334397,25.8008156 C28.5412489,27.8695534 27.3332881,29.708984 25.6702128,31.0744681 C19.8156028,36.0283688 0,37.3794326 0,30.1737589 C0,22.9680851 8.10638298,25.2198582 8.10638298,25.2198582 C8.10638298,25.2198582 15.3120567,27.0212766 22.0673759,24.3191489 C28.7056028,21.6620567 24.9046099,15.091383 24.7695035,14.8617021 C25.0340435,15.0135728 25.2896634,15.1804776 25.5351064,15.3615957 C25.3004509,15.1205236 25.0424889,14.9032925 24.765,14.7130851 C33.3217376,10.4347163 28.7281206,0.256702128 28.7281206,0.256702128 C41.7658865,11.3219149 31.1420213,23.6751418 29.1334397,25.8008156 Z" id="Path"></path>
                    </g>
                    <g id="Group" opacity="0.15" transform="translate(96.375887, 4.953901)" fill="#3F456B">
                        <path d="M0.337765957,0.0945744681 C0.337765957,0.0945744681 20.7163121,11.7092199 18.9148936,40.5319149 L25.6702128,38.2801418 C25.6702128,38.2801418 26.3457447,6.04375887 0.337765957,0.0945744681 Z" id="Path"></path>
                    </g>
                    <g id="Group" opacity="0.15" transform="translate(27.471631, 72.507092)" fill="#3F456B">
                        <path d="M4.05319149,3.15248227 C4.05319149,3.15248227 5.55111512e-17,4.5035461 0.45035461,9.0070922 C0.90070922,13.5106383 6.75531915,12.6099291 10.358156,11.7092199 C13.9609929,10.8085106 26.1205674,7.20567376 21.1666667,1.35106383 C17.5638298,-1.80141844 4.05319149,3.15248227 4.05319149,3.15248227 Z" id="Path"></path>
                    </g>
                    <g id="Group" opacity="0.15" transform="translate(38.730496, 47.737589)" fill="#3F456B">
                        <path d="M0.117092199,0.283723404 C0.117092199,0.283723404 -0.90070922,11.2588652 14.8617021,11.2588652 C14.8617021,11.2588652 21.1666667,11.7092199 25.2198582,10.358156 C29.2730496,9.0070922 37.8297872,9.90780142 39.6312057,15.3120567 C39.6312057,15.3120567 44.3554255,4.95390071 28.9307801,3.60283688 C13.5061348,2.25177305 8.79092199,9.12868794 0.117092199,0.283723404 Z" id="Path"></path>
                    </g>
                    <g id="Group" opacity="0.15" transform="translate(66.652482, 73.407801)" fill="#3F456B">
                        <path d="M6.30496454,0 C6.30496454,0 -0.90070922,10.358156 11.7092199,10.8085106 C24.3191489,11.2588652 29.7234043,16.212766 29.2730496,21.6170213 C28.822695,27.0212766 22.5177305,26.570922 21.6170213,22.9680851 C20.7163121,19.3652482 16.6631206,17.5638298 9.45744681,17.1134752 C2.25177305,16.6631206 -5.40425532,9.90780142 6.30496454,0 Z" id="Path"></path>
                    </g>
                    <g id="Group" opacity="0.5" transform="translate(55.393617, 98.177305)" fill="#3F456B">
                        <path d="M41.1038652,82.6760993 C40.301369,82.6760993 39.5596563,82.2485132 39.1569183,81.5543934 C38.7541804,80.8602735 38.7512881,80.0042724 39.1493262,79.3074468 C41.0633333,75.9568085 41.5587234,72.4215248 40.5003901,69.602305 C39.4420567,66.7830851 37.0506738,64.77 33.3262411,63.4639716 C24.2245745,60.2799645 25.6702128,51.1557801 26.1205674,48.1519149 L26.183617,47.7420922 C27.1248582,41.7388652 27.94,36.5552837 23.9723759,32.0517376 C22.1214184,29.9575887 19.9191844,29.3225887 17.3476596,28.5885106 C15.4156383,28.0345745 13.2224113,27.4085816 11.1282624,26.0575177 C6.71028369,23.2112766 6.59769504,18.1312766 6.49411348,13.6547518 C6.36351064,7.80014184 5.9491844,5.52134752 2.06262411,4.91787234 C0.846442624,4.71353765 0.0208847705,3.56894068 0.210815102,2.3504266 C0.400745433,1.13191253 1.53549415,0.292869411 2.75617021,0.468368794 C10.7319504,1.71134752 10.8850709,8.57475177 10.9976596,13.5511702 C11.0967376,18.0096809 11.3219149,20.8243972 13.5646809,22.2700355 C15.1003901,23.2608156 16.7937234,23.7471986 18.5906383,24.2606028 C21.4188652,25.0712411 24.6298936,25.9899645 27.3500355,29.0748936 C32.7182624,35.1636879 31.6599291,41.9145035 30.6331206,48.4401418 L30.5700709,48.845461 C29.6198227,54.9027305 30.8087589,57.8075177 34.8079078,59.203617 C41.1128723,61.4058511 43.666383,65.2113475 44.7157092,68.0170567 C46.2379078,72.092766 45.6164184,77.0241489 43.0493972,81.527695 C42.6537257,82.2316612 41.9113831,82.6698495 41.1038652,82.6760993 L41.1038652,82.6760993 Z" id="Path"></path>
                        <path d="M40.4598582,31.799539 C40.3239894,31.7987278 40.1884206,31.7866772 40.054539,31.7635106 C38.8342386,31.535734 38.0284589,30.3633245 38.2531206,29.1424468 C38.536844,27.5797163 38.9376596,23.5895745 36.5147518,20.3920567 C34.677305,17.9646454 31.6058865,16.5280142 27.3860638,16.1271986 C23.0041135,15.7083688 19.9236879,14.1096099 18.2348582,11.3669504 C15.6588298,7.18315603 17.5863475,2.09414894 17.6719149,1.88248227 C18.1196181,0.722184959 19.4231601,0.144513277 20.5834574,0.592216429 C21.7437547,1.03991958 22.3214265,2.3434615 21.8737234,3.50375887 C21.8421986,3.5848227 20.6802837,6.77783688 22.0808865,9.02510638 C22.9815957,10.4842553 24.9226241,11.3669504 27.8139007,11.6416667 C33.3262411,12.1595745 37.465,14.1996809 40.0815603,17.6719149 C42.545,20.9279787 43.4862411,25.4045035 42.6575887,29.9485816 C42.4649881,31.0135274 41.5420453,31.7908419 40.4598582,31.799539 L40.4598582,31.799539 Z" id="Path"></path>
                        <path d="M60.1898936,68.1116312 C60.0859342,68.1108499 59.9821349,68.1033282 59.8791489,68.0891135 C59.590922,68.0485816 52.7590426,67.0352837 48.9895745,60.6672695 C45.6434397,55.0243262 45.8370922,47.2106738 49.5480142,37.4379787 C52.5203546,29.6108156 52.7635461,22.9725887 50.264078,17.7034397 C47.1115957,11.0381915 40.4688652,8.76390071 40.4013121,8.74138298 C39.2186296,8.35461712 38.5734117,7.08232792 38.9601775,5.89964544 C39.3469432,4.71696296 40.6192324,4.07174494 41.8019149,4.45851064 C42.1441844,4.57109929 50.2730851,7.29574468 54.2992553,15.7173759 C57.3796809,22.1529433 57.1950355,30.0026241 53.7543262,39.0592553 C50.552305,47.4808865 50.2550709,53.9840071 52.853617,58.3884752 C55.533227,62.8920213 60.4375887,63.6396099 60.4871277,63.648617 C61.6550584,63.8149333 62.4966409,64.8544643 62.4162049,66.0314322 C62.3357689,67.2084001 61.3605852,68.1237701 60.1808865,68.1296454 L60.1898936,68.1116312 Z" id="Path"></path>
                        <path d="M70.5930851,52.7185225 C70.1741209,52.716831 69.7639336,52.5982978 69.4086525,52.3762411 C63.202766,48.5212057 61.5679787,41.0318085 64.5448227,30.1152128 C66.8416312,21.689078 66.139078,15.0958865 62.4506738,10.5247872 C60.9083295,8.59035549 58.8667749,7.1140826 56.5465248,6.25542553 C55.7734186,6.03097533 55.1787817,5.4111275 54.9866081,4.62937273 C54.7944346,3.84761796 55.0339201,3.02272339 55.6148528,2.46541883 C56.1957855,1.90811426 57.0299079,1.70306752 57.8030142,1.92751773 C61.0131903,3.04153818 63.8413638,5.04359144 65.9589362,7.70106383 C71.7414894,14.8752128 70.7462057,24.4947872 68.8862411,31.2996454 C66.4993617,40.0680496 67.4721277,45.8731206 71.7865248,48.5527305 C72.6428793,49.0834397 73.0425049,50.1183957 72.7650403,51.0869042 C72.4875757,52.0554127 71.6005496,52.7217604 70.5930851,52.7185225 L70.5930851,52.7185225 Z" id="Path"></path>
                    </g>
                    <g id="Group" opacity="0.5" transform="translate(107.184397, 56.744681)" fill="#3F456B">
                        <path d="M16.9333333,24.6749291 C15.7901341,24.672032 14.8305237,23.8129671 14.7016258,22.6770542 C14.5727279,21.5411413 15.3154529,20.4889036 16.4289362,20.2299291 C19.1899476,19.5115137 21.3958828,17.4379347 22.2835461,14.7265957 C23.1518054,12.1540587 22.5570458,9.31300392 20.7298227,7.30475177 C18.5320922,4.70620567 14.0240426,4.69269504 10.6238652,5.13404255 C8.08080715,5.47485662 5.57996411,6.07856043 3.16148936,6.93546099 C1.99870476,7.37694599 0.698187286,6.79221716 0.256702232,5.62943258 C-0.184782823,4.466648 0.399945938,3.1661305 1.5627305,2.72464539 C2.22024823,2.47244681 17.6899291,-3.27858156 24.1705319,4.37744681 C27.0038792,7.58847258 27.9132871,12.0651616 26.5574113,16.1271986 C25.1594084,20.321982 21.7200959,23.5151444 17.433227,24.5983688 C17.2700802,24.6429613 17.1023479,24.66865 16.9333333,24.6749291 L16.9333333,24.6749291 Z" id="Path"></path>
                    </g>
                    <g id="Group" opacity="0.15" transform="translate(209.414894, 90.971631)" fill="#3F456B">
                        <polygon id="Path" points="7.65602837 2.25177305 7.65602837 127 0.225177305 127 0.225177305 0.445851064"></polygon>
                    </g>
                    <g id="Group" opacity="0.5" transform="translate(144.563830, 0.000000)" fill="#FFFFFF">
                        <path d="M0,30.1737589 C0,30.1737589 4.95390071,6.30496454 36.4787234,6.30496454 C68.0035461,6.30496454 72.0567376,31.0744681 72.0567376,31.0744681 C72.0567376,31.0744681 72.9574468,0 36.4787234,0 C0,0 0,30.1737589 0,30.1737589 Z" id="Path"></path>
                    </g>
                    <g id="Group" opacity="0.15" transform="translate(144.563830, 29.723404)" fill="#3F456B">
                        <path d="M72.0567376,0.90070922 C72.0567376,0.90070922 67.1028369,24.7695035 35.5780142,24.7695035 C4.05319149,24.7695035 0,0 0,0 C0,0 -0.90070922,31.0744681 35.5780142,31.0744681 C72.0567376,31.0744681 72.0567376,0.90070922 72.0567376,0.90070922 Z" id="Path"></path>
                    </g>
                    <g id="Group" opacity="0.5" transform="translate(0.000000, 121.145390)" fill="#FFFFFF">
                        <path d="M36.8390071,5.48531915 C32.5567971,5.70574752 28.5382839,7.62102272 25.6702128,10.8085106 C20.7163121,16.212766 8.55673759,44.1347518 8.55673759,44.1347518 C8.55673759,44.1347518 2.40039007,58.8478369 0.752092199,71.755 C0.752092199,71.755 -2.40039007,53.3580142 7.12010638,33.8846809 C16.6406028,14.4113475 20.0407801,7.76411348 20.0407801,7.76411348 C22.5632695,3.73479701 26.6609857,0.949068921 31.3356738,0.0855673759 L36.8390071,5.48531915 Z" id="Path"></path>
                    </g>
                    <g id="Group" opacity="0.5" transform="translate(12.159574, 1.351064)" fill="#FFFFFF">
                        <path d="M0.562943262,59.3342199 C0.562943262,59.3342199 0.90070922,36.4787234 20.2659574,29.7234043 C20.2659574,29.7234043 26.1205674,12.1595745 51.7907801,8.10638298 C77.4609929,4.05319149 93.9754965,9.90780142 101.478404,14.4113475 C101.478404,14.4113475 89.9313121,-4.05319149 51.0386879,1.13039007 C51.0431915,1.13039007 25.2198582,2.25177305 16.6631206,23.8687943 C16.6631206,23.8687943 -2.02659574,30.3989362 0.562943262,59.3342199 Z" id="Path"></path>
                    </g>
                    <g id="Group" opacity="0.5" transform="translate(52.241135, 2.702128)" fill="#3F456B">
                        <path d="M62.8424823,93.2819504 C62.7435173,93.2886442 62.6442132,93.2886442 62.5452482,93.2819504 C61.3132496,93.1207785 60.4446227,91.9921681 60.6042199,90.7599645 C61.009539,87.6525177 60.6042199,85.3962411 59.4468085,84.0586879 C57.4202128,81.7528723 52.8310993,81.7528723 48.7779078,81.7528723 C45.6479433,81.7528723 41.1489007,81.3385461 38.2441135,77.7762411 C35.3393262,74.2139362 34.7358511,68.1701773 36.5282624,59.4603191 C37.712695,53.7092908 37.0596809,49.3588652 34.5331915,46.1703546 C31.0519504,41.7748936 23.6571277,39.3835106 12.5558865,39.0682624 C6.53914894,38.8926241 2.64808511,37.118227 1.01329787,33.7810993 C-1.68882979,28.2552482 3.19751773,21.2162057 3.76496454,20.4280851 C4.49496944,19.420753 5.90335935,19.1959349 6.91069147,19.9259397 C7.91802359,20.6559446 8.14284175,22.0643345 7.41283688,23.0716667 C6.38602837,24.4992908 3.7514539,29.1649645 5.05297872,31.7950355 C6.11131206,33.9342199 9.78620567,34.4971631 12.6819858,34.5647163 C25.3549645,34.925 33.6595035,37.8072695 38.0639716,43.3736525 C41.4191135,47.6159929 42.3873759,53.3309929 40.937234,60.3700355 C39.4555674,67.5757092 39.7257801,72.4665603 41.7343617,74.93 C43.0403901,76.5332624 45.2156028,77.2493262 48.7779078,77.2493262 C53.538156,77.2493262 59.4603191,77.2493262 62.8289716,81.0863475 C64.9276241,83.473227 65.6617021,86.8283688 65.0807447,91.340922 C64.9252796,92.456754 63.9690853,93.2859688 62.8424823,93.2819504 Z" id="Path"></path>
                        <path d="M48.2735106,44.0671986 C47.0758696,44.0689459 46.086409,43.1329162 46.0217376,41.9370213 C45.431773,31.0474468 39.1493262,30.1152128 31.8760993,29.0388652 C28.3498227,28.5164539 24.7064539,27.9760284 21.9142553,26.1115603 C19.5453901,24.5353191 18.1447872,22.373617 17.8610638,19.8606383 C17.5908511,17.4602482 18.3114184,14.8166667 20.0137589,12.0109574 C20.7411634,10.8079814 21.5794702,9.67566415 22.5177305,8.62879433 C23.3683665,7.71970817 24.7949032,7.67232497 25.7039894,8.52296099 C26.6130755,9.37359702 26.6604587,10.8001337 25.8098227,11.7092199 C24.7289716,12.8621277 22.0088298,16.4739716 22.3375887,19.3652482 C22.4771986,20.5451773 23.1527305,21.5269504 24.4137234,22.3691135 C26.3682624,23.6706383 29.3676241,24.1164894 32.5201064,24.5893617 C39.7753191,25.6657092 49.7146454,27.1383688 50.502766,41.7028369 C50.5346635,42.2995082 50.3281017,42.8843928 49.9285664,43.3286964 C49.529031,43.773 48.9692857,44.0402879 48.3725887,44.0717021 L48.2735106,44.0671986 Z" id="Path"></path>
                        <path d="M57.8120213,32.0157092 C56.6890615,32.0126667 55.7399885,31.1827082 55.5872695,30.0701773 C54.5784752,22.7789362 52.1510638,22.4141489 48.1293972,21.7791489 C45.373227,21.3558156 41.9415248,20.8243972 39.0862766,17.7259574 C37.3284837,15.940938 36.4640215,13.4616008 36.730922,10.9706383 C37.0236525,8.47567376 38.4287589,5.93117021 40.9012057,3.41368794 C41.9633015,2.32922292 43.1242406,1.346194 44.3689362,0.477375887 C45.0352922,-0.00827179746 45.9137973,-0.090873907 46.6590008,0.262050811 C47.4042043,0.61497553 47.8969161,1.34697921 47.9433893,2.17021935 C47.9898625,2.9934595 47.5826641,3.77626454 46.8819149,4.2108156 C45.422766,5.20159574 41.5587234,8.43514184 41.2029433,11.5020567 C41.0723404,12.6414539 41.4506383,13.6502482 42.396383,14.6770567 C44.1978014,16.6135816 46.3324823,16.9288298 48.8184397,17.3296454 C53.1688652,18.0006738 58.5821277,18.8383333 60.0457801,29.4531915 C60.2059137,30.6792443 59.3474743,31.8050665 58.122766,31.9751773 C58.0201758,31.9954295 57.9163739,32.0089689 57.8120213,32.0157092 Z" id="Path"></path>
                    </g>
                    <g id="Group" opacity="0.5" transform="translate(175.638298, 89.620567)" fill="#FFFFFF">
                        <path d="M0.90070922,11.5966312 C0.90070922,11.5966312 19.4958511,6.53014184 41.4956738,11.5966312 L41.4956738,3.60283688 C41.4956738,3.60283688 22.0673759,-4.05319149 0,3.60283688 L0.90070922,11.5966312 Z" id="Path"></path>
                    </g>
                    <g id="Group" opacity="0.5" transform="translate(115.741135, 91.421986)" fill="#FFFFFF">
                        <path d="M67.0037589,0 C67.0037589,0 81.7483688,83.7659574 10.259078,126.549645 L0,126.549645 C0,126.549645 68.9042553,90.9716312 59.8971631,1.80141844 L67.0037589,0 Z" id="Path"></path>
                    </g>
                    <g id="Group" opacity="0.15" transform="translate(109.436170, 102.230496)" fill="#3F456B">
                        <path d="M0.117092199,115.741135 C69.1429433,66.2021277 56.9698582,3.25156028 56.9698582,3.25156028 L67.5261702,0.319751773 C67.5261702,0.319751773 75.6595745,70.7056738 6.30496454,115.741135 L0.117092199,115.741135 Z" id="Path"></path>
                    </g>
                    <g id="Group" opacity="0.15" transform="translate(164.379433, 58.095745)" fill="#3F456B">
                        <path d="M1.05833333,0.391808511 C1.05833333,0.391808511 -0.45035461,9.45744681 10.8085106,9.45744681 C22.0673759,9.45744681 22.9680851,2.70212766 22.9680851,2.70212766 C22.9680851,2.70212766 25.062234,15.6948582 10.2770922,15.2805319 C-4.50804965,14.8662057 1.05833333,0.391808511 1.05833333,0.391808511 Z" id="Path"></path>
                    </g>
                    <ellipse id="Oval" fill="#F5F6F7" cx="162.12766" cy="85.1170213" rx="7.20567376" ry="6.09780142"></ellipse>
                    <g id="Group" opacity="0.15" transform="translate(154.921986, 82.414894)" fill="#3F456B">
                        <path d="M0.792624113,0 C0.792624113,0 -0.166631206,4.5035461 7.02553191,4.5035461 C14.217695,4.5035461 14.7986525,1.32404255 14.7986525,1.32404255 C14.7986525,1.32404255 16.1497163,8.79092199 6.6922695,8.55223404 C-2.7651773,8.3135461 0.792624113,0 0.792624113,0 Z" id="Path"></path>
                    </g>
                </g>
                <g id="Lines" fill="#3F456B">
                    <path d="M45.521844,151.247127 C45.2124924,151.248805 44.9060313,151.187513 44.6211348,151.06695 C44.0713738,150.832041 43.6375957,150.388151 43.4154157,149.833123 C43.1932358,149.278096 43.2008939,148.657496 43.4367021,148.108121 C46.2514184,141.546454 45.7920567,137.430213 35.6680851,128.900496 C28.9848227,123.275567 28.0120567,117.357908 28.8767376,113.088546 L25.4585461,113.939716 C25.3682717,113.962756 25.2764656,113.979311 25.1838298,113.989255 C21.7296099,114.394574 19.1625887,113.597447 17.5278014,111.611383 C14.7085816,108.148156 16.4064184,102.698865 16.6270922,102.090887 L21.7251064,86.3284752 C19.6579787,83.7254255 17.9421277,79.9289362 17.7259574,79.4470567 C12.8846454,68.2557447 8.89900709,51.9754255 17.3656738,37.8658156 C20.2606419,33.0204108 24.3036274,28.9619586 29.1379433,26.0485106 C30.4890071,22.4997163 36.4742199,9.87177305 54.411844,4.74673759 C62.4912057,2.43641844 72.6151773,1.26549645 81.4961702,1.59425532 C93.8944326,2.07163121 104.013901,5.1970922 111.629397,10.9481206 C121.595745,18.464539 126.64422,30.0971986 126.64422,45.5083333 C126.64422,46.7519532 125.636067,47.7601064 124.392447,47.7601064 C123.148827,47.7601064 122.140674,46.7519532 122.140674,45.5083333 C122.140674,31.5878723 117.69117,21.1891844 108.918262,14.5509574 C93.1783688,2.70212766 67.1929078,5.77804965 55.6503191,9.07914894 C37.5910993,14.2357092 33.3262411,27.6878014 33.1325887,28.2552482 C32.9550974,28.8555136 32.535754,29.3548096 31.9751773,29.6333333 C27.4784396,32.1940434 23.7339379,35.8919524 21.1171277,40.3562766 C15.2264894,50.3406383 15.4741844,62.8740071 21.8557092,77.618617 C22.423156,78.8931206 24.2696099,82.6040426 25.8593617,84.1937943 C26.4528956,84.789776 26.6647879,85.6668711 26.4087943,86.4680851 L20.9099645,103.491489 C20.518156,104.693936 20.0407801,107.544681 21.0450709,108.769645 C21.738617,109.620816 23.296844,109.670355 24.5218085,109.526241 L32.1147872,107.634752 C33.0344891,107.407998 33.997766,107.781062 34.5248286,108.568129 C35.0518912,109.355195 35.0300333,110.387959 34.4701418,111.152021 C33.992766,111.832057 29.9260638,118.150532 38.5818794,125.43727 C49.4174113,134.561454 51.6061348,140.497128 47.5889716,149.864504 C47.2399848,150.69857 46.4259695,151.243021 45.521844,151.247127 Z" id="Path"></path>
                    <path d="M90.2735816,104.261718 C90.0756564,104.261718 89.8787,104.233954 89.6881206,104.180532 C89.1110927,104.025458 88.6193556,103.647406 88.3211848,103.129619 C88.0230139,102.611833 87.9428588,101.996769 88.0983688,101.419858 C88.4271277,100.194894 88.6928369,98.5465957 88.0983688,97.6548936 C87.2291844,96.371383 84.2793617,96.033617 81.4241135,95.7048582 C79.421449,95.5358147 77.4379613,95.1876493 75.4974468,94.664539 C73.1916312,93.9619858 70.3228723,92.8270922 68.5980142,90.2825887 C66.873156,87.7380851 66.6795035,84.0721986 68.1476596,80.7756028 C69.4311702,77.8753191 71.5703546,75.8217021 73.6374823,73.808617 C75.614539,71.903617 77.4790071,70.1021986 78.3166667,67.7738652 C79.7848227,63.7206738 79.0417376,58.6812057 74.7903901,56.9383333 C70.5390426,55.195461 64.6664184,55.6368085 60.6357447,56.6456028 C54.4793972,58.1678014 42.0225887,58.1632979 38.9016312,47.2467021 C35.1276596,34.1233688 43.8420213,27.7238298 44.2113121,27.4716312 C45.2143622,26.8706451 46.5105124,27.1374133 47.1947058,28.0856608 C47.8788992,29.0339083 47.7234398,30.3480631 46.8368794,31.1104965 C46.5396454,31.3311702 40.3652837,36.0643972 43.2070213,46.008227 C45.9091489,55.5062057 58.9694326,52.4122695 59.5188652,52.2726596 C61.8066667,51.7007092 69.8094681,50.0434043 76.4702128,52.7725532 C79.6185404,54.0492277 82.0004897,56.7087663 82.9237943,59.978227 C83.782619,63.0507089 83.6438497,66.316518 82.5274823,69.3050709 C81.3340426,72.6196809 78.9967021,74.8714539 76.7404255,77.0556738 C74.9029787,78.8300709 73.1646099,80.5053901 72.2368794,82.6040426 C71.4127305,84.4640071 71.4442553,86.4815957 72.3044326,87.7560993 C73.2411702,89.1386879 75.1957092,89.872766 76.8079787,90.3636525 C78.488173,90.8001154 80.2028662,91.0909201 81.9330142,91.2328369 C85.7925532,91.6831915 89.7871986,92.1335461 91.8408156,95.1284043 C93.1153191,97.0018794 93.3224823,99.447305 92.4713121,102.595284 C92.2043783,103.586864 91.3004071,104.272252 90.2735816,104.261718 L90.2735816,104.261718 Z" id="Path"></path>
                    <path d="M32.4255319,222.475287 L2.70212766,222.475287 C2.09543782,222.475287 1.51434578,222.230708 1.09046795,221.796657 C0.666590126,221.362606 0.435794028,220.775877 0.45035461,220.169362 C0.45035461,219.957695 0.945744681,198.579362 0.45035461,185.262376 C-0.0675531915,171.301383 4.98542553,161.024291 5.20159574,160.59195 C5.3141844,160.371277 16.2578014,138.475035 19.2166312,132.061986 C22.4006383,125.167057 28.9532979,122.721631 29.9981206,122.370355 L32.4255319,121.325532 C33.5696622,120.828084 34.9004243,121.352324 35.3978722,122.496454 C35.8953201,123.640584 35.3710806,124.971346 34.2269504,125.468794 L31.6824468,126.549645 C31.6104007,126.580617 31.5367357,126.607677 31.461773,126.630709 C31.412234,126.630709 25.8413475,128.468156 23.3103546,133.948972 C20.32,140.429574 9.68712766,161.704326 9.23677305,162.605035 C6.14083049,169.685969 4.67708787,177.372542 4.95390071,185.095745 C5.35921986,195.944787 5.11602837,212.035957 5.00343972,217.971631 L29.8359929,217.971631 L25.6927305,188.563475 C25.6031553,187.963241 25.7596546,187.352262 26.1267608,186.869004 C26.4938671,186.385746 27.0404964,186.071129 27.642766,185.996454 C28.1246454,185.928901 39.8834043,184.023901 38.2891489,164.091206 C38.2504733,163.634146 38.3543087,163.176326 38.586383,162.780674 C39.5501418,161.109858 41.0858511,157.804255 41.0858511,156.061383 C41.0858773,155.28063 41.490336,154.555609 42.1546715,154.145446 C42.819007,153.735283 43.648399,153.698521 44.3464184,154.048298 C47.7300769,155.578449 51.3506467,156.518244 55.0513475,156.826986 C56.1676204,156.914195 57.0502423,157.808329 57.1229787,158.925638 L58.1272695,173.971986 C58.1407747,174.096218 58.1407747,174.221548 58.1272695,174.34578 L58.1272695,174.34578 C58.1209277,174.931468 58.3273593,175.499555 58.708227,175.944539 C59.4468085,176.723652 60.8519149,176.88578 61.9057447,176.88578 C66.0084752,176.88578 66.5984397,173.282943 66.6795035,172.458794 C66.7290426,171.504043 67.4541135,156.246028 66.3417376,150.004113 C65.0717376,149.16195 61.3202837,147.126348 54.2677305,146.775071 C53.0241106,146.71289 52.0663652,145.654329 52.1285462,144.410709 C52.1907272,143.167089 53.2492879,142.209344 54.4929078,142.271525 C65.2203546,142.807447 69.7239007,146.892163 69.9130496,147.067801 C70.2392175,147.371259 70.4680414,147.764648 70.5705674,148.198191 C72.0837589,154.638262 71.2145745,171.994929 71.1785461,172.729007 C71.1761436,172.748449 71.1761436,172.768112 71.1785461,172.787553 C70.9488652,175.759894 68.7151064,181.384823 61.9102482,181.384823 C59.0324823,181.384823 56.8257447,180.560674 55.3485816,178.93039 C54.1858842,177.607178 53.5721573,175.890032 53.6327305,174.12961 L52.7635461,161.105355 C50.1370041,160.741232 47.5558746,160.102742 45.0624823,159.200355 C44.4897833,161.006019 43.7447703,162.752426 42.8377305,164.415461 C43.2880851,171.24734 42.4864539,180.317482 36.4787234,186.127057 C34.7584249,187.79783 32.6987103,189.078816 30.4394681,189.883014 L34.677305,219.908156 C34.7691907,220.557789 34.5731713,221.21519 34.1405149,221.708418 C33.7078584,222.201646 33.081599,222.481643 32.4255319,222.475287 Z" id="Path"></path>
                    <path d="M37.0236525,88.7423759 C36.1430251,88.7481635 35.2634004,88.6818904 34.3935816,88.5442199 C33.1782622,88.3146397 32.3755902,87.1478136 32.5957496,85.9307523 C32.8159091,84.7136911 33.9764827,83.902005 35.1952128,84.1127305 L35.1952128,84.1127305 C35.2492553,84.1127305 40.4013121,84.9819149 43.5087589,82.113156 C44.4285802,81.3285189 45.8038668,81.4102972 46.6242217,82.2984101 C47.4445766,83.186523 47.4171816,84.5639664 46.5621631,85.4187589 C43.5447872,88.2109574 39.5951773,88.7423759 37.0236525,88.7423759 Z" id="Path"></path>
                    <path d="M23.3103546,191.279113 C20.6162711,191.284046 17.9639234,190.613604 15.5957801,189.329078 C14.5423904,188.719666 14.1637964,187.383571 14.7409062,186.312143 C15.318016,185.240716 16.641986,184.821683 17.730461,185.365957 C20.5956128,186.925598 23.9828158,187.21467 27.0708156,186.163085 C28.221164,185.689266 29.537812,186.237701 30.0116312,187.38805 C30.4854504,188.538398 29.9370151,189.855046 28.7866667,190.328865 C27.0342737,190.976261 25.1784109,191.29829 23.3103546,191.279113 Z" id="Path"></path>
                    <path d="M138.844326,91.9579078 L138.763262,91.9579078 C137.519643,91.9367662 136.528628,90.9114745 136.54977,89.6678546 C136.570911,88.4242348 137.596203,87.4332202 138.839823,87.4543617 C138.871348,87.4543617 144.446738,87.4543617 147.900957,83.82 C150.049149,81.568227 151.003901,78.2581206 150.738191,74.0292908 C150.553546,71.0524468 149.571773,68.7871631 147.81539,67.2964894 C144.743972,64.6844326 140.159362,65.0447163 140.096312,65.0447163 C138.85891,65.1690783 137.754983,64.2667812 137.630621,63.0293794 C137.506259,61.7919776 138.408556,60.6880499 139.645957,60.5636879 C139.911667,60.5366667 146.167092,59.9692199 150.729184,63.846773 C153.431312,66.1615957 154.962518,69.4852128 155.23273,73.7275532 C155.579504,79.2804255 154.201418,83.7254255 151.134504,86.9364539 C146.504858,91.8047872 139.695496,91.9579078 138.844326,91.9579078 Z" id="Path"></path>
                    <path d="M219.322695,222.475177 L46.9359574,222.475177 C45.6923375,222.475177 44.6841844,221.467024 44.6841844,220.223404 L44.6841844,210.666879 C44.6841844,181.997305 54.6865603,176.052624 55.8259574,175.467163 L57.8750709,179.475319 L57.9201064,179.475319 C57.8975887,179.475319 55.7584043,180.745319 53.6237234,185.122766 C51.6016312,189.261525 49.1877305,197.061667 49.1877305,210.689397 L49.1877305,217.971631 L217.070922,217.971631 L217.138475,133.331986 L217.070922,95.4751773 C217.070922,94.2315574 218.079075,93.2234043 219.322695,93.2234043 L219.322695,93.2234043 C220.566315,93.2234043 221.574468,94.2315574 221.574468,95.4751773 L221.642021,133.331986 L221.574468,220.223404 C221.574468,221.467024 220.566315,222.475177 219.322695,222.475177 Z" id="Path"></path>
                    <path d="M165.847589,109.886525 C157.421454,109.886525 152.129787,106.968227 151.810035,106.783582 C132.399752,95.6057801 132.746525,74.8759574 132.773546,73.997766 C132.788173,73.4828251 132.978922,72.9884683 133.313972,72.5971631 C136.691631,68.6520567 138.29039,63.4099291 137.484255,58.9108865 C136.81773,55.2179787 134.624504,52.2366312 131.129752,50.2956028 C122.532482,45.521844 115.858227,51.1017376 115.790674,51.1557801 C114.845281,51.9489895 113.437572,51.8334709 112.63414,50.8967504 C111.830707,49.9600299 111.930928,48.5511488 112.858865,47.7375887 C113.228156,47.4223404 122.010071,40.0815603 133.318475,46.3595035 C138.033688,48.9805674 141.006028,53.042766 141.915745,58.1182624 C142.924539,63.7431915 141.195177,69.9445745 137.281596,74.8624468 C137.385177,78.4652837 138.745248,94.0655674 154.043794,102.874504 C154.124858,102.915035 163.951596,108.238227 177.998156,103.158227 C179.168402,102.735396 180.459847,103.341296 180.882677,104.511543 C181.305508,105.681789 180.699608,106.973233 179.529362,107.396064 C175.148552,109.016459 170.518395,109.859276 165.847589,109.886525 L165.847589,109.886525 Z" id="Path"></path>
                    <path d="M104.702943,222.475189 C103.526406,222.478948 102.545288,221.576319 102.45117,220.403546 C101.302766,206.181348 105.729752,191.369184 105.914397,190.747695 C106.275047,189.556307 107.533222,188.882861 108.72461,189.243511 C109.915998,189.604161 110.589444,190.862336 110.228794,192.053723 C110.183759,192.197837 105.860355,206.690248 106.936702,220.043262 C107.040649,221.280104 106.12414,222.367829 104.887589,222.475189 L104.702943,222.475189 Z" id="Path"></path>
                    <path d="M16.7306738,72.340461 C15.8919279,72.3397228 15.1231033,71.8728744 14.7356028,71.1290071 C13.4791135,68.7241135 13.4250709,64.1304965 15.7939362,60.3610284 C17.6989362,57.3256383 21.7521277,53.7723404 30.2458156,54.0560638 C33.8126241,54.173156 36.2670567,53.3940426 37.5460638,51.7457447 C39.5051064,49.2147518 38.388227,45.1480496 38.3747163,45.1075177 C38.1486571,44.3352159 38.3517879,43.5009785 38.9075913,42.9190546 C39.4633947,42.3371307 40.2874309,42.0959284 41.0692935,42.2863063 C41.851156,42.4766843 42.4720614,43.0697195 42.6981206,43.8420213 C42.7746809,44.0942199 44.499539,50.1469858 41.1038652,54.5019149 C38.8926241,57.3571631 35.1907092,58.7217376 30.1017021,58.5551064 C25.012695,58.3884752 21.441383,59.8476241 19.6084397,62.765922 C18.0186879,65.2924113 18.2573759,68.1701773 18.7077305,69.0708865 C19.0733812,69.7689604 19.047498,70.607392 18.6394841,71.281582 C18.2314702,71.955772 17.5006999,72.3674823 16.7126596,72.3674823 L16.7306738,72.340461 Z" id="Path"></path>
                    <path d="M31.9751773,81.063836 C30.9774191,81.0661585 30.0971002,80.4116091 29.8120188,79.455442 C29.5269374,78.4992749 29.9050793,77.4695152 30.7412057,76.9250709 C31.1915603,76.6233333 42.2747872,69.5392553 52.754539,74.5291844 C53.5391356,74.8373315 54.0859216,75.5578856 54.1715105,76.3964684 C54.2570993,77.2350511 53.8671561,78.0512114 53.16099,78.5115112 C52.4548239,78.971811 51.5507081,78.9991565 50.8180142,78.5823759 C42.644078,74.6913121 33.2902128,80.6314894 33.1956383,80.6900355 C32.8341756,80.9314089 32.4098156,81.0613789 31.9751773,81.063836 L31.9751773,81.063836 Z" id="Path"></path>
                    <path d="M189.599291,65.3014184 C188.355671,65.390959 187.274931,64.4553929 187.18539,63.211773 C187.09585,61.9681532 188.031416,60.887413 189.275035,60.7978723 C205.38422,58.4560284 217.070922,46.7062766 217.070922,32.8758865 C217.070922,17.2305674 201.718333,4.5035461 182.843972,4.5035461 C163.96961,4.5035461 148.617021,17.2305674 148.617021,32.8758865 C148.617021,43.8870567 156.421667,54.0020213 168.495674,58.6361702 C169.657215,59.0813861 170.237911,60.38392 169.792695,61.545461 C169.347479,62.707002 168.044945,63.2876982 166.883404,62.8424823 C153.048511,57.5328014 144.113475,45.769539 144.113475,32.8758865 C144.113475,14.7491135 161.488156,0 182.843972,0 C204.199787,0 221.574468,14.7491135 221.574468,32.8758865 C221.574468,48.9625532 208.266489,62.5992908 189.932553,65.2698936 C189.822501,65.2893941 189.711048,65.299937 189.599291,65.3014184 L189.599291,65.3014184 Z" id="Path"></path>
                    <path d="M80.0370213,169.729645 C76.5647872,169.729645 73.6690071,168.302021 71.8180496,165.653936 C68.8952482,161.470142 68.9628014,154.899468 71.9936879,148.090106 C73.0610284,145.685213 73.1646099,143.775709 72.3044326,142.235496 C70.8272695,139.62344 66.6029433,138.22734 63.1442199,137.795 C56.5465248,136.970851 52.7860638,133.813865 51.6691844,119.510603 C51.3719504,115.669078 50.2730851,113.138085 48.408617,111.998688 C45.7064894,110.35039 41.959539,111.886099 41.9235106,111.904113 C40.7793803,112.391612 39.4566834,111.859308 38.9691844,110.715177 C38.4816854,109.571047 39.0139902,108.24835 40.1581206,107.760851 C40.3968085,107.65727 46.0397518,105.297411 50.7234397,108.134645 C53.9164539,110.066667 55.7448936,113.777589 56.1592199,119.168333 C57.1860284,132.51234 60.3475177,132.908652 63.7026596,133.327482 C66.5308865,133.678759 73.412305,135.03883 76.2225177,140.024255 C77.8122695,142.829965 77.7717376,146.153582 76.1054255,149.900532 C73.7951064,155.106631 73.560922,160.258688 75.5109574,163.068901 C76.6053191,164.636135 78.3211702,165.352199 80.6134752,165.199078 C81.4179562,165.145982 82.1896536,165.526105 82.6378764,166.196258 C83.0860991,166.866412 83.1427516,167.724783 82.7864934,168.448031 C82.4302351,169.17128 81.7151902,169.649528 80.9107092,169.702624 C80.6134752,169.720638 80.3252482,169.729645 80.0370213,169.729645 Z" id="Path"></path>
                    <path d="M118.218085,222.475177 C117.220011,222.475177 116.341411,221.81707 116.059393,220.859669 C115.777376,219.902267 116.159242,218.873456 116.997624,218.331915 C133.624716,207.613475 147.054291,194.463121 156.90805,179.295177 C164.829993,167.038989 170.496088,153.464763 173.638723,139.213617 C179.13305,114.615248 175.710355,95.6057801 175.674326,95.4166312 C175.455126,94.2334764 176.204865,93.08705 177.376667,92.8135816 C204.848298,86.4050355 219.457801,93.1333333 220.06578,93.4260638 C221.078631,94.0148321 221.47081,95.2818791 220.967672,96.3398802 C220.464534,97.3978814 219.23419,97.8933284 218.138262,97.4792553 L218.138262,97.4792553 C218.003156,97.4162057 204.906844,91.4985461 180.434574,96.7316667 C181.204681,102.518723 182.686348,119.249397 178.034184,140.181879 C174.773066,154.949033 168.898086,169.014212 160.686525,181.713582 C150.481489,197.439965 136.606064,211.02266 119.438546,222.083369 C119.078274,222.329449 118.654272,222.465568 118.218085,222.475177 Z" id="Path"></path>
                    <path d="M177.890071,77.9113475 C170.193511,77.9113475 163.929078,72.4575532 163.929078,65.751773 C163.940788,63.0174216 164.962468,60.3838291 166.797837,58.3569504 C167.32364,57.7339825 168.145086,57.4438495 168.945507,57.5983977 C169.745927,57.7529458 170.400312,58.3280378 170.656396,59.1019753 C170.912479,59.8759128 170.730266,60.7278217 170.18,61.3292908 C169.072517,62.5377892 168.450265,64.1126647 168.432624,65.751773 C168.432624,69.9715957 172.674965,73.4078014 177.890071,73.4078014 C183.105177,73.4078014 187.347518,69.9715957 187.347518,65.751773 C187.402476,64.4103172 187.042335,63.084558 186.316206,61.9552837 C185.902702,61.265039 185.888851,60.4066251 186.279869,59.7033984 C186.670886,59.0001717 187.407369,58.558969 188.21189,58.5459871 C189.016411,58.5330051 189.766745,58.9502162 190.180248,59.640461 C191.328819,61.4677176 191.910228,63.5943251 191.851064,65.751773 C191.851064,72.4575532 185.586631,77.9113475 177.890071,77.9113475 Z" id="Path"></path>
                    <path d="M164.379433,95.7183688 C159.164326,95.7183688 154.921986,91.9714184 154.921986,87.3687943 C154.921986,82.7661702 159.164326,79.0192199 164.379433,79.0192199 C169.594539,79.0192199 173.836879,82.7661702 173.836879,87.3687943 C173.836879,91.9714184 169.594539,95.7183688 164.379433,95.7183688 Z M164.379433,83.522766 C161.64578,83.522766 159.425532,85.2476241 159.425532,87.3687943 C159.425532,89.4899645 161.64578,91.2148227 164.379433,91.2148227 C167.113085,91.2148227 169.333333,89.4899645 169.333333,87.3687943 C169.333333,85.2476241 167.113085,83.522766 164.379433,83.522766 L164.379433,83.522766 Z" id="Shape"></path>
                    <path d="M196.079894,43.2342605 C193.090042,43.2515401 190.189609,42.2151016 187.887943,40.3067376 C187.829397,40.2617021 187.779858,40.2121631 187.725816,40.1626241 L182.843972,35.1862057 L177.953121,40.1671277 C177.903582,40.2166667 177.854043,40.2662057 177.8,40.3112411 C175.496553,42.2159483 172.596947,43.2504969 169.60805,43.2342605 C162.893262,43.2342605 157.448475,38.1855674 157.448475,31.9751773 C157.448475,25.7647872 162.911277,20.7163121 169.60805,20.7163121 C172.754989,20.6914095 175.798066,21.841195 178.14227,23.9408511 L178.236844,24.030922 L182.866489,28.7596454 L187.887943,23.6571277 C187.949186,23.5950348 188.013837,23.536398 188.081596,23.4814894 C190.355806,21.6772786 193.176964,20.7019457 196.079894,20.7163121 C202.794681,20.7163121 208.239468,25.7647872 208.239468,31.9751773 C208.239468,38.1855674 202.794681,43.2342605 196.079894,43.2342605 Z M190.864787,36.929078 C192.343289,38.1131927 194.185764,38.7496261 196.079894,38.7304965 C200.308723,38.7304965 203.735922,35.6996099 203.735922,31.9751773 C203.735922,28.2507447 200.290709,25.2198582 196.079894,25.2198582 C194.245608,25.2051852 192.458518,25.8008818 190.999894,26.9131915 L186.018972,31.9751773 L190.864787,36.929078 Z M169.60805,25.2198582 C165.37922,25.2198582 161.952021,28.2507447 161.952021,31.9751773 C161.952021,35.6996099 165.397234,38.7304965 169.60805,38.7304965 C171.50218,38.7496261 173.344654,38.1131927 174.823156,36.929078 L179.691489,31.9751773 L175.052837,27.2419504 C173.547751,25.9222527 171.609695,25.2024949 169.60805,25.2198582 Z" id="Shape"></path>
                    <path d="M153.422305,222.475193 C152.431458,222.475193 151.556893,221.827925 151.267902,220.880158 C150.978911,219.932392 151.343413,218.907091 152.165816,218.354433 C171.395957,205.438262 180.177872,180.55617 180.26344,180.308475 C180.66886,179.132011 181.951231,178.506956 183.127695,178.912376 C184.304159,179.317796 184.929214,180.600167 184.523794,181.776631 C184.15,182.852979 175.18344,208.320532 154.674291,222.092376 C154.305169,222.343426 153.868706,222.476877 153.422305,222.475193 Z" id="Path"></path>
                </g>
            </g>
        </g>
    </g>
</svg>