<?xml version="1.0" encoding="UTF-8"?>
<svg width="120px" height="121px" viewBox="0 0 120 121" version="1.1" xmlns="http://www.w3.org/2000/svg" xmlns:xlink="http://www.w3.org/1999/xlink">
    <title>BB8CC5E1-FCC8-4049-A47F-5342CEB30D32</title>
    <g id="Style-guide" stroke="none" stroke-width="1" fill="none" fill-rule="evenodd">
        <g id="Styleguide" transform="translate(-1033.000000, -3441.000000)" fill-rule="nonzero">
            <g id="iconfinder_principal_4887505" transform="translate(1033.000000, 3441.000000)">
                <g id="Group" transform="translate(8.352000, 98.136000)">
                    <rect id="Rectangle" fill="#99A2B9" x="1.392" y="1.392" width="83.52" height="18.792"></rect>
                    <path d="M84.912,21.228 L1.392,21.228 C0.815712,21.228 0.348,20.760288 0.348,20.184 L0.348,1.392 C0.348,0.815712 0.815712,0.348 1.392,0.348 L84.912,0.348 C85.488288,0.348 85.956,0.815712 85.956,1.392 L85.956,20.184 C85.956,20.760288 85.488288,21.228 84.912,21.228 Z M2.436,19.14 L83.868,19.14 L83.868,2.436 L2.436,2.436 L2.436,19.14 Z" id="Shape" fill="#212A41"></path>
                </g>
                <g id="Group" transform="translate(0.000000, 91.872000)">
                    <path d="M99.528,7.656 L3.48,7.656 C2.327424,7.656 1.392,6.720576 1.392,5.568 L1.392,3.48 C1.392,2.327424 2.327424,1.392 3.48,1.392 L99.528,1.392 C100.680576,1.392 101.616,2.327424 101.616,3.48 L101.616,5.568 C101.616,6.720576 100.680576,7.656 99.528,7.656 Z" id="Path" fill="#99A2B9"></path>
                    <path d="M99.528,8.7 L3.48,8.7 C1.753224,8.7 0.348,7.294776 0.348,5.568 L0.348,3.48 C0.348,1.753224 1.753224,0.348 3.48,0.348 L99.528,0.348 C101.254776,0.348 102.66,1.753224 102.66,3.48 L102.66,5.568 C102.66,7.294776 101.254776,8.7 99.528,8.7 Z M3.48,2.436 C2.903712,2.436 2.436,2.9058 2.436,3.48 L2.436,5.568 C2.436,6.1422 2.903712,6.612 3.48,6.612 L99.528,6.612 C100.104288,6.612 100.572,6.1422 100.572,5.568 L100.572,3.48 C100.572,2.9058 100.104288,2.436 99.528,2.436 L3.48,2.436 Z" id="Shape" fill="#212A41"></path>
                </g>
                <g id="Group" transform="translate(16.704000, 91.872000)">
                    <path d="M99.528,7.656 L3.48,7.656 C2.327424,7.656 1.392,6.720576 1.392,5.568 L1.392,3.48 C1.392,2.327424 2.327424,1.392 3.48,1.392 L99.528,1.392 C100.680576,1.392 101.616,2.327424 101.616,3.48 L101.616,5.568 C101.616,6.720576 100.680576,7.656 99.528,7.656 Z" id="Path" fill="#B7C0D7"></path>
                    <path d="M99.528,8.7 L3.48,8.7 C1.753224,8.7 0.348,7.294776 0.348,5.568 L0.348,3.48 C0.348,1.753224 1.753224,0.348 3.48,0.348 L99.528,0.348 C101.254776,0.348 102.66,1.753224 102.66,3.48 L102.66,5.568 C102.66,7.294776 101.254776,8.7 99.528,8.7 Z M3.48,2.436 C2.903712,2.436 2.436,2.9058 2.436,3.48 L2.436,5.568 C2.436,6.1422 2.903712,6.612 3.48,6.612 L99.528,6.612 C100.104288,6.612 100.572,6.1422 100.572,5.568 L100.572,3.48 C100.572,2.9058 100.104288,2.436 99.528,2.436 L3.48,2.436 Z" id="Shape" fill="#212A41"></path>
                </g>
                <g id="Group" transform="translate(73.080000, 20.880000)">
                    <circle id="Oval" fill="#E0C8A4" cx="7.656" cy="7.656" r="6.264"></circle>
                    <path d="M7.656,14.964 C3.62616,14.964 0.348,11.68584 0.348,7.656 C0.348,3.62616 3.62616,0.348 7.656,0.348 C11.68584,0.348 14.964,3.62616 14.964,7.656 C14.964,11.68584 11.68584,14.964 7.656,14.964 Z M7.656,2.436 C4.778736,2.436 2.436,4.776648 2.436,7.656 C2.436,10.535352 4.778736,12.876 7.656,12.876 C10.533264,12.876 12.876,10.535352 12.876,7.656 C12.876,4.776648 10.533264,2.436 7.656,2.436 Z" id="Shape" fill="#212A41"></path>
                </g>
                <g id="Group" transform="translate(31.320000, 4.176000)">
                    <path d="M36.888,1.392 L20.184,1.392 C13.264368,1.392 7.656,7.000368 7.656,13.92 L7.656,18.096 C4.196184,18.096 1.392,20.900184 1.392,24.36 C1.392,27.819816 4.196184,30.624 7.656,30.624 L7.656,34.8 C7.656,41.719632 13.264368,47.328 20.184,47.328 L36.888,47.328 C43.807632,47.328 49.416,41.719632 49.416,34.8 L49.416,13.92 C49.416,7.000368 43.807632,1.392 36.888,1.392 Z" id="Path" fill="#E0C8A4"></path>
                    <path d="M36.888,48.372 L20.184,48.372 C12.700608,48.372 6.612,42.283392 6.612,34.8 L6.612,31.59492 C3.074928,31.085448 0.348,28.03488 0.348,24.36 C0.348,20.68512 3.074928,17.634552 6.612,17.12508 L6.612,13.92 C6.612,6.436608 12.700608,0.348 20.184,0.348 L36.888,0.348 C44.371392,0.348 50.46,6.436608 50.46,13.92 L50.46,34.8 C50.46,42.283392 44.371392,48.372 36.888,48.372 Z M20.184,2.436 C13.851096,2.436 8.7,7.589184 8.7,13.92 L8.7,18.096 C8.7,18.672288 8.232288,19.14 7.656,19.14 C4.778736,19.14 2.436,21.480648 2.436,24.36 C2.436,27.239352 4.778736,29.58 7.656,29.58 C8.232288,29.58 8.7,30.047712 8.7,30.624 L8.7,34.8 C8.7,41.130816 13.851096,46.284 20.184,46.284 L36.888,46.284 C43.220904,46.284 48.372,41.130816 48.372,34.8 L48.372,13.92 C48.372,7.589184 43.220904,2.436 36.888,2.436 L20.184,2.436 Z" id="Shape" fill="#212A41"></path>
                </g>
                <path d="M51.504,48.372 C46.323672,48.372 42.108,44.156328 42.108,38.976 C42.108,38.399712 42.575712,37.932 43.152,37.932 C43.728288,37.932 44.196,38.399712 44.196,38.976 C44.196,43.00584 47.47416,46.284 51.504,46.284 C52.080288,46.284 52.548,46.751712 52.548,47.328 C52.548,47.904288 52.080288,48.372 51.504,48.372 Z" id="Path" fill="#FEE6C2"></path>
                <path d="M68.208,48.372 C67.631712,48.372 67.164,47.904288 67.164,47.328 C67.164,46.751712 67.631712,46.284 68.208,46.284 C72.23784,46.284 75.516,43.00584 75.516,38.976 C75.516,38.399712 75.983712,37.932 76.56,37.932 C77.136288,37.932 77.604,38.399712 77.604,38.976 C77.604,44.156328 73.388328,48.372 68.208,48.372 Z" id="Path" fill="#C2AA86"></path>
                <g id="Group" transform="translate(14.616000, 56.376000)">
                    <path d="M55.68,1.392 L18.096,1.392 C8.871216,1.392 1.392,8.871216 1.392,18.096 L1.392,36.888 L72.384,36.888 L72.384,18.096 C72.384,8.871216 64.904784,1.392 55.68,1.392 Z" id="Path" fill="#005B8A"></path>
                    <path d="M72.384,37.932 L1.392,37.932 C0.815712,37.932 0.348,37.464288 0.348,36.888 L0.348,18.096 C0.348,8.309544 8.309544,0.348 18.096,0.348 L55.68,0.348 C65.466456,0.348 73.428,8.309544 73.428,18.096 L73.428,36.888 C73.428,37.464288 72.960288,37.932 72.384,37.932 Z M2.436,35.844 L71.34,35.844 L71.34,18.096 C71.34,9.460032 64.315968,2.436 55.68,2.436 L18.096,2.436 C9.460032,2.436 2.436,9.460032 2.436,18.096 L2.436,35.844 Z" id="Shape" fill="#212A41"></path>
                </g>
                <g id="Group" transform="translate(31.320000, 56.376000)">
                    <path d="M1.392,18.096 L1.392,36.888 L72.384,36.888 L72.384,18.096 C72.384,8.871216 64.904784,1.392 55.68,1.392 L18.096,1.392 C8.871216,1.392 1.392,8.871216 1.392,18.096 Z" id="Path" fill="#E0E0E0"></path>
                    <path d="M72.384,37.932 L1.392,37.932 C0.815712,37.932 0.348,37.464288 0.348,36.888 L0.348,18.096 C0.348,8.309544 8.309544,0.348 18.096,0.348 L55.68,0.348 C65.466456,0.348 73.428,8.309544 73.428,18.096 L73.428,36.888 C73.428,37.464288 72.960288,37.932 72.384,37.932 Z M2.436,35.844 L71.34,35.844 L71.34,18.096 C71.34,9.460032 64.315968,2.436 55.68,2.436 L18.096,2.436 C9.460032,2.436 2.436,9.460032 2.436,18.096 L2.436,35.844 Z" id="Shape" fill="#212A41"></path>
                </g>
                <g id="Group" transform="translate(50.112000, 50.112000)">
                    <rect id="Rectangle" fill="#E8D2A8" x="1.392" y="1.392" width="16.704" height="6.264"></rect>
                    <path d="M18.096,8.7 L1.392,8.7 C0.815712,8.7 0.348,8.232288 0.348,7.656 L0.348,1.392 C0.348,0.815712 0.815712,0.348 1.392,0.348 L18.096,0.348 C18.672288,0.348 19.14,0.815712 19.14,1.392 L19.14,7.656 C19.14,8.232288 18.672288,8.7 18.096,8.7 Z M2.436,6.612 L17.052,6.612 L17.052,2.436 L2.436,2.436 L2.436,6.612 Z" id="Shape" fill="#212A41"></path>
                </g>
                <g id="Group" transform="translate(31.668000, 56.724000)">
                    <path d="M36.54,32.364 L36.54,36.54 L1.044,36.54 L1.044,17.748 C1.044,8.523216 8.523216,1.044 17.748,1.044 L26.1,1.044 L36.54,32.364 Z" id="Path" fill="#0079A8"></path>
                    <path d="M36.54,37.584 L1.044,37.584 C0.467712,37.584 0,37.116288 0,36.54 L0,17.748 C0,7.961544 7.961544,0 17.748,0 L26.1,0 C26.54892,0 26.947728,0.288144 27.089712,0.714096 L37.529712,32.034096 C37.565208,32.140584 37.584,32.251248 37.584,32.364 L37.584,36.54 C37.584,37.116288 37.116288,37.584 36.54,37.584 Z M2.088,35.496 L35.496,35.496 L35.496,32.533128 L25.34832,2.088 L17.748,2.088 C9.112032,2.088 2.088,9.112032 2.088,17.748 L2.088,35.496 Z" id="Shape" fill="#212A41"></path>
                </g>
                <path d="M20.184,90.132 C19.607712,90.132 19.14,89.664288 19.14,89.088 L19.14,74.472 C19.14,66.988608 25.228608,60.9 32.712,60.9 C33.288288,60.9 33.760176,61.367712 33.760176,61.944 C33.760176,62.520288 33.298728,62.988 32.720352,62.988 L32.712,62.988 C26.379096,62.988 21.228,68.141184 21.228,74.472 L21.228,89.088 C21.228,89.664288 20.760288,90.132 20.184,90.132 Z" id="Path" fill="#0079A8"></path>
                <g id="Group" transform="translate(66.816000, 56.376000)">
                    <path d="M1.392,32.712 L1.392,36.888 L36.888,36.888 L36.888,18.096 C36.888,8.871216 29.408784,1.392 20.184,1.392 L11.832,1.392 L1.392,32.712 Z" id="Path" fill="#0079A8"></path>
                    <path d="M36.888,37.932 L1.392,37.932 C0.815712,37.932 0.348,37.464288 0.348,36.888 L0.348,32.712 C0.348,32.599248 0.366792,32.488584 0.402288,32.382096 L10.842288,1.062096 C10.984272,0.636144 11.38308,0.348 11.832,0.348 L20.184,0.348 C29.970456,0.348 37.932,8.309544 37.932,18.096 L37.932,36.888 C37.932,37.464288 37.464288,37.932 36.888,37.932 Z M2.436,35.844 L35.844,35.844 L35.844,18.096 C35.844,9.460032 28.819968,2.436 20.184,2.436 L12.58368,2.436 L2.436,32.881128 L2.436,35.844 Z" id="Shape" fill="#212A41"></path>
                </g>
                <path d="M36.888,90.132 C36.311712,90.132 35.844,89.664288 35.844,89.088 L35.844,74.472 C35.844,66.988608 41.932608,60.9 49.416,60.9 C49.992288,60.9 50.46,61.367712 50.46,61.944 C50.46,62.520288 49.992288,62.988 49.416,62.988 C43.083096,62.988 37.932,68.141184 37.932,74.472 L37.932,89.088 C37.932,89.664288 37.464288,90.132 36.888,90.132 Z" id="Path" fill="#1E97C6"></path>
                <path d="M99.528,90.132 C98.951712,90.132 98.484,89.664288 98.484,89.088 L98.484,74.472 C98.484,68.141184 93.332904,62.988 87,62.988 C86.423712,62.988 85.956,62.520288 85.956,61.944 C85.956,61.367712 86.423712,60.9 87,60.9 C94.483392,60.9 100.572,66.988608 100.572,74.472 L100.572,89.088 C100.572,89.664288 100.104288,90.132 99.528,90.132 Z" id="Path" fill="#005B8A"></path>
                <g id="Group" transform="translate(48.024000, 56.376000)">
                    <polygon id="Path" fill="#0079A8" points="9.744 1.392 1.392 9.744 20.184 32.712"></polygon>
                    <path d="M20.184,33.756 C19.879152,33.756 19.57848,33.624456 19.373856,33.371808 L0.581856,10.403808 C0.241512,9.990384 0.272832,9.384864 0.652848,9.004848 L9.004848,0.652848 C9.261672,0.398112 9.631248,0.28536 9.982032,0.375144 C10.334904,0.456576 10.618872,0.717576 10.731624,1.060008 L21.171624,32.380008 C21.3324,32.85816 21.127776,33.38016 20.68512,33.624456 C20.530608,33.712152 20.357304,33.756 20.184,33.756 Z M2.797224,9.812904 L17.398608,27.65904 L9.286728,3.325488 L2.797224,9.812904 Z" id="Shape" fill="#212A41"></path>
                </g>
                <g id="Group" transform="translate(66.816000, 56.376000)">
                    <polygon id="Path" fill="#0079A8" points="11.832 1.392 20.184 9.744 1.392 32.712"></polygon>
                    <path d="M1.392,33.756 C1.220784,33.756 1.04748,33.712152 0.888792,33.626544 C0.448224,33.384336 0.241512,32.860248 0.402288,32.382096 L10.842288,1.062096 C10.957128,0.719664 11.239008,0.458664 11.59188,0.377232 C11.944752,0.287448 12.314328,0.4002 12.569064,0.654936 L20.921064,9.006936 C21.30108,9.386952 21.330312,9.992472 20.992056,10.405896 L2.200056,33.373896 C1.995432,33.624456 1.696848,33.756 1.392,33.756 Z M12.289272,3.325488 L4.175304,27.65904 L18.776688,9.812904 L12.289272,3.325488 Z" id="Shape" fill="#212A41"></path>
                </g>
                <g id="Group" transform="translate(61.248000, 64.728000)">
                    <polygon id="Path" fill="#D32E5E" points="9.048 1.392 4.872 1.392 1.17624 7.00872 6.96 24.36 12.599688 7.438848"></polygon>
                    <path d="M6.96,25.404 C6.51108,25.404 6.112272,25.115856 5.970288,24.689904 L0.186528,7.338624 C0.084216,7.033776 0.128064,6.701784 0.305544,6.43452 L4.001304,0.8178 C4.1934,0.52548 4.521216,0.348 4.872,0.348 L9.048,0.348 C9.417576,0.348 9.760008,0.544272 9.947928,0.863736 L13.499616,6.910584 C13.65204,7.169496 13.685448,7.482696 13.5894,7.768752 L7.949712,24.689904 C7.807728,25.115856 7.40892,25.404 6.96,25.404 Z M2.326728,7.161144 L6.96,21.058872 L11.45964,7.559952 L8.450832,2.436 L5.43576,2.436 L2.326728,7.161144 Z" id="Shape" fill="#212A41"></path>
                </g>
                <path d="M70.296,67.164 L66.12,67.164 C65.725368,67.164 65.364144,66.940584 65.186664,66.587712 L61.010664,58.235712 C60.8478,57.912072 60.866592,57.52788 61.0566,57.220944 C61.246608,56.914008 61.582776,56.724 61.944,56.724 L74.472,56.724 C74.833224,56.724 75.169392,56.91192 75.3594,57.218856 C75.549408,57.525792 75.5682,57.909984 75.405336,58.233624 L71.229336,66.585624 C71.051856,66.940584 70.690632,67.164 70.296,67.164 Z M66.765192,65.076 L69.650808,65.076 L72.782808,58.812 L63.633192,58.812 L66.765192,65.076 Z" id="Shape" fill="#212A41"></path>
                <g id="Group" transform="translate(37.584000, 0.000000)">
                    <path d="M36.888,16.008 L1.392,16.008 L1.392,9.744 C1.392,5.131608 5.131608,1.392 9.744,1.392 L45.24,1.392 L45.24,7.656 C45.24,12.268392 41.500392,16.008 36.888,16.008 Z" id="Path" fill="#F9AC2F"></path>
                    <path d="M36.888,17.052 L1.392,17.052 C0.815712,17.052 0.348,16.584288 0.348,16.008 L0.348,9.744 C0.348,4.563672 4.563672,0.348 9.744,0.348 L45.24,0.348 C45.816288,0.348 46.284,0.815712 46.284,1.392 L46.284,7.656 C46.284,12.836328 42.068328,17.052 36.888,17.052 Z M2.436,14.964 L36.888,14.964 C40.91784,14.964 44.196,11.68584 44.196,7.656 L44.196,2.436 L9.744,2.436 C5.71416,2.436 2.436,5.71416 2.436,9.744 L2.436,14.964 Z" id="Shape" fill="#212A41"></path>
                </g>
                <path d="M74.472,12.876 C73.895712,12.876 73.428,12.408288 73.428,11.832 C73.428,11.255712 73.895712,10.788 74.472,10.788 C76.198776,10.788 77.604,9.382776 77.604,7.656 L77.604,5.568 C77.604,4.991712 78.071712,4.524 78.648,4.524 C79.224288,4.524 79.692,4.991712 79.692,5.568 L79.692,7.656 C79.692,10.535352 77.349264,12.876 74.472,12.876 Z" id="Path" fill="#DB8E11"></path>
                <g id="Group" transform="translate(33.408000, 4.176000)">
                    <path d="M3.48,18.096 L1.392,18.096 L1.392,5.568 C1.392,3.26076 3.26076,1.392 5.568,1.392 L11.832,1.392 L11.832,9.744 C11.832,14.356392 8.092392,18.096 3.48,18.096 Z" id="Path" fill="#DB8E11"></path>
                    <path d="M3.48,19.14 L1.392,19.14 C0.815712,19.14 0.348,18.672288 0.348,18.096 L0.348,5.568 C0.348,2.688648 2.690736,0.348 5.568,0.348 L11.832,0.348 C12.408288,0.348 12.876,0.815712 12.876,1.392 L12.876,9.744 C12.876,14.924328 8.660328,19.14 3.48,19.14 Z M2.436,17.052 L3.48,17.052 C7.50984,17.052 10.788,13.77384 10.788,9.744 L10.788,2.436 L5.568,2.436 C3.841224,2.436 2.436,3.841224 2.436,5.568 L2.436,17.052 Z" id="Shape" fill="#212A41"></path>
                </g>
                <path d="M38.976,18.578328 C38.399712,18.578328 37.932,18.110616 37.932,17.534328 L37.932,9.744 C37.932,9.167712 38.399712,8.7 38.976,8.7 C39.552288,8.7 40.02,9.167712 40.02,9.744 L40.02,17.534328 C40.02,18.112704 39.552288,18.578328 38.976,18.578328 Z" id="Path" fill="#F9AC2F"></path>
                <path d="M38.976,35.844 C37.02372,35.844 35.188368,35.083968 33.8082,33.7038 C32.428032,32.323632 31.668,30.490368 31.668,28.536 C31.668,26.581632 32.428032,24.748368 33.8082,23.3682 C36.566448,20.607864 41.383464,20.607864 44.141712,23.3682 C44.548872,23.77536 44.548872,24.437256 44.141712,24.844416 C43.734552,25.251576 43.072656,25.251576 42.665496,24.844416 C40.694424,22.871256 37.255488,22.871256 35.284416,24.844416 C34.29888,25.829952 33.756,27.141216 33.756,28.536 C33.756,29.930784 34.29888,31.242048 35.284416,32.227584 C37.255488,34.200744 40.694424,34.200744 42.665496,32.227584 C43.072656,31.820424 43.734552,31.820424 44.141712,32.227584 C44.548872,32.634744 44.548872,33.29664 44.141712,33.7038 C42.763632,35.083968 40.92828,35.844 38.976,35.844 Z" id="Path" fill="#212A41"></path>
                <path d="M70.296,27.492 L64.032,27.492 C63.455712,27.492 62.988,27.024288 62.988,26.448 C62.988,25.871712 63.455712,25.404 64.032,25.404 L70.296,25.404 C70.872288,25.404 71.34,25.871712 71.34,26.448 C71.34,27.024288 70.872288,27.492 70.296,27.492 Z" id="Path" fill="#212A41"></path>
                <path d="M51.504,25.404 L43.404648,25.404 C42.82836,25.404 42.360648,24.936288 42.360648,24.36 C42.360648,23.783712 42.82836,23.316 43.404648,23.316 L51.504,23.316 C52.080288,23.316 52.548,23.783712 52.548,24.36 C52.548,24.936288 52.080288,25.404 51.504,25.404 Z" id="Path" fill="#212A41"></path>
                <g id="Group" transform="translate(50.112000, 18.792000)">
                    <circle id="Oval" fill="#E0E0E0" cx="7.656" cy="7.656" r="6.264"></circle>
                    <path d="M7.656,14.964 C3.62616,14.964 0.348,11.68584 0.348,7.656 C0.348,3.62616 3.62616,0.348 7.656,0.348 C11.68584,0.348 14.964,3.62616 14.964,7.656 C14.964,11.68584 11.68584,14.964 7.656,14.964 Z M7.656,2.436 C4.778736,2.436 2.436,4.776648 2.436,7.656 C2.436,10.535352 4.778736,12.876 7.656,12.876 C10.533264,12.876 12.876,10.535352 12.876,7.656 C12.876,4.776648 10.533264,2.436 7.656,2.436 Z" id="Shape" fill="#212A41"></path>
                </g>
                <g id="Group" transform="translate(68.904000, 18.792000)">
                    <circle id="Oval" fill="#E0E0E0" cx="7.656" cy="7.656" r="6.264"></circle>
                    <path d="M7.656,14.964 C3.62616,14.964 0.348,11.68584 0.348,7.656 C0.348,3.62616 3.62616,0.348 7.656,0.348 C11.68584,0.348 14.964,3.62616 14.964,7.656 C14.964,11.68584 11.68584,14.964 7.656,14.964 Z M7.656,2.436 C4.778736,2.436 2.436,4.776648 2.436,7.656 C2.436,10.535352 4.778736,12.876 7.656,12.876 C10.533264,12.876 12.876,10.535352 12.876,7.656 C12.876,4.776648 10.533264,2.436 7.656,2.436 Z" id="Shape" fill="#212A41"></path>
                </g>
                <g id="Group" transform="translate(25.056000, 98.136000)">
                    <rect id="Rectangle" fill="#B7C0D7" x="1.392" y="1.392" width="83.52" height="18.792"></rect>
                    <path d="M84.912,21.228 L1.392,21.228 C0.815712,21.228 0.348,20.760288 0.348,20.184 L0.348,1.392 C0.348,0.815712 0.815712,0.348 1.392,0.348 L84.912,0.348 C85.488288,0.348 85.956,0.815712 85.956,1.392 L85.956,20.184 C85.956,20.760288 85.488288,21.228 84.912,21.228 Z M2.436,19.14 L83.868,19.14 L83.868,2.436 L2.436,2.436 L2.436,19.14 Z" id="Shape" fill="#212A41"></path>
                </g>
                <path d="M105.792,115.188 C105.215712,115.188 104.748,114.720288 104.748,114.144 L104.748,103.704 C104.748,103.127712 105.215712,102.66 105.792,102.66 C106.368288,102.66 106.836,103.127712 106.836,103.704 L106.836,114.144 C106.836,114.720288 106.368288,115.188 105.792,115.188 Z" id="Path" fill="#99A2B9"></path>
                <path d="M30.624,115.188 C30.047712,115.188 29.58,114.720288 29.58,114.144 L29.58,103.704 C29.58,103.127712 30.047712,102.66 30.624,102.66 C31.200288,102.66 31.668,103.127712 31.668,103.704 L31.668,114.144 C31.668,114.720288 31.200288,115.188 30.624,115.188 Z" id="Path" fill="#D5DEF5"></path>
                <g id="Group" transform="translate(91.872000, 93.960000)">
                    <polygon id="Path" fill="#E0E0E0" points="18.096 18.096 9.744 13.92 1.392 18.096 1.392 1.392 18.096 1.392"></polygon>
                    <path d="M18.096,19.14 C17.935224,19.14 17.776536,19.102416 17.628288,19.029336 L9.744,15.087192 L1.859712,19.031424 C1.533984,19.190112 1.15188,19.17132 0.844944,18.987576 C0.53592,18.793392 0.348,18.457224 0.348,18.096 L0.348,1.392 C0.348,0.815712 0.815712,0.348 1.392,0.348 L18.096,0.348 C18.672288,0.348 19.14,0.815712 19.14,1.392 L19.14,18.096 C19.14,18.457224 18.95208,18.793392 18.645144,18.985488 C18.478104,19.0878 18.286008,19.14 18.096,19.14 Z M9.744,12.876 C9.904776,12.876 10.063464,12.913584 10.211712,12.986664 L17.052,16.408896 L17.052,2.436 L2.436,2.436 L2.436,16.406808 L9.276288,12.984576 C9.424536,12.913584 9.583224,12.876 9.744,12.876 Z" id="Shape" fill="#212A41"></path>
                </g>
                <g id="Group" transform="translate(83.520000, 64.728000)">
                    <circle id="Oval" fill="#F9AC2F" cx="18.096" cy="18.096" r="16.704"></circle>
                    <path d="M18.096,35.844 C8.309544,35.844 0.348,27.882456 0.348,18.096 C0.348,8.309544 8.309544,0.348 18.096,0.348 C27.882456,0.348 35.844,8.309544 35.844,18.096 C35.844,27.882456 27.882456,35.844 18.096,35.844 Z M18.096,2.436 C9.460032,2.436 2.436,9.460032 2.436,18.096 C2.436,26.731968 9.460032,33.756 18.096,33.756 C26.731968,33.756 33.756,26.731968 33.756,18.096 C33.756,9.460032 26.731968,2.436 18.096,2.436 Z" id="Shape" fill="#212A41"></path>
                </g>
                <g id="Group" transform="translate(87.696000, 68.904000)">
                    <circle id="Oval" fill="#F9AC2F" cx="13.92" cy="13.92" r="12.528"></circle>
                    <path d="M13.92,27.492 C6.436608,27.492 0.348,21.403392 0.348,13.92 C0.348,6.436608 6.436608,0.348 13.92,0.348 C21.403392,0.348 27.492,6.436608 27.492,13.92 C27.492,21.403392 21.403392,27.492 13.92,27.492 Z M13.92,2.436 C7.587096,2.436 2.436,7.589184 2.436,13.92 C2.436,20.250816 7.587096,25.404 13.92,25.404 C20.252904,25.404 25.404,20.250816 25.404,13.92 C25.404,7.589184 20.252904,2.436 13.92,2.436 Z" id="Shape" fill="#212A41"></path>
                </g>
                <path d="M98.484,90.132 C97.907712,90.132 97.44,89.664288 97.44,89.088 L97.44,76.56 C97.44,75.983712 97.907712,75.516 98.484,75.516 L102.66,75.516 C105.537264,75.516 107.88,77.856648 107.88,80.736 C107.88,83.615352 105.537264,85.956 102.66,85.956 L100.572,85.956 C99.995712,85.956 99.528,85.488288 99.528,84.912 L99.528,89.088 C99.528,89.664288 99.060288,90.132 98.484,90.132 Z M99.528,77.604 L99.528,84.912 C99.528,84.335712 99.995712,83.868 100.572,83.868 L102.66,83.868 C104.386776,83.868 105.792,82.462776 105.792,80.736 C105.792,79.009224 104.386776,77.604 102.66,77.604 L99.528,77.604 Z" id="Shape" fill="#212A41"></path>
            </g>
        </g>
    </g>
</svg>