<?xml version="1.0" encoding="UTF-8"?>
<svg width="222px" height="222px" viewBox="0 0 222 222" version="1.1" xmlns="http://www.w3.org/2000/svg" xmlns:xlink="http://www.w3.org/1999/xlink">
    <title>5488087_conference_interview_microphone_press_icon (1)</title>
    <g id="Style-guide" stroke="none" stroke-width="1" fill="none" fill-rule="evenodd">
        <g id="Styleguide" transform="translate(-1051.000000, -13372.000000)" fill-rule="nonzero">
            <g id="5488087_conference_interview_microphone_press_icon-(1)" transform="translate(1051.000000, 13372.000000)">
                <g id="Colors" transform="translate(2.251773, 0.000000)">
                    <g id="Group" transform="translate(131.053191, 107.184397)">
                        <path d="M38.4724433,51.3665461 L12.5468794,54.5505532 C10.0883936,54.8522908 7.82986525,53.0882518 7.52812766,50.629766 L2.6422305,10.8472411 C2.34049291,8.38875532 4.10453191,6.13022695 6.56301773,5.82848936 L32.4885816,2.64448227 C34.9470674,2.34274468 37.2055957,4.10678369 37.5073333,6.5652695 L42.3932305,46.3477943 C42.6954184,48.8062801 40.9309291,51.0648085 38.4724433,51.3665461 Z" id="Path" fill="#A7AEC1"></path>
                        <path d="M11.9897908,56.8370035 C10.4932624,56.8370035 9.04537234,56.3398121 7.84247518,55.399922 C6.41755319,54.2866454 5.51234043,52.6901383 5.29301773,50.9040319 L0.406670213,11.1215071 C0.187347518,9.33585106 0.679134752,7.56730851 1.79241135,6.14283688 C2.90568794,4.71836525 4.50219504,3.81270213 6.28785106,3.59337943 L32.2134149,0.408921986 C33.9986206,0.1905 35.7680638,0.681386525 37.1925355,1.79511348 C38.6174574,2.90839007 39.5226702,4.50489716 39.7419929,6.29100355 L44.6283404,46.0735284 C44.8476631,47.8591844 44.3558759,49.627727 43.2425993,51.0521986 C42.1293227,52.4766702 40.5328156,53.3823333 38.7471596,53.601656 L12.8215957,56.7861135 C12.543727,56.8198901 12.2658582,56.8370035 11.9897908,56.8370035 Z M33.0362128,4.86202837 C32.9456915,4.86202837 32.8542695,4.86788298 32.7628475,4.87914184 L6.83728369,8.06359929 C6.24551773,8.13610638 5.71409929,8.43874468 5.34165603,8.91567021 C4.96966312,9.39259574 4.80438298,9.98075887 4.87734043,10.5729752 L9.76368794,50.3559504 C9.83619504,50.9477163 10.1388333,51.4791348 10.6157589,51.851578 C11.092234,52.2240213 11.6790461,52.3884007 12.2735142,52.316344 L38.199078,49.1318865 L38.199078,49.1318865 C38.790844,49.0593794 39.3222624,48.7567411 39.6947057,48.2798156 C40.0666986,47.8028901 40.2319787,47.214727 40.1590213,46.6225106 L35.2726738,6.83953546 C35.2001667,6.2477695 34.8975284,5.71635106 34.4206028,5.3439078 C34.0170851,5.02910993 33.534305,4.86202837 33.0362128,4.86202837 Z" id="Shape" fill="#3F456B"></path>
                        <rect id="Rectangle" fill="#767C93" transform="translate(21.714264, 22.111064) rotate(-7.002066) translate(-21.714264, -22.111064) " x="13.1578866" y="12.6540155" width="17.1127552" height="18.9140979"></rect>
                        <g transform="translate(14.411348, 37.379433)" fill="#3F456B" id="Path">
                            <path d="M19.2089752,2.63277305 C19.4053298,4.23063121 18.2695355,5.6852766 16.671227,5.88118085 C15.0733688,6.07753546 13.6187234,4.94129078 13.4228191,3.34343262 C13.2269149,1.74557447 14.3631596,0.290478723 15.9605674,0.0945744681 C17.5584255,-0.101780142 19.0126206,1.03491489 19.2089752,2.63277305 Z"></path>
                            <path d="M6.24596809,4.2247766 C6.4423227,5.82263475 5.30652837,7.27728014 3.70821986,7.4731844 C2.1103617,7.66953901 0.655716312,6.53329433 0.459812057,4.93543617 C0.263907801,3.33757801 1.40015248,1.88248227 2.99756028,1.68657801 C4.59586879,1.4902234 6.04961348,2.62691844 6.24596809,4.2247766 Z"></path>
                        </g>
                        <path d="M14.3816241,34.798 C13.8817305,34.798 13.3935461,34.6313688 12.9954326,34.3206241 C12.5248121,33.9531348 12.2194716,33.4136099 12.1465142,32.8204929 L9.84114894,14.0465603 C9.68982979,12.8121383 10.5671206,11.6889539 11.8019929,11.5371844 L28.7875674,9.45114184 C30.0255922,9.30162411 31.1451738,10.1775638 31.2969433,11.4119858 L33.6027589,30.1859184 C33.675266,30.7785851 33.5099858,31.3762057 33.1424965,31.8468262 C32.7750071,32.3174468 32.2350319,32.6227872 31.6423652,32.6957447 L14.6563404,34.7817872 C14.5644681,34.7921454 14.4725957,34.798 14.3816241,34.798 Z M14.5856348,15.7326879 L16.3420177,30.0364007 L28.8578227,28.4993404 L27.1009894,14.1956277 L14.5856348,15.7326879 Z" id="Shape" fill="#3F456B"></path>
                    </g>
                    <g id="Group" transform="translate(42.783688, 61.698582)">
                        <path d="M14.8617021,136.907801 C13.6178227,136.907801 12.6099291,135.899457 12.6099291,134.656028 L12.6099291,78.8120567 C12.6099291,77.5686277 13.6178227,76.5602837 14.8617021,76.5602837 C16.1055816,76.5602837 17.1134752,77.5686277 17.1134752,78.8120567 L17.1134752,134.656028 C17.1134752,135.899457 16.1055816,136.907801 14.8617021,136.907801 Z" id="Path" fill="#3F456B"></path>
                        <g>
                            <ellipse id="Oval" fill="#A7AEC1" transform="translate(34.527015, 29.740406) rotate(-74.240343) translate(-34.527015, -29.740406) " cx="34.5270153" cy="29.740406" rx="23.8685595" ry="23.4182093"></ellipse>
                            <g opacity="0.3" transform="translate(11.709220, 22.067376)" fill="#3F456B" id="Path">
                                <g>
                                    <path d="M2.12071986,0.172035461 C2.12071986,0.172035461 -1.46860638,14.688766 19.1914113,20.5190567 C39.8514291,26.3488972 44.6805816,11.0314362 44.6805816,11.0314362 C44.6805816,11.0314362 40.7512376,37.5312021 16.3348121,30.641227 C-8.08161348,23.7512518 2.12071986,0.172035461 2.12071986,0.172035461 Z"></path>
                                </g>
                            </g>
                            <g opacity="0.2" transform="translate(19.365248, 2.251773)" fill="#FFFFFF" id="Oval">
                                <g>
                                    <ellipse transform="translate(18.065653, 14.503244) rotate(-74.240343) translate(-18.065653, -14.503244) " cx="18.0656525" cy="14.5032442" rx="10.5832292" ry="15.3681998"></ellipse>
                                </g>
                            </g>
                            <path d="M41.9910638,61.3234362 L27.3959716,103.063202 L2.49091135,96.0354184 L11.8677447,52.8229929 C11.8677447,52.8229929 12.8634787,45.1489504 18.9315567,46.8611986 C24.1327021,48.3289043 39.7361383,52.7320213 39.7361383,52.7320213 C39.7361383,52.7320213 44.9372837,54.199727 41.9910638,61.3234362 Z" id="Path" fill="#9398AA"></path>
                            <rect id="Rectangle" fill="#DAE1EA" transform="translate(27.250561, 57.164550) rotate(15.759657) translate(-27.250561, -57.164550) " x="12.3890054" y="49.508597" width="29.7231118" height="15.3119061"></rect>
                            <g opacity="0.3" transform="translate(18.464539, 51.790780)" fill="#3F456B" id="Path">
                                <g>
                                    <polyline points="14.8427872 0.0630496454 0.15537234 48.795922 8.6945461 51.2053191 26.1322766 3.61544681 14.9589787 0.0959255319"></polyline>
                                </g>
                            </g>
                            <path d="M23.5440887,77.9257589 C22.132227,78.6994681 20.3609823,78.182461 19.5868227,76.7701489 C18.8131135,75.3582872 19.3305709,73.5865922 20.7424326,72.812883 C22.1542943,72.0391738 23.9264397,72.5566312 24.7001489,73.9684929 C25.4738582,75.380805 24.9555,77.1525 23.5440887,77.9257589 Z" id="Path" fill="#3F456B"></path>
                            <path d="M43.145773,55.3386738 C42.1950745,55.3386738 41.3110284,54.7315957 41.0029858,53.7777447 C40.6210851,52.5942128 41.2713972,51.3251135 42.4549291,50.9432128 C48.3545745,49.0395638 52.5410709,43.8384184 54.8977766,35.4847908 C56.7735035,28.8375567 56.8090816,23.5958794 55.0063121,19.4607234 C52.8630745,14.5446525 48.0848121,11.1007908 40.3977092,8.93188298 C32.9884752,6.84088652 27.0010106,7.3124078 22.6001454,10.3315851 C18.8225709,12.9224752 15.981734,17.5174433 14.1555461,23.9881383 C11.5835709,33.1024149 12.5045461,39.7546028 16.9716135,44.3248014 C17.8412482,45.2142518 17.8250355,46.6400745 16.9355851,47.5092589 C16.0461348,48.3784433 14.6212128,48.3622305 13.7511277,47.4727801 C8.05864539,41.648344 6.77333333,33.5667305 9.82088298,22.7649752 C14.4622376,6.31847518 25.4585461,0.0373794326 41.620422,4.59767021 C50.5626631,7.12100709 56.4555532,11.5160177 59.1347128,17.6611064 C61.370273,22.7883936 61.4017979,29.0185993 59.2324397,36.7079539 C56.4798723,46.4630851 51.1562305,52.867578 43.8375177,55.2292376 C43.6078369,55.3035461 43.3745532,55.3386738 43.145773,55.3386738 Z" id="Path" fill="#3F456B"></path>
                            <path d="M38.6129539,70.5773227 C38.4102943,70.5773227 38.2044823,70.5498511 38.0004716,70.4922057 L10.2608794,62.6645922 C9.06383688,62.3268262 8.3671383,61.0829468 8.70490426,59.8859043 C9.04312057,58.6888617 10.2910532,57.9926135 11.4835922,58.3303794 L39.2231844,66.1579929 C40.420227,66.4957589 41.1169255,67.7396383 40.7791596,68.9366809 C40.499039,69.9288121 39.5956277,70.5773227 38.6129539,70.5773227 Z" id="Path" fill="#3F456B"></path>
                            <g opacity="0.3" transform="translate(2.251773, 89.170213)" fill="#3F456B" id="Rectangle">
                                <g>
                                    <rect transform="translate(14.146271, 7.280162) rotate(15.759657) translate(-14.146271, -7.280162) " x="0.410590154" y="3.90253535" width="27.4713609" height="6.75525268"></rect>
                                </g>
                            </g>
                            <path d="M27.3968723,105.315426 C27.1942128,105.315426 26.9888511,105.287954 26.7848404,105.230309 L1.87978014,98.2025248 C0.726421986,97.8773688 0.0306241135,96.7064468 0.294531915,95.5377766 L11.7506525,44.9570993 C11.8875603,44.3549752 12.2654078,43.8348156 12.7959255,43.519117 C13.3268936,43.2034184 13.9650461,43.1196525 14.5581631,43.2871844 L44.6814823,51.7876277 C45.2759504,51.9556099 45.775844,52.3600284 46.0627199,52.9063085 C46.3504965,53.453039 46.4009362,54.0938936 46.2023298,54.6784539 L29.5279504,103.786472 C29.2109007,104.720507 28.3385638,105.315426 27.3968723,105.315426 Z M5.15926241,94.4488191 L25.9507837,100.316039 L41.1754716,55.4778333 L15.6196489,48.266305 L5.15926241,94.4488191 Z" id="Shape" fill="#3F456B"></path>
                        </g>
                    </g>
                    <g id="Group" opacity="0.7" transform="translate(81.063830, 0.000000)" fill="#3F456B">
                        <g transform="translate(24.319149, 0.000000)" id="Path">
                            <path d="M2.71653901,11.007117 C1.47581206,11.007117 0.468368794,10.0032766 0.464765957,8.76209929 L0.446742118,2.66429787 C0.443148936,1.42086879 1.44834043,0.409822695 2.6917695,0.405769504 C2.69402128,0.405769504 2.69627305,0.405769504 2.69852482,0.405769504 C3.93925177,0.405769504 4.94669504,1.40960993 4.95029787,2.65078723 L4.96832171,8.74858865 C4.97191489,9.99201773 3.9667234,11.0030638 2.72329433,11.007117 C2.72104255,11.007117 2.71879078,11.007117 2.71653901,11.007117 Z"></path>
                            <path d="M21.3477092,29.2946667 C20.1083333,29.2946667 19.1013404,28.293078 19.0959145,27.0528014 C19.0905319,25.808922 20.0943723,24.7965248 21.3382518,24.7911206 L27.1928617,24.7654504 C27.1960142,24.7654504 27.199617,24.7654504 27.2023191,24.7654504 C28.441695,24.7654504 29.4486879,25.767039 29.4541139,27.0073156 C29.4594965,28.251195 28.455656,29.2635922 27.2117766,29.2689965 L21.3571667,29.2946667 C21.3544645,29.2946667 21.3508617,29.2946667 21.3477092,29.2946667 Z"></path>
                            <path d="M18.7833901,20.0763582 C18.0069787,20.0763582 17.2526348,19.6746418 16.8342553,18.9558759 C16.2091631,17.8804291 16.5744007,16.502344 17.6498475,15.8777021 L22.8541454,12.8526702 C23.9304929,12.2266773 25.307227,12.593266 25.9327695,13.6678121 C26.5578617,14.7432589 26.1926241,16.121344 25.1171773,16.7459858 L19.9128794,19.7710177 C19.5566489,19.9777305 19.1675426,20.0763582 18.7833901,20.0763582 Z"></path>
                            <path d="M12.0330248,13.432727 C11.6529255,13.432727 11.2683227,13.3363511 10.9152447,13.1336915 C9.83619504,12.5149043 9.46330142,11.1390709 10.0816383,10.0600213 L13.0990142,4.79762766 C13.7178014,3.71857801 15.0945355,3.3456844 16.1726844,3.96447163 C17.251734,4.58325887 17.6246277,5.9590922 17.0062908,7.03814184 L13.9889149,12.3005355 C13.5727872,13.0265071 12.8134894,13.432727 12.0330248,13.432727 Z"></path>
                        </g>
                        <g id="Path">
                            <path d="M27.0744184,10.4117482 C25.8359433,10.4117482 24.8294007,9.41060993 24.8230957,8.17078369 L24.7964953,2.66835106 C24.7902199,1.42492199 25.7940603,0.411624113 27.0374894,0.405769504 C27.0415426,0.405769504 27.0451454,0.405769504 27.0487482,0.405769504 C28.2872234,0.405769504 29.293766,1.4069078 29.3000709,2.64673404 L29.3266714,8.14916667 C29.3329468,9.39259574 28.3291064,10.4058936 27.0856773,10.4117482 C27.0820745,10.4117482 27.0784716,10.4117482 27.0744184,10.4117482 Z"></path>
                            <path d="M17.5363582,12.8819433 C16.7599468,12.8819433 16.0056028,12.4806773 15.5876738,11.761461 L12.7671028,6.90934043 C12.1415603,5.83434397 12.5067979,4.45580851 13.5822447,3.83116667 C14.6572411,3.20517376 16.0353262,3.5708617 16.6604184,4.64630851 L19.4809894,9.49842908 C20.1065319,10.5734255 19.7412943,11.951961 18.6658475,12.5766028 C18.3100674,12.7833156 17.9205106,12.8819433 17.5363582,12.8819433 Z"></path>
                            <path d="M10.887773,19.861539 C10.5076738,19.861539 10.1230709,19.7651631 9.76999291,19.5625035 L4.71341135,16.6631206 C3.6343617,16.0443333 3.26146809,14.6685 3.87980496,13.5894504 C4.4985922,12.5104007 5.87532624,12.1379574 6.95347518,12.7562943 L12.0100567,15.6556773 C13.0891064,16.2744645 13.462,17.6502979 12.8436631,18.7293475 C12.4275355,19.4553191 11.6682376,19.861539 10.887773,19.861539 Z"></path>
                            <path d="M2.68816667,29.0780461 C1.44879078,29.0780461 0.441797872,28.0764574 0.436371898,26.8361809 C0.430989362,25.5923014 1.43482979,24.5799043 2.67870922,24.5745 L8.53331915,24.5488298 C8.53647163,24.5488298 8.54007447,24.5488298 8.5427766,24.5488298 C9.78215248,24.5488298 10.7891454,25.5504184 10.7945714,26.790695 C10.7999539,28.0345745 9.79611348,29.0469716 8.55223404,29.0523759 L2.69762411,29.0780461 C2.69447163,29.0780461 2.69131915,29.0780461 2.68816667,29.0780461 Z"></path>
                        </g>
                    </g>
                    <g id="Group" opacity="0.5" transform="translate(141.411348, 27.921986)" fill="#3F456B">
                        <g id="Path">
                            <path d="M14.6212128,8.48332979 C14.0452092,8.48332979 13.468305,8.26355674 13.0292092,7.82401064 C12.1496667,6.94446809 12.1496667,5.51864539 13.0292092,4.63955319 L16.6401525,1.02906028 C17.5187943,0.149968085 18.9455177,0.149968085 19.8241596,1.02906028 C20.7037021,1.90860284 20.7037021,3.33442553 19.8241596,4.21351773 L16.2132163,7.82401064 C15.7736702,8.26355674 15.1972163,8.48332979 14.6212128,8.48332979 Z"></path>
                            <path d="M2.29860993,20.7973759 C1.72260638,20.7973759 1.14570213,20.5776028 0.706606383,20.1380567 C-0.17293617,19.2585142 -0.17293617,17.8331418 0.706606383,16.9535993 L4.31709929,13.3431064 C5.19574113,12.4640142 6.62246454,12.4640142 7.50110638,13.3431064 C8.38064894,14.2226489 8.38064894,15.6480213 7.50110638,16.5275638 L3.89061348,20.1380567 C3.45106738,20.5771525 2.87461348,20.7973759 2.29860993,20.7973759 Z"></path>
                        </g>
                        <g id="Path">
                            <path d="M18.2272021,20.8018794 C17.6511986,20.8018794 17.0742943,20.5821064 16.6351986,20.1425603 L13.0247057,16.5320674 C12.1451631,15.6525248 12.1451631,14.2267021 13.0247057,13.3476099 C13.9033475,12.4685177 15.3300709,12.4685177 16.2087128,13.3476099 L19.8192057,16.9581028 C20.6987482,17.8376454 20.6987482,19.2634681 19.8192057,20.1425603 C19.3796596,20.5821064 18.8032057,20.8018794 18.2272021,20.8018794 Z"></path>
                            <path d="M5.91315603,8.47882624 C5.33715248,8.47882624 4.76024823,8.25905319 4.32115248,7.81950709 L0.710659574,4.20901418 C-0.168882979,3.32947163 -0.168882979,1.90364894 0.710659574,1.02455674 C1.58930142,0.145464539 3.01602482,0.145464539 3.89466667,1.02455674 L7.50515957,4.63504965 C8.38470213,5.5145922 8.38470213,6.94041489 7.50515957,7.81950709 C7.06561348,8.25905319 6.48915957,8.47882624 5.91315603,8.47882624 Z"></path>
                        </g>
                    </g>
                    <rect id="Rectangle" fill="#F4B78E" x="0" y="197.255319" width="216.620567" height="21.1666667"></rect>
                    <g id="Group" opacity="0.15" transform="translate(0.000000, 211.216312)" fill="#3F456B">
                        <g id="Rectangle">
                            <rect x="0" y="0" width="216.620567" height="7.20567376"></rect>
                        </g>
                    </g>
                    <g id="Group" opacity="0.15" transform="translate(0.000000, 197.255319)" fill="#FFFFFF">
                        <g id="Rectangle">
                            <rect x="0" y="0" width="216.620567" height="7.20567376"></rect>
                        </g>
                    </g>
                    <circle id="Oval" fill="#DAE1EA" cx="108.085106" cy="52.6914894" r="22.0673759"></circle>
                    <g id="Group" opacity="0.3" transform="translate(87.368794, 52.241135)" fill="#3F456B">
                        <g id="Path">
                            <path d="M0,0 C0,0 3.60283688,14.4113475 20.7163121,14.4113475 C37.8297872,14.4113475 42.7836879,0.45035461 42.7836879,0.45035461 C42.7836879,0.45035461 41.4326241,22.5177305 20.7163121,22.5177305 C0,22.5177305 0,0 0,0 Z"></path>
                        </g>
                    </g>
                    <g id="Group" opacity="0.5" transform="translate(97.276596, 31.074468)" fill="#FFFFFF">
                        <g id="Oval">
                            <circle cx="10.8085106" cy="10.5833333" r="10.5833333"></circle>
                        </g>
                    </g>
                    <rect id="Rectangle" fill="#99A4CE" x="79.2624113" y="68.4539007" width="57.6453901" height="28.822695"></rect>
                    <g id="Group" opacity="0.3" transform="translate(79.262411, 68.453901)" fill="#FFFFFF">
                        <g id="Rectangle">
                            <rect x="0.360283688" y="0" width="56.9248227" height="7.0584078"></rect>
                        </g>
                    </g>
                    <g id="Group" opacity="0.15" transform="translate(79.262411, 90.070922)" fill="#3F456B">
                        <g id="Rectangle">
                            <rect x="0.360283688" y="0" width="56.9248227" height="7.0584078"></rect>
                        </g>
                    </g>
                    <rect id="Rectangle" fill="#8BD0F7" transform="translate(33.950257, 105.986004) rotate(21.721613) translate(-33.950257, -105.986004) " x="8.73020924" y="84.5939993" width="50.4400949" height="42.784009"></rect>
                    <g id="Group" opacity="0.3" transform="translate(15.762411, 76.560284)" fill="#FFFFFF">
                        <g id="Rectangle">
                            <rect transform="translate(24.796038, 12.827676) rotate(-68.278387) translate(-24.796038, -12.827676) " x="21.2668079" y="-12.0771206" width="7.05846077" height="49.8095937"></rect>
                        </g>
                    </g>
                    <g id="Group" opacity="0.15" transform="translate(2.702128, 109.886525)" fill="#3F456B">
                        <g id="Rectangle">
                            <rect transform="translate(24.688699, 12.551937) rotate(-68.278387) translate(-24.688699, -12.551937) " x="21.1594691" y="-12.3528597" width="7.05846077" height="49.8095937"></rect>
                        </g>
                    </g>
                    <rect id="Rectangle" fill="#FFD2A6" transform="translate(179.079716, 112.904318) rotate(-6.200352) translate(-179.079716, -112.904318) " x="150.258479" y="98.4937" width="57.6424734" height="28.8212367"></rect>
                    <g id="Group" opacity="0.3" transform="translate(149.067376, 95.475177)" fill="#FFFFFF">
                        <g id="Rectangle">
                            <rect transform="translate(28.837038, 6.610957) rotate(-6.200352) translate(-28.837038, -6.610957) " x="0.376066764" y="3.08193176" width="56.9219425" height="7.05805067"></rect>
                        </g>
                    </g>
                    <g id="Group" opacity="0.15" transform="translate(151.319149, 116.641844)" fill="#3F456B">
                        <g id="Rectangle">
                            <rect transform="translate(28.919658, 6.933893) rotate(-6.200352) translate(-28.919658, -6.933893) " x="0.458686389" y="3.4048675" width="56.9219425" height="7.05805067"></rect>
                        </g>
                    </g>
                    <polyline id="Path" fill="#9398AA" points="92.5478723 97.2765957 95.2590071 153.570922 121.136383 153.570922 123.847518 97.2765957"></polyline>
                    <g id="Group" opacity="0.3" transform="translate(111.687943, 97.276596)" fill="#3F456B">
                        <g id="Path">
                            <polyline points="0.329659574 0 0.329659574 56.2943262 9.20209574 56.2943262 12.1595745 0.45035461 0.329659574 0"></polyline>
                        </g>
                    </g>
                    <polyline id="Path" fill="#9398AA" points="11.2615674 120.943631 0.61158156 154.998546 24.6515106 164.576688 40.3382624 132.528553"></polyline>
                    <g id="Group" opacity="0.3" transform="translate(15.762411, 127.900709)" fill="#3F456B">
                        <g id="Path">
                            <polyline points="13.5862979 0.249496454 0.417929078 33.3005709 8.66031915 36.5845567 24.4704681 4.89220213 13.5862979 0.249496454"></polyline>
                        </g>
                    </g>
                    <g id="Group" opacity="0.3" transform="translate(93.673759, 97.726950)" fill="#3F456B">
                        <g id="Rectangle">
                            <rect x="0" y="0" width="28.822695" height="6.75531915"></rect>
                        </g>
                    </g>
                    <g id="Group" opacity="0.3" transform="translate(9.007092, 119.794326)" fill="#3F456B">
                        <g id="Rectangle">
                            <rect transform="translate(15.985194, 9.286205) rotate(21.721613) translate(-15.985194, -9.286205) " x="0.447843648" y="5.90852017" width="31.0747013" height="6.75536985"></rect>
                        </g>
                    </g>
                    <g id="Group" opacity="0.3" transform="translate(0.000000, 147.716312)" fill="#3F456B">
                        <g id="Rectangle">
                            <rect transform="translate(14.158151, 8.559274) rotate(21.721613) translate(-14.158151, -8.559274) " x="0.42223181" y="5.18158938" width="27.4718374" height="6.75536985"></rect>
                        </g>
                    </g>
                    <g id="Group" opacity="0.3" transform="translate(95.024823, 146.815603)" fill="#3F456B">
                        <g id="Rectangle">
                            <rect x="0" y="0" width="27.4716312" height="6.75531915"></rect>
                        </g>
                    </g>
                    <polyline id="Path" fill="#9398AA" points="167.672426 129.305365 175.010504 169.244613 198.482085 166.398372 196.061879 125.862855"></polyline>
                    <g id="Group" opacity="0.3" transform="translate(185.095745, 126.099291)" fill="#3F456B">
                        <g id="Path">
                            <polyline points="0.23643617 1.0646383 5.11557801 41.3020213 13.1629645 40.3261028 11.0053156 0.0855673759 0.23643617 1.0646383"></polyline>
                        </g>
                    </g>
                    <g id="Group" opacity="0.3" transform="translate(167.081560, 126.099291)" fill="#3F456B">
                        <g id="Rectangle">
                            <rect transform="translate(15.132267, 5.290430) rotate(-6.915364) translate(-15.132267, -5.290430) " x="0.721283895" y="1.91285538" width="28.8219665" height="6.75514841"></rect>
                        </g>
                    </g>
                    <path d="M86.691461,199.507092 C86.2248936,199.507092 85.7547234,199.362528 85.3512057,199.063493 C84.3523191,198.322209 84.1433546,196.911699 84.8850887,195.913262 L105.833333,167.688188 L105.833333,153.796099 C105.833333,152.55267 106.841227,151.544326 108.085106,151.544326 C109.328986,151.544326 110.336879,152.55267 110.336879,153.796099 L110.336879,168.432624 C110.336879,168.915855 110.181057,169.386475 109.89328,169.774681 L88.5014362,198.597376 C88.0596383,199.192745 87.3796028,199.507092 86.691461,199.507092 Z" id="Path" fill="#3F456B"></path>
                    <path d="M129.478752,198.83156 C128.798716,198.83156 128.127238,198.524869 127.684539,197.94211 L110.336879,175.116787 L110.336879,196.35461 C110.336879,197.598039 109.328986,198.606383 108.085106,198.606383 C106.841227,198.606383 105.833333,197.598039 105.833333,196.35461 L105.833333,168.432624 C105.833333,167.466163 106.450319,166.607337 107.36589,166.298844 C108.281911,165.989901 109.292507,166.301096 109.877518,167.070301 L131.269362,195.217465 C132.021904,196.207794 131.829152,197.620106 130.839273,198.372649 C130.432152,198.682043 129.953426,198.83156 129.478752,198.83156 Z" id="Path" fill="#3F456B"></path>
                    <path d="M165.953872,199.507092 C165.487305,199.507092 165.017135,199.362528 164.613617,199.063493 C163.61473,198.322209 163.405766,196.911699 164.1475,195.913262 L185.539344,167.090567 C186.280628,166.091681 187.691138,165.883617 188.689124,166.62445 C189.688011,167.365734 189.896975,168.776245 189.155241,169.774681 L167.763397,198.597376 C167.32205,199.192745 166.642014,199.507092 165.953872,199.507092 Z" id="Path" fill="#3F456B"></path>
                    <path d="M208.741163,198.83156 C208.061128,198.83156 207.389649,198.524869 206.94695,197.94211 L189.599291,175.116787 L189.599291,196.35461 C189.599291,197.598039 188.591397,198.606383 187.347518,198.606383 C186.103638,198.606383 185.095745,197.598039 185.095745,196.35461 L185.095745,168.432624 C185.095745,167.466163 185.71273,166.607337 186.628301,166.298844 C187.544773,165.989901 188.554918,166.301096 189.139929,167.070301 L210.531773,195.217465 C211.284316,196.207794 211.091564,197.620106 210.101684,198.372649 C209.694564,198.682043 209.215837,198.83156 208.741163,198.83156 Z" id="Path" fill="#3F456B"></path>
                    <path d="M15.085078,199.507092 C14.6185106,199.507092 14.1483404,199.362528 13.7448227,199.063493 C12.7459362,198.322209 12.5369716,196.911699 13.2787057,195.913262 L34.6705496,167.090567 C35.4118333,166.091681 36.822344,165.883617 37.8203298,166.62445 C38.8192163,167.365734 39.0281809,168.776245 38.2864468,169.774681 L16.8946028,198.597376 C16.4532553,199.192745 15.7732199,199.507092 15.085078,199.507092 Z" id="Path" fill="#3F456B"></path>
                    <path d="M36.4787234,198.606383 C35.234844,198.606383 34.2269504,197.598039 34.2269504,196.35461 L34.2269504,140.510638 C34.2269504,139.267209 35.234844,138.258865 36.4787234,138.258865 C37.7226028,138.258865 38.7304965,139.267209 38.7304965,140.510638 L38.7304965,196.35461 C38.7304965,197.598039 37.7226028,198.606383 36.4787234,198.606383 Z" id="Path" fill="#3F456B"></path>
                    <path d="M57.8723688,198.83156 C57.1923333,198.83156 56.5208546,198.524869 56.078156,197.94211 L34.6863121,169.794947 C33.9337695,168.804617 34.1265213,167.392305 35.1164007,166.639762 C36.1076312,165.88722 37.5199433,166.080422 38.2715851,167.070301 L59.6634291,195.217465 C60.4159716,196.207794 60.2232199,197.620106 59.2333404,198.372649 C58.8257695,198.682043 58.3470426,198.83156 57.8723688,198.83156 Z" id="Path" fill="#3F456B"></path>
                    <path d="M195.8975,96.5780957 L159.175585,100.569138 C147.257851,95.0743617 145.800053,76.0770532 154.918383,65.5653262 C164.037163,55.0585532 181.426255,53.6660567 192.589195,61.968344 C203.752585,70.2760355 206.302943,88.159617 195.8975,96.5780957 Z" id="Path" fill="#BAC2D3"></path>
                    <g id="Group" opacity="0.1" transform="translate(157.173759, 68.003546)" fill="#3F456B">
                        <g id="Path">
                            <path d="M33.301922,28.7105567 L7.32591844,31.5338298 C-1.11102482,27.5855709 -2.16080142,13.9740532 4.27971986,6.4522305 C10.7206915,-1.06598936 23.0216773,-2.04641135 30.9272021,3.91268085 C38.8331773,9.87537589 40.6553121,22.6902163 33.301922,28.7105567 Z"></path>
                        </g>
                    </g>
                    <path d="M171.012706,124.184833 C169.877812,124.184833 168.901894,123.33006 168.776695,122.176252 L167.171181,107.401468 C167.077057,106.536787 167.489582,105.695074 168.230865,105.239766 C168.972149,104.784007 169.909787,104.796167 170.638461,105.27084 L179.114585,110.787234 L185.69877,103.82205 C186.302245,103.183897 187.220067,102.954667 188.053674,103.234337 C188.885929,103.514457 189.479046,104.252589 189.574071,105.125376 L191.162472,119.742986 C191.297128,120.979209 190.403174,122.090234 189.16695,122.22489 C187.92217,122.357745 186.819252,121.465592 186.685046,120.229369 L185.62311,110.457574 L181.097046,115.245745 C180.349908,116.036567 179.143858,116.17933 178.23234,115.586213 L172.16156,111.635252 L173.254121,121.689418 C173.388777,122.925642 172.494823,124.036667 171.258599,124.171323 C171.175734,124.18033 171.093319,124.184833 171.012706,124.184833 Z" id="Path" fill="#3F456B"></path>
                    <g id="Group" opacity="0.2" transform="translate(158.975177, 57.645390)" fill="#FFFFFF">
                        <g id="Oval">
                            <circle cx="10.5833333" cy="10.5833333" r="10.5833333"></circle>
                        </g>
                    </g>
                    <g id="Group" opacity="0.7" transform="translate(113.039007, 151.319149)" fill="#3F456B">
                        <g id="Path">
                            <path d="M38.5080213,47.5128617 C38.3886773,47.5128617 38.2684326,47.5034043 38.1468369,47.4835887 C36.9187199,47.285883 36.0842128,46.1298227 36.2819184,44.902156 C36.294078,44.823344 37.5433617,36.441344 32.9492943,30.5858333 C30.2899504,27.1964645 26.1097589,25.2365213 20.5253617,24.7613972 C13.1656667,24.1349539 7.65287589,21.5431631 4.14010993,17.0567305 C-1.03176241,10.4522801 0.197705674,2.24546809 0.252648936,1.89914539 C0.447652482,0.670578014 1.5974078,-0.168432624 2.82957801,0.0274716312 C4.05544326,0.222024823 4.89265248,1.37178014 4.70170213,2.59764539 C4.68684043,2.69897518 3.75415603,9.29441844 7.71277305,14.3145213 C10.4252589,17.7547801 14.8648546,19.7597589 20.9072624,20.2740638 C27.8044433,20.8608759 33.0569291,23.4062801 36.5183546,27.8386702 C42.3180213,35.2654681 40.7958227,45.1998404 40.7287199,45.6191206 C40.5499291,46.7251915 39.5938262,47.5128617 38.5080213,47.5128617 Z"></path>
                        </g>
                    </g>
                    <path d="M28.8744858,80.9372801 L44.5513298,39.9860851 C47.4097305,32.8119362 55.5426844,29.3131312 62.7168333,32.1715319 C69.8909823,35.0299326 73.3897872,43.1628865 70.5313865,50.3370355 L54.8545426,91.2882305" id="Path" fill="#767C93"></path>
                    <g id="Group" opacity="0.3" transform="translate(47.287234, 31.975177)" fill="#3F456B">
                        <g id="Path">
                            <path d="M15.4295993,0.195904255 C15.4295993,0.195904255 19.9534113,5.8766773 15.6191986,16.7540922 C11.2849858,27.6315071 0.434141844,56.4708652 0.434141844,56.4708652 L8.06720213,58.0574645 L23.2522589,18.3406915 C23.2522589,18.3411418 27.5621525,5.03001064 15.4295993,0.195904255"></path>
                        </g>
                    </g>
                    <g id="Group" opacity="0.2" transform="translate(45.936170, 31.975177)" fill="#FFFFFF">
                        <g id="Oval">
                            <circle cx="8.05234043" cy="8.11088652" r="7.88120567"></circle>
                        </g>
                    </g>
                    <g id="Group" opacity="0.5" transform="translate(31.975177, 65.301418)" fill="#3F456B">
                        <g id="Path">
                            <path d="M28.1917482,14.8427872 C27.9147801,14.8427872 27.6328582,14.7909965 27.3590426,14.682461 L1.41996809,4.3477234 C0.264808511,3.88746099 -0.298585106,2.57782979 0.161677305,1.42221986 C0.621489362,0.267060284 1.92931915,-0.296333333 3.0867305,0.163929078 L29.025805,10.4986667 C30.1809645,10.9589291 30.7443582,12.2685603 30.2840957,13.4241702 C29.9328191,14.3059645 29.0866028,14.8427872 28.1917482,14.8427872 Z"></path>
                        </g>
                    </g>
                    <g id="Group" transform="translate(21.617021, 92.773050)" fill="#3F456B">
                        <path d="M2.49991844,19.5462908 C1.62713121,19.5462908 0.797578014,19.036039 0.430539007,18.1839681 C-0.061248227,17.0414184 0.466567376,15.7169255 1.60911702,15.2255887 L22.2123901,6.36215957 C23.3531383,5.87037234 24.6789823,6.39818794 25.1703191,7.54073759 C25.661656,8.68328723 25.1342908,10.0077801 23.9917411,10.499117 L3.38846809,19.3625461 C3.09889007,19.4872943 2.79670213,19.5462908 2.49991844,19.5462908 Z" id="Path"></path>
                        <path d="M17.2332695,25.4166631 C16.3604823,25.4166631 15.5304787,24.9064113 15.1638901,24.0543404 L6.30046099,3.45061702 C5.80867376,2.30806738 6.33648936,0.983574468 7.47903901,0.492237589 C8.62023759,0.00090070922 9.94563121,0.528716312 10.4369681,1.6708156 L19.3003972,22.274539 C19.7921844,23.4170887 19.2643688,24.7415816 18.1218191,25.2329184 C17.8322411,25.3572163 17.5300532,25.4166631 17.2332695,25.4166631 Z" id="Path"></path>
                    </g>
                    <g id="Group" opacity="0.3" transform="translate(173.386525, 159.425532)" fill="#3F456B">
                        <g id="Rectangle">
                            <rect transform="translate(12.870535, 4.879157) rotate(-6.915364) translate(-12.870535, -4.879157) " x="0.458400634" y="1.50158241" width="24.8242697" height="6.75514841"></rect>
                        </g>
                    </g>
                    <g id="Group" opacity="0.7" transform="translate(8.106383, 157.173759)" fill="#3F456B">
                        <g id="Path">
                            <path d="M78.8147589,41.4330745 C78.6715461,41.4330745 78.5265319,41.4195638 78.380617,41.3907411 C77.160156,41.1525035 76.3634787,39.9698723 76.6021667,38.7494113 C77.5325993,33.9792553 76.5310106,29.0244539 73.9869574,25.8174787 C72.0207092,23.3382766 69.3230851,22.0182872 65.9697447,21.8948901 C60.8514645,21.7039397 55.7336348,23.9246383 50.8049539,26.0710284 C49.791656,26.5119255 48.7864645,26.9501206 47.7880284,27.3648972 C40.0739043,30.571422 28.3408156,33.6455426 16.2451915,30.0814362 C9.06518794,27.9656702 4.18964894,24.2340319 1.75458156,18.9892021 C-2.08829433,10.7116844 1.72846099,1.85095745 1.89284043,1.47761348 C2.39453546,0.34001773 3.72308156,-0.177439716 4.86157801,0.324705674 C5.9978227,0.825049645 6.51437943,2.15134397 6.01673759,3.28803901 C5.97800709,3.37675887 2.86110284,10.7206915 5.85370922,17.1224823 C7.72448227,21.1256844 11.6493227,24.032273 17.5178936,25.7611844 C28.3484716,28.9528475 39.0164716,26.132727 46.0595674,23.2058723 C47.0350355,22.8005532 48.0172589,22.3727163 49.0066879,21.941727 C54.3969823,19.5940284 59.9638156,17.1688688 66.1359255,17.3940461 C70.7979965,17.5660816 74.7327447,19.5107128 77.5154858,23.0185248 C80.9048546,27.2914894 82.2158369,33.4942234 81.0219468,39.6113901 C80.8120816,40.6872872 79.8703901,41.4330745 78.8147589,41.4330745 Z"></path>
                        </g>
                    </g>
                    <path d="M161.777734,198.83156 C160.656351,198.83156 159.685387,197.995252 159.545326,196.854053 L155.057092,160.328043 C154.905323,159.093621 155.783064,157.969986 157.017936,157.818216 C158.250106,157.668248 159.375543,158.544638 159.527312,159.77861 L164.015546,196.304621 C164.167316,197.539043 163.289574,198.662677 162.054702,198.814447 C161.961929,198.826156 161.869156,198.83156 161.777734,198.83156 Z" id="Path" fill="#3F456B"></path>
                    <g id="Group" transform="translate(5.404255, 0.450355)" fill="#3F456B">
                        <g opacity="0.5" transform="translate(15.762411, 15.762411)" id="Path">
                            <g>
                                <path d="M2.27699291,31.6342589 C1.03311348,31.6342589 0.0252198582,30.6263652 0.0252198582,29.3824858 C0.0247695035,21.5566738 3.0727695,14.1992305 8.6062766,8.66527305 C14.1397837,3.1313156 21.497227,0.0837659574 29.3225887,0.0837659574 C29.323039,0.0837659574 29.323039,0.0837659574 29.3234894,0.0837659574 C30.5673688,0.0837659574 31.5752624,1.09210993 31.5752624,2.33553901 C31.5752624,3.57896809 30.5669184,4.58731206 29.3234894,4.58731206 L29.3234894,4.58731206 C22.7005745,4.58731206 16.4739716,7.16649291 11.790734,11.8492801 C7.10749645,16.5320674 4.52876596,22.7591206 4.52876596,29.3820355 C4.52876596,30.6259149 3.52042199,31.6342589 2.27699291,31.6342589 Z"></path>
                            </g>
                        </g>
                        <g opacity="0.3" id="Path">
                            <g>
                                <path d="M2.26663475,47.3966702 C1.02275532,47.3966702 0.0148617021,46.3887766 0.0148617021,45.1448972 C0.0148617021,33.1064681 4.70260284,21.788156 13.215656,13.2755532 C21.7278085,4.76295035 33.0470213,0.0747588652 45.085,0.0747588652 C45.0859007,0.0747588652 45.085,0.0747588652 45.0859007,0.0747588652 C46.3297801,0.0747588652 47.3376738,1.08310284 47.3376738,2.32653191 C47.3376738,3.56996099 46.3293298,4.57830496 45.0859007,4.57830496 L45.0859007,4.57830496 C34.2499184,4.57830496 24.0624468,8.7976773 16.4005638,16.4600106 C8.73868085,24.122344 4.5184078,34.3098156 4.51885816,45.1453475 C4.5184078,46.3883262 3.51051418,47.3966702 2.26663475,47.3966702 Z"></path>
                            </g>
                        </g>
                    </g>
                    <g id="Group" transform="translate(163.929078, 0.450355)" fill="#3F456B">
                        <g opacity="0.5" transform="translate(0.000000, 15.762411)" id="Path">
                            <g>
                                <path d="M29.3131312,31.6342589 L29.3131312,31.6342589 C28.0692518,31.6342589 27.0613582,30.6259149 27.0613582,29.3824858 C27.0613582,22.7595709 24.4821773,16.5329681 19.7993901,11.8497305 C15.1166028,7.16649291 8.88954965,4.58731206 2.26663475,4.58776241 C1.02275532,4.58776241 0.0148617021,3.57986879 0.0148617021,2.33598936 C0.0148617021,1.09256028 1.02275532,0.0842163121 2.26663475,0.0842163121 C10.0924468,0.0842163121 17.4498901,3.13176596 22.9838475,8.6657234 C28.5173546,14.1996809 31.5653546,21.5571241 31.5649043,29.3829362 C31.5649043,30.6259149 30.5565603,31.6342589 29.3131312,31.6342589 Z"></path>
                            </g>
                        </g>
                        <g opacity="0.3" id="Path">
                            <g>
                                <path d="M45.0854504,47.3966702 L45.0854504,47.3966702 C43.8415709,47.3966702 42.8336773,46.3883262 42.8336773,45.1448972 C42.8341277,34.3093652 38.614305,24.1218936 30.9519716,16.4595603 C23.2896383,8.79722695 13.1021667,4.57740426 2.26663475,4.57785461 C1.02275532,4.57785461 0.0148617021,3.56996099 0.0148617021,2.32608156 C0.0148617021,1.08265248 1.02275532,0.0743085106 2.26663475,0.0743085106 C14.3050638,0.0743085106 25.6233759,4.7625 34.1368794,13.2751028 C42.6494823,21.788156 47.3376738,33.1064681 47.3376738,45.1448972 C47.3376738,46.3883262 46.3288794,47.3966702 45.0854504,47.3966702 Z"></path>
                            </g>
                        </g>
                    </g>
                </g>
                <g id="Lines" transform="translate(0.000000, 28.372340)">
                    <path d="M218.87234,192.301418 L2.25177305,192.301418 C1.00789362,192.301418 0,191.293074 0,190.049645 L0,168.882979 C0,167.63955 1.00789362,166.631206 2.25177305,166.631206 L218.87234,166.631206 C220.11622,166.631206 221.124113,167.63955 221.124113,168.882979 L221.124113,190.049645 C221.124113,191.293074 220.11622,192.301418 218.87234,192.301418 Z M4.5035461,187.797872 L216.620567,187.797872 L216.620567,171.134752 L4.5035461,171.134752 L4.5035461,187.797872 Z" id="Shape" fill="#3F456B"></path>
                    <path d="M125.940766,42.1748085 C125.364762,42.1748085 124.787858,41.9550355 124.348762,41.5154894 C123.46922,40.6359468 123.46922,39.2101241 124.348762,38.3310319 C132.074596,30.6047482 132.074596,18.0335496 124.348762,10.307266 C116.622929,2.58143262 104.05173,2.58098227 96.3245461,10.307266 C88.5987128,18.0335496 88.5987128,30.6047482 96.3245461,38.3310319 C97.2040887,39.2105745 97.2040887,40.6363972 96.3245461,41.5154894 C95.4459043,42.3945816 94.0191809,42.3945816 93.140539,41.5154894 C83.6583227,32.033273 83.6583227,16.6050248 93.140539,7.12280851 C102.622755,-2.35895745 118.050553,-2.35895745 127.53277,7.12280851 C137.014986,16.6050248 137.014986,32.033273 127.53277,41.5154894 C127.093674,41.9550355 126.51722,42.1748085 125.940766,42.1748085 Z" id="Path" fill="#3F456B"></path>
                    <path d="M139.159574,71.1560284 L81.5141844,71.1560284 C80.270305,71.1560284 79.2624113,70.1476844 79.2624113,68.9042553 L79.2624113,40.0815603 C79.2624113,38.8381312 80.270305,37.8297872 81.5141844,37.8297872 L139.159574,37.8297872 C140.403454,37.8297872 141.411348,38.8381312 141.411348,40.0815603 L141.411348,68.9042553 C141.411348,70.1476844 140.403454,71.1560284 139.159574,71.1560284 Z M83.7659574,66.6524823 L136.907801,66.6524823 L136.907801,42.3333333 L83.7659574,42.3333333 L83.7659574,66.6524823 Z" id="Shape" fill="#3F456B"></path>
                    <path d="M51.7083652,109.072284 C51.4313972,109.072284 51.1494752,109.020493 50.8756596,108.911957 L4.01851418,90.2429574 C3.4636773,90.0218333 3.0191773,89.5894929 2.78364184,89.040961 C2.54765603,88.4924291 2.53909929,87.8722908 2.7602234,87.3174539 L18.5955922,47.5723085 C18.816266,47.0174716 19.2486064,46.573422 19.7975887,46.3369858 C20.3456702,46.101 20.9658085,46.0928936 21.5206454,46.3135674 L68.3782411,64.9830177 C69.5334007,65.4432801 70.0967943,66.7529113 69.6365319,67.9085213 L53.8011631,107.653667 C53.4498865,108.535461 52.6036702,109.072284 51.7083652,109.072284 Z M7.77717376,86.8923191 L50.4514255,103.894557 L64.6200319,68.3332057 L21.9457801,51.3309681 L7.77717376,86.8923191 Z" id="Shape" fill="#3F456B"></path>
                    <path d="M154.246004,104.221514 C153.11111,104.221514 152.135191,103.366741 152.009993,102.212933 L148.895791,73.5591206 C148.761135,72.3228972 149.655089,71.2118723 150.891312,71.0772163 L208.198936,64.8488121 C209.438762,64.7123546 210.546184,65.6081099 210.68084,66.843883 L213.795493,95.497695 C213.860344,96.0912624 213.686057,96.6866312 213.311812,97.1518475 C212.938018,97.6175142 212.393989,97.9151986 211.800422,97.9795993 L154.492348,104.208004 C154.409032,104.217011 154.327067,104.221514 154.246004,104.221514 Z M153.616408,75.311 L156.244227,99.4878369 L209.075326,93.7458156 L206.447057,69.5689787 L153.616408,75.311 Z" id="Shape" fill="#3F456B"></path>
                    <g id="Group" opacity="0.5" transform="translate(86.017730, 22.067376)" fill="#3F456B">
                        <path d="M46.3865248,4.5035461 L2.25177305,4.5035461 C1.00789362,4.5035461 0,3.49520213 0,2.25177305 C0,1.00834397 1.00789362,0 2.25177305,0 L46.3865248,0 C47.6304043,0 48.6382979,1.00834397 48.6382979,2.25177305 C48.6382979,3.49520213 47.6304043,4.5035461 46.3865248,4.5035461 Z" id="Path"></path>
                    </g>
                    <path d="M123.388156,127.450355 L97.5107801,127.450355 C96.309234,127.450355 95.3193546,126.506862 95.2617092,125.307117 L92.5505745,69.0127908 C92.4906773,67.7707128 93.4490319,66.7150816 94.6915603,66.6551844 C95.9426454,66.5943865 96.9888191,67.5536418 97.0487163,68.7957199 L99.6562695,122.946809 L121.242667,122.946809 L123.85022,68.7957199 C123.910117,67.5536418 124.96845,66.5984397 126.207376,66.6551844 C127.449904,66.7150816 128.408259,67.7707128 128.348362,69.0127908 L125.637227,125.307117 C125.580032,126.506862 124.589702,127.450355 123.388156,127.450355 Z" id="Path" fill="#3F456B"></path>
                    <path d="M26.902383,138.456571 C26.6245142,138.456571 26.3425922,138.40478 26.0696773,138.296245 L2.02974823,128.718103 C0.935836879,128.28216 0.362535461,127.077461 0.713812057,125.954277 L11.3633475,91.8993617 C11.7344397,90.712227 12.9967837,90.0520071 14.1848191,90.4221986 C15.3719539,90.7932908 16.0330745,92.0565355 15.6619823,93.2432199 L5.63573759,125.306667 L25.7985638,133.340092 L40.5679433,103.166333 C41.1146738,102.049454 42.4630355,101.586489 43.5803652,102.134121 C44.6972447,102.680851 45.1597589,104.029213 44.6130284,105.146543 L28.9262766,137.194677 C28.5371702,137.987752 27.7391418,138.456571 26.902383,138.456571 Z" id="Path" fill="#3F456B"></path>
                    <path d="M177.260475,143.124046 C176.188181,143.124046 175.246039,142.358894 175.047883,141.278943 L167.709805,101.339695 C167.485078,100.116532 168.294816,98.9429078 169.517979,98.7181809 C170.737989,98.4930035 171.914766,99.3027411 172.139493,100.525904 L179.094319,138.381362 L198.360039,136.044922 L196.065933,97.6242695 C195.992074,96.3830922 196.93827,95.3162021 198.179447,95.242344 C199.421525,95.1711879 200.487064,96.1142305 200.561372,97.3558582 L202.981578,137.891376 C203.052284,139.079411 202.186252,140.117479 201.004521,140.261142 L177.53294,143.107383 C177.441968,143.118642 177.350546,143.124046 177.260475,143.124046 Z" id="Path" fill="#3F456B"></path>
                    <g id="Group" opacity="0.7" transform="translate(95.925532, 51.340426)" fill="#3F456B">
                        <g transform="translate(11.258865, 0.000000)" id="Path">
                            <path d="M6.02529433,3.00026241 C6.02529433,4.61028014 4.72061702,5.9154078 3.11014894,5.9154078 C1.50058156,5.9154078 0.195003546,4.61028014 0.195003546,3.00026241 C0.195003546,1.39024468 1.50013121,0.0846666667 3.11014894,0.0846666667 C4.72061702,0.0851170213 6.02529433,1.39024468 6.02529433,3.00026241 Z"></path>
                        </g>
                        <g id="Path">
                            <path d="M6.02529433,3.00026241 C6.02529433,4.61028014 4.72106738,5.9154078 3.11014894,5.9154078 C1.50058156,5.9154078 0.195003546,4.61028014 0.195003546,3.00026241 C0.195003546,1.39024468 1.50013121,0.0846666667 3.11014894,0.0846666667 C4.72061702,0.0851170213 6.02529433,1.39024468 6.02529433,3.00026241 Z"></path>
                        </g>
                        <g transform="translate(22.067376, 0.000000)" id="Path">
                            <path d="M6.02529433,3.00026241 C6.02529433,4.61028014 4.72061702,5.9154078 3.11014894,5.9154078 C1.50058156,5.9154078 0.195003546,4.61028014 0.195003546,3.00026241 C0.195003546,1.39024468 1.50013121,0.0846666667 3.11014894,0.0846666667 C4.72061702,0.0851170213 6.02529433,1.39024468 6.02529433,3.00026241 Z"></path>
                        </g>
                    </g>
                    <g id="Group" transform="translate(145.014184, 21.617021)" fill="#3F456B">
                        <path d="M6.78369149,47.5367305 C5.96044326,47.5367305 5.16736879,47.0836738 4.77105674,46.2982553 C4.21126596,45.1881312 4.65756738,43.8339149 5.76814184,43.2741241 C5.91630851,43.1993652 9.43132624,41.4344255 12.2469433,40.6445035 C13.4448865,40.3094397 14.6874149,41.007039 15.0233794,42.2045319 C15.3588936,43.4020248 14.6603936,44.6445532 13.4633511,44.9809681 C11.0638617,45.6537979 7.82806383,47.2791277 7.7956383,47.2953404 C7.47093262,47.4588191 7.12460993,47.5367305 6.78369149,47.5367305 Z" id="Path"></path>
                        <path d="M3.22003546,39.7699149 C2.30356383,39.7699149 1.44248582,39.2065213 1.10697163,38.2963546 C0.676882979,37.1294858 1.27405319,35.8347163 2.44092199,35.4046277 C2.59404255,35.3483333 6.23425887,34.0188865 10.4905603,33.5563723 C11.7308369,33.4199149 12.8378085,34.3156702 12.9724645,35.5514433 C13.1071206,36.788117 12.2131667,37.8991418 10.9769433,38.0333475 C7.26602128,38.4368652 4.03067376,39.6185957 3.99869858,39.630305 C3.74199645,39.7248794 3.47898936,39.7699149 3.22003546,39.7699149 Z" id="Path"></path>
                        <path d="M10.8044574,30.3381383 C10.7215922,30.3381383 10.6382766,30.3336348 10.5536099,30.3241773 C6.60354965,29.8864326 2.63052128,29.8706702 2.59089007,29.8706702 C1.34701064,29.8675177 0.341819149,28.856922 0.344964236,27.6130426 C0.348574468,26.3714149 1.35556738,25.3671241 2.59674468,25.3671241 C2.5985461,25.3671241 2.60034752,25.3671241 2.60214894,25.3671241 C2.77373404,25.3675745 6.85079433,25.3828865 11.0499007,25.8481028 C12.2861241,25.9850106 13.1769255,27.0982872 13.0400177,28.3345106 C12.9125674,29.4860674 11.9370993,30.3381383 10.8044574,30.3381383 Z" id="Path"></path>
                        <path d="M12.757195,23.3301702 C12.261805,23.3301702 11.7637128,23.1680426 11.3475851,22.8334291 C9.1003156,21.0270567 5.50648582,19.2783298 5.47045745,19.260766 C4.35132624,18.718539 3.8834078,17.3724291 4.42473404,16.2528475 C4.96606028,15.133266 6.31262057,14.6657979 7.43175177,15.2062234 C7.59703191,15.2863865 11.5178191,17.1918369 14.1695071,19.3229149 C15.1386702,20.1020284 15.2926915,21.5192943 14.5140284,22.4884574 C14.0686277,23.042844 13.4160638,23.3301702 12.757195,23.3301702 Z" id="Path"></path>
                        <path d="M17.101766,17.4228688 C16.361383,17.4228688 15.6367624,17.0585319 15.2062234,16.3897553 C14.3856773,15.1148014 11.6709397,11.9398014 10.6941206,10.8238227 C9.87537589,9.88798582 9.96995035,8.4653156 10.9057872,7.64657092 C11.8411738,6.82737589 13.2633936,6.92195035 14.0834894,7.85778723 C14.4653901,8.2937305 17.8457518,12.170383 18.992805,13.9519858 C19.6660851,14.9977092 19.3638972,16.3911064 18.3186241,17.0643865 C17.941227,17.3066773 17.5187943,17.4228688 17.101766,17.4228688 Z" id="Path"></path>
                        <path d="M23.4756348,13.5592766 C22.5866348,13.5592766 21.744922,13.0296596 21.3891418,12.1559716 C20.1857943,9.20074468 18.4280603,5.3637234 18.4104965,5.32544326 C17.8921383,4.19505319 18.3879787,2.85840071 19.5188191,2.34004255 C20.6487589,1.8216844 21.9858617,2.31752482 22.5042199,3.44791489 C22.5776277,3.60824113 24.3200496,7.41058511 25.5603262,10.4576844 C26.0291454,11.6096915 25.4756596,12.9233759 24.3236525,13.392195 C24.0457837,13.5056844 23.7584574,13.5592766 23.4756348,13.5592766 Z" id="Path"></path>
                        <path d="M61.8976383,41.9991702 C61.525195,41.9991702 61.1473475,41.9063972 60.7992234,41.7113936 L60.7992234,41.7113936 C59.9804787,41.2538333 57.461195,40.0437305 55.6597766,39.9410496 C54.4181489,39.870344 53.4692518,38.8066064 53.5395071,37.5649787 C53.6097624,36.3233511 54.6721489,35.3699504 55.915578,35.4447092 C59.0797695,35.6248511 62.611,37.5631773 63.0032589,37.7834007 C64.0872624,38.3927305 64.4723156,39.7654113 63.8625355,40.8498652 C63.4500106,41.5857447 62.6848582,41.9991702 61.8976383,41.9991702 Z" id="Path"></path>
                        <path d="M55.9516064,33.1321383 C54.9315532,33.1321383 54.0078759,32.434539 53.7624326,31.3987234 C53.4755567,30.1886206 54.2240461,28.9753652 55.4345993,28.6884894 C59.1968617,27.7972376 62.9956028,27.8476773 63.153227,27.8494787 C64.3971064,27.8692943 65.3887872,28.8938511 65.3685213,30.1372801 C65.3487057,31.3680993 64.3448652,32.3525745 63.1180993,32.3525745 C63.1063901,32.3525745 63.0942305,32.3525745 63.0829716,32.3525745 L63.0829716,32.3525745 C63.0473936,32.3525745 59.6733369,32.3124929 56.4726667,33.0704397 C56.2983794,33.1123227 56.1231915,33.1321383 55.9516064,33.1321383 Z" id="Path"></path>
                        <path d="M54.2326028,25.618422 C53.4269184,25.618422 52.6473546,25.1847305 52.2429362,24.4236312 C51.6588262,23.3256667 52.0754043,21.9624433 53.1733688,21.3783333 C57.707539,18.9671348 60.2353794,18.6370248 60.5082943,18.6073014 C61.7485709,18.4690426 62.8555426,19.3665993 62.9901986,20.6028227 C63.1235035,21.8304894 62.243961,22.9343085 61.0212482,23.0815745 C60.9284752,23.0955355 58.948266,23.4085319 55.288234,25.3549645 C54.9513688,25.5337553 54.5892837,25.618422 54.2326028,25.618422 Z" id="Path"></path>
                        <path d="M50.3167695,18.7950993 C49.8213794,18.7950993 49.3232872,18.6325213 48.9071596,18.2983582 C47.9379965,17.5192447 47.7839752,16.1019787 48.5630887,15.1323652 C50.6941667,12.4811277 54.1146099,9.77764894 54.2587234,9.66415957 C55.2368936,8.89540426 56.6510071,9.06383688 57.4206631,10.0402057 C58.1898688,11.0170248 58.0214362,12.4324894 57.0450674,13.2021454 C57.0139929,13.2269149 53.8795248,15.7070177 52.0727021,17.9538369 C51.6282021,18.507773 50.9747376,18.7950993 50.3167695,18.7950993 Z" id="Path"></path>
                        <path d="M44.8571206,14.4063936 C44.5968156,14.4063936 44.3320071,14.3609078 44.0739539,14.2649823 C42.9079858,13.8321915 42.3139681,12.5360709 42.7467589,11.3701028 C43.4799362,9.39574823 46.0302943,4.22252482 46.1383794,4.00365248 C46.6887128,2.88857447 48.0375248,2.43011348 49.1539539,2.98089716 C50.2694823,3.5312305 50.7270426,4.88184397 50.1767092,5.99692199 C49.4683014,7.43265248 47.5101596,11.4786383 46.9688333,12.9377872 C46.6319681,13.8452518 45.7722411,14.4063936 44.8571206,14.4063936 Z" id="Path"></path>
                        <path d="M37.4051028,12.4982411 C37.2785532,12.4982411 37.1506525,12.4874326 37.0209504,12.4653652 C35.7950851,12.2550496 34.9722872,11.0904326 35.1830532,9.86501773 C35.7342872,6.65624113 36.5908617,2.02794681 36.5998688,1.98156028 C36.8259468,0.758397163 38.0018227,-0.0495390071 39.2236348,0.177439716 C40.4467979,0.403968085 41.2542837,1.57894326 41.0277553,2.80165603 C41.0191986,2.84804255 40.1680284,7.44751418 39.6217482,10.6270177 C39.4335,11.7236312 38.481,12.4982411 37.4051028,12.4982411 Z" id="Path"></path>
                        <path d="M30.5380957,11.8848582 C29.4032021,11.8848582 28.4272837,11.0296348 28.3020851,9.87582624 L27.4265957,1.81718085 L31.9035709,1.33034752 L32.7790603,9.38989362 C32.913266,10.626117 32.0197624,11.7371418 30.783539,11.8713475 C30.7011241,11.8803546 30.6187092,11.8848582 30.5380957,11.8848582 Z" id="Path"></path>
                    </g>
                    <path d="M188.513486,111.959957 C187.364631,113.088096 185.519528,113.071433 184.39139,111.922578 C183.263702,110.774174 183.280365,108.92817 184.42877,107.800482 C185.577624,106.672344 187.423628,106.689007 188.551316,107.837862 C189.679904,108.986716 189.66234,110.83227 188.513486,111.959957 Z" id="Path" fill="#3F456B"></path>
                    <g id="Group" transform="translate(99.978723, 75.209220)">
                        <g opacity="0.4" transform="translate(1.801418, 7.656028)" fill="#384169" id="Oval">
                            <circle cx="8.31940071" cy="8.42793617" r="8.10638298"></circle>
                        </g>
                        <circle id="Oval" fill="#767C93" cx="10.4153511" cy="10.6878156" r="8.10638298"></circle>
                        <g opacity="0.2" transform="translate(3.152482, 2.251773)" fill="#FFFFFF" id="Path">
                            <path d="M13.9587411,9.70334043 C13.9587411,9.70334043 12.4054681,5.10837234 7.45877305,4.83815957 C2.51207801,4.56839716 0.443599291,9.41646454 0.443599291,9.41646454 C0.443599291,9.41646454 -1.28936525,-0.14951773 7.70421631,0.341368794 C16.6977979,0.832255319 13.9587411,9.70334043 13.9587411,9.70334043 Z"></path>
                        </g>
                        <g opacity="0.4" transform="translate(3.152482, 9.007092)" fill="#384169" id="Path">
                            <path d="M0.566546099,0.413425532 C0.566546099,0.413425532 2.11981915,5.00839362 7.06651418,5.27860638 C12.0132092,5.54836879 14.0816879,0.700301418 14.0816879,0.700301418 C14.0816879,0.700301418 15.8146525,10.2662837 6.82107092,9.77539716 C-2.17251064,9.28451064 0.566546099,0.413425532 0.566546099,0.413425532 Z"></path>
                        </g>
                        <path d="M10.427961,21.046422 C10.2361099,21.046422 10.0433582,21.0410177 9.85060638,21.0306596 C7.08813121,20.8797908 4.54948227,19.6620319 2.70257801,17.6021099 C0.855673759,15.5417376 -0.0783617021,12.8859965 0.0725070922,10.1235213 C0.223375887,7.3610461 1.4406844,4.82239716 3.50060638,2.97549291 C5.56052837,1.12858865 8.21897163,0.194553191 10.979195,0.345421986 C13.7421206,0.49629078 16.2803191,1.71404965 18.1272234,3.77397163 C19.974578,5.83434397 20.9081631,8.49008511 20.7572943,11.2525603 C20.6068759,14.0150355 19.3895674,16.5536844 17.329195,18.4005887 C15.4138369,20.1182411 12.9814716,21.046422 10.427961,21.046422 Z M10.407695,4.83275532 C8.96430851,4.83275532 7.58982624,5.35741844 6.50717376,6.32838298 C5.34255674,7.37230496 4.65441489,8.80713475 4.56884752,10.3685142 C4.48418085,11.9298936 5.0115461,13.4313759 6.05591844,14.5955426 C7.09939007,15.7597092 8.53467021,16.4483014 10.0960496,16.5334184 C11.6628333,16.6194362 13.1589113,16.0907199 14.3235284,15.0467979 C15.487695,14.0028759 16.1758369,12.5680461 16.2614043,11.0066667 C16.3460709,9.44483688 15.8187057,7.94380496 14.7747837,6.77918794 C13.7308617,5.61502128 12.2960319,4.92642908 10.7342021,4.84131206 C10.6252163,4.8359078 10.5162305,4.83275532 10.407695,4.83275532 Z" id="Shape" fill="#3F456B"></path>
                    </g>
                    <path d="M57.1058652,65.1681135 C56.8379043,65.1681135 56.5663404,65.1199255 56.3015319,65.0185957 C55.1400674,64.5740957 54.5586596,63.2721206 55.0031596,62.110656 L70.6800035,21.159461 C71.8513759,18.2199965 71.8081418,15.0319362 70.5696667,12.1532695 C69.3316418,9.27460284 67.0465426,7.05075177 64.1354504,5.89108865 C61.2230071,4.73052482 58.0362979,4.77420922 55.1571809,6.0126844 C52.2785142,7.25115957 50.0546631,9.53580851 48.895,12.4469007 L33.2294149,53.3701738 C32.7849149,54.5320887 31.4815887,55.1125957 30.3214752,54.6680957 C29.1600106,54.2235957 28.5786028,52.9216206 29.0231028,51.760156 L44.6999468,10.8085106 C46.3162695,6.75171631 49.3939929,3.58932624 53.3778298,1.87572695 C57.3612163,0.16212766 61.7737908,0.102680851 65.8022128,1.70729433 C69.8306348,3.31235816 72.9930248,6.39008156 74.7066241,10.3734681 C76.4202234,14.357305 76.4801206,18.7698794 74.8746064,22.7978511 L59.2094716,63.7206738 C58.8658511,64.6173298 58.0115284,65.1681135 57.1058652,65.1681135 Z" id="Path" fill="#3F456B"></path>
                    <path d="M19.945305,120.656755 C19.6683369,120.656755 19.3864149,120.604965 19.1125993,120.496429 C17.9574397,120.036167 17.3940461,118.726535 17.8543085,117.570926 L22.0214397,107.11144 C22.4812518,105.95628 23.7890816,105.392436 24.9464929,105.853149 C26.1016525,106.313411 26.6650461,107.623043 26.2047837,108.778652 L22.0376525,119.238138 C21.6863759,120.119482 20.8401596,120.656755 19.945305,120.656755 Z" id="Path" fill="#3F456B"></path>
                </g>
            </g>
        </g>
    </g>
</svg>