<?xml version="1.0" encoding="UTF-8"?>
<svg width="228px" height="228px" viewBox="0 0 228 228" version="1.1" xmlns="http://www.w3.org/2000/svg" xmlns:xlink="http://www.w3.org/1999/xlink">
    <title>6518314_add_document_file_new_icon</title>
    <g id="Style-guide" stroke="none" stroke-width="1" fill="none" fill-rule="evenodd">
        <g id="Styleguide" transform="translate(-380.000000, -13067.000000)" fill-rule="nonzero">
            <g id="6518314_add_document_file_new_icon" transform="translate(380.000000, 13067.000000)">
                <g id="Colors" transform="translate(0.000000, 2.251773)">
                    <path d="M225.177305,67.1793972 L225.177305,188.869716 C225.177305,195.715106 220.164858,201.758865 213.323972,201.758865 L74.781383,201.758865 C67.9359929,201.758865 60.3475177,195.715106 60.3475177,188.869716 L59.4468085,12.6099291 C59.5439392,5.6775413 65.1467053,0.0847623193 72.0792553,1.59998098e-15 L164.514539,1.59998098e-15 C164.514539,1.59998098e-15 178.340426,1.59998098e-15 184.195035,5.85460993 C188.464397,10.1239716 211.666667,32.4570567 222.024823,44.5851064 C225.84383,49.0481206 225.028688,52.804078 225.028688,52.804078 C225.028688,52.804078 225.177305,60.0007447 225.177305,67.1793972 Z" id="Path" fill="#F5F6F7"></path>
                    <g id="Group" opacity="0.15" transform="translate(59.897163, 108.985816)" fill="#3F456B">
                        <path d="M72.5071448,57.7534752 C72.5000105,39.863145 64.1753151,22.9930446 49.9807862,12.1036317 C35.7862573,1.21421871 17.3356097,-2.45653645 0.0540425532,2.17070922 L0.45035461,79.8839007 C0.45035461,86.7292908 8.03882979,92.7730496 14.8842199,92.7730496 L60.622234,92.7730496 C68.3449212,82.7339631 72.5242451,70.4192898 72.5071448,57.7534752 L72.5071448,57.7534752 Z" id="Path"></path>
                    </g>
                    <g id="Group" opacity="0.3" transform="translate(86.017730, 36.478723)" fill="#3F456B">
                        <path d="M64.5493262,4.5035461 L2.25177305,4.5035461 C1.00815313,4.5035461 1.27998479e-14,3.49539297 1.27998479e-14,2.25177305 C1.27998479e-14,1.00815313 1.00815313,6.39992393e-15 2.25177305,6.39992393e-15 L64.5493262,6.39992393e-15 C65.7929462,6.39992393e-15 66.8010993,1.00815313 66.8010993,2.25177305 C66.8010993,3.49539297 65.7929462,4.5035461 64.5493262,4.5035461 L64.5493262,4.5035461 Z" id="Path"></path>
                        <path d="M64.5493262,26.1205674 L2.25177305,26.1205674 C1.00815313,26.1205674 1.27998479e-14,25.1124142 1.27998479e-14,23.8687943 C1.27998479e-14,22.6251744 1.00815313,21.6170213 2.25177305,21.6170213 L64.5493262,21.6170213 C65.7929462,21.6170213 66.8010993,22.6251744 66.8010993,23.8687943 C66.8010993,25.1124142 65.7929462,26.1205674 64.5493262,26.1205674 L64.5493262,26.1205674 Z" id="Path"></path>
                        <path d="M112.588652,46.3865248 L2.25177305,46.3865248 C1.00815313,46.3865248 1.27998479e-14,45.3783717 1.27998479e-14,44.1347518 C1.27998479e-14,42.8911319 1.00815313,41.8829787 2.25177305,41.8829787 L112.588652,41.8829787 C113.832272,41.8829787 114.840426,42.8911319 114.840426,44.1347518 C114.840426,45.3783717 113.832272,46.3865248 112.588652,46.3865248 Z" id="Path"></path>
                        <path d="M112.588652,68.0035461 L31.0744681,68.0035461 C29.8308482,68.0035461 28.822695,66.995393 28.822695,65.751773 C28.822695,64.5081531 29.8308482,63.5 31.0744681,63.5 L112.588652,63.5 C113.832272,63.5 114.840426,64.5081531 114.840426,65.751773 C114.840426,66.995393 113.832272,68.0035461 112.588652,68.0035461 Z" id="Path"></path>
                        <path d="M112.588652,88.2695035 L53.141844,88.2695035 C51.8982241,88.2695035 50.8900709,87.2613504 50.8900709,86.0177305 C50.8900709,84.7741106 51.8982241,83.7659574 53.141844,83.7659574 L112.588652,83.7659574 C113.832272,83.7659574 114.840426,84.7741106 114.840426,86.0177305 C114.840426,87.2613504 113.832272,88.2695035 112.588652,88.2695035 Z" id="Path"></path>
                        <path d="M112.588652,109.886525 L53.141844,109.886525 C51.8982241,109.886525 50.8900709,108.878372 50.8900709,107.634752 C50.8900709,106.391132 51.8982241,105.382979 53.141844,105.382979 L112.588652,105.382979 C113.832272,105.382979 114.840426,106.391132 114.840426,107.634752 C114.840426,108.878372 113.832272,109.886525 112.588652,109.886525 Z" id="Path"></path>
                        <path d="M112.588652,130.602837 L53.141844,130.602837 C51.8982241,130.602837 50.8900709,129.594684 50.8900709,128.351064 C50.8900709,127.107444 51.8982241,126.099291 53.141844,126.099291 L112.588652,126.099291 C113.832272,126.099291 114.840426,127.107444 114.840426,128.351064 C114.840426,129.594684 113.832272,130.602837 112.588652,130.602837 Z" id="Path"></path>
                    </g>
                    <g id="Group" opacity="0.15" transform="translate(63.049645, 194.102837)" fill="#3F456B">
                        <path d="M160.776596,0.0405319149 C160.776596,0.0405319149 158.524823,7.20567376 150.449965,7.20567376 L10.6914184,7.20567376 C2.62106383,7.20567376 0.36929078,0.045035461 0.36929078,0.045035461 L160.776596,0.0405319149 Z" id="Path"></path>
                    </g>
                    <g id="Group" opacity="0.7" transform="translate(60.797872, 0.000000)" fill="#FFFFFF">
                        <path d="M10.6914184,0.0405319149 C2.62106383,0.0405319149 0.36929078,7.20117021 0.36929078,7.20117021 L110.589078,7.20117021 C110.583629,4.80600975 110.744643,2.41336614 111.070957,0.0405319149 L10.6914184,0.0405319149 Z" id="Path"></path>
                    </g>
                    <g id="Group" opacity="0.15" transform="translate(171.585106, 41.882979)" fill="#3F456B">
                        <path d="M0.45035461,0.0855673759 C0.45035461,0.0855673759 5.55111512e-17,11.2588652 10.9256028,11.2588652 L53.686773,11.2588652 L53.686773,18.0141844 L10.9256028,18.0141844 C5.55111512e-17,18.0141844 0.45035461,6.84088652 0.45035461,6.84088652 L0.45035461,0.0855673759 Z" id="Path"></path>
                    </g>
                    <circle id="Oval" fill="#9ED8CD" transform="translate(66.757930, 158.175525) rotate(-80.010000) translate(-66.757930, -158.175525) " cx="66.7579303" cy="158.175525" r="57.537305"></circle>
                    <g id="Group" opacity="0.2" transform="translate(9.007092, 157.624113)" fill="#3F456B">
                        <path d="M0,0.247695035 C0,0.247695035 9.45744681,51.3404255 58.0957447,51.3404255 C106.734043,51.3404255 115.043085,0.247695035 115.043085,0.247695035 C115.043085,0.247695035 113.070532,58.0957447 57.8480496,58.0957447 C2.62556738,58.0957447 0,0.247695035 0,0.247695035 Z" id="Path"></path>
                    </g>
                    <g id="Group" opacity="0.3" transform="translate(9.007092, 100.429078)" fill="#FFFFFF">
                        <path d="M115.043085,58.0957447 C115.043085,58.0957447 106.486348,7.65602837 57.8480496,7.65602837 C9.20975177,7.65602837 0,58.0957447 0,58.0957447 C0,58.0957447 1.97255319,0.243191489 57.1950355,0.243191489 C112.417518,0.243191489 115.043085,58.0957447 115.043085,58.0957447 Z" id="Path"></path>
                    </g>
                </g>
                <g id="Lines" transform="translate(6.755319, 0.000000)" fill="#3F456B">
                    <path d="M218.421986,57.6453901 L175.75539,57.6453901 C171.94539,57.6453901 168.882979,56.465461 166.644716,54.1371277 C162.99234,50.3406383 163.010355,44.837305 163.041879,44.1887943 L163.041879,2.70212766 L167.545426,2.70212766 L167.545426,44.3103901 C167.545426,44.3419149 167.446348,48.4851773 169.923298,51.0341844 C171.274362,52.4347872 173.246915,53.141844 175.777908,53.141844 L218.421986,53.141844 L218.421986,57.6453901 Z" id="Path"></path>
                    <path d="M206.568652,206.262411 L98.177305,206.262411 C96.933685,206.262411 95.9255319,205.254258 95.9255319,204.010638 C95.9255319,202.767018 96.933685,201.758865 98.177305,201.758865 L206.568652,201.758865 C211.860319,201.758865 216.170213,196.985106 216.170213,191.121489 L216.170213,56.5735461 C216.170213,51.4530142 211.418972,45.6254255 209.586028,43.815 C209.284291,43.5087589 181.560461,15.3210638 175.809433,9.54751773 C172.714869,6.48245513 168.587159,4.68360903 164.235319,4.5035461 L65.3239362,4.5035461 C59.6289092,4.57371425 55.0257974,9.16684098 54.9432624,14.8617021 L54.9432624,102.680851 C54.9432624,103.924471 53.9351093,104.932624 52.6914894,104.932624 C51.4478694,104.932624 50.4397163,103.924471 50.4397163,102.680851 L50.4397163,14.8617021 C50.4397163,6.80485816 57.2535816,0 65.3239362,0 L164.194787,0 C169.749788,0.172663382 175.03229,2.4469395 178.975426,6.36351064 C184.757979,12.1505674 212.495319,40.351773 212.752021,40.6354965 C213.008723,40.9192199 220.673759,48.548227 220.673759,56.5735461 L220.673759,191.121489 C220.673759,199.471064 214.368794,206.262411 206.568652,206.262411 Z" id="Path"></path>
                    <path d="M60.0052482,220.223404 C27.0212766,220.223404 0.211666667,193.400284 0.211666667,160.434326 C0.211666667,127.468369 27.0212766,100.640745 60.0052482,100.640745 C92.9892199,100.640745 119.794326,127.450355 119.794326,160.434326 C119.794326,193.418298 92.9712057,220.223404 60.0052482,220.223404 Z M60.0052482,105.144291 C37.6421066,105.142469 17.4799712,118.612299 8.92070525,139.272625 C0.361439271,159.932951 5.09070833,183.71492 20.9031934,199.528693 C36.7156785,215.342466 60.4972618,220.073672 81.1582849,211.516089 C101.819308,202.958506 115.29078,182.797468 115.29078,160.434326 C115.258516,129.913615 90.5259567,105.179041 60.0052482,105.144291 Z" id="Shape"></path>
                    <path d="M96.9118085,162.375355 L23.2878369,162.375355 C22.044217,162.375355 21.0360638,161.367201 21.0360638,160.123582 C21.0360638,158.879962 22.044217,157.871809 23.2878369,157.871809 L96.9118085,157.871809 C98.1554284,157.871809 99.1635816,158.879962 99.1635816,160.123582 C99.1635816,161.367201 98.1554284,162.375355 96.9118085,162.375355 Z" id="Path"></path>
                    <path d="M60.0998227,199.18734 C58.8562028,199.18734 57.8480496,198.179187 57.8480496,196.935567 L57.8480496,123.307092 C57.8480496,122.063472 58.8562028,121.055319 60.0998227,121.055319 C61.3434426,121.055319 62.3515957,122.063472 62.3515957,123.307092 L62.3515957,196.935567 C62.3515957,198.179187 61.3434426,199.18734 60.0998227,199.18734 L60.0998227,199.18734 Z" id="Path"></path>
                </g>
            </g>
        </g>
    </g>
</svg>