<?xml version="1.0" encoding="UTF-8"?>
<svg width="81px" height="82px" viewBox="0 0 81 82" version="1.1" xmlns="http://www.w3.org/2000/svg" xmlns:xlink="http://www.w3.org/1999/xlink">
    <title>AAF90FED-4D5E-48F2-94C3-09679C85AEEC</title>
    <g id="Style-guide" stroke="none" stroke-width="1" fill="none" fill-rule="evenodd">
        <g id="Styleguide" transform="translate(-1505.000000, -3461.000000)" fill-rule="nonzero">
            <g id="iconfinder_psychology_brain_neuro_mind_5876955" transform="translate(1505.000000, 3461.000000)">
                <g id="Colors" transform="translate(0.900000, 0.900000)">
                    <path d="M39.7656,3.2652 C40.2354,1.9746 41.7456,-0.207 46.557,0.081 C53.9982,0.5238 62.7804,4.3596 67.6638,12.6468 L67.5468,12.7422 C71.3268,13.4208 73.3914,16.0308 72.2934,22.0158 C80.5212,24.525 75.6576,33.633 75.6576,33.633 C75.6576,33.633 79.4502,36.7974 78.4926,47.7414 C77.7042,56.7576 72,60.0444 72,60.0444 C72,60.0444 73.1412,67.032 65.5362,67.4424 C65.5362,67.4424 64.5714,72.2538 60.021,75.6612 C55.026,79.4016 41.571,81.1998 39.7674,75.5676" id="Path" fill="#FFBDBD"></path>
                    <g id="Group" opacity="0.1" transform="translate(39.600000, 39.780000)" fill="#3F456B">
                        <path d="M0.18,32.2902 C0.18,32.2902 1.0044,37.4004 11.718,36.2502 C22.4316,35.1 24.4098,24.5502 24.4098,24.5502 C31.329,25.2 29.9052,17.28 29.9052,17.28 C38.2068,13.3038 38.2464,0 38.2464,0 C38.2464,0 41.5494,12.1968 32.319,20.2734 C32.319,20.2734 32.6484,27.855 25.7256,27.6912 C25.7256,27.6912 22.9788,37.9656 11.4948,39.0096 C0.0108,40.0536 0.0126,36.4104 0.18,32.2902 Z" id="Path"></path>
                    </g>
                    <g id="Group" opacity="0.1" transform="translate(56.520000, 42.840000)" fill="#3F456B">
                        <path d="M10.2888,0.054 C10.2888,0.054 12.1014,5.4936 7.1568,6.813 C7.1568,6.813 4.6854,7.4718 2.7072,5.9886 C0.729,4.5054 -0.0954,6.318 0.0702,7.1424 C0.2358,7.9668 1.224,9.2862 3.0366,9.7794 C4.8492,10.2726 9.7938,11.2626 11.772,6.1542 C12.9258,2.8566 10.2888,0.054 10.2888,0.054 Z" id="Path"></path>
                    </g>
                    <g id="Group" opacity="0.1" transform="translate(39.780000, 61.560000)" fill="#3F456B">
                        <path d="M17.1396,0.126 C17.1396,0.126 20.106,5.7294 14.337,7.866 C8.568,10.0026 0,7.38 0,7.38 L0,10.512 C0,10.512 3.96,12.654 10.2204,12.3246 C16.4808,11.9952 19.7802,9.0288 20.1096,5.238 C20.439,1.4472 17.1396,0.126 17.1396,0.126 Z" id="Path"></path>
                    </g>
                    <g id="Group" opacity="0.1" transform="translate(45.720000, 37.260000)" fill="#3F456B">
                        <path d="M19.1106,1.0188 C19.1106,1.0188 17.298,6.3 9.5508,5.634 C1.8036,4.968 0.1548,0.0306 0.1548,0.0306 C0.1548,0.0306 0.1548,7.4484 9.5508,7.9506 C18.9468,8.4528 19.1106,1.0188 19.1106,1.0188 Z" id="Path"></path>
                    </g>
                    <g id="Group" opacity="0.3" transform="translate(64.260000, 21.600000)" fill="#FFFFFF">
                        <ellipse id="Oval" cx="5.1858" cy="4.0698" rx="5.1102" ry="4.0392"></ellipse>
                    </g>
                    <g id="Group" opacity="0.3" transform="translate(62.100000, 11.880000)" fill="#FFFFFF">
                        <ellipse id="Oval" transform="translate(4.704053, 3.568363) rotate(-80.960000) translate(-4.704053, -3.568363) " cx="4.70405264" cy="3.56836314" rx="2.8854" ry="4.2858"></ellipse>
                    </g>
                    <g id="Group" opacity="0.3" transform="translate(41.220000, 22.500000)" fill="#FFFFFF">
                        <ellipse id="Oval" transform="translate(4.985005, 4.322899) rotate(-78.000000) translate(-4.985005, -4.322899) " cx="4.98500521" cy="4.32289919" rx="3.3876" ry="4.2858"></ellipse>
                    </g>
                    <g id="Group" opacity="0.3" transform="translate(44.100000, 53.100000)" fill="#FFFFFF">
                        <ellipse id="Oval" transform="translate(5.072173, 4.382970) rotate(-78.000000) translate(-5.072173, -4.382970) " cx="5.072173" cy="4.38296984" rx="3.3876" ry="4.2858"></ellipse>
                    </g>
                    <g id="Group" opacity="0.3" transform="translate(39.600000, 0.000000)" fill="#FFFFFF">
                        <path d="M26.8794,12.5658 C26.8794,12.5658 19.8,4.6548 9.243,3.006 C9.243,3.006 1.323,1.5228 0.1764,6.3018 C0.1764,6.3018 -1.0836,-0.6102 7.3764,0.0432 C15.8364,0.6966 25.3962,6.138 26.8794,12.5658 Z" id="Path"></path>
                    </g>
                    <circle id="Oval" fill="#B2C6ED" cx="27.72" cy="4.86" r="4.86"></circle>
                    <g id="Group" opacity="0.3" transform="translate(25.560000, 0.000000)" fill="#FFFFFF">
                        <circle id="Oval" cx="2.25" cy="2.2464" r="2.2464"></circle>
                    </g>
                    <g id="Group" opacity="0.2" transform="translate(22.860000, 4.860000)" fill="#3F456B">
                        <path d="M0.09,0 C0.09,0 0.7326,2.934 4.95,2.934 C9.1674,2.934 9.81,0 9.81,0 C9.81,0 9.63,4.86 4.95,4.86 C0.27,4.86 0.09,0 0.09,0 Z" id="Path"></path>
                    </g>
                    <circle id="Oval" fill="#B2C6ED" cx="11.88" cy="18" r="4.86"></circle>
                    <g id="Group" opacity="0.3" transform="translate(9.720000, 13.140000)" fill="#FFFFFF">
                        <circle id="Oval" cx="2.25" cy="2.2464" r="2.2464"></circle>
                    </g>
                    <g id="Group" opacity="0.2" transform="translate(7.020000, 18.000000)" fill="#3F456B">
                        <path d="M0.09,0 C0.09,0 0.7326,2.934 4.95,2.934 C9.1674,2.934 9.81,0 9.81,0 C9.81,0 9.63,4.86 4.95,4.86 C0.27,4.86 0.09,0 0.09,0 Z" id="Path"></path>
                    </g>
                    <circle id="Oval" fill="#B2C6ED" cx="4.86" cy="38.52" r="4.86"></circle>
                    <g id="Group" opacity="0.3" transform="translate(2.700000, 33.660000)" fill="#FFFFFF">
                        <circle id="Oval" cx="2.25" cy="2.2464" r="2.2464"></circle>
                    </g>
                    <g id="Group" opacity="0.2" transform="translate(0.000000, 38.520000)" fill="#3F456B">
                        <path d="M0.09,0 C0.09,0 0.7326,2.934 4.95,2.934 C9.1674,2.934 9.81,0 9.81,0 C9.81,0 9.63,4.86 4.95,4.86 C0.27,4.86 0.09,0 0.09,0 Z" id="Path"></path>
                    </g>
                    <circle id="Oval" fill="#B2C6ED" cx="12.06" cy="61.74" r="4.86"></circle>
                    <g id="Group" opacity="0.3" transform="translate(9.900000, 56.880000)" fill="#FFFFFF">
                        <circle id="Oval" cx="2.25" cy="2.2464" r="2.2464"></circle>
                    </g>
                    <g id="Group" opacity="0.2" transform="translate(7.200000, 61.740000)" fill="#3F456B">
                        <path d="M0.09,0 C0.09,0 0.7326,2.934 4.95,2.934 C9.1674,2.934 9.81,0 9.81,0 C9.81,0 9.63,4.86 4.95,4.86 C0.27,4.86 0.09,0 0.09,0 Z" id="Path"></path>
                    </g>
                    <circle id="Oval" fill="#B2C6ED" cx="27.72" cy="23.94" r="4.86"></circle>
                    <g id="Group" opacity="0.3" transform="translate(25.560000, 19.080000)" fill="#FFFFFF">
                        <circle id="Oval" cx="2.25" cy="2.2464" r="2.2464"></circle>
                    </g>
                    <g id="Group" opacity="0.2" transform="translate(22.860000, 23.940000)" fill="#3F456B">
                        <path d="M0.09,0 C0.09,0 0.7326,2.934 4.95,2.934 C9.1674,2.934 9.81,0 9.81,0 C9.81,0 9.63,4.86 4.95,4.86 C0.27,4.86 0.09,0 0.09,0 Z" id="Path"></path>
                    </g>
                    <circle id="Oval" fill="#B2C6ED" cx="22.86" cy="41.58" r="4.86"></circle>
                    <g id="Group" opacity="0.3" transform="translate(20.700000, 36.720000)" fill="#FFFFFF">
                        <circle id="Oval" cx="2.25" cy="2.2464" r="2.2464"></circle>
                    </g>
                    <g id="Group" opacity="0.2" transform="translate(18.000000, 41.580000)" fill="#3F456B">
                        <path d="M0.09,0 C0.09,0 0.7326,2.934 4.95,2.934 C9.1674,2.934 9.81,0 9.81,0 C9.81,0 9.63,4.86 4.95,4.86 C0.27,4.86 0.09,0 0.09,0 Z" id="Path"></path>
                    </g>
                    <circle id="Oval" fill="#B2C6ED" cx="30.42" cy="58.5" r="4.86"></circle>
                    <g id="Group" opacity="0.3" transform="translate(28.260000, 53.640000)" fill="#FFFFFF">
                        <circle id="Oval" cx="2.25" cy="2.2464" r="2.2464"></circle>
                    </g>
                    <g id="Group" opacity="0.2" transform="translate(25.560000, 58.500000)" fill="#3F456B">
                        <path d="M0.09,0 C0.09,0 0.7326,2.934 4.95,2.934 C9.1674,2.934 9.81,0 9.81,0 C9.81,0 9.63,4.86 4.95,4.86 C0.27,4.86 0.09,0 0.09,0 Z" id="Path"></path>
                    </g>
                    <circle id="Oval" fill="#B2C6ED" cx="28.08" cy="75.24" r="4.86"></circle>
                    <g id="Group" opacity="0.3" transform="translate(25.920000, 70.380000)" fill="#FFFFFF">
                        <circle id="Oval" cx="2.25" cy="2.2464" r="2.2464"></circle>
                    </g>
                    <g id="Group" opacity="0.2" transform="translate(23.220000, 75.240000)" fill="#3F456B">
                        <path d="M0.09,0 C0.09,0 0.7326,2.934 4.95,2.934 C9.1674,2.934 9.81,0 9.81,0 C9.81,0 9.63,4.86 4.95,4.86 C0.27,4.86 0.09,0 0.09,0 Z" id="Path"></path>
                    </g>
                </g>
                <g id="Lines" fill="#3F456B">
                    <path d="M48.7368,80.7498002 C46.35,80.7498002 43.4466,80.3988 41.616,78.9498 C40.5185,78.1062543 39.8497934,76.8208883 39.789,75.438 C39.789,75.4182 39.789,75.3984 39.789,75.3786 L39.789,5.5386 C39.9104921,4.13370964 40.5593879,2.82691456 41.6052,1.881 C43.1172,0.504 45.3546,-0.099 48.2652,0.081 C52.4242164,0.364911062 56.4632019,1.59630909 60.0732,3.681 C64.0602,5.9922 67.0698,9.1458 68.7978,12.8232 C70.2689979,13.118512 71.6051478,13.881936 72.6066,14.9994 C73.7226,16.2684 74.8818,18.5652 74.2878,22.3992 C76.2966,23.4234 77.6448,24.8868 78.3,26.7588 C79.3962,29.889 78.1866,33.2064 77.6376,34.4502 C78.5232,35.8344 80.856,40.2102 80.4348,47.439 C79.9074,56.439 75.4524,60.3432 73.9548,61.4142 C73.9692,62.5032 73.8,64.9278 72.1872,66.8268 C71.0208,68.2002 69.3594,69.0138 67.2408,69.2496 C66.7488496,70.8962816 65.9587521,72.4386495 64.9098,73.8 C63.0522,76.2552 59.436,79.3998 52.7652,80.442 C51.4321995,80.6470522 50.0854796,80.7498002 48.7368,80.7498002 Z M41.5872,75.3498 C41.6251819,76.2131069 42.0445764,77.0149682 42.732,77.5386 C45.1062,79.4142 50.5692,78.9786 52.4754,78.6618 C64.053,76.8618 65.6028,68.3388 65.6154,68.2542 C65.6848954,67.8378249 66.0344441,67.5257011 66.456,67.5036 C68.3784,67.4028 69.8364,66.7836 70.7904,65.6676 C72.3888,63.7956 72.1224,61.0668 72.1188,61.038 C72.0800935,60.6792969 72.2593368,60.3321457 72.5742,60.156 C72.7938,60.03 78.066,56.8998 78.6258,47.3292 C79.092,39.3624 75.9132,35.1216 75.8808,35.0892 C75.6641899,34.8099182 75.6310973,34.429705 75.7962,34.1172 C75.816,34.083 77.6844,30.4668 76.5864,27.3492 C76.0356,25.7814 74.7972,24.57 72.9108,23.7492 C72.5217512,23.5801915 72.3035199,23.1624773 72.387,22.7466 C72.9504,19.9494 72.5544,17.685 71.244,16.1928 C70.1244,14.9202 68.346,14.301 66.2364,14.4504 C62.7246,14.6988 62.0226,18.2934 61.9938,18.4464 C61.8928816,18.921129 61.4337226,19.2303363 60.9558834,19.1453547 C60.4780442,19.0603731 60.1536504,18.6118145 60.2226,18.1314 C60.534,16.3584 62.1666,12.933 66.1104,12.654 C66.2904,12.6414 66.483,12.6324 66.6648,12.6288 C62.8848,5.7888 54.5958,2.268 48.1464,1.8774 C45.7632,1.7334 43.9794,2.1762 42.84,3.1968 C42.1350381,3.81340669 41.6856966,4.67100701 41.58,5.6016 L41.5872,75.3498 Z" id="Shape"></path>
                    <path d="M66.3768,35.0442 C66.3273634,35.0435064 66.2780388,35.0392957 66.2292,35.0316 C64.2492,34.7022 62.6634,33.66 61.7544,32.0976 C60.8902279,30.5601258 60.7581953,28.716951 61.3944,27.072 C63.0486,22.5846 69.6582,20.6298 73.9062,22.176 C74.2084467,22.2859663 74.4290678,22.5488261 74.4849575,22.8655626 C74.5408472,23.1822991 74.4235145,23.5047925 74.1771575,23.7115626 C73.9308005,23.9183328 73.5928467,23.9779664 73.2906,23.868 C71.5716,23.2416 69.3306,23.3118 67.275,24.048 C65.1834,24.8058 63.657,26.1324 63.0828,27.6858 C62.6276993,28.8277645 62.7144029,30.1144182 63.3186,31.185 C63.9522,32.2758 65.0934,33.0084 66.5316,33.2478 C66.9977402,33.3205213 67.3286122,33.7408564 67.2898246,34.2110378 C67.251037,34.6812193 66.8557557,35.0416504 66.384,35.037 L66.3768,35.0442 Z" id="Path"></path>
                    <path d="M53.1486,33.0102008 C52.7612126,33.0102008 52.4172877,32.7623129 52.294785,32.394805 C52.1722824,32.0272971 52.2986901,31.6226324 52.6086,31.3902 C57.4542,27.7416 62.5248,30.3102 62.7372,30.4272 C63.1638106,30.663568 63.3245214,31.1967307 63.0996046,31.6294881 C62.8746879,32.0622454 62.3459968,32.2371057 61.9074,32.0238 C61.7274,31.9302 57.6072,29.88 53.6922,32.8284 C53.5356557,32.9466241 53.3447708,33.0104631 53.1486,33.0102008 L53.1486,33.0102008 Z" id="Path"></path>
                    <path d="M52.2216,37.764 C52.1250372,37.764 52.0290844,37.7486927 51.9372,37.719 C51.7105995,37.6434446 51.5233292,37.4809078 51.4166406,37.2671931 C51.3099521,37.0534785 51.2925976,36.806118 51.3684,36.5796 C52.677,32.6538 52.5222,29.5974 50.9076,27.4968 C47.9592,23.6592 41.067,24.0336 40.9986,24.0372 C40.5015437,24.0675204 40.0740205,23.6891563 40.0437,23.1921 C40.0133796,22.6950437 40.3917437,22.2675205 40.8888,22.2372 C41.2128,22.2174 48.8088,21.8088 52.335,26.397 C54.3366,29.0016 54.585,32.6178 53.0766,37.1448 C52.9552832,37.514226 52.6104359,37.764 52.2216,37.764 Z" id="Path"></path>
                    <path d="M57.42,47.052 C56.9844,47.052 56.5356,47.0352 56.0736,47.0016 C52.371,46.7334 49.6278,45.5616 47.9232,43.5096 C46.6563975,41.9717202 46.0213346,40.0099098 46.1466,38.0214 C46.20808,37.5342853 46.6486243,37.1863293 47.1367308,37.239363 C47.6248373,37.2923967 47.9803715,37.7268481 47.9358,38.2158 C47.8690477,39.7281208 48.3639992,41.2116931 49.3254,42.381 C50.7078,44.0244 53.0226,44.9766 56.205,45.207 C59.3226,45.432 61.686,44.8182 63.225,43.3818 C64.3702076,42.2797589 65.0541199,40.7839017 65.1384,39.1968 C65.1384,38.6997437 65.5413437,38.2968 66.0384,38.2968 C66.5354563,38.2968 66.9384,38.6997437 66.9384,39.1968 C66.9384,39.3264 66.9114,42.4116 64.4508,44.6994 C62.7804,46.26 60.4188,47.052 57.42,47.052 Z" id="Path"></path>
                    <path d="M49.734,75.6432 C47.1852,75.6432 44.1414,75.15 40.6152,73.764 C40.1524406,73.5820774 39.9247774,73.0594594 40.1067,72.5967 C40.2886226,72.1339406 40.8112406,71.9062774 41.274,72.0882 C52.254,76.4082 58.041,71.3376 58.0986,71.2854 C58.1139693,71.2706536 58.1301977,71.2568294 58.1472,71.244 C58.2984,71.1252 61.8516,68.2632 59.517,64.908 C58.1904,63 56.1978,62.748 54.7758,63.135 C53.0627094,63.5793449 51.8352933,65.0828385 51.7428,66.8502 C51.7209354,67.171739 51.5291926,67.4571887 51.2397993,67.5990229 C50.950406,67.7408571 50.6073279,67.7175278 50.3397992,67.5378229 C50.0722706,67.358118 49.9209353,67.049339 49.9428,66.7278 C50.095302,64.2006091 51.847724,62.0544904 54.2934,61.3998 C56.826,60.6996 59.4558,61.6734 60.9912,63.8784 C62.3682,65.8584 62.4888,68.0274 61.3386,70.146 C60.8105412,71.0980816 60.1112171,71.9444712 59.2758,72.6426 C58.9266,72.9522 55.683,75.6432 49.734,75.6432 Z" id="Path"></path>
                    <path d="M55.8432,62.6130156 C55.381754,62.6156982 54.9930291,62.2689557 54.9432,61.8102 C54.7182,59.724 53.9352,58.167 52.6176,57.186 C50.2074,55.386 46.7766,55.998 46.7406,56.0052 C46.2514966,56.0951672 45.7820672,55.7716033 45.6921,55.2825 C45.6021329,54.7933966 45.9256966,54.3239672 46.4148,54.234 C46.5858,54.2034 50.6592,53.4834 53.6922,55.7424 C55.4292,57.0348 56.4516,59.0112 56.7324,61.6158 C56.7860046,62.1098513 56.4290352,62.5538472 55.935,62.6076 L55.8432,62.6130156 Z" id="Path"></path>
                    <path d="M63.36,54.9234991 C61.7109412,54.9179054 60.0964504,54.4502082 58.6998,53.5734 C58.418535,53.4067548 58.249757,53.1006918 58.2589135,52.773894 C58.2680699,52.4470962 58.4537208,52.1509639 58.7438756,52.0003291 C59.0340304,51.8496944 59.3830523,51.8682498 59.6556,52.0488 C61.5582,53.2422 63.918,53.4618 65.8152,52.6212 C67.3567411,51.9595381 68.4513799,50.5536985 68.715,48.897 C69.435,44.8668 65.4246,43.0272 65.385,43.0092 C65.082225,42.8842564 64.8712339,42.6046862 64.8341117,42.2792548 C64.7969895,41.9538235 64.939598,41.6339179 65.2064561,41.4439959 C65.4733141,41.2540738 65.8222837,41.2241246 66.1176,41.3658 C67.9662,42.1902 71.2584,44.892 70.488,49.2138 C70.1260467,51.4629516 68.6378469,53.3702381 66.5442,54.2682 C65.5399383,54.7057384 64.4554228,54.9288948 63.36,54.9234991 L63.36,54.9234991 Z" id="Path"></path>
                    <path d="M40.68,22.2786 C40.1885134,22.2786 39.7878638,21.8844237 39.78,21.393 C39.7368,18.8604 40.1724,15.5142 42.48,13.959 C44.154,12.834 46.458,12.879 49.329,14.1192 C53.6742,15.9804 55.269,15.0462 55.7496,14.5566 C56.4138,13.8852 56.4696,12.6612 55.899,11.3616 C54.8694,9 50.4486,8.3808 48.834,8.3394 C48.512461,8.33200461 48.219292,8.15363195 48.0649271,7.87147328 C47.9105622,7.58931461 47.918453,7.24623654 48.0856271,6.97147327 C48.2528012,6.69671 48.553861,6.5320046 48.8754,6.5394 C49.1598,6.5394 55.8414,6.7464 57.5568,10.6326 C58.4352,12.6234 58.2372,14.6124 57.0384,15.822 C54.891,17.9928 50.85,16.722 48.6306,15.7716 C46.3572,14.796 44.6292,14.6916 43.4952,15.4512 C41.7636,16.614 41.5548,19.6524 41.5836,21.3606 C41.5916226,21.8569905 41.1961761,22.2661286 40.6998,22.275 L40.68,22.2786 Z" id="Path"></path>
                    <path d="M50.4576,26.649 C50.360333,26.6485414 50.2637468,26.6327474 50.1714,26.6022 C49.700221,26.4441012 49.4463823,25.9340062 49.6044,25.4628 C49.6494,25.3242 50.796,22.0554 55.44,20.9196 C55.7551797,20.8347202 56.0916115,20.9271423 56.3191953,21.1611261 C56.5467791,21.39511 56.6298377,21.7339749 56.5362518,22.04668 C56.4426658,22.3593852 56.1871065,22.5969091 55.8684,22.6674 C52.1748,23.5674 51.318,26.01 51.3108,26.0334 C51.18844,26.4007743 50.8448154,26.648706 50.4576,26.649 L50.4576,26.649 Z" id="Path"></path>
                    <path d="M73.0656,62.3664 C72.5685437,62.3664 72.1656,61.9634563 72.1656,61.4664 C72.1656,61.1316 71.9856,58.248 67.7412,58.248 C67.2441437,58.248 66.8412,57.8450563 66.8412,57.348 C66.8412,56.8509437 67.2441437,56.448 67.7412,56.448 C73.8936,56.448 73.9656162,61.4106 73.9656162,61.461 C73.9670378,61.7006291 73.8728518,61.9309373 73.7039129,62.1008898 C73.5349741,62.2708423 73.3052334,62.3664 73.0656,62.3664 L73.0656,62.3664 Z" id="Path"></path>
                    <path d="M69.7122,47.52 C69.3570182,47.52 69.0350891,47.3109981 68.8904032,46.9866216 C68.7457172,46.6622451 68.8053385,46.2831126 69.0426,46.0188 C70.7000041,43.9345838 71.2569881,41.1817975 70.5402,38.6172 C70.4124565,38.1365466 70.6985466,37.6433435 71.1792,37.5156 C71.6598534,37.3878565 72.1530565,37.6739466 72.2808,38.1546 C73.6974,43.4682 70.5168,47.0718 70.38,47.223 C70.2094263,47.411996 69.9667877,47.52 69.7122,47.52 L69.7122,47.52 Z" id="Path"></path>
                    <path d="M28.62,11.52 C25.4388398,11.52 22.86,8.94116016 22.86,5.76 C22.86,2.57883984 25.4388398,0 28.62,0 C31.8011602,0 34.38,2.57883984 34.38,5.76 C34.38,7.28764698 33.7731446,8.75272552 32.6929351,9.83293506 C31.6127255,10.9131446 30.147647,11.52 28.62,11.52 Z M28.62,1.8 C26.4329524,1.8 24.66,3.57295239 24.66,5.76 C24.66,7.94704761 26.4329524,9.72 28.62,9.72 C30.8070476,9.72 32.58,7.94704761 32.58,5.76 C32.58,4.7097427 32.1627869,3.70250121 31.4201429,2.95985715 C30.6774988,2.21721309 29.6702573,1.8 28.62,1.8 Z" id="Shape"></path>
                    <path d="M12.78,24.66 C9.59883984,24.66 7.02,22.0811602 7.02,18.9 C7.02,15.7188398 9.59883984,13.14 12.78,13.14 C15.9611602,13.14 18.54,15.7188398 18.54,18.9 C18.54,22.0811602 15.9611602,24.66 12.78,24.66 Z M12.78,14.94 C10.5929524,14.94 8.82,16.7129524 8.82,18.9 C8.82,21.0870476 10.5929524,22.86 12.78,22.86 C14.9670476,22.86 16.74,21.0870476 16.74,18.9 C16.74,16.7129524 14.9670476,14.94 12.78,14.94 Z" id="Shape"></path>
                    <path d="M5.76,45.18 C2.57883984,45.18 0,42.6011602 0,39.42 C0,36.2388398 2.57883984,33.66 5.76,33.66 C8.94116016,33.66 11.52,36.2388398 11.52,39.42 C11.52,42.6011602 8.94116016,45.18 5.76,45.18 Z M5.76,35.46 C3.57295239,35.46 1.8,37.2329524 1.8,39.42 C1.8,41.6070476 3.57295239,43.38 5.76,43.38 C7.94704761,43.38 9.72,41.6070476 9.72,39.42 C9.72,37.2329524 7.94704761,35.46 5.76,35.46 Z" id="Shape"></path>
                    <path d="M12.96,68.4 C9.77883984,68.4 7.2,65.8211602 7.2,62.64 C7.2,59.4588398 9.77883984,56.88 12.96,56.88 C16.1411602,56.88 18.72,59.4588398 18.72,62.64 C18.72,65.8211602 16.1411602,68.4 12.96,68.4 Z M12.96,58.68 C10.7729524,58.68 9,60.4529524 9,62.64 C9,64.8270476 10.7729524,66.6 12.96,66.6 C15.1470476,66.6 16.92,64.8270476 16.92,62.64 C16.92,60.4529524 15.1470476,58.68 12.96,58.68 L12.96,58.68 Z" id="Shape"></path>
                    <path d="M28.62,30.6 C25.4388398,30.6 22.86,28.0211602 22.86,24.84 C22.86,21.6588398 25.4388398,19.08 28.62,19.08 C31.8011602,19.08 34.38,21.6588398 34.38,24.84 C34.38,28.0211602 31.8011602,30.6 28.62,30.6 Z M28.62,20.88 C26.4329524,20.88 24.66,22.6529524 24.66,24.84 C24.66,27.0270476 26.4329524,28.8 28.62,28.8 C30.8070476,28.8 32.58,27.0270476 32.58,24.84 C32.58,22.6529524 30.8070476,20.88 28.62,20.88 Z" id="Shape"></path>
                    <path d="M23.76,48.24 C20.5788398,48.24 18,45.6611602 18,42.48 C18,39.2988398 20.5788398,36.72 23.76,36.72 C26.9411602,36.72 29.52,39.2988398 29.52,42.48 C29.52,45.6611602 26.9411602,48.24 23.76,48.24 Z M23.76,38.52 C21.5729524,38.52 19.8,40.2929524 19.8,42.48 C19.8,44.6670476 21.5729524,46.44 23.76,46.44 C25.9470476,46.44 27.72,44.6670476 27.72,42.48 C27.72,41.4297427 27.3027869,40.4225012 26.5601429,39.6798571 C25.8174988,38.9372131 24.8102573,38.52 23.76,38.52 L23.76,38.52 Z" id="Shape"></path>
                    <path d="M31.32,65.16 C28.1388398,65.16 25.56,62.5811602 25.56,59.4 C25.56,56.2188398 28.1388398,53.64 31.32,53.64 C34.5011602,53.64 37.08,56.2188398 37.08,59.4 C37.08,62.5811602 34.5011602,65.16 31.32,65.16 Z M31.32,55.44 C29.1329524,55.44 27.36,57.2129524 27.36,59.4 C27.36,61.5870476 29.1329524,63.36 31.32,63.36 C33.5070476,63.36 35.28,61.5870476 35.28,59.4 C35.28,57.2129524 33.5070476,55.44 31.32,55.44 Z" id="Shape"></path>
                    <path d="M28.98,81.9 C25.7988398,81.9 23.22,79.3211602 23.22,76.14 C23.22,72.9588398 25.7988398,70.38 28.98,70.38 C32.1611602,70.38 34.74,72.9588398 34.74,76.14 C34.74,79.3211602 32.1611602,81.9 28.98,81.9 Z M28.98,72.18 C26.7929524,72.18 25.02,73.9529524 25.02,76.14 C25.02,78.3270476 26.7929524,80.1 28.98,80.1 C31.1670476,80.1 32.94,78.3270476 32.94,76.14 C32.94,73.9529524 31.1670476,72.18 28.98,72.18 Z" id="Shape"></path>
                    <path d="M7.0002,35.6202007 C6.71174108,35.6205645 6.44058674,35.4826398 6.27100797,35.2492908 C6.10142921,35.0159419 6.05397743,34.7154486 6.1434,34.4412 L9.855,23.04 C10.0222399,22.5858623 10.5186717,22.345284 10.978749,22.4954145 C11.4388262,22.6455449 11.6978108,23.1326275 11.565,23.598 L7.8552,34.9992 C7.73451195,35.3693376 7.38951651,35.6199132 7.0002,35.6202007 L7.0002,35.6202007 Z" id="Path"></path>
                    <path d="M10.08,59.2830002 C9.68430922,59.2828345 9.33514168,59.024246 9.2196,58.6458 L4.8996,44.5428 C4.77053183,44.0730667 5.03863608,43.5859038 5.5045309,43.4436012 C5.97042571,43.3012986 6.46497684,43.5555165 6.6204,44.0172 L10.9404,58.1184 C11.0105498,58.346831 10.9869759,58.5937823 10.8748749,58.8048156 C10.762774,59.015849 10.5713498,59.1736382 10.3428,59.2434 C10.2576845,59.2697172 10.1690912,59.2830002 10.08,59.2830002 L10.08,59.2830002 Z" id="Path"></path>
                    <path d="M18.9,42.75 C18.847445,42.7505669 18.7949704,42.7457417 18.7434,42.7356 L10.4634,41.283 C9.97974761,41.1916396 9.65920072,40.7286936 9.74386817,40.2438248 C9.82853562,39.758956 10.2870074,39.4320417 10.773,39.51 L19.053,40.9644 C19.5100963,41.0470797 19.8291782,41.4640463 19.7895214,41.9268641 C19.7498646,42.3896819 19.3644989,42.7462876 18.9,42.75 L18.9,42.75 Z" id="Path"></path>
                    <path d="M28.62,43.38 C28.1229437,43.4003793 27.7034793,43.0139563 27.6831,42.5169 C27.6627207,42.0198437 28.0491437,41.6003793 28.5462,41.58 L40.3848,40.59 C40.8818563,40.5487443 41.3182443,40.9182437 41.3595,41.4153 C41.4007557,41.9123563 41.0312563,42.3487443 40.5342,42.39 L28.6956,43.38 L28.62,43.38 Z" id="Path"></path>
                    <path d="M28.98,56.0394092 C28.6177592,56.0395234 28.2907494,55.8224627 28.1502,55.4886 L24.7302,47.34 C24.594394,47.0413798 24.6318265,46.6925197 24.8278951,46.4295095 C25.0239637,46.1664992 25.3476079,46.0310039 25.6725747,46.0758801 C25.9975415,46.1207562 26.2723508,46.3388946 26.3898,46.6452 L29.8098,54.792 C30.0014164,55.2502868 29.7855103,55.7771621 29.3274,55.9692 C29.2176029,56.0160586 29.0993769,56.0399488 28.98,56.0394092 Z" id="Path"></path>
                    <path d="M29.9718,72.1800015 C29.7031808,72.1804919 29.4483829,72.0609713 29.2770342,71.854099 C29.1056854,71.6472267 29.035699,71.3746299 29.0862,71.1108 L30.4362,64.0908 C30.4915601,63.7700948 30.7157459,63.5042603 31.0225077,63.3955694 C31.3292696,63.2868784 31.6708128,63.3522655 31.9157376,63.5665747 C32.1606624,63.7808838 32.2708084,64.1107248 32.2038,64.4292 L30.8538,71.4492 C30.7727582,71.8725926 30.402878,72.1790648 29.9718,72.1800015 L29.9718,72.1800015 Z" id="Path"></path>
                    <path d="M24.6312,74.8674007 C24.4567305,74.8674007 24.2860055,74.8168028 24.1398,74.7216 L14.2668,68.2524 C13.8671023,67.9739224 13.7615274,67.4279723 14.0285885,67.020558 C14.2956495,66.6131437 14.8383951,66.4921692 15.2532,66.7476 L25.1262,73.215 C25.4589316,73.433396 25.6087048,73.8444048 25.4944916,74.2256692 C25.3802784,74.6069335 25.0292036,74.8679062 24.6312,74.8674007 L24.6312,74.8674007 Z" id="Path"></path>
                    <path d="M15.3,15.66 C14.9231704,15.66 14.5862191,15.4252941 14.4556679,15.0718016 C14.3251167,14.7183091 14.4286095,14.3209103 14.715,14.076 L23.355,6.696 C23.5993697,6.48699963 23.9366769,6.42424499 24.2398614,6.53137514 C24.5430458,6.63850529 24.7660466,6.89924462 24.8248614,7.21537514 C24.8836762,7.53150566 24.7693697,7.85499963 24.525,8.064 L15.885,15.444 C15.7219723,15.583415 15.5145101,15.66 15.3,15.66 L15.3,15.66 Z" id="Path"></path>
                    <path d="M40.68,6.3 C40.6356405,6.30268238 40.5911595,6.30268238 40.5468,6.3 L33.12,5.1948 C32.7838112,5.1684972 32.4905331,4.95646623 32.3601709,4.64546715 C32.2298087,4.33446807 32.2842377,3.97668788 32.5011864,3.71852514 C32.7181351,3.46036241 33.0611985,3.34513796 33.39,3.42 L40.8114,4.5162 C41.2614838,4.60088155 41.5762014,5.01005554 41.5425563,5.4667988 C41.5089112,5.92354206 41.1376341,6.28218364 40.68,6.3 Z" id="Path"></path>
                    <path d="M25.1406,38.5200079 C25.0627652,38.5203349 24.9852491,38.5100398 24.9102,38.4894 C24.4304221,38.36265 24.1437672,37.8714717 24.2694,37.3914 L26.4024,29.2914 C26.5291494,28.8107466 27.0215466,28.5238506 27.5022,28.6506 C27.9828534,28.7773494 28.2697494,29.2697466 28.143,29.7504 L26.01,37.8504 C25.9055278,38.2448959 25.5486948,38.5197238 25.1406,38.5200079 L25.1406,38.5200079 Z" id="Path"></path>
                    <path d="M21.6,38.52 C21.2535658,38.52 20.9378596,38.3212398 20.7882,38.0088 L14.0094,23.8932 C13.8505044,23.6013409 13.8653641,23.245673 14.0480512,22.9680852 C14.2307382,22.6904973 14.5515215,22.5361649 14.8824291,22.5666567 C15.2133366,22.5971484 15.5005157,22.8075021 15.6294,23.1138 L22.41,37.2312 C22.5434495,37.5097972 22.5246928,37.8373688 22.3603148,38.0989124 C22.1959368,38.360456 21.9089091,38.5194215 21.6,38.52 Z" id="Path"></path>
                    <path d="M15.12,59.1840001 C14.7994859,59.1841725 14.5030653,59.0138756 14.341775,58.7369013 C14.1804847,58.459927 14.178666,58.1180748 14.337,57.8394 L20.817,46.4166 C21.0625458,45.9841611 21.612161,45.8326542 22.0446,46.0782 C22.4770389,46.3237458 22.6285458,46.873361 22.383,47.3058 L15.903,58.7286 C15.7429754,59.0102505 15.4439365,59.1841743 15.12,59.1840001 Z" id="Path"></path>
                    <path d="M40.5,25.74 L33.48,25.74 C32.9829437,25.74 32.58,25.3370563 32.58,24.84 C32.58,24.3429437 32.9829437,23.94 33.48,23.94 L40.5,23.94 C40.9970563,23.94 41.4,24.3429437 41.4,24.84 C41.4,25.3370563 40.9970563,25.74 40.5,25.74 Z" id="Path"></path>
                    <path d="M28.62,20.8800008 L28.5732,20.8800008 C28.0772873,20.8538396 27.6962804,20.4309461 27.7218,19.935 L28.2186,10.5498 C28.2444469,10.0527437 28.6683437,9.67075312 29.1654,9.69660004 C29.6624563,9.72244697 30.0444469,10.1463437 30.0186,10.6434 L29.52,20.0268 C29.4950748,20.5054908 29.0993389,20.8806485 28.62,20.8800008 Z" id="Path"></path>
                    <path d="M33.84,77.7366 C33.3700605,77.736387 32.9793912,77.374646 32.9430962,76.9061102 C32.9068011,76.4375743 33.2370997,76.0199837 33.7014,75.9474 L40.3614,74.8908 C40.8524916,74.8132592 41.3134592,75.1485084 41.391,75.6396 C41.4685407,76.1306916 41.1332916,76.5916592 40.6422,76.6692 L33.9822,77.7258 C33.9351397,77.7329765 33.8876044,77.7366 33.84,77.7366 Z" id="Path"></path>
                    <path d="M40.5,60.3 L36.18,60.3 C35.6829437,60.3 35.28,59.8970563 35.28,59.4 C35.28,58.9029437 35.6829437,58.5 36.18,58.5 L40.5,58.5 C40.9970563,58.5 41.4,58.9029437 41.4,59.4 C41.4,59.8970563 40.9970563,60.3 40.5,60.3 Z" id="Path"></path>
                </g>
            </g>
        </g>
    </g>
</svg>