<?xml version="1.0" encoding="UTF-8"?>
<svg width="224px" height="222px" viewBox="0 0 224 222" version="1.1" xmlns="http://www.w3.org/2000/svg" xmlns:xlink="http://www.w3.org/1999/xlink">
    <title>5524823_barbell_olympic_weightlifting_icon</title>
    <g id="Style-guide" stroke="none" stroke-width="1" fill="none" fill-rule="evenodd">
        <g id="Styleguide" transform="translate(-716.000000, -13372.000000)" fill-rule="nonzero">
            <g id="5524823_barbell_olympic_weightlifting_icon" transform="translate(716.000000, 13372.000000)">
                <g id="Colors">
                    <g id="Group" transform="translate(183.294326, 96.375887)">
                        <path d="M13.9911667,28.3106418 C12.0483369,28.5691454 10.2122411,29.0366135 8.26580851,29.2680957 C7.12325887,29.4041028 3.33487589,30.3066135 2.70257801,28.7848652 C2.58278369,28.4966383 2.66835106,28.1678794 2.76157447,27.870195 C3.42945035,25.7400177 4.51525532,23.7926844 5.54971986,21.8259858 C5.6902305,21.5584752 6.62561702,19.7692163 7.3074539,18.6005461 C5.4173156,15.9844362 2.85524823,11.5398865 2.71518794,9.45969858 C2.57512766,7.37996099 4.45941135,7.78753191 4.45941135,7.78753191 C7.00886879,7.81500355 14.8202695,10.1618014 14.8202695,10.1618014 C17.2571383,6.79540071 20.4402447,3.77667376 21.2265638,3.09303546 C21.5517199,2.81066312 21.9511844,2.55215957 22.3880284,2.49901773 C22.8280248,2.44542553 23.326117,2.59764539 23.6796454,2.85840071 C23.784578,2.93541135 23.8769007,3.02908511 23.9570638,3.1313156 C24.2020567,3.44431206 24.3290567,3.83657092 24.3952589,4.22387589 C24.5708972,5.25023404 25.1230319,9.60246099 24.878039,13.7511277 C24.878039,13.7511277 32.4102199,16.8806418 34.4007872,18.4739965 C34.4007872,18.4739965 36.117539,19.3512872 34.6921667,20.8725851 C33.2667943,22.393883 28.469617,24.2119645 25.3500106,25.0397163 C24.7888688,28.3367624 24.1687305,31.6905532 23.1058936,34.8655532 C22.8595496,35.6009823 22.2628298,36.038727 21.4796631,35.7604078 C21.0738936,35.6162943 20.7383794,35.327617 20.4204291,35.0375887 C18.7928475,33.5545709 17.3400035,31.8819539 15.8421241,30.2723865 C15.5286773,29.9355213 15.2156809,29.5982057 14.9026844,29.2613404 C14.6955213,29.0384149 14.3104681,28.4241312 14.0285461,28.3237021 C14.0289965,28.3241525 13.9911667,28.3106418 13.9911667,28.3106418 Z" id="Path" fill="#FFD2A6"></path>
                        <g opacity="0.5" transform="translate(9.907801, 9.907801)" fill="#FFFFFF" id="Oval">
                            <g>
                                <circle cx="6.00322695" cy="5.79246099" r="5.73346454"></circle>
                            </g>
                        </g>
                        <path d="M21.9232624,38.0932447 C21.5310035,38.0932447 21.1283865,38.0252411 20.7275709,37.8824787 C19.8624397,37.5748865 19.2391489,37.0074397 18.9045355,36.7020993 C17.4606986,35.3861631 16.163227,33.9842092 14.908539,32.6281915 L14.2145426,31.8792518 C14.0393546,31.6910035 13.8583121,31.4829397 13.6781702,31.2739752 C13.5354078,31.1091454 13.3926454,30.9438652 13.2543865,30.7947979 C13.2314184,30.7700284 13.2070993,30.7425567 13.1814291,30.7128333 C12.6972979,30.7952482 12.2095638,30.8875709 11.7060674,30.9825957 C10.688266,31.1744468 9.63623759,31.3726028 8.53286879,31.5041064 C8.38515248,31.5216702 8.18744681,31.5545461 7.95596454,31.5923759 C5.82083333,31.9395993 1.84510284,32.5872092 0.624641844,29.6486454 C0.179691489,28.5795035 0.495840426,27.5738617 0.614734043,27.1946631 C1.27315248,25.0955603 2.26798582,23.2162305 3.23039362,21.3990496 L3.59428014,20.7104574 C3.98969149,19.9574645 4.34457092,19.2936418 4.65711702,18.7230426 C2.9547766,16.1636773 0.639053191,12.1104858 0.470620567,9.61191844 C0.353978723,7.88570922 1.06193617,6.89087589 1.67667021,6.3599078 C2.75481915,5.42857447 4.06535106,5.46280142 4.6643227,5.54116312 C6.89357801,5.62718085 11.4610745,6.85034397 13.9654965,7.56550709 C16.2938298,4.62108865 18.9171454,2.11891844 19.7512021,1.39384752 C20.4969894,0.745336879 21.2936667,0.364787234 22.1178156,0.264358156 C23.106344,0.141861702 24.1912482,0.436393617 25.0180993,1.04662411 C25.2811064,1.23982624 25.5229468,1.47581206 25.7337128,1.74557447 C26.1786631,2.31392199 26.4763475,3.02142908 26.6168582,3.84647872 C26.803305,4.93363475 27.249156,8.53061702 27.1874574,12.2843227 C29.5792908,13.3165355 33.8891844,15.2620674 35.6689858,16.6063759 C36.1823901,16.925227 37.2177553,17.7291099 37.4622979,19.1328652 C37.6019078,19.932695 37.5194929,21.1509043 36.3373121,22.4123475 C34.6448794,24.2187199 30.3678617,25.8719716 27.432,26.7821383 C27.0487482,29.8314894 26.3187234,32.7515887 25.2135532,35.6644823 C24.6325957,37.1902837 23.347734,38.0932447 21.9232624,38.0932447 Z M13.9911667,26.0588688 C14.2433652,26.0588688 14.4937624,26.1012021 14.7324504,26.1845177 L14.7702801,26.197578 C15.6097411,26.4975142 16.1046809,27.1428723 16.4658652,27.6134929 C16.5072979,27.6670851 16.5446773,27.7170745 16.5775532,27.7567057 C16.7252695,27.9147801 16.9040603,28.1205922 17.0828511,28.3268546 C17.2265142,28.4934858 17.371078,28.6605674 17.5106879,28.8109858 L18.2141418,29.5698333 C19.2931915,30.7362518 20.3204504,31.8463759 21.4229184,32.8943511 C22.3141702,30.2710355 22.8672057,27.6270035 23.1067943,24.8465142 C23.1887589,23.9003191 23.8548333,23.1072447 24.7722057,22.8636028 C27.679695,22.0921454 30.9285532,20.7811631 32.4097695,19.8309149 C30.6065496,18.712234 26.485805,16.8576738 24.0138085,15.8308652 C23.1288617,15.4633759 22.5735745,14.5752766 22.6303191,13.6187234 C22.8289255,10.2599787 22.4690922,6.71523759 22.2637305,5.19303901 C21.1396454,6.24191489 18.6167589,8.75759574 16.6442057,11.4822411 C16.0830638,12.2586525 15.0922837,12.594617 14.1726596,12.3185496 C11.6092411,11.5484433 7.24530496,10.3748191 5.14214894,10.0987518 C5.68662766,11.7722695 7.3709539,14.8432376 9.13229078,17.2814574 C9.65380142,18.0033759 9.70108865,18.964883 9.25253546,19.7340887 C8.97286525,20.2141667 8.45495745,21.1360426 7.57901773,22.8037057 L7.20882624,23.5058085 C6.50762411,24.8298511 5.83659574,26.0971489 5.32139007,27.3919184 C6.03430142,27.3423794 6.86385461,27.207273 7.23179433,27.1473759 C7.54118794,27.0973865 7.80464539,27.0550532 8.00054965,27.0320851 C8.95079787,26.9185957 9.88348227,26.7425071 10.8702092,26.5565106 C11.7781241,26.3853759 12.7166631,26.2083865 13.694383,26.078234 C13.793461,26.0656241 13.892539,26.0588688 13.9911667,26.0588688 Z" id="Shape" fill="#384169"></path>
                    </g>
                    <g id="Group" transform="translate(10.808511, 106.734043)">
                        <path d="M24.6298936,26.5384965 C23.5332801,28.1624752 22.663195,29.8463511 21.5440638,31.4550177 C20.8869965,32.3994113 19.0463972,35.8320142 17.4886206,35.2938404 C17.1936383,35.1920603 17.0044894,34.9101383 16.8437128,34.6421773 C15.6944078,32.7281702 14.9594291,30.6236631 14.1758121,28.5439255 C14.069078,28.2611028 13.3521135,26.3736667 12.9310319,25.0879043 C9.71955319,24.7640993 4.69539716,23.7282837 3.04709929,22.4519787 C1.39880142,21.1756738 2.9547766,20.0376277 2.9547766,20.0376277 C4.66837589,18.1492908 11.6096915,13.8668688 11.6096915,13.8668688 C10.7107837,9.80917376 10.5671206,5.42452128 10.5783794,4.38330142 C10.582883,3.95276241 10.6553901,3.48214184 10.9057872,3.12005674 C11.1579858,2.7552695 11.6024858,2.48415603 12.0321241,2.39273404 C12.1595745,2.36571277 12.2906277,2.35850709 12.4203298,2.36661348 C12.8170922,2.39093262 13.1944894,2.55711348 13.5282021,2.76472695 C14.4126986,3.31506028 18.0330993,5.79201064 20.9725638,8.73012411 C20.9725638,8.73012411 28.3137943,5.17637589 30.8272234,4.74583688 C30.8272234,4.74583688 32.6232376,4.04508511 32.8141879,6.1207695 C33.0051383,8.1964539 31.1794007,12.9904787 29.7270071,15.8731986 C31.819805,18.4821028 33.9157553,21.1729716 35.5838688,24.0755071 C35.970273,24.7478865 35.9013688,25.485117 35.1731454,25.8854823 C34.7961986,26.0930957 34.3575532,26.1525426 33.929266,26.197578 C31.7396418,26.429961 29.5243475,26.4056418 27.3261667,26.4569823 C26.8663546,26.4677908 26.4065426,26.4776986 25.9462801,26.4880567 C25.6418404,26.4948121 24.9271277,26.3750177 24.6645709,26.5191312 C24.6650213,26.5191312 24.6298936,26.5384965 24.6298936,26.5384965 Z" id="Path" fill="#FFD2A6"></path>
                        <g opacity="0.5" transform="translate(10.358156, 10.808511)" fill="#FFFFFF" id="Oval">
                            <g>
                                <circle cx="6.11761702" cy="5.92081206" r="5.73346454"></circle>
                            </g>
                        </g>
                        <path d="M17.8669184,37.6154184 C17.5102376,37.6154184 17.1391454,37.5550709 16.7536418,37.4222163 C15.6597305,37.0439184 15.1175035,36.1414078 14.9134929,35.8013901 C13.7799504,33.9148546 13.0364149,31.9247376 12.3162979,29.999922 L12.0402305,29.2626915 C11.7402943,28.468266 11.4804397,27.7630106 11.2615674,27.1514291 C8.21762057,26.7253936 3.6492234,25.7652376 1.66856383,24.2313298 C0.301287234,23.1729965 0.0274716312,21.9831596 0.0384029766,21.1711702 C0.0580957447,19.7466986 0.952950355,18.7892447 1.40960993,18.3929326 C2.95432624,16.7838156 6.90213475,14.1803156 9.09986525,12.7824149 C8.44459929,9.08725532 8.31534752,5.46415248 8.32660638,4.35898227 C8.33786525,3.36775177 8.58195745,2.5201844 9.05347872,1.83879787 C9.61912411,1.02050355 10.5572128,0.40351773 11.5628546,0.189599291 C11.8871099,0.121595745 12.219922,0.098177305 12.5572376,0.118893617 C13.2805071,0.163929078 14.0069291,0.41027305 14.7175887,0.852070922 C15.6570284,1.43663121 18.6433298,3.49295035 21.407156,6.02979787 C23.7665638,4.92732979 28.0832128,2.99665957 30.2710355,2.55846454 C30.8497411,2.38642908 32.1391064,2.14593972 33.3505603,2.89442908 C34.0414043,3.32136525 34.8979787,4.19145035 35.0560532,5.91360638 C35.2830319,8.37839716 33.6788688,12.6743298 32.4102199,15.4741844 C34.4354645,17.7854043 36.1346525,20.2700106 37.5789397,23.0311348 C38.5435993,24.8748865 37.9883121,26.9046348 36.2594007,27.8571348 C35.5199184,28.2642553 34.7921454,28.3700887 34.1679539,28.4362908 C32.2260248,28.6421028 30.3192234,28.6812837 28.4745709,28.7186631 L27.445961,28.7411809 C27.1897092,28.7461348 26.9149929,28.743883 26.6402766,28.7402801 C26.4218546,28.737578 26.2020816,28.7344255 25.9971702,28.7389291 C25.9642943,28.7398298 25.9269149,28.7402801 25.8868333,28.7389291 C25.6283298,29.154156 25.3743298,29.5783901 25.111773,30.0161348 C24.5785532,30.9064858 24.0273191,31.8265603 23.3918688,32.7403298 C23.3076525,32.8614752 23.2018191,33.0303582 23.0766206,33.2280638 C22.0669255,34.8232199 20.2979326,37.6154184 17.8669184,37.6154184 Z M5.13629433,21.061734 C6.74946454,21.7660887 10.1645035,22.5461028 13.1566596,22.8478404 C14.0434078,22.9370106 14.7936986,23.5404858 15.071117,24.3871525 C15.2436028,24.913617 15.5885745,25.9111525 16.2537482,27.6733901 L16.5352199,28.4236809 C17.0594326,29.8256348 17.5606773,31.1672411 18.1862199,32.4115709 C18.6230638,31.8445745 19.0734184,31.1339149 19.2729255,30.8186667 C19.4400071,30.5552092 19.5827695,30.3304823 19.6953582,30.1692553 C20.2434397,29.3815851 20.7320745,28.5659929 21.2490816,27.7026631 C21.7228546,26.9118404 22.2123901,26.0944468 22.7627234,25.2784043 C22.973039,24.9672092 23.2540603,24.7186135 23.5765142,24.5479291 C24.3506738,24.1250461 25.1595106,24.1822411 25.7512766,24.2250248 C25.8183794,24.2299787 25.8809787,24.235383 25.9323191,24.236734 C26.1502908,24.2313298 26.4245567,24.2340319 26.6988227,24.2376348 C26.917695,24.2407872 27.1374681,24.2443901 27.3419291,24.2389858 L28.3831489,24.2169184 C29.9688475,24.1844929 31.4788865,24.1534184 32.9911773,24.0250674 C31.6220993,21.6156702 30.0116312,19.4472128 28.0922199,17.4219681 C27.4392057,16.7329255 27.2883369,15.7079184 27.7157234,14.8599007 C29.069039,12.1735355 30.2458156,8.87423759 30.5191809,7.13586879 C28.4862801,7.74114539 24.3632837,9.59075177 21.9529858,10.7571702 C21.0910071,11.1737482 20.058344,11.0003617 19.3801099,10.322578 C17.0022376,7.94605674 14.1114113,5.86001418 12.8364574,5.00253901 C12.8747376,6.53644681 13.0805496,10.0955993 13.8083227,13.3804858 C14.0154858,14.3158723 13.6079149,15.2805319 12.7918723,15.783578 C10.5144291,17.1891348 6.73910638,19.6723901 5.13629433,21.061734 Z" id="Shape" fill="#384169"></path>
                    </g>
                    <g id="Group" opacity="0.7" transform="translate(83.765957, 4.053191)" fill="#3F456B">
                        <g transform="translate(24.319149, 0.000000)" id="Path">
                            <path d="M2.67240426,10.9490213 C1.42942553,10.9490213 0.421531915,9.94247872 0.420631206,8.69904965 L0.415676701,2.60124823 C0.414776596,1.35736879 1.4217695,0.348574468 2.66564894,0.347673759 C2.66609929,0.347673759 2.667,0.347673759 2.66745035,0.347673759 C3.91042908,0.347673759 4.9183227,1.35466667 4.9192234,2.59764539 L4.92417791,8.69544681 C4.92507801,9.93932624 3.91808511,10.9481206 2.67420567,10.9490213 C2.67375532,10.9490213 2.67285461,10.9490213 2.67240426,10.9490213 Z"></path>
                            <path d="M21.2634929,29.2775532 C20.0218652,29.2775532 19.014422,28.2728121 19.0117144,27.030734 C19.0090177,25.7868546 20.0155603,24.7767092 21.258539,24.7740071 L27.1131489,24.7618475 C27.1149504,24.7618475 27.1167518,24.7618475 27.1181028,24.7618475 C28.3597305,24.7618475 29.3671738,25.7665887 29.3698813,27.0086667 C29.372578,28.2525461 28.3660355,29.2626915 27.1230567,29.2653936 L21.2684468,29.2775532 C21.2666454,29.2775532 21.264844,29.2775532 21.2634929,29.2775532 Z"></path>
                            <path d="M18.7189894,20.0533901 C17.941227,20.0533901 17.1850816,19.6498723 16.7676028,18.9284043 C16.1447624,17.8516064 16.5131525,16.474422 17.5895,15.8520319 L22.8001028,12.8387092 C23.8764504,12.2158688 25.2536348,12.5838085 25.8764752,13.6606064 C26.4993156,14.7374043 26.1309255,16.1145887 25.054578,16.7369787 L19.8439752,19.7503014 C19.4890957,19.9561135 19.1017908,20.0533901 18.7189894,20.0533901 Z"></path>
                            <path d="M11.9830355,13.3953475 C11.6015851,13.3953475 11.2151809,13.2980709 10.8612021,13.0940603 C9.78350355,12.4730213 9.41331206,11.0962872 10.0343511,10.019039 L13.0634362,4.76295035 C13.6840248,3.68480142 15.0612092,3.31460993 16.1384574,3.93609929 C17.216156,4.5571383 17.5863475,5.93387234 16.9653085,7.01112057 L13.9362234,12.2672092 C13.5196454,12.9909291 12.7621489,13.3953475 11.9830355,13.3953475 Z"></path>
                        </g>
                        <g id="Path">
                            <path d="M27.0316348,10.3541028 C25.7904574,10.3541028 24.7830142,9.34981206 24.7798617,8.1081844 L24.7658933,2.60530142 C24.7627482,1.36142199 25.7683901,0.350826241 27.0118191,0.347673759 C27.0136206,0.347673759 27.0158723,0.347673759 27.0176738,0.347673759 C28.2588511,0.347673759 29.2662943,1.35196454 29.2694468,2.5935922 L29.2834152,8.09647518 C29.2865603,9.34035461 28.2809184,10.3509504 27.0374894,10.3541028 C27.0356879,10.3541028 27.0334362,10.3541028 27.0316348,10.3541028 Z"></path>
                            <path d="M17.4881702,12.8031312 C16.7104078,12.8031312 15.9542624,12.3996135 15.5367837,11.6781454 L12.7270213,6.81971986 C12.1041809,5.74337234 12.4725709,4.36618794 13.5489184,3.74334752 C14.6248156,3.12050709 16.0024504,3.48889716 16.6252908,4.56524468 L19.4350532,9.42367021 C20.0578936,10.5000177 19.6895035,11.8772021 18.613156,12.5000426 C18.2582766,12.7054043 17.8709716,12.8031312 17.4881702,12.8031312 Z"></path>
                            <path d="M10.8238227,19.7683156 C10.4423723,19.7683156 10.0559681,19.671039 9.70153901,19.4670284 L4.65171277,16.5563865 C3.57401418,15.9353475 3.20427305,14.5581631 3.82531206,13.4809149 C4.44590071,12.4036667 5.8221844,12.0330248 6.90078369,12.6545142 L11.9506099,15.565156 C13.0283085,16.186195 13.3980496,17.5633794 12.7770106,18.6406277 C12.3599823,19.3634468 11.6029362,19.7683156 10.8238227,19.7683156 Z"></path>
                            <path d="M2.60395035,28.9668085 C1.3623227,28.9668085 0.354879433,27.9620674 0.352171875,26.7199894 C0.349475177,25.4761099 1.35556738,24.4659645 2.59899645,24.4632624 L8.45360638,24.4506525 C8.4554078,24.4506525 8.45675887,24.4506525 8.45856028,24.4506525 C9.70018794,24.4506525 10.7076312,25.4553936 10.7103388,26.6974716 C10.7130355,27.9413511 9.70694326,28.9514965 8.46351418,28.9541986 L2.60890426,28.9668085 C2.60710284,28.9668085 2.60575177,28.9668085 2.60395035,28.9668085 Z"></path>
                        </g>
                    </g>
                    <g id="XMLID_47_" transform="translate(60.797872, 34.226950)" fill="#F0F3F7">
                        <path d="M73.8446454,103.131206 C73.8311348,103.207766 73.8131206,103.279823 73.7996099,103.356383 C73.7996099,103.356383 90.755461,115.29078 87.7155674,132.624929 L87.7155674,132.629433 C88.4721631,135.54773 88.3370567,138.218333 88.3370567,138.218333 C88.3370567,138.218333 86.9859929,153.570922 84.1487589,170.73844 C84.1487589,170.73844 88.7874113,172.93617 91.489539,177.439716 C91.489539,177.439716 95.9930851,185.095745 88.3370567,185.095745 C80.6810284,185.095745 70.3228723,185.095745 70.3228723,185.095745 C70.3228723,185.095745 67.1703901,185.095745 66.7200355,181.042553 C66.2696809,176.989362 70.9984043,171.359929 70.9984043,171.359929 C70.7191844,160.164113 69.4221631,143.122695 69.066383,139.20461 C57.6453901,137.358156 49.5390071,130.602837 49.5390071,130.602837 C40.5319149,136.457447 31.1375177,139.024468 29.6378369,139.146064 C29.2865603,142.969574 27.9760284,160.101064 27.6968085,171.359929 C27.6968085,171.359929 32.4255319,176.989362 31.9751773,181.042553 C31.5248227,185.095745 28.3723404,185.095745 28.3723404,185.095745 C28.3723404,185.095745 18.0141844,185.095745 10.358156,185.095745 C2.70212766,185.095745 7.20567376,177.439716 7.20567376,177.439716 C9.90780142,172.93617 14.5419504,170.73844 14.5419504,170.73844 C11.7092199,153.570922 10.3536525,138.218333 10.3536525,138.218333 C10.3536525,138.218333 10.1825177,134.737092 11.3534397,131.372943 C11.3534397,131.372943 11.3534397,131.372943 11.3534397,131.36844 C9.47095745,115.727624 25.3099291,103.356383 25.3099291,103.356383 C25.2919149,103.261809 25.2739007,103.167234 25.2558865,103.07266 C22.5762766,88.4856738 19.2256383,77.6636525 17.293617,70.6381206 C14.7806383,61.4779078 12.2226241,52.4618085 9.69613475,43.3015957 C6.62921986,32.2093617 3.62085106,21.0901064 0.90070922,9.90780142 C0.90070922,9.90780142 -1.80141844,1.35106383 4.95390071,0.45035461 C4.95390071,0.45035461 10.358156,-0.45035461 12.6099291,6.30496454 C15.7624113,16.6631206 27.9219858,43.2340426 27.9219858,43.2340426 C27.9219858,43.2340426 30.1872695,51.2728723 31.9751773,54.9432624 C31.7590071,50.5252837 33.2721986,45.4993262 36.5057447,41.9910638 C42.9097872,35.0420922 53.7363121,34.6052482 60.6897872,41.0092908 C64.4052128,44.4319858 65.751773,45.9361702 66.1976241,49.2958156 L66.2021277,55.8439716 C68.0035461,52.4437943 71.1560284,43.2340426 71.1560284,43.2340426 C71.1560284,43.2340426 82.6670922,16.6631206 85.8195745,6.30496454 C88.0713475,-0.45035461 93.4756028,0.45035461 93.4756028,0.45035461 C100.230922,1.35106383 97.5287943,9.90780142 97.5287943,9.90780142 C94.8086525,21.0901064 91.7957801,32.2093617 88.7333688,43.3015957 C86.2023759,52.4618085 83.6488652,61.4779078 81.131383,70.6381206 C79.275922,77.3934397 76.4567021,89.8457447 73.8446454,103.131206 Z" id="Path"></path>
                    </g>
                    <g id="Group" opacity="0.7" transform="translate(102.230496, 69.804965)" fill="#FFFFFF">
                        <g id="Oval">
                            <ellipse transform="translate(8.109400, 7.201215) rotate(-85.917241) translate(-8.109400, -7.201215) " cx="8.10940035" cy="7.20121525" rx="6.30520315" ry="7.65631811"></ellipse>
                        </g>
                    </g>
                    <g id="Group" opacity="0.7" transform="translate(77.010638, 141.861702)" fill="#FFFFFF">
                        <g id="Oval">
                            <ellipse transform="translate(10.899913, 10.946867) rotate(-45.000000) translate(-10.899913, -10.946867) " cx="10.899913" cy="10.9468673" rx="8.59178285" ry="6.30490407"></ellipse>
                        </g>
                    </g>
                    <g id="Group" opacity="0.2" transform="translate(92.773050, 75.659574)" fill="#3F456B">
                        <g id="Path">
                            <path d="M4.95390071,0.45035461 C4.95390071,0.45035461 5.55111512e-17,18.464539 17.5638298,18.464539 C35.1276596,18.464539 28.822695,0 28.822695,0 C28.822695,0 38.0824362,8.76164894 31.8760993,19.4674787 C31.8760993,19.4674787 33.3262411,35.1276596 17.5638298,35.1276596 C1.80141844,35.1276596 3.60283688,21.6170213 3.60283688,21.6170213 C3.60283688,21.6170213 -4.5035461,11.2588652 4.95390071,0.45035461 Z"></path>
                        </g>
                    </g>
                    <g id="Group" opacity="0.2" transform="translate(68.003546, 158.524823)" fill="#3F456B">
                        <g id="Path">
                            <path d="M41.4326241,6.30496454 C35.1276596,12.6099291 23.0176241,14.8617021 23.0176241,14.8617021 L20.9910284,46.2739362 C20.9910284,46.2739362 23.9183333,48.1879433 24.8190426,54.9432624 C25.7197518,61.6985816 17.2756028,60.6289894 17.2756028,60.6289894 C17.2756028,60.6289894 8.15592199,61.248227 2.97684397,60.6289894 C-2.20223404,60.0097518 0.950248227,55.393617 0.950248227,55.393617 C0.950248227,55.393617 14.0105319,55.393617 16.262305,55.393617 C18.514078,55.393617 18.514078,54.0425532 18.514078,54.0425532 C18.9644326,52.2411348 15.8119504,49.5390071 15.8119504,49.5390071 C15.8119504,49.5390071 15.8119504,19.8156028 15.3615957,13.5106383 C14.9112411,7.20567376 20.2659574,6.75531915 20.2659574,6.75531915 C23.4959007,6.53239362 25.7265071,6.32928369 28.822695,5.40425532 C28.822695,5.40425532 31.0744681,4.95390071 32.8758865,3.60283688 C34.677305,2.25177305 42.3333333,-2.25177305 49.9893617,2.70212766 L55.8439716,5.40425532 C59.4522128,6.61660993 62.8582447,6.94401773 66.6524823,7.20567376 C66.6524823,7.20567376 69.8049645,7.20567376 69.3546099,13.5106383 C68.9042553,19.8156028 68.9042553,49.5390071 68.9042553,49.5390071 C68.9042553,49.5390071 65.751773,52.2411348 66.2021277,54.0425532 C66.2021277,54.0425532 66.2021277,55.393617 68.4539007,55.393617 C70.7056738,55.393617 83.7659574,55.393617 83.7659574,55.393617 C83.7659574,55.393617 86.9184397,60.0097518 81.7393617,60.6289894 C76.5602837,61.248227 67.4406028,60.6289894 67.4406028,60.6289894 C67.4406028,60.6289894 58.9964539,61.6985816 59.8971631,54.9432624 C60.7978723,48.1879433 63.7251773,46.2739362 63.7251773,46.2739362 L61.6985816,14.8617021 C61.6985816,14.8617021 48.1879433,10.8085106 41.4326241,6.30496454"></path>
                        </g>
                    </g>
                    <g id="Group" opacity="0.2" transform="translate(90.521277, 130.152482)" fill="#3F456B">
                        <g id="Path">
                            <path d="M0.45035461,1.35106383 L0.328758865,0.896205674 C0.261205674,0.630496454 0.202659574,0.378297872 0.153120567,0.130602837 C0.252198582,0.535921986 0.351276596,0.941241135 0.45035461,1.35106383 Z"></path>
                        </g>
                    </g>
                    <g id="Group" opacity="0.2" transform="translate(62.148936, 36.478723)" fill="#3F456B">
                        <g id="Path">
                            <path d="M44.1347518,88.2695035 C42.4576312,93.2999645 26.4736454,88.0141525 30.6263652,99.5229645 C35.0204752,99.6247447 40.9570496,100.586252 43.6843972,104.48227 C46.8368794,108.985816 43.6843972,111.687943 39.1808511,108.985816 C34.677305,106.283688 31.0744681,105.382979 25.6702128,105.382979 C25.6702128,105.382979 0.450804965,6.30766667 0.45035461,6.30496454 C0.62329078,7.01517376 0.081964539,-0.17293617 0.45035461,0.450804965 C2.37471986,3.7077695 3.36144681,7.40157801 4.28197163,11.0395426 C7.84832979,25.1311383 15.015273,38.0058759 19.6831986,51.7214255 C23.2743262,62.2709823 24.4875816,83.7659574 39.6312057,83.7659574 C39.6312057,83.7659574 45.4858156,84.2163121 44.1347518,88.2695035 Z"></path>
                        </g>
                    </g>
                    <g id="Group" opacity="0.2" transform="translate(112.588652, 36.478723)" fill="#3F456B">
                        <g id="Path">
                            <path d="M0.521510638,88.2695035 C2.19863121,93.2999645 19.0833262,88.4645071 14.9306064,99.9733191 C10.5364965,100.075099 4.59992199,101.036606 1.87257447,104.932624 C-1.2799078,109.43617 1.87257447,112.588652 6.37612057,109.886525 C10.8796667,107.184397 13.0602837,104.932624 18.464539,104.932624 C18.464539,104.932624 44.2050071,6.30766667 44.2059078,6.30496454 C44.0329716,7.01517376 44.5742979,-0.17293617 44.2059078,0.450804965 C42.2815426,3.7077695 41.2948156,7.40157801 40.3742908,11.0395426 C36.8079326,25.1311383 29.6414397,38.0058759 24.9730638,51.7214255 C21.3819362,62.2709823 20.1686809,83.7659574 5.02505674,83.7659574 C5.02505674,83.7659574 -0.829553191,84.2163121 0.521510638,88.2695035 Z"></path>
                        </g>
                    </g>
                    <g id="Group" opacity="0.7" transform="translate(71.156028, 160.326241)" fill="#FFFFFF">
                        <g id="Path">
                            <path d="M1.37583333,4.30629078 C1.37583333,4.30629078 2.70212766,1.80141844 5.85460993,0.45035461 C9.0070922,-0.90070922 11.7092199,2.70212766 9.0070922,6.75531915 C6.30496454,10.8085106 6.75531915,14.8617021 6.75531915,19.8156028 C6.75531915,24.7695035 8.10638298,45.035461 8.10638298,45.035461 C8.10638298,45.035461 9.90780142,48.6382979 6.75531915,49.0886525 C3.60283688,49.5390071 4.05319149,44.5851064 4.05319149,44.5851064 C4.05319149,44.5851064 -2.65258865,13.1156773 1.37583333,4.30629078"></path>
                        </g>
                    </g>
                    <g id="Group" opacity="0.7" transform="translate(122.946809, 141.411348)" fill="#FFFFFF">
                        <g id="Oval">
                            <ellipse transform="translate(10.399075, 10.932878) rotate(-38.250873) translate(-10.399075, -10.932878) " cx="10.3990752" cy="10.9328776" rx="6.30490433" ry="8.5917832"></ellipse>
                        </g>
                    </g>
                    <g id="Group" opacity="0.7" transform="translate(138.258865, 160.326241)" fill="#FFFFFF">
                        <g id="Path">
                            <path d="M9.11607801,4.30629078 C9.11607801,4.30629078 7.78978369,1.80141844 4.63730142,0.45035461 C1.48481915,-0.90070922 -1.21730851,2.70212766 1.48481915,6.75531915 C4.18694681,10.8085106 3.7365922,14.8617021 3.7365922,19.8156028 C3.7365922,24.7695035 2.38552837,45.035461 2.38552837,45.035461 C2.38552837,45.035461 0.584109929,48.6382979 3.7365922,49.0886525 C6.88907447,49.5390071 6.43871986,44.5851064 6.43871986,44.5851064 C6.43871986,44.5851064 13.1445,13.1156773 9.11607801,4.30629078"></path>
                        </g>
                    </g>
                    <g id="Group" opacity="0.7" transform="translate(62.148936, 34.226950)" fill="#FFFFFF">
                        <g id="Oval">
                            <ellipse transform="translate(4.650957, 4.712453) rotate(-85.917241) translate(-4.650957, -4.712453) " cx="4.65095734" cy="4.71245277" rx="4.2596151" ry="4.27042402"></ellipse>
                        </g>
                    </g>
                    <g id="Group" opacity="0.7" transform="translate(149.067376, 34.226950)" fill="#FFFFFF">
                        <g id="Oval">
                            <ellipse transform="translate(4.650912, 4.709165) rotate(-85.917241) translate(-4.650912, -4.709165) " cx="4.65091231" cy="4.70916518" rx="4.2596151" ry="4.27042402"></ellipse>
                        </g>
                    </g>
                    <g id="Group" opacity="0.2" transform="translate(74.308511, 136.907801)" fill="#3F456B">
                        <g id="Path">
                            <path d="M13.0602837,0 C13.0602837,0 1.80141844,6.75531915 0,19.3652482 C0,19.3652482 6.30496454,8.10638298 15.7624113,5.85460993 L13.0602837,0 Z"></path>
                        </g>
                    </g>
                    <g id="Group" opacity="0.2" transform="translate(130.602837, 136.907801)" fill="#3F456B">
                        <g id="Path">
                            <path d="M2.70212766,0 C2.70212766,0 13.9609929,6.75531915 15.7624113,19.3652482 C15.7624113,19.3652482 9.45744681,8.10638298 0,5.85460993 L2.70212766,0 Z"></path>
                        </g>
                    </g>
                    <g id="Group" opacity="0.3" transform="translate(165.730496, 134.656028)" fill="#384169">
                        <g id="Shape">
                            <path d="M2.03560284,80.9107092 C0.801631206,80.7571383 -0.0761099291,79.6312518 0.0765602837,78.402234 L0.0810638298,78.402234 C0.229680851,77.1682624 1.35556738,76.2900709 2.58953901,76.4431915 L2.58953901,76.4431915 C3.82351064,76.5913582 4.70125177,77.7172447 4.54858156,78.9512163 L4.54858156,78.9512163 C4.40897163,80.095117 3.43620567,80.9287234 2.3148227,80.9287234 L2.3148227,80.9287234 C2.22430142,80.9287234 2.12972695,80.9237695 2.03560284,80.9107092 Z M3.25156028,71.9846809 C2.02659574,71.7730142 1.20244681,70.6065957 1.41411348,69.3816312 L1.41411348,69.3816312 C1.62578014,68.1566667 2.78769504,67.3370213 4.01716312,67.5441844 L4.01716312,67.5441844 C5.24212766,67.7563014 6.06177305,68.9227199 5.85010638,70.147234 L5.85010638,70.147234 L5.85010638,70.147234 L5.85010638,70.147234 C5.66050709,71.2460993 4.71070922,72.0162057 3.63391135,72.0162057 L3.63391135,72.0162057 C3.50826241,72.0162057 3.37765957,72.0071986 3.25156028,71.9846809 Z M4.88184397,63.1217021 C3.67039007,62.8555426 2.90028369,61.6530957 3.16554255,60.4420922 L3.16554255,60.4420922 C3.43170213,59.2261348 4.63414894,58.4605319 5.85010638,58.7257908 L5.85010638,58.7257908 C7.06561348,58.9919504 7.83121631,60.1943972 7.56595745,61.4099043 L7.56595745,61.4099043 L7.56595745,61.4099043 L7.56595745,61.4099043 C7.3362766,62.4592305 6.40404255,63.1757447 5.36822695,63.1757447 L5.36822695,63.1757447 C5.21015248,63.1757447 5.04397163,63.1577305 4.88184397,63.1217021 Z M6.91699645,54.3442908 C5.71454965,54.024539 4.99848582,52.7905674 5.31823759,51.5926241 L5.31823759,51.5926241 C5.63798936,50.3901773 6.87196099,49.6741135 8.0744078,49.9938652 L8.0744078,49.9938652 C9.27685461,50.313617 9.99291844,51.5475887 9.67316667,52.7500355 L9.67316667,52.7500355 C9.4029539,53.7588298 8.49323759,54.4253546 7.4979539,54.4208737 L7.4979539,54.4208737 C7.30475177,54.4208737 7.11109929,54.3983333 6.91699645,54.3442908 Z M9.33134752,45.6655071 C8.14241135,45.2966667 7.48039007,44.0307199 7.84968085,42.8462872 L7.84968085,42.8462872 C8.22347518,41.6573511 9.48446809,40.9957801 10.6738546,41.3646206 L10.6738546,41.3646206 C11.8582872,41.7384149 12.5203085,42.9994078 12.1505674,44.1887943 L12.1505674,44.1887943 C11.8488298,45.1525532 10.9616312,45.769539 10.0023759,45.769539 L10.0023759,45.769539 C9.77719858,45.769539 9.55202128,45.7335106 9.33134752,45.6655071 Z M12.1055319,37.0907553 C10.9341596,36.6719255 10.3266312,35.3839113 10.7450106,34.2129894 L10.7450106,34.2129894 C11.1642908,33.0420674 12.4568085,32.4340887 13.6272801,32.8529184 L13.6272801,32.8529184 C14.7936986,33.2717482 15.4061809,34.5597624 14.9828475,35.7306844 L14.9828475,35.7306844 L14.9828475,35.7306844 L14.9828475,35.7306844 C14.654539,36.6494078 13.7898582,37.225865 12.8661809,37.225865 L12.8661809,37.225865 C12.6144326,37.2263121 12.3572801,37.1812766 12.1055319,37.0907553 Z M15.2354965,28.6425532 C14.0821383,28.1741844 13.5236986,26.8591489 13.9920674,25.7062411 L13.9920674,25.7062411 C14.4604362,24.552883 15.7754716,23.9993972 16.9288298,24.467766 L16.9288298,24.467766 C18.077234,24.9361348 18.6356738,26.2466667 18.167305,27.3995745 L18.167305,27.3995745 L18.167305,27.3995745 L18.167305,27.3995745 C17.8115248,28.2732624 16.9693617,28.8046809 16.0776596,28.8046809 L16.0776596,28.8046809 C15.7984397,28.8046809 15.5097624,28.7551418 15.2354965,28.6425532 Z M18.7077305,20.3245035 C17.5768901,19.8065957 17.0774468,18.4735461 17.5908511,17.3386525 L17.5908511,17.3386525 C18.1087589,16.2082624 19.4418085,15.7083688 20.5767021,16.2262766 L20.5767021,16.2262766 C21.7075426,16.7396809 22.2069858,18.0767837 21.6895284,19.2071738 L21.6895284,19.2071738 C21.315734,20.0362766 20.4960887,20.5271631 19.6399645,20.5271631 L19.6399645,20.5271631 C19.3292199,20.5271631 19.0094681,20.4596099 18.7077305,20.3245035 Z M22.5357447,12.1595745 C21.4278723,11.5921277 20.990578,10.2361099 21.5584752,9.12868794 L21.5584752,9.12868794 C22.125922,8.0208156 23.4814894,7.58397163 24.5889113,8.15141844 L24.5889113,8.15141844 C25.6922801,8.71886525 26.1336277,10.074883 25.5661809,11.182305 L25.5661809,11.182305 C25.1653652,11.9609681 24.3772447,12.4072695 23.5575993,12.4072695 L23.5575993,12.4072695 C23.2157801,12.4072695 22.8645035,12.3262057 22.5357447,12.1595745 Z M26.7325993,4.1612766 C25.674266,3.50375887 25.350461,2.11666667 26.0120319,1.06238652 L26.0120319,1.06238652 C26.6695496,0.00405319149 28.0566418,-0.315698582 29.1104716,0.341819149 L29.1104716,0.341819149 C30.1692553,0.999336879 30.4890071,2.38642908 29.8314894,3.44025887 L29.8314894,3.44025887 C29.408156,4.12930142 28.6695745,4.50309715 27.9219858,4.50309715 L27.9219858,4.50309715 C27.5121631,4.5035461 27.1023404,4.39546099 26.7325993,4.1612766 Z"></path>
                        </g>
                    </g>
                    <g id="Group" opacity="0.3" transform="translate(38.730496, 140.060284)" fill="#384169">
                        <g id="Shape">
                            <path d="M23.8102482,51.3179078 C23.5175177,50.1105071 24.2606028,48.8900461 25.4716064,48.6022695 L25.4716064,48.6022695 C26.6790071,48.309539 27.8945142,49.0526241 28.1872447,50.2595745 L28.1872447,50.2595745 C28.4799752,51.4710284 27.7368901,52.6874362 26.5254362,52.9797163 L26.5254362,52.9797163 C26.3497979,53.0202482 26.169656,53.0432163 25.9985213,53.0432163 L25.9985213,53.0432163 C24.9811702,53.042766 24.0579433,52.3492199 23.8102482,51.3179078 Z M21.3963475,42.8287234 C21.0090426,41.6442908 21.6530496,40.3742908 22.8329787,39.9869858 L22.8329787,39.9869858 C24.0124574,39.5996809 25.286961,40.2432376 25.6747163,41.4231667 L25.6747163,41.4231667 L25.6747163,41.4231667 L25.6747163,41.4231667 C26.0620213,42.6075993 25.4180142,43.8775993 24.2335816,44.2653546 L24.2335816,44.2653546 C24.0039007,44.3419149 23.7652128,44.3779433 23.5355319,44.3779433 L23.5355319,44.3779433 C22.5848333,44.3779433 21.7021383,43.7744681 21.3963475,42.8287234 Z M18.3294326,34.5331915 C17.8561099,33.3802837 18.4059929,32.0656986 19.5584504,31.5923759 L19.5584504,31.5923759 C20.7068546,31.1195035 22.0218901,31.6689362 22.4952128,32.8177908 L22.4952128,32.8177908 C22.9680851,33.9706986 22.4186525,35.2852837 21.2697979,35.758156 L21.2697979,35.758156 C20.990578,35.8756986 20.6978475,35.9297411 20.4145745,35.9297411 L20.4145745,35.9297411 C19.5269255,35.9292908 18.6897163,35.4019255 18.3294326,34.5331915 Z M14.6770567,26.4673404 C14.1276241,25.3509113 14.5824823,23.9998475 15.6993617,23.4499645 L15.6993617,23.4499645 C16.8121879,22.8964787 18.1632518,23.3553901 18.7167376,24.4682163 L18.7167376,24.4682163 L18.7167376,24.4682163 L18.7167376,24.4682163 C19.2666206,25.5846454 18.8113121,26.9357092 17.6944326,27.4855922 L17.6944326,27.4855922 C17.3746809,27.6432163 17.031961,27.7197766 16.6991489,27.7197766 L16.6991489,27.7197766 C15.8704965,27.7193262 15.0733688,27.2599645 14.6770567,26.4673404 Z M10.4887589,18.6581915 L10.4887589,18.6581915 C9.8623156,17.581844 10.2275532,16.2037589 11.3039007,15.5822695 L11.3039007,15.5822695 C12.3806986,14.9562766 13.7583333,15.3210638 14.3843262,16.3978617 L14.3843262,16.3978617 C15.0058156,17.4742092 14.6410284,18.851844 13.5651312,19.4737837 L13.5651312,19.4737837 C13.2093511,19.6809468 12.8220461,19.7800248 12.4392447,19.7800248 L12.4392447,19.7800248 C11.6596809,19.7795745 10.9030851,19.3787589 10.4887589,18.6581915 Z M5.78705674,11.1462766 C5.08900709,10.1149645 5.35921986,8.71841489 6.39053191,8.0208156 L6.39053191,8.0208156 C7.42184397,7.3272695 8.82244681,7.59793262 9.51599291,8.62924468 L9.51599291,8.62924468 C9.51599291,8.62924468 9.51599291,8.62924468 9.51599291,8.62429078 L9.51599291,8.62429078 C10.2140426,9.65560284 9.94382979,11.0562057 8.91251773,11.7542553 L8.91251773,11.7542553 C8.52521277,12.015461 8.08836879,12.1375071 7.65152482,12.1375071 L7.65152482,12.1375071 C6.93095745,12.1370567 6.21939716,11.7902837 5.78705674,11.1462766 Z M0.576453901,4.08921986 L0.576453901,4.08921986 C-0.229680851,3.14302482 -0.117092199,1.71990426 0.832705674,0.914219858 L0.832705674,0.914219858 C1.77394681,0.108085106 3.19706738,0.220673759 4.00320213,1.16641844 L4.00320213,1.16641844 L4.00320213,1.16641844 L4.00320213,1.16641844 C4.80933688,2.11666667 4.69674823,3.53528369 3.75100355,4.34141844 L3.75100355,4.34141844 C3.32767021,4.70170213 2.80976241,4.88184397 2.29185461,4.88184397 L2.29185461,4.88184397 C1.65730496,4.88184397 1.02230496,4.61163121 0.576453901,4.08921986 Z"></path>
                        </g>
                    </g>
                    <path d="M2.24907092,53.5926861 C1.14615248,53.5926861 0.182393617,52.7815603 0.0225177305,51.6579255 C-0.153120567,50.4271064 0.703003546,49.2863582 1.9338227,49.1111702 C2.45128014,49.0377624 54.3289787,41.7343617 110.012624,41.7343617 C165.695819,41.7343617 217.768972,49.0373121 218.28823,49.1111702 C219.51905,49.2859078 220.376074,50.4257553 220.200887,51.6570248 C220.025699,52.8873936 218.887202,53.7462199 217.655032,53.5696809 C217.138926,53.496273 165.36661,46.2379078 110.012624,46.2379078 C54.6599894,46.2379078 3.08357801,53.496273 2.56927305,53.5696809 C2.46208865,53.5849929 2.35490426,53.5926861 2.24907092,53.5926861 Z" id="Path" fill="#3F456B"></path>
                    <path d="M203.30178,85.1868262 L169.220294,82.0352447 C166.753702,81.8073652 164.92256,79.6024291 165.15044,77.1362872 L170.997394,13.9060496 C171.225273,11.4394574 173.430209,9.6083156 175.896351,9.83619504 L209.977837,12.9877766 C212.444429,13.215656 214.275571,15.4205922 214.047691,17.886734 L208.200738,81.1169716 C207.972858,83.5835638 205.768372,85.4147057 203.30178,85.1868262 Z" id="Path" fill="#8BD0F7"></path>
                    <g id="Group" opacity="0.2" transform="translate(201.308511, 13.510638)" fill="#3F456B">
                        <g id="Rectangle">
                            <rect transform="translate(6.652856, 36.194206) rotate(-84.640610) translate(-6.652856, -36.194206) " x="-29.1002263" y="32.9157177" width="71.5061648" height="6.55697598"></rect>
                        </g>
                    </g>
                    <g id="Group" opacity="0.3" transform="translate(186.446809, 12.159574)" fill="#FFFFFF">
                        <g id="Rectangle">
                            <rect transform="translate(6.420126, 36.136922) rotate(-84.640610) translate(-6.420126, -36.136922) " x="-29.3327315" y="33.0635648" width="71.5057145" height="6.14671464"></rect>
                        </g>
                    </g>
                    <path d="M186.440954,80.7350709 C186.231089,82.9890957 183.581652,83.3655922 181.328078,83.1548262 L169.220294,82.0352447 C164.735663,81.6204681 165.809309,73.1092163 166.019174,70.8556418 L171.392355,13.6849255 C171.60267,11.4313511 173.600443,9.77539716 175.853567,9.98616312 L186.870142,11.0152234 C192.024901,11.4916986 192.754926,13.406156 192.54416,15.6592801 L186.440954,80.7350709 Z" id="Path" fill="#99A4CE"></path>
                    <g id="Group" opacity="0.2" transform="translate(179.241135, 11.709220)" fill="#3F456B">
                        <g id="Rectangle">
                            <rect transform="translate(6.832157, 35.970794) rotate(-84.640610) translate(-6.832157, -35.970794) " x="-28.920925" y="32.6923059" width="71.5061648" height="6.55697598"></rect>
                        </g>
                    </g>
                    <g id="Group" opacity="0.3" transform="translate(164.379433, 10.358156)" fill="#FFFFFF">
                        <g id="Rectangle">
                            <rect transform="translate(6.599292, 35.913465) rotate(-84.640610) translate(-6.599292, -35.913465) " x="-29.1535653" y="32.840108" width="71.5057145" height="6.14671464"></rect>
                        </g>
                    </g>
                    <g id="Group" opacity="0.2" transform="translate(168.882979, 20.265957)" fill="#FFFFFF">
                        <g id="Rectangle">
                            <rect transform="translate(11.665943, 10.131277) rotate(5.284165) translate(-11.665943, -10.131277) " x="1.09536618" y="1.34892297" width="21.1411533" height="17.5647084"></rect>
                        </g>
                    </g>
                    <g id="Group" opacity="0.2" transform="translate(190.500000, 22.517730)" fill="#FFFFFF">
                        <g id="Rectangle">
                            <rect transform="translate(11.601621, 9.873339) rotate(5.284165) translate(-11.601621, -9.873339) " x="1.03104401" y="1.09098521" width="21.1411533" height="17.5647084"></rect>
                        </g>
                    </g>
                    <g id="Group" opacity="0.2" transform="translate(164.829787, 63.950355)" fill="#3F456B">
                        <g id="Rectangle">
                            <rect transform="translate(11.695468, 9.947755) rotate(5.284165) translate(-11.695468, -9.947755) " x="1.12489125" y="1.16540041" width="21.1411533" height="17.5647084"></rect>
                        </g>
                    </g>
                    <g id="Group" opacity="0.15" transform="translate(186.446809, 65.751773)" fill="#3F456B">
                        <g id="Rectangle">
                            <rect transform="translate(11.631146, 10.140171) rotate(5.284165) translate(-11.631146, -10.140171) " x="1.06056908" y="1.35781725" width="21.1411533" height="17.5647084"></rect>
                        </g>
                    </g>
                    <path d="M50.9923014,81.5623723 L16.9148688,84.7594397 C14.448727,84.990922 12.241539,83.1624823 12.0105071,80.6963404 L6.07933688,17.4733085 C5.84785461,15.0071667 7.67629433,12.7999787 10.1424362,12.5689468 L44.2198688,9.37187943 C46.6860106,9.14039716 48.8931986,10.9688369 49.1242305,13.4349787 L55.0554007,76.6575603 C55.286883,79.1237021 53.4584433,81.3308901 50.9923014,81.5623723 Z" id="Path" fill="#99A4CE"></path>
                    <g id="Group" opacity="0.2" transform="translate(42.333333, 9.907801)" fill="#3F456B">
                        <g id="Rectangle">
                            <rect transform="translate(6.672657, 35.913486) rotate(-5.284693) translate(-6.672657, -35.913486) " x="3.394238" y="0.161154588" width="6.55683821" height="71.5046624"></rect>
                        </g>
                    </g>
                    <g id="Group" opacity="0.3" transform="translate(27.471631, 11.258865)" fill="#FFFFFF">
                        <g id="Rectangle">
                            <rect transform="translate(6.439042, 35.965747) rotate(-5.284693) translate(-6.439042, -35.965747) " x="3.36574898" y="0.213641155" width="6.14658548" height="71.504212"></rect>
                        </g>
                    </g>
                    <path d="M31.6248014,80.4860248 C31.8346667,82.7400496 30.1769113,84.7364716 27.9233369,84.9454362 L16.9054113,85.9681915 C14.6518369,86.1776064 11.9141312,76.616578 11.7047163,74.3630035 L6.42701064,17.1837305 C6.21759574,14.930156 7.87490071,12.933734 10.1284752,12.7247695 L21.1455,11.7015638 C23.3999752,11.4925993 25.3959468,13.1494539 25.6049113,15.4034787 L31.6248014,80.4860248 Z" id="Path" fill="#8BD0F7"></path>
                    <g id="Group" opacity="0.2" transform="translate(20.265957, 11.709220)" fill="#3F456B">
                        <g id="Rectangle">
                            <rect transform="translate(6.856464, 36.164560) rotate(-5.284693) translate(-6.856464, -36.164560) " x="3.57804487" y="0.412228949" width="6.55683821" height="71.5046624"></rect>
                        </g>
                    </g>
                    <g id="Group" opacity="0.3" transform="translate(5.404255, 13.060284)" fill="#FFFFFF">
                        <g id="Rectangle">
                            <rect transform="translate(6.622849, 36.216686) rotate(-5.284693) translate(-6.622849, -36.216686) " x="3.54955586" y="0.46458041" width="6.14658548" height="71.504212"></rect>
                        </g>
                    </g>
                    <g id="Group" opacity="0.2" transform="translate(6.755319, 22.067376)" fill="#FFFFFF">
                        <g id="Rectangle">
                            <rect transform="translate(11.746927, 9.845165) rotate(-5.359390) translate(-11.746927, -9.845165) " x="1.17718095" y="1.06350054" width="21.1394924" height="17.5633285"></rect>
                        </g>
                    </g>
                    <g id="Group" opacity="0.2" transform="translate(28.372340, 19.815603)" fill="#FFFFFF">
                        <g id="Rectangle">
                            <rect transform="translate(11.677886, 10.075453) rotate(-5.359390) translate(-11.677886, -10.075453) " x="1.10813988" y="1.29378865" width="21.1394924" height="17.5633285"></rect>
                        </g>
                    </g>
                    <g id="Group" opacity="0.15" transform="translate(10.808511, 65.301418)" fill="#3F456B">
                        <g id="Rectangle">
                            <rect transform="translate(11.773694, 10.103336) rotate(-5.359390) translate(-11.773694, -10.103336) " x="1.20394751" y="1.32167154" width="21.1394924" height="17.5633285"></rect>
                        </g>
                    </g>
                    <g id="Group" opacity="0.2" transform="translate(32.425532, 63.500000)" fill="#3F456B">
                        <g id="Rectangle">
                            <rect transform="translate(11.704608, 9.883269) rotate(-5.359390) translate(-11.704608, -9.883269) " x="1.1348614" y="1.10160504" width="21.1394924" height="17.5633285"></rect>
                        </g>
                    </g>
                    <path d="M15.4268972,96.1664716 C12.579305,96.1664716 10.0694787,95.3517801 7.93885106,93.7314043 C2.61430851,89.6809149 1.8415,82.0474043 1.81132624,81.7245 C1.69513475,80.4864752 2.60530142,79.3880603 3.84332624,79.2723191 C5.07414539,79.1574787 6.17616312,80.0631418 6.29460638,81.2984645 L6.29460638,81.2984645 C6.30091135,81.3583617 6.93185816,87.3224078 10.6815106,90.1591915 C12.5072482,91.5395284 14.7765851,91.9651135 17.6183227,91.4575638 C18.8383333,91.2364397 20.0124078,92.0538333 20.2308298,93.2783475 C20.4492518,94.5028617 19.6345603,95.6719823 18.4100461,95.8908546 C17.378734,96.0745993 16.3839007,96.1664716 15.4268972,96.1664716 Z" id="Path" fill="#3F456B"></path>
                    <path d="M221.574468,18.464539 C220.330589,18.464539 219.322695,17.4566454 219.322695,16.212766 C219.322695,13.009844 218.422887,10.5099255 216.648489,8.78236525 C213.539691,5.75598227 208.639383,5.84785461 208.583539,5.85370922 C208.563273,5.85415957 208.542557,5.85415957 208.52184,5.85415957 C207.309936,5.85415957 206.305195,4.89085106 206.267816,3.67174113 C206.229986,2.43191489 207.196897,1.39474823 208.436723,1.35241489 C208.706486,1.34295745 215.250138,1.16957092 219.755486,5.52179787 C222.456713,8.13160284 223.826241,11.7285851 223.826241,16.212766 C223.826241,17.4566454 222.818348,18.464539 221.574468,18.464539 Z" id="Path" fill="#3F456B"></path>
                    <path d="M29.138844,94.1313191 C28.4286348,95.5765071 26.6830603,96.1736773 25.2369716,95.4639184 C23.792234,94.7541596 23.1955142,93.0067837 23.905273,91.5620461 C24.6145816,90.1168582 26.3615071,89.521039 27.8062447,90.2303475 C29.251883,90.939656 29.8477021,92.6861312 29.138844,94.1313191 Z" id="Path" fill="#3F456B"></path>
                    <path d="M203.426078,4.51075177 C202.715869,5.95593972 200.970294,6.55310993 199.524206,5.84335106 C198.079468,5.1335922 197.482748,3.38621631 198.192507,1.94147872 C198.901816,0.49629078 200.648741,-0.0995283688 202.093479,0.609780142 C203.539117,1.31908865 204.134936,3.06556383 203.426078,4.51075177 Z" id="Path" fill="#3F456B"></path>
                    <path d="M43.6411631,174.939348 C47.9906879,178.844823 48.3505213,185.535291 44.4450461,189.884816 C44.2041064,190.152777 43.9532589,190.405426 43.6947553,190.63961 L52.6221348,205.718833 L35.9743262,200.006986 C35.5509929,200.909947 34.9880496,201.766071 34.283695,202.550138 C30.3782199,206.899663 23.6877518,207.259496 19.338227,203.354021 C15.7425957,200.125429 14.8765638,194.99634 16.8896489,190.860284 C12.7238688,186.932291 12.4288865,180.37873 16.2771667,176.092706 C19.8664929,172.094908 25.8062199,171.466213 30.120617,174.426394 C34.0828369,171.368486 39.7843262,171.476571 43.6411631,174.939348 Z" id="Path" fill="#F5F6F7"></path>
                    <g id="Group" opacity="0.15" transform="translate(16.663121, 173.386525)" fill="#3F456B">
                        <g id="Path">
                            <path d="M17.5034823,0.308492908 C17.5034823,0.308492908 24.9370355,2.14098582 23.7404433,9.54031206 C22.5438511,16.9396383 16.8887482,18.5194823 16.8887482,18.5194823 C16.8887482,18.5194823 16.2258262,23.9764291 11.5754645,26.459234 C6.92510284,28.942039 3.30785461,26.9041844 0.291829787,24.1962021 C0.291829787,24.1962021 -1.07634752,30.2309539 7.86544326,32.5097482 C16.807234,34.7885426 19.2414007,26.6848617 19.2414007,26.6848617 L35.8180532,32.490383 L27.0302837,17.3364007 C27.0298333,17.3364007 37.451039,-2.35895745 17.5034823,0.308492908 Z"></path>
                        </g>
                    </g>
                    <g id="Group" opacity="0.5" transform="translate(10.808511, 171.134752)" fill="#FFFFFF">
                        <g id="Oval">
                            <ellipse transform="translate(10.384175, 10.274063) rotate(-48.080500) translate(-10.384175, -10.274063) " cx="10.3841749" cy="10.2740626" rx="7.65619075" ry="6.75546243"></ellipse>
                        </g>
                    </g>
                    <path d="M212.438574,206.701507 C208.11427,210.634904 201.42155,210.317855 197.488152,205.993099 C197.245862,205.726489 197.019784,205.451323 196.813071,205.170301 L180.909699,212.530447 L188.272546,196.543759 C187.416872,196.031255 186.621996,195.384996 185.912688,194.604982 C181.979291,190.280677 182.29634,183.587957 186.621096,179.65456 C190.196011,176.403 195.386348,176.059379 199.298128,178.479585 C203.626486,174.731284 210.176443,175.099223 214.052195,179.360479 C217.667191,183.334858 217.693762,189.307461 214.31295,193.301656 C216.956082,197.552103 216.273344,203.213961 212.438574,206.701507 Z" id="Path" fill="#F5F6F7"></path>
                    <g id="Group" opacity="0.15" transform="translate(180.592199, 177.439716)" fill="#3F456B">
                        <g id="Path">
                            <path d="M34.0405035,19.9610674 C34.0405035,19.9610674 31.4671773,27.171695 24.2263759,25.2347199 C16.9855745,23.2977447 15.9844362,17.5115887 15.9844362,17.5115887 C15.9844362,17.5115887 10.6220638,16.3010355 8.62158865,11.4241454 C6.62111348,6.54725532 9.01339716,3.15383333 12.0118582,0.426485816 C12.0118582,0.426485816 6.14598936,-1.54336525 2.97639362,7.12235816 C-0.193202128,15.7885319 7.62360284,19.0279326 7.62360284,19.0279326 L0.175187943,34.9340071 L16.1384574,27.720227 C16.1384574,27.7206773 34.6818085,40.076156 34.0405035,19.9610674 Z"></path>
                        </g>
                    </g>
                    <g id="Group" opacity="0.5" transform="translate(197.705674, 173.386525)" fill="#FFFFFF">
                        <g id="Oval">
                            <ellipse transform="translate(10.576102, 10.317296) rotate(-42.288719) translate(-10.576102, -10.317296) " cx="10.5761021" cy="10.3172962" rx="6.75565167" ry="7.65640523"></ellipse>
                        </g>
                    </g>
                </g>
                <g id="Lines" transform="translate(3.602837, 6.755319)" fill="#3F456B">
                    <path d="M171.134752,214.819599 L42.3333333,214.819599 C41.0894539,214.819599 40.0815603,213.811706 40.0815603,212.567826 C40.0815603,211.323947 41.0894539,210.316053 42.3333333,210.316053 L171.134752,210.316053 C172.378631,210.316053 173.386525,211.323947 173.386525,212.567826 C173.386525,213.811706 172.378631,214.819599 171.134752,214.819599 Z" id="Path"></path>
                    <path d="M100.626333,98.4209468 C100.450695,98.4209468 100.272805,98.4002305 100.094465,98.3569965 C96.4790177,97.4815071 93.4535355,94.6821028 93.1445922,94.388922 C89.3476525,90.8833617 87.142266,86.353695 86.9342021,81.6335284 C86.7252376,76.8944468 88.5397163,72.1904929 92.0443759,68.3890496 C95.5503865,64.585805 100.327748,62.3750142 105.496018,62.1646986 C110.665638,61.9516809 115.605128,63.7693121 119.408372,67.2753227 C123.213418,70.7831348 125.423759,75.317305 125.632273,80.0437766 C125.841238,84.7774539 124.030812,89.4751028 120.53516,93.2747447 C120.248284,93.5944965 117.901035,96.1263901 114.099592,97.7310035 C112.95389,98.214234 111.63255,97.6778617 111.149319,96.5321596 C110.665638,95.3864574 111.202461,94.065117 112.348163,93.5818865 C115.330862,92.3231454 117.160202,90.2929468 117.178216,90.2726809 C117.186773,90.2632234 117.202085,90.2452092 117.210642,90.2362021 C119.934837,87.2809752 121.291305,83.8254043 121.13323,80.242383 C120.977408,76.7125035 119.280922,73.2835035 116.356319,70.5876809 C113.438021,67.8968121 109.646486,66.5034149 105.679312,66.6655426 C101.713039,66.8267695 98.0467021,68.5232553 95.3562837,71.4420035 C92.6320887,74.3972305 91.2756206,77.8528014 91.433695,81.4358227 C91.5895177,84.9657021 93.2860035,88.3947021 96.2106064,91.0905248 C96.2223156,91.1013333 96.2344752,91.1130426 96.2461844,91.1238511 C96.2655496,91.142766 98.6200035,93.3661667 101.154149,93.9804504 C102.363351,94.2731809 103.105535,95.4904894 102.812805,96.6987908 C102.563309,97.7296525 101.641883,98.4209468 100.626333,98.4209468 Z" id="Path"></path>
                    <path d="M69.8022624,158.074918 C68.6795284,158.074918 67.7081135,157.236358 67.5694043,156.093809 C66.7177837,149.062872 69.0609787,142.002663 74.3463404,135.676082 C78.2554184,130.996897 82.388773,128.35917 82.5626099,128.249284 C83.6141879,127.58411 85.0057837,127.898457 85.669156,128.949585 C86.3329787,130.000262 86.0204326,131.389606 84.9715567,132.05478 L84.9715567,132.05478 C84.8251915,132.148004 70.3422376,141.536546 72.0400745,155.552482 C72.1895922,156.786904 71.3100496,157.909188 70.0756277,158.058706 C69.9837553,158.069064 69.8923333,158.074918 69.8022624,158.074918 Z" id="Path"></path>
                    <path d="M86.0177305,137.358606 C85.0958546,137.358606 84.2307234,136.788007 83.8997128,135.870635 C83.1813972,133.880518 82.4094894,131.856624 81.6637021,129.899383 C78.0496064,120.42077 74.3139149,110.622855 73.870766,98.1525355 L73.4330213,96.9280213 C69.244273,85.203039 66.4772943,77.4569397 64.0314184,68.6025177 L63.668883,67.2906348 C60.8023759,56.916266 58.5370922,48.7180106 55.923234,37.9770532 C55.6660816,37.1254326 54.3627553,32.3251028 56.5663404,28.8591738 C57.3445532,27.6351099 58.886117,26.0948972 61.8174752,25.6940816 C64.3615284,25.2905638 69.6896738,26.3124184 71.9409965,33.0641348 C71.9473014,33.0830496 71.953156,33.1015142 71.9590106,33.1204291 C75.0344823,43.2254858 90.6172021,77.9901596 90.7739255,78.3400851 C91.2832766,79.4749787 90.7761773,80.807578 89.6412837,81.3160284 C88.5059397,81.8262801 87.1737908,81.3173794 86.6653404,80.1833865 C86.0195319,78.7454043 70.8376277,44.8724326 67.6599255,34.4615851 C66.1300709,29.9085 63.0820709,30.0706277 62.4835496,30.1480887 C61.1081667,30.3318333 60.6186312,30.8790142 60.3673333,31.2748759 C59.4396028,32.7340248 59.8832021,35.5609007 60.2430355,36.7007482 C60.2583475,36.7489362 60.2718582,36.7975745 60.2840177,36.8466631 C62.8879681,47.5520426 65.1487482,55.7331844 68.0103014,66.0913404 L68.3728369,67.4036738 C70.774578,76.0977695 73.5194894,83.7817199 77.674461,95.412578 L78.2306489,96.9690035 C78.3099113,97.190578 78.3531454,97.422961 78.3608014,97.6580461 C78.7206348,109.540202 82.3558972,119.074209 85.8718156,128.294319 C86.6252589,130.270025 87.403922,132.312833 88.1357482,134.34123 C88.5581809,135.511252 87.9520035,136.801518 86.7819823,137.2235 C86.5297837,137.315372 86.2712801,137.358606 86.0177305,137.358606 Z" id="Path"></path>
                    <path d="M126.549645,137.358606 C126.296096,137.358606 126.037592,137.315372 125.785394,137.224401 C124.615372,136.801968 124.009645,135.511702 124.431628,134.342131 C125.282798,131.984525 126.210528,129.611606 127.107635,127.31705 C130.60734,118.368954 134.22639,109.116418 134.573163,97.6589468 C134.580819,97.4238617 134.624053,97.1914787 134.703316,96.9699043 L135.259504,95.4134787 C139.414926,83.7826206 142.159387,76.0982199 144.561128,67.4045745 L144.93222,66.060266 C147.791071,55.7138191 150.048699,47.5421348 152.649947,36.8480142 C152.661656,36.7989255 152.675617,36.7502872 152.690929,36.7020993 C152.97195,35.7919326 153.556961,32.8240957 152.562578,31.269922 C152.310379,30.8763121 151.821294,30.332734 150.487344,30.1543936 C150.463025,30.1512411 150.439156,30.1471879 150.414837,30.1435851 C149.858199,30.0706277 146.803894,29.9094007 145.274039,34.4629362 C142.094085,44.8787376 126.558652,79.1867518 125.898433,80.6431986 C125.385028,81.7762908 124.050177,82.2775355 122.917986,81.7641312 C121.785344,81.250727 121.283199,79.9158759 121.797053,78.7836844 C121.957379,78.4292553 137.901284,43.2214326 140.975404,33.1213298 C140.981259,33.1024149 140.987113,33.0839504 140.993418,33.0650355 C143.24384,26.3128688 148.576039,25.2910142 151.11694,25.6949823 C154.048748,26.0962482 155.590312,27.636461 156.368074,28.8600745 C158.57166,32.3260035 157.268333,37.1263333 157.01073,37.9779539 C154.400025,48.7076525 152.137894,56.8969007 149.274089,67.2595603 L148.902996,68.6034184 C146.457121,77.4573901 143.690142,85.2034894 139.501394,96.928922 L139.063649,98.1538865 C138.630858,110.220238 134.905975,119.744337 131.302688,128.958142 C130.415489,131.225227 129.499018,133.569773 128.668113,135.871535 C128.336652,136.788007 127.471521,137.358606 126.549645,137.358606 Z" id="Path"></path>
                    <path d="M144.116177,159.425982 C143.986926,159.425982 143.855422,159.414723 143.723918,159.391755 C142.498954,159.176035 141.68066,158.009167 141.895479,156.784202 C144.634085,141.205986 128.770344,132.211053 128.610018,132.121883 C127.522411,131.518408 127.129702,130.147979 127.732727,129.060372 C128.336652,127.973216 129.706181,127.580057 130.794238,128.183082 C130.986989,128.289816 135.554936,130.852333 139.75134,135.684638 C145.424007,142.217482 147.698748,149.782989 146.331472,157.563316 C146.13917,158.656777 145.188922,159.425982 144.116177,159.425982 Z" id="Path"></path>
                    <path d="M85.5673759,214.819149 L67.5531915,214.819149 C63.9021667,214.819149 62.2651277,213.29695 61.5351028,212.020195 C61.2112979,211.455 59.7363865,208.399794 62.4601312,203.769699 C64.5042908,200.362766 67.4797837,198.141617 69.2636383,197.026539 C66.6182553,180.59445 65.319883,166.036287 65.3068227,165.886319 C65.3041206,165.857947 65.3023191,165.828674 65.3005177,165.800301 C65.2847553,165.477848 64.9577979,157.864152 69.1433936,153.465539 C71.0673085,151.443447 73.5726312,150.417989 76.5882057,150.417989 C77.0957553,150.417989 81.6150638,150.486894 84.0068972,152.879177 C84.8864397,153.75827 84.8864397,155.184092 84.0068972,156.063184 C83.1282553,156.942727 81.7015319,156.942727 80.8228901,156.063184 C80.0545851,155.294879 77.8383901,154.92784 76.5832518,154.921535 C74.8340745,154.921535 73.4685993,155.457908 72.4138688,156.561727 C70.0648191,159.019762 69.7284043,163.832702 69.7968582,165.539546 C69.884227,166.508709 71.2515035,181.440216 73.9599362,197.844833 C74.1234149,198.836514 73.610461,199.816486 72.7020957,200.246574 C72.6678688,200.263238 68.6304397,202.238043 66.3313794,206.06966 C65.6220709,207.294174 65.0834468,209.157741 65.4446312,209.785535 C65.5851418,210.030078 66.2223936,210.315603 67.5531915,210.315603 L85.0440638,210.315603 C85.2066418,210.038635 85.4538865,209.40994 85.5808865,208.265589 C85.879922,205.573369 83.7353333,201.281039 82.9611738,199.989872 C82.7414007,199.624184 82.6306135,199.202652 82.6409716,198.775716 C82.9616241,185.83973 84.6576596,165.700773 84.674773,165.498564 C84.7797057,164.259638 85.8664113,163.341365 87.1084894,163.444496 C88.3478652,163.549429 89.267039,164.638837 89.1625567,165.878213 C89.1458936,166.075468 87.5147092,185.443418 87.1598298,198.25961 C88.1069255,199.972309 90.501461,204.768585 90.0578617,208.761879 C89.4034965,214.649365 85.9578333,214.819149 85.5673759,214.819149 Z" id="Path"></path>
                    <path d="M145.530291,214.819149 L127.516106,214.819149 C125.930858,214.819149 123.107135,213.543745 122.575716,208.76278 C122.128965,204.738862 124.825688,199.94844 125.922301,198.193408 C125.563369,185.374514 123.938039,166.075918 123.921376,165.878663 C123.816894,164.639287 124.736067,163.549879 125.975443,163.444947 C127.21527,163.341816 128.304227,164.259638 128.40916,165.499014 C128.426273,165.700773 130.122309,185.840181 130.442961,198.776167 C130.45467,199.246787 130.319113,199.708851 130.054305,200.098408 C128.756833,202.015567 126.793287,205.93005 127.052691,208.266489 C127.20266,209.616202 127.578706,210.173291 127.754794,210.316504 L145.531191,210.316504 C146.861989,210.316504 147.498791,210.030979 147.639752,209.786436 C148.001387,209.158642 147.462312,207.295074 146.739493,206.047592 C144.465652,202.258309 140.422369,200.26639 140.382287,200.247475 C139.473922,199.817387 138.960968,198.837415 139.124447,197.845734 C141.834681,181.428057 143.201057,166.501053 143.287525,165.539546 C143.356429,163.840809 143.021365,159.022465 140.670514,156.562628 C139.615784,155.459259 138.250309,154.922436 136.495727,154.922436 C136.36017,154.921986 136.313784,154.924238 136.180929,154.900369 C135.92873,154.874699 134.41644,154.814801 133.459436,156.48967 C132.84245,157.56872 131.466617,157.944316 130.387567,157.32733 C129.308067,156.710344 128.932922,155.334961 129.549908,154.255461 C131.504897,150.833216 134.840223,150.230642 136.636688,150.41934 C139.590113,150.450415 142.046798,151.475422 143.940989,153.465989 C148.126585,157.864603 147.799628,165.478298 147.783865,165.800752 C147.782064,165.829124 147.780262,165.858397 147.77756,165.88677 C147.7645,166.036287 146.465677,180.595351 143.820745,197.026539 C145.603699,198.140716 148.57739,200.357362 150.614344,203.753486 C153.347996,208.400245 151.873085,211.455901 151.54928,212.020645 C150.818355,213.29695 149.181316,214.819149 145.530291,214.819149 Z" id="Shape"></path>
                    <path d="M70.8858156,200.928862 C70.0490567,200.928862 69.2447234,200.460493 68.8565177,199.65616 C68.3156418,198.536578 68.7849113,197.190018 69.9044929,196.649142 C70.3854716,196.416309 74.7030213,194.41223 78.1725532,195.569642 C79.3524823,195.962801 79.989734,197.237755 79.5965745,198.417684 C79.2034149,199.597613 77.9271099,200.234865 76.7485319,199.841706 C75.3745,199.383245 72.8187376,200.242521 71.8630851,200.704135 C71.5478369,200.856805 71.2145745,200.928862 70.8858156,200.928862 Z" id="Path"></path>
                    <path d="M142.310255,200.928862 C141.983298,200.928862 141.650936,200.857255 141.336589,200.706387 C140.331848,200.227209 137.816167,199.386397 136.447539,199.841706 C135.268511,200.233965 133.992656,199.598064 133.599496,198.417684 C133.206337,197.237755 133.843589,195.962801 135.023518,195.569642 C138.49395,194.410879 142.810599,196.416759 143.291578,196.649142 C144.41116,197.190018 144.880429,198.536128 144.339553,199.65616 C143.951348,200.460043 143.147014,200.928862 142.310255,200.928862 Z" id="Path"></path>
                    <path d="M86.8306206,168.869918 C85.7380603,168.869918 84.7792553,168.073241 84.6076702,166.960865 C84.4180709,165.731848 85.2606844,164.581642 86.4901525,164.392493 C86.5649113,164.380784 94.3438865,163.115287 100.398904,158.334323 C106.741699,153.325028 111.767656,157.578628 112.665663,158.434301 C118.309057,163.475121 126.266823,164.369975 126.346535,164.378532 C127.581858,164.509135 128.479415,165.615656 128.351064,166.850979 C128.222262,168.085851 127.121596,168.989262 125.884021,168.857759 C125.499869,168.818578 116.40856,167.826897 109.650539,161.779085 C109.596496,161.730897 109.544706,161.680007 109.495617,161.626415 C109.076787,161.195876 106.712426,159.086415 103.189301,161.868255 C96.1786312,167.404465 87.5399291,168.787053 87.1755922,168.842897 C87.0598511,168.860911 86.9445603,168.869918 86.8306206,168.869918 Z" id="Path"></path>
                    <path d="M106.736294,160.326241 C106.686305,160.326241 106.635865,160.32444 106.585426,160.321287 C105.365865,160.240223 104.433631,159.201706 104.484071,157.980794 C104.486323,157.932156 104.493979,157.775433 104.516947,157.528188 C104.706546,154.303649 103.406372,151.315096 100.649752,148.64089 C98.3646525,146.423794 95.9075177,145.269085 95.8827482,145.257376 C94.7568617,144.734514 94.2641738,143.397411 94.7843333,142.270624 C95.3044929,141.142936 96.6375426,140.647996 97.7643298,141.165904 C97.8886277,141.222649 100.843404,142.593078 103.674333,145.30106 C105.055121,146.62195 106.176954,148.036965 107.030826,149.525837 C108.784057,146.361195 111.739734,143.0655 116.722007,141.115915 C117.879869,140.661957 119.185897,141.234358 119.639855,142.39222 C120.092911,143.550532 119.521411,144.857011 118.36355,145.310067 C110.369755,148.43778 109.171362,156.266745 109.008333,157.876762 C108.999326,158.010518 108.989418,158.144273 108.977259,158.278929 C108.870525,159.444897 107.891004,160.326241 106.736294,160.326241 Z" id="Path"></path>
                    <g id="Group" opacity="0.3" transform="translate(150.868794, 148.166667)">
                        <g transform="translate(2.251773, 0.000000)" id="Path">
                            <path d="M3.84918085,18.7212411 C3.14978014,18.7212411 2.46028723,18.3965355 2.01984043,17.7854043 C1.29341844,16.7766099 1.52219858,15.3692518 2.53144326,14.6423794 C2.97369149,14.3136206 3.92348936,13.3525638 3.95051064,12.5432766 C3.9658227,12.0857163 3.63751418,11.5669078 2.97414184,11.0008121 C0.731826241,9.08635461 0.348574468,7.1219078 0.421531915,5.81092553 C0.596719858,2.68321277 3.42269504,0.683638298 3.74424823,0.466117021 C4.77556028,-0.231031915 6.1743617,0.0396312057 6.87106028,1.06869149 C7.56550709,2.09459929 7.30024823,3.48799645 6.28019504,4.18784752 C5.86586879,4.4787766 4.95254965,5.35291489 4.9183227,6.06942908 C4.89265248,6.60174823 5.43713121,7.18270567 5.89829433,7.5763156 C8.10548227,9.46059929 8.50449645,11.4227943 8.4504539,12.7373794 C8.3185,15.9357979 5.48621986,18.0650745 5.1633156,18.2979078 C4.76520213,18.583883 4.30539007,18.7212411 3.84918085,18.7212411 Z"></path>
                        </g>
                        <g transform="translate(1.351064, 14.411348)" id="Path">
                            <path d="M3.57266312,18.6739539 C2.87326241,18.6739539 2.1837695,18.3492482 1.74377305,17.7385674 C1.01690071,16.7293227 1.24568085,15.3224149 2.25447518,14.5955426 C2.69717376,14.2663333 3.64652128,13.3052766 3.67354255,12.4959894 C3.68885461,12.0384291 3.3605461,11.5196206 2.69717376,10.9539752 C0.454858156,9.03906738 0.071606383,7.07417021 0.145014184,5.76318794 C0.320202128,2.63547518 3.1461773,0.635450355 3.4677305,0.417929078 C4.4985922,-0.279219858 5.89784397,-0.0090070922 6.59454255,1.02050355 C7.28898936,2.04641135 7.02418085,3.43935816 6.00412766,4.13920922 C5.58980142,4.4301383 4.67513121,5.30472695 4.64090426,6.02214184 C4.61523404,6.55446099 5.15971277,7.13541844 5.62132624,7.52902837 C7.82806383,9.4128617 8.22707801,11.3750567 8.17303546,12.6896418 C8.04153191,15.8880603 5.20925177,18.0177872 4.88679787,18.2501702 C4.4886844,18.535695 4.02842199,18.6739539 3.57266312,18.6739539 Z"></path>
                        </g>
                        <g transform="translate(0.000000, 28.372340)" id="Path">
                            <path d="M3.74604965,19.0747695 C3.04619858,19.0747695 2.35715603,18.7496135 1.91670922,18.1389326 C1.19028723,17.1296879 1.41951773,15.7223298 2.42831206,14.9959078 C2.87056028,14.6671489 3.8199078,13.7069929 3.84692908,12.8977057 C3.86269149,12.4401454 3.53438298,11.9213369 2.87056028,11.3547908 C0.628244681,9.44033333 0.245443262,7.47588652 0.318400709,6.16490426 C0.493588652,3.03719149 3.31911348,1.03761702 3.64066667,0.820095745 C4.67152837,0.122946809 6.07078014,0.393159574 6.76747872,1.42267021 C7.46192553,2.44857801 7.19666667,3.84152482 6.17706383,4.54137589 C5.76318794,4.83230496 4.84851773,5.70644326 4.81429078,6.4234078 C4.78862057,6.9552766 5.33354965,7.5366844 5.79471277,7.93029433 C8.00235106,9.81502837 8.40091489,11.7776738 8.34642199,13.0922589 C8.21401773,16.2906773 5.38218794,18.4190532 5.05973404,18.6514362 C4.66252128,18.9374113 4.20180851,19.0747695 3.74604965,19.0747695 Z"></path>
                        </g>
                    </g>
                    <g id="Group" opacity="0.3" transform="translate(56.294326, 78.812057)">
                        <g id="Path">
                            <path d="M6.77063121,18.633422 C6.30946809,18.633422 5.84380142,18.492461 5.44343617,18.1992801 C4.43959574,17.4652021 4.2207234,16.0564929 4.95480142,15.0526525 C5.27365248,14.6027482 5.87802837,13.3948972 5.65330142,12.6171348 C5.52630142,12.1775887 5.05297872,11.7857801 4.24639362,11.4534184 C1.52129787,10.328883 0.547631206,8.58015603 0.210765957,7.31105674 C-0.593117021,4.28287234 1.47401064,1.50553546 1.71224823,1.19929433 C2.47424823,0.217070922 3.88881206,0.0382801418 4.87193617,0.802531915 C5.85010638,1.5627305 6.03024823,2.96873759 5.27770567,3.95006028 C4.97416667,4.35447872 4.37564539,5.47000709 4.56524468,6.16220213 C4.70575532,6.67560638 5.40335461,7.05885816 5.9640461,7.29034043 C8.64680851,8.3968617 9.63443617,10.1392837 9.99021631,11.4056809 C10.8566986,14.4874574 8.82424823,17.3899929 8.59006383,17.7110957 C8.14916667,18.3136702 7.46462766,18.633422 6.77063121,18.633422 Z"></path>
                        </g>
                        <g transform="translate(3.152482, 13.960993)" id="Path">
                            <path d="M6.95257447,18.6933191 C6.49141135,18.6933191 6.02619504,18.5523582 5.62537943,18.2591773 C4.62153901,17.5255496 4.40266667,16.1163901 5.13674468,15.1125496 C5.45514539,14.6626454 6.05997163,13.454344 5.83479433,12.6765816 C5.70779433,12.2370355 5.23447163,11.8456773 4.42878723,11.5133156 C1.70279078,10.3883298 0.729124113,8.63915248 0.392258865,7.37005319 C-0.411173759,4.34186879 1.65550355,1.56453191 1.89374113,1.25829078 C2.65574113,0.27651773 4.07030496,0.0972765957 5.05342908,0.861528369 C6.03159929,1.62172695 6.21174113,3.0281844 5.45919858,4.00950709 C5.15565957,4.41392553 4.55758865,5.52900355 4.74718794,6.22164894 C4.88769858,6.73550355 5.58574823,7.11875532 6.14643972,7.35023759 C8.82830142,8.45675887 9.81592908,10.1982801 10.1721596,11.4651277 C11.0386418,14.5469043 9.00664184,17.4498901 8.77200709,17.7709929 C8.33156028,18.3735674 7.64657092,18.6933191 6.95257447,18.6933191 Z"></path>
                        </g>
                        <g transform="translate(6.304965, 27.921986)" id="Path">
                            <path d="M7.13451773,18.7518652 C6.67335461,18.7518652 6.20768794,18.6109043 5.8073227,18.3177234 C4.80348227,17.5836454 4.58460993,16.1744858 5.31868794,15.1710957 C5.63753901,14.7211915 6.24191489,13.5133404 6.01718794,12.7360284 C5.89018794,12.2964823 5.41686525,11.9046738 4.6107305,11.5723121 C1.8851844,10.4477766 0.91151773,8.69859929 0.574652482,7.4295 C-0.228780142,4.4013156 1.83789716,1.62397872 2.07613475,1.31773759 C2.83813475,0.335514184 4.25314894,0.156723404 5.2358227,0.920975177 C6.21444326,1.68117376 6.39413475,3.08763121 5.64114184,4.0689539 C5.33760284,4.47337234 4.73953191,5.58845035 4.92913121,6.28064539 C5.06964184,6.7945 5.76769149,7.17775177 6.32838298,7.40923404 C9.01114539,8.51620567 9.9983227,10.2586277 10.3545532,11.5250248 C11.2205851,14.6068014 9.18813475,17.5088865 8.95395035,17.829539 C8.51260284,18.4321135 7.82851418,18.7518652 7.13451773,18.7518652 Z"></path>
                        </g>
                    </g>
                    <path d="M200.118223,80.7026454 C199.91106,80.7026454 199.702096,80.6931879 199.49178,80.6738227 L199.49178,80.6738227 L165.409844,77.5222411 C163.617883,77.3565106 161.994805,76.4994858 160.839645,75.1087908 C159.684936,73.7180957 159.140007,71.9653156 159.305738,70.1733546 L165.152241,6.94401773 C165.495862,3.23534752 168.79561,0.498542553 172.500677,0.839010638 L206.582163,3.9905922 C210.290833,4.33376241 213.02944,7.63035816 212.68717,11.3390284 L206.840216,74.5688156 C206.516411,78.0676206 203.565238,80.7026454 200.118223,80.7026454 Z M199.906557,76.1896418 C201.145482,76.2968262 202.241645,75.3907128 202.356035,74.154039 L208.20344,10.9247021 C208.317379,9.68847872 207.404511,8.58871277 206.167837,8.47477305 L172.086801,5.32319149 C170.843823,5.21465603 169.751262,6.12212057 169.636872,7.35879433 L163.790369,70.5881312 C163.735426,71.1821489 163.917819,71.7658085 164.304674,72.2310248 C164.691528,72.6962411 165.231504,72.983117 165.825521,73.0380603 L199.906557,76.1896418 Z" id="Shape"></path>
                    <path d="M182.661128,79.1074894 C182.591773,79.1074894 182.521518,79.1043369 182.451262,79.0980319 C181.212787,78.9836418 180.30172,77.8870284 180.41611,76.6490035 L187.092617,4.44950355 C187.207007,3.21102837 188.304071,2.29860993 189.541645,2.41435106 C190.780121,2.52874113 191.691188,3.62535461 191.576798,4.86337943 L184.900741,77.0624291 C184.792656,78.2310993 183.810883,79.1074894 182.661128,79.1074894 Z" id="Path"></path>
                    <path d="M12.8837447,80.2757092 C11.3174113,80.2757092 9.81142553,79.7334823 8.58510993,78.7174823 C7.19261348,77.5641241 6.33333688,75.9423972 6.16535461,74.1504362 L0.234634752,10.9287553 C-0.113039007,7.22008511 2.62106383,3.91988652 6.32973404,3.57176241 L40.4071667,0.374695035 C42.1955248,0.208514184 43.9514574,0.749390071 45.3439539,1.90319858 C46.7364504,3.05655674 47.595727,4.67828369 47.7637092,6.47024468 L53.6948794,69.6928262 C53.8628617,71.4843369 53.3201844,73.2375674 52.1668262,74.6296135 C51.0130177,76.0221099 49.3917411,76.8809362 47.5997801,77.0493688 L47.3894645,74.8070532 L47.5997801,77.0493688 L13.5223475,80.2464362 C13.3093298,80.2658014 13.0958617,80.2757092 12.8837447,80.2757092 Z M41.0376631,4.84896809 C40.9678582,4.84896809 40.8976028,4.85257092 40.8273475,4.85887589 L6.74991489,8.05594326 C5.51369149,8.1716844 4.60217376,9.27190071 4.71836525,10.5081241 L10.6495355,73.7302553 C10.7652766,74.9660284 11.8627908,75.8829504 13.1017163,75.761805 L47.1791489,72.5647376 C48.414922,72.4489965 49.3264397,71.3492305 49.2102482,70.1130071 L43.2795284,6.89042553 C43.2241348,6.29685816 42.9368085,5.75643262 42.4706915,5.37092908 C42.0604184,5.03046099 41.5573723,4.84896809 41.0376631,4.84896809 Z" id="Shape"></path>
                    <path d="M30.3484965,78.6571348 C29.1996418,78.6571348 28.2187695,77.7825461 28.108883,76.6156773 L21.3364504,4.4251844 C21.2202589,3.18715957 22.1299752,2.08874468 23.3684504,1.97300355 C24.6015213,1.86041489 25.7048901,2.76652837 25.8206312,4.00500355 L32.5930638,76.1954965 C32.7092553,77.4335213 31.799539,78.5319362 30.5610638,78.6476773 C30.4899078,78.6539823 30.4187518,78.6571348 30.3484965,78.6571348 Z" id="Path"></path>
                    <path d="M106.025184,122.187961 C95.8210496,122.187961 88.6622128,118.892266 88.2087057,118.677897 C87.0841702,118.146479 86.6031915,116.804872 87.1337092,115.680337 C87.6646773,114.556702 89.005383,114.076174 90.1272163,114.603539 L90.1272163,114.603539 C90.2812376,114.674695 105.695074,121.700677 122.941855,114.129316 C124.07855,113.628972 125.408447,114.146879 125.908791,115.285826 C126.408684,116.424323 125.890777,117.752869 124.75228,118.252762 C118.002365,121.216546 111.565447,122.187961 106.025184,122.187961 Z" id="Path"></path>
                    <path d="M106.283688,132.85461 C105.039809,132.85461 104.031915,131.846716 104.031915,130.602837 L104.031915,110.336879 C104.031915,109.093 105.039809,108.085106 106.283688,108.085106 C107.527567,108.085106 108.535461,109.093 108.535461,110.336879 L108.535461,130.602837 C108.535461,131.846716 107.527567,132.85461 106.283688,132.85461 Z" id="Path"></path>
                    <path d="M22.790195,201.560259 C19.6224007,201.560259 16.6063759,200.407351 14.2307553,198.274922 C10.3914823,194.827457 9.02780851,189.388525 10.6567411,184.590897 C6.61210638,179.741479 6.66389716,172.660553 10.9981099,167.832752 C14.9319574,163.451252 21.3310461,162.358691 26.4416702,165.005876 C31.2023688,162.183504 37.3289929,162.726181 41.5425106,166.508709 L41.5425106,166.508709 C44.0933191,168.799663 45.6002057,171.946291 45.7839504,175.369887 C45.9577872,178.60028 44.9341312,181.712681 42.8931241,184.197287 L50.9567234,197.816911 C51.4372518,198.628901 51.3606915,199.653908 50.7648723,200.385734 C50.1695035,201.11711 49.1796241,201.399933 48.287922,201.093691 L33.3924433,195.982617 C33.0776454,196.441078 32.7313227,196.880624 32.355727,197.299454 C30.064773,199.850262 26.9181454,201.357149 23.495,201.541344 C23.2599149,201.553954 23.0248298,201.560259 22.790195,201.560259 Z M20.5613901,168.079996 C18.2618794,168.079996 15.9799326,169.026191 14.3496489,170.842021 C11.3034504,174.233642 11.5155674,179.340213 14.831078,182.466574 C15.5475922,183.142106 15.7421454,184.204493 15.311156,185.08989 C13.6952837,188.409904 14.4883582,192.453638 17.2395745,194.923383 C18.8959787,196.410454 21.0279574,197.159394 23.2536099,197.044103 C25.4756596,196.924309 27.5180177,195.946138 29.0050887,194.290184 C29.549117,193.684457 29.9958688,193.013429 30.332734,192.295113 C30.8204681,191.253894 32.0152589,190.749046 33.1019645,191.121489 L43.9663191,194.849074 L38.1540426,185.031344 C37.6086631,184.110369 37.7874539,182.932691 38.5809787,182.214376 C38.7800355,182.034684 38.9772908,181.836078 39.1668901,181.624862 C40.6535106,179.968908 41.4069539,177.832876 41.2871596,175.610826 C41.1673652,173.388326 40.1896454,171.345968 38.5336915,169.859348 L38.5336915,169.859348 C35.5433369,167.173883 31.0677128,167.003649 27.8931631,169.453128 C27.1194539,170.050748 26.048961,170.080472 25.243727,169.527436 C23.8237589,168.55377 22.1880709,168.079996 20.5613901,168.079996 Z" id="Shape"></path>
                    <path d="M177.307312,208.027351 C176.723202,208.027351 176.147649,207.799922 175.716209,207.369383 C175.048784,206.702858 174.86684,205.690461 175.261801,204.833436 L181.849589,190.529273 C181.425355,190.16989 181.022738,189.780784 180.64444,189.364656 C178.337273,186.828709 177.156443,183.546074 177.318121,180.121578 C177.480248,176.697082 178.966869,173.541447 181.503266,171.23428 C185.320472,167.762046 190.86884,166.955911 195.477319,169.059518 C200.71089,165.525135 207.749933,166.290738 212.11522,171.090617 C216.076989,175.446447 216.518787,181.923447 213.369457,186.74044 C215.69734,191.761443 214.539479,197.8025 210.35028,201.6125 C207.813883,203.919216 204.534401,205.099145 201.107202,204.938369 C197.875457,204.785248 194.882851,203.452649 192.616667,201.171603 L178.252156,207.819738 C177.949968,207.959348 177.627064,208.027351 177.307312,208.027351 Z M190.149174,172.405652 C188.120326,172.405652 186.102287,173.13928 184.533702,174.566004 C182.887206,176.063433 181.922096,178.112096 181.817163,180.335046 C181.71178,182.557996 182.478734,184.688624 183.976613,186.335121 C184.524245,186.937695 185.147085,187.449748 185.827121,187.857319 C186.812947,188.448184 187.196199,189.68666 186.71522,190.731032 L181.909936,201.164397 L192.26494,196.371723 C193.234553,195.92227 194.388812,196.218152 195.023362,197.079681 C195.183688,197.297202 195.361578,197.513823 195.551628,197.723238 C197.049057,199.369284 199.09772,200.334394 201.32067,200.439326 C203.546773,200.548312 205.674699,199.778206 207.320745,198.280326 L207.320745,198.280326 C210.294436,195.575947 210.915926,191.140855 208.798809,187.735273 C208.282702,186.90527 208.361064,185.837479 208.992461,185.091691 C211.677475,181.919394 211.587855,177.20283 208.783947,174.120603 C205.717032,170.749248 200.615415,170.443457 197.170202,173.427057 C196.425316,174.072415 195.348518,174.158433 194.511309,173.640074 C193.171954,172.811422 191.657411,172.405652 190.149174,172.405652 Z" id="Shape"></path>
                    <g id="Group" opacity="0.5" transform="translate(145.914894, 110.336879)">
                        <g id="Path">
                            <path d="M14.6212128,8.48332979 C14.0452092,8.48332979 13.468305,8.26355674 13.0287589,7.82356028 C12.1496667,6.94446809 12.1496667,5.51864539 13.0292092,4.63910284 L16.6401525,1.02860993 C17.519695,0.149968085 18.9450674,0.14951773 19.8246099,1.02906028 C20.7037021,1.90815248 20.7037021,3.33397518 19.8241596,4.21351773 L16.2132163,7.82401064 C15.7732199,8.26355674 15.1972163,8.48332979 14.6212128,8.48332979 Z"></path>
                            <path d="M2.29860993,20.7973759 C1.72260638,20.7973759 1.14570213,20.5776028 0.706606383,20.1376064 C-0.17293617,19.2585142 -0.17293617,17.8326915 0.706606383,16.9535993 L4.31709929,13.3431064 C5.19574113,12.4635638 6.62246454,12.4635638 7.50110638,13.3431064 C8.38064894,14.2221986 8.38064894,15.6480213 7.50110638,16.5271135 L3.89061348,20.1376064 C3.45106738,20.5771525 2.87461348,20.7973759 2.29860993,20.7973759 Z"></path>
                        </g>
                        <g id="Path">
                            <path d="M18.2272021,20.8018794 C17.6511986,20.8018794 17.0742943,20.5821064 16.6347482,20.1421099 L13.0242553,16.5311667 C12.1451631,15.6520745 12.1451631,14.2262518 13.0247057,13.3467092 C13.9042482,12.4680674 15.3296206,12.467617 16.2091631,13.3471596 L19.819656,16.9581028 C20.6987482,17.837195 20.6987482,19.2630177 19.8192057,20.1425603 C19.3792092,20.5821064 18.8032057,20.8018794 18.2272021,20.8018794 Z"></path>
                            <path d="M5.91315603,8.47882624 C5.33715248,8.47882624 4.76024823,8.25905319 4.32070213,7.81905674 L0.71020922,4.20811348 C-0.168882979,3.32902128 -0.168882979,1.90319858 0.710659574,1.02365603 C1.59020213,0.145014184 3.01557447,0.14456383 3.89511702,1.02410638 L7.50560993,4.63504965 C8.38470213,5.51414184 8.38470213,6.93996454 7.50515957,7.81950709 C7.06516312,8.25905319 6.48915957,8.47882624 5.91315603,8.47882624 Z"></path>
                        </g>
                    </g>
                </g>
            </g>
        </g>
    </g>
</svg>