<?xml version="1.0" encoding="UTF-8"?>
<svg width="221px" height="220px" viewBox="0 0 221 220" version="1.1" xmlns="http://www.w3.org/2000/svg" xmlns:xlink="http://www.w3.org/1999/xlink">
    <title>5664542_cash_finance_flow_tranfer_icon (1)</title>
    <g id="Style-guide" stroke="none" stroke-width="1" fill="none" fill-rule="evenodd">
        <g id="Styleguide" transform="translate(-397.000000, -13373.000000)" fill-rule="nonzero">
            <g id="5664542_cash_finance_flow_tranfer_icon-(1)" transform="translate(397.000000, 13373.000000)">
                <g id="Colors" transform="translate(2.251773, 15.762411)">
                    <g id="Group" opacity="0.5" transform="translate(125.198582, 151.319149)" fill="#3F456B">
                        <path d="M2.64358156,38.7305065 C1.48672617,38.7316591 0.517208309,37.8560239 0.400945781,36.7050248 C0.284683252,35.5540258 1.05950751,34.5021944 2.19322695,34.2719858 L2.62106383,34.1819149 C3.40865076,34.0161918 4.2248233,34.28323 4.76213717,34.8824387 C5.29945104,35.4816475 5.47627548,36.3219927 5.22600242,37.0869245 C4.97572937,37.8518564 4.33638125,38.4251634 3.54879433,38.5908865 L3.09843972,38.685461 C2.94874036,38.7158622 2.79633602,38.7309518 2.64358156,38.7305065 L2.64358156,38.7305065 Z M11.7992908,36.3886529 C10.6843861,36.3893593 9.73681949,35.5740972 9.57110325,34.4715769 C9.40538701,33.3690566 10.0714202,32.3112596 11.1372695,31.9841844 L11.5515957,31.8535816 C12.7380091,31.4804958 14.002233,32.1398279 14.3753189,33.3262412 C14.7484048,34.5126545 14.0890728,35.7768785 12.9026596,36.1499645 L12.452305,36.2850709 C12.2413,36.3531606 12.021009,36.3881033 11.7992908,36.3886529 L11.7992908,36.3886529 Z M20.6802837,33.1551093 C19.6052054,33.156838 18.6788543,32.398349 18.4684353,31.3440624 C18.2580163,30.2897758 18.8222278,29.2337941 19.8156028,28.822695 L20.2254255,28.6515603 C20.9655481,28.3362037 21.8176902,28.4396529 22.4608583,28.9229396 C23.1040264,29.4062262 23.4405078,30.1959276 23.3435533,30.9945708 C23.2465989,31.793214 22.7309381,32.4794661 21.9908156,32.7948227 L21.5719858,32.970461 C21.2904286,33.0920952 20.9869909,33.1549283 20.6802837,33.1551093 L20.6802837,33.1551093 Z M29.1964894,29.0523936 C28.1665093,29.0537571 27.2668839,28.3561144 27.0118292,27.3582127 C26.7567744,26.3603109 27.2113141,25.3165557 28.1156383,24.8235461 L28.5029433,24.6118794 C29.5892919,24.0384246 30.9347913,24.4414638 31.5269763,25.5177169 C32.1191612,26.59397 31.7394872,27.9462485 30.6736525,28.5569858 L30.2728369,28.7776596 C29.9432755,28.9593281 29.5728029,29.0538839 29.1964894,29.0523936 L29.1964894,29.0523936 Z M37.2578369,24.1254965 C36.2707506,24.1238499 35.3998077,23.4795221 35.1094466,22.5361068 C34.8190854,21.5926914 35.1770046,20.5701487 35.9923404,20.0137589 L36.3526241,19.7660638 C37.3749935,19.1123723 38.731479,19.3863926 39.4199334,20.3856836 C40.1083878,21.3849746 39.8811657,22.750079 38.9061348,23.4724823 L38.5233333,23.7336879 C38.1503312,23.9882294 37.7094134,24.1247413 37.2578369,24.1254965 L37.2578369,24.1254965 Z M44.7922695,18.4195051 C43.8451777,18.4206024 42.998627,17.8289598 42.6741558,16.9391832 C42.3496846,16.0494065 42.6166542,15.051701 43.3421277,14.4428723 L43.6798936,14.1591489 C44.6287756,13.354527 46.0502714,13.4714728 46.8548935,14.4203547 C47.6595155,15.3692367 47.5425698,16.7907325 46.5936879,17.5953546 L46.2379078,17.8925887 C45.8328465,18.2325235 45.3210702,18.4190588 44.7922695,18.4195051 Z M51.723227,11.992981 C50.816933,11.9946689 49.9979304,11.4528931 49.6449618,10.6181567 C49.2919931,9.78342023 49.4738579,8.81842729 50.1064539,8.16943262 L50.4171986,7.84968085 C51.2877325,6.95551824 52.7183018,6.93636338 53.6124644,7.80689728 C54.5066271,8.67743118 54.5257821,10.1080004 53.6552482,11.0021631 L53.3354965,11.3264184 C52.9094716,11.7562155 52.3283802,11.9964432 51.723227,11.992981 L51.723227,11.992981 Z M57.983156,4.90886525 C57.4723197,4.91140795 56.9761697,4.73807348 56.5780496,4.41797872 C55.6151088,3.64192052 55.4582804,2.23448581 56.226773,1.26549645 L56.5014894,0.92322695 C57.0010721,0.292513825 57.799187,-0.023764929 58.5951919,0.0935298333 C59.3911969,0.210824596 60.0641598,0.74387301 60.360582,1.4918809 C60.6570042,2.23988878 60.5318522,3.08921595 60.0322695,3.71992908 L59.7440426,4.08021277 C59.3129094,4.60890924 58.6653384,4.91364853 57.983156,4.90886525 L57.983156,4.90886525 Z" id="Shape"></path>
                    </g>
                    <g id="Group" opacity="0.5" transform="translate(32.875887, 0.000000)" fill="#3F456B">
                        <path d="M2.27429078,35.8482271 C1.40264836,35.848498 0.609138781,35.3456947 0.237160847,34.5574098 C-0.134817088,33.769125 -0.0184426623,32.8369632 0.535921986,32.1643262 L0.828652482,31.8130496 C1.32071608,31.1333385 2.14990987,30.7836203 2.98011541,30.9056553 C3.81032094,31.0276903 4.50380137,31.6012319 4.77945043,32.3937919 C5.0550995,33.1863519 4.86718511,34.0664391 4.29187943,34.677305 L4.01265957,35.0150709 C3.58738206,35.5393212 2.94933865,35.8451192 2.27429078,35.8482271 L2.27429078,35.8482271 Z M8.63780142,28.8587234 C7.72743272,28.8567115 6.90783658,28.3067311 6.56091563,27.4650536 C6.21399468,26.6233761 6.40800836,25.6556081 7.05255319,25.012695 L7.37680851,24.6884397 C7.93844131,24.0716013 8.79507366,23.815809 9.6029731,24.0237022 C10.4108725,24.2315954 11.0376359,24.8691033 11.2317681,25.6804193 C11.4259002,26.4917354 11.1555856,27.3438966 10.5292908,27.8949645 L10.2185461,28.2057092 C9.79801987,28.622804 9.23009247,28.8574179 8.63780142,28.8587234 L8.63780142,28.8587234 Z M15.6678369,22.5537596 C14.7157111,22.5545347 13.8660021,21.9563825 13.5455754,21.0597941 C13.2251486,20.1632057 13.5032669,19.1619856 14.2402128,18.5591135 L14.6004965,18.266383 C15.5697808,17.4949373 16.9801647,17.6513201 17.7569078,18.6163645 C18.5336508,19.5814089 18.3849954,20.9926282 17.4242199,21.7746454 L17.0864539,22.0493617 C16.6806583,22.3623694 16.18023,22.5275902 15.6678369,22.5177305 L15.6678369,22.5537596 Z M23.2833333,16.9423461 C22.2886515,16.9445679 21.4103465,16.2939017 21.1227166,15.3417116 C20.8350866,14.3895215 21.2062819,13.3614163 22.0358511,12.8125887 L22.4276596,12.5558865 C23.4698131,11.8768701 24.865097,12.1712508 25.5441135,13.2134043 C26.2231299,14.2555577 25.9287492,15.6508417 24.8865957,16.3298582 L24.5218085,16.5685461 C24.1544316,16.8115998 23.7238334,16.9415621 23.2833333,16.9423461 Z M31.4167376,12.1325532 C30.3792195,12.1349601 29.4743515,11.4281498 29.2254812,10.4209194 C28.9766109,9.41368891 29.448165,8.36678701 30.3674113,7.88570922 L30.7727305,7.67404255 C31.8758214,7.09327205 33.2408607,7.51669637 33.8216312,8.61978723 C34.4024017,9.7228781 33.9789774,11.0879174 32.8758865,11.6686879 L32.4885816,11.8713475 C32.158486,12.0459446 31.7901506,12.135707 31.4167376,12.1325532 Z M39.9734752,8.16043899 C38.8931347,8.16413598 37.9623996,7.40005856 37.7556054,6.33968816 C37.5488111,5.27931775 38.1242403,4.22150705 39.1268085,3.81900709 L39.5771631,3.64787234 C40.3260563,3.34291941 41.180962,3.46292111 41.8169568,3.96226849 C42.4529517,4.46161587 42.7723772,5.263633 42.6538297,6.06349782 C42.5352821,6.86336264 41.9969646,7.53825409 41.2434752,7.83166667 L40.838156,7.99379433 C40.5693148,8.10339991 40.2818147,8.15998239 39.9914894,8.16043899 L39.9734752,8.16043899 Z M48.895,5.05748227 C47.7744043,5.05748227 46.8243346,4.23349117 46.6658584,3.12415802 C46.5073822,2.01482487 47.1887317,0.95777389 48.2645035,0.644007092 L48.7148582,0.513404255 C49.4879644,0.285736091 50.3238036,0.487809331 50.9075232,1.04350494 C51.4912427,1.59920055 51.7341617,2.42409514 51.5447749,3.20745889 C51.3553882,3.99082263 50.762468,4.61364395 49.9893617,4.84131206 L49.5390071,4.95390071 C49.3363926,5.01828056 49.1255672,5.05316534 48.9130142,5.05748227 L48.895,5.05748227 Z" id="Shape"></path>
                    </g>
                    <rect id="Rectangle" fill="#6EBAB1" transform="translate(108.354999, 94.269535) rotate(-89.910000) translate(-108.354999, -94.269535) " x="50.8447154" y="-13.8313336" width="115.020567" height="216.201738"></rect>
                    <g id="Group" opacity="0.3" transform="translate(190.500000, 125.198582)" fill="#FFFFFF">
                        <circle id="Oval" cx="9.22326241" cy="8.98007092" r="8.78191489"></circle>
                    </g>
                    <g id="Group" opacity="0.3" transform="translate(190.950355, 44.585106)" fill="#FFFFFF">
                        <circle id="Oval" cx="8.89450355" cy="8.96656028" r="8.78191489"></circle>
                    </g>
                    <g id="Group" opacity="0.3" transform="translate(7.656028, 124.748227)" fill="#FFFFFF">
                        <circle id="Oval" cx="9.19624113" cy="9.15570922" r="8.78191489"></circle>
                    </g>
                    <g id="Group" opacity="0.3" transform="translate(8.106383, 44.134752)" fill="#FFFFFF">
                        <circle id="Oval" cx="8.86748227" cy="9.14219858" r="8.78191489"></circle>
                    </g>
                    <g id="Group" opacity="0.5" transform="translate(14.411348, 50.890071)" fill="#FFFFFF">
                        <path d="M187.658262,22.2610284 L187.590709,65.0447163 C175.531108,65.034761 165.745411,74.8002976 165.730496,86.8598936 L22.0673759,86.648227 C22.0757428,80.8541195 19.7820637,75.2940004 15.6909231,71.1910357 C11.5997824,67.0880709 6.04630609,64.7783549 0.252198582,64.77 L0.315248227,21.9863121 C12.3695732,21.9863185 22.1450197,12.2209497 22.1574468,0.166631206 L165.843085,0.382801418 C165.834718,6.17690891 168.128397,11.7370279 172.219538,15.8399927 C176.310679,19.9429575 181.864155,22.2526735 187.658262,22.2610284 Z" id="Path"></path>
                    </g>
                    <g id="Group" opacity="0.5" transform="translate(74.308511, 60.347518)" fill="#FFFFFF">
                        <circle id="Oval" cx="34.0378014" cy="34.0558156" r="33.7810993"></circle>
                    </g>
                    <g id="Group" opacity="0.15" transform="translate(105.382979, 99.528369)" fill="#3F456B">
                        <path d="M34.7178369,0.148612943 C22.2817624,0.142595018 10.7977346,6.80659706 4.63232589,17.6067693 C-1.53308279,28.4069416 -1.43268133,41.6840549 4.89535461,52.3897518 C24.7965248,54.2992553 44.697695,52.5113475 64.5988652,52.2861702 C70.8700182,41.5791999 70.931195,28.3347624 64.7592197,17.5703166 C58.5872444,6.80587075 47.1261632,0.167912807 34.7178369,0.171134752 L34.7178369,0.148612943 Z" id="Path"></path>
                    </g>
                    <path d="M166.180851,134.304752 C166.180851,153.429139 150.677472,168.932518 131.553085,168.932518 C112.428698,168.932518 96.9253191,153.429139 96.9253191,134.304752 C96.9253191,115.180365 112.428698,99.6769858 131.553085,99.6769858 C150.676442,99.6794724 166.178364,115.181395 166.180851,134.304752 Z" id="Path" fill="#FFBC5A"></path>
                    <g id="Group" opacity="0.15" transform="translate(96.826241, 132.854610)" fill="#3F456B">
                        <path d="M69.1474468,0.193652482 C69.3681206,19.7525532 54.0965957,35.7716667 35.0330851,35.996844 C15.9695745,36.2220213 0.333262411,20.5406738 0.108085106,0.986276596 C0.108085106,0.986276596 6.7598227,29.9350709 35.4474113,28.9082624 C63.5,27.9219858 69.1474468,0.193652482 69.1474468,0.193652482 Z" id="Path"></path>
                    </g>
                    <g id="Group" opacity="0.3" transform="translate(97.276596, 99.528369)" fill="#FFFFFF">
                        <path d="M0.0630496454,35.9428014 C-0.16212766,16.3884043 15.1139007,0.364787234 34.1774113,0.139609929 C53.240922,-0.0855673759 68.877234,15.6002837 69.0979078,35.1546809 C69.0979078,35.1546809 62.4461702,6.20588652 33.7630851,7.23269504 C5.71049645,8.21446809 0.0630496454,35.9428014 0.0630496454,35.9428014 Z" id="Path"></path>
                    </g>
                    <g id="Group" opacity="0.3" transform="translate(96.826241, 99.528369)" fill="#FFFFFF">
                        <path d="M10.2320567,59.2621631 C-3.29106588,45.7390401 -3.29106572,23.813726 10.2320571,10.2906032 C23.7551799,-3.23251962 45.680494,-3.23251978 59.203617,10.2906028" id="Path"></path>
                    </g>
                </g>
                <g id="Lines" fill="#3F456B">
                    <path d="M109.084894,127.734078 L108.846206,127.734078 C102.135922,127.022518 98.037695,123.289078 97.8755674,117.745213 C97.8407461,116.501593 98.8206709,115.465212 100.064291,115.43039 C101.307911,115.395569 102.344292,116.375494 102.379113,117.619113 C102.491702,121.672305 106.216135,122.928794 109.319078,123.257553 C110.562698,123.322221 111.518427,124.382799 111.453759,125.626418 C111.389091,126.870038 110.328513,127.825767 109.084894,127.761099 L109.084894,127.734078 Z" id="Path"></path>
                    <path d="M121.041809,120.114078 C119.798189,120.114078 118.790035,119.105925 118.790035,117.862305 C118.790319,117.624397 118.775277,117.386718 118.745,117.150745 C118.533333,115.538475 117.668652,113.935213 112.795816,113.133582 L111.444752,112.926418 C107.535674,112.327447 103.104184,111.656418 100.095816,107.382553 C98.8984502,105.718858 98.4390971,103.63548 98.8258156,101.622518 C99.4170089,98.9018484 101.053883,96.5225579 103.383404,94.9978014 C106.74305,92.7235106 111.890603,92.3857447 116.191489,94.1556383 C119.306409,95.4143089 121.775755,97.8852809 123.032376,101.001028 C123.48381,102.160082 122.910171,103.46564 121.751117,103.917074 C120.592063,104.368508 119.286505,103.794869 118.835071,102.635816 C118.018486,100.671809 116.448019,99.1175654 114.475638,98.3214184 C111.561844,97.1189716 108.035567,97.2856028 105.918901,98.7267376 C104.599561,99.5832 103.653439,100.907448 103.270816,102.433156 C103.103281,103.257611 103.291336,104.114487 103.788723,104.793014 C105.693723,107.495142 108.535461,107.922979 112.138298,108.472411 C112.588652,108.544468 113.061525,108.612021 113.520887,108.688582 C115.70961,109.048865 122.374858,110.14773 123.203511,116.574291 C123.260706,117.001242 123.289079,117.43154 123.289079,117.862305 C123.289079,119.104168 122.283669,120.111594 121.041809,120.114078 Z" id="Path"></path>
                    <path d="M111.070957,97.5558156 L111.070957,97.5558156 C109.827338,97.5558156 108.819184,96.5476625 108.819184,95.3040426 L108.819184,88.0983688 C108.819184,86.8547489 109.827338,85.8465957 111.070957,85.8465957 L111.070957,85.8465957 C112.314577,85.8465957 113.32273,86.8547489 113.32273,88.0983688 L113.32273,95.3040426 C113.32273,96.5476625 112.314577,97.5558156 111.070957,97.5558156 Z" id="Path"></path>
                    <path d="M182.393617,155.768652 L182.393617,155.768652 L168.432624,155.746135 C167.189004,155.746135 166.180851,154.737982 166.180851,153.494362 C166.180851,152.250742 167.189004,151.242589 168.432624,151.242589 L168.432624,151.242589 L180.236418,151.242589 C181.334488,139.71331 190.478649,130.595626 202.011064,129.530993 L202.06961,91.0391844 C190.548448,89.9239297 181.439856,80.788886 180.358014,69.264539 L40.9822695,69.0753901 C39.8670532,80.5940755 30.7339992,89.7006788 19.2121277,90.7824823 L19.1535816,129.278794 C30.6730772,130.392297 39.7805863,139.526259 40.8606738,151.048936 L98.9879433,151.139007 C100.231563,151.139007 101.239716,152.14716 101.239716,153.39078 C101.239716,154.6344 100.231563,155.642553 98.9879433,155.642553 L98.9879433,155.642553 L38.7169858,155.552482 C37.4733659,155.552482 36.4652128,154.544329 36.4652128,153.300709 C36.4677305,142.483851 27.7141285,133.706074 16.897305,133.678759 C15.653685,133.678759 14.6455319,132.670606 14.6455319,131.426986 L14.7085816,88.6432979 C14.7085816,87.399678 15.7167347,86.3915248 16.9603546,86.3915248 L16.996383,86.3915248 C27.8012298,86.3816269 36.5619971,77.6329434 36.5868085,66.8281206 C36.5868085,65.5845007 37.5949616,64.5763475 38.8385816,64.5763475 L38.8385816,64.5763475 L182.52422,64.7925177 C183.76784,64.7925177 184.775993,65.8006709 184.775993,67.0442908 C184.770985,77.8611529 193.522575,86.6409473 204.339397,86.6707447 C205.583017,86.6707447 206.59117,87.6788978 206.59117,88.9225177 L206.523617,131.706206 C206.523617,132.949826 205.515464,133.957979 204.271844,133.957979 L204.240319,133.957979 C193.432393,133.95796 184.665262,142.708972 184.64539,153.516879 C184.64539,154.760499 183.637237,155.768652 182.393617,155.768652 L182.393617,155.768652 Z" id="Path"></path>
                    <path d="M99.5869149,144.365674 C99.3372794,144.364834 99.08941,144.323776 98.8528369,144.244078 C82.1788268,138.530478 72.0864933,121.592079 74.9986372,104.208545 C77.9107811,86.8250108 92.9723429,74.1004708 110.598085,74.1328106 L110.652128,74.1328106 C121.437401,74.1665626 131.641814,79.024315 138.468071,87.3744924 C145.294328,95.7246699 148.026231,106.691188 145.914894,117.267837 C145.66617,118.487828 144.475541,119.275196 143.25555,119.026472 C142.035559,118.777748 141.248191,117.587119 141.496915,116.367128 C143.361739,107.107511 140.976342,97.4996212 134.997164,90.1874731 C129.017987,82.8753251 120.075135,78.6294959 110.62961,78.6184043 L110.580071,78.6184043 C95.1575465,78.5900529 81.9786799,89.7240254 79.430554,104.934618 C76.8824281,120.14521 85.7132199,134.966309 100.302979,139.965709 C101.345104,140.322809 101.975875,141.381459 101.793866,142.46793 C101.611857,143.554401 100.67051,144.349685 99.5689007,144.34766 L99.5869149,144.365674 Z" id="Path"></path>
                    <path d="M201.975035,160.974752 L201.975035,160.974752 C195.881298,160.974752 190.941348,156.034801 190.941348,149.941064 C190.941348,143.847326 195.881298,138.907376 201.975035,138.907376 L201.975035,138.907376 C208.068773,138.907376 213.008723,143.847326 213.008723,149.941064 C213.008723,156.034801 208.068773,160.974752 201.975035,160.974752 L201.975035,160.974752 Z M201.975035,143.410922 C198.368538,143.410922 195.444894,146.334566 195.444894,149.941064 C195.444894,153.547562 198.368538,156.47122 201.975035,156.47122 L201.975035,156.47122 C205.575542,156.478682 208.501768,153.568578 208.514198,149.968085 L208.514198,149.968085 C208.517771,148.235819 207.832453,146.573207 206.609243,145.346619 C205.386034,144.12003 203.725319,143.430128 201.99305,143.428936 L201.975035,143.410922 Z" id="Shape"></path>
                    <path d="M202.096631,80.347766 L202.096631,80.347766 C196.002894,80.347766 191.062943,75.4078156 191.062943,69.314078 C191.062943,63.2203404 196.002894,58.2803901 202.096631,58.2803901 L202.096631,58.2803901 C205.028876,58.2839674 207.839404,59.4531561 209.909011,61.5303659 C211.978618,63.6075757 213.137494,66.4223714 213.130352,69.3546099 L213.130352,69.3546099 C213.103064,75.4304544 208.172535,80.3428712 202.096631,80.347766 L202.096631,80.347766 Z M202.096631,62.7839362 C198.490133,62.7839362 195.566489,65.7075803 195.566489,69.314078 C195.566489,72.9205758 198.490133,75.8442199 202.096631,75.8442199 L202.096631,75.8442199 C205.703129,75.8442199 208.626773,72.9205758 208.626773,69.314078 C208.626773,65.7075803 205.703129,62.7839362 202.096631,62.7839362 Z" id="Shape"></path>
                    <path d="M19.1040426,160.700035 L19.1040426,160.700035 C13.0103051,160.700035 8.07035507,155.760085 8.07035507,149.666348 C8.07035507,143.57261 13.0103051,138.63266 19.1040426,138.63266 L19.1040426,138.63266 C25.1946852,138.65004 30.1222241,143.593695 30.1197173,149.684362 L30.1197173,149.684362 C30.1048626,155.761987 25.1816679,160.685182 19.1040426,160.700035 Z M19.1040426,143.136206 C15.4975448,143.136206 12.5739007,146.05985 12.5739007,149.666348 C12.5739007,153.272845 15.4975448,156.196489 19.1040426,156.196489 L19.1040426,156.196489 C22.7105403,156.196489 25.6341844,153.272845 25.6341844,149.666348 C25.6341844,146.05985 22.7105403,143.136206 19.1040426,143.136206 Z" id="Shape"></path>
                    <path d="M19.2256383,80.0775532 L19.2256383,80.0775532 C13.2546309,79.9069356 8.5027272,75.0173098 8.5027272,69.0438652 C8.5027272,63.0704207 13.2546309,58.1807949 19.2256383,58.0101773 L19.2256383,58.0101773 C25.1966457,58.1807949 29.9485494,63.0704207 29.9485494,69.0438652 C29.9485494,75.0173098 25.1966457,79.9069356 19.2256383,80.0775532 L19.2256383,80.0775532 Z M19.2256383,62.5137234 C15.7134647,62.6441847 12.9335581,65.5292694 12.9335581,69.0438652 C12.9335581,72.5584611 15.7134647,75.4435458 19.2256383,75.5740086 L19.2256383,75.5740086 C20.9563453,75.5752019 22.6166417,74.8888269 23.8412809,73.6658768 C25.0659201,72.4429267 25.7545861,70.7835794 25.755805,69.0528723 L25.755805,69.0528723 C25.7605647,67.3198265 25.0757751,65.6560568 23.8524359,64.4284934 C22.6290967,63.2009299 20.9676974,62.5104093 19.2346454,62.5092199 L19.2256383,62.5137234 Z" id="Shape"></path>
                    <path d="M76.8169858,112.367979 L76.8169858,112.367979 L38.9871986,112.309433 C37.7435787,112.309433 36.7354255,111.301279 36.7354255,110.05766 C36.7354255,108.81404 37.7435787,107.805887 38.9871986,107.805887 L38.9871986,107.805887 L76.8169858,107.864433 C78.0606057,107.864433 79.0687587,108.872586 79.0687587,110.116206 C79.0687587,111.359826 78.0606057,112.367979 76.8169858,112.367979 L76.8169858,112.367979 Z" id="Path"></path>
                    <path d="M79.5416312,97.5062766 L79.5416312,97.5062766 L46.6657447,97.4567376 C45.4221248,97.4567376 44.4139716,96.4485845 44.4139716,95.2049645 C44.4139716,93.9613446 45.4221248,92.9531915 46.6657447,92.9531915 L46.6657447,92.9531915 L79.5416312,93.0027305 C80.7852511,93.0027305 81.7934043,94.0108836 81.7934043,95.2545035 C81.7934043,96.4981235 80.7852511,97.5062766 79.5416312,97.5062766 L79.5416312,97.5062766 Z" id="Path"></path>
                    <path d="M79.4965957,126.78383 L79.4965957,126.78383 L46.6207092,126.734291 C45.3770893,126.734291 44.3689362,125.726138 44.3689362,124.482518 C44.3689362,123.238898 45.3770893,122.230745 46.6207092,122.230745 L46.6207092,122.230745 L79.4965957,122.280284 C80.7402157,122.280284 81.7483688,123.288437 81.7483688,124.532057 C81.7483688,125.775677 80.7402157,126.78383 79.4965957,126.78383 Z" id="Path"></path>
                    <path d="M182.668333,112.075248 L182.668333,112.075248 L144.838546,112.021206 C143.594926,112.021206 142.586773,111.013053 142.586773,109.769433 C142.586773,108.525813 143.594926,107.51766 144.838546,107.51766 L144.838546,107.51766 L182.668333,107.571702 C183.911953,107.571702 184.920106,108.579855 184.920106,109.823475 C184.920106,111.067095 183.911953,112.075248 182.668333,112.075248 Z" id="Path"></path>
                    <path d="M174.989787,126.927943 L174.989787,126.927943 L157.624113,126.878404 C156.380494,126.878404 155.37234,125.870251 155.37234,124.626631 C155.37234,123.383011 156.380494,122.374858 157.624113,122.374858 L157.624113,122.374858 L174.989787,122.424397 C176.233407,122.424397 177.24156,123.43255 177.24156,124.67617 C177.24156,125.91979 176.233407,126.927943 174.989787,126.927943 L174.989787,126.927943 Z" id="Path"></path>
                    <path d="M175.030319,97.6503901 L175.030319,97.6503901 L142.154433,97.6008511 C140.910813,97.6008511 139.90266,96.5926979 139.90266,95.349078 C139.90266,94.1054581 140.910813,93.097305 142.154433,93.097305 L142.154433,93.097305 L175.030319,93.146844 C176.273939,93.146844 177.282092,94.1549971 177.282092,95.398617 C177.282092,96.6422369 176.273939,97.6503901 175.030319,97.6503901 L175.030319,97.6503901 Z" id="Path"></path>
                    <path d="M218.421986,169.783688 L163.825496,169.783688 C162.581877,169.783688 161.573723,168.775535 161.573723,167.531915 C161.573723,166.288295 162.581877,165.280142 163.825496,165.280142 L216.170213,165.280142 L216.170213,54.4929078 L4.5035461,54.4929078 L4.5035461,165.280142 L103.505,165.280142 C104.74862,165.280142 105.756773,166.288295 105.756773,167.531915 C105.756773,168.775535 104.74862,169.783688 103.505,169.783688 L2.25177305,169.783688 C1.00815313,169.783688 7.99990492e-16,168.775535 7.99990492e-16,167.531915 L7.99990492e-16,52.2411348 C7.99990492e-16,50.9975148 1.00815313,49.9893617 2.25177305,49.9893617 L218.421986,49.9893617 C219.665606,49.9893617 220.673759,50.9975148 220.673759,52.2411348 L220.673759,167.531915 C220.673759,168.775535 219.665606,169.783688 218.421986,169.783688 L218.421986,169.783688 Z" id="Path"></path>
                    <path d="M111.260106,219.953194 C110.368381,219.95254 109.561045,219.425731 109.201325,218.60978 C108.841604,217.793829 108.997274,216.842469 109.598298,216.183723 L119.59617,205.213085 L108.670567,195.368333 C107.746558,194.535108 107.672963,193.110588 108.506188,192.186578 C109.339413,191.262569 110.763934,191.188973 111.687943,192.022199 L124.297872,203.384645 C124.742303,203.786388 125.008319,204.348674 125.037056,204.94708 C125.065793,205.545486 124.854882,206.130675 124.450993,206.573156 L112.930922,219.21461 C112.503346,219.685805 111.896381,219.954113 111.260106,219.953194 Z" id="Path"></path>
                    <path d="M111.40422,28.9623087 C110.84244,28.9618549 110.301118,28.7514299 109.886525,28.3723404 L97.2765957,17.0189007 C96.8315316,16.6177794 96.5646787,16.0558243 96.5350958,15.4574054 C96.505513,14.8589864 96.7156397,14.2734519 97.1189716,13.8303901 L108.643546,1.18893617 C109.177394,0.56515068 110.008442,0.28136971 110.812318,0.448357607 C111.616194,0.615345504 112.265466,1.20663084 112.506712,1.9914253 C112.747958,2.77621976 112.542935,3.63011536 111.971667,4.2198227 L101.973794,15.190461 L112.899397,25.0352128 C113.59395,25.6589808 113.83159,26.6466268 113.496805,27.5180674 C113.16202,28.3895079 112.324244,28.9640061 111.390709,28.9623087 L111.40422,28.9623087 Z" id="Path"></path>
                    <path d="M110.944858,207.757635 C80.2957139,207.758384 51.426065,193.362751 32.9839716,168.882979 C32.2377997,167.888083 32.4394303,166.476668 33.4343262,165.730496 C34.4292222,164.984325 35.8406366,165.185955 36.5868085,166.180851 C56.4510413,192.552714 88.7959205,206.43243 121.595745,202.659574 C122.831903,202.517802 123.948936,203.404977 124.090709,204.641135 C124.232482,205.877293 123.345307,206.994327 122.109149,207.136099 C118.402424,207.553718 114.675033,207.761213 110.944858,207.757635 Z" id="Path"></path>
                    <path d="M186.852128,54.4930712 C186.143366,54.4930712 185.475966,54.1592082 185.050709,53.5921986 C165.140598,27.4871841 132.953442,13.7978033 100.339007,17.5638298 C99.5393529,17.6555406 98.7515149,17.3136746 98.2722639,16.6670092 C97.7930129,16.0203438 97.6951586,15.167123 98.0155617,14.4287467 C98.3359649,13.6903705 99.0259487,13.1790158 99.8256028,13.087305 C134.02546,9.14352089 167.773635,23.5080149 188.640035,50.8900709 C189.392157,51.8779057 189.202783,53.2881342 188.216702,54.0425532 C187.824666,54.3404009 187.344439,54.4988916 186.852128,54.4930712 L186.852128,54.4930712 Z" id="Path"></path>
                    <path d="M133.800355,167.396809 C126.216383,167.396809 121.22195,163.582305 121.046312,157.61961 C121.009004,156.37599 121.986912,155.337592 123.230532,155.300284 C124.474152,155.262975 125.512549,156.240884 125.549858,157.484504 C125.698475,162.465426 131.539574,162.920284 134.043546,162.888759 C136.547518,162.857234 138.871348,161.897979 140.127837,160.45234 C140.950844,159.517869 141.308265,158.261933 141.100603,157.034149 C140.870922,155.28227 139.821596,153.971738 135.448652,153.255674 L134.174149,153.062021 C130.395674,152.490071 126.117305,151.846064 123.199007,147.716312 C122.032844,146.098802 121.583351,144.072826 121.956028,142.113901 C122.526105,139.475253 124.109342,137.165893 126.365,135.682837 C129.612057,133.480603 134.592979,133.142837 138.749752,134.849681 C141.768559,136.061182 144.16377,138.449889 145.383475,141.46539 C145.702429,142.21986 145.586525,143.088024 145.080818,143.732397 C144.575111,144.376771 143.759377,144.695705 142.950717,144.565219 C142.142057,144.434733 141.468039,143.875412 141.190674,143.104681 C140.412588,141.240411 138.91805,139.766969 137.042908,139.015461 C134.26422,137.876064 130.913582,138.038191 128.891489,139.411773 C127.642976,140.222218 126.748179,141.475899 126.387518,142.920035 C126.234104,143.688407 126.410595,144.485882 126.873901,145.117766 C128.598759,147.554184 131.02617,148.03156 134.845177,148.608014 C135.295532,148.675567 135.745887,148.738617 136.173723,148.810674 C138.294894,149.157447 144.730461,150.211277 145.563617,156.466702 C145.938029,158.968776 145.19552,161.509111 143.532518,163.415674 C141.411348,165.865603 137.885071,167.356277 134.102092,167.405816 L133.800355,167.396809 Z" id="Path"></path>
                    <path d="M133.755319,138.258865 C132.511699,138.258865 131.503546,137.250712 131.503546,136.007092 L131.503546,129.251773 C131.503546,128.008153 132.511699,127 133.755319,127 C134.998939,127 136.007092,128.008153 136.007092,129.251773 L136.007092,136.007092 C136.007092,137.250712 134.998939,138.258865 133.755319,138.258865 Z" id="Path"></path>
                    <path d="M133.755319,174.287234 C132.511699,174.287234 131.503546,173.279081 131.503546,172.035461 L131.503546,165.280142 C131.503546,164.036522 132.511699,163.028369 133.755319,163.028369 C134.998939,163.028369 136.007092,164.036522 136.007092,165.280142 L136.007092,172.035461 C136.007092,173.279081 134.998939,174.287234 133.755319,174.287234 L133.755319,174.287234 Z" id="Path"></path>
                    <path d="M133.795851,186.946702 C113.429017,186.941728 96.9220037,170.427994 96.9253191,150.06116 C96.9286356,129.694326 113.441026,113.185968 133.80786,113.187625 C154.174694,113.189283 170.684397,129.700329 170.684397,150.067163 L170.684397,150.067163 C170.657097,170.427367 154.156061,186.924374 133.795851,186.946702 Z M133.795851,117.69117 C115.916257,117.696144 101.42555,132.193572 101.428865,150.073166 C101.432182,167.95276 115.928265,182.444812 133.80786,182.443155 C151.687454,182.441497 166.180851,167.946758 166.180851,150.067163 C166.153559,132.194197 151.668824,117.713491 133.795851,117.69117 L133.795851,117.69117 Z" id="Shape"></path>
                    <path d="M192.751773,112.138298 L192.301418,112.138298 C191.057799,112.138298 190.049645,111.130145 190.049645,109.886525 C190.049645,108.642905 191.057799,107.634752 192.301418,107.634752 L192.751773,107.634752 C193.995393,107.634752 195.003546,108.642905 195.003546,109.886525 C195.003546,111.130145 193.995393,112.138298 192.751773,112.138298 L192.751773,112.138298 Z" id="Path"></path>
                    <path d="M30.1737589,112.138298 L29.7234043,112.138298 C28.4797843,112.138298 27.4716312,111.130145 27.4716312,109.886525 C27.4716312,108.642905 28.4797843,107.634752 29.7234043,107.634752 L30.1737589,107.634752 C31.4173788,107.634752 32.4255319,108.642905 32.4255319,109.886525 C32.4255319,111.130145 31.4173788,112.138298 30.1737589,112.138298 Z" id="Path"></path>
                </g>
            </g>
        </g>
    </g>
</svg>