<?xml version="1.0" encoding="UTF-8"?>
<svg width="222px" height="221px" viewBox="0 0 222 221" version="1.1" xmlns="http://www.w3.org/2000/svg" xmlns:xlink="http://www.w3.org/1999/xlink">
    <title>4755486_distance_pin_route_icon</title>
    <g id="Style-guide" stroke="none" stroke-width="1" fill="none" fill-rule="evenodd">
        <g id="Styleguide" transform="translate(-83.000000, -12445.000000)" fill-rule="nonzero">
            <g id="4755486_distance_pin_route_icon" transform="translate(83.000000, 12445.000000)">
                <g id="Colors" transform="translate(2.251773, 2.251773)">
                    <g id="XMLID_13_">
                        <path d="M59.7098156,2.91874823 C68.1526135,7.87715248 82.1352234,17.7255071 80.2477872,38.1229681 C80.2477872,38.1229681 79.7109645,52.4960355 69.8585567,65.6072092 C61.5283475,76.6805284 42.9494184,104.375535 44.3711879,128.29567 C44.1568191,128.32134 43.9307411,128.3335 43.6789929,128.3335 L43.9690213,128.39655 C39.4262943,128.39655 39.4262943,124.168621 39.4262943,124.168621 C34.2044326,100.95284 18.2362092,77.1714149 12.3978121,69.8603582 C6.16895745,62.0462553 0.418829787,52.407766 0.418829787,41.3596667 C0.418829787,18.5469539 19.8345177,0.0495390071 43.7920319,0.0495390071 C49.4039007,0.0495390071 54.7775319,1.06869149 59.6972057,2.91829787 C59.7098156,2.91874823 59.7098156,2.91874823 59.7098156,2.91874823 Z M54.4875035,40.6805319 C54.4875035,34.1873191 49.2152021,28.9276277 42.7219894,28.9276277 C36.2418369,28.9276277 30.9699858,34.1873191 30.9699858,40.6805319 C30.9699858,47.1732943 36.2418369,52.4451454 42.7219894,52.4451454 C49.2152021,52.4451454 54.4875035,47.1732943 54.4875035,40.6805319 Z" id="Shape" fill="#DB1B32"></path>
                        <path d="M48.2212695,124.168621 C48.2212695,124.168621 48.2212695,127.893053 44.3707376,128.29567 C42.9489681,104.375535 59.4828369,74.3526454 67.8130461,63.2793262 C77.6654539,50.1681525 77.6654539,38.8430851 77.6654539,38.8430851 C79.5524397,18.4460745 68.1526135,7.87670213 59.7098156,2.91874823 C75.7906277,8.97151418 87.177844,23.8949149 87.177844,41.360117 C87.177844,52.1816879 82.2081809,60.9140638 75.6397589,69.3951418 C75.6271489,69.4073014 75.614539,69.4325213 75.6019291,69.4451312 C70.0400496,75.9252837 52.9648546,102.915486 48.2212695,124.168621 Z" id="Path" fill="#C1272D"></path>
                    </g>
                    <g id="Group" transform="translate(7.205674, 9.457447)" fill="#EA5959">
                        <path d="M4.54903191,28.0102553 C2.71023404,27.5162163 1.49202482,25.7125461 1.77394681,23.7827766 C3.31551064,13.2305177 8.80353191,7.34888652 13.1359433,4.27206383 C17.7827021,0.972765957 22.0457589,0.142312057 22.5159291,0.0594468085 C24.5880106,-0.310294326 26.5650674,1.07004255 26.9330071,3.1403227 C27.3004965,5.20339716 25.9318688,7.17414894 23.8737482,7.55289716 C23.3189113,7.66098227 11.4651277,10.1415355 9.31063121,24.8829929 C9.0070922,26.9645319 7.0732695,28.4052163 4.9917305,28.101227 C4.84041135,28.0800603 4.69269504,28.0489858 4.54903191,28.0102553 Z" id="Path"></path>
                        <circle id="Oval" cx="4.04598582" cy="34.8633014" r="3.80864894"></circle>
                    </g>
                    <path d="M39.3479326,29.7693404 C39.3479326,29.7693404 49.8704681,25.6022092 57.6485426,31.6644326 C65.426617,37.7262057 63.0293794,52.9292766 53.2958652,57.2499787 C40.6701738,62.8541915 28.0881667,52.8067801 31.1766986,41.6942801 C31.1766986,41.6942801 36.4805248,53.7327092 47.0535,51.760156 C57.6264752,49.7876028 58.0561135,36.0900674 51.3287163,32.1463121 C46.7260922,29.4464362 39.3479326,29.7693404 39.3479326,29.7693404 Z" id="Path" fill="#C1272D"></path>
                    <g id="XMLID_17_" transform="translate(129.702128, 86.918440)">
                        <path d="M59.7098156,2.91829787 C68.1526135,7.87670213 82.1352234,17.7250567 80.2477872,38.1225177 C80.2477872,38.1225177 79.7109645,52.4955851 69.8585567,65.6067589 C61.5283475,76.680078 42.9494184,104.375085 44.3711879,128.29522 C44.1568191,128.32089 43.9307411,128.33305 43.6789929,128.33305 L43.9690213,128.396099 C39.4262943,128.396099 39.4262943,124.16817 39.4262943,124.16817 C34.2044326,100.95239 18.2362092,77.1709645 12.3978121,69.8599078 C6.16895745,62.045805 0.418829787,52.4073156 0.418829787,41.3592163 C0.418829787,18.5465035 19.8340674,0.0490886525 43.7920319,0.0490886525 C49.4039007,0.0490886525 54.7775319,1.06824113 59.6972057,2.91784752 C59.7098156,2.91829787 59.7098156,2.91829787 59.7098156,2.91829787 Z M54.4875035,40.6805319 C54.4875035,34.1873191 49.2152021,28.9276277 42.7219894,28.9276277 C36.2418369,28.9276277 30.9699858,34.1873191 30.9699858,40.6805319 C30.9699858,47.1732943 36.2418369,52.4451454 42.7219894,52.4451454 C49.2152021,52.4451454 54.4875035,47.1732943 54.4875035,40.6805319 Z" id="Shape" fill="#4CAEE5"></path>
                        <path d="M48.2212695,124.168621 C48.2212695,124.168621 48.2212695,127.893053 44.3707376,128.29567 C42.9489681,104.375535 59.4828369,74.3526454 67.8130461,63.2793262 C77.6654539,50.1681525 77.6654539,38.8430851 77.6654539,38.8430851 C79.5524397,18.4460745 68.1526135,7.87670213 59.7098156,2.91829787 C75.7906277,8.97106383 87.177844,23.8944645 87.177844,41.3596667 C87.177844,52.1812376 82.2081809,60.9136135 75.6397589,69.3946915 C75.6271489,69.4068511 75.614539,69.4320709 75.6019291,69.4446809 C70.0400496,75.9252837 52.9648546,102.915486 48.2212695,124.168621 Z" id="Path" fill="#398FC4"></path>
                    </g>
                    <g id="Group" transform="translate(136.907801, 96.375887)" fill="#9DDDF9">
                        <path d="M4.54903191,28.0102553 C2.71023404,27.5162163 1.49202482,25.7125461 1.77394681,23.7827766 C3.31551064,13.2305177 8.80353191,7.34888652 13.1359433,4.27206383 C17.7827021,0.972765957 22.0457589,0.142312057 22.5154787,0.0594468085 C24.5880106,-0.310294326 26.564617,1.07004255 26.9330071,3.1403227 C27.3004965,5.20339716 25.9318688,7.17414894 23.8737482,7.55289716 C23.3189113,7.66098227 11.4651277,10.1415355 9.31063121,24.8829929 C9.0070922,26.9645319 7.0732695,28.4052163 4.9917305,28.101227 C4.84041135,28.0800603 4.69269504,28.0489858 4.54903191,28.0102553 Z" id="Path"></path>
                        <circle id="Oval" cx="4.04598582" cy="34.8633014" r="3.80864894"></circle>
                    </g>
                    <path d="M169.05006,116.68778 C169.05006,116.68778 179.572596,112.520649 187.35067,118.582872 C195.128745,124.644645 192.731507,139.847716 182.997993,144.168418 C170.372301,149.772631 157.790294,139.72522 160.878826,128.61272 C160.878826,128.61272 166.182652,140.651149 176.755628,138.678596 C187.328603,136.706043 187.758241,123.008507 181.030844,119.064752 C176.42822,116.364876 169.05006,116.68778 169.05006,116.68778 Z" id="Path" fill="#398FC4"></path>
                </g>
                <g id="Lines">
                    <g id="Group">
                        <circle id="Oval" fill="#FFFFFF" cx="44.9778156" cy="42.2914504" r="11.7587589"></circle>
                        <path d="M46.228,132.914957 C41.4204645,132.914957 39.5663546,129.310319 39.4407057,126.717177 C34.2278511,103.828355 18.5253369,80.5792482 12.8977057,73.5320993 C4.38870567,62.8582447 0.426485816,53.3562128 0.426485816,43.6263014 C0.426485816,36.7160603 2.09279787,30.0679255 5.37993617,23.8656418 C10.7445603,13.7425709 19.7367908,8.00955674 20.4015142,7.59478014 C27.9787305,2.66880142 36.8480142,0.0644007092 46.051461,0.0644007092 C71.2163759,0.0644007092 91.6899468,19.6061879 91.6899468,43.6258511 C91.6899468,55.8678404 85.6308759,65.3527589 79.6983546,73.0164433 C79.664578,73.0632801 79.6186418,73.1231773 79.5614468,73.1889291 C74.711578,78.8485355 57.5174894,105.582936 52.7261667,126.715376 C52.6090745,129.094149 51.0094149,132.331298 46.9530709,132.794713 C46.7247411,132.873074 46.4806489,132.914957 46.228,132.914957 Z M46.051461,4.56839716 C37.7140461,4.56839716 29.6869255,6.92465248 22.838383,11.3827128 C22.8230709,11.3926206 22.8073085,11.4025284 22.7915461,11.4119858 C22.7086809,11.4633262 14.2226489,16.7968759 9.3592695,25.9742021 C6.42025532,31.5198688 4.93048227,37.458695 4.93048227,43.6258511 C4.93048227,52.2812163 8.58060638,60.8910957 16.4181277,70.7227872 C22.2421135,78.0149291 38.5318901,102.153936 43.8830035,125.939865 C43.9194823,126.101993 43.9379468,126.267723 43.9379468,126.433904 C43.9744255,127.54583 44.5436738,128.201546 45.6317305,128.368177 C45.7321596,128.354216 45.8343901,128.347461 45.938422,128.347461 C47.4146844,128.347461 48.1856915,127.691745 48.2298262,126.398777 C48.2298262,126.233947 48.2473901,126.104695 48.2834184,125.943468 C53.1197766,104.276007 70.2935993,77.118273 76.0959681,70.3111631 C76.1108298,70.2913475 76.1274929,70.2701809 76.1455071,70.2481135 C85.873617,57.6760142 87.1864007,49.7353617 87.1864007,43.6254007 C87.1864007,22.0894433 68.7331206,4.56839716 46.051461,4.56839716 Z" id="Shape" fill="#3F456B"></path>
                        <path d="M44.9818688,56.9644539 C37.2524326,56.9644539 30.9645816,50.6761525 30.9645816,42.9467163 C30.9645816,35.2172801 37.2524326,28.9294291 44.9818688,28.9294291 C52.711305,28.9294291 58.9996064,35.2177305 58.9996064,42.9467163 C58.9996064,50.6761525 52.711305,56.9644539 44.9818688,56.9644539 Z M44.9818688,33.4329752 C39.7361383,33.4329752 35.4681277,37.7009858 35.4681277,42.9467163 C35.4681277,48.1928972 39.7361383,52.4609078 44.9818688,52.4609078 C50.2280496,52.4609078 54.4960603,48.1928972 54.4960603,42.9467163 C54.4960603,37.7009858 50.2280496,33.4329752 44.9818688,33.4329752 Z" id="Shape" fill="#3F456B"></path>
                    </g>
                    <g id="Group" transform="translate(129.702128, 86.918440)">
                        <circle id="Oval" fill="#FFFFFF" cx="44.9778156" cy="42.2914504" r="11.7587589"></circle>
                        <path d="M46.228,132.914957 C41.4204645,132.914957 39.5663546,129.310319 39.441156,126.717177 C34.2283014,103.828355 18.5257872,80.5792482 12.8977057,73.5320993 C4.38915603,62.858695 0.42693617,53.3566631 0.42693617,43.6263014 C0.42693617,36.7165106 2.09324823,30.0679255 5.37993617,23.8656418 C10.745461,13.7412199 19.7403936,8.00730496 20.4024149,7.59478014 C27.9796312,2.66835106 36.8484645,0.0644007092 46.051461,0.0644007092 C71.2168262,0.0644007092 91.6899468,19.6061879 91.6899468,43.6263014 C91.6899468,55.8682908 85.6313262,65.3523085 79.6983546,73.0164433 C79.664578,73.0637305 79.6177411,73.124078 79.5600957,73.1907305 C74.7088759,78.8525887 57.5165887,105.584738 52.7257163,126.716277 C52.6086241,129.09505 51.0089645,132.332199 46.9526206,132.795613 C46.7247411,132.873074 46.4810993,132.914957 46.228,132.914957 Z M46.051461,4.56839716 C37.7140461,4.56839716 29.6873759,6.92465248 22.838383,11.3827128 C22.8230709,11.3926206 22.8077589,11.4025284 22.7915461,11.4124362 C22.7086809,11.4637766 14.2226489,16.7973262 9.35881915,25.9746525 C6.42025532,31.5203191 4.93003191,37.4591454 4.93003191,43.6263014 C4.93003191,52.2816667 8.58015603,60.8919965 16.4181277,70.7232376 C22.2421135,78.0153794 38.5318901,102.154387 43.8825532,125.940316 C43.9190319,126.102443 43.9374965,126.268174 43.9374965,126.434355 C43.9739752,127.54628 44.5432234,128.201996 45.6312801,128.368628 C45.7321596,128.354667 45.8343901,128.347911 45.938422,128.347911 C47.4146844,128.347911 48.1856915,127.692195 48.2298262,126.399227 C48.2298262,126.234397 48.2473901,126.105145 48.2834184,125.943918 C53.1197766,104.276457 70.2935993,77.1187234 76.0964184,70.3116135 C76.1108298,70.2922482 76.1274929,70.2710816 76.1450567,70.2490142 C85.8731667,57.6769149 87.1864007,49.7358121 87.1864007,43.6258511 C87.1864007,22.0894433 68.7331206,4.56839716 46.051461,4.56839716 Z" id="Shape" fill="#3F456B"></path>
                        <path d="M44.9818688,56.9644539 C37.252883,56.9644539 30.9645816,50.6761525 30.9645816,42.9467163 C30.9645816,35.2172801 37.252883,28.9294291 44.9818688,28.9294291 C52.711305,28.9294291 58.9996064,35.2177305 58.9996064,42.9467163 C58.9996064,50.6761525 52.711305,56.9644539 44.9818688,56.9644539 Z M44.9818688,33.4329752 C39.7361383,33.4329752 35.4681277,37.7009858 35.4681277,42.9467163 C35.4681277,48.1928972 39.7361383,52.4609078 44.9818688,52.4609078 C50.2275993,52.4609078 54.4960603,48.1928972 54.4960603,42.9467163 C54.4960603,37.7009858 50.2275993,33.4329752 44.9818688,33.4329752 Z" id="Shape" fill="#3F456B"></path>
                    </g>
                    <g id="Group" transform="translate(19.365248, 170.234043)" fill="#3F456B">
                        <path d="M2.66429787,23.6814468 C2.08784397,23.6814468 1.51184043,23.4616738 1.07184397,23.0221277 C0.192301418,22.1425851 0.192301418,20.7167624 1.07184397,19.8376702 L20.0619468,0.847567376 C20.9414894,-0.0315248227 22.3668617,-0.0315248227 23.2464043,0.847567376 C24.1259468,1.72710993 24.1259468,3.15293262 23.2464043,4.03202482 L4.25675177,23.0221277 C3.81675532,23.4616738 3.24075177,23.6814468 2.66429787,23.6814468 Z" id="Path"></path>
                        <path d="M21.250883,23.6814468 C20.6744291,23.6814468 20.0984255,23.4616738 19.6584291,23.0221277 L1.07184397,4.43554255 C0.192301418,3.556 0.192301418,2.1301773 1.07184397,1.25108511 C1.95138652,0.371992908 3.37675887,0.371992908 4.25630142,1.25108511 L22.8428865,19.8376702 C23.7224291,20.7172128 23.7224291,22.1430355 22.8428865,23.0221277 C22.4033404,23.4616738 21.8273369,23.6814468 21.250883,23.6814468 Z" id="Path"></path>
                    </g>
                    <g id="Group" transform="translate(134.656028, 40.982270)" fill="#3F456B">
                        <path d="M2.66429787,23.6814468 C2.08829433,23.6814468 1.51139007,23.4616738 1.07229433,23.0221277 C0.192751773,22.1425851 0.192751773,20.7167624 1.07229433,19.8376702 L20.0628475,0.847567376 C20.9414894,-0.0315248227 22.3682128,-0.0315248227 23.2468546,0.847567376 C24.1263972,1.72710993 24.1263972,3.15293262 23.2468546,4.03202482 L4.25630142,23.0221277 C3.81720567,23.4616738 3.24030142,23.6814468 2.66429787,23.6814468 Z" id="Path"></path>
                        <path d="M21.2513333,23.6814468 C20.6753298,23.6814468 20.0984255,23.4616738 19.6593298,23.0221277 L1.07274468,4.43554255 C0.193202128,3.556 0.193202128,2.1301773 1.07274468,1.25108511 C1.95138652,0.371992908 3.37810993,0.371992908 4.25675177,1.25108511 L22.8433369,19.8376702 C23.7228794,20.7172128 23.7228794,22.1430355 22.8433369,23.0221277 C22.4037908,23.4616738 21.8273369,23.6814468 21.2513333,23.6814468 Z" id="Path"></path>
                    </g>
                    <g id="Group" transform="translate(45.485816, 127.900709)" fill="#3F456B">
                        <path d="M127.894855,91.9529539 C126.69556,91.9529539 125.698475,91.0072092 125.647135,89.7975567 C125.593993,88.5550284 126.557752,87.5048014 127.80028,87.4516596 L130.046199,87.3539326 C131.291429,87.2926844 132.340305,88.2609468 132.396149,89.5030248 C132.451543,90.7455532 131.489135,91.7975816 130.247057,91.8529752 L127.993032,91.9511525 C127.960606,91.9520532 127.92773,91.9529539 127.894855,91.9529539 Z" id="Path"></path>
                        <path d="M101.233411,92.7730496 C99.9953865,92.7730496 98.988844,91.721922 98.9820547,90.4820957 C98.9753333,89.2382163 99.978273,88.2717553 101.222152,88.2654504 C102.697514,88.257344 104.172876,88.2695035 105.648238,88.2695035 C105.658596,88.2695035 105.669404,88.2695035 105.679762,88.2695035 C106.90878,88.2695035 107.913521,89.1841738 107.931085,90.4172447 C107.948199,91.6611241 106.954266,92.6978404 105.710387,92.7154043 C104.222415,92.7361206 102.734443,92.7735 101.245571,92.7735 C101.241968,92.7730496 101.237915,92.7730496 101.233411,92.7730496 Z M92.3438617,92.7730496 C92.3321525,92.7730496 92.3204433,92.7730496 92.3091844,92.7730496 C90.8185106,92.7730496 89.3282872,92.6478511 87.8380638,92.6082199 C86.5950851,92.5748936 85.6142128,91.5044007 85.647539,90.2609716 C85.6804149,89.0179929 86.7256879,88.0159539 87.9587589,88.0524326 C89.4314184,88.0920638 90.904078,88.1132305 92.3776383,88.1357482 C93.6210674,88.1546631 94.6136489,89.2449716 94.594734,90.4888511 C94.5758191,91.7201206 93.571078,92.7730496 92.3438617,92.7730496 Z M114.56706,92.4366348 C113.353355,92.4366348 112.352216,91.4701738 112.317539,90.2492624 C112.282411,89.0062837 113.261482,87.9695674 114.504011,87.9339894 C115.981174,87.8921064 117.458337,87.8452695 118.93505,87.7948298 C120.187486,87.750695 121.220149,88.7252624 121.262482,89.9686915 C121.305266,91.2116702 120.33205,92.2533404 119.089071,92.2956738 C117.603351,92.3465638 116.117631,92.3929504 114.632362,92.435734 C114.610294,92.4361844 114.588677,92.4366348 114.56706,92.4366348 Z M79.0165177,92.1857872 C78.9764362,92.1857872 78.9359043,92.1848865 78.8953723,92.1826348 C77.3974929,92.102922 75.8937589,92.0124007 74.4251525,91.9133227 C73.1844255,91.8295567 72.2463369,90.7559113 72.3305532,89.514734 C72.4143191,88.2740071 73.4821099,87.3372695 74.7286915,87.4196844 C76.1752305,87.5174113 77.6577979,87.6065816 79.1336099,87.6849433 C80.3756879,87.750695 81.3290887,88.8108298 81.2633369,90.0529078 C81.1998369,91.2544539 80.2059043,92.1857872 79.0165177,92.1857872 Z M65.7211489,91.1625816 C65.6414362,91.1625816 65.5617234,91.1585284 65.4806596,91.1499716 C63.9575603,90.9882943 62.4529255,90.8095035 61.0090887,90.6185532 C59.7764681,90.4555248 58.9090851,89.3237837 59.0716631,88.0911631 C59.2346915,86.8585426 60.3601277,85.9911596 61.5990532,86.1537376 C63.0050603,86.339734 64.4709645,86.5140213 65.956234,86.6716454 C67.1929078,86.8031489 68.0886631,87.911922 67.9571596,89.1485957 C67.8346631,90.304656 66.857844,91.1625816 65.7211489,91.1625816 Z M52.5469255,89.1166206 C52.3703865,89.1166206 52.1911454,89.0959043 52.0119043,89.0522199 C50.476195,88.6779752 48.9738121,88.2411312 47.5470887,87.7542979 C46.3703121,87.3521312 45.741617,86.0726738 46.1437837,84.8954468 C46.5455,83.7191206 47.8236064,83.0899752 49.0021844,83.4921418 C50.3019078,83.9357411 51.6732376,84.334305 53.078344,84.6765745 C54.2866454,84.9711064 55.0274787,86.1888652 54.7333972,87.397617 C54.4820993,88.4266773 53.5611241,89.1166206 52.5469255,89.1166206 Z M40.2603511,84.0645426 C39.836117,84.0645426 39.4073794,83.9447482 39.0263794,83.6948014 C37.6050603,82.7612163 36.3233511,81.7389113 35.2163794,80.6562589 C34.3273794,79.7866241 34.311617,78.3608014 35.1812518,77.4718014 C36.0508865,76.5832518 37.4771596,76.567039 38.3657092,77.4366738 C39.2655177,78.3166667 40.3193475,79.1556773 41.4983759,79.9302872 C42.5377943,80.6130248 42.8273723,82.0091241 42.1446348,83.0485426 C41.7127447,83.706961 40.9935284,84.0645426 40.2603511,84.0645426 Z M32.3489716,73.7428652 C31.3338723,73.7428652 30.4124468,73.0515709 30.1625,72.0211596 C29.8368936,70.6777518 29.6716135,69.2667908 29.6716135,67.8274574 C29.6716135,67.5495887 29.6774681,67.2690177 29.690078,66.9852943 C29.7445709,65.742766 30.8024539,64.7817092 32.038227,64.8344007 C33.2807553,64.8888936 34.2436135,65.9404716 34.1891206,67.1825496 C34.1796631,67.3996206 34.1751596,67.6144397 34.1751596,67.8270071 C34.1751596,68.9092092 34.297656,69.9634894 34.5394965,70.9596738 C34.832227,72.1684255 34.0900426,73.385734 32.8817411,73.6789149 C32.7029504,73.7221489 32.5246099,73.7428652 32.3489716,73.7428652 Z M34.3287305,60.8910957 C33.9405248,60.8910957 33.5473652,60.7906667 33.188883,60.5794504 C32.117039,59.9485035 31.7594574,58.5681667 32.3904043,57.496773 C33.2343688,56.062844 34.2922518,54.737 35.5338794,53.5557199 C36.4345887,52.698695 37.8608617,52.7347234 38.7169858,53.6354326 C39.5740106,54.5365922 39.5384326,55.9619645 38.6377234,56.8189894 C37.6856738,57.7242021 36.9115142,58.6933652 36.2715603,59.781422 C35.8513794,60.4943333 35.1001879,60.8910957 34.3287305,60.8910957 Z M44.5941135,52.7788582 C43.7208759,52.7788582 42.8895213,52.2672553 42.5238333,51.4138333 C42.0338475,50.2708333 42.5630142,48.9467908 43.7060142,48.4572553 C44.9566489,47.920883 46.3230248,47.3980213 48.0069007,46.8116596 C49.1841277,46.4031879 50.4649362,47.0233262 50.8738582,48.1978511 C51.2827801,49.3723759 50.6621915,50.6558865 49.488117,51.0648085 C47.9051206,51.6155922 46.6319681,52.1024255 45.4808617,52.5960142 C45.1912837,52.7198617 44.8904468,52.7788582 44.5941135,52.7788582 Z M57.1806241,48.3482695 C56.2587482,48.3482695 55.3940674,47.7781206 55.0630567,46.8611986 C54.6406241,45.6916277 55.2454504,44.4009113 56.4154716,43.9780284 C57.9268617,43.4317482 59.2207305,42.9111383 60.3713865,42.3864752 C61.5026773,41.8703688 62.8384291,42.3693617 63.3545355,43.5011028 C63.8706418,44.632844 63.3711986,45.9681454 62.2394574,46.4842518 C60.9771135,47.059805 59.5729078,47.6254504 57.9457766,48.2131631 C57.6931277,48.3050355 57.4346241,48.3482695 57.1806241,48.3482695 Z M68.6835816,41.8320887 C68.1044255,41.8320887 67.5257199,41.6100638 67.085273,41.1664645 C66.2093333,40.2837695 66.2142872,38.8579468 67.0969823,37.9820071 C68.0359716,37.0502234 68.812383,36.0580922 69.4708014,34.9479681 C70.1049007,33.8783759 71.4865887,33.5257482 72.5561809,34.1602979 C73.625773,34.7948475 73.9784007,36.1765355 73.3438511,37.2461277 C72.5003369,38.6683475 71.4658723,39.9914894 70.2697305,41.1786241 C69.8306348,41.6145674 69.256883,41.8320887 68.6835816,41.8320887 Z M73.6046064,29.7234043 C72.3715355,29.7234043 71.3658936,28.7929716 71.3532837,27.5571986 C71.3402234,26.2601773 71.1704397,24.9906277 70.8479858,23.7219787 C70.542195,22.5163794 71.2708688,21.306727 72.4764681,21.0009362 C73.6834184,20.694695 74.9070319,21.4319255 75.213273,22.6370745 C75.6230957,24.2533972 75.8401667,25.8530567 75.8568298,27.5076596 C75.8689894,28.7510887 74.8714539,29.7234043 73.6280248,29.7234043 C73.6199184,29.7234043 73.6122624,29.7234043 73.6046064,29.7234043 Z M68.8281454,17.7259574 C68.2215177,17.7259574 67.6175922,17.4823156 67.1730922,17.0017872 C66.2849929,16.0402801 65.2770993,15.1350674 64.1773333,14.3118191 C63.1815993,13.5669326 62.978039,12.1555213 63.7233759,11.1597872 C64.4678121,10.1645035 65.8792234,9.96049291 66.8749574,10.7058298 C68.1949468,11.6930071 69.4082021,12.7833156 70.4822979,13.9461312 C71.3258121,14.8599007 71.2690674,16.2843723 70.3552979,17.1278865 C69.9225071,17.5282518 69.3744255,17.7259574 68.8281454,17.7259574 Z M57.7264539,10.5531596 C57.4548901,10.5531596 57.1797234,10.5040709 56.9117624,10.400039 C55.6714858,9.91860993 54.3168191,9.46330142 52.8855922,9.04807447 C51.6917021,8.70130142 51.004461,7.45201773 51.351234,6.2576773 C51.6984574,5.06423759 52.9463901,4.37609574 54.1416312,4.72331915 C55.6989574,5.17547518 57.179273,5.67311702 58.5420461,6.20228369 C59.7012589,6.6526383 60.2763617,7.9573156 59.8264574,9.11652837 C59.4796844,10.0068794 58.6285142,10.5531596 57.7264539,10.5531596 Z M44.851266,7.14847872 C44.7139078,7.14847872 44.5751986,7.13586879 44.4355887,7.10974823 C43.9365957,7.01652482 43.4398546,6.92600355 42.9467163,6.83773404 C42.029344,6.67335461 41.0826986,6.51798227 40.1324504,6.37567021 C38.9025319,6.19147518 38.0545142,5.0453227 38.2387092,3.81540426 C38.4229043,2.58548582 39.5713085,1.73836879 40.7989752,1.92166312 C41.7915567,2.07028014 42.7809858,2.2324078 43.7397908,2.40444326 C44.2437376,2.49496454 44.7512872,2.58728723 45.2610887,2.68231206 C46.4838014,2.91019149 47.2899362,4.08651773 47.0616064,5.30878014 C46.8602979,6.39188298 45.9141028,7.14847872 44.851266,7.14847872 Z M31.6338085,5.41911702 C31.5761631,5.41911702 31.5180674,5.41686525 31.4595213,5.4123617 C30.0602695,5.3051773 28.5880603,5.21375532 27.0843262,5.14034752 C25.8422482,5.07954965 24.884344,4.02346809 24.9451418,2.78139007 C25.0059397,1.53931206 26.0453582,0.583659574 27.3040993,0.642205674 C28.8488156,0.717414894 30.3624574,0.811989362 31.8026915,0.922326241 C33.0425177,1.01690071 33.9711489,2.09910284 33.8761241,3.33937943 C33.7860532,4.52065957 32.7993262,5.41911702 31.6338085,5.41911702 Z M18.3078156,4.95390071 C18.2992589,4.95390071 18.2911525,4.95390071 18.2825957,4.95390071 C16.8085851,4.95390071 15.3341241,4.90120922 13.8601135,4.90030851 C12.6166844,4.8994078 11.6092411,3.9171844 11.6101412,2.67375532 C11.6110426,1.4307766 12.6189362,0.45035461 13.8619149,0.45035461 C13.8623652,0.45035461 13.8628156,0.45035461 13.8637163,0.45035461 C15.353039,0.45035461 16.8428121,0.41612766 18.3321348,0.43279078 C19.5760142,0.446301418 20.5730993,1.47401064 20.5591383,2.71789007 C20.5456277,3.95276241 19.5399858,4.95390071 18.3078156,4.95390071 Z" id="Shape"></path>
                        <path d="M2.62016312,4.90075887 C1.37673404,4.90075887 0.368390071,3.89241489 0.368390071,2.64898582 C0.368390071,1.40555674 1.37673404,0.397212766 2.62016312,0.397212766 C3.36820213,0.397212766 4.11669149,0.395861702 4.86518085,0.393600274 C6.11761702,0.390007092 7.11965603,1.39519858 7.12372143,2.63862766 C7.12776241,3.88205674 6.12212057,4.89310284 4.87869149,4.89715603 C4.12569858,4.8994078 3.37270567,4.90075887 2.62016312,4.90075887 Z" id="Path"></path>
                    </g>
                </g>
            </g>
        </g>
    </g>
</svg>