<?xml version="1.0" encoding="UTF-8"?>
<svg width="223px" height="221px" viewBox="0 0 223 221" version="1.1" xmlns="http://www.w3.org/2000/svg" xmlns:xlink="http://www.w3.org/1999/xlink">
    <title>5686466_business_cooperation_handshake_partner_icon</title>
    <g id="Style-guide" stroke="none" stroke-width="1" fill="none" fill-rule="evenodd">
        <g id="Styleguide" transform="translate(-83.000000, -13373.000000)" fill-rule="nonzero">
            <g id="5686466_business_cooperation_handshake_partner_icon" transform="translate(83.000000, 13373.000000)">
                <g id="Colors" transform="translate(2.251773, 0.000000)">
                    <circle id="Oval" fill="#CDE7F9" cx="109.174965" cy="111.012411" r="76.3351064"></circle>
                    <path d="M57.2220567,130.994645 C55.2089716,136.272801 49.6245745,139.042482 44.738227,137.182518 C39.8518794,135.322553 37.5325532,129.526489 39.5411348,124.25734 C41.5497163,118.988191 47.1431206,116.205 52.0249645,118.064965 C56.9068085,119.924929 59.2351418,125.711986 57.2220567,130.994645 Z" id="Path" fill="#FCE4D6"></path>
                    <g id="Group" opacity="0.1" transform="translate(38.730496, 117.992908)" fill="#3F456B">
                        <path d="M5.87712766,0.373794326 C5.87712766,0.373794326 1.82393617,6.64723404 9.65109929,9.63308511 C17.4782624,12.6189362 18.8698582,6.20588652 18.8698582,6.20588652 C18.8698582,6.20588652 18.0727305,23.9678723 5.9491844,19.3517376 C-6.1743617,14.7356028 4.29638298,1.55822695 5.87712766,0.373794326 Z" id="Path"></path>
                    </g>
                    <g id="_编组_" transform="translate(36.929078, 55.393617)" fill="#FCE4D6">
                        <path d="M90.070922,38.5098227 L136.457447,76.1099291 C140.177376,79.1002837 140.380035,84.9864184 136.961844,89.237766 C133.543652,93.4891135 127.716064,94.5339362 124.000638,91.5435816 L120.073546,87.6029787 C123.788972,90.5933333 124.234823,96.6821277 120.57344,100.730816 C111.967163,110.264823 102.144929,99.406773 98.425,96.4164184 L102.419645,100.40656 C106.135071,103.396915 106.33773,109.28305 102.919539,113.534397 C99.5013475,117.785745 93.6737589,118.82156 89.9493262,115.831206 L79.6362057,106.153085 C83.3516312,109.138936 83.5542908,115.025071 80.1315957,119.276418 C76.7089007,123.527766 70.8903191,124.572589 67.1748936,121.582234 L39.3609929,99.8481206 C39.3609929,99.8481206 23.0941844,86.1663475 19.6219504,78.1905674 C15.1184043,67.8053901 7.07056738,64.3061348 7.07056738,64.3061348 C7.07056738,64.3061348 4.05319149,62.5992908 0,60.7978723 L23.4184397,0 C23.4184397,0 34.677305,5.85460993 47.476383,2.3643617 L90.070922,38.5098227 Z" id="Path"></path>
                    </g>
                    <g id="Group" opacity="0.1" transform="translate(125.198582, 111.687943)" fill="#3F456B">
                        <path d="M1.76539007,7.75060284 C0.045035461,6.37251773 -0.144113475,3.73794326 1.35106383,1.89599291 L1.45914894,1.76088652 C2.95432624,-0.0990780142 5.57088652,-0.490886525 7.28673759,0.90070922 L42.8647518,29.4847163 C44.5806028,30.867305 44.7607447,33.4973759 43.2655674,35.3393262 L43.1619858,35.4699291 C41.6668085,37.3298936 39.0592553,37.7217021 37.3434043,36.3391135 L1.76539007,7.75060284 Z" id="Path"></path>
                    </g>
                    <g id="Group" opacity="0.1" transform="translate(113.039007, 127.000000)" fill="#3F456B">
                        <path d="M1.76539007,8.10638298 C0.045035461,6.72379433 -0.121595745,4.10723404 1.37358156,2.25177305 L1.48166667,2.11666667 C2.97684397,0.256702128 5.56638298,-0.135106383 7.28673759,1.23847518 L38.6224113,26.7420567 C40.3382624,28.1201418 40.4238298,30.6826596 38.9421631,32.5426241 C38.9421631,32.5426241 36.343617,36.2175177 33.0875532,33.6099645 L1.76539007,8.10638298 Z" id="Path"></path>
                    </g>
                    <g id="Group" opacity="0.1" transform="translate(100.879433, 142.762411)" fill="#3F456B">
                        <path d="M1.49968085,7.80464539 C-0.220673759,6.42205674 -0.387304965,3.80549645 1.10787234,1.95003546 L1.21595745,1.81943262 C2.71113475,-0.045035461 5.3051773,-0.432340426 7.02102837,0.918723404 L34.3170213,22.7474113 C36.0373759,24.13 36.1184397,26.6925177 34.636773,28.5524823 C34.636773,28.5524823 32.038227,32.2273759 28.7821631,29.6153191 L1.49968085,7.80464539 Z" id="Path"></path>
                    </g>
                    <g id="Group" opacity="0.1" transform="translate(34.226950, 107.184397)" fill="#3F456B">
                        <path d="M29.4396809,37.7081915 L72.1197872,72.0567376 C73.9463914,73.5957808 76.6740342,73.3661269 78.2175887,71.5433333 C78.2175887,71.5433333 81.032305,68.1116312 77.6456383,65.1843262 L43.6528723,37.8297872 C43.6528723,37.8297872 33.366773,31.313156 27.8139007,20.2389362 C22.2610284,9.16471631 10.3221277,2.7651773 2.84173759,0.193652482 L0.423333333,8.72336879 C0.423333333,8.72336879 16.8522695,12.164078 20.4551064,22.2340071 C24.0579433,32.3039362 27.4716312,36.1229433 29.4396809,37.7081915 Z" id="Path"></path>
                    </g>
                    <path d="M158.524823,58.0957447 C158.524823,58.0957447 148.617021,63.9503546 133.14734,56.5780496 L119.528617,51.4485106 C119.528617,51.4485106 114.290993,47.7916312 107.369043,50.998156 C100.447092,54.2046809 82.6760993,59.1946099 82.6760993,59.1946099 C79.4864146,61.1496808 76.9500411,64.0089794 75.3893617,67.409078 C72.9124113,72.9799645 66.5173759,86.6527305 66.5173759,86.6527305 C66.5173759,86.6527305 63.9818794,92.7730496 69.0708865,93.6737589 C74.1598936,94.5744681 83.482234,92.9937234 88.5712411,82.9733333 C88.5712411,82.9733333 88.7964184,81.1719149 91.3859574,80.3837943 C93.9754965,79.5956738 102.644823,76.7809574 102.644823,76.7809574 C102.644823,76.7809574 105.027199,75.8171986 106.873652,77.6321277 C108.720106,79.4470567 168.432624,127.41883 168.432624,127.41883 C168.432624,127.41883 172.823582,128.125887 181.042553,115.29078 L158.524823,58.0957447 Z" id="Path" fill="#FCE4D6"></path>
                    <path d="M95.9885816,167.014007 C93.9754965,172.292163 88.3865957,175.061844 83.5047518,173.201879 C78.6229078,171.341915 76.299078,165.545851 78.3076596,160.276702 C80.3162411,155.007553 85.9051418,152.219858 90.7914894,154.084326 C95.6778369,155.948794 97.9971631,161.735851 95.9885816,167.014007 Z" id="Path" fill="#FCE4D6"></path>
                    <g id="Group" opacity="0.1" transform="translate(77.460993, 154.021277)" fill="#3F456B">
                        <path d="M5.91315603,0.364787234 C5.91315603,0.364787234 1.85996454,6.63822695 9.68712766,9.62407801 C17.5142908,12.6099291 18.9148936,6.19687943 18.9148936,6.19687943 C18.9148936,6.19687943 18.1042553,23.9588652 5.98070922,19.3652482 C-6.14283688,14.7716312 4.3279078,1.5537234 5.91315603,0.364787234 Z" id="Path"></path>
                    </g>
                    <path d="M79.5191135,157.750213 C77.5105319,163.028369 71.9216312,165.802553 67.0397872,163.929078 C62.1579433,162.055603 59.8341135,156.27305 61.8381915,150.999397 C63.8422695,145.725745 69.4401773,142.947057 74.3220213,144.811525 C79.2038652,146.675993 81.5141844,152.472057 79.5191135,157.750213 Z" id="Path" fill="#FCE4D6"></path>
                    <g id="Group" opacity="0.1" transform="translate(60.797872, 145.014184)" fill="#3F456B">
                        <path d="M6.10680851,0.108085106 C6.10680851,0.108085106 2.05361702,6.38152482 9.88078014,9.36737589 C17.7079433,12.353227 19.099539,5.9401773 19.099539,5.9401773 C19.099539,5.9401773 18.3024113,23.7066667 6.17886525,19.0860284 C-5.94468085,14.4653901 4.52606383,1.29702128 6.10680851,0.108085106 Z" id="Path"></path>
                    </g>
                    <path d="M64.77,143.685638 C62.7569149,148.963794 57.1680142,151.737979 52.2861702,149.878014 C47.4043262,148.01805 45.0804965,142.221986 47.089078,136.948333 C49.0976596,131.674681 54.6910638,128.895993 59.5729078,130.755957 C64.4547518,132.615922 66.7830851,138.407482 64.77,143.685638 Z" id="Path" fill="#FCE4D6"></path>
                    <g id="Group" opacity="0.1" transform="translate(46.386525, 131.053191)" fill="#3F456B">
                        <path d="M5.76904255,0 C5.76904255,0 1.71585106,6.27343972 9.54301418,9.25929078 C17.3701773,12.2451418 18.761773,5.85460993 18.761773,5.85460993 C18.761773,5.85460993 17.9601418,23.6210993 5.84109929,19.000461 C-6.27794326,14.3798227 4.18829787,1.19343972 5.76904255,0 Z" id="Path"></path>
                    </g>
                    <g id="Group" opacity="0.1" transform="translate(65.751773, 68.003546)" fill="#3F456B">
                        <path d="M0.189148936,22.2925532 C0.189148936,22.2925532 15.1634397,23.8687943 18.5410993,7.31826241 L40.1220922,0.148617021 C41.1900359,0.0396212758 42.2463083,0.444080022 42.9683333,1.23847518 C44.2113121,2.58953901 67.4631206,20.5541844 67.4631206,20.5541844 C67.4631206,20.5541844 78.6634397,29.845 89.0215957,20.5541844 C89.0215957,20.5541844 92.511844,16.897305 95.8895035,20.5541844 C99.2671631,24.2110638 95.0698582,29.0388652 90.656383,31.1195035 C86.2429078,33.2001418 69.7239007,41.6352837 56.1862411,30.3223759 C42.1126596,18.5681206 38.1720567,15.4606738 38.1720567,15.4606738 L28.8857447,18.3294326 C28.8857447,18.3294326 25.3954965,29.2505319 16.2758156,31.3897163 C7.15613475,33.5289007 0.73858156,29.0253546 0.175638298,22.2700355" id="Path"></path>
                    </g>
                    <g id="Group" opacity="0.1" transform="translate(138.258865, 95.475177)" fill="#3F456B">
                        <path d="M19.5543972,24.0174113 L31.3266667,31.9436525 C39.6312057,30.1737589 42.3333333,20.2659574 42.3333333,20.2659574 L39.6312057,12.6099291 C39.6312057,12.6099291 33.6685106,23.8282624 21.8061702,16.2668085 C9.94382979,8.70535461 22.4096454,0 22.4096454,0 C22.4096454,0 13.4025532,9.45744681 1.69333333,5.85460993 L0.310744681,7.80464539 L19.5543972,24.0174113 Z" id="Path"></path>
                    </g>
                    <rect id="Rectangle" fill="#F5F6F7" transform="translate(43.299936, 83.460714) rotate(-69.070000) translate(-43.299936, -83.460714) " x="11.0207697" y="77.6061041" width="64.5583333" height="11.7092199"></rect>
                    <g id="Group" opacity="0.1" transform="translate(26.120567, 91.872340)" fill="#3F456B">
                        <rect id="Rectangle" transform="translate(9.380441, 11.985235) rotate(-69.070000) translate(-9.380441, -11.985235) " x="-1.06328219" y="6.13062545" width="20.8874468" height="11.7092199"></rect>
                    </g>
                    <rect id="Rectangle" fill="#767C93" transform="translate(25.849317, 75.512718) rotate(-69.070000) translate(-25.849317, -75.512718) " x="-12.8383959" y="62.6776118" width="77.3754255" height="25.6702128"></rect>
                    <g id="Group" opacity="0.2" transform="translate(0.000000, 83.765957)" fill="#3F456B">
                        <rect id="Rectangle" transform="translate(16.436308, 16.354072) rotate(-69.070000) translate(-16.436308, -16.354072) " x="4.0943398" y="3.51896526" width="24.6839362" height="25.6702128"></rect>
                    </g>
                    <rect id="Rectangle" fill="#F5F6F7" transform="translate(174.663585, 83.462053) rotate(-20.930000) translate(-174.663585, -83.462053) " x="168.808975" y="51.1828858" width="11.7092199" height="64.5583333"></rect>
                    <g id="Group" opacity="0.1" transform="translate(172.936170, 91.872340)" fill="#3F456B">
                        <rect id="Rectangle" transform="translate(9.524950, 11.986188) rotate(-20.930000) translate(-9.524950, -11.986188) " x="3.67034031" y="1.54246421" width="11.7092199" height="20.8874468"></rect>
                    </g>
                    <rect id="Rectangle" fill="#767C93" transform="translate(192.113980, 75.514212) rotate(-20.930000) translate(-192.113980, -75.514212) " x="179.278874" y="36.8264996" width="25.6702128" height="77.3754255"></rect>
                    <g id="Group" opacity="0.2" transform="translate(185.095745, 83.765957)" fill="#3F456B">
                        <rect id="Rectangle" transform="translate(16.430582, 16.355033) rotate(-20.930000) translate(-16.430582, -16.355033) " x="3.59547537" y="4.01306513" width="25.6702128" height="24.6839362"></rect>
                    </g>
                    <g id="Group" opacity="0.5" transform="translate(13.960993, 0.000000)" fill="#3F456B">
                        <path d="M94.5744681,27.2329433 C93.3308482,27.2329433 92.322695,26.2247901 92.322695,24.9811702 L92.322695,2.25177305 C92.322695,1.00815313 93.3308482,0 94.5744681,0 C95.818088,0 96.8262411,1.00815313 96.8262411,2.25177305 L96.8262411,24.9811702 C96.8262411,26.2247901 95.818088,27.2329433 94.5744681,27.2329433 Z" id="Path"></path>
                        <path d="M94.5744681,220.673759 C93.3308482,220.673759 92.322695,219.665606 92.322695,218.421986 L92.322695,195.692589 C92.322695,194.448969 93.3308482,193.440816 94.5744681,193.440816 C95.818088,193.440816 96.8262411,194.448969 96.8262411,195.692589 L96.8262411,218.421986 C96.8262411,219.665606 95.818088,220.673759 94.5744681,220.673759 Z" id="Path"></path>
                        <path d="M171.004149,189.018333 C170.405886,189.018333 169.832267,188.780009 169.409894,188.356312 L153.336738,172.283156 C152.751374,171.717793 152.516613,170.880576 152.722685,170.09329 C152.928757,169.306004 153.543593,168.691169 154.330879,168.485097 C155.118165,168.279025 155.955382,168.513786 156.520745,169.099149 L172.593901,185.172305 C173.239022,185.815797 173.432748,186.784655 173.084673,187.626741 C172.736598,188.468826 171.915337,189.018333 171.004149,189.018333 L171.004149,189.018333 Z" id="Path"></path>
                        <path d="M18.1447872,189.018333 C17.2335991,189.018333 16.412338,188.468826 16.0642629,187.626741 C15.7161879,186.784655 15.9099142,185.815797 16.5550355,185.172305 L32.6281915,169.099149 C33.1935542,168.513786 34.0307711,168.279025 34.8180573,168.485097 C35.6053434,168.691169 36.2201787,169.306004 36.4262507,170.09329 C36.6323227,170.880576 36.3975618,171.717793 35.8121986,172.283156 L19.7390426,188.356312 C19.3166692,188.780009 18.7430497,189.018333 18.1447872,189.018333 L18.1447872,189.018333 Z" id="Path"></path>
                        <path d="M62.3155674,33.9657447 C61.3993948,33.9651769 60.5749063,33.4095821 60.2304255,32.5606383 L55.2224823,20.2659574 C54.9001657,19.5172371 55.0076586,18.6527817 55.5035274,18.0058007 C55.9993961,17.3588197 56.8062061,17.0303452 57.6129677,17.1469897 C58.4197293,17.2636341 59.1004592,17.8071824 59.392766,18.5681206 L64.4007092,30.8628014 C64.6842512,31.5572585 64.6033682,32.3473113 64.1849904,32.969908 C63.7666126,33.5925048 63.0656785,33.9657447 62.3155674,33.9657447 Z" id="Path"></path>
                        <path d="M131.86383,204.641135 C130.947657,204.640567 130.123169,204.084972 129.778688,203.236028 L124.297872,189.797447 C123.858174,188.652817 124.415139,187.366784 125.550803,186.904424 C126.686468,186.442064 127.983316,186.973359 128.468156,188.09961 L133.944468,201.538191 C134.170324,202.091195 134.167195,202.711281 133.935767,203.261976 C133.70434,203.812672 133.263582,204.248846 132.710496,204.474504 C132.441655,204.584109 132.154155,204.640692 131.86383,204.641135 Z" id="Path"></path>
                        <path d="M2.25177305,150.233794 C1.18748469,150.224751 0.274872102,149.471774 0.0638398495,148.428579 C-0.147192403,147.385383 0.400994702,146.336896 1.37808511,145.914894 L14.8166667,140.420567 C15.565387,140.098251 16.4298424,140.205744 17.0768234,140.701612 C17.7238044,141.197481 18.0522789,142.004291 17.9356344,142.811053 C17.81899,143.617814 17.2754417,144.298544 16.5145035,144.590851 L3.07592199,150.067163 C2.81410451,150.173959 2.53451485,150.230489 2.25177305,150.233794 L2.25177305,150.233794 Z" id="Path"></path>
                        <path d="M185.514574,151.206569 C185.215648,151.205881 184.919964,151.144599 184.64539,151.026418 L171.269858,145.396986 C170.528127,145.084847 170.009262,144.40071 169.908717,143.602282 C169.808171,142.803855 170.141219,142.012437 170.782405,141.526148 C171.42359,141.039859 172.275503,140.932578 173.017234,141.244716 L186.392766,146.878652 C187.38244,147.29425 187.94118,148.35063 187.727724,149.402586 C187.514267,150.454542 186.587964,151.209587 185.514574,151.206569 Z" id="Path"></path>
                        <path d="M127.27922,33.5739455 C126.980592,33.5748048 126.684895,33.5150525 126.410035,33.3982979 C125.857662,33.1684431 125.419471,32.7282132 125.192182,32.1747788 C124.964894,31.6213444 124.967197,31.0002093 125.198582,30.4484752 L130.346135,18.2213475 C130.639096,17.4520321 131.328518,16.9038979 132.144069,16.7918757 C132.95962,16.6798535 133.771301,17.0217997 134.260842,17.6836324 C134.750382,18.3454651 134.839749,19.2216885 134.493901,19.9687234 L129.355355,32.1958511 C129.003704,33.0311655 128.185536,33.5742449 127.27922,33.5739455 Z" id="Path"></path>
                        <path d="M55.393617,204.402447 C55.0952068,204.401148 54.7999332,204.341481 54.5244326,204.226809 C53.9736817,203.995243 53.5375339,203.554295 53.3120096,203.001043 C53.0864854,202.44779 53.0900742,201.827591 53.3219858,201.276986 L58.9514184,187.901454 C59.263557,187.159722 59.9476941,186.640858 60.7461218,186.540312 C61.5445495,186.439767 62.3359676,186.772815 62.8222566,187.414 C63.3085456,188.055186 63.4158266,188.907098 63.1036879,189.64883 L57.4697518,203.024362 C57.1181013,203.859676 56.2999327,204.402756 55.393617,204.402447 L55.393617,204.402447 Z" id="Path"></path>
                    </g>
                </g>
                <g id="Lines" transform="translate(0.000000, 32.425532)" fill="#3F456B">
                    <path d="M48.4446454,107.634752 C48.2701725,107.633514 48.0964114,107.61236 47.9267376,107.571702 C47.3146149,107.427321 46.7128059,107.242264 46.1253191,107.017766 C38.5638652,104.135496 37.4424823,96.907305 39.6852482,91.0256738 C40.5015228,88.6697124 42.0041018,86.6119006 43.9996454,85.1170213 C44.6361975,84.5480596 45.5397752,84.3880324 46.3330116,84.7037728 C47.126248,85.0195131 47.6726944,85.7567089 47.7441349,86.6074805 C47.8155755,87.458252 47.3997213,88.2762536 46.6702482,88.7198582 C45.3733406,89.7122424 44.406394,91.0731883 43.8960638,92.6244326 C43.2160284,94.4258511 41.4821631,100.420071 47.7330851,102.802447 C48.1341147,102.956741 48.5448157,103.084615 48.9625532,103.185248 C50.078562,103.444795 50.8217239,104.500997 50.6891193,105.63909 C50.5565147,106.777184 49.590431,107.634233 48.4446454,107.630248 L48.4446454,107.634752 Z" id="Path"></path>
                    <g id="_编组_2" transform="translate(35.578014, 20.265957)">
                        <path d="M45.332695,8.41262411 C38.801776,8.36536533 32.3324815,7.14503154 26.233156,4.80978723 C25.4592123,4.54274212 24.8911958,3.87666488 24.7497247,3.07026056 C24.6082536,2.26385624 24.9156223,1.44420626 25.5524486,0.929663458 C26.1892749,0.41512066 27.0552011,0.286771947 27.8139007,0.594468085 C41.423617,5.69698582 51.4890426,3.38216312 51.5926241,3.35964539 C52.8026663,3.07112557 54.0174908,3.81816704 54.3060106,5.02820922 C54.5945305,6.2382514 53.847489,7.45307592 52.6374468,7.74159574 C50.2335985,8.22630473 47.78462,8.45127254 45.332695,8.41262411 Z" id="Path"></path>
                        <path d="M132.57539,98.177826 C130.255952,98.2008661 127.999189,97.4247558 126.184858,95.9795745 L106.162092,79.8839007 C105.53034,79.3810939 105.21615,78.5785269 105.338632,77.7804516 C105.461114,76.9823764 106.001518,76.3109655 106.754978,76.0207499 C107.508437,75.7305343 108.359609,75.8659413 108.985816,76.3756383 L129.008582,92.4668085 C131.755745,94.6780496 136.146702,93.8178723 138.794787,90.5032624 C140.086137,88.9486854 140.77227,86.9798491 140.726809,84.9593972 C140.71359,83.2521437 139.951221,81.6368437 138.641667,80.5414184 L74.4346099,28.5119504 C73.7861378,28.0134113 73.4590086,27.2024281 73.580074,26.3934779 C73.7011395,25.5845278 74.2513579,24.9048462 75.0173695,24.6179953 C75.7833811,24.3311444 76.644704,24.4822414 77.2673404,25.012695 L141.469894,77.0511702 C143.8016,78.9583937 145.176776,81.7943863 145.230355,84.8062766 C145.313089,87.9090238 144.277302,90.9380608 142.312057,93.3404965 C139.95969,96.3357781 136.383424,98.112332 132.57539,98.177826 L132.57539,98.177826 Z" id="Path"></path>
                        <path d="M115.421383,110.067088 C113.101578,110.087846 110.845116,109.310249 109.030851,107.864433 L81.1854255,85.2656383 C80.264374,84.4702285 80.1419543,83.0869359 80.908999,82.1421317 C81.6760437,81.1973275 83.0549758,81.0329159 84.0226596,81.7708865 L111.859078,104.360674 C114.601738,106.567411 118.997199,105.684716 121.645284,102.388121 C122.933818,100.833712 123.619646,98.8673507 123.577305,96.8487589 C123.56358,95.1406337 122.79939,93.524966 121.48766,92.4307801 L93.6107092,69.8049645 C92.9580357,69.3072256 92.627899,68.4937757 92.7490944,67.6819639 C92.8702898,66.8701521 93.4236163,66.1885945 94.193206,65.9031853 C94.9627957,65.617776 95.8267218,65.7737329 96.4479433,66.3102128 L124.297872,88.9270213 C126.631552,90.832686 128.007201,93.6696532 128.058333,96.6821277 C128.141141,99.784279 127.103515,102.812419 125.135532,105.211844 C122.791273,108.207325 119.224352,109.989959 115.421383,110.067088 L115.421383,110.067088 Z" id="Path"></path>
                        <path d="M99.1996099,122.176702 C96.8770214,122.198118 94.6176377,121.42061 92.8000709,119.974468 L68.7691489,100.735319 C67.7978819,99.9580567 67.64061,98.5405934 68.4178724,97.5693263 C69.1951349,96.5980592 70.6125981,96.4407873 71.5838652,97.2180496 L95.6147872,116.461702 C98.375461,118.677447 102.770922,117.812766 105.419007,114.507163 C107.702305,111.669929 108.004043,107.855426 106.139574,105.441525 C105.883377,105.107716 105.5886,104.80538 105.261383,104.540816 L81.1989362,85.2791489 C80.2276691,84.5018865 80.0703973,83.0844232 80.8476597,82.1131561 C81.6249221,81.141889 83.0423853,80.9846171 84.0136525,81.7618794 L108.085106,101.032553 C108.686782,101.518184 109.230763,102.071232 109.706383,102.680851 C112.822837,106.734043 112.498582,112.876879 108.931773,117.317376 C106.585707,120.320924 103.010169,122.106212 99.1996099,122.176702 Z" id="Path"></path>
                        <path d="M21.4368794,79.6497163 C20.4692716,79.6497163 19.6098979,79.0313871 19.3021986,78.1140071 C17.1134752,71.606383 9.7006383,68.0485816 9.62407801,68.0035461 L9.56102837,67.9675177 L8.60177305,67.4766312 C6.22840426,66.2561702 3.9856383,65.1032624 1.88698582,64.5313121 C0.700293312,64.194492 0.00550367387,62.9655706 0.328719323,61.7751008 C0.651934973,60.5846309 1.87282365,59.8758211 3.06691489,60.1853901 C5.62042553,60.8789362 8.07035461,62.1399291 10.6643972,63.4729787 L11.5651064,63.9233333 C12.3171986,64.283617 20.8379078,68.530461 23.5535461,76.6458511 C23.9489018,77.8247948 23.3138048,79.1010373 22.1349291,79.4965957 C21.9121109,79.5852241 21.6763366,79.6369423 21.4368794,79.6497163 Z" id="Path"></path>
                        <path d="M75.7541489,128.801418 C73.40991,128.788096 71.1395183,127.979964 69.314078,126.509113 C68.0846099,125.518333 66.7785816,124.505035 65.2608865,123.32961 C63.7431915,122.154184 62.0138298,120.812128 60.0637943,119.276418 C59.4174167,118.780864 59.089026,117.974885 59.2050211,117.168707 C59.3210162,116.362528 59.8633143,115.681826 60.623183,115.388606 C61.3830516,115.095386 62.2420336,115.235357 62.8695035,115.754645 C64.7970213,117.285851 66.5083688,118.618901 68.0215603,119.807837 C69.5347518,120.996773 70.8678014,122.019078 72.1287943,123.027872 C73.4798582,124.131241 77.1862766,126.126312 81.9285106,120.983262 C84.3739362,117.902837 84.4595035,113.719043 82.1221631,111.426738 C81.9988671,111.303145 81.8680122,111.187331 81.7303546,111.079965 L68.7646454,100.753333 C67.8191658,99.9708636 67.6743937,98.5753769 68.4391153,97.6154856 C69.2038368,96.6555943 70.5963847,96.4848522 71.5703546,97.2315603 L84.5450709,107.562695 C84.8097212,107.773526 85.0623177,107.999059 85.3016667,108.238227 C89.3278369,112.17883 89.3818794,118.907128 85.3962411,123.861028 L85.3016667,123.969113 C82.0681206,127.504397 78.7174823,128.801418 75.7541489,128.801418 Z" id="Shape"></path>
                    </g>
                    <path d="M148.000035,72.0567376 C145.399097,72.0409001 142.816364,71.6215859 140.344007,70.8137589 C136.079511,69.4058525 132.136454,67.1664531 128.742872,64.2250709 L106.508865,45.9767021 L93.1513475,49.9218085 C90.6879078,55.7448936 85.3827305,63.8512766 74.9615248,63.8512766 C73.6853344,63.8428242 72.4122017,63.7253043 71.1560284,63.5 C68.4899291,63.0496454 67.1884043,61.6220213 66.5669149,60.5141489 C64.9816667,57.6814184 66.2786879,54.2362057 66.4318085,53.8534043 C66.459585,53.7826994 66.4911557,53.7135446 66.526383,53.6462411 C69.7284043,47.5169149 76.8304965,31.214078 76.884539,31.0519504 C76.9385816,30.8898227 76.9791135,30.8582979 77.033156,30.7637234 C77.1592553,30.5655674 80.1360993,25.8098227 85.2836525,24.2020567 C89.6295745,22.8509929 108.702092,16.4829787 108.891241,16.4154255 C112.951303,15.1986476 117.278981,15.1986476 121.339043,16.4154255 C129.999362,19.1625887 142.505709,23.9768794 142.645319,24.0219149 L142.766915,24.0759574 C142.852482,24.1119858 151.774007,28.0300709 159.66422,23.7021631 C160.370295,23.297573 161.23973,23.3054266 161.938381,23.7227055 C162.637032,24.1399845 163.05618,24.9017557 163.034736,25.7152512 C163.013292,26.5287466 162.554593,27.2673776 161.834929,27.6472695 C152.255887,32.9164184 142.019326,28.6605674 140.974504,28.2057092 C140.073794,27.8634397 128.224965,23.3238652 119.978972,20.707305 C115.070106,19.149078 110.377411,20.707305 110.327872,20.707305 C110.125213,20.7748582 91.0166667,27.1383688 86.6392199,28.5209574 C83.4867376,29.5207447 81.3475532,32.4435461 80.9377305,33.0470213 C80.1180851,34.9204965 73.7320567,49.5570213 70.5795745,55.6278014 C70.3589007,56.2492908 70.0841844,57.6138652 70.4985106,58.3299291 C70.5750709,58.4650355 70.8092553,58.8793617 71.9126241,59.0685106 C79.9334397,60.4510993 85.8015603,56.4744681 89.3593617,47.2557092 C89.6107009,46.6023189 90.1516363,46.1029938 90.8230142,45.9046454 L106.360248,41.3155319 C107.07538,41.1026275 107.849536,41.2577962 108.427376,41.7298582 L131.620638,60.7663475 L131.72422,60.8564184 C132.377234,61.4598936 147.959504,75.5244681 162.181702,60.9329787 C163.052236,60.042547 164.479781,60.0264166 165.370213,60.8969505 C166.260644,61.7674844 166.276775,63.1950291 165.406241,64.085461 C159.497589,70.1562411 153.350248,72.0567376 148.000035,72.0567376 Z" id="Path"></path>
                    <path d="M170.684397,97.2450709 C169.440777,97.2861104 168.399355,96.3112263 168.358316,95.0676064 C168.317276,93.8239865 169.29216,92.7825643 170.53578,92.7415248 C170.855532,92.71 176.96234,92.0299645 181.213688,81.9825532 C181.506124,81.2108075 182.197313,80.6608728 183.015035,80.5493364 C183.832758,80.4377999 184.645979,80.7825348 185.134417,81.44777 C185.622856,82.1130053 185.708244,82.9921407 185.35695,83.7389362 C179.92117,96.5920567 171.179787,97.2135461 170.810496,97.2495745 L170.684397,97.2450709 Z" id="Path"></path>
                    <path d="M89.3818794,143.919823 C87.8396237,143.904971 86.313177,143.607314 84.8783333,143.041631 C77.321383,140.159362 76.2,132.93117 78.442766,127.049539 C79.5122569,124.116694 81.5865905,121.657811 84.2973759,120.109574 C87.2278243,118.560258 90.6832099,118.346685 93.7821468,119.523332 C96.8810837,120.69998 99.3239482,123.153084 100.487624,126.256915 C101.534993,129.220619 101.482248,132.462049 100.339007,135.390106 L100.339007,135.390106 C98.5691135,140.060284 94.6735461,143.919823 89.3818794,143.919823 Z M89.5980496,123.24404 C88.5055409,123.243038 87.4310163,123.522135 86.4770922,124.054681 C84.70325,125.089733 83.3522175,126.718309 82.6625887,128.652801 C81.9825532,130.45422 80.2486879,136.452943 86.4951064,138.830816 C92.7415248,141.208688 95.4526596,135.570248 96.132695,133.786844 L96.132695,133.786844 C96.8836967,131.86996 96.9283938,129.748445 96.2587943,127.801631 C95.5939651,125.917358 94.1198938,124.430066 92.2416312,123.74844 C91.4054113,123.423963 90.5174884,123.253091 89.6205674,123.24404 L89.5980496,123.24404 Z" id="Shape"></path>
                    <path d="M72.9169149,134.656028 C71.3746592,134.641177 69.8482125,134.34352 68.4133688,133.777837 C60.8519149,130.900071 59.7305319,123.671879 61.9732979,117.785745 C63.0434739,114.853296 65.1176292,112.394625 67.8279078,110.84578 C70.760996,109.28866 74.2229223,109.071339 77.3277124,110.249434 C80.4325025,111.42753 82.8788451,113.88671 84.0406738,116.997624 C85.0881331,119.959772 85.0353843,123.19983 83.8920567,126.126312 L83.8920567,126.126312 C82.1041489,130.778475 78.204078,134.656028 72.9169149,134.656028 Z M73.1285816,113.980248 C69.800461,113.980248 67.2739716,116.515745 66.1976241,119.384504 C65.5175887,121.185922 63.7792199,127.184645 70.0301418,129.567021 C76.2810638,131.949397 78.987695,126.306454 79.6677305,124.518546 L79.6677305,124.518546 C80.4187322,122.601662 80.4634293,120.480148 79.7938298,118.533333 C79.1295547,116.648712 77.6552816,115.161217 75.7766667,114.480142 C74.932211,114.152127 74.0345028,113.982662 73.1285816,113.980248 L73.1285816,113.980248 Z" id="Shape"></path>
                    <path d="M58.1632979,120.591454 C56.6209801,120.577215 55.0944229,120.279536 53.6597518,119.713262 C46.0982979,116.830993 44.9769149,109.607305 47.2196809,103.72117 C48.2908824,100.789317 50.3647711,98.3309609 53.0742908,96.7812057 C56.0050729,95.2305647 59.4615918,95.0168123 62.561097,96.1945381 C65.6606023,97.3722639 68.1030021,99.8274413 69.264539,102.93305 C70.3148285,105.894735 70.2620631,109.13581 69.115922,112.061738 L69.115922,112.061738 C67.3550355,116.713901 63.4549645,120.591454 58.1632979,120.591454 Z M58.3794681,99.9156738 C55.0513475,99.9156738 52.5248582,102.45117 51.4440071,105.319929 C50.7639716,107.121348 49.0301064,113.120071 55.2810284,115.502447 C61.5319504,117.884823 64.2385816,112.241879 64.918617,110.453972 L64.918617,110.453972 C65.6649531,108.536158 65.7096152,106.416305 65.0447163,104.468759 C64.3787817,102.585179 62.9051126,101.098293 61.0275532,100.415567 C60.1830975,100.087553 59.2853893,99.9180873 58.3794681,99.9156738 L58.3794681,99.9156738 Z" id="Shape"></path>
                    <path d="M129.251773,13.0602837 C128.863418,13.0598749 128.48177,12.9590328 128.143901,12.7675532 C115.741135,5.76003546 102.739397,11.5921277 102.613298,11.6551773 C101.482847,12.1750104 100.145028,11.6800072 99.625195,10.5495567 C99.1053619,9.41910623 99.6003651,8.08128703 100.730816,7.5614539 C101.343298,7.2777305 115.975319,0.720567376 130.359645,8.84946809 C131.248853,9.35340398 131.687129,10.3930199 131.42707,11.3814584 C131.16701,12.3698969 130.27385,13.0592097 129.251773,13.0602837 L129.251773,13.0602837 Z" id="Path"></path>
                    <path d="M39.4870922,85.5268441 C39.2130648,85.5268441 38.9414025,85.4761302 38.685461,85.378227 L27.7463475,81.1944326 C26.7105631,80.6753589 26.2377013,79.4550392 26.653292,78.373572 C27.0688828,77.2921049 28.2372729,76.7024923 29.3541135,77.0106383 L38.1900709,80.3928014 L59.6449645,24.2741135 L50.8090071,20.8964539 C49.6650584,20.4407976 49.0992633,19.1507632 49.5389008,18.0005632 C49.9785383,16.8503632 51.260546,16.2666089 52.416773,16.6901418 L63.3558865,20.8739362 C63.9137782,21.0876084 64.3638945,21.5142195 64.6071526,22.0598609 C64.8504106,22.6055022 64.8668701,23.2254464 64.6529078,23.783227 L41.5902482,84.0812057 C41.2563015,84.9521927 40.4199045,85.5268441 39.4870922,85.5268441 L39.4870922,85.5268441 Z" id="Path"></path>
                    <path d="M26.2646809,86.0627686 C25.9906535,86.0627686 25.7189912,86.0120522 25.4630496,85.9141489 L1.48617021,76.7404255 C0.337140309,76.2972361 -0.242693727,75.0131746 0.18464539,73.858156 L27.8274113,1.5627305 C28.0410836,1.00483879 28.4676947,0.554722513 29.0133361,0.311464448 C29.5589774,0.0682063833 30.1789216,0.0517469155 30.7367021,0.26570922 L54.709078,9.45744681 C55.2677886,9.67023701 55.7189417,10.0964805 55.9630876,10.6422185 C56.2072335,11.1879564 56.224328,11.808384 56.0106028,12.3667376 L28.3723404,84.6126241 C28.0392704,85.4869229 27.2002727,86.0641821 26.2646809,86.0627686 Z M5.1970922,73.3402482 L24.9676596,80.9017021 L50.998156,12.8396099 L31.2275887,5.27815603 L5.1970922,73.3402482 Z" id="Shape"></path>
                    <path d="M182.974574,85.526844 C182.041762,85.5271037 181.205365,84.9521927 180.871418,84.0812057 L157.808759,23.783227 C157.595034,23.2248734 157.612128,22.6044458 157.856274,22.0587078 C158.10042,21.5129699 158.551573,21.0867264 159.110284,20.8739362 L170.044894,16.6901418 C170.79923,16.3896754 171.656911,16.5185971 172.28958,17.0275506 C172.922249,17.536504 173.231911,18.3466562 173.100015,19.1478472 C172.968118,19.9490383 172.415093,20.61717 171.65266,20.8964539 L162.821206,24.2741135 L184.276099,80.3702837 L193.107553,77.0106383 C193.86189,76.7101718 194.719571,76.8390936 195.35224,77.348047 C195.984909,77.8570005 196.294571,78.6671526 196.162674,79.4683437 C196.030778,80.2695348 195.477752,80.9376665 194.715319,81.2169504 L183.780709,85.4007447 C183.522198,85.4926248 183.248795,85.5353918 182.974574,85.526844 Z" id="Path"></path>
                    <path d="M196.196986,86.0635877 C195.26304,86.0623121 194.426314,85.4853832 194.09383,84.6126241 L166.455567,12.3442199 C166.241605,11.7864393 166.258065,11.1664951 166.501323,10.6208538 C166.744581,10.0752124 167.194697,9.64860131 167.752589,9.43492908 L191.729468,0.26570922 C192.287249,0.0517469155 192.907193,0.0682063833 193.452834,0.311464448 C193.998476,0.554722513 194.425087,1.00483879 194.638759,1.5627305 L222.277021,73.858156 C222.719608,75.0184153 222.139344,76.3179649 220.98,76.7629433 L197.003121,85.9366667 C196.74433,86.0274395 196.471134,86.0701741 196.196986,86.0635877 Z M171.463511,12.8396099 L197.498511,80.9017021 L217.269078,73.3402482 L191.234078,5.27815603 L171.463511,12.8396099 Z" id="Shape"></path>
                    <path d="M203.353121,69.5888093 C202.398747,69.587573 201.548802,68.9848522 201.23195,68.0846099 L200.182624,65.1122695 C199.914732,64.3536439 200.071911,63.5097261 200.594954,62.8984119 C201.117997,62.2870977 201.927441,62.0012601 202.718376,62.1485715 C203.509311,62.2958829 204.161576,62.853963 204.429468,63.6125887 L205.478794,66.5849291 C205.677707,67.1480938 205.644736,67.7672135 205.387134,68.3060661 C205.129532,68.8449187 204.668405,69.2593561 204.105213,69.4581915 C203.864125,69.5455351 203.609541,69.5897444 203.353121,69.5888093 L203.353121,69.5888093 Z" id="Path"></path>
                    <path d="M19.0094681,69.5887943 C18.7545521,69.58931 18.5015215,69.5451059 18.2618794,69.4581915 C17.0980345,69.0349191 16.4944312,67.751256 16.9108156,66.5849291 L17.9601418,63.6125887 C18.228034,62.853963 18.8802986,62.2958829 19.6712337,62.1485715 C20.4621688,62.0012601 21.2716127,62.2870977 21.7946557,62.8984119 C22.3176986,63.5097261 22.474878,64.3536439 22.2069858,65.1122695 L21.1576596,68.0846099 C20.8375557,68.9942664 19.9737476,69.5991132 19.0094681,69.5887943 Z" id="Path"></path>
                </g>
            </g>
        </g>
    </g>
</svg>