<?xml version="1.0" encoding="UTF-8"?>
<svg width="221px" height="221px" viewBox="0 0 221 221" version="1.1" xmlns="http://www.w3.org/2000/svg" xmlns:xlink="http://www.w3.org/1999/xlink">
    <title>7063369_chat_message_talk_bubble_icon</title>
    <g id="Style-guide" stroke="none" stroke-width="1" fill="none" fill-rule="evenodd">
        <g id="Styleguide" transform="translate(-397.000000, -12749.000000)" fill-rule="nonzero">
            <g id="7063369_chat_message_talk_bubble_icon" transform="translate(397.000000, 12749.000000)">
                <g id="Colors" transform="translate(2.251773, 1.801418)">
                    <path d="M20.6217376,110.183759 C8.01180851,98.5285816 0.355780142,83.1039362 0.355780142,66.1841135 C0.355780142,29.8675177 35.7266312,0.432340426 79.3614894,0.432340426 C122.996348,0.432340426 158.349184,29.8675177 158.349184,66.2021277 C158.349184,102.536738 122.97383,131.953901 79.3389716,131.953901 C68.4961703,131.98348 57.7325606,130.106974 47.5394326,126.410035 L19.9597163,142.762411 L20.6217376,110.183759 Z" id="Path" fill="#B9DDFC"></path>
                    <g id="Group" opacity="0.5" transform="translate(0.900709, 0.450355)" fill="#FFFFFF">
                        <path d="M0.409822695,65.751773 C0.409822695,65.751773 11.2183333,8.55673759 79.9064184,8.55673759 C148.594504,8.55673759 157.443972,67.697305 157.443972,67.697305 C157.443972,67.697305 154.471631,-3.90396299e-05 79.9064184,-3.90396299e-05 C0.409822695,-0.0585460993 0.409822695,65.751773 0.409822695,65.751773 Z" id="Path"></path>
                    </g>
                    <g id="Group" opacity="0.15" transform="translate(0.900709, 63.950355)" fill="#3F456B">
                        <path d="M34.5827305,59.0459929 L20.3875532,78.005922 L46.0892908,63.4684752 C56.3775278,66.7632779 67.1484083,68.2965372 77.9473759,68.0035461 C156.462199,66.2831915 157.448475,2.25177305 157.448475,2.25177305 C157.448475,2.25177305 146.639965,61.3653191 77.9473759,61.3653191 C9.25478723,61.3653191 0.414326241,0.274716312 0.414326241,0.274716312 C0.414326241,0.274716312 -5.49432624,33.0920567 34.5827305,59.0459929 Z" id="Path"></path>
                    </g>
                    <path d="M195.931277,183.519504 C208.586241,171.810284 216.287305,156.34961 216.287305,139.384752 C216.287305,102.942057 180.790355,73.3987943 137.024894,73.3987943 C93.2594326,73.3987943 57.7399645,102.942057 57.7399645,139.384752 C57.7399645,175.827447 93.2234043,205.361702 137.006879,205.361702 C147.88654,205.392286 158.686844,203.509665 168.914504,199.799823 L196.588794,216.197234 L195.931277,183.519504 Z" id="Path" fill="#9ED8CD"></path>
                    <g id="Group" opacity="0.5" transform="translate(57.645390, 73.407801)" fill="#FFFFFF">
                        <path d="M157.660142,65.9634397 C157.660142,65.9634397 146.815603,8.57925532 77.9113475,8.57925532 C9.0070922,8.57925532 0.10358156,67.9359929 0.10358156,67.9359929 C0.10358156,67.9359929 3.04439716,-3.89145427e-05 77.9113475,-3.89145427e-05 C157.660142,-0.0585460993 157.660142,65.9634397 157.660142,65.9634397 Z" id="Path"></path>
                    </g>
                    <g id="Group" opacity="0.15" transform="translate(57.645390, 137.358156)" fill="#3F456B">
                        <path d="M123.370142,59.0234752 L137.614858,78.0464539 L111.82305,63.4594681 C101.496666,66.7638883 90.685935,68.2987075 79.8478723,67.9990426 C1.06283688,66.2741844 0.0720567376,2.01308511 0.0720567376,2.01308511 C0.0720567376,2.01308511 10.9075887,61.3292908 79.8478723,61.3292908 C148.788156,61.3292908 157.660142,0.045035461 157.660142,0.045035461 C157.660142,0.045035461 163.586809,32.9794681 123.370142,59.0234752 Z" id="Path"></path>
                    </g>
                    <g id="Group" opacity="0.3" transform="translate(89.620567, 111.687943)" fill="#3F456B">
                        <path d="M92.4397872,4.55308511 L2.36886525,4.55308511 C1.12524533,4.55308511 0.117092199,3.54493197 0.117092199,2.30131206 C0.117092199,1.05769214 1.12524533,0.0495390071 2.36886525,0.0495390071 L92.4397872,0.0495390071 C93.6834071,0.0495390071 94.6915603,1.05769214 94.6915603,2.30131206 C94.6915603,3.54493197 93.6834071,4.55308511 92.4397872,4.55308511 L92.4397872,4.55308511 Z" id="Path"></path>
                        <path d="M92.4397872,22.7564184 L2.36886525,22.7564184 C1.12524533,22.7564184 0.117092199,21.7482653 0.117092199,20.5046454 C0.117092199,19.2610255 1.12524533,18.2528723 2.36886525,18.2528723 L92.4397872,18.2528723 C93.6834071,18.2528723 94.6915603,19.2610255 94.6915603,20.5046454 C94.6915603,21.7482653 93.6834071,22.7564184 92.4397872,22.7564184 L92.4397872,22.7564184 Z" id="Path"></path>
                        <path d="M92.4397872,40.9822695 L2.36886525,40.9822695 C1.12524533,40.9822695 0.117092199,39.9741164 0.117092199,38.7304965 C0.117092199,37.4868765 1.12524533,36.4787234 2.36886525,36.4787234 L92.4397872,36.4787234 C93.6834071,36.4787234 94.6915603,37.4868765 94.6915603,38.7304965 C94.6915603,39.9741164 93.6834071,40.9822695 92.4397872,40.9822695 L92.4397872,40.9822695 Z" id="Path"></path>
                        <path d="M47.6610284,59.352234 L2.36886525,59.352234 C1.12524533,59.352234 0.117092199,58.3440809 0.117092199,57.100461 C0.117092199,55.8568411 1.12524533,54.8486879 2.36886525,54.8486879 L47.6610284,54.8486879 C48.9046483,54.8486879 49.9128014,55.8568411 49.9128014,57.100461 C49.9128014,58.3440809 48.9046483,59.352234 47.6610284,59.352234 L47.6610284,59.352234 Z" id="Path"></path>
                    </g>
                    <g id="Group" opacity="0.3" transform="translate(32.425532, 35.127660)" fill="#3F456B">
                        <path d="M92.4397872,4.55308511 L2.36886525,4.55308511 C1.12524533,4.55308511 0.117092199,3.54493197 0.117092199,2.30131206 C0.117092199,1.05769214 1.12524533,0.0495390071 2.36886525,0.0495390071 L92.4397872,0.0495390071 C93.6834071,0.0495390071 94.6915603,1.05769214 94.6915603,2.30131206 C94.6915603,3.54493197 93.6834071,4.55308511 92.4397872,4.55308511 Z" id="Path"></path>
                        <path d="M92.4397872,22.7564184 L2.36886525,22.7564184 C1.12524533,22.7564184 0.117092199,21.7482653 0.117092199,20.5046454 C0.117092199,19.2610255 1.12524533,18.2528723 2.36886525,18.2528723 L92.4397872,18.2528723 C93.6834071,18.2528723 94.6915603,19.2610255 94.6915603,20.5046454 C94.6915603,21.7482653 93.6834071,22.7564184 92.4397872,22.7564184 L92.4397872,22.7564184 Z" id="Path"></path>
                        <path d="M54.2677305,40.9822695 L2.36886525,40.9822695 C1.12524533,40.9822695 0.117092199,39.9741164 0.117092199,38.7304965 C0.117092199,37.4868765 1.12524533,36.4787234 2.36886525,36.4787234 L54.2677305,36.4787234 C55.5113504,36.4787234 56.5195035,37.4868765 56.5195035,38.7304965 C56.5195035,39.9741164 55.5113504,40.9822695 54.2677305,40.9822695 L54.2677305,40.9822695 Z" id="Path"></path>
                        <path d="M32.6507092,59.352234 L2.36886525,59.352234 C1.12524533,59.352234 0.117092199,58.3440809 0.117092199,57.100461 C0.117092199,55.8568411 1.12524533,54.8486879 2.36886525,54.8486879 L32.6507092,54.8486879 C33.8943291,54.8486879 34.9024823,55.8568411 34.9024823,57.100461 C34.9024823,58.3440809 33.8943291,59.352234 32.6507092,59.352234 Z" id="Path"></path>
                    </g>
                </g>
                <g id="Lines" fill="#3F456B">
                    <path d="M22.2114894,146.815603 C21.6063966,146.815603 21.0267171,146.572312 20.603109,146.140232 C20.1795008,145.708151 19.9476144,145.123766 19.9597163,144.518794 L20.5947163,112.962447 C7.53443262,100.541667 0.328758865,84.6171277 0.328758865,68.0080496 C0.328758865,30.5070213 36.780461,0.0045035461 81.5862411,0.0045035461 C126.392021,0.0045035461 162.85273,30.4845035 162.85273,68.0035461 C162.85041,71.1723316 162.58681,74.3355306 162.06461,77.4609929 C161.949138,78.270197 161.404216,78.953278 160.640899,79.2456702 C159.877583,79.5380624 159.015759,79.3938424 158.389223,78.8688684 C157.762687,78.3438944 157.469843,77.5206193 157.624113,76.7179078 C158.104932,73.8379896 158.347444,70.9233257 158.349184,68.0035461 C158.349184,32.9884752 123.915071,4.5035461 81.5907447,4.5035461 C39.2664184,4.5035461 4.83680851,32.970461 4.83680851,68.0035461 C4.83680851,83.6533688 11.7857801,98.6907092 24.4002128,110.336879 C24.8746487,110.774229 25.1386663,111.394096 25.1252837,112.03922 L24.5443262,140.542163 L48.6382979,126.265922 C49.219699,125.920059 49.9257911,125.853915 50.5613121,126.08578 C54.0763413,127.366181 57.6700829,128.419182 61.3202837,129.238262 C62.1266506,129.393924 62.7843233,129.976242 63.0364835,130.757826 C63.2886437,131.53941 63.0952962,132.396291 62.5319422,132.993862 C61.9685883,133.591432 61.1245817,133.83491 60.3295035,133.62922 C56.8388384,132.839961 53.3968595,131.849019 50.0208865,130.661383 L23.3598936,146.477837 C23.0153308,146.693655 22.6180296,146.810508 22.2114894,146.815603 Z" id="Path"></path>
                    <path d="M198.840567,220.245922 C198.437668,220.247014 198.042126,220.138007 197.696667,219.930674 L170.932092,204.073688 C160.755137,207.643468 150.043482,209.449813 139.258652,209.414894 C94.2997518,209.414894 57.7219504,178.79078 57.7219504,141.177163 C57.7219504,103.563546 94.2997518,72.9574468 139.258652,72.9574468 C184.217553,72.9574468 220.772837,103.58156 220.772837,141.195177 C220.772837,157.858298 213.567163,173.841383 200.434823,186.302695 L201.09234,217.971631 C201.104442,218.576603 200.872556,219.160988 200.448948,219.593069 C200.02534,220.025149 199.44566,220.26844 198.840567,220.26844 L198.840567,220.245922 Z M171.17078,199.344965 C171.573407,199.34589 171.968422,199.454752 172.314681,199.660213 L196.50773,213.995 L195.931277,185.370461 C195.91674,184.726035 196.179071,184.106277 196.651844,183.668121 C209.315816,171.958901 216.287305,156.876525 216.287305,141.17266 C216.287305,106.045 181.731596,77.4384752 139.276667,77.4384752 C96.8217376,77.4384752 62.2254965,106.031489 62.2254965,141.17266 C62.2254965,176.31383 96.7812057,204.911348 139.258652,204.911348 C149.874831,204.954567 160.415442,203.125129 170.39617,199.507092 C170.642318,199.406236 170.904847,199.351288 171.17078,199.344965 L171.17078,199.344965 Z" id="Shape"></path>
                </g>
            </g>
        </g>
    </g>
</svg>