<?xml version="1.0" encoding="UTF-8"?>
<svg width="244px" height="243px" viewBox="0 0 244 243" version="1.1" xmlns="http://www.w3.org/2000/svg" xmlns:xlink="http://www.w3.org/1999/xlink">
    <title>4755483_highway_overpass_road_icon</title>
    <g id="Style-guide" stroke="none" stroke-width="1" fill="none" fill-rule="evenodd">
        <g id="Styleguide" transform="translate(-1072.000000, -13728.000000)" fill-rule="nonzero">
            <g id="4755483_highway_overpass_road_icon" transform="translate(1072.000000, 13728.000000)">
                <g id="Colors" transform="translate(14.812322, 13.824834)" fill="#B3E5D7">
                    <circle id="Oval" cx="107.53894" cy="107.434266" r="107.382917"></circle>
                </g>
                <g id="Lines">
                    <path d="M183.445178,239.798658 C151.672747,239.798658 125.904738,213.949674 125.904738,182.177737 L125.904738,155.035638 L118.004833,155.035638 L118.004833,182.177737 C118.004833,213.950168 92.2220112,239.798658 60.450074,239.798658 C28.6781368,239.798658 2.86223438,213.884006 2.86223438,182.111575 C2.86223438,150.338157 28.7438048,124.423506 60.515742,124.423506 L87.8864445,124.423506 L87.8864445,117.511089 L60.515742,117.511089 C28.7438048,117.511089 2.89482148,91.7623354 2.89482148,59.9899045 C2.89482148,28.2174736 28.6776431,2.41835846 60.450074,2.41835846 C92.2225049,2.41835846 118.004833,28.3177037 118.004833,60.0891471 L118.004833,86.8989564 L125.904738,86.8989564 L125.904738,60.0891471 C125.904738,28.3177037 151.672747,2.46872035 183.445178,2.46872035 C215.217609,2.46872035 241.026105,28.2174736 241.026105,59.9899045 C241.026105,91.7623354 215.137129,117.511089 183.365192,117.511089 L156.023126,117.511089 L156.023126,124.423506 L183.365192,124.423506 C215.137129,124.423506 241.026105,150.338157 241.026105,182.111575 C241.026105,213.884006 215.217609,239.798658 183.445178,239.798658 Z M156.023126,155.035638 L156.023126,182.177737 C156.023126,197.172251 168.295629,209.371679 183.291624,209.371679 C198.286137,209.371679 210.522103,197.197925 210.522103,182.203412 C210.522103,167.208898 198.359705,155.035638 183.365192,155.035638 L156.023126,155.035638 M60.515742,155.035638 C45.5212283,155.035638 33.3217998,167.208404 33.3217998,182.202918 C33.3217998,197.197432 45.6091147,209.384517 60.6036284,209.384517 C75.5981421,209.384517 87.8864445,197.172251 87.8864445,182.177737 L87.8864445,155.035638 L60.515742,155.035638 Z M118.004833,124.423506 L125.904738,124.423506 L125.904738,117.511089 L118.004833,117.511089 L118.004833,124.423506 Z M156.023126,86.8989564 L183.365192,86.8989564 C198.359705,86.8989564 210.559134,74.8920881 210.559134,59.8970806 C210.559134,44.9020732 198.286137,32.7994186 183.291624,32.7994186 C168.296123,32.7994186 156.023126,45.0946334 156.023126,60.0891471 L156.023126,86.8989564 Z M60.6041222,32.8952049 C45.6096085,32.8952049 33.365743,44.902567 33.365743,59.8970806 C33.365743,74.8915943 45.5212283,86.8989564 60.515742,86.8989564 L87.8864445,86.8989564 L87.8864445,60.0891471 C87.8864445,45.0946334 75.5986358,32.8952049 60.6041222,32.8952049 Z" id="Shape" fill="#989AA5"></path>
                    <g id="Group" transform="translate(116.029856, 87.392700)" fill="#6F737F">
                        <rect id="Rectangle" x="39.4995256" y="0" width="9.38113733" height="29.1309001"></rect>
                        <rect id="Rectangle" x="0" y="0" width="9.38113733" height="29.1309001"></rect>
                    </g>
                    <g id="Group" transform="translate(116.029856, 125.904738)" fill="#6F737F">
                        <rect id="Rectangle" x="39.4995256" y="0" width="9.38113733" height="29.1309001"></rect>
                        <rect id="Rectangle" x="0" y="0" width="9.38113733" height="29.1309001"></rect>
                    </g>
                    <path d="M60.2027082,242.267378 C44.175282,242.267378 29.1200378,236.044228 17.8108298,224.744401 C6.4991532,213.441612 0.269584262,198.392292 0.269584262,182.368322 C0.269584262,174.615059 1.76661628,167.025225 4.71920582,159.810143 C9.84377553,147.811669 18.3633295,139.616998 18.7237626,139.273352 C30.0176645,128.42382 44.8596112,122.448529 60.515742,122.448529 L84.9239801,122.448529 L84.9239801,120.473553 L60.515742,120.473553 C27.3825524,120.473553 0.426594877,93.4514339 0.426594877,60.2367766 C0.426594877,48.5740479 3.59692555,37.5176369 9.59443477,28.2638856 C20.2257321,11.8607201 33.6481646,6.2572186 35.0548415,5.70471899 C42.9957274,1.9818887 51.4555383,0.0947988615 60.2027082,0.0947988615 C76.2177909,0.0947988615 91.2468666,6.33720514 102.521512,17.6711003 C113.779371,28.9882081 119.979809,44.0528334 119.979809,60.0891471 L119.979809,84.9239801 L122.942273,84.9239801 L122.942273,60.0891471 C122.942273,42.0437888 130.497052,25.5354558 143.669156,14.797016 C151.818402,8.15319583 161.312113,4.1217755 161.712045,3.95340877 C161.738708,3.9425464 161.764382,3.93168403 161.791538,3.92180915 C168.626931,1.31928416 175.82177,0 183.174606,0 C216.36112,0 243.360034,27.0221192 243.360034,60.2367766 C243.360034,93.4514339 216.446538,120.473553 183.365192,120.473553 L158.491847,120.473553 L158.491847,122.448529 L183.365192,122.448529 C216.446538,122.448529 243.360034,149.324007 243.360034,182.358447 C243.360034,215.389432 216.371983,242.26244 183.198306,242.26244 C149.972786,242.26244 122.942273,215.308458 122.942273,182.177737 L122.942273,157.998102 L119.979809,157.998102 L119.979809,182.177737 C119.979809,215.310927 93.1640749,242.267378 60.2027082,242.267378 Z M22.1286217,142.848553 C21.9809923,142.990258 13.9512324,150.763764 9.27399487,161.71402 C6.57963348,168.298098 5.20653122,175.258901 5.20653122,182.367829 C5.20653122,197.072514 10.9221126,210.881549 21.3006129,221.251162 C31.6771383,231.619787 45.4930849,237.329443 60.2027082,237.329443 C90.4415701,237.329443 115.042368,212.588422 115.042368,182.177243 L115.042368,155.529382 C115.042368,154.165661 116.147368,153.060662 117.511089,153.060662 L125.410994,153.060662 C126.774715,153.060662 127.879714,154.165661 127.879714,155.529382 L127.879714,182.177737 C127.879714,212.585953 152.695785,237.325 183.198306,237.325 C213.648984,237.325 238.422593,212.667421 238.422593,182.358447 C238.422593,152.046511 213.724033,127.38597 183.365192,127.38597 L158.491847,127.38597 L158.491847,153.060662 L183.365192,153.060662 C187.241083,153.060662 191.549493,153.918295 195.186412,155.414833 C209.025071,161.10869 216.240647,177.531605 211.269631,192.023981 C207.331035,203.506493 195.564126,211.840893 183.290636,211.840893 C166.893889,211.840893 153.553912,198.534491 153.553912,182.178231 L153.553912,60.0891471 C153.553912,43.7481933 166.893889,30.4541343 183.290636,30.4541343 C199.687877,30.4541343 213.027854,43.7733743 213.027854,60.1444464 C213.027854,76.5308246 199.721451,89.8619145 183.365192,89.8619145 L158.491847,89.8619145 L158.491847,115.536606 L183.365192,115.536606 C213.723539,115.536606 238.422593,90.7294229 238.422593,60.2372703 C238.422593,29.7451178 213.638122,4.9374407 183.174606,4.9374407 C176.439443,4.9374407 169.85191,6.14217623 163.592223,8.51906019 C162.966649,8.78765696 154.135543,12.6339233 146.788631,18.6235326 C134.771888,28.4208962 127.879714,43.5344022 127.879714,60.0891471 L127.879714,87.3927004 C127.879714,88.7564215 126.774715,89.8614208 125.410994,89.8614208 L117.511089,89.8614208 C116.147368,89.8614208 115.042368,88.7564215 115.042368,87.3927004 L115.042368,60.0891471 C115.042368,45.3666864 109.352955,31.5383962 99.0213608,21.1529835 C88.680385,10.7572021 74.894063,5.03223956 60.2027082,5.03223956 C52.1591236,5.03223956 44.3787045,6.77416864 37.077711,10.2096399 C37.0184617,10.2372896 36.9582249,10.2624705 36.8970006,10.2856765 C32.410842,11.9999559 21.7889258,18.5267587 13.7374413,30.9498533 C8.25935081,39.4017643 5.36354183,49.5294427 5.36354183,60.2367766 C5.36354183,90.7289291 30.1045634,115.536112 60.515742,115.536112 L84.9239801,115.536112 L84.9239801,89.8614208 L60.515742,89.8614208 C44.1160327,89.8614208 30.7735867,76.5303309 30.7735867,60.1439527 C30.7735867,43.7575745 44.0444398,30.4264846 60.3572501,30.4264846 C76.6261172,30.4264846 89.8614208,43.7328873 89.8614208,60.0891471 L89.8614208,182.177737 C89.8614208,198.609046 76.6261172,211.977167 60.3572501,211.977167 C44.0888767,211.977167 30.8535732,198.731988 30.8535732,182.451271 C30.8535732,166.245603 44.1599759,153.061156 60.5162357,153.061156 L84.9239801,153.061156 L84.9239801,127.386464 L60.515742,127.386464 C46.1374209,127.386464 32.5076158,132.874923 22.1365216,142.841641 C22.1340529,142.843616 22.1315842,142.846084 22.1286217,142.848553 L22.1286217,142.848553 Z M60.515742,157.998102 C46.8824807,157.998102 35.7905202,168.967614 35.7905202,182.450778 C35.7905202,196.00899 46.8108878,207.039232 60.3567564,207.039232 C73.9031187,207.039232 84.9234863,195.886047 84.9234863,182.177243 L84.9234863,157.998102 L60.515742,157.998102 Z M158.491847,157.998102 L158.491847,182.177737 C158.491847,195.810998 169.616394,206.902959 183.29113,206.902959 C193.356597,206.902959 203.377132,199.817238 206.5998,190.421782 C210.738363,178.35517 204.775909,164.698703 193.30821,159.980979 C190.290446,158.739212 186.573047,157.998102 183.365192,157.998102 L158.491847,157.998102 L158.491847,157.998102 Z M158.491847,84.9239801 L183.365192,84.9239801 C196.998453,84.9239801 208.090413,73.8078261 208.090413,60.1439527 C208.090413,46.4948916 196.965372,35.3910812 183.290636,35.3910812 C169.6159,35.3910812 158.491847,46.4706981 158.491847,60.0891471 L158.491847,84.9239801 Z M60.3572501,35.3639253 C46.7674383,35.3639253 35.7110274,46.480573 35.7110274,60.1439527 C35.7110274,73.8073323 46.8385375,84.9239801 60.515742,84.9239801 L84.9239801,84.9239801 L84.9239801,60.0891471 C84.9239801,46.4558858 73.9036124,35.3639253 60.3572501,35.3639253 Z M125.410994,127.38597 L117.511089,127.38597 C116.147368,127.38597 115.042368,126.280971 115.042368,124.91725 L115.042368,118.004833 C115.042368,116.641112 116.147368,115.536112 117.511089,115.536112 L125.410994,115.536112 C126.774715,115.536112 127.879714,116.641112 127.879714,118.004833 L127.879714,124.91725 C127.879714,126.280971 126.774715,127.38597 125.410994,127.38597 Z M119.979809,122.448529 L122.942273,122.448529 L122.942273,120.473553 L119.979809,120.473553 L119.979809,122.448529 Z" id="Shape" fill="#3F456B"></path>
                    <path d="M117.511089,159.479335 C116.147368,159.479335 115.042368,158.374335 115.042368,157.010614 L115.042368,86.8989564 C115.042368,85.5352352 116.147368,84.430236 117.511089,84.430236 C118.87481,84.430236 119.979809,85.5352352 119.979809,86.8989564 L119.979809,157.010614 C119.979809,158.374335 118.87481,159.479335 117.511089,159.479335 Z" id="Path" fill="#3F456B"></path>
                    <path d="M125.410994,159.479335 C124.047273,159.479335 122.942273,158.374335 122.942273,157.010614 L122.942273,86.8989564 C122.942273,85.5352352 124.047273,84.430236 125.410994,84.430236 C126.774715,84.430236 127.879714,85.5352352 127.879714,86.8989564 L127.879714,157.010614 C127.879714,158.374335 126.774715,159.479335 125.410994,159.479335 Z" id="Path" fill="#3F456B"></path>
                    <g id="Group" transform="translate(166.391752, 41.968246)">
                        <circle id="Oval" fill="#117C71" cx="16.9102407" cy="17.1393379" r="14.2306916"></circle>
                        <circle id="Oval" fill="#279688" cx="13.2491284" cy="13.4787194" r="7.16669518"></circle>
                        <path d="M16.9102407,33.8387499 C7.7024075,33.8387499 0.210828718,26.3471711 0.210828718,17.1393379 C0.210828718,7.93150474 7.7024075,0.440419711 16.9102407,0.440419711 C26.1180738,0.440419711 33.6091589,7.93150474 33.6091589,17.1393379 C33.6091589,26.3471711 26.1180738,33.8387499 16.9102407,33.8387499 Z M16.9102407,5.37786041 C10.4244186,5.37786041 5.14826942,10.6545033 5.14826942,17.1393379 C5.14826942,23.62516 10.4249123,28.9013091 16.9102407,28.9013091 C23.395569,28.9013091 28.6717182,23.6246663 28.6717182,17.1393379 C28.6717182,10.6540095 23.395569,5.37786041 16.9102407,5.37786041 Z" id="Shape" fill="#3F456B"></path>
                    </g>
                    <g id="Group" transform="translate(42.955734, 41.968246)">
                        <circle id="Oval" fill="#117C71" cx="17.1166257" cy="17.1393379" r="14.2306916"></circle>
                        <circle id="Oval" fill="#279688" cx="13.4560071" cy="13.4787194" r="7.16669518"></circle>
                        <path d="M17.1166257,33.8387499 C7.90829877,33.8387499 0.417213739,26.3471711 0.417213739,17.1393379 C0.417213739,7.93150474 7.90829877,0.440419711 17.1166257,0.440419711 C26.3244588,0.440419711 33.8160376,7.93150474 33.8160376,17.1393379 C33.8160376,26.3471711 26.3249526,33.8387499 17.1166257,33.8387499 Z M17.1166257,5.37786041 C10.6308036,5.37786041 5.35465444,10.6545033 5.35465444,17.1393379 C5.35465444,23.62516 10.6312973,28.9013091 17.1166257,28.9013091 C23.601954,28.9013091 28.8785969,23.6246663 28.8785969,17.1393379 C28.8785969,10.6540095 23.6024478,5.37786041 17.1166257,5.37786041 Z" id="Shape" fill="#3F456B"></path>
                    </g>
                    <g id="Group" transform="translate(42.955734, 164.416775)">
                        <circle id="Oval" fill="#117C71" cx="17.1166257" cy="16.778411" r="14.2306916"></circle>
                        <circle id="Oval" fill="#279688" cx="13.4560071" cy="13.1177925" r="7.16669518"></circle>
                        <path d="M17.1166257,33.4783167 C7.90829877,33.4783167 0.417213739,25.9867379 0.417213739,16.7789047 C0.417213739,7.57107157 7.90829877,0.0794927953 17.1166257,0.0794927953 C26.3244588,0.0794927953 33.8160376,7.57107157 33.8160376,16.7789047 C33.8160376,25.9867379 26.3249526,33.4783167 17.1166257,33.4783167 Z M17.1166257,5.01643975 C10.6308036,5.01643975 5.35465444,10.2930826 5.35465444,16.778411 C5.35465444,23.2637394 10.6312973,28.5403822 17.1166257,28.5403822 C23.601954,28.5403822 28.8785969,23.2637394 28.8785969,16.778411 C28.8785969,10.2930826 23.6024478,5.01643975 17.1166257,5.01643975 Z" id="Shape" fill="#3F456B"></path>
                    </g>
                    <g id="Group" transform="translate(166.391752, 164.416775)">
                        <circle id="Oval" fill="#117C71" cx="16.9102407" cy="16.778411" r="14.2306916"></circle>
                        <circle id="Oval" fill="#279688" cx="13.2491284" cy="13.1177925" r="7.16669518"></circle>
                        <path d="M16.9102407,33.4783167 C7.7024075,33.4783167 0.210828718,25.9867379 0.210828718,16.7789047 C0.210828718,7.57107157 7.7024075,0.0794927953 16.9102407,0.0794927953 C26.1180738,0.0794927953 33.6091589,7.57107157 33.6091589,16.7789047 C33.6091589,25.9867379 26.1180738,33.4783167 16.9102407,33.4783167 Z M16.9102407,5.01643975 C10.4244186,5.01643975 5.14826942,10.2930826 5.14826942,16.778411 C5.14826942,23.2637394 10.4249123,28.5403822 16.9102407,28.5403822 C23.395569,28.5403822 28.6717182,23.2637394 28.6717182,16.778411 C28.6717182,10.2930826 23.395569,5.01643975 16.9102407,5.01643975 Z" id="Shape" fill="#3F456B"></path>
                    </g>
                    <path d="M13.1395172,53.1880862 C12.8373458,53.1880862 12.530237,53.1480929 12.2246094,53.0641565 C10.3834378,52.5600438 9.30016331,50.6591291 9.804276,48.8179575 C15.8052414,26.9065831 29.8749725,16.9818336 40.6218059,12.5149309 C52.1936857,7.70438247 62.3026018,8.07074057 62.7267279,8.08505915 C64.6335675,8.16504569 66.1147997,9.77613259 66.0348132,11.6829722 C65.9548266,13.5873431 64.3615145,15.067094 62.4438126,14.9915512 C62.3292639,14.98612 53.209811,14.7027109 43.0297957,19.0002593 C29.6053882,24.66696 20.669608,35.3130696 16.4713022,50.6433293 C16.0506322,52.1793671 14.658274,53.1880862 13.1395172,53.1880862 Z" id="Path" fill="#AEB0BA"></path>
                    <path d="M136.748839,53.3016474 C136.446668,53.3016474 136.139559,53.2616541 135.833931,53.1777176 C133.99276,52.6736049 132.908991,50.7726902 133.413598,48.9315186 C139.414069,27.0201442 153.484294,17.0953947 164.230634,12.6279983 C175.803995,7.81695612 185.914392,8.18331422 186.33605,8.19812654 C188.243383,8.27811308 189.724615,9.88919998 189.644629,11.7960396 C189.564642,13.7009042 187.936274,15.175224 186.053628,15.1046186 C185.938092,15.1016561 176.819133,14.8157783 166.639611,19.1133267 C153.215204,24.7805211 144.279423,35.4266308 140.080624,50.7568904 C139.65946,52.2929282 138.267596,53.3016474 136.748839,53.3016474 Z" id="Path" fill="#AEB0BA"></path>
                    <path d="M12.8615393,179.585581 C12.7297096,179.585581 12.5968925,179.577681 12.4630878,179.562375 C10.5666168,179.345127 9.20585819,177.631342 9.42310558,175.734871 C12.2507779,151.094573 32.5708151,139.030924 33.4343735,138.52928 C35.0849599,137.572404 37.2001595,138.13231 38.1590105,139.782896 C39.1163802,141.432001 38.5574619,143.544239 36.9108255,144.504077 C36.6555598,144.654669 18.7089503,155.449396 16.2905919,176.522392 C16.0886505,178.285059 14.5940872,179.585087 12.8615393,179.585581 Z" id="Path" fill="#AEB0BA"></path>
                    <path d="M96.7738378,127.38597 C94.8650232,127.38597 93.3176293,125.838576 93.3176293,123.929762 L93.3176293,65.6679613 C93.3176293,63.7591468 94.8650232,62.2117528 96.7738378,62.2117528 C98.6826523,62.2117528 100.230046,63.7591468 100.230046,65.6679613 L100.230046,123.929762 C100.230046,125.838576 98.6826523,127.38597 96.7738378,127.38597 Z" id="Path" fill="#AEB0BA"></path>
                    <path d="M185.662089,222.012515 C178.750166,222.012515 173.773226,220.145175 173.533266,220.053338 C171.750356,219.371478 170.857173,217.373789 171.53854,215.59088 C172.219907,213.809451 174.216608,212.917749 175.994086,213.593685 C176.937138,213.945724 197.796837,221.413603 210.99906,199.988073 C212.000373,198.362668 214.130385,197.857074 215.754803,198.858387 C217.380208,199.8597 217.885308,201.989218 216.884489,203.61413 C208.406903,217.372802 197.072514,221.130194 189.057567,221.859454 C187.885419,221.966597 186.749313,222.012515 185.662089,222.012515 Z" id="Path" fill="#AEB0BA"></path>
                    <circle id="Oval" fill="#AEB0BA" cx="11.8735574" cy="59.5193664" r="3.7094992"></circle>
                    <circle id="Oval" fill="#AEB0BA" cx="135.309575" cy="60.5068546" r="3.7094992"></circle>
                    <circle id="Oval" fill="#AEB0BA" cx="11.3798133" cy="185.917848" r="3.7094992"></circle>
                    <circle id="Oval" fill="#AEB0BA" cx="96.7975375" cy="134.568465" r="3.7094992"></circle>
                    <circle id="Oval" fill="#AEB0BA" cx="217.764835" cy="192.336521" r="3.7094992"></circle>
                </g>
            </g>
        </g>
    </g>
</svg>