<?xml version="1.0" encoding="UTF-8"?>
<svg width="216px" height="222px" viewBox="0 0 216 222" version="1.1" xmlns="http://www.w3.org/2000/svg" xmlns:xlink="http://www.w3.org/1999/xlink">
    <title>7238286_paint_painting_brush_art_icon</title>
    <g id="Style-guide" stroke="none" stroke-width="1" fill="none" fill-rule="evenodd">
        <g id="Styleguide" transform="translate(-679.000000, -12444.000000)" fill-rule="nonzero">
            <g id="7238286_paint_painting_brush_art_icon" transform="translate(679.000000, 12444.000000)">
                <g id="Colors" transform="translate(2.251773, 2.251773)">
                    <polygon id="Path" fill="#F5F6F7" points="173.161348 72.2819149 173.161348 158.75 28.822695 158.75 28.822695 158.074468 28.822695 72.2819149 28.822695 21.8421986 90.2960993 21.8421986 111.913121 21.8421986 173.161348 21.8421986"></polygon>
                    <rect id="Rectangle" fill="#BF8D77" x="90.2960993" y="0.225177305" width="21.6170213" height="21.6170213"></rect>
                    <polygon id="Path" fill="#BF8D77" points="187.572695 158.524823 187.572695 158.75 173.161348 158.75 173.161348 72.2819149 173.836879 72.2819149 187.572695 72.2819149"></polygon>
                    <polygon id="Path" fill="#BF8D77" points="28.822695 158.074468 28.822695 158.75 14.6365248 158.75 14.6365248 158.524823 14.6365248 72.2819149 28.3723404 72.2819149 28.822695 72.2819149"></polygon>
                    <polygon id="Path" fill="#BF8D77" points="36.2535461 194.890957 36.2535461 216.845745 14.6365248 216.845745 14.6365248 194.66578 36.2535461 194.66578"></polygon>
                    <polygon id="Path" fill="#BF8D77" points="112.138298 194.66578 112.138298 216.845745 90.5212766 216.845745 90.5212766 194.890957 90.5212766 194.66578"></polygon>
                    <polygon id="Path" fill="#BF8D77" points="187.572695 194.66578 187.572695 216.845745 165.955674 216.845745 165.955674 194.890957 165.955674 194.66578"></polygon>
                    <polygon id="Path" fill="#BF8D77" points="201.984043 180.443582 201.984043 194.66578 187.572695 194.66578 165.955674 194.66578 112.138298 194.66578 90.5212766 194.66578 36.2535461 194.66578 14.6365248 194.66578 0.225177305 194.66578 0.225177305 180.443582"></polygon>
                    <g id="Group" opacity="0.2" transform="translate(0.000000, 180.141844)" fill="#3F456B">
                        <polygon id="Path" points="201.984043 0.301737589 201.984043 14.5239362 187.572695 14.5239362 165.955674 14.5239362 112.138298 14.5239362 90.5212766 14.5239362 36.2535461 14.5239362 14.6365248 14.5239362 0.225177305 14.5239362 0.225177305 0.301737589"></polygon>
                    </g>
                    <g id="Group" opacity="0.2" transform="translate(14.411348, 194.553191)" fill="#3F456B">
                        <polygon id="Path" points="22.7429078 0.112588652 22.7429078 7.43085106 21.1351418 7.43085106 18.7212411 7.43085106 12.7135106 7.43085106 10.3041135 7.43085106 4.24684397 7.43085106 1.83294326 7.43085106 0.225177305 7.43085106 0.225177305 0.112588652"></polygon>
                    </g>
                    <g id="Group" opacity="0.2" transform="translate(89.620567, 194.553191)" fill="#3F456B">
                        <polygon id="Path" points="22.7429078 0.112588652 22.7429078 7.43085106 21.1351418 7.43085106 18.7212411 7.43085106 12.7135106 7.43085106 10.3041135 7.43085106 4.24684397 7.43085106 1.83294326 7.43085106 0.225177305 7.43085106 0.225177305 0.112588652"></polygon>
                    </g>
                    <g id="Group" opacity="0.1" transform="translate(28.822695, 151.319149)" fill="#3F456B">
                        <polygon id="Path" points="144.338652 0.112588652 144.338652 7.43085106 134.043546 7.43085106 118.60539 7.43085106 80.1631206 7.43085106 64.720461 7.43085106 25.9584397 7.43085106 10.5202837 7.43085106 0.225177305 7.43085106 0.225177305 0.112588652"></polygon>
                    </g>
                    <g id="Group" opacity="0.7" transform="translate(28.822695, 21.617021)" fill="#FFFFFF">
                        <polygon id="Path" points="144.338652 0.225177305 144.338652 7.54343972 134.043546 7.54343972 118.60539 7.54343972 80.1631206 7.54343972 64.720461 7.54343972 25.9584397 7.54343972 10.5202837 7.54343972 0.225177305 7.54343972 0.225177305 0.225177305"></polygon>
                    </g>
                    <g id="Group" opacity="0.2" transform="translate(165.280142, 194.553191)" fill="#3F456B">
                        <polygon id="Path" points="22.7429078 0.112588652 22.7429078 7.43085106 21.1351418 7.43085106 18.7212411 7.43085106 12.7135106 7.43085106 10.3041135 7.43085106 4.24684397 7.43085106 1.83294326 7.43085106 0.225177305 7.43085106 0.225177305 0.112588652"></polygon>
                    </g>
                    <g id="Group" opacity="0.2" transform="translate(172.936170, 151.319149)" fill="#3F456B">
                        <polygon id="Path" points="15.0868794 0.225177305 15.0868794 7.54343972 14.0240426 7.54343972 12.4342908 7.54343972 8.47117021 7.54343972 6.87691489 7.54343972 2.87776596 7.54343972 1.28801418 7.54343972 0.225177305 7.54343972 0.225177305 0.225177305"></polygon>
                    </g>
                    <g id="Group" opacity="0.2" transform="translate(172.936170, 72.056738)" fill="#3F456B">
                        <polygon id="Path" points="7.43085106 86.6932624 0.112588652 86.6932624 0.112588652 80.5189007 0.112588652 71.2551064 0.112588652 48.1879433 0.112588652 38.9241489 0.112588652 15.6678369 0.112588652 6.40404255 0.112588652 0.225177305 7.43085106 0.225177305"></polygon>
                    </g>
                    <g id="Group" opacity="0.2" transform="translate(13.960993, 151.319149)" fill="#3F456B">
                        <polygon id="Path" points="14.9742908 0.225177305 14.9742908 7.54343972 13.9114539 7.54343972 12.3217021 7.54343972 8.35858156 7.54343972 6.76432624 7.54343972 2.7651773 7.54343972 1.17542553 7.54343972 0.112588652 7.54343972 0.112588652 0.225177305"></polygon>
                    </g>
                    <g id="Group" opacity="0.2" transform="translate(172.936170, 72.056738)" fill="#FFFFFF">
                        <polygon id="Path" points="15.0868794 0.225177305 15.0868794 7.54343972 14.0240426 7.54343972 12.4342908 7.54343972 8.47117021 7.54343972 6.87691489 7.54343972 2.87776596 7.54343972 1.28801418 7.54343972 0.225177305 7.54343972 0.225177305 0.225177305"></polygon>
                    </g>
                    <g id="Group" opacity="0.2" transform="translate(13.960993, 72.056738)" fill="#FFFFFF">
                        <polygon id="Path" points="14.9742908 0.225177305 14.9742908 7.54343972 13.9114539 7.54343972 12.3217021 7.54343972 8.35858156 7.54343972 6.76432624 7.54343972 2.7651773 7.54343972 1.17542553 7.54343972 0.112588652 7.54343972 0.112588652 0.225177305"></polygon>
                    </g>
                    <polygon id="Path" fill="#BF8D77" points="201.984043 158.75 201.984043 180.443582 0.225177305 180.443582 0.225177305 158.75 14.6365248 158.75 28.822695 158.75 173.161348 158.75 187.572695 158.75"></polygon>
                    <path d="M111.985177,102.023333 C113.665,99.0509929 113.732553,95.0833688 113.732553,95.0833688 C113.732553,95.0833688 114.345035,86.0177305 104.756986,78.8706028 C92.2686525,69.5662766 74.2814894,73.511383 74.2814894,73.511383 C74.2814894,73.511383 70.5435461,91.1742908 80.1000709,104.094965 C87.4633688,114.056809 96.2137589,112.755284 96.2137589,112.755284 C96.2137589,112.755284 100.230922,112.831844 103.230284,110.733191" id="Path" fill="#76798E"></path>
                    <g id="Group" opacity="0.3" transform="translate(73.407801, 73.858156)" fill="#3F456B">
                        <path d="M30.8357801,34.2945035 C30.8357801,34.2945035 8.63780142,27.2464539 2.25177305,0.18464539 C-0.0345872591,6.16501365 -0.31124269,12.7272805 1.46365248,18.8788652 C4.46301418,28.921773 20.2659574,47.1566312 30.8357801,34.2945035 Z" id="Path"></path>
                    </g>
                    <path d="M135.556738,122.401879 C135.556738,122.401879 119.947447,107.634752 112.588652,100.005745 L102.680851,109.886525 C102.680851,109.886525 116.051879,127.540426 123.676383,134.385816" id="Path" fill="#DAE1EA"></path>
                    <g id="Group" opacity="0.2" transform="translate(102.230496, 106.734043)" fill="#3F456B">
                        <path d="M24.5803546,23.4184397 C24.5803546,23.4184397 10.6193617,9.0070922 3.30560284,0.121595745 L0.220673759,4.76475177 C0.220673759,4.76475177 18.0141844,32.6777305 24.5803546,23.4184397 Z" id="Path"></path>
                    </g>
                    <path d="M190.351383,207.415319 C194.973174,211.941643 202.372309,211.920452 206.968098,207.367729 C211.563887,202.815006 211.654738,195.416399 207.172128,190.752199 L128.936525,115.777163 L116.975106,127.635 L190.351383,207.415319 Z" id="Path" fill="#FFBC5A"></path>
                    <g id="Group" opacity="0.2" transform="translate(116.641844, 123.397163)" fill="#3F456B">
                        <path d="M88.4226241,85.725 L4.01265957,0.297234043 L0.333262411,3.94510638 L71.6784397,81.8024113 C71.6784397,81.8024113 79.0102128,90.9716312 88.4226241,85.725 Z" id="Path"></path>
                    </g>
                    <g id="Group" opacity="0.2" transform="translate(77.911348, 72.056738)" fill="#FFFFFF">
                        <path d="M0.297234043,0.225177305 C0.297234043,0.225177305 4.80078014,11.0336879 13.3575177,15.9875887 C21.9142553,20.9414894 27.3185106,13.7358156 22.3646099,7.43085106 C17.4107092,1.12588652 0.297234043,0.225177305 0.297234043,0.225177305 Z" id="Path"></path>
                    </g>
                </g>
                <g id="Lines" fill="#3F456B">
                    <path d="M180.646241,199.169326 L2.47695035,199.169326 C1.23333044,199.169326 0.225177305,198.161173 0.225177305,196.917553 L0.225177305,161.001773 C0.225177305,159.758153 1.23333044,158.75 2.47695035,158.75 L147.301986,158.75 C148.545606,158.75 149.553759,159.758153 149.553759,161.001773 C149.553759,162.245393 148.545606,163.253546 147.301986,163.253546 L4.7287234,163.253546 L4.7287234,194.66578 L180.646241,194.66578 C181.889861,194.66578 182.898014,195.673933 182.898014,196.917553 C182.898014,198.161173 181.889861,199.169326 180.646241,199.169326 Z" id="Path"></path>
                    <path d="M204.235816,189.937057 C202.992196,189.937057 201.984043,188.928904 201.984043,187.685284 L201.984043,163.253546 L176.475957,163.253546 C175.232338,163.253546 174.224184,162.245393 174.224184,161.001773 C174.224184,159.758153 175.232338,158.75 176.475957,158.75 L204.235816,158.75 C205.479436,158.75 206.487589,159.758153 206.487589,161.001773 L206.487589,187.685284 C206.487589,188.282491 206.250349,188.855238 205.82806,189.277528 C205.40577,189.699817 204.833023,189.937057 204.235816,189.937057 L204.235816,189.937057 Z" id="Path"></path>
                    <path d="M16.8882979,163.028369 C15.644678,163.028369 14.6365248,162.020216 14.6365248,160.776596 L14.6365248,74.5336879 C14.6365248,73.290068 15.644678,72.2819149 16.8882979,72.2819149 L30.6241135,72.2819149 C31.8677334,72.2819149 32.8758865,73.290068 32.8758865,74.5336879 C32.8758865,75.7773079 31.8677334,76.785461 30.6241135,76.785461 L19.1400709,76.785461 L19.1400709,160.776596 C19.1400709,162.020216 18.1319178,163.028369 16.8882979,163.028369 Z" id="Path"></path>
                    <path d="M38.5053191,221.349291 L16.8882979,221.349291 C15.644678,221.349291 14.6365248,220.341138 14.6365248,219.097518 L14.6365248,196.917553 C14.6365248,195.673933 15.644678,194.66578 16.8882979,194.66578 C18.1319178,194.66578 19.1400709,195.673933 19.1400709,196.917553 L19.1400709,216.845745 L36.2535461,216.845745 L36.2535461,197.14273 C36.2535461,195.899111 37.2616992,194.890957 38.5053191,194.890957 C39.7489391,194.890957 40.7570922,195.899111 40.7570922,197.14273 L40.7570922,219.097518 C40.7570922,220.341138 39.7489391,221.349291 38.5053191,221.349291 L38.5053191,221.349291 Z" id="Path"></path>
                    <path d="M189.824468,163.028369 C188.580848,163.028369 187.572695,162.020216 187.572695,160.776596 L187.572695,76.785461 L176.088652,76.785461 C174.845033,76.785461 173.836879,75.7773079 173.836879,74.5336879 C173.836879,73.290068 174.845033,72.2819149 176.088652,72.2819149 L189.824468,72.2819149 C191.068088,72.2819149 192.076241,73.290068 192.076241,74.5336879 L192.076241,160.776596 C192.076241,161.373803 191.839001,161.94655 191.416712,162.36884 C190.994423,162.791129 190.421675,163.028369 189.824468,163.028369 Z" id="Path"></path>
                    <path d="M189.824468,221.349291 L168.207447,221.349291 C166.963827,221.349291 165.955674,220.341138 165.955674,219.097518 L165.955674,197.14273 C165.955674,195.899111 166.963827,194.890957 168.207447,194.890957 C169.451067,194.890957 170.45922,195.899111 170.45922,197.14273 L170.45922,216.845745 L187.572695,216.845745 L187.572695,207.217163 C187.572695,205.973543 188.580848,204.96539 189.824468,204.96539 C191.068088,204.96539 192.076241,205.973543 192.076241,207.217163 L192.076241,219.097518 C192.076241,219.694725 191.839001,220.267472 191.416712,220.689762 C190.994423,221.112051 190.421675,221.349291 189.824468,221.349291 L189.824468,221.349291 Z" id="Path"></path>
                    <path d="M114.390071,221.349291 L92.7730496,221.349291 C91.5294297,221.349291 90.5212766,220.341138 90.5212766,219.097518 L90.5212766,197.14273 C90.5212766,195.899111 91.5294297,194.890957 92.7730496,194.890957 C94.0166696,194.890957 95.0248227,195.899111 95.0248227,197.14273 L95.0248227,216.845745 L112.138298,216.845745 L112.138298,196.917553 C112.138298,195.673933 113.146451,194.66578 114.390071,194.66578 C115.633691,194.66578 116.641844,195.673933 116.641844,196.917553 L116.641844,219.097518 C116.641844,220.341138 115.633691,221.349291 114.390071,221.349291 L114.390071,221.349291 Z" id="Path"></path>
                    <path d="M114.164894,26.3457447 C112.921274,26.3457447 111.913121,25.3375915 111.913121,24.0939716 L111.913121,4.7287234 L94.7996454,4.7287234 L94.7996454,24.0939716 C94.7996454,25.3375915 93.7914923,26.3457447 92.5478723,26.3457447 C91.3042524,26.3457447 90.2960993,25.3375915 90.2960993,24.0939716 L90.2960993,2.47695035 C90.2960993,1.23333044 91.3042524,0.225177305 92.5478723,0.225177305 L114.164894,0.225177305 C115.408514,0.225177305 116.416667,1.23333044 116.416667,2.47695035 L116.416667,24.0939716 C116.416667,25.3375915 115.408514,26.3457447 114.164894,26.3457447 L114.164894,26.3457447 Z" id="Path"></path>
                    <path d="M31.0744681,162.578014 C29.8308482,162.578014 28.822695,161.569861 28.822695,160.326241 L28.822695,24.0939716 C28.822695,22.8503517 29.8308482,21.8421986 31.0744681,21.8421986 L175.413121,21.8421986 C176.65674,21.8421986 177.664894,22.8503517 177.664894,24.0939716 L177.664894,160.024504 C177.664894,161.268123 176.65674,162.276277 175.413121,162.276277 C174.169501,162.276277 173.161348,161.268123 173.161348,160.024504 L173.161348,26.3457447 L33.3262411,26.3457447 L33.3262411,160.326241 C33.3262411,161.569861 32.318088,162.578014 31.0744681,162.578014 Z" id="Path"></path>
                    <path d="M204.235816,184.947128 L198.687447,184.947128 C197.443827,184.947128 196.435674,183.938975 196.435674,182.695355 C196.435674,181.451735 197.443827,180.443582 198.687447,180.443582 L204.235816,180.443582 C205.479436,180.443582 206.487589,181.451735 206.487589,182.695355 C206.487589,183.938975 205.479436,184.947128 204.235816,184.947128 L204.235816,184.947128 Z" id="Path"></path>
                    <path d="M166.856383,184.947128 L2.47695035,184.947128 C1.23333044,184.947128 0.225177305,183.938975 0.225177305,182.695355 C0.225177305,181.451735 1.23333044,180.443582 2.47695035,180.443582 L166.856383,180.443582 C168.100003,180.443582 169.108156,181.451735 169.108156,182.695355 C169.108156,183.938975 168.100003,184.947128 166.856383,184.947128 L166.856383,184.947128 Z" id="Path"></path>
                    <path d="M201.006773,215.422624 L200.948227,215.422624 C197.208884,215.420314 193.626762,213.918029 191.004397,211.25234 C190.985847,211.241155 190.967815,211.229133 190.950355,211.216312 L117.569574,131.408972 C116.751539,130.518121 116.783353,129.140162 117.641631,128.288014 L129.60305,116.430177 C130.471262,115.564381 131.872606,115.55237 132.755532,116.403156 L183.294326,164.829787 L186.667482,168.036312 L210.986631,191.387199 L211.027163,191.423227 C215.025547,195.465974 216.203517,201.515151 214.014278,206.762828 C211.825039,212.010505 206.697301,215.42905 201.011277,215.431631 L201.006773,215.422624 Z M194.228936,208.113369 C197.959796,211.872832 204.031902,211.896019 207.791365,208.165159 C211.550828,204.4343 211.574016,198.362194 207.843156,194.60273 L183.555532,171.283369 L180.186879,168.085851 L180.186879,168.085851 L131.215319,121.172411 L122.35234,129.95883 L194.228936,208.113369 Z" id="Shape"></path>
                    <path d="M119.226879,132.138547 C118.59738,132.139136 117.996375,131.876196 117.569574,131.413475 C109.08039,122.203723 102.770922,115.795177 102.707872,115.732128 C101.834807,114.853852 101.834807,113.435403 102.707872,112.557128 L113.939716,101.38383 C114.817992,100.510764 116.23644,100.510764 117.114716,101.38383 C124.703191,108.931773 132.733014,116.295071 132.814078,116.367128 C133.406981,116.910957 133.664716,117.729785 133.490197,118.515169 C133.315679,119.300552 132.73542,119.933171 131.967998,120.174726 C131.200577,120.41628 130.362583,120.23007 129.769681,119.686241 C129.693121,119.618688 122.676596,113.183121 115.529468,106.175603 L107.468121,114.196418 C109.886525,116.641844 114.840426,121.798404 120.879681,128.351064 C121.485683,129.008068 121.645728,129.9613 121.287524,130.780191 C120.92932,131.599083 120.120687,132.12859 119.226879,132.129539 L119.226879,132.138547 Z" id="Path"></path>
                    <path d="M97.4297163,117.312872 C94.4078369,117.312872 86.9409574,116.34461 80.5369149,107.684291 C70.4985106,94.1060993 74.1689007,76.0603901 74.3310284,75.2992908 C74.5139788,74.43351 75.1870599,73.755143 76.051383,73.5654255 C76.8259929,73.3942908 95.1959574,69.512234 108.355319,79.3164539 C118.488298,86.8734043 118.263121,96.4659574 118.231596,97.4252128 C118.231596,97.9611348 118.04695,102.108901 116.195993,105.382979 C115.802517,106.089056 115.060777,106.530065 114.252508,106.538496 C113.44424,106.546927 112.693462,106.121486 112.285344,105.423769 C111.877226,104.726053 111.874388,103.863116 112.277908,103.16273 C113.628972,100.744326 113.72805,97.3306383 113.732553,97.3081206 C113.730307,97.2706246 113.730307,97.2330278 113.732553,97.1955319 C113.732553,96.8892908 114.065816,89.2062411 105.657695,82.9418085 C96.1552128,75.862234 82.896773,77.0871986 78.492305,77.7221986 C77.8978369,82.0816312 76.8755319,95.1734397 84.157766,105.022695 C90.6428723,113.791099 98.0557092,112.804823 98.1187589,112.795816 C98.2422962,112.775631 98.3673973,112.766588 98.4925532,112.768794 C98.5195745,112.768794 101.838688,112.791312 104.180532,111.156525 C104.837847,110.651617 105.7194,110.548634 106.475394,110.888439 C107.231389,111.228244 107.739589,111.955893 107.798342,112.78266 C107.857096,113.609427 107.456904,114.40163 106.75656,114.844929 C103.545532,117.096702 99.4833333,117.263333 98.5871277,117.27234 C98.375461,117.281348 97.9746454,117.312872 97.4297163,117.312872 Z" id="Path"></path>
                    <path d="M25.1072695,174.098085 L23.7562057,174.098085 C22.5125858,174.098085 21.5044326,173.089932 21.5044326,171.846312 C21.5044326,170.602692 22.5125858,169.594539 23.7562057,169.594539 L25.1072695,169.594539 C26.3508894,169.594539 27.3590426,170.602692 27.3590426,171.846312 C27.3590426,173.089932 26.3508894,174.098085 25.1072695,174.098085 L25.1072695,174.098085 Z" id="Path"></path>
                </g>
            </g>
        </g>
    </g>
</svg>