<?xml version="1.0" encoding="UTF-8"?>
<svg width="220px" height="222px" viewBox="0 0 220 222" version="1.1" xmlns="http://www.w3.org/2000/svg" xmlns:xlink="http://www.w3.org/1999/xlink">
    <title>6115561_bulb_idea_light_spherical_icon</title>
    <g id="Style-guide" stroke="none" stroke-width="1" fill="none" fill-rule="evenodd">
        <g id="Styleguide" transform="translate(-706.000000, -13070.000000)" fill-rule="nonzero">
            <g id="6115561_bulb_idea_light_spherical_icon" transform="translate(706.000000, 13070.000000)">
                <g id="Colors">
                    <circle id="Oval" fill="#FFF5CC" transform="translate(109.888577, 114.899724) rotate(-45.000000) translate(-109.888577, -114.899724) " cx="109.888577" cy="114.899724" r="73.9121986"></circle>
                    <path d="M82.3158156,163.983121 C65.693227,154.192411 54.1866667,135.493688 54.1866667,114.808901 C54.1993231,87.3451411 74.0276645,63.8989553 101.108081,59.3262874 C128.188498,54.7536194 154.616008,70.3892662 163.645645,96.326188 C172.675282,122.26311 161.671225,150.93012 137.605851,164.163262" id="Path" fill="#FFE36C"></path>
                    <g id="Group" opacity="0.5" transform="translate(58.546099, 70.255319)" fill="#FFFFFF">
                        <path d="M58.4064897,29.4171631 C58.4083109,41.1881986 51.319012,51.8011949 40.4445161,56.3070374 C29.5700201,60.8128799 17.052029,58.3241554 8.72800588,50.0014203 C0.403982716,41.6786853 -2.08667913,29.1610796 2.41748035,18.2858864 C6.92163984,7.41069322 17.5335388,0.319751773 29.3045745,0.319751773 C45.3753597,0.319751773 58.4040024,13.3463781 58.4064897,29.4171631 Z" id="Path"></path>
                    </g>
                    <g id="Group" opacity="0.5" transform="translate(74.308511, 77.911348)" fill="#FFFFFF">
                        <path d="M72.3044329,36.0779078 C72.3019455,55.9354442 56.202655,72.0313742 36.3451186,72.0297162 C16.4875821,72.0280581 0.390979872,55.9294398 0.391808824,36.0719033 C0.392637776,16.2143668 16.490584,0.117092199 36.3481206,0.117092199 C45.8851078,0.117092199 55.031419,3.90595375 61.774665,10.6500444 C68.517911,17.394135 72.3056271,26.5409207 72.3044329,36.0779078 L72.3044329,36.0779078 Z" id="Path"></path>
                    </g>
                    <g id="Group" opacity="0.5" transform="translate(56.744681, 58.546099)" fill="#FFFFFF">
                        <path d="M0.207163121,40.153617 C0.207163121,40.153617 11.3714539,8.24148936 54.1371277,8.24148936 C95.7093617,8.24148936 106.112553,38.1675532 106.112553,38.1675532 C106.112553,38.1675532 95.4751773,0.409822695 53.7453191,0.409822695 C10.8085106,0.409822695 0.207163121,40.153617 0.207163121,40.153617 Z" id="Path"></path>
                    </g>
                    <path d="M145.914894,185.996454 C145.914894,190.689149 142.055355,194.102837 137.358156,194.102837 L82.3113121,194.102837 C77.618617,194.102837 74.3085106,190.684645 74.3085106,185.996454 L74.3085106,166.50961 C74.3085106,161.816915 77.618617,157.624113 82.3113121,157.624113 L137.358156,157.624113 C142.050851,157.624113 145.914894,161.816915 145.914894,166.50961 L145.914894,185.996454 Z" id="Path" fill="#DAE1EA"></path>
                    <path d="M139.074007,195.260248 C139.074007,206.564149 128.071844,218.647163 109.91805,218.647163 C96.718156,218.647163 80.2892199,206.564149 80.2892199,195.260248" id="Path" fill="#767C93"></path>
                    <g id="Group" opacity="0.5" transform="translate(87.368794, 157.624113)" fill="#FFFFFF">
                        <rect id="Rectangle" x="0" y="0" width="20.7163121" height="36.4787234"></rect>
                    </g>
                    <g id="Group" opacity="0.3" transform="translate(109.886525, 195.003546)" fill="#3F456B">
                        <path d="M18.0457092,0 C18.0457092,0 13.0242553,20.4325887 0.0315248227,23.594078 C0.0315248227,23.594078 27.1608865,24.7695035 30.1557447,0 L18.0457092,0 Z" id="Path"></path>
                    </g>
                    <g id="Group" opacity="0.15" transform="translate(88.719858, 195.003546)" fill="#FFFFFF">
                        <path d="M13.3079787,0 C13.3079787,0 11.6821986,15.7173759 20.2659574,23.4184397 C20.2659574,23.4184397 2.98585106,24.7334752 0.274716312,0 L13.3079787,0 Z" id="Path"></path>
                    </g>
                    <g id="Group" opacity="0.15" transform="translate(72.056738, 187.797872)" fill="#3F456B">
                        <polygon id="Path" points="66.3822695 7.20567376 6.4670922 7.20567376 0.382801418 0 73.858156 0"></polygon>
                    </g>
                    <g id="Group" opacity="0.5" transform="translate(73.858156, 158.074468)" fill="#FFFFFF">
                        <polygon id="Path" points="0.698049645 0 71.3226596 0 70.1742553 7.20567376 0.139609929 7.20567376"></polygon>
                    </g>
                    <g id="Group" opacity="0.3" transform="translate(80.163121, 195.003546)" fill="#3F456B">
                        <rect id="Rectangle" x="0" y="0" width="57.6453901" height="7.20567376"></rect>
                    </g>
                    <g id="Group" opacity="0.7" transform="translate(69.354610, 82.414894)" fill="#FFFFFF">
                        <path d="M15.8074468,7.93975177 C15.8074468,12.2451639 12.3172207,15.7353901 8.01180851,15.7353901 C3.70639636,15.7353901 0.216170213,12.2451639 0.216170213,7.93975177 C0.216170213,3.63433963 3.70639636,0.144113475 8.01180851,0.144113475 C12.3172207,0.144113475 15.8074468,3.63433963 15.8074468,7.93975177 Z" id="Path"></path>
                    </g>
                    <g id="Group" opacity="0.1" transform="translate(124.748227, 84.216312)" fill="#3F456B">
                        <path d="M32.3759929,0.34677305 C32.3759929,0.34677305 50.8900709,55.8439716 0.229680851,73.858156 L22.0673759,73.858156 C22.0673759,73.858156 60.3069858,41.3830851 32.3759929,0.34677305 Z" id="Path"></path>
                    </g>
                    <g id="Group" opacity="0.3" transform="translate(81.063830, 100.879433)" fill="#3F456B">
                        <path d="M35.1276596,59.8971631 C33.8840397,59.8971631 32.8758865,58.88901 32.8758865,57.6453901 L32.8758865,26.1205674 L25.6702128,26.1205674 L25.6702128,57.6453901 C25.6702128,58.88901 24.6620596,59.8971631 23.4184397,59.8971631 C22.1748198,59.8971631 21.1666667,58.88901 21.1666667,57.6453901 L21.1666667,26.1205674 L12.997234,26.1205674 C6.04826241,26.1205674 0.175638298,20.1848936 0.175638298,13.1593617 C0.175638298,6.13382979 6.03024823,0.198156028 12.9612057,0.198156028 C19.9852928,0.21553629 25.6702343,5.91457931 25.6702128,12.9386879 L25.6702128,21.6170213 L32.8758865,21.6170213 L32.8758865,12.9431915 C32.8441375,9.57576465 34.1702991,6.33753062 36.5549226,3.95968651 C38.939546,1.5818424 42.1815424,0.264905281 45.5488652,0.306241135 C52.6772945,0.32365192 58.441914,6.1164998 58.4245427,13.2449291 C58.4070927,20.3733584 52.6142449,26.1379779 45.4858156,26.1205674 L37.3794326,26.1205674 L37.3794326,57.6453901 C37.3794326,58.88901 36.3712795,59.8971631 35.1276596,59.8971631 Z M37.3794326,21.6170213 L45.4858156,21.6170213 C49.9893617,21.6170213 53.7588298,17.7439716 53.7588298,13.1593617 C53.7938284,8.59149969 50.1256263,4.85682268 45.5578723,4.80978723 C43.3874712,4.77941041 41.2964318,5.62509339 39.7573444,7.15570563 C38.218257,8.68631788 37.3610407,10.7726557 37.3794326,12.9431915 L37.3794326,21.6170213 Z M12.9612057,4.70170213 C8.45765957,4.70170213 4.6791844,8.57475177 4.6791844,13.1593617 C4.6791844,17.7439716 8.4891844,21.6170213 12.997234,21.6170213 L21.166668,21.6170213 L21.166668,12.9386879 C21.1691735,8.40078768 17.4990822,4.71659608 12.9612057,4.70170213 L12.9612057,4.70170213 Z" id="Shape"></path>
                    </g>
                    <g id="Group" opacity="0.5" transform="translate(71.606383, 167.982270)" fill="#3F456B">
                        <path d="M72.39,4.61613475 L2.39138298,4.61613475 C1.14776306,4.61613475 0.139609929,3.60798162 0.139609929,2.3643617 C0.139609929,1.12074179 1.14776306,0.112588652 2.39138298,0.112588652 L72.39,0.112588652 C73.6336199,0.112588652 74.641773,1.12074179 74.641773,2.3643617 C74.641773,3.60798162 73.6336199,4.61613475 72.39,4.61613475 Z" id="Path"></path>
                        <path d="M72.39,16.3253546 L2.39138298,16.3253546 C1.14776306,16.3253546 0.139609929,15.3172015 0.139609929,14.0735816 C0.139609929,12.8299616 1.14776306,11.8218085 2.39138298,11.8218085 L72.39,11.8218085 C73.6336199,11.8218085 74.641773,12.8299616 74.641773,14.0735816 C74.641773,15.3172015 73.6336199,16.3253546 72.39,16.3253546 Z" id="Path"></path>
                    </g>
                    <g id="Group" opacity="0.3" fill="#3F456B">
                        <path d="M109.886525,27.1383688 C108.642905,27.1383688 107.634752,26.1302157 107.634752,24.8865957 L107.634752,2.25177305 C107.634752,1.00815313 108.642905,7.99990492e-16 109.886525,7.99990492e-16 C111.130145,7.99990492e-16 112.138298,1.00815313 112.138298,2.25177305 L112.138298,24.8865957 C112.138298,26.1302157 111.130145,27.1383688 109.886525,27.1383688 Z" id="Path"></path>
                        <path d="M217.521277,112.138298 L194.886454,112.138298 C193.642834,112.138298 192.634681,111.130145 192.634681,109.886525 C192.634681,108.642905 193.642834,107.634752 194.886454,107.634752 L217.521277,107.634752 C218.764897,107.634752 219.77305,108.642905 219.77305,109.886525 C219.77305,111.130145 218.764897,112.138298 217.521277,112.138298 Z" id="Path"></path>
                        <path d="M24.8865957,112.138298 L2.25177305,112.138298 C1.00815313,112.138298 0,111.130145 0,109.886525 C0,108.642905 1.00815313,107.634752 2.25177305,107.634752 L24.8865957,107.634752 C26.1302157,107.634752 27.1383688,108.642905 27.1383688,109.886525 C27.1383688,111.130145 26.1302157,112.138298 24.8865957,112.138298 Z" id="Path"></path>
                        <path d="M49.7821986,52.0339716 C49.1861432,52.0339716 48.614454,51.7973956 48.1924468,51.3764539 L32.186844,35.3708511 C31.6014807,34.8054883 31.3667199,33.9682714 31.5727919,33.1809853 C31.7788639,32.3936991 32.3936991,31.7788639 33.1809853,31.5727919 C33.9682714,31.3667199 34.8054883,31.6014807 35.3708511,32.186844 L51.3764539,48.1879433 C52.0189347,48.8324369 52.2103271,49.8002957 51.8615056,50.6408176 C51.5126841,51.4813396 50.692228,52.0292753 49.7821986,52.0294681 L49.7821986,52.0339716 Z" id="Path"></path>
                        <path d="M185.996454,188.248227 C185.398191,188.248227 184.824572,188.009902 184.402199,187.586206 L168.396596,171.585106 C167.543236,170.701558 167.555441,169.297114 168.424026,168.428529 C169.292611,167.559944 170.697055,167.54774 171.580603,168.401099 L187.586206,184.406702 C188.228112,185.050615 188.419793,186.017385 188.072125,186.857501 C187.724457,187.697616 186.905664,188.246218 185.996454,188.248227 Z" id="Path"></path>
                        <path d="M169.990851,52.0339752 C169.080822,52.0339752 168.260366,51.4858431 167.911544,50.6453212 C167.562723,49.8047992 167.754115,48.8369404 168.396596,48.1924468 L184.402199,32.186844 C184.967561,31.6014807 185.804778,31.3667199 186.592064,31.5727919 C187.37935,31.7788639 187.994186,32.3936991 188.200258,33.1809853 C188.40633,33.9682714 188.171569,34.8054883 187.586206,35.3708511 L171.585106,51.3764539 C171.161995,51.798499 170.588467,52.035039 169.990851,52.0339752 Z" id="Path"></path>
                        <path d="M33.7765957,188.248227 C32.8654076,188.248227 32.0441465,187.698719 31.6960714,186.856634 C31.3479964,186.014549 31.5417227,185.045691 32.186844,184.402199 L48.1879433,168.396596 C49.0714915,167.543236 50.4759356,167.555441 51.3445206,168.424026 C52.2131055,169.292611 52.2253098,170.697055 51.3719504,171.580603 L35.3708511,187.586206 C34.9484777,188.009902 34.3748582,188.248227 33.7765957,188.248227 Z" id="Path"></path>
                        <path d="M77.7627305,33.8396454 C76.8377776,33.8449738 76.0036473,33.2841239 75.6595745,32.4255319 L70.7056738,20.2029078 C70.3833572,19.4541874 70.4908501,18.589732 70.9867189,17.9427511 C71.4825876,17.2957701 72.2893976,16.9672956 73.0961592,17.08394 C73.9029208,17.2005845 74.5836506,17.7441327 74.8759574,18.5050709 L79.861383,30.7412057 C80.3287183,31.8915451 79.7766982,33.2030964 78.6274113,33.6730142 C78.3535225,33.7868066 78.0592923,33.8435073 77.7627305,33.8396454 Z" id="Path"></path>
                        <path d="M188.847199,79.9694683 C187.770371,79.9699815 186.843889,79.2080278 186.636506,78.1513589 C186.429122,77.09469 186.998886,76.0390805 187.996028,75.6325532 L200.232163,70.6471277 C201.376793,70.2074297 202.662826,70.7643941 203.125186,71.9000586 C203.587546,73.0357231 203.056251,74.3325716 201.93,74.8174113 L189.693865,79.8028369 C189.425024,79.9124425 189.137524,79.9690249 188.847199,79.9694683 L188.847199,79.9694683 Z" id="Path"></path>
                        <path d="M17.9241135,149.625816 C16.8472862,149.626329 15.9208042,148.864375 15.7134205,147.807706 C15.5060369,146.751037 16.075801,145.695428 17.0729433,145.288901 L30.4574823,139.835106 C31.2062026,139.51279 32.070658,139.620283 32.717639,140.116151 C33.36462,140.61202 33.6930945,141.41883 33.57645,142.225592 C33.4598056,143.032353 32.9162573,143.713083 32.1553191,144.00539 L18.7752837,149.459184 C18.5050392,149.569361 18.2159542,149.625955 17.9241135,149.625816 Z" id="Path"></path>
                        <path d="M31.2906383,79.3840189 C30.9905438,79.384986 30.6933531,79.3252414 30.4169504,79.2083688 L18.2573759,74.0833333 C17.1107584,73.6008088 16.5724047,72.2801282 17.0549292,71.1335107 C17.5374537,69.9868932 18.8581342,69.4485394 20.0047518,69.9310638 L32.1643262,75.0560993 C33.1532084,75.4713751 33.7119463,76.5264868 33.4997108,77.5778184 C33.2874753,78.6291499 32.3631779,79.3848768 31.2906383,79.3840189 L31.2906383,79.3840189 Z" id="Path"></path>
                        <path d="M200.448333,150.594079 C200.148512,150.592332 199.851849,150.532693 199.574645,150.41844 L186.25766,144.811525 C185.515928,144.499386 184.997064,143.815249 184.896518,143.016821 C184.795972,142.218394 185.12902,141.426976 185.770206,140.940687 C186.411392,140.454398 187.263304,140.347117 188.005035,140.659255 L201.308511,146.26617 C202.297393,146.681446 202.856131,147.736558 202.643895,148.787889 C202.43166,149.839221 201.507362,150.594948 200.434823,150.594079 L200.448333,150.594079 Z" id="Path"></path>
                        <path d="M142.45617,33.456878 C141.694419,33.4610271 140.982197,33.0797963 140.56322,32.4436045 C140.144242,31.8074128 140.075319,31.0025236 140.380035,30.3043617 L145.509574,18.1447872 C145.802536,17.3754719 146.491958,16.8273377 147.307509,16.7153155 C148.12306,16.6032933 148.934741,16.9452394 149.424282,17.6070721 C149.913822,18.2689048 150.003189,19.1451282 149.65734,19.8921631 L144.532305,32.0517376 C144.189065,32.8976504 143.369058,33.4526227 142.45617,33.456878 L142.45617,33.456878 Z" id="Path"></path>
                    </g>
                    <g id="Group" opacity="0.15" transform="translate(124.748227, 158.074468)" fill="#3F456B">
                        <path d="M0.229680851,0 L0.229680851,36.0283688 L12.1595745,36.0283688 C12.1595745,36.0283688 20.7163121,36.4787234 20.7163121,27.9219858 L20.7163121,0.45035461 L0.229680851,0 Z" id="Path"></path>
                    </g>
                </g>
                <g id="Lines" transform="translate(51.790780, 55.843972)" fill="#3F456B">
                    <path d="M94.9707801,104.284114 C94.0251247,104.284114 93.1797597,103.694663 92.8545683,102.806679 C92.529377,101.918695 92.7936535,100.922138 93.5161348,100.311986 C112.654973,84.1830468 118.214805,57.0229115 106.953245,34.6708406 C95.6916855,12.3187697 70.5557233,0.623980807 46.2041611,6.40664655 C21.852599,12.1893123 4.65789279,33.9361917 4.64765957,58.9649291 C4.7109556,74.5558277 11.3661058,89.3924937 22.9680851,99.8075887 C23.5844622,100.340917 23.8645094,101.165702 23.7002966,101.964071 C23.5360838,102.762441 22.9532498,103.409743 22.1764189,103.656509 C21.399588,103.903275 20.5500484,103.710976 19.9552128,103.153723 C7.4030141,91.8856519 0.204397388,75.8327366 0.139609929,58.9649291 C0.139609929,26.6790071 26.4087943,0.418829787 58.6857092,0.418829787 C90.9626241,0.418829787 117.231827,26.6880142 117.231827,58.9649291 C117.245372,76.2389292 109.618797,92.6345804 96.3984043,103.752695 C95.9987173,104.090308 95.493941,104.278206 94.9707801,104.284114 L94.9707801,104.284114 Z" id="Path"></path>
                    <path d="M85.5673759,140.763232 L30.5205319,140.763232 C27.7031728,140.787298 24.9947365,139.675814 23.0067292,137.679333 C21.0187219,135.682851 19.9187678,132.969712 19.9552128,130.152482 L19.9552128,102.559255 C19.9552128,101.315635 20.9633659,100.307482 22.2069858,100.307482 L93.8133688,100.307482 C95.0569887,100.307482 96.0651418,101.315635 96.0651418,102.559255 L96.0651418,130.152482 C96.1099891,132.960484 95.0220522,135.66822 93.0468622,137.664593 C91.0716722,139.660967 88.3756961,140.777727 85.5673759,140.763232 L85.5673759,140.763232 Z M24.4542553,104.811028 L24.4542553,130.152482 C24.4109376,131.777559 25.0340156,133.349673 26.1788387,134.503852 C27.3236619,135.658031 28.8906534,136.293884 30.5160284,136.263794 L85.5673759,136.263794 C88.9855674,136.263794 91.5615957,133.638227 91.5615957,130.152482 L91.5615957,104.811028 L24.4542553,104.811028 Z" id="Shape"></path>
                    <path d="M58.1272695,165.054965 C49.6245745,165.054965 41.5677305,162.21773 35.4519149,157.070177 C29.597305,152.147801 26.2466667,145.712234 26.2466667,139.416277 C26.2466667,138.172657 27.2548198,137.164504 28.4984397,137.164504 C29.7420596,137.164504 30.7502128,138.172657 30.7502128,139.416277 C30.7502128,144.370177 33.5198936,149.562766 38.3521986,153.624965 C43.6573759,158.092482 50.6829078,160.551418 58.1272695,160.551418 C74.7453546,160.551418 85.0314539,149.58078 85.0314539,139.416277 C85.0314539,138.172657 86.039607,137.164504 87.283227,137.164504 C88.5268469,137.164504 89.535,138.172657 89.535,139.416277 C89.535,151.769504 77.5285461,165.054965 58.1272695,165.054965 Z" id="Path"></path>
                </g>
            </g>
        </g>
    </g>
</svg>