<?xml version="1.0" encoding="UTF-8"?>
<svg width="254px" height="254px" viewBox="0 0 254 254" version="1.1" xmlns="http://www.w3.org/2000/svg" xmlns:xlink="http://www.w3.org/1999/xlink">
    <title>354B5FAB-378F-432C-9C40-9CAC716027B9</title>
    <g id="Style-guide" stroke="none" stroke-width="1" fill="none" fill-rule="evenodd">
        <g id="Styleguide" transform="translate(-380.000000, -12428.000000)" fill-rule="nonzero">
            <g id="7724400_relationship_human_society_people_icon" transform="translate(380.000000, 12428.000000)">
                <g id="Colors">
                    <circle id="Oval" fill="#8BD0F7" transform="translate(127.063078, 61.875751) rotate(-45.000000) translate(-127.063078, -61.875751) " cx="127.063078" cy="61.8757512" r="43.7249291"></circle>
                    <g id="Group" opacity="0.25" transform="translate(108.535461, 31.524823)" fill="#3F456B">
                        <path d="M15.2760284,73.957234 C41.0993617,75.2047163 51.9303901,58.757766 51.9303901,58.757766 C48.914195,53.7630901 45.0756774,49.3140031 40.5769504,45.5984043 C50.1646422,40.2597121 54.9891244,29.1613814 52.352854,18.5088912 C49.7165837,7.85640102 40.2727643,0.289178966 29.3017778,0.0383332894 C18.3307913,-0.212512387 8.55098084,6.91517176 5.4305931,17.4360391 C2.31020535,27.9569064 6.62239639,39.2641422 15.9560638,45.035461 C10.646383,49.3003191 4.65666667,55.8890071 0.432340426,65.8598582 C0.432340426,65.8598582 4.80078014,71.2641135 15.2940426,73.9662411 M27.7598582,38.0909929 L27.9219858,38.0909929 L27.8274113,38.1225177 L27.8274113,38.1225177 L27.7598582,38.0909929 Z" id="Shape"></path>
                    </g>
                    <path d="M154.471631,94.6510284 C151.178638,87.1009044 146.159129,80.4293066 139.817092,75.1731915 C149.386229,69.8312481 154.193593,58.7435535 151.55218,48.1074036 C148.910768,37.4712537 139.474754,29.9208006 128.518251,29.6762537 C117.561749,29.4317068 107.79825,36.5536307 104.684911,47.0613357 C101.571573,57.5690408 105.879445,68.8601856 115.200709,74.6237589 C109.891028,78.8841135 103.901312,85.477305 99.6724823,95.4436525 C99.6724823,95.4436525 107.450106,105.076738 127.117092,104.996183 C146.784078,104.91461 154.471631,94.6375177 154.471631,94.6375177 M127,67.647766 L127.193652,67.647766 L127.099078,67.6747872 L127.099078,67.6747872 L127,67.647766 Z" id="Shape" fill="#F0F3F7"></path>
                    <g id="Group" opacity="0.15" transform="translate(128.351064, 29.723404)" fill="#3F456B">
                        <path d="M26.1205674,65.5130851 C22.8764531,58.0444913 18.1233146,51.3272334 12.1595745,45.7830496 C12.1595745,45.7830496 24.0219149,39.0277305 23.9543617,23.4904965 C23.8868085,7.95326241 9.0070922,0.90070922 2.10765957,0.139609929 C2.10765957,0.139609929 16.4874823,6.62471631 16.559539,22.9951064 C16.6315957,39.3654965 2.69762411,43.7114184 2.69762411,43.7114184 C2.69762411,43.7114184 0.635,44.2068085 0.144113475,45.9001418 C-0.16212766,46.940461 0.644007092,47.9492553 2.1301773,49.0526241 C3.31911348,49.9533333 10.4617376,58.6226596 12.3892553,72.9844681" id="Path"></path>
                    </g>
                    <g id="Group" opacity="0.3" transform="translate(106.734043, 33.776596)" fill="#FFFFFF">
                        <circle id="Oval" cx="11.2903901" cy="11.3534397" r="11.2588652"></circle>
                    </g>
                    <circle id="Oval" fill="#9ED8CD" transform="translate(191.910999, 191.125844) rotate(-45.000000) translate(-191.910999, -191.125844) " cx="191.910999" cy="191.125844" r="43.7249291"></circle>
                    <g id="Group" opacity="0.25" transform="translate(173.386525, 160.776596)" fill="#3F456B">
                        <path d="M15.2760284,73.957234 C41.0993617,75.2047163 51.9303901,58.757766 51.9303901,58.757766 C48.914195,53.7630901 45.0756774,49.3140031 40.5769504,45.5984043 C50.1646422,40.2597121 54.9891244,29.1613814 52.352854,18.5088912 C49.7165837,7.85640102 40.2727643,0.289178966 29.3017778,0.0383332894 C18.3307913,-0.212512387 8.55098084,6.91517176 5.4305931,17.4360391 C2.31020535,27.9569064 6.62239639,39.2641422 15.9560638,45.035461 C10.646383,49.3003191 4.65666667,55.8890071 0.432340426,65.8598582 C0.432340426,65.8598582 4.80078014,71.2641135 15.2940426,73.9662411 M27.7598582,38.0909929 L27.9219858,38.0909929 L27.8274113,38.1225177 L27.8274113,38.1225177 L27.7598582,38.0909929 Z" id="Shape"></path>
                    </g>
                    <path d="M219.322695,223.902801 C216.029702,216.352677 211.010193,209.68108 204.668156,204.424965 C214.237293,199.083021 219.044656,187.995327 216.403244,177.359177 C213.761832,166.723027 204.325817,159.172574 193.369315,158.928027 C182.412813,158.68348 172.649314,165.805404 169.535975,176.313109 C166.422637,186.820814 170.730509,198.111959 180.051773,203.875532 C174.742092,208.135887 168.752376,214.729078 164.523546,224.695426 C164.523546,224.695426 172.30117,234.328511 191.968156,234.247956 C211.635142,234.166383 219.322695,223.889291 219.322695,223.889291 M191.851064,196.899539 L192.044716,196.899539 L191.950142,196.92656 L191.950142,196.92656 L191.851064,196.899539 Z" id="Shape" fill="#F0F3F7"></path>
                    <g id="Group" opacity="0.15" transform="translate(193.202128, 158.975177)" fill="#3F456B">
                        <path d="M26.1205674,65.5130851 C22.8764531,58.0444913 18.1233146,51.3272334 12.1595745,45.7830496 C12.1595745,45.7830496 24.0219149,39.0277305 23.9543617,23.4904965 C23.8868085,7.95326241 9.0070922,0.90070922 2.10765957,0.139609929 C2.10765957,0.139609929 16.4874823,6.62471631 16.559539,22.9951064 C16.6315957,39.3654965 2.69762411,43.7114184 2.69762411,43.7114184 C2.69762411,43.7114184 0.635,44.2068085 0.144113475,45.9001418 C-0.16212766,46.940461 0.644007092,47.9492553 2.1301773,49.0526241 C3.31911348,49.9533333 10.4617376,58.6226596 12.3892553,72.9844681" id="Path"></path>
                    </g>
                    <g id="Group" opacity="0.3" transform="translate(171.585106, 163.028369)" fill="#FFFFFF">
                        <circle id="Oval" cx="11.2903901" cy="11.3534397" r="11.2588652"></circle>
                    </g>
                    <circle id="Oval" fill="#B2C6ED" transform="translate(62.209031, 191.577937) rotate(-45.000000) translate(-62.209031, -191.577937) " cx="62.2090308" cy="191.577937" r="43.7249291"></circle>
                    <g id="Group" opacity="0.25" transform="translate(43.684397, 161.226950)" fill="#3F456B">
                        <path d="M15.2760284,73.957234 C41.0993617,75.2047163 51.9303901,58.757766 51.9303901,58.757766 C48.914195,53.7630901 45.0756774,49.3140031 40.5769504,45.5984043 C50.1646422,40.2597121 54.9891244,29.1613814 52.352854,18.5088912 C49.7165837,7.85640102 40.2727643,0.289178966 29.3017778,0.0383332894 C18.3307913,-0.212512387 8.55098084,6.91517176 5.4305931,17.4360391 C2.31020535,27.9569064 6.62239639,39.2641422 15.9560638,45.035461 C10.646383,49.3003191 4.65666667,55.8890071 0.432340426,65.8598582 C0.432340426,65.8598582 4.80078014,71.2641135 15.2940426,73.9662411 M27.7598582,38.0909929 L27.9219858,38.0909929 L27.8274113,38.1225177 L27.8274113,38.1225177 L27.7598582,38.0909929 Z" id="Shape"></path>
                    </g>
                    <path d="M89.6205674,224.353156 C86.3275745,216.803032 81.3080649,210.131434 74.9660284,204.875319 C84.5351654,199.533376 89.3425287,188.445681 86.7011166,177.809531 C84.0597044,167.173381 74.6236898,159.622928 63.6671876,159.378381 C52.7106854,159.133834 42.9471863,166.255758 39.8338477,176.763463 C36.720509,187.271168 41.0283812,198.562313 50.3496454,204.325887 C45.035461,208.586241 39.0592553,215.179433 34.8304255,225.14578 C34.8304255,225.14578 42.6080496,234.778865 62.2750355,234.69831 C81.9420213,234.616738 89.6295745,224.339645 89.6295745,224.339645 M62.1579433,197.349894 L62.3515957,197.349894 L62.2570213,197.376915 L62.2570213,197.376915 L62.1579433,197.349894 Z" id="Shape" fill="#F0F3F7"></path>
                    <g id="Group" opacity="0.15" transform="translate(63.500000, 159.425532)" fill="#3F456B">
                        <path d="M26.1205674,65.5130851 C22.8764531,58.0444913 18.1233146,51.3272334 12.1595745,45.7830496 C12.1595745,45.7830496 24.0219149,39.0277305 23.9543617,23.4904965 C23.8868085,7.95326241 9.0070922,0.90070922 2.10765957,0.139609929 C2.10765957,0.139609929 16.4874823,6.62471631 16.559539,22.9951064 C16.6315957,39.3654965 2.69762411,43.7114184 2.69762411,43.7114184 C2.69762411,43.7114184 0.635,44.2068085 0.144113475,45.9001418 C-0.16212766,46.940461 0.644007092,47.9492553 2.1301773,49.0526241 C3.31911348,49.9533333 10.4617376,58.6226596 12.3892553,72.9844681" id="Path"></path>
                    </g>
                    <g id="Group" opacity="0.3" transform="translate(41.882979, 163.478723)" fill="#FFFFFF">
                        <circle id="Oval" cx="11.2903901" cy="11.3534397" r="11.2588652"></circle>
                    </g>
                </g>
                <g id="Lines" transform="translate(16.212766, 15.762411)" fill="#3F456B">
                    <path d="M155.984823,138.583121 C155.131652,138.582239 154.352252,138.099255 153.971738,137.335638 L128.414113,86.2248936 C128.024395,85.502195 128.058941,84.6246584 128.504264,83.9348322 C128.949588,83.2450061 129.735089,82.8522558 130.554144,82.9098924 C131.373199,82.967529 132.095956,83.4664148 132.440284,84.2118085 L157.997908,135.322553 C158.265117,135.857011 158.308941,136.475759 158.119731,137.042544 C157.930522,137.609329 157.523794,138.07767 156.989113,138.344433 C156.677693,138.501633 156.33367,138.583121 155.984823,138.583121 Z" id="Path"></path>
                    <path d="M131.976418,177.890071 L89.7241489,177.890071 C88.480529,177.890071 87.4723759,176.881918 87.4723759,175.638298 C87.4723759,174.394678 88.480529,173.386525 89.7241489,173.386525 L131.976418,173.386525 C133.220038,173.386525 134.228191,174.394678 134.228191,175.638298 C134.228191,176.881918 133.220038,177.890071 131.976418,177.890071 Z" id="Path"></path>
                    <path d="M65.4320213,138.893866 C64.6512683,138.893866 63.926247,138.48938 63.5160841,137.825045 C63.1059211,137.160709 63.0691588,136.331317 63.4189362,135.633298 L89.1702128,84.1757801 C89.5145407,83.4303865 90.2372972,82.9315007 91.0563524,82.873864 C91.8754077,82.8162274 92.6609082,83.2089777 93.1062321,83.8988039 C93.5515559,84.5886301 93.5861012,85.4661667 93.196383,86.1888652 L67.4496099,137.646383 C67.0683722,138.411452 66.2868148,138.894692 65.4320213,138.893866 Z" id="Path"></path>
                    <path d="M138.479539,81.6268062 C137.584605,81.6268062 136.774888,81.0959298 136.416915,80.2757092 C133.262417,72.8588395 128.381722,66.3028664 122.181206,61.1536525 C121.608237,60.679942 121.306008,59.9539548 121.373559,59.2135956 C121.44111,58.4732365 121.869734,57.8139329 122.518972,57.4517376 C130.018934,53.2450168 134.382755,45.0562496 133.692307,36.4848313 C133.001858,27.9134129 127.383557,20.5287302 119.306943,17.5767407 C111.230329,14.6247512 102.174193,16.6459505 96.1191844,22.7519149 C91.3896949,27.5096207 89.0927544,34.1672342 89.8823856,40.8290897 C90.6720169,47.4909451 94.4617007,53.4271096 100.172376,56.9473404 C100.795835,57.3317248 101.193391,57.9953206 101.238187,58.726379 C101.282982,59.4574375 100.969419,60.1646067 100.397553,60.622234 C93.9927763,65.7915236 88.9519864,72.451242 85.7159929,80.0190071 C85.2185449,81.1594066 83.8908073,81.6806217 82.7504078,81.1831738 C81.6100083,80.6857258 81.0887932,79.3579881 81.5862411,78.2175887 C84.7238181,70.9093998 89.4049357,64.366282 95.3085461,59.0369858 C86.3449466,51.9641922 82.9021037,39.9555977 86.7565942,29.2078803 C90.6110847,18.4601628 100.901013,11.3765989 112.316568,11.6124508 C123.732124,11.8483028 133.720695,19.3508322 137.127978,30.2485821 C140.53526,41.1463319 136.599358,53.0024773 127.351277,59.6990071 C133.009363,64.9699225 137.501188,71.3670908 140.53766,78.4787943 C140.775698,79.0269913 140.786043,79.6473314 140.566415,80.2031603 C140.346786,80.7589893 139.915203,81.2047073 139.366738,81.4421277 C139.08733,81.5655379 138.784982,81.6284631 138.479539,81.6268062 Z" id="Path"></path>
                    <path d="M110.84578,92.0885106 C85.6277305,91.8977478 65.2700753,71.4286699 65.2168583,46.2099547 C65.1638496,20.9912394 85.4351052,0.436593493 110.652128,0.139609929 L110.854787,0.139609929 C136.072837,0.330372789 156.430492,20.7994506 156.483709,46.0181659 C156.536718,71.2368812 136.265462,91.7915271 111.04844,92.0885106 L110.84578,92.0885106 Z M110.84578,4.64315603 L110.665638,4.64315603 C87.9276209,4.92234007 69.6548327,23.4590751 69.7016616,46.1987581 C69.7486708,68.938441 88.0977971,87.3996137 110.836773,87.5849645 L111.021418,87.5849645 C133.759603,87.3047965 152.031664,68.7669927 151.983605,46.0271326 C151.935356,23.2872726 133.584948,4.82702086 110.84578,4.64315603 Z" id="Shape"></path>
                    <path d="M203.330603,210.878573 C202.435669,210.878573 201.625952,210.347703 201.267979,209.527482 C198.113481,202.110613 193.232786,195.554639 187.03227,190.405426 C186.459301,189.931715 186.157072,189.205728 186.224623,188.465369 C186.292174,187.72501 186.720798,187.065706 187.370035,186.703511 C194.869998,182.49679 199.233819,174.308023 198.54337,165.736604 C197.852922,157.165186 192.234621,149.780503 184.158007,146.828514 C176.081393,143.876524 167.025257,145.897724 160.970248,152.003688 C156.240759,156.761394 153.943818,163.419007 154.733449,170.080863 C155.523081,176.742718 159.312765,182.678883 165.02344,186.199113 C165.646899,186.583498 166.044455,187.247094 166.08925,187.978152 C166.134046,188.709211 165.820483,189.41638 165.248617,189.874007 C158.84384,195.043297 153.80305,201.703015 150.567057,209.27078 C150.069609,210.41118 148.741871,210.932395 147.601472,210.434947 C146.461072,209.937499 145.939857,208.609761 146.437305,207.469362 C149.574882,200.161173 154.256,193.618055 160.15961,188.288759 C151.31525,181.304622 147.856837,169.489969 151.539018,158.839033 C155.221198,148.188098 165.238057,141.032039 176.507482,141.001447 L176.624574,141.001447 C188.120601,140.973864 198.321797,148.365474 201.876045,159.298302 C205.430292,170.231129 201.525907,182.208444 192.211348,188.946277 C197.869434,194.217192 202.361258,200.61436 205.39773,207.726064 C205.635769,208.274261 205.646114,208.894601 205.426486,209.45043 C205.206857,210.006259 204.775274,210.451977 204.226809,210.689397 C203.94497,210.815606 203.639405,210.880097 203.330603,210.878573 L203.330603,210.878573 Z" id="Path"></path>
                    <path d="M175.696844,221.340284 C150.478794,221.149521 130.121139,200.680443 130.067922,175.461728 C130.014913,150.243012 150.286169,129.688367 175.503191,129.391383 L175.705851,129.391383 C200.923901,129.582146 221.281556,150.051224 221.334773,175.269939 C221.387782,200.488654 201.116526,221.0433 175.899504,221.340284 L175.696844,221.340284 Z M175.696844,133.894929 L175.516702,133.894929 C152.582092,133.944636 134.023221,152.56394 134.048049,175.49859 C134.072927,198.433241 152.672109,217.012278 175.606773,217.012278 C198.541437,217.012278 217.140619,198.433241 217.165497,175.49859 C217.190325,152.56394 198.631454,133.944636 175.696844,133.894929 L175.696844,133.894929 Z" id="Shape"></path>
                    <path d="M73.6284752,211.328928 C72.7335414,211.328928 71.9238245,210.798057 71.5658511,209.977837 C68.4113535,202.560967 63.5306586,196.004994 57.3301418,190.85578 C56.7571731,190.38207 56.4549443,189.656082 56.5224953,188.915723 C56.5900463,188.175364 57.0186703,187.516061 57.6679078,187.153865 C66.4245679,182.276962 70.7755637,172.095873 68.2481801,162.396615 C65.7207966,152.697356 56.9545775,145.934285 46.9314539,145.950922 L46.8368794,145.950922 C37.0123782,145.969371 28.3924805,152.503514 25.7205707,161.957722 C23.0486608,171.411931 26.9732989,181.491359 35.3348227,186.649468 C35.9582822,187.033853 36.3558381,187.697448 36.4006334,188.428507 C36.4454286,189.159565 36.1318656,189.866734 35.56,190.324362 C29.1552231,195.493651 24.1144332,202.15337 20.8784397,209.721135 C20.3809918,210.861534 19.0532541,211.382749 17.9128546,210.885301 C16.7724551,210.387853 16.25124,209.060116 16.7486879,207.919716 C19.8862649,200.611527 24.5673825,194.06841 30.4709929,188.739113 C21.6266327,181.754976 18.16822,169.940324 21.8504006,159.289388 C25.5325812,148.638453 35.5494398,141.482394 46.8188652,141.451831 L46.9359574,141.451831 C58.42949,141.430106 68.6252768,148.823757 72.1759629,159.755106 C75.7266491,170.686455 71.8217351,182.660251 62.5092199,189.396631 C68.1673062,194.667547 72.6591308,201.064715 75.6956028,208.176418 C75.9336417,208.724615 75.9439863,209.344956 75.7243578,209.900784 C75.5047294,210.456613 75.073146,210.902331 74.5246809,211.139752 C74.2428428,211.265961 73.9372777,211.330452 73.6284752,211.328928 Z" id="Path"></path>
                    <path d="M45.9947163,221.790638 C20.7766666,221.599875 0.419011483,201.130798 0.365794515,175.912082 C0.312785812,150.693367 20.5840414,130.138721 45.8010638,129.841738 L46.0037234,129.841738 C71.2217731,130.0325 91.5794282,150.501578 91.6326452,175.720294 C91.6856539,200.939009 71.4143983,221.493655 46.1973759,221.790638 L45.9947163,221.790638 Z M45.9947163,134.345284 L45.8145745,134.345284 C22.8799647,134.39499 4.32109303,153.014295 4.34592145,175.948945 C4.37079974,198.883595 22.9699817,217.462633 45.9046454,217.462633 C68.8393091,217.462633 87.438491,198.883595 87.4633693,175.948945 C87.4881977,153.014295 68.9293261,134.39499 45.9947163,134.345284 L45.9947163,134.345284 Z" id="Shape"></path>
                </g>
            </g>
        </g>
    </g>
</svg>