<?xml version="1.0" encoding="UTF-8"?>
<svg width="221px" height="193px" viewBox="0 0 221 193" version="1.1" xmlns="http://www.w3.org/2000/svg" xmlns:xlink="http://www.w3.org/1999/xlink">
    <title>7132562_monitor_computer_hardware_display_icon (1)</title>
    <g id="Style-guide" stroke="none" stroke-width="1" fill="none" fill-rule="evenodd">
        <g id="Styleguide" transform="translate(-1263.000000, -12459.000000)" fill-rule="nonzero">
            <g id="7132562_monitor_computer_hardware_display_icon-(1)" transform="translate(1263.000000, 12459.000000)">
                <g id="Colors" transform="translate(1.801418, 2.251773)">
                    <path d="M13.9609929,-3.19996197e-15 L203.109929,-3.19996197e-15 C210.571649,-3.19996197e-15 216.620567,6.04891881 216.620567,13.5106383 L216.620567,126.549645 L0.45035461,126.549645 L0.45035461,13.5106383 C0.45035461,6.04891881 6.49927342,-3.19996197e-15 13.9609929,-3.19996197e-15 Z" id="Path" fill="#B9DDFC"></path>
                    <g id="Group" opacity="0.2" fill="#FFFFFF">
                        <path d="M183.217766,0 L61.3292908,122.946809 L0.26570922,122.946809 L0.45035461,8.10638298 C2.39588652,4.22432624 6.09780142,1.40060284 10.3266312,0 L183.217766,0 Z" id="Path"></path>
                    </g>
                    <rect id="Rectangle" fill="#F5F6F7" x="90.5212766" y="157.624113" width="36.0283688" height="30.1737589"></rect>
                    <g id="Group" opacity="0.15" transform="translate(90.521277, 157.624113)" fill="#3F456B">
                        <rect id="Rectangle" x="0" y="0" width="36.0283688" height="7.65602837"></rect>
                    </g>
                    <g id="Group" opacity="0.2" transform="translate(1.351064, 0.450355)" fill="#FFFFFF">
                        <path d="M213.540142,16.4199291 C213.540142,16.4199291 212.977199,6.30496454 200.817624,6.30496454 L14.4834043,6.30496454 C14.4834043,6.30496454 1.08535461,6.75531915 0.635,16.4199291 C0.635,16.4199291 -3.08042553,-3.1999414e-15 15.6092908,-3.1999414e-15 L199.579149,-3.1999414e-15 C199.579149,-3.1999414e-15 217.480745,-0.256702128 213.540142,16.4199291 Z" id="Path"></path>
                    </g>
                    <g id="Group" opacity="0.15" transform="translate(0.000000, 115.741135)" fill="#3F456B">
                        <rect id="Rectangle" x="0" y="0" width="216.170213" height="6.30496454"></rect>
                    </g>
                    <path d="M0.45035461,123.397163 L216.620567,123.397163 L216.620567,144.113475 C216.620567,151.575195 210.571649,157.624113 203.109929,157.624113 L13.9609929,157.624113 C6.49927342,157.624113 0.45035461,151.575195 0.45035461,144.113475 L0.45035461,123.397163 Z" id="Path" fill="#F5F6F7"></path>
                    <g id="Group" opacity="0.15" transform="translate(1.351064, 140.960993)" fill="#3F456B">
                        <path d="M0.90070922,0.243191489 C0.90070922,0.243191489 1.46365248,10.358156 13.623227,10.358156 L199.957447,10.358156 C199.957447,10.358156 213.355496,9.90780142 213.805851,0.243191489 C213.805851,0.243191489 217.521277,16.6631206 198.83156,16.6631206 L14.8617021,16.6631206 C14.8617021,16.6631206 -3.03989362,16.9198227 0.90070922,0.243191489 Z" id="Path"></path>
                    </g>
                    <g id="Group" opacity="0.2" transform="translate(0.000000, 124.297872)" fill="#FFFFFF">
                        <rect id="Rectangle" x="0" y="0" width="216.170213" height="6.30496454"></rect>
                    </g>
                    <g id="Group" opacity="0.15" transform="translate(100.879433, 131.953901)" fill="#3F456B">
                        <path d="M0.0315248227,7.92173759 C0.0315248227,12.1500453 3.45924548,15.577766 7.68755319,15.577766 C11.9158609,15.577766 15.3435816,12.1500453 15.3435816,7.92173759 C15.3435816,3.69342988 11.9158609,0.26570922 7.68755319,0.26570922 C3.45924548,0.26570922 0.0315248227,3.69342988 0.0315248227,7.92173759 L0.0315248227,7.92173759 Z" id="Path"></path>
                    </g>
                    <path d="M58.5460993,187.473617 L58.5460993,181.68656 C58.5460993,179.021997 60.704835,176.861244 63.3693972,176.858759 L154.183404,176.858759 C155.463403,176.858759 156.690911,177.367544 157.595584,178.273062 C158.500258,179.17858 159.007897,180.406562 159.006704,181.68656 L159.006704,187.473617" id="Path" fill="#F5F6F7"></path>
                    <g id="Group" opacity="0.3" transform="translate(84.216312, 67.553191)" fill="#3F456B">
                        <path d="M50.0749291,4.7287234 L49.6245745,4.7287234 C48.3809546,4.7287234 47.3728014,3.72057027 47.3728014,2.47695035 C47.3728014,1.23333044 48.3809546,0.225177305 49.6245745,0.225177305 L50.0749291,0.225177305 C51.318549,0.225177305 52.3267021,1.23333044 52.3267021,2.47695035 C52.3267021,3.72057027 51.318549,4.7287234 50.0749291,4.7287234 L50.0749291,4.7287234 Z M40.6174823,4.7287234 L40.1671277,4.7287234 C38.9235077,4.7287234 37.9153546,3.72057027 37.9153546,2.47695035 C37.9153546,1.23333044 38.9235077,0.225177305 40.1671277,0.225177305 L40.6174823,0.225177305 C41.8611022,0.225177305 42.8692553,1.23333044 42.8692553,2.47695035 C42.8692553,3.72057027 41.8611022,4.7287234 40.6174823,4.7287234 Z M31.1600355,4.7287234 L30.7096809,4.7287234 C29.4660609,4.7287234 28.4579078,3.72057027 28.4579078,2.47695035 C28.4579078,1.23333044 29.4660609,0.225177305 30.7096809,0.225177305 L31.1600355,0.225177305 C32.4036554,0.225177305 33.4118085,1.23333044 33.4118085,2.47695035 C33.4118085,3.72057027 32.4036554,4.7287234 31.1600355,4.7287234 Z M21.7025887,4.7287234 L21.252234,4.7287234 C20.0086141,4.7287234 19.000461,3.72057027 19.000461,2.47695035 C19.000461,1.23333044 20.0086141,0.225177305 21.252234,0.225177305 L21.7025887,0.225177305 C22.9462086,0.225177305 23.9543617,1.23333044 23.9543617,2.47695035 C23.9543617,3.72057027 22.9462086,4.7287234 21.7025887,4.7287234 L21.7025887,4.7287234 Z M12.2451418,4.7287234 L11.7947872,4.7287234 C10.5511673,4.7287234 9.54301418,3.72057027 9.54301418,2.47695035 C9.54301418,1.23333044 10.5511673,0.225177305 11.7947872,0.225177305 L12.2451418,0.225177305 C13.4887618,0.225177305 14.4969149,1.23333044 14.4969149,2.47695035 C14.4969149,3.72057027 13.4887618,4.7287234 12.2451418,4.7287234 L12.2451418,4.7287234 Z M2.78769504,4.7287234 L2.33734043,4.7287234 C1.09372051,4.7287234 0.0855673759,3.72057027 0.0855673759,2.47695035 C0.0855673759,1.23333044 1.09372051,0.225177305 2.33734043,0.225177305 L2.78769504,0.225177305 C4.03131495,0.225177305 5.03946809,1.23333044 5.03946809,2.47695035 C5.03946809,3.72057027 4.03131495,4.7287234 2.78769504,4.7287234 L2.78769504,4.7287234 Z" id="Shape"></path>
                    </g>
                </g>
                <g id="Lines" fill="#3F456B">
                    <path d="M204.911348,162.12766 L15.7624113,162.12766 C7.05707194,162.12766 0,155.070588 0,146.365248 L0,15.7624113 C0,7.05707194 7.05707194,0 15.7624113,0 L204.911348,0 C213.616687,0 220.673759,7.05707194 220.673759,15.7624113 L220.673759,146.365248 C220.673759,155.070588 213.616687,162.12766 204.911348,162.12766 Z M15.7624113,4.5035461 C9.54431177,4.5035461 4.5035461,9.54431177 4.5035461,15.7624113 L4.5035461,146.365248 C4.5035461,152.583348 9.54431177,157.624113 15.7624113,157.624113 L204.911348,157.624113 C211.129447,157.624113 216.170213,152.583348 216.170213,146.365248 L216.170213,15.7624113 C216.170213,9.54431177 211.129447,4.5035461 204.911348,4.5035461 L15.7624113,4.5035461 Z" id="Shape"></path>
                    <path d="M217.971631,127.450355 L2.25177305,127.450355 C1.00815313,127.450355 0,126.442201 0,125.198582 C0,123.954962 1.00815313,122.946809 2.25177305,122.946809 L217.971631,122.946809 C219.215251,122.946809 220.223404,123.954962 220.223404,125.198582 C220.223404,126.442201 219.215251,127.450355 217.971631,127.450355 Z" id="Path"></path>
                    <path d="M9.95734043,192.301418 C8.84303228,192.302882 7.89523051,191.489113 7.72808511,190.387411 C7.41681096,187.085442 8.48995924,183.802392 10.6914184,181.321773 C14.7446099,176.561525 22.324078,174.147624 33.1641135,174.147624 C39.1808511,174.147624 46.9674823,173.071277 49.9353191,167.955248 C51.097234,165.95117 51.0296809,164.275851 50.9396099,161.952021 C50.9396099,161.29 50.8900709,160.600957 50.8900709,159.862376 C50.8900709,158.618756 51.8982241,157.610603 53.141844,157.610603 C54.3854639,157.610603 55.393617,158.618756 55.393617,159.862376 C55.393617,160.519894 55.4161348,161.159397 55.443156,161.780887 C55.542234,164.38844 55.6458156,167.08156 53.8308865,170.211525 C50.6333688,175.732872 43.4727305,178.65117 33.1641135,178.65117 C21.4774113,178.65117 16.3974113,181.646028 14.1906738,184.159007 C11.8353191,186.861135 12.164078,189.599291 12.1820922,189.711879 C12.279259,190.304699 12.1355194,190.911769 11.7828409,191.398076 C11.4301623,191.884384 10.8977866,192.209608 10.3041135,192.301418 C10.1886883,192.310174 10.0727656,192.310174 9.95734043,192.301418 Z" id="Path"></path>
                    <path d="M128.351064,181.042553 C127.107444,181.042553 126.099291,180.0344 126.099291,178.79078 L126.099291,159.875887 C126.099291,158.632267 127.107444,157.624113 128.351064,157.624113 C129.594684,157.624113 130.602837,158.632267 130.602837,159.875887 L130.602837,178.79078 C130.602837,180.0344 129.594684,181.042553 128.351064,181.042553 L128.351064,181.042553 Z" id="Path"></path>
                    <path d="M92.322695,181.042553 C91.0790751,181.042553 90.070922,180.0344 90.070922,178.79078 L90.070922,159.875887 C90.070922,158.632267 91.0790751,157.624113 92.322695,157.624113 C93.566315,157.624113 94.5744681,158.632267 94.5744681,159.875887 L94.5744681,178.79078 C94.5744681,180.0344 93.566315,181.042553 92.322695,181.042553 L92.322695,181.042553 Z" id="Path"></path>
                    <path d="M160.812624,191.977163 C159.569004,191.977163 158.560851,190.96901 158.560851,189.72539 L158.560851,183.938333 C158.558372,182.51666 157.406496,181.364784 155.984823,181.362305 L65.157305,181.362305 C63.7363628,181.364789 62.585778,182.517389 62.5857801,183.938333 L62.5857801,189.72539 C62.5857801,190.96901 61.577627,191.977163 60.3340071,191.977163 C59.0903872,191.977163 58.082234,190.96901 58.082234,189.72539 L58.082234,183.938333 C58.0847148,180.031178 61.2501523,176.863726 65.157305,176.858759 L155.984823,176.858759 C159.892706,176.863721 163.059435,180.03045 163.064397,183.938333 L163.064397,189.72539 C163.064397,190.322597 162.827157,190.895345 162.404868,191.317634 C161.982579,191.739923 161.409831,191.977163 160.812624,191.977163 L160.812624,191.977163 Z" id="Path"></path>
                    <path d="M182.393617,192.301418 L38.7304965,192.301418 C37.4868765,192.301418 36.4787234,191.293265 36.4787234,190.049645 C36.4787234,188.806025 37.4868765,187.797872 38.7304965,187.797872 L182.393617,187.797872 C183.637237,187.797872 184.64539,188.806025 184.64539,190.049645 C184.64539,191.293265 183.637237,192.301418 182.393617,192.301418 L182.393617,192.301418 Z" id="Path"></path>
                    <path d="M110.336879,152.017199 C104.864952,152.017199 100.429078,147.581325 100.429078,142.109397 C100.429078,136.63747 104.864952,132.201596 110.336879,132.201596 C115.808807,132.201596 120.244681,136.63747 120.244681,142.109397 C120.244681,147.581325 115.808807,152.017199 110.336879,152.017199 Z M110.336879,136.736667 C107.352192,136.736667 104.932624,139.156234 104.932624,142.140922 C104.932624,145.12561 107.352192,147.545177 110.336879,147.545177 C113.321567,147.545177 115.741135,145.12561 115.741135,142.140922 C115.741135,139.156234 113.321567,136.736667 110.336879,136.736667 Z" id="Shape"></path>
                    <path d="M190.950355,192.301418 L190.5,192.301418 C189.25638,192.301418 188.248227,191.293265 188.248227,190.049645 C188.248227,188.806025 189.25638,187.797872 190.5,187.797872 L190.950355,187.797872 C192.193975,187.797872 193.202128,188.806025 193.202128,190.049645 C193.202128,191.293265 192.193975,192.301418 190.950355,192.301418 L190.950355,192.301418 Z" id="Path"></path>
                </g>
            </g>
        </g>
    </g>
</svg>