<?xml version="1.0" encoding="UTF-8"?>
<svg width="216px" height="218px" viewBox="0 0 216 218" version="1.1" xmlns="http://www.w3.org/2000/svg" xmlns:xlink="http://www.w3.org/1999/xlink">
    <title>7082212_success_finish_flag_destination_icon</title>
    <g id="Style-guide" stroke="none" stroke-width="1" fill="none" fill-rule="evenodd">
        <g id="Styleguide" transform="translate(-89.000000, -12750.000000)" fill-rule="nonzero">
            <g id="7082212_success_finish_flag_destination_icon" transform="translate(89.000000, 12750.000000)">
                <g id="Colors" transform="translate(1.801418, 2.251773)">
                    <path d="M141.411348,52.6914894 L211.666667,52.6914894 L175.187943,92.322695 L211.666667,131.953901 L96.4029078,131.953901 C95.3338084,131.978063 94.2997513,131.572078 93.5326642,130.827004 C92.7655771,130.081931 92.3296638,129.06013 92.322695,127.99078 L92.322695,100.879433" id="Path" fill="#E95A6B"></path>
                    <path d="M141.411348,95.9255319 C141.411348,98.1640478 139.596672,99.9787234 137.358156,99.9787234 L31.5248227,99.9787234 C29.2863068,99.9787234 27.4716312,98.1640478 27.4716312,95.9255319 L27.4716312,24.7695035 C27.4716312,22.5309877 29.2863068,20.7163121 31.5248227,20.7163121 L137.358156,20.7163121 C139.596672,20.7163121 141.411348,22.5309877 141.411348,24.7695035 L141.411348,95.9255319 Z" id="Path" fill="#E95A6B"></path>
                    <g id="Group" opacity="0.15" transform="translate(92.322695, 123.847518)" fill="#3F456B">
                        <rect id="Rectangle" x="0" y="0" width="113.939716" height="7.20567376"></rect>
                    </g>
                    <g id="Group" opacity="0.2" transform="translate(92.322695, 99.978723)" fill="#3F456B">
                        <g opacity="0.3" id="Path">
                            <polygon points="0 0 0 30.8628014 46.940461 0"></polygon>
                        </g>
                    </g>
                    <g id="Group" opacity="0.15" transform="translate(27.471631, 92.322695)" fill="#3F456B">
                        <rect id="Rectangle" x="0" y="0" width="113.939716" height="6.75531915"></rect>
                    </g>
                    <path d="M0.45035461,213.01773 L0.45035461,205.091489 C0.45035461,203.150461 2.14368794,201.758865 4.08471631,201.758865 L39.9374468,201.758865 C40.8276601,201.726367 41.6907786,202.06828 42.3172412,202.701589 C42.9437037,203.334898 43.2762149,204.201682 43.2340426,205.091489 L43.2340426,213.01773" id="Path" fill="#A7AEC1"></path>
                    <g id="Group" opacity="0.3" transform="translate(0.000000, 202.209220)" fill="#FFFFFF">
                        <path d="M43.2340426,2.92730496 C43.2340426,4.54407801 41.3830851,5.85460993 39.0997872,5.85460993 L4.13425532,5.85460993 C1.85095745,5.85460993 0,4.54407801 0,2.92730496 L0,2.92730496 C0,1.31053191 1.85095745,0 4.13425532,0 L39.0997872,0 C41.3830851,0 43.2340426,1.31053191 43.2340426,2.92730496 Z" id="Path"></path>
                    </g>
                    <path d="M16.212766,201.758865 L16.212766,6.15634752 C16.212766,6.15634752 15.4831915,0.180141844 21.8421986,0.180141844 C28.2012057,0.180141844 27.4716312,6.15634752 27.4716312,6.15634752 L27.4716312,201.758865" id="Path" fill="#A7AEC1"></path>
                    <g id="Group" opacity="0.2" transform="translate(141.411348, 52.691489)" fill="#FFFFFF">
                        <rect id="Rectangle" x="0" y="0" width="65.751773" height="6.75531915"></rect>
                    </g>
                    <g id="Group" opacity="0.2" transform="translate(27.471631, 20.265957)" fill="#FFFFFF">
                        <rect id="Rectangle" x="0" y="0" width="113.939716" height="7.65602837"></rect>
                    </g>
                    <g id="Group" opacity="0.15" transform="translate(27.471631, 19.815603)" fill="#3F456B">
                        <rect id="Rectangle" x="0" y="0" width="8.10638298" height="79.712766"></rect>
                    </g>
                    <g id="Group" opacity="0.15" transform="translate(92.322695, 52.691489)" fill="#3F456B">
                        <polygon id="Path" points="49.0886525 0 49.0886525 46.8368794 0 46.8368794 0 78.3617021 49.0886525 78.3617021 49.0886525 79.712766 57.1950355 79.712766 57.1950355 0"></polygon>
                    </g>
                    <g id="Group" opacity="0.2" transform="translate(53.141844, 19.815603)" fill="#FFFFFF">
                        <rect id="Rectangle" x="0" y="0" width="35.5780142" height="79.712766"></rect>
                    </g>
                </g>
                <g id="Lines" fill="#3F456B">
                    <path d="M29.2730496,206.262411 C28.0294297,206.262411 27.0212766,205.254258 27.0212766,204.010638 L27.0212766,8.27301418 L27.0212766,8.13340426 C27.0618085,7.70556738 27.0212766,6.35900709 26.3007092,5.55737589 C25.7782979,4.97641844 24.8775887,4.68368794 23.6256028,4.68368794 C22.373617,4.68368794 21.4729078,4.97641844 20.9504965,5.55737589 C20.2659574,6.35900709 20.2074113,7.70556738 20.2659574,8.15592199 L20.2659574,8.29102837 L20.2659574,204.010638 C20.2659574,205.254258 19.2578043,206.262411 18.0141844,206.262411 C16.7705645,206.262411 15.7624113,205.254258 15.7624113,204.010638 L15.7624113,8.51620567 C15.6948582,7.74159574 15.6002837,4.82780142 17.5638298,2.58953901 C18.5365957,1.49067376 20.3785461,0.180141844 23.6256028,0.180141844 C26.8726596,0.180141844 28.7326241,1.49067376 29.7234043,2.58953901 C31.7049645,4.84131206 31.6103901,7.74159574 31.5248227,8.51620567 L31.5248227,204.010638 C31.5248227,205.254258 30.5166696,206.262411 29.2730496,206.262411 Z" id="Path"></path>
                    <path d="M45.035461,217.521277 L2.25177305,217.521277 C1.00815313,217.521277 0,216.513123 0,215.269504 L0,207.343262 C0,204.19078 2.58503546,201.758865 5.88613475,201.758865 L41.7388652,201.758865 C43.2253134,201.730086 44.6588818,202.310395 45.7067487,203.365066 C46.7546155,204.419737 47.3256338,205.857032 47.287234,207.343262 L47.287234,215.269504 C47.287234,216.513123 46.2790809,217.521277 45.035461,217.521277 Z M4.5035461,213.01773 L42.7836879,213.01773 L42.7836879,207.343262 C42.8240376,207.052557 42.7284414,206.759446 42.5244575,206.548429 C42.3204737,206.337411 42.0307714,206.231936 41.7388652,206.262411 L5.88613475,206.262411 C5.20609929,206.262411 4.5035461,206.66773 4.5035461,207.343262 L4.5035461,213.01773 Z" id="Shape"></path>
                    <path d="M139.245142,104.482314 L29.2730496,104.482314 C28.0294297,104.482314 27.0212766,103.474116 27.0212766,102.230496 C27.0212766,100.986877 28.0294297,99.9787234 29.2730496,99.9787234 L139.245142,99.9787234 C139.715025,99.9780153 140.16417,99.7851403 140.488249,99.4449 C140.812328,99.1046597 140.983135,98.6466666 140.960993,98.177305 L140.960993,26.8861702 C140.975814,26.4311069 140.798072,25.9908872 140.471442,25.6736879 C140.144812,25.3564885 139.699576,25.1917152 139.245142,25.2198582 L29.2730496,25.2198582 C28.0294297,25.2198582 27.0212766,24.211705 27.0212766,22.9680851 C27.0212766,21.7244652 28.0294297,20.7156473 29.2730496,20.7156473 L139.245142,20.7156473 C140.893342,20.6920518 142.481844,21.3326812 143.652075,22.493591 C144.822306,23.6545008 145.475618,25.2378288 145.465484,26.8861702 L145.465484,98.177305 C145.493615,99.8433785 144.850487,101.450958 143.680293,102.637251 C142.510099,103.823545 140.911457,104.488578 139.245142,104.482314 Z" id="Path"></path>
                    <path d="M213.468085,136.457447 L98.2043262,136.457447 C96.5354809,136.490129 94.9237317,135.849658 93.7324907,134.680445 C92.5412496,133.511233 91.87081,131.911718 91.8723378,130.242553 L91.8723378,103.131206 C91.8723378,101.887586 92.8804936,100.879433 94.1241135,100.879433 C95.3677334,100.879433 96.3758865,101.887586 96.3758865,103.131206 L96.3758865,130.242553 C96.3813215,130.715347 96.5796049,131.165413 96.924813,131.488514 C97.2700212,131.811615 97.7322073,131.979722 98.2043262,131.953901 L208.329539,131.953901 L175.332057,96.1011702 C174.536616,95.2387836 174.536616,93.9101525 175.332057,93.047766 L208.329539,57.1950355 L143.212766,57.1950355 C141.969146,57.1950355 140.960993,56.1868823 140.960993,54.9432624 C140.960993,53.6996425 141.969146,52.6914884 143.212766,52.6914884 L213.468085,52.6914884 C214.36271,52.6906498 215.172979,53.2194937 215.53233,54.0387747 C215.891681,54.8580558 215.731946,55.8123599 215.12539,56.4699645 L180.04727,94.5744681 L215.116383,132.678972 C215.722018,133.335374 215.882196,134.287539 215.525137,135.106043 C215.168078,135.924547 214.361076,136.454716 213.468085,136.457447 Z" id="Path"></path>
                    <path d="M95.3580851,135.399115 C94.3682954,135.400374 93.4937334,134.755149 93.2028683,133.80906 C92.9120031,132.862972 93.2730413,131.837875 94.0925887,131.282872 L140.704291,99.7130142 C141.370401,99.2617003 142.226685,99.2000347 142.95059,99.5512462 C143.674494,99.9024577 144.15604,100.613189 144.213835,101.415714 C144.271629,102.21824 143.89689,102.990636 143.23078,103.44195 L96.619078,135.011809 C96.2468345,135.263895 95.8076546,135.399115 95.3580851,135.399115 L95.3580851,135.399115 Z" id="Path"></path>
                </g>
            </g>
        </g>
    </g>
</svg>