<?xml version="1.0" encoding="UTF-8"?>
<svg width="243px" height="243px" viewBox="0 0 243 243" version="1.1" xmlns="http://www.w3.org/2000/svg" xmlns:xlink="http://www.w3.org/1999/xlink">
    <title>6185446_blueprint_design_floor_plan_icon</title>
    <g id="Style-guide" stroke="none" stroke-width="1" fill="none" fill-rule="evenodd">
        <g id="Styleguide" transform="translate(-383.000000, -13728.000000)" fill-rule="nonzero">
            <g id="6185446_blueprint_design_floor_plan_icon" transform="translate(383.000000, 13728.000000)">
                <g id="Colors" transform="translate(2.468720, 2.468720)">
                    <polygon id="Path" fill="#F9D7BD" points="41.7756858 237.436586 41.4053777 237.436586 18.0809079 226.124909 41.5535009 214.230615 41.7756858 214.230615 41.7756858 214.275052 41.7756858 226.124909"></polygon>
                    <polygon id="Path" fill="#FFBC5A" points="180.873265 237.377337 41.0795066 236.740407 41.0844441 225.423793 41.0844441 213.573935 41.0795066 213.534435 180.878203 214.171365 180.878203 214.561423 180.873265 225.423793 180.873265 237.27365"></polygon>
                    <polyline id="Path" fill="#DAE1EA" points="173.891724 237.377337 196.673075 237.461273 196.673075 237.27365 196.673075 214.561423 196.673075 214.255302 173.891724 214.171365 173.891724 237.377337"></polyline>
                    <path d="M220.318479,225.996536 C220.258785,232.394811 215.044894,237.544741 208.646369,237.525514 L196.673075,237.461273 L196.673075,214.255302 L208.784618,214.319489 C215.15788,214.376247 220.299803,219.548986 220.318479,225.922474 L220.318479,225.996536 Z" id="Path" fill="#FF9499"></path>
                    <g id="Group" opacity="0.2" transform="translate(18.762275, 225.147296)" fill="#3F456B">
                        <path d="M201.610516,0.77024075 C201.610516,0.77024075 199.63554,5.21393738 185.810706,5.21393738 L22.317232,5.21393738 L0.345620849,0.0296246442 L22.1345467,12.1263544 L184.576346,12.1263544 C184.576346,12.1263544 200.623028,13.1138425 201.610516,0.77024075 Z" id="Path"></path>
                    </g>
                    <g id="Group" opacity="0.3" transform="translate(38.512037, 220.209855)" fill="#FFFFFF">
                        <path d="M166.554687,5.21393738 L2.56746917,5.21393738 C1.20403256,5.21393738 0.098748814,4.10865363 0.098748814,2.74521703 C0.098748814,1.38178043 1.20403256,0.276496679 2.56746917,0.276496679 L166.554687,0.276496679 C167.918124,0.276496679 169.023408,1.38178043 169.023408,2.74521703 C169.023408,4.10865363 167.918124,5.21393738 166.554687,5.21393738 L166.554687,5.21393738 Z" id="Path"></path>
                    </g>
                    <g id="Group" opacity="0.3" transform="translate(183.179050, 211.816206)" fill="#3F456B">
                        <path d="M2.58228149,27.9261646 C1.21884489,27.9261646 0.113561136,26.8208809 0.113561136,25.4574443 L0.113561136,2.74521703 C0.113561136,1.38178043 1.21884489,0.276496679 2.58228149,0.276496679 C3.94571809,0.276496679 5.05100184,1.38178043 5.05100184,2.74521703 L5.05100184,25.4574443 C5.05100184,26.1121896 4.79090526,26.7401183 4.32793039,27.2030932 C3.86495551,27.666068 3.23702683,27.9261646 2.58228149,27.9261646 L2.58228149,27.9261646 Z" id="Path"></path>
                    </g>
                    <g id="_编组_">
                        <path d="M237.490898,15.8590595 L237.490898,182.132313 C237.592059,176.398832 234.591189,171.057052 229.642023,168.160712 C224.692858,165.264371 218.565881,165.264371 213.616716,168.160712 C208.66755,171.057052 205.66668,176.398832 205.767841,182.132313 L205.767841,15.8590595 C205.767841,7.10003973 212.537072,0 221.30103,0 C230.064987,0 237.490898,7.10003973 237.490898,15.8590595 Z" id="Path" fill="#F5F6F7"></path>
                        <path d="M221.631838,166.268316 C230.282836,166.420953 237.215976,173.477499 237.215976,182.129844 C237.215976,190.782188 230.282836,197.838735 221.631838,197.991372 L0,197.991372 L0,32.053865 L205.767841,31.7230565 L205.767841,182.132313 C205.766531,177.924517 207.437491,173.888686 210.412851,170.913326 C213.388212,167.937965 217.424043,166.267005 221.631838,166.268316 Z" id="Path" fill="#B9DDFC"></path>
                    </g>
                    <g id="Group" opacity="0.15" transform="translate(229.097249, 1.974976)" fill="#3F456B">
                        <path d="M0.162935543,165.567199 L0.162935543,0 C0.162935543,0 8.39364919,3.94995256 8.39364919,13.824834 L8.39364919,176.597442 C8.39364919,176.597442 8.23071365,169.685025 0.162935543,165.567199 Z" id="Path"></path>
                    </g>
                    <g id="Group" opacity="0.15" transform="translate(221.691088, 165.898008)" fill="#3F456B">
                        <path d="M0,0 L0,32.0933646 C0,32.0933646 15.7998102,32.0933646 15.7998102,16.2935543 C15.7998102,0.49374407 0,0 0,0 Z" id="Path"></path>
                    </g>
                    <g id="Group" opacity="0.5" transform="translate(13.331090, 44.930710)" fill="#3F456B">
                        <path d="M129.360946,4.9374407 L74.0616105,4.9374407 C72.6981739,4.9374407 71.5928902,3.83215695 71.5928902,2.46872035 C71.5928902,1.10528375 72.6981739,7.01652525e-15 74.0616105,7.01652525e-15 L129.360946,7.01652525e-15 C130.724383,7.01652525e-15 131.829667,1.10528375 131.829667,2.46872035 C131.829667,3.83215695 130.724383,4.9374407 129.360946,4.9374407 L129.360946,4.9374407 Z" id="Path"></path>
                        <path d="M160.466823,104.179999 C159.103386,104.179999 157.998102,103.074715 157.998102,101.711278 L157.998102,89.8614208 C157.998102,88.4979842 159.103386,87.3927004 160.466823,87.3927004 L192.229379,87.3927004 C193.592815,87.3927004 194.698099,88.4979842 194.698099,89.8614208 C194.698099,91.2248574 193.592815,92.3301411 192.229379,92.3301411 L162.935543,92.3301411 L162.935543,101.711278 C162.935543,103.074715 161.830259,104.179999 160.466823,104.179999 L160.466823,104.179999 Z" id="Path"></path>
                        <path d="M160.466823,139.729572 L2.46872035,139.729572 C1.10528375,139.729572 3.50826262e-15,138.624288 3.50826262e-15,137.260852 L3.50826262e-15,2.46872035 C3.50826262e-15,1.10528375 1.10528375,7.01652525e-15 2.46872035,7.01652525e-15 L41.968246,7.01652525e-15 C43.3316826,7.01652525e-15 44.4369663,1.10528375 44.4369663,2.46872035 C44.4369663,3.83215695 43.3316826,4.9374407 41.968246,4.9374407 L4.9374407,4.9374407 L4.9374407,134.792131 L157.998102,134.792131 L157.998102,125.410994 C157.998102,124.047557 159.103386,122.942273 160.466823,122.942273 C161.830259,122.942273 162.935543,124.047557 162.935543,125.410994 L162.935543,137.260852 C162.935543,138.624288 161.830259,139.729572 160.466823,139.729572 L160.466823,139.729572 Z" id="Path"></path>
                        <path d="M191.572699,4.9374407 L160.713695,4.9374407 C159.350258,4.9374407 158.244975,3.83215695 158.244975,2.46872035 C158.244975,1.10528375 159.350258,7.01652525e-15 160.713695,7.01652525e-15 L191.572699,7.01652525e-15 C192.936136,7.01652525e-15 194.04142,1.10528375 194.04142,2.46872035 C194.04142,3.83215695 192.936136,4.9374407 191.572699,4.9374407 L191.572699,4.9374407 Z" id="Path"></path>
                        <path d="M160.466823,68.6304258 L89.8614208,68.6304258 C88.4979842,68.6304258 87.3927004,67.525142 87.3927004,66.1617054 L87.3927004,2.46872035 C87.3927004,1.10528375 88.4979842,7.01652525e-15 89.8614208,7.01652525e-15 C91.2248574,7.01652525e-15 92.3301411,1.10528375 92.3301411,2.46872035 L92.3301411,63.6929851 L160.466823,63.6929851 C161.830259,63.6929851 162.935543,64.7982688 162.935543,66.1617054 C162.935543,67.525142 161.830259,68.6304258 160.466823,68.6304258 L160.466823,68.6304258 Z" id="Path"></path>
                        <path d="M192.066443,68.6304258 L176.266633,68.6304258 C174.903196,68.6304258 173.797913,67.525142 173.797913,66.1617054 C173.797913,64.7982688 174.903196,63.6929851 176.266633,63.6929851 L192.066443,63.6929851 C193.42988,63.6929851 194.535164,64.7982688 194.535164,66.1617054 C194.535164,67.525142 193.42988,68.6304258 192.066443,68.6304258 Z" id="Path"></path>
                        <path d="M65.9148334,139.729651 C64.5513968,139.729651 63.446113,138.624288 63.446113,137.260852 C63.446113,119.362629 58.1926761,105.044051 47.8240506,94.7001127 C30.0492641,76.9549508 2.85384073,76.7772029 2.47859523,76.7772029 L2.47859523,76.7772029 C1.11515863,76.7772029 0.0098748814,75.6719192 0.0098748814,74.3084826 C0.0098748814,72.945046 1.11515863,71.8397622 2.47859523,71.8397622 C3.66851844,71.8397622 31.9995532,71.9483859 51.3000089,91.17478 C62.6561225,102.481519 68.4033035,117.985083 68.4033035,137.260852 C68.4033035,137.919033 68.1405186,138.549973 67.6732635,139.01352 C67.2060083,139.477067 66.5729939,139.734837 65.9148334,139.729651 L65.9148334,139.729651 Z" id="Path"></path>
                        <path d="M26.2918717,52.3368714 L2.71559239,52.3368714 C1.35215578,52.3368714 0.246872035,51.2315877 0.246872035,49.8681511 C0.246872035,48.5047145 1.35215578,47.3994307 2.71559239,47.3994307 L23.8231514,47.3994307 L23.8231514,2.71559239 C23.8231514,1.35215578 24.9284351,0.246872035 26.2918717,0.246872035 C27.6553083,0.246872035 28.7605921,1.35215578 28.7605921,2.71559239 L28.7605921,49.8681511 C28.7605921,51.2315877 27.6553083,52.3368714 26.2918717,52.3368714 L26.2918717,52.3368714 Z" id="Path"></path>
                        <path d="M144.667013,108.129951 L105.167487,108.129951 C103.80405,108.129951 102.698767,107.024668 102.698767,105.661231 L102.698767,89.3676767 C102.698767,88.0042401 103.80405,86.8989564 105.167487,86.8989564 L144.667013,86.8989564 C146.030449,86.8989564 147.135733,88.0042401 147.135733,89.3676767 L147.135733,105.661231 C147.135733,107.024668 146.030449,108.129951 144.667013,108.129951 Z M107.636207,103.192511 L142.198292,103.192511 L142.198292,91.8363971 L107.636207,91.8363971 L107.636207,103.192511 Z" id="Shape"></path>
                        <path d="M177.254121,45.4244545 L160.960567,45.4244545 C159.59713,45.4244545 158.491847,44.3191707 158.491847,42.9557341 L158.491847,26.6621798 C158.491847,25.2987432 159.59713,24.1934594 160.960567,24.1934594 L177.254121,24.1934594 C178.617558,24.1934594 179.722842,25.2987432 179.722842,26.6621798 L179.722842,42.9557341 C179.722842,44.3191707 178.617558,45.4244545 177.254121,45.4244545 Z M163.429287,40.4870138 L174.785401,40.4870138 L174.785401,29.1309001 L163.429287,29.1309001 L163.429287,40.4870138 Z" id="Shape"></path>
                        <path d="M55.7930799,37.0308053 L39.4995256,37.0308053 C38.136089,37.0308053 37.0308053,35.9255215 37.0308053,34.5620849 L37.0308053,18.2685306 C37.0308053,16.905094 38.136089,15.7998102 39.4995256,15.7998102 L55.7930799,15.7998102 C57.1565165,15.7998102 58.2618003,16.905094 58.2618003,18.2685306 L58.2618003,34.5620849 C58.2618003,35.9255215 57.1565165,37.0308053 55.7930799,37.0308053 Z M41.968246,32.0933646 L53.3243596,32.0933646 L53.3243596,20.7372509 L41.968246,20.7372509 L41.968246,32.0933646 Z" id="Shape"></path>
                        <path d="M34.5620849,123.929762 L18.2685306,123.929762 C16.905094,123.929762 15.7998102,122.824478 15.7998102,121.461041 L15.7998102,105.167487 C15.7998102,103.80405 16.905094,102.698767 18.2685306,102.698767 L34.5620849,102.698767 C35.9255215,102.698767 37.0308053,103.80405 37.0308053,105.167487 L37.0308053,121.461041 C37.0308053,122.824478 35.9255215,123.929762 34.5620849,123.929762 Z M20.7372509,118.992321 L32.0933646,118.992321 L32.0933646,107.636207 L20.7372509,107.636207 L20.7372509,118.992321 Z" id="Shape"></path>
                        <path d="M144.667013,68.1366817 C143.303576,68.1366817 142.198292,67.0313979 142.198292,65.6679613 L142.198292,28.8840281 L89.8614208,28.8840281 C88.4979842,28.884028 87.3927006,27.7787443 87.3927006,26.4153078 C87.3927006,25.0518712 88.4979842,23.9465874 89.8614208,23.9465874 L144.667013,23.9465874 C146.030449,23.9465874 147.135733,25.0518712 147.135733,26.4153078 L147.135733,65.6679613 C147.135733,67.0313979 146.030449,68.1366817 144.667013,68.1366817 L144.667013,68.1366817 Z" id="Path"></path>
                        <path d="M101.711278,57.7680562 C100.347842,57.7680562 99.2425581,56.6627725 99.2425581,55.2993359 L99.2425581,36.5370612 C99.2425581,35.1736246 100.347842,34.0683408 101.711278,34.0683408 C103.074715,34.0683408 104.179999,35.1736246 104.179999,36.5370612 L104.179999,55.2993359 C104.179999,55.9540812 103.919902,56.5820099 103.456927,57.0449848 C102.993952,57.5079596 102.366024,57.7680562 101.711278,57.7680562 L101.711278,57.7680562 Z" id="Path"></path>
                        <path d="M80.9740275,68.6304258 L80.4802834,68.6304258 C79.1168468,68.6304258 78.0115631,67.525142 78.0115631,66.1617054 C78.0115631,64.7982688 79.1168468,63.6929851 80.4802834,63.6929851 L80.9740275,63.6929851 C82.3374641,63.6929851 83.4427479,64.7982688 83.4427479,66.1617054 C83.4427479,67.525142 82.3374641,68.6304258 80.9740275,68.6304258 L80.9740275,68.6304258 Z M70.605402,68.6304258 L70.111658,68.6304258 C68.7482214,68.6304258 67.6429376,67.525142 67.6429376,66.1617054 C67.6429376,64.7982688 68.7482214,63.6929851 70.111658,63.6929851 L70.605402,63.6929851 C71.9688386,63.6929851 73.0741224,64.7982688 73.0741224,66.1617054 C73.0741224,67.525142 71.9688386,68.6304258 70.605402,68.6304258 Z M60.2367766,68.6304258 L59.7430325,68.6304258 C58.3795959,68.6304258 57.2743121,67.525142 57.2743121,66.1617054 C57.2743121,64.7982688 58.3795959,63.6929851 59.7430325,63.6929851 L60.2367766,63.6929851 C61.6002132,63.6929851 62.7054969,64.7982688 62.7054969,66.1617054 C62.7054969,67.525142 61.6002132,68.6304258 60.2367766,68.6304258 L60.2367766,68.6304258 Z M49.8681511,68.6304258 L49.374407,68.6304258 C48.0109704,68.6304258 46.9056867,67.525142 46.9056867,66.1617054 C46.9056867,64.7982688 48.0109704,63.6929851 49.374407,63.6929851 L49.8681511,63.6929851 C51.2315877,63.6929851 52.3368714,64.7982688 52.3368714,66.1617054 C52.3368714,67.525142 51.2315877,68.6304258 49.8681511,68.6304258 Z" id="Shape"></path>
                    </g>
                </g>
                <g id="Lines" fill="#3F456B">
                    <path d="M211.189151,242.462901 L211.100277,242.462901 L43.1680441,241.677847 C42.7983358,241.678296 42.4334626,241.593834 42.1015569,241.430975 L18.7622747,230.114361 C17.9068585,229.709497 17.3581806,228.851245 17.3496705,227.904893 C17.3413566,226.958542 17.8746912,226.090671 18.7227751,225.670665 L42.2052431,213.791182 C42.5516031,213.617293 42.9335475,213.526032 43.3211047,213.524561 L43.3211047,213.524561 L211.258275,214.309614 C219.029864,214.331429 225.312296,220.649231 225.290538,228.420819 C225.268667,236.192408 218.950865,242.47484 211.179276,242.453026 L211.189151,242.462901 Z M43.7506621,236.745344 L211.129902,237.525509 L211.189151,237.525509 C216.233867,237.541821 220.33668,233.465535 220.35309,228.420819 C220.369402,223.376104 216.293116,219.27329 211.2484,219.256929 L43.9037227,218.476814 L25.4080699,227.857951 L43.7506621,236.745344 Z" id="Shape"></path>
                    <path d="M199.141796,242.211091 C197.778359,242.211091 196.673075,241.105807 196.673075,239.742371 L196.673075,217.030144 C196.673075,215.666707 197.778359,214.561423 199.141796,214.561423 C200.505232,214.561423 201.610516,215.666707 201.610516,217.030144 L201.610516,239.742371 C201.610516,241.105807 200.505232,242.211091 199.141796,242.211091 L199.141796,242.211091 Z" id="Path"></path>
                    <path d="M176.172822,242.211091 C174.809385,242.211091 173.704101,241.105807 173.704101,239.742371 L173.704101,217.030144 C173.704101,215.666707 174.809385,214.561423 176.172822,214.561423 C177.536258,214.561423 178.641542,215.666707 178.641542,217.030144 L178.641542,239.742371 C178.641542,241.105807 177.536258,242.211091 176.172822,242.211091 L176.172822,242.211091 Z" id="Path"></path>
                    <path d="M43.9432222,241.44085 C42.5797856,241.44085 41.4745019,240.335567 41.4745019,238.97213 L41.4745019,216.259903 C41.4745019,214.896466 42.5797856,213.791182 43.9432222,213.791182 C45.3066589,213.791182 46.4119426,214.896466 46.4119426,216.259903 L46.4119426,238.97213 C46.4119426,240.335567 45.3066589,241.44085 43.9432222,241.44085 L43.9432222,241.44085 Z" id="Path"></path>
                    <path d="M224.100559,202.928813 L2.46872035,202.928813 C1.10528375,202.928813 0,201.823529 0,200.460093 L0,34.5225854 C0,33.1591488 1.10528375,32.053865 2.46872035,32.053865 L205.772779,31.727994 L205.772779,18.3277799 C205.772779,8.05296579 213.672684,0 223.774687,0 C234.059376,0 242.428338,8.22083877 242.428338,18.3277799 L242.428338,184.601033 C242.417453,194.718674 234.2182,202.917928 224.100559,202.928813 Z M4.9374407,197.991372 L224.100559,197.991372 C229.518891,197.991372 234.403607,194.727183 236.476652,189.721105 C238.549697,184.715027 237.402749,178.953092 233.570702,175.122459 C229.738656,171.291825 223.976299,170.147001 218.970986,172.221891 C213.965673,174.296781 210.703285,179.1827 210.705282,184.601033 C210.705282,185.96447 209.599998,187.069753 208.236562,187.069753 C206.873125,187.069753 205.767841,185.96447 205.767841,184.601033 L205.767841,36.6654347 L4.9374407,36.9863683 L4.9374407,197.991372 Z M224.100559,166.268316 C229.179862,166.264432 234.031481,168.375386 237.490898,172.094496 L237.490898,18.3277799 C237.490898,11.0697421 231.205536,4.9374407 223.76975,4.9374407 C216.442588,4.9374407 210.705282,10.82287 210.705282,18.3277799 L210.705282,172.094496 C214.165868,168.374127 219.019538,166.263058 224.100559,166.268316 L224.100559,166.268316 Z" id="Shape"></path>
                </g>
            </g>
        </g>
    </g>
</svg>