<?xml version="1.0" encoding="UTF-8"?>
<svg width="221px" height="222px" viewBox="0 0 221 222" version="1.1" xmlns="http://www.w3.org/2000/svg" xmlns:xlink="http://www.w3.org/1999/xlink">
    <title>6552337_chart_flow_sitemap_work_icon</title>
    <g id="Style-guide" stroke="none" stroke-width="1" fill="none" fill-rule="evenodd">
        <g id="Styleguide" transform="translate(-1304.000000, -12748.000000)" fill-rule="nonzero">
            <g id="6552337_chart_flow_sitemap_work_icon" transform="translate(1304.000000, 12748.000000)">
                <g id="Colors" transform="translate(2.251773, 2.251773)">
                    <rect id="Rectangle" fill="#B2C6ED" x="50.4397163" y="0" width="115.29078" height="62.1489362"></rect>
                    <g id="Group" opacity="0.15" transform="translate(50.439716, 54.042553)" fill="#3F456B">
                        <rect id="Rectangle" x="0" y="0" width="115.29078" height="8.10638298"></rect>
                    </g>
                    <g id="Group" opacity="0.3" transform="translate(50.439716, 0.000000)" fill="#FFFFFF">
                        <rect id="Rectangle" x="0" y="0" width="115.29078" height="7.65602837"></rect>
                    </g>
                    <rect id="Rectangle" fill="#8BD0F7" x="0" y="162.578014" width="61.6985816" height="54.0425532"></rect>
                    <g id="Group" opacity="0.15" transform="translate(0.000000, 208.964539)" fill="#3F456B">
                        <rect id="Rectangle" x="0" y="0" width="61.6985816" height="7.65602837"></rect>
                    </g>
                    <g id="Group" opacity="0.3" transform="translate(0.000000, 162.578014)" fill="#FFFFFF">
                        <rect id="Rectangle" x="0" y="0" width="61.6985816" height="7.65602837"></rect>
                    </g>
                    <rect id="Rectangle" fill="#9ED8CD" x="77.4609929" y="162.578014" width="61.248227" height="54.0425532"></rect>
                    <g id="Group" opacity="0.15" transform="translate(77.460993, 208.964539)" fill="#3F456B">
                        <rect id="Rectangle" x="0" y="0" width="61.248227" height="7.65602837"></rect>
                    </g>
                    <g id="Group" opacity="0.3" transform="translate(77.460993, 162.578014)" fill="#FFFFFF">
                        <rect id="Rectangle" x="0" y="0" width="61.248227" height="7.65602837"></rect>
                    </g>
                    <rect id="Rectangle" fill="#FF9499" x="154.921986" y="162.578014" width="61.248227" height="54.0425532"></rect>
                    <g id="Group" opacity="0.15" transform="translate(154.921986, 208.964539)" fill="#3F456B">
                        <rect id="Rectangle" x="0" y="0" width="61.248227" height="7.65602837"></rect>
                    </g>
                    <g id="Group" opacity="0.3" transform="translate(154.921986, 162.578014)" fill="#FFFFFF">
                        <rect id="Rectangle" x="0" y="0" width="61.248227" height="7.65602837"></rect>
                    </g>
                    <g id="Group" opacity="0.3" transform="translate(13.510638, 180.592199)" fill="#3F456B">
                        <path d="M33.3262411,4.5035461 L2.25177305,4.5035461 C1.00815313,4.5035461 3.19996197e-15,3.49539297 3.19996197e-15,2.25177305 C3.19996197e-15,1.00815313 1.00815313,0 2.25177305,0 L33.3262411,0 C34.5698611,0 35.5780142,1.00815313 35.5780142,2.25177305 C35.5780142,3.49539297 34.5698611,4.5035461 33.3262411,4.5035461 Z" id="Path"></path>
                        <path d="M33.3262411,17.5638298 L2.25177305,17.5638298 C1.00815313,17.5638298 3.19996197e-15,16.5556767 3.19996197e-15,15.3120567 C3.19996197e-15,14.0684368 1.00815313,13.0602837 2.25177305,13.0602837 L33.3262411,13.0602837 C34.5698611,13.0602837 35.5780142,14.0684368 35.5780142,15.3120567 C35.5780142,16.5556767 34.5698611,17.5638298 33.3262411,17.5638298 Z" id="Path"></path>
                    </g>
                    <g id="Group" opacity="0.3" transform="translate(90.521277, 180.592199)" fill="#3F456B">
                        <path d="M33.3262411,4.5035461 L2.25177305,4.5035461 C1.00815313,4.5035461 1.27998479e-14,3.49539297 1.27998479e-14,2.25177305 C1.27998479e-14,1.00815313 1.00815313,0 2.25177305,0 L33.3262411,0 C34.5698611,0 35.5780142,1.00815313 35.5780142,2.25177305 C35.5780142,3.49539297 34.5698611,4.5035461 33.3262411,4.5035461 Z" id="Path"></path>
                        <path d="M33.3262411,17.5638298 L2.25177305,17.5638298 C1.00815313,17.5638298 1.27998479e-14,16.5556767 1.27998479e-14,15.3120567 C1.27998479e-14,14.0684368 1.00815313,13.0602837 2.25177305,13.0602837 L33.3262411,13.0602837 C34.5698611,13.0602837 35.5780142,14.0684368 35.5780142,15.3120567 C35.5780142,16.5556767 34.5698611,17.5638298 33.3262411,17.5638298 Z" id="Path"></path>
                    </g>
                    <g id="Group" opacity="0.3" transform="translate(167.982270, 180.592199)" fill="#3F456B">
                        <path d="M33.3262411,4.5035461 L2.25177305,4.5035461 C1.00815313,4.5035461 2.55996957e-14,3.49539297 2.55996957e-14,2.25177305 C2.55996957e-14,1.00815313 1.00815313,0 2.25177305,0 L33.3262411,0 C34.5698611,0 35.5780142,1.00815313 35.5780142,2.25177305 C35.5780142,3.49539297 34.5698611,4.5035461 33.3262411,4.5035461 L33.3262411,4.5035461 Z" id="Path"></path>
                        <path d="M33.3262411,17.5638298 L2.25177305,17.5638298 C1.00815313,17.5638298 2.55996957e-14,16.5556767 2.55996957e-14,15.3120567 C2.55996957e-14,14.0684368 1.00815313,13.0602837 2.25177305,13.0602837 L33.3262411,13.0602837 C34.5698611,13.0602837 35.5780142,14.0684368 35.5780142,15.3120567 C35.5780142,16.5556767 34.5698611,17.5638298 33.3262411,17.5638298 L33.3262411,17.5638298 Z" id="Path"></path>
                    </g>
                    <g id="Group" opacity="0.3" transform="translate(66.652482, 14.861702)" fill="#3F456B">
                        <path d="M81.964539,4.79177305 L2.62556738,4.79177305 C1.38194746,4.79177305 0.373794326,3.78361992 0.373794326,2.54 C0.373794326,1.29638008 1.38194746,0.28822695 2.62556738,0.28822695 L81.964539,0.28822695 C83.2081589,0.28822695 84.2163121,1.29638008 84.2163121,2.54 C84.2163121,3.78361992 83.2081589,4.79177305 81.964539,4.79177305 L81.964539,4.79177305 Z" id="Path"></path>
                        <path d="M81.964539,17.9331206 L2.62556738,17.9331206 C1.38194746,17.9331206 0.373794326,16.9249674 0.373794326,15.6813475 C0.373794326,14.4377276 1.38194746,13.4295745 2.62556738,13.4295745 L81.964539,13.4295745 C83.2081589,13.4295745 84.2163121,14.4377276 84.2163121,15.6813475 C84.2163121,16.9249674 83.2081589,17.9331206 81.964539,17.9331206 Z" id="Path"></path>
                        <path d="M53.4796099,31.0744681 L2.70212766,31.0744681 C1.45850774,31.0744681 0.45035461,30.066315 0.45035461,28.822695 C0.45035461,27.5790751 1.45850774,26.570922 2.70212766,26.570922 L53.4796099,26.570922 C54.7232298,26.570922 55.731383,27.5790751 55.731383,28.822695 C55.731383,30.066315 54.7232298,31.0744681 53.4796099,31.0744681 L53.4796099,31.0744681 Z" id="Path"></path>
                    </g>
                </g>
                <g id="Lines" fill="#3F456B">
                    <path d="M33.3262411,167.08156 C32.0826212,167.08156 31.0744681,166.073407 31.0744681,164.829787 L31.0744681,112.588652 C31.0744681,111.345033 32.0826212,110.336879 33.3262411,110.336879 L187.797872,110.336879 C189.041492,110.336879 190.049645,111.345033 190.049645,112.588652 L190.049645,164.379433 C190.049645,165.623053 189.041492,166.631206 187.797872,166.631206 C186.554252,166.631206 185.546099,165.623053 185.546099,164.379433 L185.546099,114.840426 L35.5780142,114.840426 L35.5780142,164.829787 C35.5780142,166.073407 34.5698611,167.08156 33.3262411,167.08156 Z" id="Path"></path>
                    <path d="M110.336879,166.631206 C109.09326,166.631206 108.085106,165.623053 108.085106,164.379433 L108.085106,65.3014184 C108.085106,64.0577985 109.09326,63.0496454 110.336879,63.0496454 C111.580499,63.0496454 112.588652,64.0577985 112.588652,65.3014184 L112.588652,164.379433 C112.588652,165.623053 111.580499,166.631206 110.336879,166.631206 Z" id="Path"></path>
                    <path d="M63.9503546,221.124113 L2.25177305,221.124113 C1.00815313,221.124113 0,220.11596 0,218.87234 L0,164.829787 C0,163.586167 1.00815313,162.578014 2.25177305,162.578014 L63.9503546,162.578014 C65.1939745,162.578014 66.2021277,163.586167 66.2021277,164.829787 L66.2021277,218.87234 C66.2021277,220.11596 65.1939745,221.124113 63.9503546,221.124113 Z M4.5035461,216.620567 L61.6985816,216.620567 L61.6985816,167.08156 L4.5035461,167.08156 L4.5035461,216.620567 Z" id="Shape"></path>
                    <path d="M140.960993,221.124113 L79.712766,221.124113 C78.469146,221.124113 77.4609929,220.11596 77.4609929,218.87234 L77.4609929,164.829787 C77.4609929,163.586167 78.469146,162.578014 79.712766,162.578014 L140.960993,162.578014 C142.204613,162.578014 143.212766,163.586167 143.212766,164.829787 L143.212766,218.87234 C143.212766,220.11596 142.204613,221.124113 140.960993,221.124113 Z M81.964539,216.620567 L138.70922,216.620567 L138.70922,167.08156 L81.964539,167.08156 L81.964539,216.620567 Z" id="Shape"></path>
                    <path d="M218.421986,221.124113 L157.173759,221.124113 C155.930139,221.124113 154.921986,220.11596 154.921986,218.87234 L154.921986,164.829787 C154.921986,163.586167 155.930139,162.578014 157.173759,162.578014 L218.421986,162.578014 C219.665606,162.578014 220.673759,163.586167 220.673759,164.829787 L220.673759,218.87234 C220.673759,220.11596 219.665606,221.124113 218.421986,221.124113 Z M159.425532,216.620567 L216.170213,216.620567 L216.170213,167.08156 L159.425532,167.08156 L159.425532,216.620567 Z" id="Shape"></path>
                    <path d="M167.98227,66.6524823 L52.6914894,66.6524823 C51.4478694,66.6524823 50.4397163,65.6443291 50.4397163,64.4007092 L50.4397163,2.25177305 C50.4397163,1.00815313 51.4478694,0 52.6914894,0 L167.98227,0 C169.225889,0 170.234043,1.00815313 170.234043,2.25177305 L170.234043,64.4007092 C170.234043,65.6443291 169.225889,66.6524823 167.98227,66.6524823 L167.98227,66.6524823 Z M54.9432624,62.1489362 L165.730496,62.1489362 L165.730496,4.5035461 L54.9432624,4.5035461 L54.9432624,62.1489362 Z" id="Shape"></path>
                </g>
            </g>
        </g>
    </g>
</svg>