<?xml version="1.0" standalone="no"?>
<!DOCTYPE svg PUBLIC "-//W3C//DTD SVG 20010904//EN"
 "http://www.w3.org/TR/2001/REC-SVG-20010904/DTD/svg10.dtd">
<svg version="1.0" xmlns="http://www.w3.org/2000/svg"
 width="896.000000pt" height="896.000000pt" viewBox="0 0 896.000000 896.000000"
 preserveAspectRatio="xMidYMid meet">
<metadata>
Created by potrace 1.14, written by Peter Selinger 2001-2017
</metadata>
<g transform="translate(0.000000,896.000000) scale(0.100000,-0.100000)"
fill="#000000" stroke="none">
<path d="M7852 7788 c-10 -29 -29 -90 -42 -135 -13 -46 -28 -83 -32 -83 -5 0
-7 -4 -4 -9 3 -4 -4 -35 -15 -67 -12 -32 -23 -68 -26 -79 -2 -11 -5 -24 -7
-30 -5 -21 -88 -282 -101 -320 -8 -22 -30 -94 -50 -160 -20 -66 -38 -126 -41
-133 -2 -7 -4 -14 -4 -17 0 -3 -8 -24 -16 -47 -9 -24 -17 -52 -20 -62 -2 -11
-8 -24 -13 -29 -6 -6 -4 -18 6 -33 15 -23 14 -24 -8 -25 -13 0 -71 -2 -129 -4
-58 -3 -170 -7 -250 -9 -139 -5 -224 -8 -610 -21 -267 -10 -269 -10 -282 -23
-18 -18 -3 -41 121 -197 62 -77 117 -147 124 -155 90 -114 172 -216 177 -220
3 -3 22 -27 42 -55 47 -65 102 -115 159 -148 46 -26 65 -31 146 -41 23 -3 46
-6 50 -7 4 -1 10 -1 13 0 3 1 26 4 51 6 25 2 63 11 84 19 54 23 62 20 75 -21
22 -71 39 -98 125 -203 47 -58 91 -112 98 -120 7 -8 41 -51 77 -95 36 -44 72
-88 80 -99 8 -10 30 -34 47 -55 18 -20 33 -39 33 -43 0 -14 41 -29 60 -23 11
3 21 19 25 38 4 18 10 37 14 42 3 6 6 12 7 15 0 3 3 12 7 20 3 8 26 74 52 145
61 170 96 265 105 290 13 32 23 59 26 70 1 6 9 31 17 57 20 62 16 192 -6 237
-9 19 -17 36 -17 38 0 2 24 -9 53 -23 103 -53 186 -60 467 -39 36 2 103 7 150
10 47 2 121 8 165 11 44 4 90 6 103 5 20 -1 22 4 22 52 0 42 -5 58 -28 84 -15
17 -55 66 -89 110 -33 43 -69 88 -80 100 -10 12 -29 36 -43 53 -14 17 -32 40
-40 49 -8 10 -26 33 -40 52 -60 80 -135 141 -193 154 -38 10 -42 21 -18 54 12
16 21 34 21 39 0 6 4 12 8 14 4 2 18 28 31 58 30 69 36 188 14 263 -12 43 -80
159 -102 177 -4 3 -17 19 -29 35 -12 17 -33 44 -46 60 -13 17 -47 59 -75 95
-28 36 -54 70 -59 75 -4 6 -43 55 -86 110 -43 55 -82 102 -87 103 -5 2 -9 8
-9 13 0 11 -2 13 -61 82 -54 62 -72 61 -97 -5z"/>
<path d="M2359 5286 c-3 -3 -39 -8 -80 -11 -80 -5 -102 -8 -158 -25 -235 -73
-411 -222 -525 -447 -14 -29 -23 -53 -20 -53 4 0 2 -6 -4 -13 -6 -6 -19 -35
-30 -62 -11 -28 -32 -76 -46 -107 -14 -31 -26 -64 -26 -72 0 -9 -4 -16 -10
-16 -5 0 -9 -3 -8 -7 1 -5 -6 -25 -15 -47 -9 -21 -17 -41 -17 -45 0 -3 -7 -19
-16 -36 -9 -16 -27 -59 -42 -95 -14 -36 -30 -68 -36 -72 -6 -4 -7 -8 -2 -8 5
0 4 -6 -2 -12 -6 -7 -11 -17 -12 -23 -3 -14 -12 -36 -65 -160 -25 -60 -62
-148 -82 -195 -35 -84 -43 -103 -81 -190 -11 -25 -44 -101 -72 -170 -29 -69
-60 -143 -70 -165 -10 -22 -35 -80 -55 -130 -21 -49 -41 -94 -45 -100 -4 -5
-11 -21 -15 -34 -4 -13 -14 -40 -23 -60 -9 -20 -16 -38 -17 -41 -3 -9 -25 -60
-45 -104 -11 -25 -20 -47 -20 -50 0 -2 -16 -39 -35 -80 -19 -42 -35 -78 -35
-80 0 -2 -9 -23 -19 -47 -11 -24 -20 -47 -21 -51 -1 -7 -42 -101 -70 -163 -5
-11 -26 -60 -46 -110 -20 -49 -49 -118 -65 -151 -16 -34 -29 -66 -29 -71 0 -4
-9 -25 -20 -46 -11 -20 -18 -37 -16 -37 2 0 -9 -27 -25 -60 -16 -33 -29 -66
-29 -73 0 -7 -4 -17 -9 -22 -4 -6 -23 -46 -41 -90 -18 -44 -42 -102 -55 -130
-12 -27 -37 -86 -55 -130 -39 -94 -88 -211 -102 -242 -6 -12 -8 -33 -4 -47 l6
-26 373 0 372 0 77 34 c176 77 316 213 412 403 14 29 26 55 27 58 0 7 26 70
65 156 19 42 34 83 34 91 0 8 4 18 9 23 5 6 27 55 50 110 47 113 49 118 86
199 15 33 28 64 29 70 1 6 4 16 8 21 3 6 29 66 58 135 29 69 60 143 70 165 51
116 58 135 53 135 -3 0 1 8 10 18 9 10 18 27 20 38 1 10 12 39 24 64 11 25 38
86 58 135 21 50 40 95 44 100 3 6 6 15 8 20 2 11 242 574 272 640 10 22 26 62
36 88 10 26 22 50 26 53 5 3 9 16 9 30 0 37 16 29 36 -18 10 -24 18 -45 19
-48 0 -3 11 -27 23 -54 12 -27 22 -51 22 -53 0 -3 14 -34 30 -70 17 -35 30
-67 30 -69 0 -3 9 -24 19 -47 10 -23 44 -103 75 -177 31 -74 63 -148 71 -165
8 -16 35 -79 61 -140 25 -60 52 -123 59 -140 7 -16 32 -75 55 -130 23 -55 50
-118 61 -141 10 -22 28 -65 39 -95 12 -30 25 -58 30 -64 4 -5 11 -25 15 -43 3
-17 11 -32 16 -32 5 0 9 -6 9 -14 0 -7 10 -35 22 -62 12 -27 23 -51 23 -54 3
-9 25 -61 50 -116 14 -30 25 -61 25 -68 0 -8 3 -16 8 -18 4 -1 18 -30 31 -63
13 -33 32 -78 42 -100 9 -22 36 -85 59 -140 47 -111 59 -139 87 -205 11 -25
60 -138 108 -252 l89 -208 378 0 378 0 72 32 c40 18 75 36 76 40 2 4 8 8 14 8
20 0 108 72 101 82 -3 7 -1 8 5 4 7 -4 12 -14 12 -22 0 -8 6 -14 14 -14 14 0
87 71 128 125 12 17 28 36 35 43 7 7 13 19 13 27 0 7 4 15 8 17 7 3 82 152 82
163 0 2 11 28 24 57 13 29 58 133 100 230 89 210 110 259 165 381 17 38 31 72
31 76 0 4 9 25 19 47 10 21 47 104 80 184 34 80 66 154 71 165 5 11 48 110 96
220 47 110 94 218 104 240 9 22 36 85 60 140 23 55 52 123 64 150 13 28 62
143 111 257 76 176 91 204 101 190 7 -9 10 -20 8 -24 -3 -5 0 -8 7 -8 7 0 10
-2 7 -6 -3 -3 17 -55 44 -117 27 -62 51 -116 52 -122 1 -5 12 -30 23 -55 11
-25 44 -101 73 -170 29 -69 60 -143 70 -165 10 -22 30 -69 45 -105 15 -36 33
-78 40 -95 7 -16 32 -75 55 -130 24 -55 50 -118 60 -140 10 -22 37 -85 60
-140 23 -55 50 -118 60 -140 10 -22 88 -206 175 -410 86 -203 165 -388 175
-410 10 -22 33 -76 51 -119 80 -195 234 -358 425 -448 l69 -33 387 -3 c214 -1
389 1 389 5 7 44 -4 83 -73 243 -43 102 -90 212 -104 245 -14 33 -34 79 -45
102 -10 24 -19 45 -19 48 0 3 -15 38 -34 78 -18 40 -37 84 -41 97 -4 14 -18
46 -31 72 -14 27 -24 50 -24 53 -1 3 -10 26 -21 52 -12 27 -32 77 -47 113 -14
36 -30 68 -35 71 -5 3 -8 9 -8 13 1 3 0 8 0 11 -1 3 -2 8 -3 13 -1 4 -10 25
-20 47 -24 54 -39 89 -41 95 -1 3 -6 16 -13 30 -48 107 -94 218 -97 231 -2 9
-8 25 -14 35 -22 41 -60 124 -56 124 2 0 -10 30 -26 68 -17 37 -34 76 -38 87
-29 67 -41 95 -59 136 -12 25 -31 70 -42 100 -12 29 -32 77 -46 107 -13 29
-24 55 -24 57 0 2 -11 28 -24 57 -13 29 -81 188 -150 353 -70 165 -135 316
-144 335 -9 19 -17 37 -17 40 -2 7 -18 44 -48 112 -14 31 -23 59 -19 62 3 3 0
6 -6 6 -7 0 -12 6 -12 13 0 12 -29 80 -50 119 -6 10 -10 22 -10 28 0 5 -11 33
-24 62 -13 29 -33 73 -44 98 -20 46 -203 476 -229 540 -13 31 -18 35 -49 34
-19 -1 -36 1 -39 5 -2 4 -27 5 -55 1 -27 -4 -50 -3 -50 1 0 4 -13 4 -30 -1
-17 -5 -30 -5 -30 0 0 5 -13 5 -29 0 -15 -4 -34 -4 -41 0 -7 5 -23 4 -36 0
-12 -5 -25 -6 -28 -2 -8 8 -103 5 -116 -3 -6 -3 -10 -1 -10 5 0 6 -4 9 -9 6
-5 -3 -38 -8 -73 -11 -34 -3 -73 -7 -85 -10 -13 -3 -33 -7 -45 -10 -182 -40
-387 -181 -493 -340 -34 -51 -99 -179 -111 -218 -4 -12 -19 -49 -34 -82 -16
-33 -62 -141 -105 -240 -42 -99 -82 -193 -90 -210 -7 -16 -54 -127 -105 -245
-51 -118 -101 -234 -111 -257 -18 -40 -40 -91 -44 -103 -1 -3 -10 -23 -19 -45
-62 -141 -76 -175 -76 -184 0 -6 -4 -11 -8 -11 -5 0 -9 -6 -9 -12 0 -7 -12
-38 -26 -68 -13 -30 -44 -100 -67 -155 -23 -55 -55 -128 -71 -163 -16 -35 -29
-65 -29 -68 0 -2 -9 -26 -21 -52 -12 -26 -25 -56 -30 -67 -4 -11 -29 -67 -55
-125 -25 -58 -47 -109 -48 -115 -2 -5 -13 -32 -24 -58 -12 -27 -22 -53 -22
-58 0 -5 -4 -9 -8 -9 -5 0 -9 12 -9 28 0 15 -9 47 -21 72 -11 25 -53 119 -92
210 -39 91 -80 184 -91 207 -10 24 -19 47 -19 53 0 5 -5 9 -11 8 -11 -3 -19 8
-37 52 -5 14 -18 43 -27 65 -10 22 -23 54 -30 70 -7 17 -19 46 -28 65 -8 19
-27 64 -42 100 -15 36 -31 72 -35 81 -5 9 -25 56 -45 105 -20 49 -43 104 -51
122 -33 75 -43 100 -69 162 -14 36 -35 83 -45 105 -10 22 -35 81 -55 130 -21
50 -46 108 -55 130 -10 22 -37 85 -60 140 -23 55 -51 119 -61 142 -10 23 -19
44 -19 47 0 3 -11 29 -24 58 -19 44 -72 166 -153 358 -8 19 -19 43 -24 52 -5
10 -9 25 -9 33 0 8 -5 15 -10 15 -6 0 -9 3 -8 8 2 10 -25 79 -59 148 -12 23
-17 47 -13 54 18 29 -51 103 -79 86 -4 -3 -13 -1 -21 4 -7 4 -24 4 -37 -1 -13
-5 -23 -5 -23 1 0 5 -12 5 -30 0 -16 -5 -30 -5 -30 -1 0 4 -27 4 -60 1 -33 -3
-60 -3 -60 1 0 4 -13 4 -30 -1 -16 -5 -30 -5 -30 0 0 4 -16 4 -35 0 -20 -4
-35 -4 -37 2 -2 5 -6 7 -9 4z m1991 -3641 c14 -19 14 -19 -2 -6 -10 7 -18 18
-18 24 0 6 1 8 3 6 1 -2 9 -13 17 -24z m35 -65 c3 -5 1 -10 -4 -10 -6 0 -11 5
-11 10 0 6 2 10 4 10 3 0 8 -4 11 -10z m23 -75 c-3 -3 -9 2 -12 12 -6 14 -5
15 5 6 7 -7 10 -15 7 -18z m33 -61 c5 -15 8 -29 5 -31 -2 -2 -8 10 -14 26 -13
38 -5 41 9 5z m28 -74 c11 -24 11 -24 -3 -6 -9 11 -16 24 -16 30 0 12 5 7 19
-24z m19 -55 c-3 -3 -9 2 -12 12 -6 14 -5 15 5 6 7 -7 10 -15 7 -18z m22 -35
c6 -11 8 -20 6 -20 -3 0 -10 9 -16 20 -6 11 -8 20 -6 20 3 0 10 -9 16 -20z"/>
</g>
</svg>
